<svg id="Group_1073833" data-name="Group 1073833" xmlns="http://www.w3.org/2000/svg" xmlns:xlink="http://www.w3.org/1999/xlink" width="78" height="78" viewBox="0 0 78 78">
  <defs>
    <clipPath id="clip-path">
      <rect id="Rectangle_377949" data-name="Rectangle 377949" width="78" height="78" fill="none"/>
    </clipPath>
  </defs>
  <g id="Group_1073832" data-name="Group 1073832" clip-path="url(#clip-path)">
    <path id="Path_823511" data-name="Path 823511" d="M.179,57.04c.083-.1.051-.219.075-.329a.615.615,0,0,1,.593-.534,10.224,10.224,0,0,1,2.067-.006c.186.02.33.07.223-.263A7.729,7.729,0,0,1,2.658,53a8.379,8.379,0,0,1,4.777-7.356c.308-.156.77-.177.927-.414s-.012-.65-.041-.986a7.7,7.7,0,0,1,3.22-7.107.624.624,0,0,0,.243-.691c-.286-1.489-.58-2.976-.841-4.469-.242-1.383-.583-2.75-.808-4.136-.17-1.043-.444-2.064-.515-3.129a8.376,8.376,0,0,1,1.056-4.7,8.131,8.131,0,0,1,3.728-3.65,6.766,6.766,0,0,1,1.386-.491c.36-.077.513-.182.383-.543-.148-.415-.075-.861-.25-1.295a4.42,4.42,0,0,1-.043-.976,3.453,3.453,0,0,0-.1-.55c-.063-.242-.284-.281-.547-.207a4.756,4.756,0,0,1-2.331.183,2.9,2.9,0,0,1-2.047-1.975,2.7,2.7,0,0,1,.1-1.731.389.389,0,0,0-.07-.314,3.592,3.592,0,0,1-.551-1.813A2.9,2.9,0,0,1,11.1,4.877a3.745,3.745,0,0,1,.434-.424.267.267,0,0,0,.1-.3,2.051,2.051,0,0,1,.095-1.46A3.631,3.631,0,0,1,13.554.446a3.793,3.793,0,0,1,3.559,0A3.526,3.526,0,0,1,19,3.075a.469.469,0,0,0,.311.421A2.712,2.712,0,0,1,20.829,7.09c-.078.215.061.288.13.387A2.686,2.686,0,0,1,21,10.643a2.563,2.563,0,0,1-2.015,1.167,15.349,15.349,0,0,0-1.522.286c-.16.026-.138.106-.139.205a8.01,8.01,0,0,0,.151,1.268c.085.555.172,1.111.218,1.669.022.268.143.31.365.308a2.819,2.819,0,0,1,1.29.195c.09.043.234-.018.351-.044a2.6,2.6,0,0,1,1.543.369A8.609,8.609,0,0,1,25.418,19.5,8,8,0,0,1,26.7,23.118c.1,1.046.189,2.093.31,3.136.106.913.127,1.833.24,2.742.087.708.174,1.422.192,2.126.027,1.039.209,2.063.262,3.1A13.358,13.358,0,0,0,28,36.765a.843.843,0,0,1,.006.3,4.392,4.392,0,0,0,.066,1.432c.181.891.159,1.8.318,2.683.01.059-.011.146.078.14a.227.227,0,0,0,.153-.1,8.774,8.774,0,0,1,1.014-1.307,7.387,7.387,0,0,1,3.547-2.4,5.217,5.217,0,0,1,4.383.832,11.2,11.2,0,0,1,3.542,4.122c.172.32.423.6.577.938.333.731.67,1.46.993,2.2.082.188.13.249.378.187a9.019,9.019,0,0,1,5,.187,7.878,7.878,0,0,1,3.316,2.1c.058.061.1.16.25.132,0-.846,0-1.7,0-2.554q0-7.594.006-15.189a14.846,14.846,0,0,1,.647-4,22.524,22.524,0,0,1,1.99-4.946,18.9,18.9,0,0,1,1.4-2.135A15.291,15.291,0,0,0,57.2,16.908a17.133,17.133,0,0,0,1.485-4.6,30.537,30.537,0,0,0,.258-3.259c.012-.174-.115-.2-.215-.251a3.177,3.177,0,0,1-1.759-2.01,3.835,3.835,0,0,1-.124-1.124,24.6,24.6,0,0,1,.009-2.959A2.939,2.939,0,0,1,58.2.551,3.248,3.248,0,0,1,60.05.02c3.138-.006,6.276-.017,9.413,0a3.11,3.11,0,0,1,3.079,1.84,3.049,3.049,0,0,1,.278,1.125A20.358,20.358,0,0,1,72.8,6.312a2.913,2.913,0,0,1-1.817,2.445c-.195.086-.343.189-.327.445.071,1.112.186,2.215.346,3.321a15.851,15.851,0,0,0,1.649,4.711,14.317,14.317,0,0,0,1.434,2.211A18.486,18.486,0,0,1,76.451,23.7a25.7,25.7,0,0,1,1.063,3.384,18.1,18.1,0,0,1,.461,2.485c.2,1.946.089,3.893.091,5.838q.024,19.3.011,38.6a3.543,3.543,0,0,1-.67,2.381,3.342,3.342,0,0,1-1.236.857,4.053,4.053,0,0,1-1.858.227c-6.519.01-13.038-.006-19.558.021A3,3,0,0,1,51.6,74.8a.875.875,0,0,0-.057-.14,7.02,7.02,0,0,1-1.4,1.51,7.336,7.336,0,0,1-4.6,1.734c-11.7.193-23.4.037-35.1.08a10.041,10.041,0,0,1-2.116-.267,7.348,7.348,0,0,1-2.791-1.3,8.835,8.835,0,0,1-2.624-3.2A17.781,17.781,0,0,1,1.559,69.9q-.531-1.789-.92-3.613C.408,65.2.333,64.1.206,63.012A11.265,11.265,0,0,1,.2,61.757c0-.107.049-.231-.062-.321.1-.063.111-.125,0-.185.02-.03.058-.06.059-.091C.21,59.8.25,58.438.177,57.077L.2,57.06Zm30.047-.92c.027-.086-.02-.142-.073-.2a5.671,5.671,0,0,1-1.3-4.316c0-.061.034-.12.042-.181a6.463,6.463,0,0,1,.8-2.123.956.956,0,0,0,.3-.381,4.776,4.776,0,0,1,.876-1,5.047,5.047,0,0,1,2.414-1.141A5.7,5.7,0,0,1,39.9,50.559a4.631,4.631,0,0,1,.287,2.258c-.162,0-.117.107-.105.2a2.769,2.769,0,0,1-.026.57,6.335,6.335,0,0,1-1.147,2.256c-.054.072-.159.1-.091.244s.17.093.257.091c.741-.022,1.481-.071,2.223-.032a.344.344,0,0,0,.369-.209,8.379,8.379,0,0,0,.861-3.041,12.622,12.622,0,0,0-.161-3.012,2.535,2.535,0,0,0-.1-.709,9.517,9.517,0,0,1-.5-1.585c-.185-.552-.277-1.139-.5-1.674-.285-.686-.651-1.339-1-2a14.779,14.779,0,0,0-.986-1.724,12.334,12.334,0,0,0-.9-1.07,6.122,6.122,0,0,0-3.241-2.156c-.031-.021-.061-.056-.093-.059a3.913,3.913,0,0,0-2.6.619,8.012,8.012,0,0,0-1.53,1.284A19.85,19.85,0,0,0,26.963,48.3a10.956,10.956,0,0,0-.541,3.513,7.818,7.818,0,0,0,.886,4.021.529.529,0,0,0,.529.328,23.066,23.066,0,0,1,2.34,0c.043.018.059,0,.049-.041M61.735,1.585a13.091,13.091,0,0,0-1.686-.029,1.542,1.542,0,0,0-1.623,1.421,17.03,17.03,0,0,0,.025,3.243A1.5,1.5,0,0,0,59.828,7.5a11.081,11.081,0,0,0,1.763-.016,13.307,13.307,0,0,0,2.107.064c2.021,0,4.042-.005,6.062-.028A1.536,1.536,0,0,0,71.315,6,21.417,21.417,0,0,0,71.3,3.137,1.577,1.577,0,0,0,69.53,1.546q-3.09-.008-6.179,0c-.46,0-.92.012-1.38.019a.05.05,0,0,0-.066,0l-.169.015M55.821,64.53c-.192,0-.383,0-.574-.012s-.309.015-.358.261c-.077.392-.068.794-.154,1.179-.222,1-.469,2-.72,3a18.952,18.952,0,0,1-.732,2.25,1.509,1.509,0,0,0-.141.55c0,.98-.007,1.96.021,2.938a1.212,1.212,0,0,0,1.053,1.22,12.214,12.214,0,0,0,1.988,0c.217.01.434.029.651.029,5.916,0,11.832-.02,17.748.016,1.591.01,1.966-.584,1.948-1.969-.039-3.034-.023-6.069,0-9.1,0-.32-.071-.375-.367-.375q-9.988.012-19.976.006c-.128,0-.256.008-.383.012m7.3-55.409c-.78-.007-1.561-.008-2.341-.025-.222,0-.278.076-.279.289a21.789,21.789,0,0,1-.2,2.521A18.249,18.249,0,0,1,59.21,16.16a13.814,13.814,0,0,1-2.028,3.651,20.869,20.869,0,0,0-3.777,8.369,19.453,19.453,0,0,0-.267,3.539c0,.139.026.208.187.2.856-.03,1.713-.05,2.569-.074.179.007.357.021.536.021l18.86,0c.333,0,.666-.006,1,0,.146,0,.245,0,.254-.19a15.9,15.9,0,0,0-.165-3.074,15.652,15.652,0,0,0-.711-2.66A23.713,23.713,0,0,0,73.4,21.028c-.4-.652-.89-1.25-1.327-1.881a14.627,14.627,0,0,1-2.1-4.465A18.16,18.16,0,0,1,69.2,9.976c-.006-.872,0-.887-.859-.884-1.741.006-3.481-.045-5.221.029m-7.138,53.84c.026,0,.051,0,.077,0q10.063.009,20.127.02a.45.45,0,0,0,.346-.119c0-.034.008-.068.012-.1q0-.232,0-.464a1.012,1.012,0,0,0,0-.464q0-.686,0-1.372v-.158q.006-3.823.012-7.647,0-9.387-.01-18.775c0-.151.083-.337-.1-.454a.075.075,0,0,0-.126,0c-.32-.011-.639-.032-.958-.032q-8.81,0-17.62,0c-.486,0-.972.007-1.458.011l-.105.006-.2.016c-.779-.008-1.558,0-2.335-.032-.372-.016-.465.1-.465.468q.016,8.16,0,16.321a2.962,2.962,0,0,0,.173.97,10.338,10.338,0,0,1,.395,1.376,7.046,7.046,0,0,1-.033,3.285c-.064.227,0,.376.28.353.089-.007.179,0,.269,0a.77.77,0,0,1,.88.856q.006,2.6,0,5.2c0,.812-.013.812.843.737m-53.8-5.288q-.038-.049-.077,0c-.189-.01-.39-.069-.383.251a55.881,55.881,0,0,0,.231,6.991,27.262,27.262,0,0,0,.857,3.925,24.935,24.935,0,0,0,1.392,3.58,6.529,6.529,0,0,0,6.3,4.031q17.228,0,34.455.006a6.794,6.794,0,0,0,1.612-.192,6.421,6.421,0,0,0,4.317-3.374,24.773,24.773,0,0,0,2.046-5.718,26.984,26.984,0,0,0,.647-5c.072-1.386.017-2.779.014-4.168,0-.115.064-.263-.1-.335l0-.017-.01.013c-.077,0-.154-.007-.23-.007l-37.118,0c-.153,0-.305-.016-.458-.025a.2.2,0,0,0-.315,0c-.089.009-.177.025-.266.025q-5.05,0-10.1,0c.016-.059.038-.15-.043-.142s-.209.011-.19.159l-.385,0h0l-2.19.007M16.452,35.437a7.285,7.285,0,0,1,2.3.288,8.168,8.168,0,0,1,4.42,3.049,7.909,7.909,0,0,1,1.5,3.574,6.188,6.188,0,0,1-.027,2.6.31.31,0,0,0,.244.429,2.737,2.737,0,0,1,.94.418c.287.238.389.1.5-.148.2-.476.4-.957.622-1.425a1.327,1.327,0,0,0,.142-.737c-.05-.437-.134-.872-.147-1.31-.021-.723-.146-1.435-.182-2.158-.051-1.03-.187-2.055-.283-3.083-.04-.428-.064-.857-.109-1.284-.06-.564-.17-1.125-.194-1.69-.034-.8-.119-1.588-.187-2.381-.109-1.281-.25-2.559-.349-3.841-.021-.269-.092-.365-.353-.328-.864.122-1.732.217-2.59.369a.885.885,0,0,1-.97-.557.74.74,0,0,1,.437-.874,2.1,2.1,0,0,1,.686-.163q1.187-.145,2.369-.32c.158-.024.265-.074.208-.331a9.338,9.338,0,0,1-.177-1.572,7.7,7.7,0,0,0-.3-1.927,6.822,6.822,0,0,0-4.113-4.469,7.011,7.011,0,0,0-4-.348,6.743,6.743,0,0,0-3.422,1.7A7.068,7.068,0,0,0,11.1,24.329c0,.195.031.329.269.3,1.018-.112,2.023-.315,3.05-.38.639-.04.936.174.907.8-.019.392-.237.588-.779.666-.956.139-1.906.319-2.871.393-.173.013-.3.051-.26.274.092.474.163.951.245,1.426.19,1.09.48,2.162.594,3.265a.284.284,0,0,0,.328.288c.431-.044.859-.106,1.287-.174a18.547,18.547,0,0,1,2.184-.263.687.687,0,0,1,.732.541.7.7,0,0,1-.52.89,8.364,8.364,0,0,1-.966.17c-.817.114-1.628.273-2.453.332-.146.01-.231.074-.2.25.179.874.364,1.748.515,2.627.054.314.168.349.434.234a6.735,6.735,0,0,1,2.851-.536M7.541,56.114v.025c.717,0,1.435-.024,2.15.01.367.017.558-.061.643-.445a5.431,5.431,0,0,1,1.939-2.964,4.969,4.969,0,0,1,3.112-1.149c.282-.008.414-.077.405-.391-.019-.726-.023-1.454,0-2.18a.806.806,0,0,0-.429-.746c-.317-.146-.586-.358-.89-.515a14.931,14.931,0,0,1-1.48-.882.734.734,0,0,1-.2-1.073.765.765,0,0,1,1.054-.12c.546.323,1.1.626,1.654.942.181.1.373.105.341-.131a13.933,13.933,0,0,1-.052-2.146.686.686,0,0,0-.4-.7c-.79-.445-1.566-.916-2.344-1.383a.724.724,0,0,1-.338-1,.754.754,0,0,1,1.021-.275c.6.243,1.1.644,1.663.938.386.2.385.209.39-.206.006-.459-.006-.918.009-1.377a.743.743,0,0,1,.633-.709.728.728,0,0,1,.8.459,1.451,1.451,0,0,1,.089.563c0,.4,0,.791,0,1.186,0,.19.041.273.234.149.107-.068.221-.128.331-.193.474-.278.94-.57,1.424-.829a.718.718,0,0,1,1,.271.7.7,0,0,1-.183.95,2.827,2.827,0,0,1-.378.262c-.712.417-1.422.837-2.142,1.238a.478.478,0,0,0-.284.483c.01.727,0,1.454,0,2.181,0,.4.012.413.365.208.52-.3,1.032-.614,1.559-.9a.729.729,0,0,1,.977.118c.363.393.225.906-.325,1.226-.76.441-1.513.893-2.278,1.325a.522.522,0,0,0-.293.523c.009.739,0,1.479,0,2.219s0,.728.661.966A5.349,5.349,0,0,1,21.3,55.751c.094.3.2.391.485.388,1.152-.012,2.305-.012,3.457-.02.459,0,.5-.046.333-.477a8.95,8.95,0,0,1-.605-2.482,11.41,11.41,0,0,1,.076-2.856,14.35,14.35,0,0,1,.619-2.632.245.245,0,0,0-.133-.348,11.845,11.845,0,0,0-1.651-.709c-.869-.227-1.014-.476-.813-1.348a6.721,6.721,0,1,0-13.061-.009c.224.9.1,1.115-.809,1.372A6.8,6.8,0,0,0,4.209,52.7a6.253,6.253,0,0,0,.568,3.1.491.491,0,0,0,.535.326c.742-.013,1.485,0,2.228,0m40.181,0v.007c1.318,0,2.636-.01,3.953.007.339,0,.492-.117.525-.443.042-.414.138-.826.148-1.241a6.733,6.733,0,0,0-.972-3.849,7.135,7.135,0,0,0-7.761-3.359c-.264.054-.3.146-.223.386a17.076,17.076,0,0,1,.664,3.16,14.247,14.247,0,0,1-.035,2.684c-.02.235-.154.423-.165.652a4.667,4.667,0,0,1-.43,1.59c-.168.4-.167.4.265.406,1.344,0,2.687,0,4.03,0m-9.111-3.742a3.359,3.359,0,0,0-.122-1.208,4.055,4.055,0,0,0-4.108-2.944,4.147,4.147,0,0,0-4.054,4.034,4.065,4.065,0,0,0,.985,2.679,2.672,2.672,0,0,0,2.415,1.2,5.583,5.583,0,0,1,1.369.04,2.025,2.025,0,0,0,.832-.027,3.332,3.332,0,0,0,1.528-.961,3.537,3.537,0,0,0,1.154-2.809M14.848,5.642l.018,0c0-.064-.008-.127-.01-.191-.016-.505.231-.822.665-.856.464-.035.738.24.814.762.06.413.1.83.163,1.24.191,1.222.385,2.444.514,3.674.024.226.1.336.324.3.589-.094,1.185-.158,1.763-.3a1.317,1.317,0,0,0,.441-2.2c-.464-.4-.635-.608-.214-1.264a1.3,1.3,0,0,0-.892-2.03c-.766-.182-.856-.293-.879-1.088a2.2,2.2,0,0,0-4.251-.729,2.421,2.421,0,0,0-.018,1.61.66.66,0,0,1-.257.807c-.137.092-.291.158-.436.239A1.272,1.272,0,0,0,12.273,7.7c.59.616.6.7.2,1.454a1.279,1.279,0,0,0,1.108,1.89,13.974,13.974,0,0,0,1.745-.2c.185-.02.268-.1.234-.3-.1-.586-.18-1.175-.265-1.763q-.224-1.564-.444-3.129m.978,50.468v.014c1.189,0,2.378-.012,3.567.006.443.006.475,0,.306-.415a4.156,4.156,0,0,0-2.109-2.2,3.883,3.883,0,0,0-2.162-.4,4.161,4.161,0,0,0-3.476,2.554c-.179.386-.148.438.269.438h3.605" transform="translate(-0.093 0)"/>
    <path id="Path_823512" data-name="Path 823512" d="M.041,199.519c.112.061.106.123,0,.185a.124.124,0,0,1,0-.185" transform="translate(0 -138.268)" fill="#4db6a1"/>
    <path id="Path_823513" data-name="Path 823513" d="M.157,185.8l.025.02-.027.017L.1,185.818l.056-.015" transform="translate(-0.07 -128.763)" fill="#4db6a1"/>
    <path id="Path_823514" data-name="Path 823514" d="M57.067,187.767c.164.072.1.22.1.335,0,1.39.058,2.782-.014,4.168a27.01,27.01,0,0,1-.647,5,24.773,24.773,0,0,1-2.046,5.718,6.422,6.422,0,0,1-4.317,3.374,6.794,6.794,0,0,1-1.612.192q-17.228-.005-34.455-.006a6.529,6.529,0,0,1-6.3-4.031,24.9,24.9,0,0,1-1.392-3.58,27.262,27.262,0,0,1-.857-3.925,55.823,55.823,0,0,1-.231-6.991c-.007-.32.194-.261.383-.251.026.04.052.04.077,0l2.189-.007,0,.019.006-.018.384,0a.181.181,0,0,0,.233-.018q5.05,0,10.1,0c.089,0,.177-.016.265-.025a.2.2,0,0,0,.315,0c.153.008.305.025.458.025l37.118,0c.077,0,.154,0,.23.007l0,.019Z" transform="translate(-3.663 -130.101)" fill="#ffae7e"/>
    <path id="Path_823515" data-name="Path 823515" d="M181.185,108.821l.2-.016.106-.006c.486,0,.972-.011,1.458-.011q8.81,0,17.62,0c.32,0,.639.021.958.032l.126,0c.185.116.1.3.1.454q.011,9.387.01,18.775,0,3.823-.012,7.647c-.053,0-.1.019-.1.079s.048.077.1.079l0,1.372q-.3.234,0,.464,0,.232,0,.464c0,.034-.008.068-.011.1a.453.453,0,0,1-.346.119q-10.063-.013-20.127-.02c-.026,0-.051,0-.077,0q0-13.981,0-27.962c0-.523,0-1.045,0-1.568" transform="translate(-125.3 -75.39)" fill="#b5ffed"/>
    <path id="Path_823516" data-name="Path 823516" d="M188.127,29.618c1.74-.074,3.481-.023,5.221-.029.857,0,.853.011.859.884a18.159,18.159,0,0,0,.771,4.706,14.632,14.632,0,0,0,2.1,4.466c.437.631.926,1.229,1.327,1.881a23.711,23.711,0,0,1,2.266,4.921,15.66,15.66,0,0,1,.711,2.66,15.929,15.929,0,0,1,.165,3.074c-.009.185-.108.194-.254.19-.333-.009-.666,0-1,0l-18.86,0c-.179,0-.357-.013-.536-.021.008-.739-.035-1.483.034-2.216a17.577,17.577,0,0,1,.745-3.532,19.913,19.913,0,0,1,3.079-6.319,16.865,16.865,0,0,0,1.806-2.908,16.28,16.28,0,0,0,1.539-5.212,7.456,7.456,0,0,0,.024-2.539" transform="translate(-125.099 -20.497)" fill="#f8f9fb"/>
    <path id="Path_823517" data-name="Path 823517" d="M41.041,73.974a6.726,6.726,0,0,0-2.85.536c-.266.115-.38.08-.434-.234-.152-.879-.337-1.753-.516-2.627-.035-.176.049-.239.2-.25.825-.059,1.636-.218,2.453-.332a8.3,8.3,0,0,0,.966-.17.7.7,0,0,0,.52-.89.688.688,0,0,0-.732-.541,18.605,18.605,0,0,0-2.184.263c-.427.069-.856.131-1.286.175a.284.284,0,0,1-.328-.288c-.114-1.1-.4-2.176-.594-3.265-.082-.474-.153-.952-.245-1.426-.043-.223.087-.261.26-.274.965-.074,1.915-.254,2.87-.393.543-.079.762-.275.779-.666.03-.629-.268-.844-.907-.8-1.026.064-2.032.267-3.05.38-.238.026-.27-.108-.269-.3A7.07,7.07,0,0,1,38,57.447a6.742,6.742,0,0,1,3.422-1.7,7.01,7.01,0,0,1,4,.348,6.822,6.822,0,0,1,4.114,4.469,7.7,7.7,0,0,1,.3,1.927,9.4,9.4,0,0,0,.177,1.572c.057.257-.05.307-.208.331q-1.182.177-2.369.32a2.088,2.088,0,0,0-.685.163.739.739,0,0,0-.437.874.884.884,0,0,0,.97.557c.858-.152,1.726-.247,2.59-.369.261-.037.332.059.353.328.1,1.282.24,2.56.349,3.841.067.793.153,1.584.187,2.381.024.565.134,1.126.194,1.691.046.427.069.857.109,1.284.1,1.027.232,2.053.283,3.082.036.723.16,1.435.182,2.158.013.438.1.874.147,1.311a1.32,1.32,0,0,1-.143.737c-.221.468-.417.948-.622,1.425-.107.249-.209.387-.5.148a2.737,2.737,0,0,0-.94-.418.31.31,0,0,1-.244-.429,6.182,6.182,0,0,0,.027-2.6,7.909,7.909,0,0,0-1.5-3.574,8.165,8.165,0,0,0-4.421-3.049,7.284,7.284,0,0,0-2.3-.288m8.481-3.2c.122-.484-.424-.839-.933-.763-1.247.185-2.5.352-3.744.526a.781.781,0,1,0,.246,1.521c.693-.155,1.4-.178,2.1-.3A12.9,12.9,0,0,0,49,71.458c.345-.113.557-.3.518-.687m-3.512-11.79a8.17,8.17,0,0,0-1.589.171,6.769,6.769,0,0,0-1.3.221.747.747,0,0,0-.581.792.8.8,0,0,0,.811.647,28.311,28.311,0,0,0,2.989-.406.733.733,0,0,0,.651-.651.705.705,0,0,0-.346-.713c-.2-.14-.425-.019-.633-.06" transform="translate(-24.682 -38.537)" fill="#ffae7e"/>
    <path id="Path_823518" data-name="Path 823518" d="M180.676,210.159c.128,0,.256-.012.383-.012q9.988,0,19.976-.007c.3,0,.369.055.367.375-.018,3.034-.035,6.069,0,9.1.018,1.385-.357,1.979-1.947,1.969-5.916-.036-11.832-.014-17.748-.016-.217,0-.434-.019-.651-.029a.583.583,0,0,0-.055-.333,2.819,2.819,0,0,1-.255-1.293c.01-2.926.006-5.852.007-8.778a3.132,3.132,0,0,0-.081-.981" transform="translate(-124.948 -145.629)" fill="#f8f9fb"/>
    <path id="Path_823519" data-name="Path 823519" d="M16.62,139.547c-.743,0-1.485-.008-2.228,0a.491.491,0,0,1-.535-.326,6.255,6.255,0,0,1-.568-3.1,6.8,6.8,0,0,1,4.989-6.065c.9-.257,1.034-.474.809-1.372a6.721,6.721,0,1,1,13.061.009c-.2.871-.056,1.121.813,1.347a11.882,11.882,0,0,1,1.651.709.245.245,0,0,1,.133.348,14.356,14.356,0,0,0-.619,2.632,11.41,11.41,0,0,0-.076,2.856,8.95,8.95,0,0,0,.605,2.482c.17.431.126.474-.333.477-1.152.008-2.305.007-3.457.02-.285,0-.391-.09-.485-.388a5.35,5.35,0,0,0-3.33-3.714c-.663-.238-.664-.23-.661-.966s.01-1.479,0-2.219a.523.523,0,0,1,.293-.523c.765-.432,1.518-.884,2.278-1.325.55-.319.689-.832.325-1.226a.73.73,0,0,0-.977-.118c-.526.289-1.039.6-1.559.9-.353.2-.366.2-.365-.208,0-.727.014-1.454,0-2.18a.478.478,0,0,1,.284-.483c.721-.4,1.43-.822,2.142-1.238a2.78,2.78,0,0,0,.378-.262.7.7,0,0,0,.183-.95.718.718,0,0,0-1-.271c-.484.258-.95.551-1.424.829-.11.064-.224.124-.331.193-.193.123-.237.04-.234-.149.006-.4,0-.791,0-1.186a1.449,1.449,0,0,0-.089-.563.728.728,0,0,0-.8-.459.744.744,0,0,0-.633.709c-.014.459,0,.918-.009,1.377-.005.415,0,.407-.39.206-.565-.294-1.067-.7-1.663-.938a.754.754,0,0,0-1.021.275.724.724,0,0,0,.338,1c.778.466,1.554.937,2.344,1.383a.686.686,0,0,1,.4.7,13.932,13.932,0,0,0,.052,2.146c.032.237-.16.235-.341.131-.55-.316-1.108-.619-1.654-.942a.765.765,0,0,0-1.054.12.734.734,0,0,0,.2,1.073,14.931,14.931,0,0,0,1.48.882c.3.157.573.369.89.515a.806.806,0,0,1,.429.746c-.026.726-.023,1.454,0,2.18.008.314-.124.382-.406.391a4.966,4.966,0,0,0-3.112,1.149,5.427,5.427,0,0,0-1.939,2.963c-.085.384-.276.462-.643.445-.715-.034-1.434-.01-2.15-.01v-.025" transform="translate(-9.172 -83.434)" fill="#c1e29a"/>
    <path id="Path_823520" data-name="Path 823520" d="M101.224,126.926a6.124,6.124,0,0,1,3.241,2.156,12.437,12.437,0,0,1,.9,1.07,14.807,14.807,0,0,1,.986,1.724c.349.658.714,1.311,1,2,.223.535.314,1.122.5,1.674a9.516,9.516,0,0,0,.5,1.585,2.535,2.535,0,0,1,.1.709,12.639,12.639,0,0,1,.161,3.012,8.375,8.375,0,0,1-.861,3.041.343.343,0,0,1-.369.209c-.742-.038-1.482.01-2.222.032-.087,0-.189.051-.257-.091s.038-.173.092-.244a6.346,6.346,0,0,0,1.147-2.256,2.764,2.764,0,0,0,.026-.569c.122-.02.153-.089.105-.2a4.632,4.632,0,0,0-.287-2.258,5.7,5.7,0,0,0-6.613-3.783,5.044,5.044,0,0,0-2.414,1.141,4.779,4.779,0,0,0-.877,1,.953.953,0,0,1-.3.38.644.644,0,0,1-.039-.587c.4-1.163.7-2.357,1.2-3.488a18.053,18.053,0,0,1,2.858-4.7,2.915,2.915,0,0,1,.878-.784.921.921,0,0,0,.557-.771" transform="translate(-66.168 -87.961)" fill="#f8f9fb"/>
    <path id="Path_823521" data-name="Path 823521" d="M144.554,162.349c-1.344,0-2.687,0-4.03,0-.432,0-.433-.01-.265-.406a4.674,4.674,0,0,0,.43-1.59c.011-.229.145-.417.165-.652a14.244,14.244,0,0,0,.035-2.683,17.069,17.069,0,0,0-.664-3.16c-.073-.24-.041-.332.223-.386a7.134,7.134,0,0,1,7.761,3.36,6.734,6.734,0,0,1,.972,3.849c-.009.414-.105.826-.148,1.241-.033.325-.186.447-.525.443-1.318-.017-2.635-.007-3.953-.007v-.007" transform="translate(-96.925 -106.238)" fill="#f7d14f"/>
    <path id="Path_823522" data-name="Path 823522" d="M174.909,108.823c0,.523,0,1.045,0,1.568q0,13.981,0,27.962c-.856.075-.846.075-.843-.737q.011-2.6,0-5.2a.769.769,0,0,0-.88-.856c-.089,0-.18-.006-.268,0-.275.023-.344-.126-.28-.353a7.046,7.046,0,0,0,.033-3.285,10.361,10.361,0,0,0-.395-1.376,2.98,2.98,0,0,1-.173-.97q.006-8.16,0-16.321c0-.367.092-.484.465-.468.777.033,1.556.024,2.335.032" transform="translate(-119.024 -75.392)" fill="#c1e29a"/>
    <path id="Path_823523" data-name="Path 823523" d="M181.96,29.654a7.456,7.456,0,0,1-.024,2.539,16.28,16.28,0,0,1-1.539,5.212,16.863,16.863,0,0,1-1.806,2.908,19.913,19.913,0,0,0-3.079,6.319,17.576,17.576,0,0,0-.745,3.532c-.069.733-.026,1.477-.034,2.216-.857.024-1.713.044-2.569.074-.162.006-.19-.062-.187-.2a19.447,19.447,0,0,1,.267-3.539,20.866,20.866,0,0,1,3.777-8.369,13.817,13.817,0,0,0,2.028-3.651,18.253,18.253,0,0,0,1.089-4.253,21.794,21.794,0,0,0,.2-2.521c0-.213.057-.294.279-.289.78.016,1.561.017,2.341.025" transform="translate(-118.932 -20.533)" fill="#ffcdbf"/>
    <path id="Path_823524" data-name="Path 823524" d="M198.727,5.048c.46-.006.92-.018,1.38-.019q3.089,0,6.179,0a1.577,1.577,0,0,1,1.773,1.591,21.426,21.426,0,0,1,.013,2.863,1.537,1.537,0,0,1-1.555,1.524c-2.021.023-4.042.025-6.062.028a13.307,13.307,0,0,1-2.107-.064c.057-.384-.235-.663-.3-1.011a12.18,12.18,0,0,1-.035-3.681,2.663,2.663,0,0,1,.482-1.212l.17-.014c.024.037.046.031.066,0" transform="translate(-136.85 -3.483)" fill="#b5ffed"/>
    <path id="Path_823525" data-name="Path 823525" d="M106.3,161.213a3.538,3.538,0,0,1-1.154,2.809,3.333,3.333,0,0,1-1.528.961,2.027,2.027,0,0,1-.832.027,5.58,5.58,0,0,0-1.369-.04,2.672,2.672,0,0,1-2.416-1.2,4.064,4.064,0,0,1-.985-2.679,4.147,4.147,0,0,1,4.053-4.034A4.055,4.055,0,0,1,106.179,160a3.361,3.361,0,0,1,.122,1.208" transform="translate(-67.783 -108.844)" fill="#f7d14f"/>
    <path id="Path_823526" data-name="Path 823526" d="M94.083,126.753a.921.921,0,0,1-.557.771,2.915,2.915,0,0,0-.878.784,18.052,18.052,0,0,0-2.858,4.7c-.5,1.131-.8,2.325-1.2,3.488a.644.644,0,0,0,.039.587,6.47,6.47,0,0,0-.8,2.123c-.007.061-.038.12-.042.181a5.672,5.672,0,0,0,1.3,4.316c.052.06.1.116.073.2l-.05.041a22.967,22.967,0,0,0-2.34-.005.529.529,0,0,1-.529-.328,7.818,7.818,0,0,1-.886-4.021,10.964,10.964,0,0,1,.541-3.513,19.858,19.858,0,0,1,3.964-7.486,8.034,8.034,0,0,1,1.53-1.284,3.913,3.913,0,0,1,2.6-.619c.032,0,.062.039.093.059" transform="translate(-59.027 -87.788)" fill="#ffcdbf"/>
    <path id="Path_823527" data-name="Path 823527" d="M41.152,9.107q.222,1.565.444,3.129c.085.588.168,1.176.265,1.763.033.2-.049.283-.234.3a13.917,13.917,0,0,1-1.745.2,1.279,1.279,0,0,1-1.108-1.89c.4-.751.393-.838-.2-1.455A1.272,1.272,0,0,1,38.9,9.077c.145-.081.3-.146.436-.239a.66.66,0,0,0,.257-.807,2.42,2.42,0,0,1,.018-1.61,2.2,2.2,0,0,1,4.251.729c.023.794.113.905.879,1.088a1.3,1.3,0,0,1,.892,2.029c-.421.656-.25.863.214,1.264a1.318,1.318,0,0,1-.441,2.2c-.578.14-1.175.2-1.763.3-.229.036-.3-.073-.324-.3-.13-1.23-.323-2.452-.514-3.675-.064-.41-.1-.826-.163-1.24-.076-.522-.35-.8-.814-.761-.434.033-.681.35-.665.855,0,.064.006.127.01.191l-.018,0" transform="translate(-26.397 -3.466)" fill="#c1e29a"/>
    <path id="Path_823528" data-name="Path 823528" d="M174.672,210.169a3.131,3.131,0,0,1,.081.981c0,2.926,0,5.852-.007,8.778A2.819,2.819,0,0,0,175,221.22a.583.583,0,0,1,.055.333,12.215,12.215,0,0,1-1.988,0,1.212,1.212,0,0,1-1.053-1.221c-.028-.979-.018-1.959-.021-2.938a1.509,1.509,0,0,1,.14-.55,19.009,19.009,0,0,0,.732-2.25c.25-1,.5-2,.72-3,.085-.385.076-.787.154-1.179.048-.246.157-.275.357-.261s.383.008.574.011" transform="translate(-118.943 -145.639)" fill="#ffcdbf"/>
    <path id="Path_823529" data-name="Path 823529" d="M42.091,175.967H38.485c-.417,0-.448-.053-.269-.438a4.161,4.161,0,0,1,3.476-2.554,3.883,3.883,0,0,1,2.162.4,4.156,4.156,0,0,1,2.109,2.2c.169.418.138.422-.306.415-1.188-.018-2.377-.006-3.567-.006v-.014" transform="translate(-26.357 -119.857)" fill="#f7d14f"/>
    <path id="Path_823530" data-name="Path 823530" d="M192.284,5.067a2.662,2.662,0,0,0-.483,1.212,12.2,12.2,0,0,0,.036,3.681c.068.348.36.627.3,1.011a11.049,11.049,0,0,1-1.763.016A1.5,1.5,0,0,1,189,9.7a17.008,17.008,0,0,1-.025-3.243A1.542,1.542,0,0,1,190.6,5.038a13.151,13.151,0,0,1,1.686.029" transform="translate(-130.642 -3.483)" fill="#c1e29a"/>
    <path id="Path_823531" data-name="Path 823531" d="M247.534,201.893q-.3-.229,0-.464a1.012,1.012,0,0,1,0,.464" transform="translate(-171.079 -139.592)" fill="#4db6a1"/>
    <path id="Path_823532" data-name="Path 823532" d="M15.374,187.482a.181.181,0,0,1-.233.018c-.019-.148.117-.152.19-.16s.059.083.043.142" transform="translate(-10.47 -129.828)" fill="#4db6a1"/>
    <path id="Path_823533" data-name="Path 823533" d="M49.819,187.561a.2.2,0,0,1-.315,0,.2.2,0,0,1,.315,0" transform="translate(-34.235 -129.929)" fill="#4db6a1"/>
    <path id="Path_823534" data-name="Path 823534" d="M129.731,172.046c.047.11.017.178-.105.2-.011-.091-.056-.2.105-.2" transform="translate(-89.633 -119.229)" fill="#4db6a1"/>
    <path id="Path_823535" data-name="Path 823535" d="M247.641,196.6c-.053,0-.1-.019-.1-.079s.048-.077.1-.079v.157" transform="translate(-171.188 -136.139)" fill="#4db6a1"/>
    <path id="Path_823536" data-name="Path 823536" d="M6.615,187.811c-.026.04-.052.04-.078,0,.027-.033.052-.033.078,0" transform="translate(-4.521 -130.138)" fill="#4db6a1"/>
    <path id="Path_823537" data-name="Path 823537" d="M200.463,5.075c-.02.036-.042.041-.066,0a.05.05,0,0,1,.066,0" transform="translate(-138.586 -3.509)" fill="#4db6a1"/>
    <path id="Path_823538" data-name="Path 823538" d="M13.885,187.845l-.006.018,0-.019h0" transform="translate(-9.598 -130.177)" fill="#4db6a1"/>
    <path id="Path_823539" data-name="Path 823539" d="M247.263,108.819l-.126,0a.075.075,0,0,1,.126,0" transform="translate(-170.909 -75.388)" fill="#4db6a1"/>
    <path id="Path_823540" data-name="Path 823540" d="M173.11,187.8l-.011.015,0-.019.01-.013Z" transform="translate(-119.706 -130.138)" fill="#4db6a1"/>
    <path id="Path_823541" data-name="Path 823541" d="M247.823,204.552l.011-.1-.011.1" transform="translate(-171.383 -141.686)" fill="#4db6a1"/>
    <path id="Path_823542" data-name="Path 823542" d="M181.94,108.829l-.106.006.106-.006" transform="translate(-125.748 -75.419)" fill="#4db6a1"/>
    <path id="Path_823543" data-name="Path 823543" d="M97.537,182.846l.05-.041c.009.045-.007.059-.05.041" transform="translate(-67.452 -126.685)" fill="#4db6a1"/>
    <path id="Path_823544" data-name="Path 823544" d="M68.291,103.256c.039.386-.173.574-.518.687a12.985,12.985,0,0,1-1.814.294c-.7.124-1.407.148-2.1.3a.781.781,0,1,1-.246-1.521c1.248-.174,2.5-.34,3.744-.526.509-.076,1.055.279.933.763" transform="translate(-43.451 -71.022)"/>
    <path id="Path_823545" data-name="Path 823545" d="M61.342,66.557c.208.041.428-.08.633.06a.705.705,0,0,1,.346.713.733.733,0,0,1-.651.651,28.311,28.311,0,0,1-2.989.406.8.8,0,0,1-.811-.647.747.747,0,0,1,.581-.792,6.77,6.77,0,0,1,1.3-.221,8.17,8.17,0,0,1,1.589-.171" transform="translate(-40.014 -46.113)"/>
  </g>
</svg>
