<svg id="Group_1073835" data-name="Group 1073835" xmlns="http://www.w3.org/2000/svg" xmlns:xlink="http://www.w3.org/1999/xlink" width="78" height="78" viewBox="0 0 78 78">
  <defs>
    <clipPath id="clip-path">
      <rect id="Rectangle_377950" data-name="Rectangle 377950" width="78" height="78" fill="none"/>
    </clipPath>
  </defs>
  <g id="Group_1073834" data-name="Group 1073834" clip-path="url(#clip-path)">
    <path id="Path_823546" data-name="Path 823546" d="M40.542,57.4c0-.031,0-.063.006-.1-.013-.131-.05-.246-.2-.274l0,0c-.027-.1-.071-.177-.19-.154a8.837,8.837,0,0,1-1.71-1.78,7.5,7.5,0,0,1-1.412-4.677,8.522,8.522,0,0,1,.633-2.952,3.3,3.3,0,0,1,1.356-1.747,1.416,1.416,0,0,1,1.751.139,4.408,4.408,0,0,1,1.194,1.818,8.444,8.444,0,0,0,1.386,2.471,19.9,19.9,0,0,0,1.508,1.42.576.576,0,0,0,.74.068,8.325,8.325,0,0,1,1.817-.641c.776-.225.949-.139,1.2.448a.8.8,0,0,1-.569.693,12.653,12.653,0,0,1-1.294.4,9.119,9.119,0,0,0-2.506,1.552,7.383,7.383,0,0,0-2.438,3.434,9.717,9.717,0,0,0-.565,2.411,26.33,26.33,0,0,0-.188,4.049,30.621,30.621,0,0,0,.366,3.3c.005.031,0,.062,0,.093.09.915.1.924.83.459a13.961,13.961,0,0,1,5.065-1.852,23.9,23.9,0,0,1,5.066-.458,21.8,21.8,0,0,1,7.939,1.576,10.218,10.218,0,0,1,1.746,1c.239.164.32.166.353-.149.074-.712.157-1.424.259-2.133.074-.512.122-1.033.147-1.542.027-.544.013-1.1-.006-1.651a17.453,17.453,0,0,0-.949-5.5,7.079,7.079,0,0,0-2.412-3.278,8.637,8.637,0,0,0-2.275-1.275.724.724,0,0,1-.543-.661c.2-.594.489-.737,1.031-.505a4.033,4.033,0,0,0,.661.278c.269.061.538.284.832.044a7.685,7.685,0,0,0,2.533-3.3,5.686,5.686,0,0,1,1.186-2.092,1.734,1.734,0,0,1,2.582.231,6.92,6.92,0,0,1,.933,1.825,7.941,7.941,0,0,1,.38,3.534,7.739,7.739,0,0,1-3.04,5.233c-.083.065-.173.123-.25.2a.158.158,0,0,0-.031.241c.069.083.117.075.22.024a11.164,11.164,0,0,1,4.25-.951,8.628,8.628,0,0,1,1.8.173,9.221,9.221,0,0,1,3.312,1.129.621.621,0,0,1,.366.779,9.143,9.143,0,0,1-1.469,2.791,5.89,5.89,0,0,1-4.646,2.3,9.495,9.495,0,0,1-2.8-.371c-.245-.074-.4-.037-.4.321a13.285,13.285,0,0,1-.1,1.749c-.125,1.026-.3,2.047-.433,3.073a1.509,1.509,0,0,0,.135,1.216,6.527,6.527,0,0,1,1,5.452,7.46,7.46,0,0,1-4.818,5.37,16.778,16.778,0,0,1-6.139,1.23c-.2,0-.261.082-.337.265-.413.991-.825,1.984-1.309,2.943a1.512,1.512,0,0,0-.2.545c-.072.7-.112,1.4-.18,2.1-.042.428-.049.857-.1,1.283-.108.936-.276,1.869-.318,2.808-.041.907-.14,1.81-.226,2.708-.109,1.143-.207,2.289-.328,3.431-.11,1.035,0,2.078-.036,3.116a5.291,5.291,0,0,1-.213,1.868,2.839,2.839,0,0,1-2.157,1.931,19.681,19.681,0,0,1-4.1.054.994.994,0,0,0-.853.264,2.887,2.887,0,0,1-2.3,1.007c-.919-.083-1.854.024-2.777-.031a3.035,3.035,0,0,1-2.776-1.88,3.518,3.518,0,0,1-.261-1.534,60.217,60.217,0,0,0-.4-7.275c-.065-.688-.056-.681-.734-.689-1.2-.014-2.392,0-3.585-.07-.944-.055-1.885-.182-2.833-.171-.114,0-.274-.076-.3.162-.052.578-.132,1.153-.182,1.731-.127,1.465-.079,2.934-.083,4.4A7.014,7.014,0,0,1,27,102.528a3.634,3.634,0,0,1-2.377,2.354,8.475,8.475,0,0,1-1.821.08,13.736,13.736,0,0,1-3.077-.1,1.525,1.525,0,0,0-1.331.259,1.688,1.688,0,0,1-.943.3q-1.994.043-3.989.027a3.235,3.235,0,0,1-3.084-2.778,13.634,13.634,0,0,1-.1-2.216c-.013-.813.051-1.628.01-2.439-.038-.758-.188-1.509-.255-2.266-.094-1.066-.159-2.14-.294-3.2-.176-1.377-.24-2.764-.421-4.14-.154-1.167-.243-2.345-.285-3.526A3.409,3.409,0,0,0,8.782,83.7a12.649,12.649,0,0,1-.538-1.463,21.247,21.247,0,0,1-.821-4.515,14.283,14.283,0,0,1,.008-2.9c.031-.212-.08-.209-.245-.165a7.75,7.75,0,0,1-2.547.234A4.436,4.436,0,0,1,.982,72.779a6.99,6.99,0,0,1-.976-3.446,8.444,8.444,0,0,1,.477-3.021,14.438,14.438,0,0,1,5.379-7.065A19.512,19.512,0,0,1,9.2,57.27c.131-.063.325-.052.266-.365a5.231,5.231,0,0,1,.544-3.919,4.868,4.868,0,0,1,2.725-2.1,11.872,11.872,0,0,1,2.664-.609,11.012,11.012,0,0,1,2.594-.013c.276.041.578-.105.826.09a1.1,1.1,0,0,1,.261,1.349,15.128,15.128,0,0,0-.6,1.612,11.944,11.944,0,0,1-2.116,3.845A4.56,4.56,0,0,1,10.625,58.4a.948.948,0,0,0-.864,0,17.422,17.422,0,0,0-5.625,4.058,10.671,10.671,0,0,0-2.781,5.473A6.776,6.776,0,0,0,2,72.047,2.643,2.643,0,0,0,4.055,73.5a7.424,7.424,0,0,0,2.814-.076c.45-.1.685-.28.748-.732a10.839,10.839,0,0,1,1.662-4.458c2.425-3.744,6.03-5.686,10.019-7.008a29.064,29.064,0,0,1,3.989-.991,32.2,32.2,0,0,1,4.2-.5,24.652,24.652,0,0,1,2.94-.109c.25.018.4-.017.23-.369-.37-.748-.228-1.129.519-1.494a10.4,10.4,0,0,1,4.518-1.1,11.654,11.654,0,0,1,3.917.652.926.926,0,0,0,.467.179c.067.126.175.084.275.07.134.031.2-.02.188-.167M37.286,98.947l5.408.007c-.005.09.042.132.122.128s.127-.045.109-.137a.391.391,0,0,0,.2-.368c.068-.871.1-1.745.191-2.613.121-1.149.16-2.3.326-3.451a3.788,3.788,0,0,0,.087-1.359,4.3,4.3,0,0,1,.124-.818q.114-1.6.27-3.2a.751.751,0,0,1,.785-.74c.353.062.535.512.47,1.007-.088.666-.145,1.338-.184,2.01a5.088,5.088,0,0,0-.075,1.313c2.894-1.517,4.686-4.081,6.2-6.913l.889-1.928H50.584a16.65,16.65,0,0,1-7.558-1.692,6.68,6.68,0,0,1-3.5-3.752,6.987,6.987,0,0,1,.578-6.582,1.412,1.412,0,0,0,.226-1.213,14.691,14.691,0,0,1-.429-3.972c0-.291-.1-.565-.075-.867.021-.256-.055-.405-.435-.293a7.554,7.554,0,0,1-3.128.4,6.259,6.259,0,0,1-4.451-2.474.993.993,0,0,0-1.1-.488A8.63,8.63,0,0,1,28.676,61c-.85-.018-1.692.08-2.538.108-.336.012-.366.133-.255.427a11,11,0,0,1,.572,2.032,5.119,5.119,0,0,1-1.17,4.291,13.734,13.734,0,0,1-2.374,2.259,5.128,5.128,0,0,0-1.96,2.462,2.606,2.606,0,0,1-1.116,1.3,6.116,6.116,0,0,1-3.56,1.092,5.308,5.308,0,0,1-5.144-4.143c-.222-.73-.339-1.494-.53-2.359a10,10,0,0,0-1.889,6.24,12.725,12.725,0,0,0,.06,3.383A13.31,13.31,0,0,0,9.126,80.4a6.53,6.53,0,0,0,.954,2.815,1.394,1.394,0,0,1,.137.683c.124,1.2.289,2.392.345,3.592.051,1.089.223,2.161.3,3.246.068,1.016.2,2.031.322,3.045.09.756.128,1.525.2,2.288a7.781,7.781,0,0,1,.1,1.1c-.016.318.234.257.419.258,1.733,0,3.467.034,5.2-.006a8.544,8.544,0,0,0,1.71.058c.2-.044.225-.042.247-.232.089-.755.213-1.5.227-2.271.012-.64.175-1.268.2-1.914.018-.561.134-1.119.155-1.68a17.009,17.009,0,0,1,.267-2.7,2.144,2.144,0,0,0,.007-.511,16.578,16.578,0,0,1,.249-2.427c.054-.537.017-1.082.109-1.619.046-.27.041-.551.106-.814a.6.6,0,0,1,.663-.5.552.552,0,0,1,.572.564c.033.6-.087,1.193-.11,1.793-.028.7-.174,1.386-.25,2.081-.131,1.2-.141,2.412-.337,3.606a3.926,3.926,0,0,1-.085.724.275.275,0,0,0,.237.36c.537.079,1.052.255,1.594.34.563.089,1.122.3,1.7.4a26.48,26.48,0,0,0,3.1.434,38.377,38.377,0,0,0,3.832.3c1.007-.055,2.008.04,3.011.017.241-.006.394.018.262-.355A4.6,4.6,0,0,1,34.5,92.01a16.343,16.343,0,0,0-.181-1.87c-.09-.427-.06-.853-.124-1.277a8.241,8.241,0,0,1-.127-1.886c.026-.318.151-.5.436-.528s.612-.079.718.343a19.628,19.628,0,0,1,.285,2.033c.157,1.118.2,2.248.338,3.37.091.726.124,1.464.2,2.195.112,1.023.217,2.047.345,3.069.039.305.005.608.055.918a.6.6,0,0,0,.612.564c.073.089.149.07.227.007m21.4-19.22A6.536,6.536,0,0,0,62.618,77a6.107,6.107,0,0,0,.6-5.381,5.7,5.7,0,0,0-2.463-2.791,10.958,10.958,0,0,0-4.415-1.552,25.29,25.29,0,0,0-7.073-.233A20.817,20.817,0,0,0,44.1,68.284a5.947,5.947,0,0,0-3.3,2.774,6.035,6.035,0,0,0-.139,4.734,5.843,5.843,0,0,0,3.948,3.74,16.235,16.235,0,0,0,5.353.952,18.3,18.3,0,0,0,2.143.094,24.973,24.973,0,0,0,6.581-.852M19.159,72.813a1.763,1.763,0,0,0,.75-.895,5.875,5.875,0,0,1,2.22-2.775,14.682,14.682,0,0,0,1.964-1.828,4.369,4.369,0,0,0,.889-4.4c-.429-1.532-.427-1.534-1.93-1.24a26.008,26.008,0,0,0-7.291,2.436,16.472,16.472,0,0,0-3.636,2.6.669.669,0,0,0-.293.545,9.218,9.218,0,0,0,1.338,4.791,3.713,3.713,0,0,0,3.23,1.639,5.331,5.331,0,0,0,2.76-.874m-2.169,31.32a1.97,1.97,0,0,0,1.868-1.188,2.94,2.94,0,0,0,.134-1.138c.048-.909-.056-1.822.071-2.73.032-.228-.112-.33-.326-.33q-3.4,0-6.806,0c-.212,0-.386.055-.376.337a27.492,27.492,0,0,0,.095,3.339,1.806,1.806,0,0,0,1.937,1.712c.567,0,1.135,0,1.7,0v0c.567,0,1.135-.013,1.7,0m32.15-6.309c.338.009.446-.085.459-.467a25.607,25.607,0,0,1,.236-2.969c.114-.74.144-1.494.2-2.243a29.938,29.938,0,0,1,.352-3.175,4.875,4.875,0,0,1,.074-.957c.032-.083-.082-.2-.208-.092a1.366,1.366,0,0,0-.193.187,15.693,15.693,0,0,1-4.817,4.035,1,1,0,0,0-.423,1.081,8.581,8.581,0,0,1-.115,1.546c-.036.389-.084.792-.116,1.182-.04.488-.108.976-.125,1.468-.01.29.064.407.371.4.732-.024,1.464-.007,2.2-.007v.009c.7,0,1.4-.013,2.107.006M12.073,57.578a3.586,3.586,0,0,0,3.728-1.7,27.223,27.223,0,0,0,1.424-2.719,12.137,12.137,0,0,0,.462-1.366c.107-.242-.127-.249-.29-.269a8.562,8.562,0,0,0-1.729.114,10.673,10.673,0,0,0-2.453.4,3.414,3.414,0,0,0-2.635,3.535c0,.061,0,.123,0,.185,0,1.3.249,1.581,1.493,1.817M20.8,98.33c-.4-.015-.556.087-.54.538.032.9.03,1.8-.006,2.7a4.829,4.829,0,0,1-.219,1.664c-.108.268-.01.437.271.428a35.27,35.27,0,0,0,4.069-.094,1.866,1.866,0,0,0,1.433-1.8c.046-1.036.015-2.076.029-3.115,0-.262-.124-.3-.334-.3-.821.006-1.643,0-2.464,0v-.013c-.746,0-1.494.02-2.239-.008M64.12,58.746a.333.333,0,0,0-.271.44,11.5,11.5,0,0,1,.272,2.6.247.247,0,0,0,.192.271,7.61,7.61,0,0,0,4.093.332,5.059,5.059,0,0,0,3.348-2.817c.4-.807.413-.693-.368-.982a9.115,9.115,0,0,0-3.318-.541,14,14,0,0,0-3.947.7m-31.828-.076c-.311.092-.48.227-.3.588a5.443,5.443,0,0,0,3.517,3.115,7.1,7.1,0,0,0,3.33-.092c.966-.216.954-.245.973-1.291a5.539,5.539,0,0,1,.229-1.663c.087-.263.065-.431-.256-.547a11.605,11.605,0,0,0-3.83-.737,11.432,11.432,0,0,0-3.667.627m7.171-4.38a8.126,8.126,0,0,0,1.227,1.456c.235.252.414.162.594-.052a6.89,6.89,0,0,0,.526-.906,6.692,6.692,0,0,1,1.4-1.532,4.424,4.424,0,0,0,.575-.677c.173-.23-.037-.323-.171-.435A8.381,8.381,0,0,1,40.84,48.35a5.38,5.38,0,0,0-.454-.953c-.412-.73-.819-.743-1.246-.038a5.456,5.456,0,0,0-.761,3.218,6.229,6.229,0,0,0,1.085,3.713m-2.382,46.1c-.382-.009-.542.105-.52.526.044.861,0,1.725.1,2.586a1.523,1.523,0,0,0,1.3,1.274c1.178.025,2.359.065,3.534,0,.93-.053,1.318-.444,1.441-1.653.081-.8.007-1.609.023-2.414.006-.312-.167-.3-.373-.3-.925,0-1.849,0-2.775,0v-.012c-.91,0-1.82.015-2.729-.007M63.491,47.516a6.352,6.352,0,0,0-.712,1.492,8.2,8.2,0,0,1-2.329,3.239c-.461.4-.466.434.026.8a6.985,6.985,0,0,1,2.14,2.716c.242.505.282.5.692.13a6.606,6.606,0,0,0,2.225-5.055,7.171,7.171,0,0,0-.717-2.987,1.449,1.449,0,0,0-.75-.794,1.119,1.119,0,0,0-.574.462M44.765,99.183c-.423-.029-.521.181-.527.527-.012.682-.011,1.364-.015,2.046,0,.48.009.961-.009,1.441-.011.289.081.446.37.447,1.075.006,2.152.056,3.225,0A1.7,1.7,0,0,0,49.4,101.9c.027-.789,0-1.581.012-2.371.006-.286-.117-.329-.35-.325-.746.011-1.493,0-2.24,0V99.2c-.687,0-1.376.034-2.06-.013m-19.241-2.31c.341.006.485-.132.483-.489a11.247,11.247,0,0,1,.16-1.682c.02-.139.172-.418-.194-.443a20.845,20.845,0,0,1-4.726-.948c-.394-.121-.5-.112-.559.379-.121.984-.141,1.979-.311,2.955-.056.321.178.222.311.224.821.009,1.642,0,2.463,0v-.006c.791,0,1.583-.009,2.374,0" transform="translate(0 -28.477)" fill="#252021"/>
    <path id="Path_823547" data-name="Path 823547" d="M124.278,60.427a.807.807,0,0,0,.737.713c.9.2,1.245.056,1.55-.713a11.714,11.714,0,0,1,1.634.281c.494.1,1.079.084,1.465.551a.723.723,0,0,0,.543.661,8.639,8.639,0,0,1,2.275,1.275,7.084,7.084,0,0,1,2.412,3.278,17.455,17.455,0,0,1,.949,5.5c.019.551.033,1.108.006,1.651-.026.509-.074,1.031-.148,1.543-.1.708-.184,1.42-.259,2.133-.033.315-.114.313-.353.149a10.206,10.206,0,0,0-1.746-1,21.806,21.806,0,0,0-7.939-1.576,23.917,23.917,0,0,0-5.066.458,13.962,13.962,0,0,0-5.065,1.853c-.735.465-.741.456-.83-.459,0-.031,0-.062,0-.093a30.431,30.431,0,0,1-.366-3.3,26.284,26.284,0,0,1,.187-4.049,9.725,9.725,0,0,1,.565-2.411,7.385,7.385,0,0,1,2.438-3.434,9.151,9.151,0,0,1,2.506-1.552,12.622,12.622,0,0,0,1.294-.4.8.8,0,0,0,.569-.693,7.453,7.453,0,0,1,2.645-.371m-5.3,11.9a.609.609,0,0,0,.75-.25.931.931,0,0,0,.1-.488c.005-.5,0-.991,0-1.487,0-.4-.158-.636-.568-.644a.6.6,0,0,0-.686.612c-.027.478-.016.96-.022,1.44a.382.382,0,0,0-.023.063c0,.006.019.016.028.024.036.312.071.65.424.732M130,71.945c0,.006.019.015.029.022.314.629.723.748,1.151.335a.435.435,0,0,0,.143-.338c.03-.574-.005-1.146,0-1.718a.611.611,0,0,0-.472-.677c-.386-.092-.643.09-.747.517a11.626,11.626,0,0,0-.085,1.8.38.38,0,0,0-.021.063" transform="translate(-73.015 -37.837)" fill="#e2f2fe"/>
    <path id="Path_823548" data-name="Path 823548" d="M48.251,3.222a3.411,3.411,0,0,1,2.987-.4,4.028,4.028,0,0,1,2.947,3.5c.07.517.157.921.747,1.145A2.536,2.536,0,0,1,56.5,9.63a2.944,2.944,0,0,1-2.874,3.159c-3.736-.027-7.471,0-11.207.009a4.54,4.54,0,0,0-.759.027c-.174.03-.413.047-.185.387A2.954,2.954,0,0,1,42,15.6,3.019,3.019,0,0,1,39.1,18.107q-11.969.025-23.939.019a2.464,2.464,0,0,1-.646-.1,3.037,3.037,0,0,1-2.3-2.958,2.955,2.955,0,0,1,2.223-2.948A3.819,3.819,0,0,0,15.225,12c.138-.058.255-.06.223-.247a4.318,4.318,0,0,1,.092-1.006c.017-.28.131-.544.128-.843,0-.251.29-.382.416-.606a4.178,4.178,0,0,1,2.534-2.121,3.445,3.445,0,0,1,2.044-.136c.594.193.963.009,1.329-.567A5.488,5.488,0,0,1,25.378,4.1,5.182,5.182,0,0,1,27.8,4.074a5.613,5.613,0,0,1,3.875,2.713c.136.243.323.489.62.428.282-.058.261-.36.291-.6.013-.1.06-.2.074-.308a4.048,4.048,0,0,1,4.594-3.613c.517.063.832.1,1.194-.451A4.888,4.888,0,0,1,42.2.026a5.159,5.159,0,0,1,4.813,2.209c.279.367.344.854.7,1.157.1,0,.21.044.276-.08l.094-.022c.062-.006.136.022.166-.067M38.391,16.8a3.273,3.273,0,0,0,1.1-.1,1.728,1.728,0,0,0-.021-3.325,2.854,2.854,0,0,0-.517-.095c-.639-.059-.878-.372-.715-1.025a3.475,3.475,0,0,0-2.361-3.877,3.225,3.225,0,0,0-3.216.92,3.053,3.053,0,0,1-.254.261.628.628,0,0,1-1.09-.38A4.406,4.406,0,0,0,27.536,5.41a4.5,4.5,0,0,0-5,2.481c-.014.028-.024.057-.038.084-.394.776-.482.8-1.289.506A3.3,3.3,0,0,0,17,10.163a5.314,5.314,0,0,0-.222,2.239c.01.68-.185.878-.847.878a5.622,5.622,0,0,0-1.218.154A1.537,1.537,0,0,0,13.546,15.2a1.65,1.65,0,0,0,1.373,1.533,6.348,6.348,0,0,0,1.415.065q5.448-.006,10.894,0v0q5.581,0,11.163,0M48.116,4.823c-.04.046-.082.09-.126.133-.553.538-1.122.4-1.25-.364a3.892,3.892,0,0,0-2.694-3,4.115,4.115,0,0,0-4.962,1.871c-.5,1-.541,1.013-1.551.66a2.9,2.9,0,0,0-3.36,1.355,6.966,6.966,0,0,0-.34,1.128c-.087.308.013.471.381.446a6.613,6.613,0,0,1,1.444-.029,4.531,4.531,0,0,1,3.456,2.637,6.731,6.731,0,0,1,.431,1.48c.064.234.144.3.351.3q6.927-.01,13.854-.013a1.316,1.316,0,0,0,1.372-.881,1.657,1.657,0,0,0-.343-1.619c-.368-.434-.818-.361-1.239-.465-.366-.09-.711-.426-.608-.795a3.092,3.092,0,0,0-.362-2.193A2.782,2.782,0,0,0,50.129,3.94a3.178,3.178,0,0,0-2.013.883" transform="translate(-7.822 0)" fill="#252021"/>
    <path id="Path_823549" data-name="Path 823549" d="M151.4,172.012a1.61,1.61,0,0,1,1.276-1.293,4.1,4.1,0,0,1,2.654.123,4.812,4.812,0,0,0,1.6.611,5.2,5.2,0,0,1,.34-1.588,1.927,1.927,0,0,1,2.263-1.307c1.836.5,2.58,2.026,3.157,3.694.044.126.012.3.177.34s.179-.138.243-.226A5.178,5.178,0,0,1,167.916,170c1.511.115,2.157,1.041,1.566,2.544-.169.428-.382.837-.567,1.259-.051.117-.18.219-.083.377.117.19.229.005.343,0a4.115,4.115,0,0,1,2,.3,1.821,1.821,0,0,1,1.009,2.191,3.5,3.5,0,0,1-.805,1.265c-1.487,1.637-2.885,3.355-4.234,5.114a1.065,1.065,0,0,1-.92.459q-6.792-.01-13.584.007a.855.855,0,0,1-.9-.6,24.8,24.8,0,0,0-2.317-4.03,19.7,19.7,0,0,1-1.831-3.14,2.678,2.678,0,0,1-.274-1.77,1.883,1.883,0,0,1,1.438-1.191,3.693,3.693,0,0,1,1.856.152c.3.082.591.31.975.179a1.657,1.657,0,0,1-.187-1.1m12.846,10.177c.313,0,.626-.008.939-.012a1.564,1.564,0,0,0,1.678-.763c1.124-1.508,2.368-2.913,3.6-4.329.1-.115.2-.231.288-.355.459-.639.256-1.139-.531-1.232a4.329,4.329,0,0,0-2.263.381c-.193.084-.376.192-.569.274a.678.678,0,0,1-.9-.145.706.706,0,0,1,.071-.933,12.7,12.7,0,0,0,1.449-2.232,6.469,6.469,0,0,0,.371-.895c.138-.443.038-.6-.416-.633a4.14,4.14,0,0,0-3.744,1.66,5.26,5.26,0,0,0-.864,1.618,3.549,3.549,0,0,1-.192.419.556.556,0,0,1-.642.381.6.6,0,0,1-.478-.544,13.114,13.114,0,0,0-.807-2.988,3.558,3.558,0,0,0-1.516-1.888.83.83,0,0,0-1.337.544,3.666,3.666,0,0,0-.062,2.234.692.692,0,0,1-.189.822.594.594,0,0,1-.821-.025,10.976,10.976,0,0,0-1.633-1.139,4.1,4.1,0,0,0-2.534-.46c-.425.061-.556.27-.434.711A4.509,4.509,0,0,0,153.8,174.4c.251.286.493.583.757.855.236.243.159.462.008.7a.493.493,0,0,1-.657.228,5.072,5.072,0,0,1-.976-.653,8.325,8.325,0,0,0-3.064-1.477,1.122,1.122,0,0,0-.176-.036c-1.047-.038-1.274.3-.972,1.207a9.241,9.241,0,0,0,1.1,2.017,38.937,38.937,0,0,1,2.829,4.681c.123.27.319.287.553.275s.478-.014.717-.021l10.334.01" transform="translate(-94.27 -105.514)" fill="#252021"/>
    <path id="Path_823550" data-name="Path 823550" d="M142.469,59.189a.807.807,0,0,0,.737.713c.9.2,1.246.056,1.55-.713a1.346,1.346,0,0,0-1.162-.741c-.688.032-.946.2-1.125.741" transform="translate(-91.206 -36.599)" fill="#252021"/>
    <path id="Path_823551" data-name="Path 823551" d="M110.09,76.706a.923.923,0,0,0,.467.179c-.027-.15.09-.366-.1-.435s-.2.229-.364.256" transform="translate(-70.477 -47.866)" fill="#e2f2fe"/>
    <path id="Path_823552" data-name="Path 823552" d="M110.87,8.811c.1,0,.21.044.276-.081-.135-.132-.221-.083-.276.081" transform="translate(-70.977 -5.42)" fill="#e2f2fe"/>
    <path id="Path_823553" data-name="Path 823553" d="M112.34,76.656c-.013-.132-.05-.245-.2-.274a.272.272,0,0,0,.2.274" transform="translate(-71.792 -47.83)" fill="#e2f2fe"/>
    <path id="Path_823554" data-name="Path 823554" d="M111.8,76.1c-.026-.1-.071-.177-.19-.153a.188.188,0,0,0,.19.153" transform="translate(-71.452 -47.558)" fill="#e2f2fe"/>
    <path id="Path_823555" data-name="Path 823555" d="M112.152,77.538c.134.031.2-.02.188-.167a.3.3,0,0,0-.188.167" transform="translate(-71.797 -48.449)" fill="#e2f2fe"/>
    <path id="Path_823556" data-name="Path 823556" d="M111.9,8.611c.062-.006.136.022.166-.067-.079-.04-.166-.1-.166.067" transform="translate(-71.634 -5.322)" fill="#e2f2fe"/>
    <path id="Path_823557" data-name="Path 823557" d="M58.244,147.918a.391.391,0,0,0,.2-.368c.068-.871.1-1.745.191-2.613.121-1.149.16-2.3.326-3.451a3.788,3.788,0,0,0,.087-1.359,4.307,4.307,0,0,1,.124-.819q.114-1.6.27-3.2a.751.751,0,0,1,.785-.74c.353.062.535.512.47,1.007-.088.666-.145,1.338-.184,2.009a5.088,5.088,0,0,0-.075,1.313c2.894-1.517,4.686-4.081,6.2-6.913a.484.484,0,0,0-.477-.347,38.131,38.131,0,0,1-3.978-.167c-.9-.088-1.812-.125-2.718-.179-.98-.058-1.95-.241-2.935-.221a6.182,6.182,0,0,1-1.093-.05c-.51-.085-1.027-.135-1.537-.206-.89-.124-1.8-.159-2.683-.278-1.15-.156-2.308-.269-3.455-.47-1.5-.261-3.015-.371-4.509-.662-.627-.122-1.282-.113-1.889-.268-1.081-.276-2.184-.415-3.264-.677a52.227,52.227,0,0,1-8.73-2.607,29,29,0,0,1-3.5-1.767c-.626-.382-1.233-.8-1.848-1.2a12.725,12.725,0,0,0,.06,3.383,13.312,13.312,0,0,0,.356,2.308,6.532,6.532,0,0,0,.954,2.816,1.392,1.392,0,0,1,.137.683c.124,1.2.289,2.392.345,3.592.051,1.089.223,2.161.3,3.245.068,1.016.2,2.032.322,3.045.09.756.128,1.525.2,2.288a7.787,7.787,0,0,1,.1,1.1c-.016.318.234.257.419.258,1.733,0,3.467.034,5.2-.006a8.543,8.543,0,0,0,1.71.059c.2-.044.225-.042.247-.232.089-.755.213-1.5.227-2.27.012-.64.175-1.269.2-1.914.018-.561.134-1.119.155-1.68a17.013,17.013,0,0,1,.267-2.7,2.141,2.141,0,0,0,.007-.511,16.579,16.579,0,0,1,.249-2.428c.054-.537.017-1.083.109-1.619.046-.27.041-.551.106-.815a.6.6,0,0,1,.663-.5.552.552,0,0,1,.572.564c.033.6-.087,1.193-.11,1.793-.028.7-.174,1.386-.25,2.081-.131,1.2-.141,2.412-.337,3.606a3.929,3.929,0,0,1-.085.724.275.275,0,0,0,.237.36c.537.079,1.052.255,1.594.34.563.089,1.122.3,1.7.4a26.48,26.48,0,0,0,3.1.434,38.265,38.265,0,0,0,3.832.3c1.007-.055,2.008.04,3.011.017.241-.006.394.018.262-.355a4.6,4.6,0,0,1-.059-1.064,16.352,16.352,0,0,0-.181-1.87c-.09-.426-.06-.853-.124-1.277a8.236,8.236,0,0,1-.127-1.886c.026-.318.151-.5.436-.528s.613-.079.718.343a19.607,19.607,0,0,1,.285,2.032c.157,1.118.2,2.248.338,3.37.091.726.124,1.464.2,2.195.112,1.023.217,2.048.345,3.069.038.305.005.608.055.918a.6.6,0,0,0,.612.564l.227.008,5.407.007.231-.009" transform="translate(-15.319 -77.45)" fill="#bfd6f7"/>
    <path id="Path_823558" data-name="Path 823558" d="M24.2,100.571c.615.4,1.222.818,1.848,1.2a28.981,28.981,0,0,0,3.5,1.767,52.217,52.217,0,0,0,8.73,2.607c1.081.262,2.183.4,3.264.677.607.155,1.262.146,1.889.268,1.494.291,3.012.4,4.509.662,1.147.2,2.305.314,3.455.469.884.12,1.793.154,2.683.278.51.071,1.027.121,1.537.206a6.183,6.183,0,0,0,1.093.05c.986-.02,1.955.163,2.935.221.906.053,1.816.091,2.718.179a38.136,38.136,0,0,0,3.978.167.484.484,0,0,1,.477.347c.286-.618.571-1.236.89-1.928H66.071a16.645,16.645,0,0,1-7.558-1.693,6.678,6.678,0,0,1-3.5-3.752,6.986,6.986,0,0,1,.578-6.582A1.411,1.411,0,0,0,55.82,94.5a14.7,14.7,0,0,1-.429-3.972c0-.291-.1-.565-.075-.867.021-.256-.055-.4-.435-.293a7.548,7.548,0,0,1-3.128.4A6.257,6.257,0,0,1,47.3,87.289a.992.992,0,0,0-1.1-.487,8.612,8.612,0,0,1-2.045.062c-.85-.018-1.692.08-2.538.109-.336.012-.366.133-.255.427a11,11,0,0,1,.572,2.032,5.118,5.118,0,0,1-1.171,4.291,13.751,13.751,0,0,1-2.374,2.26,5.131,5.131,0,0,0-1.96,2.462,2.6,2.6,0,0,1-1.116,1.3,6.115,6.115,0,0,1-3.56,1.092,5.309,5.309,0,0,1-5.144-4.144c-.222-.73-.339-1.494-.53-2.359a9.993,9.993,0,0,0-1.889,6.24" transform="translate(-15.487 -54.337)" fill="#e2f2fe"/>
    <path id="Path_823559" data-name="Path 823559" d="M121.57,116.356a16.236,16.236,0,0,1-5.353-.952,5.844,5.844,0,0,1-3.948-3.74,6.034,6.034,0,0,1,.14-4.734,5.949,5.949,0,0,1,3.3-2.775,20.82,20.82,0,0,1,5.168-1.244,25.289,25.289,0,0,1,7.073.232,10.963,10.963,0,0,1,4.415,1.552,5.7,5.7,0,0,1,2.463,2.791,6.107,6.107,0,0,1-.605,5.381,6.536,6.536,0,0,1-3.931,2.731,24.983,24.983,0,0,1-6.581.852,18.385,18.385,0,0,1-2.143-.094m8.327-8.216a.669.669,0,0,0,.674.658.769.769,0,0,0,.73-.684.719.719,0,0,0-.733-.61.608.608,0,0,0-.671.636m-13.416.646a.666.666,0,0,0,.687-.642.639.639,0,0,0-.719-.639.6.6,0,0,0-.646.651.626.626,0,0,0,.678.63" transform="translate(-71.607 -64.348)" fill="#a77b4e"/>
    <path id="Path_823560" data-name="Path 823560" d="M37.445,100.564a5.329,5.329,0,0,0,2.76-.874,1.764,1.764,0,0,0,.75-.895,5.879,5.879,0,0,1,2.22-2.775,14.632,14.632,0,0,0,1.964-1.828,4.37,4.37,0,0,0,.889-4.4c-.429-1.532-.427-1.534-1.93-1.24a26,26,0,0,0-7.291,2.436,16.49,16.49,0,0,0-3.636,2.6.67.67,0,0,0-.293.545,9.218,9.218,0,0,0,1.338,4.791,3.713,3.713,0,0,0,3.23,1.639" transform="translate(-21.047 -55.355)" fill="#a77b4e"/>
    <path id="Path_823561" data-name="Path 823561" d="M35.841,193.366c.567,0,1.135-.013,1.7,0a1.97,1.97,0,0,0,1.867-1.188,2.933,2.933,0,0,0,.134-1.138c.048-.909-.056-1.822.071-2.73.032-.228-.112-.33-.326-.33q-3.4,0-6.806,0c-.212,0-.386.055-.376.337a27.492,27.492,0,0,0,.095,3.339,1.806,1.806,0,0,0,1.937,1.712c.567,0,1.135,0,1.7,0Z" transform="translate(-20.552 -117.713)" fill="#a77b4e"/>
    <path id="Path_823562" data-name="Path 823562" d="M126.145,168.85c.7,0,1.4-.013,2.107.006.338.009.446-.085.459-.467a25.683,25.683,0,0,1,.236-2.969c.114-.74.144-1.494.2-2.243A30.032,30.032,0,0,1,129.5,160a4.875,4.875,0,0,1,.074-.957c.032-.083-.082-.2-.207-.092a1.369,1.369,0,0,0-.193.187,15.689,15.689,0,0,1-4.817,4.035,1,1,0,0,0-.423,1.081,8.582,8.582,0,0,1-.115,1.546c-.036.389-.084.792-.115,1.182-.04.488-.108.976-.125,1.468-.01.29.064.407.371.4.732-.024,1.464-.007,2.2-.007v.009" transform="translate(-79.112 -99.509)" fill="#bfd6f7"/>
    <path id="Path_823563" data-name="Path 823563" d="M29.4,65.859c.005,1.3.249,1.581,1.493,1.818a3.587,3.587,0,0,0,3.728-1.7,27.223,27.223,0,0,0,1.424-2.719,12.137,12.137,0,0,0,.462-1.366c.107-.242-.127-.249-.29-.269a8.563,8.563,0,0,0-1.73.114,10.693,10.693,0,0,0-2.453.4A3.414,3.414,0,0,0,29.4,65.673c0,.062,0,.124,0,.185" transform="translate(-18.823 -38.575)" fill="#a77b4e"/>
    <path id="Path_823564" data-name="Path 823564" d="M58.619,186.876c-.747,0-1.494.021-2.239-.008-.4-.015-.556.088-.54.538.032.9.03,1.8-.006,2.7a4.837,4.837,0,0,1-.219,1.664c-.109.268-.01.437.271.428a35.266,35.266,0,0,0,4.069-.094,1.865,1.865,0,0,0,1.433-1.8c.046-1.036.015-2.076.029-3.114,0-.263-.124-.3-.334-.3-.821.006-1.642,0-2.463,0Z" transform="translate(-35.576 -117.015)" fill="#a77b4e"/>
    <path id="Path_823565" data-name="Path 823565" d="M181.642,79.1a14,14,0,0,0-3.947.7.333.333,0,0,0-.271.44,11.479,11.479,0,0,1,.272,2.6.247.247,0,0,0,.192.271,7.612,7.612,0,0,0,4.092.332,5.056,5.056,0,0,0,3.348-2.817c.4-.806.414-.693-.368-.982a9.123,9.123,0,0,0-3.318-.542" transform="translate(-113.575 -49.529)" fill="#e2f2fe"/>
    <path id="Path_823566" data-name="Path 823566" d="M92.749,79.084a11.456,11.456,0,0,0-3.668.627c-.31.092-.48.228-.3.589A5.443,5.443,0,0,0,92.3,83.414a7.1,7.1,0,0,0,3.331-.092c.966-.216.954-.245.973-1.292a5.552,5.552,0,0,1,.229-1.663c.087-.262.065-.431-.255-.547a11.6,11.6,0,0,0-3.83-.738" transform="translate(-56.79 -49.519)" fill="#e2f2fe"/>
    <path id="Path_823567" data-name="Path 823567" d="M106.627,52.859a6.23,6.23,0,0,0,1.085,3.713,8.126,8.126,0,0,0,1.227,1.456c.235.252.414.162.594-.052a6.916,6.916,0,0,0,.526-.906,6.693,6.693,0,0,1,1.4-1.532,4.366,4.366,0,0,0,.575-.676c.173-.229-.038-.323-.171-.435a8.384,8.384,0,0,1-2.774-3.793,5.386,5.386,0,0,0-.454-.954c-.412-.73-.819-.743-1.247-.037a5.456,5.456,0,0,0-.76,3.218" transform="translate(-68.248 -30.76)" fill="#a77b4e"/>
    <path id="Path_823568" data-name="Path 823568" d="M104.853,192.378c-.91,0-1.82.015-2.73-.007-.382-.009-.542.106-.52.526.044.861,0,1.725.1,2.585a1.522,1.522,0,0,0,1.3,1.274c1.178.025,2.359.065,3.534,0,.93-.053,1.318-.444,1.441-1.653.081-.8.008-1.609.023-2.414.006-.311-.167-.3-.373-.3-.925,0-1.849,0-2.774,0Z" transform="translate(-65.043 -120.462)" fill="#a77b4e"/>
    <path id="Path_823569" data-name="Path 823569" d="M171,49.694a1.12,1.12,0,0,0-.574.463,6.338,6.338,0,0,0-.712,1.492,8.2,8.2,0,0,1-2.329,3.239c-.461.4-.466.435.026.8a6.993,6.993,0,0,1,2.14,2.716c.242.505.282.5.692.13a6.606,6.606,0,0,0,2.225-5.055,7.173,7.173,0,0,0-.717-2.987,1.449,1.449,0,0,0-.75-.794" transform="translate(-106.936 -31.118)" fill="#a77b4e"/>
    <path id="Path_823570" data-name="Path 823570" d="M125.488,189.159c-.687,0-1.376.034-2.06-.013-.423-.029-.521.181-.526.527-.012.682-.012,1.364-.015,2.046,0,.48.009.961-.009,1.441-.011.289.081.446.37.447,1.075.006,2.152.056,3.224,0a1.7,1.7,0,0,0,1.594-1.752c.028-.789,0-1.581.012-2.371.006-.286-.117-.329-.35-.326-.746.011-1.493,0-2.24,0Z" transform="translate(-78.663 -118.441)" fill="#a77b4e"/>
    <path id="Path_823571" data-name="Path 823571" d="M59.39,176.892c.791,0,1.582-.009,2.374,0,.341.006.485-.132.483-.489a11.3,11.3,0,0,1,.16-1.683c.02-.139.172-.418-.194-.442a20.846,20.846,0,0,1-4.726-.948c-.394-.121-.5-.112-.559.379-.121.983-.141,1.978-.311,2.955-.056.321.178.222.311.224.821.009,1.642,0,2.463,0Z" transform="translate(-36.239 -108.501)" fill="#bfd6f7"/>
    <path id="Path_823572" data-name="Path 823572" d="M118.881,188.515l-.231.009c0,.09.042.132.122.127s.127-.045.109-.137" transform="translate(-75.957 -118.047)" fill="#a77b4e"/>
    <path id="Path_823573" data-name="Path 823573" d="M103.219,188.509l-.227-.007c.073.089.15.07.227.007" transform="translate(-65.933 -118.039)" fill="#a77b4e"/>
    <path id="Path_823574" data-name="Path 823574" d="M158.45,87.249c.314.63.723.748,1.151.335a.437.437,0,0,0,.143-.338c.03-.574-.005-1.145,0-1.718a.611.611,0,0,0-.472-.677c-.386-.092-.643.09-.747.517a11.668,11.668,0,0,0-.086,1.8.073.073,0,0,1,.008.085" transform="translate(-101.431 -53.119)" fill="#252021"/>
    <path id="Path_823575" data-name="Path 823575" d="M126.552,86.726c.036.312.071.65.424.732a.608.608,0,0,0,.75-.25.928.928,0,0,0,.1-.488c.005-.5,0-.991,0-1.487,0-.4-.158-.636-.567-.644a.6.6,0,0,0-.686.612c-.027.479-.016.96-.022,1.44a.077.077,0,0,1,.005.087" transform="translate(-81.013 -52.969)" fill="#252021"/>
    <path id="Path_823576" data-name="Path 823576" d="M158.413,91.162a.073.073,0,0,0-.008-.085.335.335,0,0,0-.021.062c0,.006.019.015.029.022" transform="translate(-101.394 -57.032)" fill="#bfd6f7"/>
    <path id="Path_823577" data-name="Path 823577" d="M126.51,90.163a.077.077,0,0,0-.005-.087.382.382,0,0,0-.023.063c0,.006.018.016.028.024" transform="translate(-80.971 -56.405)" fill="#bfd6f7"/>
    <path id="Path_823578" data-name="Path 823578" d="M29.582,25.743q5.581,0,11.163,0a3.272,3.272,0,0,0,1.1-.1,1.729,1.729,0,0,0-.021-3.326,2.893,2.893,0,0,0-.517-.095c-.639-.059-.878-.372-.715-1.025a3.475,3.475,0,0,0-2.361-3.877,3.225,3.225,0,0,0-3.216.921,3.111,3.111,0,0,1-.254.261.628.628,0,0,1-1.09-.381,4.406,4.406,0,0,0-3.777-3.775,4.5,4.5,0,0,0-5,2.481c-.014.027-.024.057-.038.084-.394.776-.482.8-1.289.506a3.3,3.3,0,0,0-4.211,1.682,5.306,5.306,0,0,0-.222,2.238c.01.68-.185.878-.847.878a5.6,5.6,0,0,0-1.218.154A1.537,1.537,0,0,0,15.9,24.144a1.65,1.65,0,0,0,1.373,1.533,6.326,6.326,0,0,0,1.415.065q5.448-.006,10.894,0Z" transform="translate(-10.177 -8.945)" fill="#e2f2fe"/>
    <path id="Path_823579" data-name="Path 823579" d="M88.536,6.188a3.178,3.178,0,0,0-2.013.883c-.04.046-.082.09-.126.133-.553.538-1.122.4-1.25-.364a3.892,3.892,0,0,0-2.694-3A4.115,4.115,0,0,0,77.492,5.7c-.5,1-.541,1.013-1.552.66A2.9,2.9,0,0,0,72.581,7.72a6.966,6.966,0,0,0-.34,1.128c-.087.308.013.471.381.446a6.613,6.613,0,0,1,1.444-.029A4.531,4.531,0,0,1,77.522,11.9a6.731,6.731,0,0,1,.431,1.48c.064.234.144.3.351.3q6.927-.01,13.854-.013a1.316,1.316,0,0,0,1.372-.881,1.657,1.657,0,0,0-.343-1.619c-.368-.434-.819-.361-1.24-.465-.366-.09-.711-.426-.607-.795a3.092,3.092,0,0,0-.362-2.193,2.782,2.782,0,0,0-2.442-1.525" transform="translate(-46.228 -2.247)" fill="#e2f2fe"/>
    <path id="Path_823580" data-name="Path 823580" d="M167.574,184.366a1.564,1.564,0,0,0,1.678-.763c1.124-1.508,2.368-2.913,3.6-4.329.1-.115.2-.232.289-.356.459-.639.256-1.139-.531-1.232a4.334,4.334,0,0,0-2.263.381c-.192.085-.376.192-.569.274a.679.679,0,0,1-.9-.144.706.706,0,0,1,.071-.933,12.7,12.7,0,0,0,1.449-2.233,6.448,6.448,0,0,0,.371-.895c.138-.443.038-.6-.416-.633a4.139,4.139,0,0,0-3.744,1.66,5.261,5.261,0,0,0-.864,1.618,3.642,3.642,0,0,1-.192.419.555.555,0,0,1-.642.38.6.6,0,0,1-.478-.544,13.1,13.1,0,0,0-.807-2.988,3.556,3.556,0,0,0-1.516-1.888.83.83,0,0,0-1.337.544,3.661,3.661,0,0,0-.062,2.234.693.693,0,0,1-.189.822.6.6,0,0,1-.821-.025,11.032,11.032,0,0,0-1.633-1.139,4.1,4.1,0,0,0-2.534-.459c-.425.061-.557.27-.434.711a4.513,4.513,0,0,0,1.081,1.742c.252.286.493.582.757.855.236.244.159.462.008.7a.494.494,0,0,1-.658.228,5.082,5.082,0,0,1-.975-.653,8.318,8.318,0,0,0-3.064-1.477,1.124,1.124,0,0,0-.176-.036c-1.048-.039-1.275.3-.972,1.207a9.26,9.26,0,0,0,1.1,2.017,38.928,38.928,0,0,1,2.829,4.68c.124.27.319.287.553.276s.478-.015.717-.021c.146-.112.316-.066.476-.067q5.183,0,10.366,0c.144,0,.3-.044.431.065" transform="translate(-96.653 -107.703)" fill="#9ddf3e"/>
    <path id="Path_823581" data-name="Path 823581" d="M177.043,204.965c-.131-.109-.287-.065-.431-.065q-5.183,0-10.366,0c-.159,0-.329-.046-.476.067l10.334.01c.313,0,.626-.008.939-.012" transform="translate(-106.122 -128.302)" fill="#a77b4e"/>
    <path id="Path_823582" data-name="Path 823582" d="M162.666,115.452a.608.608,0,0,0-.671.636.669.669,0,0,0,.674.658.77.77,0,0,0,.73-.684.72.72,0,0,0-.733-.61" transform="translate(-103.705 -72.295)" fill="#252021"/>
    <path id="Path_823583" data-name="Path 823583" d="M122.828,116.1a.626.626,0,0,0,.678.63.667.667,0,0,0,.687-.643.639.639,0,0,0-.719-.639.6.6,0,0,0-.646.651" transform="translate(-78.631 -72.296)" fill="#252021"/>
  </g>
</svg>
