<svg xmlns="http://www.w3.org/2000/svg" xmlns:xlink="http://www.w3.org/1999/xlink" width="150" height="150" viewBox="0 0 150 150">
  <defs>
    <clipPath id="clip-path">
      <rect id="Rectangle_378109" data-name="Rectangle 378109" width="150" height="150" transform="translate(305 1185)" fill="none" stroke="#707070" stroke-width="1"/>
    </clipPath>
    <clipPath id="clip-path-2">
      <rect id="Rectangle_378110" data-name="Rectangle 378110" width="133.013" height="133.333" fill="none"/>
    </clipPath>
  </defs>
  <g id="Mask_Group_410" data-name="Mask Group 410" transform="translate(-305 -1185)" clip-path="url(#clip-path)">
    <g id="Group_1074179" data-name="Group 1074179" transform="translate(313 1193)">
      <g id="Group_1074178" data-name="Group 1074178" clip-path="url(#clip-path-2)">
        <path id="Path_824010" data-name="Path 824010" d="M19.676,90.8a.941.941,0,0,0,.123-.742,1.81,1.81,0,0,1,1.337-1.84c1.562-.485,3.165-.8,4.748-1.194,1.827-.455,3.712-.428,5.552-.81a12.464,12.464,0,0,1,2.731-.2c.511.011.62-.18.626-.608.02-1.344.023-2.689.085-4.032a43.314,43.314,0,0,1,.457-4.441q.3-1.983.575-3.972c.181-1.31.617-2.559.9-3.842.248-1.123.693-2.175,1.014-3.269a31.643,31.643,0,0,1,1.429-3.432,42.02,42.02,0,0,1,4.486-7.653,41.532,41.532,0,0,1,3.585-4.4c1.223-1.313,2.511-2.562,3.83-3.756a45.6,45.6,0,0,1,6.427-4.772c.92-.577,1.651-.355,2.734.689.322,1.506.171,1.888-1.1,2.746a57.445,57.445,0,0,0-4.855,3.646c-1.4,1.174-2.613,2.525-3.906,3.8a27.713,27.713,0,0,0-3.155,3.715,20.56,20.56,0,0,0-1.931,2.843,29.46,29.46,0,0,0-2.761,5,42.89,42.89,0,0,0-2.077,5.733,32.733,32.733,0,0,0-.983,4.5c-.236,1.6-.423,3.205-.546,4.824-.15,1.977-.261,3.954-.357,5.933-.023.468.157.608.6.6,1.212-.018,2.426-.034,3.637.006.56.019.673-.178.669-.705a54,54,0,0,1,1.217-12.566,33.709,33.709,0,0,1,5.544-12.1,40.916,40.916,0,0,1,6.256-7.027,50.184,50.184,0,0,1,5.158-4.046A44.344,44.344,0,0,1,67,46.546a.881.881,0,0,0,.191-.035,42.988,42.988,0,0,1,14.87-2.978c1.081-.051,2.164-.067,3.245-.091.273-.006.508.018.5-.388-.017-1.345-.008-2.692,0-4.038,0-.357-.194-.439-.505-.405-1.921.209-3.856.2-5.784.336a59.146,59.146,0,0,0-6.007.774,44.194,44.194,0,0,0-5.763,1.5,1.932,1.932,0,0,1-2.686-1.267A1.979,1.979,0,0,1,66.6,37.544a42.677,42.677,0,0,1,6.449-1.682c1.459-.288,2.929-.5,4.408-.666a60.407,60.407,0,0,1,6.23-.424c.615-.006,1.24-.1,1.862-.088.328.006.388-.154.4-.44a55.78,55.78,0,0,1,.97-8.18,48.832,48.832,0,0,1,1.9-7.242,42.588,42.588,0,0,1,3.159-6.815A49.638,49.638,0,0,1,96.6,5.325a28.187,28.187,0,0,1,4.2-4.35A4.8,4.8,0,0,1,103.735.01a6.48,6.48,0,0,1,3.489.6,6.422,6.422,0,0,1,2.832,3.145,6.186,6.186,0,0,1-.117,5.166c-.12.248-.108.545-.4.742s.021.367.164.5c1.461,1.321,2.807,2.761,4.2,4.153,1.562,1.566,3.139,3.121,4.682,4.709,1.36,1.4,2.757,2.761,4.116,4.16a.658.658,0,0,0,.952.141,6.219,6.219,0,0,1,9.336,4.663,6.628,6.628,0,0,1-1.776,5.184,27.685,27.685,0,0,1-4.085,3.544c-.8.618-1.618,1.242-2.408,1.887a35.028,35.028,0,0,1-4.877,3.06,39.024,39.024,0,0,1-8.605,3.468,48.566,48.566,0,0,1-6.932,1.428,53.736,53.736,0,0,1-5.537.612c-.354.012-.433.158-.433.476,0,.651-.045,1.3-.052,1.952a50.883,50.883,0,0,1-.65,7.674c-.229,1.4-.385,2.813-.675,4.2-.265,1.264-.66,2.5-1.011,3.747a35.838,35.838,0,0,1-2.86,7.191c-.434.81-1.066,1.534-1.456,2.34a20.841,20.841,0,0,1-1.747,3.046,49.536,49.536,0,0,1-8.144,8.955,62.448,62.448,0,0,1-5.223,3.965c-1.105.758-2.3,1.363-3.45,2.039A40.22,40.22,0,0,1,62.32,96.9a36.61,36.61,0,0,1-4.923.863,24.034,24.034,0,0,0-2.994.449,4.834,4.834,0,0,1-1.1.027c-1.789,0-3.573.216-5.365.142-.674-.028-.847.187-.858.883a49.047,49.047,0,0,1-.6,5.852,46.427,46.427,0,0,1-1.143,5.744A41.918,41.918,0,0,1,41.2,121.016a50.233,50.233,0,0,1-6.528,8.88,18.088,18.088,0,0,1-1.886,1.863,6,6,0,0,1-6.386,1.087,6.228,6.228,0,0,1-3.2-3.174,5.628,5.628,0,0,1,.813-6.593c.32-.366.028-.5-.151-.662-1.57-1.424-3.041-2.948-4.553-4.431-1.217-1.193-2.455-2.373-3.638-3.592-1.5-1.55-3.114-3-4.519-4.641-.519-.605-.763-.586-1.363-.138a6.01,6.01,0,0,1-4.639,1.1,6.253,6.253,0,0,1-4.438-3.551,5.755,5.755,0,0,1-.465-4.441,6.256,6.256,0,0,1,1.694-2.779,66.059,66.059,0,0,1,5.021-4.4,41.916,41.916,0,0,1,6.613-4.269,11.613,11.613,0,0,1,1.25-.567c1.053-.4,1.71.257,2.359.919a2.516,2.516,0,0,1-1.631,3.035,40.154,40.154,0,0,0-10.656,7.853,2.209,2.209,0,0,0-.836,1.418L4,104.105c-.008.175-.015.35-.023.525A2.112,2.112,0,0,0,5.5,106.61a2.6,2.6,0,0,0,2.71-.536,44.827,44.827,0,0,1,5.01-4.324,41.934,41.934,0,0,1,7.24-4.153c1.331-.437,2.656-.9,4-1.305a50.163,50.163,0,0,1,13.087-1.677c5.056-.157,10.121.051,15.174-.283,1.7-.112,3.386-.292,5.064-.571a25.22,25.22,0,0,0,3.448-.74,1.51,1.51,0,0,0,.7-.1,41.642,41.642,0,0,0,6.225-2.045,37.036,37.036,0,0,0,9.932-6.064A46.712,46.712,0,0,0,87.531,74.33,39.546,39.546,0,0,0,92.8,62.313,61.005,61.005,0,0,0,94.38,49.942c.065-1.4.09-2.808.113-4.213.02-1.28.012-2.561.019-3.841.007-1.3-.013-2.606.034-3.906.044-1.242-.048-2.484.07-3.73.1-1,.213-2.007.272-3.011a24.422,24.422,0,0,1,.713-4.614A32.334,32.334,0,0,1,97.124,21.4c.772-1.736,1.517-3.48,2.456-5.132a38.394,38.394,0,0,1,6.131-7.943,2.941,2.941,0,0,0,.908-2.2,2.181,2.181,0,0,0-1.127-1.967,2.447,2.447,0,0,0-2.536.034,10.651,10.651,0,0,0-2.735,2.879A39.369,39.369,0,0,0,97.1,11.221a2.573,2.573,0,0,0-.253.287,39.4,39.4,0,0,0-4.987,10.559,60.117,60.117,0,0,0-1.619,7.581c-.292,1.915-.316,3.861-.422,5.8-.285,5.216-.034,10.439-.324,15.66a55.677,55.677,0,0,1-1.17,9.308,32.826,32.826,0,0,1-5.331,11.96c-.743,1.036-1.517,2.049-2.278,3.073-1.082,1.271-2.273,2.436-3.468,3.6a36.361,36.361,0,0,1-9.885,6.946,37.184,37.184,0,0,1-10.886,3.182,63.072,63.072,0,0,1-7,.592c-3.438.081-6.878.043-10.317.055l-.127,0-.4.006a2.191,2.191,0,0,0-1.166.078c-1.445-.079-2.881.119-4.323.151a26.556,26.556,0,0,0-3.006.264A50.547,50.547,0,0,0,22.621,91.8a2.151,2.151,0,0,1-2.118-.238c-.289-.233-.418-.65-.827-.761m88.2-48.848a3.722,3.722,0,0,0,.382-.048,40.241,40.241,0,0,0,14.2-6.386,43.33,43.33,0,0,0,5.793-4.891,2.556,2.556,0,0,0,.722-2.664,2.418,2.418,0,0,0-3.95-.863c-.749.684-1.472,1.4-2.206,2.1a55.464,55.464,0,0,1-4.724,3.53A37.8,37.8,0,0,1,98.923,38.44c-.556.026-.735.177-.65.7a14.06,14.06,0,0,1,.058,3.488c-.055.633.217.7.7.65,1.323-.134,2.648-.25,3.968-.408a31.443,31.443,0,0,0,4.885-.911m-81.421,85.2c-.009.085-.05.182-.023.255.683,1.893,2.6,2.7,4.21,1.089.674-.673,1.3-1.4,1.931-2.11A41.141,41.141,0,0,0,42.271,106.9a36.581,36.581,0,0,0,.681-4.624c.081-1.114.249-2.222.237-3.344,0-.243.019-.558-.32-.511-1.336.181-2.675.028-4.011.077-.3.011-.342.151-.354.4a51.2,51.2,0,0,1-.958,7.631,34.552,34.552,0,0,1-4.621,11.514c-.871,1.4-1.936,2.66-2.866,4.018-1.034,1.142-2.081,2.271-3.095,3.431a1.981,1.981,0,0,0-.505,1.658M83.6,63.137c.036-.159-.083-.255-.192-.364q-3.656-3.651-7.3-7.319-2.623-2.636-5.257-5.269a1.341,1.341,0,0,0-1.7-.319,31.852,31.852,0,0,0-8.694,5.323c-.345.295-.9.581-.945.928-.053.375.552.648.868.966q8.156,8.2,16.318,16.4c.233.235.339.264.586-.007a31.488,31.488,0,0,0,5.745-8.894c.2-.47.377-.95.572-1.444M64.609,83.013l.277-.125a33.192,33.192,0,0,0,9.06-5.966c.326-.3.294-.47-.006-.767-1.972-1.951-3.925-3.922-5.884-5.886q-5.4-5.409-10.793-10.818c-.626-.627-.631-.626-1.218.033a35.935,35.935,0,0,0-5.767,8.9.463.463,0,0,0,.094.614c1.237,1.3,2.54,2.527,3.817,3.784,3.32,3.269,6.587,6.593,9.878,9.893.146.146.263.355.542.333m55.607-56.754c-.015-.225-.2-.327-.334-.46-1.319-1.292-2.659-2.56-3.957-3.876-2.859-2.9-5.706-5.812-8.624-8.653-.48-.467-.693-.346-1.013.026a37.761,37.761,0,0,0-4.115,5.971.422.422,0,0,0,.076.6c1.406,1.412,2.771,2.866,4.18,4.275,1.865,1.865,3.762,3.7,5.636,5.554.365.361.686.766,1.033,1.145a.378.378,0,0,0,.552.092,37.565,37.565,0,0,0,6.291-4.339c.11-.1.268-.155.275-.337M31.383,113.006c0-.249-.167-.368-.3-.5Q25.9,107.3,20.713,102.1a.472.472,0,0,0-.661-.123,33.429,33.429,0,0,0-5.754,3.737c-.939.774-.948.772-.1,1.621q6.016,6.029,12.036,12.053c.546.546.595.53,1.093-.079a32.887,32.887,0,0,0,3.912-6.033c.048-.1.1-.188.145-.265M60.189,84.42A6.711,6.711,0,0,0,58.8,82.891c-2.812-2.856-5.65-5.687-8.48-8.525q-.619-.621-1.245-1.236c-.231-.226-.391-.251-.456.142-.038.226-.19.434-.221.66-.287,2.079-.8,4.131-.9,6.229-.087,1.764-.228,3.53-.155,5.3.012.286.043.433.382.415,1.222-.063,2.447-.071,3.668-.154a47.885,47.885,0,0,0,5.532-.5,14.705,14.705,0,0,0,3.27-.8M84.7,58.754c.09-.392.152-.614.191-.84.245-1.389.449-2.775.557-4.191.152-1.99.126-3.987.352-5.97.046-.4-.143-.462-.479-.44-.725.047-1.456.084-2.176.1a58.549,58.549,0,0,0-6.339.427,15.4,15.4,0,0,0-2.333.533L84.7,58.754M100.182,34.42a21.437,21.437,0,0,0,3.135-.3,32.828,32.828,0,0,0,5.5-1.223c.788-.236.806-.261.24-.826q-3.194-3.2-6.392-6.387-.964-.961-1.937-1.912c-.253-.246-.379-.338-.53.157-.266.87-.454,1.761-.715,2.633a26.1,26.1,0,0,0-.578,3.076c-.115.665-.043,1.323-.146,1.978a19.544,19.544,0,0,0-.238,2.616c-.006.262.084.32.333.328.475.015.918-.242,1.324-.138M24.425,100.232l8.471,8.7a25.459,25.459,0,0,0,1.2-5.03,44.659,44.659,0,0,0,.422-5.106,29.905,29.905,0,0,0-10.09,1.437" transform="translate(0 0)" fill="#060708"/>
        <path id="Path_824011" data-name="Path 824011" d="M64.885,162.356a25.2,25.2,0,0,1-3.448.74c-1.677.279-3.368.46-5.064.572-5.053.333-10.118.126-15.174.282a50.187,50.187,0,0,0-13.087,1.677c-1.341.405-2.665.869-4,1.306a3.787,3.787,0,0,0-1.141-.058,40.38,40.38,0,0,0-6.7,2.123,31.8,31.8,0,0,0-6.392,3.758c-.668.52-1.209,1.36-2.252,1.21.008-.175.015-.35.023-.525l.055-.168a2.206,2.206,0,0,1,.836-1.418A40.143,40.143,0,0,1,19.2,164a2.517,2.517,0,0,0,1.631-3.035,24.936,24.936,0,0,0,2.5-.825c.409.111.538.528.827.761a2.15,2.15,0,0,0,2.118.238,50.611,50.611,0,0,1,7.518-1.484,26.555,26.555,0,0,1,3.006-.263c1.442-.032,2.878-.23,4.323-.152a2.973,2.973,0,0,0,1.166-.078l.4-.006c.044.058.087.055.127,0,3.439-.013,6.879.026,10.317-.055a62.948,62.948,0,0,0,7-.592,37.183,37.183,0,0,0,10.886-3.181,36.374,36.374,0,0,0,9.885-6.946c1.2-1.162,2.387-2.326,3.468-3.6.491.131.168.492.078.592-.556.616-.873,1.394-1.365,2.03-.989,1.278-2.1,2.467-3.2,3.651a48.5,48.5,0,0,1-7.819,6.788A33.125,33.125,0,0,1,65.9,161.38c-.426.177-.948.369-1.012.976" transform="translate(-3.655 -69.335)" fill="#52a1db"/>
        <path id="Path_824012" data-name="Path 824012" d="M87.051,94.768a20.514,20.514,0,0,1,1.931-2.843,27.714,27.714,0,0,1,3.155-3.715c1.293-1.277,2.507-2.628,3.906-3.8a57.412,57.412,0,0,1,4.855-3.646c1.275-.858,1.425-1.24,1.1-2.746a37.028,37.028,0,0,1,4.476-2.2.385.385,0,0,0,.266-.384A1.931,1.931,0,0,0,109.43,76.7a44.222,44.222,0,0,1,5.763-1.5,59.129,59.129,0,0,1,6.007-.774c1.928-.133,3.862-.126,5.784-.336.311-.034.506.048.505.405,0,1.346-.013,2.692,0,4.038.005.406-.23.381-.5.388-1.082.024-2.164.04-3.245.091a42.986,42.986,0,0,0-14.87,2.978.879.879,0,0,1-.191.035c-.3,0-.512-.4-.839-.239a19.46,19.46,0,0,1-3.633,1.092A29.424,29.424,0,0,0,95.1,87.5a46.56,46.56,0,0,0-6.5,5.994c-.447.468-.736,1.216-1.546,1.273" transform="translate(-41.688 -35.478)" fill="#e1495c"/>
        <path id="Path_824013" data-name="Path 824013" d="M117.5,96.535c.064-.607.586-.8,1.012-.976a33.124,33.124,0,0,0,6.165-3.538,48.5,48.5,0,0,0,7.819-6.788c1.1-1.184,2.215-2.373,3.2-3.651.492-.636.809-1.414,1.365-2.03.09-.1.413-.461-.078-.592.76-1.023,1.535-2.036,2.278-3.072a32.834,32.834,0,0,0,5.331-11.96,55.622,55.622,0,0,0,1.17-9.309c.289-5.221.039-10.444.324-15.66.106-1.936.129-3.882.422-5.8a60.117,60.117,0,0,1,1.619-7.581,39.4,39.4,0,0,1,4.987-10.559,2.533,2.533,0,0,1,.253-.288c.25.263.473.134.661-.069A25.263,25.263,0,0,0,156.441,12c.348-.5.475-.925.052-1.414a10.651,10.651,0,0,1,2.735-2.879,2.447,2.447,0,0,1,2.536-.035A2.182,2.182,0,0,1,162.89,9.64a2.94,2.94,0,0,1-.908,2.2,38.4,38.4,0,0,0-6.131,7.943c-.939,1.651-1.684,3.4-2.456,5.132a32.327,32.327,0,0,0-1.524,5.229,24.434,24.434,0,0,0-.713,4.615c-.059,1-.177,2.008-.272,3.011-.119,1.246-.026,2.487-.07,3.73-.046,1.3-.027,2.6-.034,3.906-.007,1.28,0,2.561-.019,3.842-.022,1.4-.047,2.81-.113,4.213a61.014,61.014,0,0,1-1.576,12.371A39.552,39.552,0,0,1,143.8,77.844a46.723,46.723,0,0,1-9.446,10.485,37.036,37.036,0,0,1-9.932,6.064,41.761,41.761,0,0,1-6.225,2.045,1.51,1.51,0,0,1-.7.1" transform="translate(-56.27 -3.513)" fill="#238bcd"/>
        <path id="Path_824014" data-name="Path 824014" d="M80.869,101.81c.809-.056,1.1-.8,1.546-1.273a46.561,46.561,0,0,1,6.5-5.994,29.425,29.425,0,0,1,9.117-4.623,19.46,19.46,0,0,0,3.633-1.092c.327-.165.534.243.839.239a44.342,44.342,0,0,0-5.28,2.9,50.124,50.124,0,0,0-5.158,4.045,40.962,40.962,0,0,0-6.257,7.027,33.718,33.718,0,0,0-5.544,12.1A54.026,54.026,0,0,0,79.048,127.7c0,.527-.109.724-.669.705-1.211-.04-2.425-.024-3.637-.006-.441.007-.621-.133-.6-.6.1-1.979.208-3.956.358-5.932.122-1.619.31-3.22.546-4.824a32.732,32.732,0,0,1,.983-4.5,42.858,42.858,0,0,1,2.077-5.732,29.407,29.407,0,0,1,2.761-5" transform="translate(-35.506 -42.521)" fill="#df3145"/>
        <path id="Path_824015" data-name="Path 824015" d="M54.347,212.517c.929-1.358,1.995-2.616,2.866-4.017a34.561,34.561,0,0,0,4.621-11.514,51.219,51.219,0,0,0,.958-7.632c.012-.254.054-.393.354-.4,1.336-.049,2.675.1,4.011-.078.338-.046.317.268.32.511.012,1.122-.156,2.23-.237,3.344a36.574,36.574,0,0,1-.681,4.623,41.143,41.143,0,0,1-9.694,19.489c-.634.712-1.257,1.437-1.931,2.109-1.61,1.608-3.527.8-4.21-1.088-.026-.073.014-.169.023-.255A16.531,16.531,0,0,0,54,213.6a1.52,1.52,0,0,0,.346-1.084" transform="translate(-24.287 -90.448)" fill="#df3145"/>
        <path id="Path_824016" data-name="Path 824016" d="M198.175,68.794a31.5,31.5,0,0,1-4.885.911c-1.32.158-2.645.273-3.968.408-.479.049-.751-.017-.7-.65a14.064,14.064,0,0,0-.058-3.489c-.085-.521.093-.672.65-.7A37.8,37.8,0,0,0,208.4,59.568a55.741,55.741,0,0,0,4.724-3.53c.139.373.382.725.127,1.152a5.177,5.177,0,0,1-.742,1.119,57.152,57.152,0,0,1-4.25,3.884,45.423,45.423,0,0,1-9.486,5.931.906.906,0,0,0-.6.671" transform="translate(-90.294 -26.836)" fill="#e1495c"/>
        <path id="Path_824017" data-name="Path 824017" d="M207.023,66.238a.906.906,0,0,1,.6-.671,45.423,45.423,0,0,0,9.486-5.931,57.152,57.152,0,0,0,4.25-3.884,5.177,5.177,0,0,0,.742-1.119c.255-.427.012-.779-.127-1.152.734-.7,1.457-1.412,2.206-2.1a2.418,2.418,0,0,1,3.95.863,2.557,2.557,0,0,1-.722,2.664A43.371,43.371,0,0,1,221.61,59.8a40.255,40.255,0,0,1-14.2,6.386,3.724,3.724,0,0,1-.383.048" transform="translate(-99.142 -24.28)" fill="#df3145"/>
        <path id="Path_824018" data-name="Path 824018" d="M7.632,194.238c1.043.15,1.585-.69,2.252-1.21a31.8,31.8,0,0,1,6.392-3.757,40.39,40.39,0,0,1,6.7-2.124,3.824,3.824,0,0,1,1.142.058,41.934,41.934,0,0,0-7.24,4.153,44.828,44.828,0,0,0-5.01,4.324,2.6,2.6,0,0,1-2.71.536,2.112,2.112,0,0,1-1.523-1.98" transform="translate(-3.655 -89.608)" fill="#238bcd"/>
        <path id="Path_824019" data-name="Path 824019" d="M189.457,13.573c.424.489.3.91-.052,1.414A25.315,25.315,0,0,1,187,17.652c-.188.2-.411.332-.661.069a39.384,39.384,0,0,1,3.122-4.148" transform="translate(-89.235 -6.5)" fill="#52a1db"/>
        <path id="Path_824020" data-name="Path 824020" d="M54.353,234.251a1.52,1.52,0,0,1-.346,1.084,16.531,16.531,0,0,1-3.254,4.006,1.981,1.981,0,0,1,.505-1.658c1.014-1.159,2.061-2.29,3.095-3.431" transform="translate(-24.293 -112.182)" fill="#e1495c"/>
        <path id="Path_824021" data-name="Path 824021" d="M73.066,172.343a2.984,2.984,0,0,1-1.166.078,2.2,2.2,0,0,1,1.166-.078" transform="translate(-34.433 -82.515)" fill="#238bcd"/>
        <path id="Path_824022" data-name="Path 824022" d="M75.025,172.362c-.041.058-.083.061-.127,0l.127,0" transform="translate(-35.868 -82.543)" fill="#238bcd"/>
      </g>
    </g>
  </g>
</svg>
