<svg xmlns="http://www.w3.org/2000/svg" xmlns:xlink="http://www.w3.org/1999/xlink" width="150" height="150" viewBox="0 0 150 150">
  <defs>
    <clipPath id="clip-path">
      <rect id="Rectangle_378112" data-name="Rectangle 378112" width="150" height="150" transform="translate(303 1185)" fill="none" stroke="#707070" stroke-width="1"/>
    </clipPath>
    <clipPath id="clip-path-2">
      <rect id="Rectangle_378113" data-name="Rectangle 378113" width="145.013" height="99.628" fill="none"/>
    </clipPath>
  </defs>
  <g id="Mask_Group_411" data-name="Mask Group 411" transform="translate(-303 -1185)" clip-path="url(#clip-path)">
    <g id="Group_1074181" data-name="Group 1074181" transform="translate(317 1184)">
      <g id="Group_1074183" data-name="Group 1074183" transform="translate(-12 26)">
        <g id="Group_1074182" data-name="Group 1074182" clip-path="url(#clip-path-2)">
          <path id="Path_824036" data-name="Path 824036" d="M124.842,8.76c0-.093,0-.185,0-.277l-.012-.573a13.032,13.032,0,0,1,.345-3.292A6.586,6.586,0,0,1,130.056.167a6.681,6.681,0,0,1,8,5.489,11.311,11.311,0,0,1,.126,1.956q0,38.8,0,77.61c0,1.054-.007,1.138.989,1.222a6.337,6.337,0,0,1,4.09,2.035,5.8,5.8,0,0,1,1.45,3.029,21.417,21.417,0,0,1,.117,6.4,2.215,2.215,0,0,1-2.08,1.711q-5.979.011-11.957.006-5.236,0-10.472,0a2.067,2.067,0,0,1-2.254-2.181c-.027-1.909-.066-3.823.05-5.726a5.569,5.569,0,0,1,1.4-3.067,7.4,7.4,0,0,1,5.077-2.507c.469,0,.219-.33.244-.533q.008-5.659.015-11.319c0-4.952-.011-9.9.018-14.857,0-.631-.219-.733-.772-.732q-11.993.02-23.985,0a10.1,10.1,0,0,1-1.55-.076,2.067,2.067,0,0,1-1.879-2.024,2.182,2.182,0,0,1,1.874-2.02l.113-.02c1.221-.161,2.45-.009,3.672-.095.193-.014.471.127.562-.129.084-.236-.182-.356-.324-.5-3.4-3.4-6.81-6.792-10.187-10.216a2.447,2.447,0,0,0-1.921-.8c-3.489.033-6.978.014-10.468.014-.042-.067-.087-.074-.132,0l-.688.045c-.08-.01-.178-.055-.2.071,0,.014.113.046.173.07a21.686,21.686,0,0,0,2.734,2.868c1.521,1.529,3.042,3.06,4.607,4.547,1.344,1.277,2.608,2.643,3.933,3.947.6.6,1.4,1.2,1.349,2.243a3.772,3.772,0,0,0-.3.8,1.682,1.682,0,0,1-1.718,1.283q-34.46,0-68.919-.016c-.589,0-.724.14-.722.731q.034,13.089.015,26.179c0,.351-.088.71.484.727a6.352,6.352,0,0,1,6.017,4.875,6.761,6.761,0,0,1,.273,1.566c.039,1.626.02,3.253.027,4.879a2.056,2.056,0,0,1-2.054,1.955c-7.051.028-14.1.019-21.155.021-.495,0-.99-.015-1.485-.007A2.288,2.288,0,0,1,.057,97.44c-.012-1.745-.134-3.5.024-5.232A6.3,6.3,0,0,1,3.863,87a5.2,5.2,0,0,1,2.6-.675c.329.017.418-.116.379-.409a2.137,2.137,0,0,1,0-.283q0-39.337-.022-78.673A6.854,6.854,0,0,1,9.043,1.685,6.587,6.587,0,0,1,12.426.107a6.7,6.7,0,0,1,3.717.411,6.471,6.471,0,0,1,3.135,2.844,8.565,8.565,0,0,1,.849,3.4c.055.465-.028.946.022,1.413.057.525.283.895.931.878,1.32-.032,2.642-.01,3.963-.01q49.39,0,98.779,0c.257,0,.515-.027.772-.042.165,0,.307-.016.248-.242m-59.1,16.131.083-.055-.084-.065c-1.564-1.595-3.188-3.129-4.763-4.713-2.022-2.033-3.989-4.121-6.017-6.147a2.025,2.025,0,0,0-.868-.575,2.846,2.846,0,0,0-1.244-.006l-8.1,0a.431.431,0,0,0-.4,0l-2-.011c-.177-.005-.5-.2-.318.253q5.4,5.4,10.794,10.808A1.636,1.636,0,0,0,54.042,25c3.842-.029,7.684-.039,11.526-.055.057.062.1.049.127-.027Zm50.635,17.97-.006,0c-.229.1-.177.2,0,.3q3.928,3.923,7.858,7.845c.091.091.173.25.343.16a.373.373,0,0,0,.176-.354c.034-.63.121-1.259.127-1.889.016-1.575,0-3.151,0-4.727,0-1.322.006-1.322-1.274-1.365-.041-.069-.083-.07-.124,0l-6.519,0c-.05-.076-.1-.071-.142,0h-.274c-.068-.089-.121-.083-.16.024M27.523,54.5c.079.1.157.1.234,0l.8-.057.091-.166c-.63-.593-1.28-1.168-1.887-1.783-1.92-1.944-3.82-3.907-5.739-5.852-.2-.206-.4-.6-.716-.485-.351.125-.141.535-.143.809-.015,2.285-.008,4.57,0,6.855,0,.227-.076.477.144.659.018.076.049.109.111.032l7.114-.011M116.792,13.3c-.079-.035-.112,0-.123.076l-.339.1q3.982,4,7.979,8c.1.1.132.35.356.269s.212-.275.211-.471c-.01-2.476-.021-4.952-.018-7.429,0-.317-.092-.5-.422-.511a2.212,2.212,0,0,0-1.1,0l-3.844,0a.436.436,0,0,0-.4,0l-1.3-.007a.465.465,0,0,0-.4-.014l-.6-.008M28.045,24.958c.5.141.561.115.489-.211q-3.3-3.307-6.593-6.618a16.543,16.543,0,0,0-1.4-1.386c-.132-.1-.259-.233-.437-.153-.163.073-.113.253-.091.371.154.827-.026,1.681.065,2.471.2,1.792-.1,3.566.05,5.343-.1.035-.164.12-.083.194.15.138.331.079.5.015l7.5-.025M14.909,54.513c.041.074.083.078.127,0,.733.119.877-.217.87-.907-.037-3.373-.024-6.747,0-10.12,0-.487-.124-.662-.63-.647-1.178.035-2.359.036-3.538.01-.545-.012-.666.207-.664.716.021,3.421.011,6.841.015,10.261,0,.225-.087.48.149.654.022.075.054.108.114.028l3.558,0m.408-29.522a.4.4,0,0,0,.524-.084c.092-3.823.056-7.647.026-11.47-.39-.307-.818-.145-1.237-.1l-1.582,0a2.978,2.978,0,0,0-1.247,0c-.506-.033-.726.108-.72.708.035,3.431.02,6.862,0,10.294,0,.482.131.661.64.648,1.2-.028,2.4,0,3.594.01m117.34,29.519a4.6,4.6,0,0,1,.635-.02c.483.049.649-.13.647-.632q-.025-5.2.007-10.395c0-.469-.153-.622-.606-.613-1.131.021-2.263.02-3.395.008-.57-.006-.9-.092-.867.816.122,3.249.044,6.5.059,9.756,0,.352-.272.706,0,1.055.029.061.063.092.115.019l.319.03c.082.113.161.111.24,0l2.717-.019c.044.077.085.073.127,0M129.266,25l.288.006.134,0,3.831-.029c.2.1.371.115.392-.182q.008-5.444.02-10.889c0-.327-.051-.562-.438-.561a1.316,1.316,0,0,0-.814-.006c-1.01,0-2.021.022-3.031,0-.388-.007-.533.1-.531.514.022,3.689.024,7.378.032,11.067,0,.088.031.121.117.082M22.679,95.233c0-.731.016-1.462,0-2.192a2.411,2.411,0,0,0-2.5-2.469q-6.752-.006-13.505,0a2.278,2.278,0,0,0-2.4,2.259c-.031.659,0,1.319-.033,1.978-.018.405.076.612.545.579.586-.041,1.177-.016,1.766-.016l15.979-.007c.117.033.162-.016.151-.131m118.069-.271c.325-.143.336-.288,0-.435,0-.495.02-.991-.014-1.484a2.343,2.343,0,0,0-2.592-2.466q-6.682-.009-13.365-.005a2.2,2.2,0,0,0-2.447,2.461c0,.613.022,1.227-.009,1.838-.02.393.086.508.5.506,3.795-.024,7.59-.02,11.385-.025l5.94-.011c.281,0,.6.063.6-.378M116.838,49.5q-3.144-3.15-6.288-6.3a1.338,1.338,0,0,0-1.042-.323q-5.513.009-11.026.007c-.221,0-.441.02-.782.036.759.72,1.431,1.339,2.083,1.978q2.571,2.523,5.128,5.061,2.078,2.109,4.161,4.216a1.127,1.127,0,0,0,.841.3q5.612,0,11.223,0c.135,0,.309.057.389-.083.113-.2-.1-.291-.2-.4q-2.24-2.251-4.489-4.492m-.034-29.54q-3.148-3.14-6.292-6.283a1.142,1.142,0,0,0-.911-.267c-3.2,0-6.4,0-9.6,0a8.3,8.3,0,0,0-2.094-.016c.008.335.266.458.439.63.9.9,1.813,1.781,2.72,2.672l3.874,3.809c1.234,1.262,2.486,2.507,3.691,3.8a1.839,1.839,0,0,0,1.482.629c3.654-.021,7.307-.012,10.961-.019.17,0,.383.095.534-.213l-4.8-4.738m-74.3.269c-.154-.177-.3-.362-.464-.528-1.831-1.837-3.688-3.649-5.483-5.52a2.385,2.385,0,0,0-1.918-.792c-3.371.036-6.744.014-10.116.014h-1.21c2.385,2.479,4.643,4.934,7.143,7.151a53.753,53.753,0,0,0,3.786,3.893,1.8,1.8,0,0,0,1.412.487c3.656-.019,7.312-.014,10.968-.022.149,0,.328.076.353.044L42.5,20.226M30.469,50.093c1.273,1.289,2.554,2.572,3.816,3.872a1.611,1.611,0,0,0,1.253.515c3.721-.014,7.443-.007,11.164-.015.161,0,.373.107.516-.163-.665-.622-1.348-1.232-2-1.874-.92-.907-1.816-1.837-2.722-2.758a1.142,1.142,0,0,0-.118-.174q-3.118-3.132-6.238-6.262a1.2,1.2,0,0,0-.89-.362q-5.622,0-11.244.01c-.153,0-.357-.076-.444.114s.088.3.2.412q3.351,3.345,6.705,6.685M67.677,50a1.7,1.7,0,0,0,.52.655c1.042,1.053,2.109,2.084,3.13,3.158a2.059,2.059,0,0,0,1.622.67c3.623-.015,7.247-.005,10.871-.011.218,0,.472.1.66-.135a.622.622,0,0,0-.1-.181c-1.269-1.123-2.437-2.351-3.634-3.548-.32-.32-.426-.854-.959-.961a6.15,6.15,0,0,0-1.353-1.515c-1.691-1.461-3.155-3.148-4.8-4.651a2.247,2.247,0,0,0-1.591-.608q-5.27.006-10.541.01a1.571,1.571,0,0,0-.809.074c-.062.2.087.274.179.367q3.168,3.183,6.342,6.362a.866.866,0,0,0,.459.312m.156-29.326c1.187,1.212,2.389,2.409,3.552,3.643a1.859,1.859,0,0,0,1.49.617c3.608-.023,7.217-.013,10.825-.02.2,0,.414.083.547-.029l-4.342-4.516c-.286-.34-.552-.7-.862-1.016-1.626-1.656-3.3-3.264-4.906-4.94-.431-.45-.876-1.061-1.605-1.049-3.648.057-7.3.106-10.944-.025a7.139,7.139,0,0,0-1.007.107c1.69,1.954,3.591,3.58,5.294,5.4.608.651,1.3,1.22,1.959,1.827M11.057,83.909c-.108.024-.21.054-.225.189-.019.168.087.225.226.252q0,.488.006.977c-.326.144-.337.289,0,.436.012.133.024.267.036.4.015.163-.056.441.262.194a21.292,21.292,0,0,1,3.736-.1c.653.031.808-.114.806-.766q-.031-12.949-.01-25.9c0-.118-.006-.236,0-.354.015-.234-.035-.326-.319-.4a9.612,9.612,0,0,0-2.305-.118c-.7-.02-1.65-.253-2.049.1-.452.4-.152,1.37-.153,2.089q-.016,11.5-.011,23m122.87-24.618c.23-.234.18-.372-.143-.417-.23-.266-.548-.133-.826-.181-.031-.17-.1-.336-.292-.334s-.256.172-.293.339c-.918,0-1.837.033-2.754,0-.416-.014-.5.12-.5.512q.019,13.312.014,26.625c0,.223-.066.488.282.529.125.188.217.174.278-.044a28.425,28.425,0,0,1,3.648-.073c.468,0,.6-.117.6-.582-.011-1.759.016-3.518.029-5.276.147-.022.242-.09.225-.256-.014-.135-.11-.173-.224-.191q-.007-6.613-.014-13.227c-.005-2.475-.02-4.95-.031-7.425m-31.4-34.313a.27.27,0,0,0,.405-.045c.159-.337-.172-.421-.322-.571-1.673-1.67-3.368-3.32-5.037-4.994-1.84-1.846-3.657-3.713-5.487-5.569a1.368,1.368,0,0,0-.908-.489,2.212,2.212,0,0,0-.958.012L81,13.34l-.272.005-.437,0A2.212,2.212,0,0,0,79.28,13.3c-.255.025-.328.166-.025.293q5.4,5.431,10.8,10.866a1.749,1.749,0,0,0,1.579.559l.055.025.055-.028ZM122.754,38.6c.146.188.289.168.43-.005.329.006.661-.015.986.024.584.07.707-.2.7-.734-.025-2.618-.015-5.235-.026-7.853,0-.252.073-.523-.109-.751-.033-.084-.081-.1-.146-.031l-.265-.009c-.041-.068-.07-.182-.124-.195-.136-.032-.175.079-.183.2-.165,0-.33.014-.495.014H19.57c-.471,0-.942.02-1.413.031-2.19-.01-4.379-.013-6.569-.037-.409,0-.512.149-.51.539q.017,4.17-.007,8.338c0,.343.072.521.467.515q1.978-.029,3.957-.007c.309,0,.413-.094.4-.4-.02-.565-.01-1.13,0-1.7a2.222,2.222,0,0,1,2.266-2.473,1.272,1.272,0,0,0,.313.129,1.8,1.8,0,0,1,1.618,1.636c.178.877-.018,1.77.121,2.648.012.139.1.141.208.12.282.011.565.031.847.031q49.473.005,98.945.007c.848,0,1.7-.022,2.543-.033M42.007,42.869c.325.4.581.763.891,1.075q5.006,5.04,10.026,10.066a1.373,1.373,0,0,0,1.033.506c3.534-.02,7.068-.011,10.6-.033.375,0,.933.2,1.1-.163.2-.441-.421-.588-.677-.849-3.272-3.323-6.571-6.619-9.841-9.944a2.131,2.131,0,0,0-1.673-.7c-3.558.037-7.115.034-10.673.045h-.783m91.935-8.964h0c0-1.341-.018-2.683.009-4.024.01-.478-.109-.659-.625-.643-1.246.037-2.494.031-3.741,0-.394-.01-.47.114-.469.471q.017,4.237,0,8.472c0,.385.125.473.484.466,1.224-.023,2.448-.038,3.671-.01.542.012.688-.2.679-.707-.023-1.341-.008-2.682-.008-4.024m-2.424-24.86c.071,0,.142,0,.212,0,.719-.051,1.727.323,2.083-.149.367-.488.138-1.442.127-2.191a2.139,2.139,0,0,0-1.287-2.138,2.615,2.615,0,0,0-2.78.313A1.562,1.562,0,0,0,129.182,6c-.039.916-.032,1.835-.061,2.751-.011.343.208.3.418.3h1.979m-118.037,0c.682,0,1.365-.009,2.046,0,.264.006.386-.062.369-.35a12.85,12.85,0,0,0-.14-2.648,2.42,2.42,0,0,0-1.795-1.681c-1.361-.138-2.193.244-2.653,1.217a7.5,7.5,0,0,0-.258,2.843c-.034.468.061.679.6.629.606-.058,1.222-.014,1.833-.014" transform="translate(0 0)" fill="#060607"/>
          <path id="Path_824037" data-name="Path 824037" d="M140.645,75.647c3.489,0,6.978.019,10.467-.013a2.445,2.445,0,0,1,1.921.8c3.377,3.425,6.79,6.813,10.187,10.216.142.143.408.264.324.5-.091.255-.37.115-.562.128-1.222.086-2.45-.066-3.67.095-.05-.064-.085-.036-.114.021a2.183,2.183,0,0,0-1.874,2.019l-4.9.02c.054-1.045-.745-1.648-1.349-2.243-1.324-1.3-2.589-2.67-3.933-3.947-1.566-1.488-3.086-3.018-4.607-4.547A21.615,21.615,0,0,1,139.8,75.83l.025-.141.687-.045.133,0" transform="translate(-60.639 -32.807)" fill="#ffd65d"/>
          <path id="Path_824038" data-name="Path 824038" d="M220.277,151.194c-.025.2.226.533-.244.533.021-.206-.094-.473.244-.533" transform="translate(-95.44 -65.582)" fill="#e7e4e7"/>
          <path id="Path_824039" data-name="Path 824039" d="M220.233,13.968l.012.572c-.383-.183-.392-.374-.012-.572" transform="translate(-95.406 -6.059)" fill="#e7e4e7"/>
          <path id="Path_824040" data-name="Path 824040" d="M220.283,15.469c.059.225-.082.246-.248.242a.226.226,0,0,1,.248-.242" transform="translate(-95.442 -6.71)" fill="#e7e4e7"/>
          <path id="Path_824041" data-name="Path 824041" d="M141,23.537l.436,0a.171.171,0,0,0,.272-.006l9.224-.016a1.623,1.623,0,0,0,.959-.012A1.367,1.367,0,0,1,152.8,24c1.83,1.856,3.647,3.723,5.487,5.569,1.669,1.674,3.364,3.324,5.037,4.994.15.149.481.233.322.57a.474.474,0,0,0-.405.045l-10.782.035-.111,0a1.749,1.749,0,0,1-1.579-.559q-5.39-5.443-10.8-10.866c.273-.376.712-.067,1.032-.249" transform="translate(-60.711 -10.196)" fill="#ffd65d"/>
          <path id="Path_824042" data-name="Path 824042" d="M86.3,23.542a2.031,2.031,0,0,1,.868.575c2.029,2.027,3.995,4.114,6.017,6.148,1.575,1.584,3.2,3.118,4.763,4.713a.127.127,0,0,0,0,.12l-.048.029-.127.027c-3.842.016-7.684.026-11.526.055a1.635,1.635,0,0,1-1.212-.618q-5.4-5.405-10.794-10.807c.033-.176.226-.151.318-.253l2,.011a.32.32,0,0,0,.4,0l8.094,0a2.9,2.9,0,0,0,1.245.006" transform="translate(-32.2 -10.207)" fill="#ffd65d"/>
          <path id="Path_824043" data-name="Path 824043" d="M74.185,75.674h.783c3.558-.011,7.115-.007,10.673-.045a2.133,2.133,0,0,1,1.673.7c3.269,3.325,6.569,6.621,9.841,9.944.257.261.873.408.677.849-.162.365-.72.16-1.095.163-3.534.022-7.068.012-10.6.033a1.373,1.373,0,0,1-1.033-.506q-5.013-5.033-10.026-10.066c-.31-.313-.566-.68-.891-1.076" transform="translate(-32.178 -32.805)" fill="#ffd65d"/>
          <path id="Path_824044" data-name="Path 824044" d="M228.321,131.325c-.349-.04-.283-.305-.283-.529q0-13.311-.014-26.624c0-.392.085-.525.5-.511.917.03,1.835,0,2.753,0l.585,0c.279.048.6-.084.826.181.045.14-.089.341.143.417.011,2.474.027,4.95.031,7.424q.013,6.615.014,13.227c0,.149,0,.3,0,.447-.012,1.758-.039,3.517-.028,5.276,0,.464-.134.58-.6.582a28.531,28.531,0,0,0-3.648.072c-.122-.169-.2-.055-.277.044" transform="translate(-98.907 -44.961)" fill="#e7e4e7"/>
          <path id="Path_824045" data-name="Path 824045" d="M19.5,131.073q-.019-.2-.037-.4l0-.436-.007-.977v-.441q0-11.5.011-23c0-.72-.3-1.686.152-2.089.4-.356,1.346-.123,2.05-.1a9.621,9.621,0,0,1,2.306.118c.284.076.333.168.319.4-.007.118,0,.236,0,.354q0,12.949.01,25.9c0,.651-.153.8-.806.766a21.291,21.291,0,0,0-3.736.1.33.33,0,0,0-.262-.194" transform="translate(-8.403 -44.91)" fill="#e7e4e7"/>
          <path id="Path_824046" data-name="Path 824046" d="M114.239,30.883c-.656-.606-1.351-1.176-1.959-1.827-1.7-1.823-3.6-3.448-5.294-5.4a7.072,7.072,0,0,1,1.008-.107c3.648.131,7.3.083,10.943.025.73-.012,1.175.6,1.605,1.049,1.606,1.677,3.281,3.284,4.907,4.94.31.316.576.676.862,1.015-.672-.01-1.34.045-2.016.031-3.111-.062-6.224-.027-9.336-.027-.282,0-.581-.041-.72.3" transform="translate(-46.406 -10.213)" fill="#4c414e"/>
          <path id="Path_824047" data-name="Path 824047" d="M114.161,82.831a.864.864,0,0,1-.459-.312q-3.172-3.18-6.342-6.362c-.092-.092-.24-.168-.178-.366a1.569,1.569,0,0,1,.808-.074q5.271-.012,10.541-.01a2.245,2.245,0,0,1,1.591.607c1.645,1.5,3.108,3.19,4.8,4.651a6.154,6.154,0,0,1,1.353,1.515,1.385,1.385,0,0,1-.4.142c-2.245.072-4.494.082-6.737.1-1.486.013-2.99-.014-4.485-.078-.188-.008-.382-.012-.5.186" transform="translate(-46.485 -32.835)" fill="#4c414e"/>
          <path id="Path_824048" data-name="Path 824048" d="M48.5,82.93Q45.15,79.589,41.8,76.246c-.111-.112-.284-.225-.2-.412s.291-.114.444-.114q5.622-.009,11.244-.01a1.2,1.2,0,0,1,.889.362q3.119,3.132,6.238,6.262a1.12,1.12,0,0,1,.118.174c-.236.236-.536.131-.806.132q-5.121.011-10.242,0a1.383,1.383,0,0,0-.981.29" transform="translate(-18.034 -32.838)" fill="#4c414e"/>
          <path id="Path_824049" data-name="Path 824049" d="M48.31,30.805c-2.5-2.217-4.758-4.672-7.143-7.151h1.21c3.371,0,6.745.023,10.115-.014a2.382,2.382,0,0,1,1.918.792c1.8,1.87,3.653,3.682,5.485,5.52.165.165.309.351.464.528-.234.241-.535.136-.805.136-3.487.007-6.973,0-10.461.01-.267,0-.576-.11-.783.179" transform="translate(-17.856 -10.254)" fill="#4c414e"/>
          <path id="Path_824050" data-name="Path 824050" d="M179.93,30.7l-3.874-3.809c-.907-.89-1.818-1.776-2.72-2.672-.173-.172-.43-.294-.439-.63a8.307,8.307,0,0,1,2.095.016c3.2-.006,6.4,0,9.6,0a1.145,1.145,0,0,1,.911.267q3.139,3.149,6.292,6.283c-.069.546-.5.405-.82.407q-4.97.011-9.94,0a3.927,3.927,0,0,0-1.109.139" transform="translate(-74.995 -10.201)" fill="#4c414e"/>
          <path id="Path_824051" data-name="Path 824051" d="M179.752,82.8q-2.563-2.532-5.128-5.062c-.651-.639-1.323-1.258-2.083-1.978.341-.016.561-.036.781-.036q5.513,0,11.026-.007a1.341,1.341,0,0,1,1.042.323q3.142,3.153,6.288,6.3c-.185.39-.542.308-.863.309q-4.942,0-9.884,0a3.636,3.636,0,0,0-1.18.153" transform="translate(-74.841 -32.841)" fill="#4c414e"/>
          <path id="Path_824052" data-name="Path 824052" d="M234.449,164.341c0,.44-.319.377-.6.377l-5.94.011c-3.795.006-7.59,0-11.385.025-.414,0-.519-.113-.5-.506.031-.612.006-1.225.009-1.838a2.2,2.2,0,0,1,2.447-2.461q6.683,0,13.366,0a2.344,2.344,0,0,1,2.592,2.467c.035.493.011.989.014,1.484l0,.435" transform="translate(-93.701 -69.379)" fill="#e7e4e7"/>
          <path id="Path_824053" data-name="Path 824053" d="M25.773,164.742l-15.979.007c-.589,0-1.18-.025-1.766.016-.468.033-.562-.174-.545-.579.029-.659,0-1.32.033-1.978a2.278,2.278,0,0,1,2.4-2.259q6.752,0,13.505,0a2.411,2.411,0,0,1,2.5,2.469c.017.73,0,1.461,0,2.192l-.151.131" transform="translate(-3.245 -69.378)" fill="#e7e4e7"/>
          <path id="Path_824054" data-name="Path 824054" d="M119.519,88.024c.113-.2.307-.194.5-.186,1.494.063,3,.091,4.485.078,2.243-.02,4.492-.029,6.737-.1a1.384,1.384,0,0,0,.4-.142c.533.106.639.641.959.96,1.2,1.2,2.365,2.424,3.634,3.548a.63.63,0,0,1,.1.181c-.189.236-.443.135-.661.135-3.624.007-7.247,0-10.871.012a2.058,2.058,0,0,1-1.621-.67c-1.021-1.075-2.088-2.1-3.13-3.158a1.7,1.7,0,0,1-.52-.656" transform="translate(-51.842 -38.028)" fill="#3b2d3c"/>
          <path id="Path_824055" data-name="Path 824055" d="M53.809,88.142a1.383,1.383,0,0,1,.981-.29q5.121.014,10.242,0c.27,0,.57.1.806-.132.906.92,1.8,1.85,2.722,2.758.651.642,1.333,1.252,2,1.874-.143.27-.355.162-.516.163-3.721.008-7.443,0-11.164.015a1.612,1.612,0,0,1-1.253-.515c-1.262-1.3-2.543-2.583-3.816-3.872" transform="translate(-23.34 -38.049)" fill="#3b2d3c"/>
          <path id="Path_824056" data-name="Path 824056" d="M185.275,87.873a3.636,3.636,0,0,1,1.179-.153q4.942.011,9.884,0c.32,0,.678.082.863-.309q2.246,2.245,4.489,4.492c.1.1.313.2.2.4-.08.139-.254.082-.389.082q-5.612,0-11.223,0a1.127,1.127,0,0,1-.841-.3q-2.086-2.1-4.161-4.216" transform="translate(-80.364 -37.916)" fill="#3b2d3c"/>
          <path id="Path_824057" data-name="Path 824057" d="M53.782,36.045c.207-.289.516-.178.783-.179,3.487-.007,6.974,0,10.461-.01.271,0,.571.1.805-.136L70.3,40.447c-.025.033-.2-.044-.353-.044-3.656.008-7.311,0-10.966.021a1.8,1.8,0,0,1-1.412-.487,53.519,53.519,0,0,1-3.787-3.892" transform="translate(-23.328 -15.494)" fill="#3b2d3c"/>
          <path id="Path_824058" data-name="Path 824058" d="M26.638,51.7l0,4.777a2.222,2.222,0,0,0-2.266,2.473c-.005.566-.015,1.131,0,1.7.011.308-.094.4-.4.4q-1.978-.019-3.957.007c-.394.006-.468-.172-.466-.515q.018-4.17.006-8.338c0-.39.1-.544.51-.539,2.19.024,4.38.027,6.57.037" transform="translate(-8.481 -22.408)" fill="#e7e4e7"/>
          <path id="Path_824059" data-name="Path 824059" d="M185.317,35.789a3.927,3.927,0,0,1,1.109-.139q4.97.012,9.94,0c.324,0,.751.139.82-.407l4.8,4.738c-.151.309-.364.213-.535.214-3.653.006-7.307,0-10.961.019a1.84,1.84,0,0,1-1.482-.629c-1.2-1.289-2.457-2.534-3.691-3.8" transform="translate(-80.383 -15.287)" fill="#3b2d3c"/>
          <path id="Path_824060" data-name="Path 824060" d="M119.795,36.265c.139-.343.438-.3.72-.3,3.113,0,6.225-.035,9.336.027.676.014,1.344-.041,2.016-.031l4.342,4.517c-.133.112-.351.028-.547.028-3.608.007-7.217,0-10.825.021a1.859,1.859,0,0,1-1.49-.617c-1.163-1.234-2.365-2.431-3.552-3.643" transform="translate(-51.962 -15.595)" fill="#3b2d3c"/>
          <path id="Path_824061" data-name="Path 824061" d="M232.426,35.183l-3.83.029c-.046-.068-.092-.06-.135,0l-.288-.006-.117-.082c-.008-3.689-.01-7.378-.032-11.067,0-.413.142-.52.531-.514,1.01.018,2.02,0,3.03,0a1.154,1.154,0,0,0,.815.007c.387,0,.439.233.438.561q-.019,5.444-.02,10.889l-.393.183" transform="translate(-98.907 -10.212)" fill="#ffd65d"/>
          <path id="Path_824062" data-name="Path 824062" d="M227.97,87.311c-.273-.349,0-.7,0-1.055-.015-3.253.063-6.508-.059-9.756-.034-.908.3-.822.868-.816,1.131.012,2.263.013,3.394-.008.454-.008.609.144.606.613q-.03,5.2-.007,10.395c0,.5-.164.681-.647.632a4.587,4.587,0,0,0-.635.02.09.09,0,0,0-.127,0l-2.717.019-.24,0-.319-.029a.074.074,0,0,0-.115-.019" transform="translate(-98.831 -32.825)" fill="#ffd65d"/>
          <path id="Path_824063" data-name="Path 824063" d="M24.356,23.644c.031,3.823.066,7.647-.025,11.47l-.525.084c-1.2-.007-2.4-.039-3.594-.01-.508.012-.642-.166-.64-.649.018-3.431.032-6.862,0-10.293-.006-.6.215-.742.72-.709a2.756,2.756,0,0,0,1.248,0l1.582,0,1.238.1" transform="translate(-8.488 -10.208)" fill="#ffd65d"/>
          <path id="Path_824064" data-name="Path 824064" d="M19.719,87.3c-.236-.175-.149-.429-.149-.654,0-3.42.006-6.841-.015-10.261,0-.51.118-.729.664-.716,1.179.027,2.36.025,3.538-.01.506-.015.632.16.63.647-.021,3.373-.034,6.747,0,10.119.007.69-.137,1.027-.869.907a.086.086,0,0,0-.128,0l-3.557,0a.081.081,0,0,0-.115-.028" transform="translate(-8.482 -32.817)" fill="#ffd65d"/>
          <path id="Path_824065" data-name="Path 824065" d="M232.848,56.3c0,1.341-.015,2.683.008,4.024.008.5-.137.72-.679.707-1.223-.028-2.448-.014-3.671.009-.36.007-.486-.08-.484-.465q.025-4.236,0-8.472c0-.357.075-.481.468-.471,1.246.032,2.495.039,3.741,0,.516-.015.635.166.626.644-.027,1.341-.01,2.682-.01,4.024h0" transform="translate(-98.906 -22.395)" fill="#e7e4e7"/>
          <path id="Path_824066" data-name="Path 824066" d="M205.679,75.647h.275l.142,0,6.519,0,.062.027.062-.027c1.281.044,1.276.044,1.274,1.365,0,1.576.019,3.151,0,4.727-.006.63-.093,1.259-.127,1.889a.373.373,0,0,1-.177.354c-.17.09-.251-.069-.343-.16q-3.931-3.921-7.858-7.845c0-.1,0-.2,0-.3l.005,0,.16-.024" transform="translate(-89.141 -32.811)" fill="#ffd65d"/>
          <path id="Path_824067" data-name="Path 824067" d="M35.445,37.463c-.147-1.777.155-3.551-.05-5.343-.091-.79.09-1.644-.065-2.471-.022-.118-.072-.3.091-.371.178-.08.305.049.437.153a16.641,16.641,0,0,1,1.4,1.387q3.284,3.32,6.593,6.617c-.095.229-.345.1-.489.212l-7.5.024-.418-.208" transform="translate(-15.314 -12.689)" fill="#ffd65d"/>
          <path id="Path_824068" data-name="Path 824068" d="M213.548,23.531c.33.014.422.195.422.511,0,2.476.008,4.952.018,7.429,0,.2,0,.394-.211.471s-.252-.166-.356-.27q-4-4-7.979-8l.339-.1.123-.076.6.008a.361.361,0,0,0,.4.014l1.3.007a.317.317,0,0,0,.4,0h3.844a2.126,2.126,0,0,0,1.1,0" transform="translate(-89.112 -10.192)" fill="#ffd65d"/>
          <path id="Path_824069" data-name="Path 824069" d="M35.693,89.813c-.22-.182-.144-.433-.144-.66,0-2.285-.011-4.57,0-6.855,0-.275-.208-.684.143-.809.314-.112.512.279.715.485,1.92,1.944,3.819,3.908,5.739,5.852.608.616,1.257,1.19,1.887,1.784l-.091.166-.794.057-.234,0-7.113.011a.077.077,0,0,0-.111-.032" transform="translate(-15.395 -35.338)" fill="#ffd65d"/>
          <path id="Path_824070" data-name="Path 824070" d="M230.429,12.348H228.45c-.21,0-.429.045-.418-.3.029-.917.022-1.835.061-2.752a1.56,1.56,0,0,1,.691-1.117,2.614,2.614,0,0,1,2.78-.313,2.138,2.138,0,0,1,1.286,2.138c.011.749.24,1.7-.127,2.191-.356.472-1.364.1-2.083.15-.07.005-.141,0-.212,0" transform="translate(-98.91 -3.302)" fill="#e7e4e7"/>
          <path id="Path_824071" data-name="Path 824071" d="M21.94,12.373c-.612,0-1.228-.045-1.833.014-.536.051-.631-.161-.6-.629a7.5,7.5,0,0,1,.258-2.842c.46-.973,1.292-1.355,2.653-1.217a2.419,2.419,0,0,1,1.795,1.681,12.846,12.846,0,0,1,.14,2.648c.017.289-.1.356-.369.351-.682-.014-1.364,0-2.046,0" transform="translate(-8.459 -3.327)" fill="#e7e4e7"/>
          <path id="Path_824072" data-name="Path 824072" d="M140.846,23.5c-.32.182-.759-.127-1.032.249-.3-.127-.23-.267.025-.293a2.2,2.2,0,0,1,1.007.044" transform="translate(-60.559 -10.158)" fill="#4c414e"/>
          <path id="Path_824073" data-name="Path 824073" d="M234.358,103.4l-.585,0c.037-.166.1-.336.293-.338s.261.164.292.334" transform="translate(-101.401 -44.705)" fill="#3b2d3c"/>
          <path id="Path_824074" data-name="Path 824074" d="M27.075,23.588l-1.238-.1c.42-.041.848-.2,1.238.1" transform="translate(-11.207 -10.152)" fill="#4c414e"/>
          <path id="Path_824075" data-name="Path 824075" d="M22.088,23.5a2.748,2.748,0,0,1-1.248,0,2.99,2.99,0,0,1,1.248,0" transform="translate(-9.04 -10.162)" fill="#4c414e"/>
          <path id="Path_824076" data-name="Path 824076" d="M94.58,23.5a2.9,2.9,0,0,1-1.245-.006,2.866,2.866,0,0,1,1.245.006" transform="translate(-40.485 -10.16)" fill="#4c414e"/>
          <path id="Path_824077" data-name="Path 824077" d="M218.913,23.5a2.126,2.126,0,0,1-1.1,0,2.214,2.214,0,0,1,1.1,0" transform="translate(-94.477 -10.163)" fill="#4c414e"/>
          <path id="Path_824078" data-name="Path 824078" d="M160.288,23.471a1.621,1.621,0,0,1-.958.012,2.206,2.206,0,0,1,.958-.012" transform="translate(-69.111 -10.161)" fill="#4c414e"/>
          <path id="Path_824079" data-name="Path 824079" d="M19.352,148.186q0,.22,0,.44c-.139-.027-.245-.084-.226-.252.015-.134.118-.164.225-.188" transform="translate(-8.295 -64.277)" fill="#3b2d3c"/>
          <path id="Path_824080" data-name="Path 824080" d="M216.787,68.055c.141-.208.284-.208.43-.005-.141.173-.284.193-.43.005" transform="translate(-94.033 -29.452)" fill="#3b2d3c"/>
          <path id="Path_824081" data-name="Path 824081" d="M236.6,141.628c0-.149,0-.3,0-.447.113.018.21.056.224.191.017.166-.078.234-.225.256" transform="translate(-102.625 -61.238)" fill="#3b2d3c"/>
          <path id="Path_824082" data-name="Path 824082" d="M236.408,104.391c-.232-.076-.1-.277-.143-.417.323.045.373.183.143.417" transform="translate(-102.482 -45.099)" fill="#3b2d3c"/>
          <path id="Path_824083" data-name="Path 824083" d="M19.347,150.69l0,.435c-.336-.146-.324-.292,0-.435" transform="translate(-8.284 -65.363)" fill="#3b2d3c"/>
          <path id="Path_824084" data-name="Path 824084" d="M248.564,167.371l0-.435c.333.148.322.293,0,.435" transform="translate(-107.816 -72.41)" fill="#3b2d3c"/>
          <path id="Path_824085" data-name="Path 824085" d="M35.46,43.752l.418.208c-.17.065-.352.123-.5-.014-.082-.075-.019-.16.083-.194" transform="translate(-15.329 -18.978)" fill="#4c414e"/>
          <path id="Path_824086" data-name="Path 824086" d="M235.129,23.5a1.157,1.157,0,0,1-.815-.006,1.318,1.318,0,0,1,.815.006" transform="translate(-101.635 -10.165)" fill="#4c414e"/>
          <path id="Path_824087" data-name="Path 824087" d="M49.528,43.915c.143-.116.394.017.489-.212.072.327.012.353-.489.212" transform="translate(-21.483 -18.956)" fill="#4c414e"/>
          <path id="Path_824088" data-name="Path 824088" d="M219.326,51.492h-.307c.009-.117.048-.228.184-.2.053.012.083.126.123.194" transform="translate(-95.001 -22.248)" fill="#3b2d3c"/>
          <path id="Path_824089" data-name="Path 824089" d="M74.512,23.5c-.092.1-.285.077-.318.253-.183-.448.141-.258.318-.253" transform="translate(-32.158 -10.172)" fill="#4c414e"/>
          <path id="Path_824090" data-name="Path 824090" d="M19.6,152.166a.33.33,0,0,1,.262.194c-.318.247-.247-.031-.262-.194" transform="translate(-8.502 -66.003)" fill="#4c414e"/>
          <path id="Path_824091" data-name="Path 824091" d="M228.548,152.422c.079-.1.156-.213.277-.044-.06.219-.153.232-.277.044" transform="translate(-99.134 -66.058)" fill="#4c414e"/>
          <path id="Path_824092" data-name="Path 824092" d="M27.051,44.069l.525-.084a.4.4,0,0,1-.525.084" transform="translate(-11.734 -19.079)" fill="#4c414e"/>
          <path id="Path_824093" data-name="Path 824093" d="M235.8,43.959l.393-.183c-.022.3-.189.279-.393.183" transform="translate(-102.279 -18.988)" fill="#4c414e"/>
          <path id="Path_824094" data-name="Path 824094" d="M78.732,23.51a.32.32,0,0,1-.4,0,.434.434,0,0,1,.4,0" transform="translate(-33.976 -10.176)" fill="#4c414e"/>
          <path id="Path_824095" data-name="Path 824095" d="M181.064,44.058a.472.472,0,0,1,.405-.045.269.269,0,0,1-.405.045" transform="translate(-78.538 -19.08)" fill="#4c414e"/>
          <path id="Path_824096" data-name="Path 824096" d="M210.715,23.51a.317.317,0,0,1-.4,0,.438.438,0,0,1,.4,0" transform="translate(-91.224 -10.176)" fill="#4c414e"/>
          <path id="Path_824097" data-name="Path 824097" d="M207.717,23.495a.359.359,0,0,1-.4-.014.466.466,0,0,1,.4.014" transform="translate(-89.927 -10.169)" fill="#4c414e"/>
          <path id="Path_824098" data-name="Path 824098" d="M35.694,67.956l.208.12c-.1.021-.2.019-.208-.12" transform="translate(-15.483 -29.476)" fill="#e7e4e7"/>
          <path id="Path_824099" data-name="Path 824099" d="M48.6,96.241l.234,0c-.078.1-.156.1-.234,0" transform="translate(-21.083 -41.744)" fill="#3b2d3c"/>
          <path id="Path_824100" data-name="Path 824100" d="M228.83,96.306l.24,0c-.079.114-.159.117-.24,0" transform="translate(-99.257 -41.772)" fill="#3b2d3c"/>
          <path id="Path_824101" data-name="Path 824101" d="M205.4,75.695c0,.1,0,.2,0,.3-.173-.1-.225-.206,0-.3" transform="translate(-89.027 -32.833)" fill="#3b2d3c"/>
          <path id="Path_824102" data-name="Path 824102" d="M139.692,75.719l-.025.141c-.061-.024-.176-.057-.173-.07.021-.126.119-.081.2-.071" transform="translate(-60.506 -32.837)" fill="#3b2d3c"/>
          <path id="Path_824103" data-name="Path 824103" d="M142.831,23.557a.17.17,0,0,1-.272.005l.272-.005" transform="translate(-61.836 -10.218)" fill="#4c414e"/>
          <path id="Path_824104" data-name="Path 824104" d="M19.845,96.207a.081.081,0,0,1,.115.028c-.061.079-.093.047-.115-.028" transform="translate(-8.608 -41.725)" fill="#3b2d3c"/>
          <path id="Path_824105" data-name="Path 824105" d="M26.33,96.249a.085.085,0,0,1,.128,0c-.045.076-.087.071-.128,0" transform="translate(-11.421 -41.737)" fill="#3b2d3c"/>
          <path id="Path_824106" data-name="Path 824106" d="M39.785,168.315l.151-.131c.011.114-.033.164-.151.131" transform="translate(-17.257 -72.951)" fill="#4c414e"/>
          <path id="Path_824107" data-name="Path 824107" d="M174.058,96.361c.029-.057.063-.085.113-.021l-.113.021" transform="translate(-75.499 -41.772)" fill="#3b2d3c"/>
          <path id="Path_824108" data-name="Path 824108" d="M228.063,96.209a.074.074,0,0,1,.115.019c-.052.073-.085.041-.115-.019" transform="translate(-98.924 -41.723)" fill="#3b2d3c"/>
          <path id="Path_824109" data-name="Path 824109" d="M234.052,96.248a.09.09,0,0,1,.127,0c-.042.074-.084.078-.127,0" transform="translate(-101.522 -41.737)" fill="#3b2d3c"/>
          <path id="Path_824110" data-name="Path 824110" d="M218.181,75.611l-.062.027-.062-.027c.042-.07.083-.069.124,0" transform="translate(-94.584 -32.774)" fill="#3b2d3c"/>
          <path id="Path_824111" data-name="Path 824111" d="M206.435,75.6l-.143,0c.045-.075.092-.081.143,0" transform="translate(-89.481 -32.769)" fill="#3b2d3c"/>
          <path id="Path_824112" data-name="Path 824112" d="M205.686,75.6l-.16.024c.039-.106.092-.113.16-.024" transform="translate(-89.148 -32.766)" fill="#3b2d3c"/>
          <path id="Path_824113" data-name="Path 824113" d="M141.191,75.616l-.133,0c.046-.07.09-.063.133,0" transform="translate(-61.185 -32.776)" fill="#3b2d3c"/>
          <path id="Path_824114" data-name="Path 824114" d="M220.176,51.66l-.146-.031c.065-.066.113-.054.146.031" transform="translate(-95.44 -22.377)" fill="#3b2d3c"/>
          <path id="Path_824115" data-name="Path 824115" d="M228.795,44.119c.044-.064.088-.071.135,0l-.135,0" transform="translate(-99.242 -19.115)" fill="#4c414e"/>
          <path id="Path_824116" data-name="Path 824116" d="M228.081,44l.117.082c-.086.04-.121.007-.117-.082" transform="translate(-98.932 -19.087)" fill="#4c414e"/>
          <path id="Path_824117" data-name="Path 824117" d="M161.827,44.176l.111,0-.055.028Z" transform="translate(-70.194 -19.161)" fill="#4c414e"/>
          <path id="Path_824118" data-name="Path 824118" d="M115.795,44.035l.127-.027c-.029.076-.07.089-.127.027" transform="translate(-50.227 -19.089)" fill="#4c414e"/>
          <path id="Path_824119" data-name="Path 824119" d="M116.093,43.865a.127.127,0,0,1,0-.12l.084.065-.083.055" transform="translate(-50.349 -18.975)" fill="#4c414e"/>
          <path id="Path_824120" data-name="Path 824120" d="M206.163,23.485l-.123.076c.011-.074.044-.112.123-.076" transform="translate(-89.371 -10.181)" fill="#4c414e"/>
          <path id="Path_824121" data-name="Path 824121" d="M35.847,96.2a.077.077,0,0,1,.111.032c-.063.077-.093.044-.111-.032" transform="translate(-15.549 -41.721)" fill="#3b2d3c"/>
        </g>
      </g>
    </g>
  </g>
</svg>
