<svg xmlns="http://www.w3.org/2000/svg" xmlns:xlink="http://www.w3.org/1999/xlink" width="150" height="150" viewBox="0 0 150 150">
  <defs>
    <clipPath id="clip-path">
      <rect id="Rectangle_378115" data-name="Rectangle 378115" width="150" height="150" transform="translate(303 1185)" fill="none" stroke="#707070" stroke-width="1"/>
    </clipPath>
    <clipPath id="clip-path-2">
      <rect id="Rectangle_378116" data-name="Rectangle 378116" width="139" height="142.568" fill="none"/>
    </clipPath>
  </defs>
  <g id="Mask_Group_412" data-name="Mask Group 412" transform="translate(-303 -1185)" clip-path="url(#clip-path)">
    <g id="Group_1074188" data-name="Group 1074188" transform="translate(308 1189)">
      <g id="Group_1074187" data-name="Group 1074187" clip-path="url(#clip-path-2)">
        <path id="Path_824208" data-name="Path 824208" d="M59.532,14.378a61.074,61.074,0,0,1,7.3-1.56,41.6,41.6,0,0,1,6.742-.656c1.777.061,3.544.3,5.312.478,1.729.174,3.387.687,5.111.832a5.324,5.324,0,0,1,1.068.358c1.342.429,2.659.941,3.989,1.409a12.892,12.892,0,0,1,2.584,1.388c1.4.893,2.783,1.806,4.114,2.793a31.9,31.9,0,0,1,5.443,5.143,50.129,50.129,0,0,1,5.887,9.043c.586,1.119,1.069,2.315,1.553,3.494A55.776,55.776,0,0,1,111.788,47.8a52.468,52.468,0,0,1,1.134,7.835c.02.521.135,1.05.109,1.579a.877.877,0,0,0,.371.7c1.279,1.2,2.622,2.334,3.83,3.6a31.707,31.707,0,0,1,2.422,3.071,41.156,41.156,0,0,1,4.546,7.957,42.934,42.934,0,0,1,1.661,4.842,36.763,36.763,0,0,1,.847,4.18c.273,1.488.313,2.994.463,4.49a18.466,18.466,0,0,1-.171,4c-.108.906-.185,1.818-.286,2.727a32.263,32.263,0,0,1-1.145,5.3,34.357,34.357,0,0,1-3.889,9.044c-.246.387-.024.635.176.829,1.737,1.69,3.293,3.548,4.96,5.3,3.024,3.181,5.993,6.414,8.983,9.626a11.172,11.172,0,0,1,3.151,6.758,11.9,11.9,0,0,1-1.809,7.551,10.983,10.983,0,0,1-7.91,5.233c-4.156.652-7.545-.876-10.371-3.838-2.33-2.441-4.66-4.883-6.927-7.381-1.774-1.955-3.649-3.81-5.449-5.737-.735-.789-1.449-1.607-2.153-2.428a.76.76,0,0,0-1.013-.259,38.064,38.064,0,0,1-5.843,1.86c-1.578.368-3.184.555-4.783.8a33.056,33.056,0,0,1-5.728.239,31.461,31.461,0,0,1-5.326-.736,43.463,43.463,0,0,1-10.278-3.525,22.046,22.046,0,0,1-3.377-1.946,2.133,2.133,0,0,0-1.287-.313q-11.669,0-23.339.006a36.351,36.351,0,0,1-7.461-.866,38.3,38.3,0,0,1-8.966-3.154,37.88,37.88,0,0,1-5.1-3.049,40.508,40.508,0,0,1-9.267-9.28,62.142,62.142,0,0,1-6.008-9.947c-.857-1.765-1.5-3.621-2.188-5.455a70.184,70.184,0,0,1-2.9-10.449c-.415-1.99-.675-4.022-.907-6.052-.206-1.816-.448-3.628-.51-5.451-.069-1.994-.054-3.994,0-5.989.04-1.556.206-3.106.366-4.657.19-1.839.459-3.663.759-5.48.253-1.536.633-3.053,1-4.567a60.462,60.462,0,0,1,2.457-7.517A49.152,49.152,0,0,1,7.9,30.537a38.254,38.254,0,0,1,9.668-11.217,29.865,29.865,0,0,1,6.292-3.872A36.047,36.047,0,0,1,31.8,12.966a36.139,36.139,0,0,1,7.918-.811,45.994,45.994,0,0,1,7.356.768c1.414.285,2.831.609,4.275.785a15.739,15.739,0,0,1,1.9.61c.512.134.72.073.715-.552-.03-3.692,0-7.385-.019-11.077A2.525,2.525,0,0,1,56.089.032a2.706,2.706,0,0,1,3.3,2.128,6.3,6.3,0,0,1,.142,1.43q-.01,5.016,0,10.032v.755M70.506,56.855a4.182,4.182,0,0,1-.125-1.578,2.577,2.577,0,0,1,1.53-2.265c2.472-.989,4.825-2.262,7.537-2.693,1.454-.231,2.9-.714,4.384-.927a34.747,34.747,0,0,1,3.64-.312,39.9,39.9,0,0,1,8.436.656,38.22,38.22,0,0,1,9.935,3.242c.363.175.772.637,1.118.345.282-.238.11-.793.036-1.2-.411-2.272-.859-4.535-1.42-6.778a50.323,50.323,0,0,0-2.4-7.031,41.646,41.646,0,0,0-2.39-4.745,35.372,35.372,0,0,0-5.486-7.206,33.067,33.067,0,0,0-5.447-4.287,18.139,18.139,0,0,0-2.873-1.55,30.447,30.447,0,0,0-5.34-1.769,40.5,40.5,0,0,0-5.739-.918,27.154,27.154,0,0,0-5.045.135,38.818,38.818,0,0,0-5.831.782c-.526.139-1.074-.012-1.577.222-1,.465-2.117.566-3.135.974-.43.172-.826.306-.81.974.057,2.39.042,4.784.009,7.175-.008.584.094.8.745.779,1.623-.056,3.251-.023,4.876-.017a2.674,2.674,0,0,1,2.768,2.306c.014,2.028-.939,3.249-2.666,3.257q-8.709.038-17.417,0a3.1,3.1,0,0,1-2.646-3.066,2.931,2.931,0,0,1,2.814-2.5c1.811-.009,3.622,0,5.434,0,.279,0,.54.057.536-.4-.02-2.578-.016-5.155-.009-7.733a.572.572,0,0,0-.52-.629c-.556-.093-1.074-.3-1.609-.447-1.542-.411-3.1-.8-4.664-1.083-1.758-.311-3.542-.45-5.322-.617a31.137,31.137,0,0,0-7.651.265,27.034,27.034,0,0,0-5.861,1.526c-1.1.433-2.165.947-3.243,1.419a19.863,19.863,0,0,0-3.923,2.465A32.952,32.952,0,0,0,14.984,29.9a35.673,35.673,0,0,0-3.615,5.8,40.4,40.4,0,0,0-2.048,4.794,51.736,51.736,0,0,0-1.913,6.352A38.775,38.775,0,0,0,6.6,51.169c-.094.973-.434,2.007-.539,3.007a67.142,67.142,0,0,0-.439,8.692,18.039,18.039,0,0,0,.007,2.155c.227,1.521.289,3.066.41,4.585.129,1.634.387,3.247.6,4.86.231,1.741.754,3.443,1.136,5.165.315,1.42.816,2.783,1.23,4.173a54.49,54.49,0,0,0,2.652,6.76,43.233,43.233,0,0,0,3.111,5.689,41.891,41.891,0,0,0,8.475,9.938,47.541,47.541,0,0,0,4.98,3.421,24.492,24.492,0,0,0,6.126,2.555,29.8,29.8,0,0,0,8.659,1.287c5.736-.032,11.472.008,17.208.014.174,0,.412.094.513-.081.118-.207-.13-.312-.241-.444-.516-.618-1.085-1.2-1.548-1.851a39.23,39.23,0,0,1-4.922-8.263c-.5-1.274-1.087-2.533-1.48-3.844-.3-.995-.5-2.049-.791-3.031a27.469,27.469,0,0,1-.965-5.417A36.083,36.083,0,0,1,50.89,83.4a41.554,41.554,0,0,1,.949-5.422A40.035,40.035,0,0,1,54.4,70.9c.668-1.453,1.719-2.656,4-2a2.515,2.515,0,0,0,.259.23c1.509,1.018,1.574,2.5.846,3.978a30.631,30.631,0,0,0-1.725,4.269,28.449,28.449,0,0,0-1.448,8.145,38.828,38.828,0,0,0,.259,6,39.4,39.4,0,0,0,.653,3.952,34.546,34.546,0,0,0,1.822,5.074,30.93,30.93,0,0,0,6.113,9.275,33.489,33.489,0,0,0,3.835,3.44,38.6,38.6,0,0,0,5.617,3.535,31.212,31.212,0,0,0,4.566,1.808,28.254,28.254,0,0,0,6.586,1.36c1.449.14,2.924-.006,4.384.061a21.721,21.721,0,0,0,4.439-.381,33.344,33.344,0,0,0,5.906-1.708,28.919,28.919,0,0,0,5.464-2.681,30.051,30.051,0,0,0,7.64-6.479,39.062,39.062,0,0,0,3.443-4.729c.636-1.068,1-2.281,1.609-3.349a26.829,26.829,0,0,0,2.15-6.246,29.37,29.37,0,0,0,.719-6.344,27.112,27.112,0,0,0-.533-6.9,33.856,33.856,0,0,0-2.771-8.379,31.065,31.065,0,0,0-4.7-7.027,33.8,33.8,0,0,0-3.8-3.552,29.75,29.75,0,0,0-5.409-3.706A40.542,40.542,0,0,0,98.4,56.077,36.7,36.7,0,0,0,88.8,54.684a27.085,27.085,0,0,0-5.667.5,30.212,30.212,0,0,0-7.509,2.249,11.9,11.9,0,0,1-2.243.923c-1.309.289-2.11-.618-2.872-1.5m62.875,74a6.42,6.42,0,0,0-.143-1.72,7.734,7.734,0,0,0-2-3.114q-6.284-6.707-12.551-13.429c-.4-.426-.674-.492-1.027-.012-.1.13-.215.244-.323.365a35.321,35.321,0,0,1-7.711,6.565c-.591.368-.558.544-.132.994,2.693,2.851,5.359,5.727,8.041,8.59,1.872,2,3.719,4.023,5.639,5.974a5.9,5.9,0,0,0,8.336.384,5.73,5.73,0,0,0,1.873-4.6" transform="translate(0 0)" fill="#060607"/>
        <path id="Path_824209" data-name="Path 824209" d="M62.833,83.011c-2.28-.657-3.33.547-4,2a40.028,40.028,0,0,0-2.563,7.081,41.573,41.573,0,0,0-.95,5.422,36.088,36.088,0,0,0-.109,7.135,27.477,27.477,0,0,0,.965,5.417c.289.982.493,2.036.79,3.031.393,1.311.983,2.569,1.48,3.843a39.258,39.258,0,0,0,4.922,8.264c.463.654,1.032,1.233,1.548,1.85.11.133.36.238.241.445-.1.176-.339.081-.513.081-5.736-.006-11.472-.046-17.207-.014a29.8,29.8,0,0,1-8.66-1.288,24.455,24.455,0,0,1-6.125-2.555,47.25,47.25,0,0,1-4.979-3.421,41.865,41.865,0,0,1-8.476-9.937,43.272,43.272,0,0,1-3.111-5.689,54.607,54.607,0,0,1-2.651-6.76c-.415-1.39-.916-2.753-1.231-4.173-.382-1.722-.905-3.424-1.136-5.165-.214-1.613-.472-3.226-.6-4.86-.12-1.52-.182-3.064-.409-4.585a17.931,17.931,0,0,1-.008-2.156,67.035,67.035,0,0,1,.44-8.691c.1-1,.445-2.034.539-3.008a39.047,39.047,0,0,1,.812-4.323A51.933,51.933,0,0,1,13.752,54.6,40.27,40.27,0,0,1,15.8,49.809a35.726,35.726,0,0,1,3.615-5.8,32.936,32.936,0,0,1,6.177-6.274,19.879,19.879,0,0,1,3.923-2.465c1.078-.472,2.141-.986,3.243-1.419a27.025,27.025,0,0,1,5.862-1.526,31.126,31.126,0,0,1,7.65-.265c1.781.167,3.564.306,5.322.617,1.57.278,3.123.671,4.665,1.083.536.143,1.054.355,1.609.447a.572.572,0,0,1,.519.629c-.005,2.578-.01,5.155.01,7.733,0,.454-.257.4-.536.4-1.812,0-3.623-.006-5.434,0a2.932,2.932,0,0,0-2.814,2.5,3.1,3.1,0,0,0,2.645,3.066q8.708.026,17.417,0c1.728-.008,2.681-1.23,2.666-3.257a2.673,2.673,0,0,0-2.768-2.306c-1.626-.006-3.252-.039-4.876.017-.65.022-.753-.2-.745-.779.032-2.392.048-4.785-.008-7.175-.016-.668.379-.8.809-.974,1.018-.408,2.134-.51,3.135-.974.5-.234,1.052-.083,1.577-.222a38.836,38.836,0,0,1,5.832-.783,27.147,27.147,0,0,1,5.045-.134,40.4,40.4,0,0,1,5.739.918,30.415,30.415,0,0,1,5.341,1.769,18.168,18.168,0,0,1,2.873,1.55,33.067,33.067,0,0,1,5.447,4.287,35.305,35.305,0,0,1,5.485,7.206,41.753,41.753,0,0,1,2.391,4.745,50.314,50.314,0,0,1,2.4,7.031c.561,2.244,1.01,4.506,1.42,6.779.074.409.246.964-.037,1.2-.346.292-.754-.17-1.117-.345a38.226,38.226,0,0,0-9.935-3.242,39.837,39.837,0,0,0-8.436-.656,34.731,34.731,0,0,0-3.641.312c-1.481.212-2.931.7-4.384.927-2.713.431-5.065,1.7-7.537,2.693a2.576,2.576,0,0,0-1.531,2.264,4.2,4.2,0,0,0,.125,1.578c-.463-.026-.61.427-.918.634a19.587,19.587,0,0,0-3.553,2.735,3.91,3.91,0,0,1-.338-.234,2.593,2.593,0,0,0-3.339-.079,2.545,2.545,0,0,0-.688,3.624.983.983,0,0,1,.238.7,3.572,3.572,0,0,0-.729.9c-.939,1.245-1.854,2.509-2.778,3.765m-43.3-8.851a34.88,34.88,0,0,0,.1,3.547,2.816,2.816,0,0,0,3.5,2.315A2.748,2.748,0,0,0,25.1,77.507c.1-2.228-.059-4.461.127-6.688.059-.709.115-1.419.22-2.122.194-1.311.4-2.622.619-3.926a31.189,31.189,0,0,1,1.2-4.793A25.609,25.609,0,0,1,34.5,48.954a2.817,2.817,0,0,0,.415-3.543,2.889,2.889,0,0,0-3.826-.735,10.835,10.835,0,0,0-1.458,1.26,31.283,31.283,0,0,0-4.2,5.085A29.107,29.107,0,0,0,23.1,55.512a43.089,43.089,0,0,0-3.135,11.493,38.055,38.055,0,0,0-.425,7.154m4.114,16.747a2.778,2.778,0,1,0,.047-5.555,2.91,2.91,0,0,0-2.8,2.731c-.045,1.139,1.357,3.037,2.757,2.824" transform="translate(-4.431 -14.109)" fill="#e86266"/>
        <path id="Path_824210" data-name="Path 824210" d="M110.745,103.622a19.583,19.583,0,0,1,3.552-2.735c.308-.207.455-.66.918-.634.763.88,1.563,1.788,2.873,1.5a11.9,11.9,0,0,0,2.243-.924,30.211,30.211,0,0,1,7.509-2.249,27.12,27.12,0,0,1,5.667-.5,36.713,36.713,0,0,1,9.608,1.394,40.56,40.56,0,0,1,5.922,2.473,29.8,29.8,0,0,1,5.409,3.706,33.754,33.754,0,0,1,3.8,3.553,31.079,31.079,0,0,1,4.7,7.026,33.856,33.856,0,0,1,2.771,8.379,27.112,27.112,0,0,1,.533,6.9,29.37,29.37,0,0,1-.719,6.344,26.847,26.847,0,0,1-2.15,6.246c-.608,1.069-.973,2.281-1.609,3.349a39.174,39.174,0,0,1-3.444,4.73,30.027,30.027,0,0,1-7.639,6.478,28.938,28.938,0,0,1-5.464,2.681,33.4,33.4,0,0,1-5.906,1.708,21.717,21.717,0,0,1-4.439.382c-1.46-.067-2.935.079-4.384-.061a28.261,28.261,0,0,1-6.586-1.36,31.151,31.151,0,0,1-4.565-1.808,38.577,38.577,0,0,1-5.618-3.535,33.484,33.484,0,0,1-3.835-3.44,30.928,30.928,0,0,1-6.113-9.275,34.589,34.589,0,0,1-1.822-5.074,39.555,39.555,0,0,1-.653-3.951,38.766,38.766,0,0,1-.258-6,28.379,28.379,0,0,1,1.448-8.145,30.392,30.392,0,0,1,1.725-4.269c.728-1.478.662-2.96-.847-3.979a2.635,2.635,0,0,1-.258-.229c.924-1.257,1.84-2.519,2.778-3.765a3.558,3.558,0,0,1,.729-.9,2.639,2.639,0,0,1,.686.269,2.939,2.939,0,0,0,3.344-.457,2.777,2.777,0,0,0,.1-3.824m22.532,2.4a16.97,16.97,0,0,1-2.392.187,33.566,33.566,0,0,0-7.591,2.137,20.421,20.421,0,0,0-5.824,3.735,26.022,26.022,0,0,0-7.176,10.637,24.344,24.344,0,0,0-1.292,6.3,23.768,23.768,0,0,0,.273,5.46,24.334,24.334,0,0,0,2.241,7.1,25.976,25.976,0,0,0,7.163,8.843,22.39,22.39,0,0,0,5.929,3.281,27.122,27.122,0,0,0,5.892,1.526,22.827,22.827,0,0,0,5.555.05,24.062,24.062,0,0,0,6.492-1.546,24.852,24.852,0,0,0,8.075-5.03,23.392,23.392,0,0,0,6.394-10.314,24.688,24.688,0,0,0,1.274-7.378,20.158,20.158,0,0,0-.689-5.881,27.255,27.255,0,0,0-1.541-4.609c-.111-.216-.365-.282-.412-.56a5.056,5.056,0,0,0-.811-1.757,29.776,29.776,0,0,0-2.948-3.971,21.684,21.684,0,0,0-4.981-4.318c-.426-.261-.72-.729-1.218-.832a13.022,13.022,0,0,1-2.252-.925,21.668,21.668,0,0,0-4.9-1.6,43.453,43.453,0,0,0-4.822-.539.506.506,0,0,0-.444.007" transform="translate(-44.71 -43.397)" fill="#fff"/>
        <path id="Path_824211" data-name="Path 824211" d="M220.05,219.961a5.735,5.735,0,0,1-1.875,4.6,5.9,5.9,0,0,1-8.335-.384c-1.92-1.952-3.767-3.976-5.639-5.974-2.681-2.863-5.348-5.739-8.041-8.59-.425-.45-.46-.626.132-.994A35.306,35.306,0,0,0,204,202.05c.108-.121.227-.235.323-.365.353-.479.632-.413,1.027.012q6.258,6.731,12.551,13.429a7.735,7.735,0,0,1,2,3.114,6.49,6.49,0,0,1,.144,1.72" transform="translate(-86.668 -89.105)" fill="#61c0de"/>
        <path id="Path_824212" data-name="Path 824212" d="M27.074,83.962a38.055,38.055,0,0,1,.425-7.154,43.083,43.083,0,0,1,3.135-11.493,29.179,29.179,0,0,1,2.339-4.491,31.287,31.287,0,0,1,4.2-5.085,10.8,10.8,0,0,1,1.458-1.26,2.888,2.888,0,0,1,3.825.735,2.816,2.816,0,0,1-.415,3.542,25.61,25.61,0,0,0-7.232,11.025,31.255,31.255,0,0,0-1.2,4.793c-.221,1.3-.425,2.615-.619,3.926-.1.7-.16,1.413-.22,2.122-.186,2.227-.024,4.46-.127,6.688a2.746,2.746,0,0,1-1.959,2.514,2.816,2.816,0,0,1-3.5-2.315,34.884,34.884,0,0,1-.1-3.547" transform="translate(-11.967 -23.912)" fill="#060607"/>
        <path id="Path_824213" data-name="Path 824213" d="M32.289,133.35c-1.4.213-2.8-1.685-2.757-2.824a2.91,2.91,0,0,1,2.8-2.731,2.778,2.778,0,1,1-.047,5.555" transform="translate(-13.069 -56.553)" fill="#060607"/>
        <path id="Path_824214" data-name="Path 824214" d="M114.611,107.333a2.777,2.777,0,0,1-.1,3.824,2.938,2.938,0,0,1-3.344.457,2.651,2.651,0,0,0-.686-.269.984.984,0,0,0-.238-.7,2.544,2.544,0,0,1,.688-3.624,2.592,2.592,0,0,1,3.339.078,3.673,3.673,0,0,0,.338.234" transform="translate(-48.576 -47.108)" fill="#060607"/>
        <path id="Path_824215" data-name="Path 824215" d="M140,112.322a43.467,43.467,0,0,1,4.822.539,21.654,21.654,0,0,1,4.9,1.6,13.1,13.1,0,0,0,2.252.925c.5.1.793.57,1.219.832a21.682,21.682,0,0,1,4.981,4.318,29.849,29.849,0,0,1,2.947,3.971,5.065,5.065,0,0,1,.812,1.758c.047.278.3.344.411.56a27.269,27.269,0,0,1,1.542,4.609,20.164,20.164,0,0,1,.689,5.881,24.705,24.705,0,0,1-1.274,7.378,23.388,23.388,0,0,1-6.395,10.314,24.85,24.85,0,0,1-8.074,5.03,24.063,24.063,0,0,1-6.492,1.546,22.833,22.833,0,0,1-5.556-.05,27.117,27.117,0,0,1-5.891-1.526,22.4,22.4,0,0,1-5.93-3.281,25.981,25.981,0,0,1-7.163-8.843,24.335,24.335,0,0,1-2.241-7.1,23.77,23.77,0,0,1-.273-5.46,24.367,24.367,0,0,1,1.292-6.3,26.029,26.029,0,0,1,7.176-10.637,20.421,20.421,0,0,1,5.824-3.735,33.528,33.528,0,0,1,7.591-2.137,16.942,16.942,0,0,0,2.391-.187c-.041.164.063.192.185.183s.291.033.26-.19m.316,43.8a19.066,19.066,0,0,0,18.642-20.544c-.595-9.022-7.418-16.852-18-17.541-11.119-.724-19.643,7.8-20.093,18.358a19.1,19.1,0,0,0,19.453,19.727" transform="translate(-50.993 -49.706)" fill="#060607"/>
        <path id="Path_824216" data-name="Path 824216" d="M159.31,112.285c.03.224-.14.181-.261.19s-.226-.019-.185-.183a.508.508,0,0,1,.445-.007" transform="translate(-70.299 -49.669)" fill="#e86266"/>
        <path id="Path_824217" data-name="Path 824217" d="M144.781,160.625A19.1,19.1,0,0,1,125.328,140.9c.449-10.554,8.974-19.082,20.093-18.358,10.585.689,17.408,8.519,18,17.541a19.066,19.066,0,0,1-18.642,20.544" transform="translate(-55.454 -54.209)" fill="#c4e5ef"/>
      </g>
    </g>
  </g>
</svg>
