<svg xmlns="http://www.w3.org/2000/svg" xmlns:xlink="http://www.w3.org/1999/xlink" width="150" height="150" viewBox="0 0 150 150">
  <defs>
    <clipPath id="clip-path">
      <rect id="Rectangle_378120" data-name="Rectangle 378120" width="150" height="150" transform="translate(303 1185)" fill="none" stroke="#707070" stroke-width="1"/>
    </clipPath>
    <clipPath id="clip-path-2">
      <rect id="Rectangle_378127" data-name="Rectangle 378127" width="131.474" height="131.804" fill="none"/>
    </clipPath>
  </defs>
  <g id="Mask_Group_413" data-name="Mask Group 413" transform="translate(-303 -1185)" clip-path="url(#clip-path)">
    <g id="Group_1074191" data-name="Group 1074191" transform="translate(309 1176)">
      <g id="Group_1074199" data-name="Group 1074199" transform="translate(3 18)">
        <g id="Group_1074198" data-name="Group 1074198" clip-path="url(#clip-path-2)">
          <path id="Path_824352" data-name="Path 824352" d="M91.283,137.554c.194.231.1.463.016.7a28.757,28.757,0,0,1-1.7,4.22,2.212,2.212,0,0,0-2.189.377,5.389,5.389,0,0,0-1.078,1.491,49.058,49.058,0,0,1-7.234,9.737,42.171,42.171,0,0,1-15.32,9.909,43.174,43.174,0,0,1-10.514,2.248,35.665,35.665,0,0,1-6.483.034,49.82,49.82,0,0,1-7.749-1.23,39.646,39.646,0,0,1-18.268-10.405A41.082,41.082,0,0,1,10.56,138.856a42.237,42.237,0,0,1-2.55-11.651,39.95,39.95,0,0,1,.55-9.29,81.878,81.878,0,0,1,5.7-18.408c1.283-3,2.667-5.956,4.177-8.847a32.321,32.321,0,0,1,2.278-4.127,5.282,5.282,0,0,1-.235,2.2c-.376,1.637-.651,3.3-.959,4.952a36.757,36.757,0,0,0-.569,5.631,44.037,44.037,0,0,0,.242,5.876,43.024,43.024,0,0,0,1.35,6.955,45.52,45.52,0,0,0,3.46,8.915,41.291,41.291,0,0,0,6.025,8.677,42.479,42.479,0,0,0,8.452,7.316,48.533,48.533,0,0,0,8.985,4.579,52.243,52.243,0,0,0,9.992,2.546,22.309,22.309,0,0,0,4.43.272c2.252-.07,4.492-.211,6.729-.45a26.553,26.553,0,0,0,5.979-1.258c.5-.174,1.151-.1,1.477-.676a4.5,4.5,0,0,1,.459-.118,52.111,52.111,0,0,0,9.839-2.391c1.668-.6,3.222-1.456,4.906-2m-43.026,24.44c.388,0,.777.015,1.164,0a2.449,2.449,0,0,0,1.245-.276,2.242,2.242,0,0,0,.981-2.562,2.3,2.3,0,0,0-2.214-1.541,31.375,31.375,0,0,1-3.541-.273,30.5,30.5,0,0,1-12.026-3.788,38.281,38.281,0,0,1-6.29-4.576,32.014,32.014,0,0,1-6.755-8.557,34.578,34.578,0,0,1-3.548-9.9A29.177,29.177,0,0,1,16.74,125a2.23,2.23,0,0,0-2.036-2.459,2.35,2.35,0,0,0-2.34,2.334,35.179,35.179,0,0,0,.636,6.4A35.607,35.607,0,0,0,16.756,142.1a37.358,37.358,0,0,0,7.166,9.466,39.119,39.119,0,0,0,9.566,6.735,14.748,14.748,0,0,0,1.424.785c1.388.509,2.792.977,4.2,1.42a35.161,35.161,0,0,0,9.143,1.491" transform="translate(-3.575 -38.973)" fill="#db1545"/>
          <path id="Path_824353" data-name="Path 824353" d="M104,98.581c-1.683.546-3.238,1.4-4.906,2a52.11,52.11,0,0,1-9.839,2.391,4.5,4.5,0,0,0-.459.118c-.592-.045-1.157.162-1.754.157a76.213,76.213,0,0,1-8.517-.287q-2-.411-4-.821A40.091,40.091,0,0,1,59.95,95.8,44.189,44.189,0,0,1,49.287,85.65a43.189,43.189,0,0,1-7.281-14.857,45.679,45.679,0,0,1-1.573-9.978,42.625,42.625,0,0,1,1.141-11.452c.314-1.332.721-2.644,1.137-3.948a24.637,24.637,0,0,1,1.237-3.4c.632-1.289,1.206-2.6,1.834-3.9l0,.005a.279.279,0,0,0,.141-.285c.759-1.138,1.5-2.29,2.28-3.411A43.561,43.561,0,0,1,59.238,23.308,42.876,42.876,0,0,1,70.575,17.63c1-.319,1.052-.415.411-1.262q-3.762-4.972-7.706-9.8c-.957-1.17-.926-1.155-1.876.023-3.512,4.354-6.95,8.763-10.259,13.276q-5.612,7.658-10.714,15.661A2.474,2.474,0,0,1,37.7,36.87l-.369-.163a2.219,2.219,0,0,1-.678-3.313c1.677-2.569,3.337-5.151,5.077-7.678q2.735-3.974,5.587-7.867c1.73-2.363,3.512-4.683,5.278-7.017,1.809-2.39,3.674-4.732,5.57-7.053C58.983,2.773,59.847,1.8,60.65.773A2.165,2.165,0,0,1,63.94.743c.685.734,1.315,1.522,1.952,2.3,3.39,4.137,6.71,8.329,9.876,12.642a.917.917,0,0,0,1.039.388,30.86,30.86,0,0,1,4-.5c1.009-.02,2.017-.268,3.021-.242a50.108,50.108,0,0,1,9.33,1.039,44.241,44.241,0,0,1,11.525,4.164,40.956,40.956,0,0,1,3.737,2.277,29.262,29.262,0,0,1,3.467,2.49,2.263,2.263,0,0,1,.431,2.506,2.477,2.477,0,0,1-2.18,1.12,3.03,3.03,0,0,1-1.557-.844,46.115,46.115,0,0,0-4.34-2.813,35.848,35.848,0,0,0-6.424-3.141,46.779,46.779,0,0,0-6.592-1.736,33.906,33.906,0,0,0-3.6-.422,29.506,29.506,0,0,0-4.669-.245A39.159,39.159,0,0,0,68.9,22.8a35.562,35.562,0,0,0-6.564,3.612,2.344,2.344,0,0,0-.357.187,48.734,48.734,0,0,0-8.011,7.456,48.2,48.2,0,0,0-6.318,10.4,22.842,22.842,0,0,0-1.253,3.357,40.665,40.665,0,0,0-1.009,4.569,22.552,22.552,0,0,0-.564,4.591c.063,1.912-.065,3.822.117,5.741a45.963,45.963,0,0,0,.823,4.953,47.86,47.86,0,0,0,1.9,6.5,30.207,30.207,0,0,0,3.478,6.493A39.926,39.926,0,0,0,78.29,98.339c1.4.231,2.807.38,4.208.473a34.818,34.818,0,0,0,6.863-.365,38.193,38.193,0,0,0,15.233-5.371,39.279,39.279,0,0,0,14.761-15.659,39.858,39.858,0,0,0,3.816-11.963,27.19,27.19,0,0,0,.506-4.54c.014-.549.037-1.1.04-1.647a42.228,42.228,0,0,0-.791-7.942,37.7,37.7,0,0,0-5.537-13.638c-.762-1.185-1.666-2.277-2.46-3.442a2.033,2.033,0,0,1,.3-2.787,2.2,2.2,0,0,1,3.052.222,48.258,48.258,0,0,1,4.622,7,43.571,43.571,0,0,1,2.929,7.039,34.9,34.9,0,0,1,1.606,6.888,36.5,36.5,0,0,1,.534,4.583c.008,1.136.192,2.309.112,3.453a57.035,57.035,0,0,1-.877,7.089,44.282,44.282,0,0,1-4.321,12.122,35.715,35.715,0,0,1-1.817,3.1.681.681,0,0,0,.079,1q5.994,6.028,12,12.044c4.079,4.089,8.212,8.126,12.225,12.277a8.7,8.7,0,0,1-4,14.37,8.136,8.136,0,0,1-8.017-1.9c-1.3-1.146-2.484-2.428-3.71-3.658q-9.756-9.786-19.51-19.574c-.416-.418-.873-.8-1.29-1.211a.679.679,0,0,0-1.073-.06c-1.18.9-2.584,1.44-3.764,2.341m39.285,15.646a4.162,4.162,0,0,0-1.37-3.42c-.708-.733-1.428-1.455-2.148-2.176q-4.8-4.806-9.594-9.607c-2.957-2.958-5.926-5.9-8.867-8.876-.656-.664-1.272-1.368-1.975-1.986-.163-.347-.524-.5-.754-.778-.31-.375-.53-.29-.8.047a38.05,38.05,0,0,1-5.4,5.423c-.374.312-.375.52-.025.868,2.914,2.9,5.795,5.833,8.713,8.727,4.9,4.856,9.656,9.851,14.685,14.574a4.853,4.853,0,0,0,2.482,1.438,4.2,4.2,0,0,0,5.054-4.234" transform="translate(-16.294 0)" fill="#040405"/>
          <path id="Path_824354" data-name="Path 824354" d="M73.55,51.249a35.933,35.933,0,0,1,6.441-3.984,35.524,35.524,0,0,1,8.468-2.69,39.559,39.559,0,0,1,5.383-.56,32.131,32.131,0,0,1,15.59,3.139,32.818,32.818,0,0,1,8.943,5.925,39.356,39.356,0,0,1,5.832,6.866,34.672,34.672,0,0,1,4.872,11.529,42.5,42.5,0,0,1,.812,5.719c.158,1.88-.117,3.721-.122,5.58a42.524,42.524,0,0,1-.956,5.042q-5.364,18.774-23.86,24.888a29.86,29.86,0,0,1-8.554,1.55,46.533,46.533,0,0,1-8.068-.611c-.641-.095-1.292-.164-1.926-.3-1-.22-1.888-.745-2.87-1.041a29.142,29.142,0,0,1-5.285-2.355,32.52,32.52,0,0,1-4.118-2.651c-1.337-1-1.564-1.823-.865-3.343a2.091,2.091,0,0,1,3.141-.268,31.132,31.132,0,0,0,2.755,1.747,29.513,29.513,0,0,0,9.029,3.6,38.447,38.447,0,0,0,6.285.783,30.567,30.567,0,0,0,6.367-.646c10.775-2,20.682-10.764,23.523-21.8a26.7,26.7,0,0,0,1.067-5.9,17.336,17.336,0,0,0,.056-3.735c-.187-1.011-.252-2.054-.361-3.082a16.7,16.7,0,0,0-.743-4.161c-.409-1.092-.778-2.2-1.237-3.277a30.133,30.133,0,0,0-5.606-8.954,31.542,31.542,0,0,0-9.136-6.66,26.633,26.633,0,0,0-7.055-2.474,9.332,9.332,0,0,0-2.01-.46,22.478,22.478,0,0,1-2.269-.17,18.7,18.7,0,0,0-2.635-.145c-.712.07-1.441.148-2.148.2a29.535,29.535,0,0,0-4.429.667,32.382,32.382,0,0,0-11.957,5.7c-3.356,2.435-5.673,5.776-7.785,9.263a18.5,18.5,0,0,0-1.913,4.44c-.3,1.017-.709,2.044-.974,3.079a29.008,29.008,0,0,0-.871,9.914,31.69,31.69,0,0,0,3.282,11.316,46.355,46.355,0,0,0,2.687,4.46,2.5,2.5,0,0,1-.112,3.371c-1.65.7-2.4.543-3.383-.782a35.642,35.642,0,0,1-6.976-19.364,33.792,33.792,0,0,1,.555-7.743,34.382,34.382,0,0,1,3.022-9.173,31,31,0,0,1,2.861-4.7,36.116,36.116,0,0,1,2.348-3.073,42.31,42.31,0,0,1,4.9-4.67" transform="translate(-26.938 -19.801)" fill="#040405"/>
          <path id="Path_824355" data-name="Path 824355" d="M17.144,80.515a32.359,32.359,0,0,0-2.278,4.127c-1.51,2.892-2.894,5.846-4.177,8.847a81.9,81.9,0,0,0-5.7,18.408,39.948,39.948,0,0,0-.55,9.29,42.233,42.233,0,0,0,2.55,11.651A41.075,41.075,0,0,0,17.194,148.62a39.654,39.654,0,0,0,18.268,10.405,49.887,49.887,0,0,0,7.749,1.23,35.717,35.717,0,0,0,6.483-.034,43.176,43.176,0,0,0,10.514-2.248,42.16,42.16,0,0,0,15.32-9.909,49.047,49.047,0,0,0,7.234-9.737,5.381,5.381,0,0,1,1.078-1.491,2.211,2.211,0,0,1,2.189-.378c1.836,1.812,1.4,2.248.408,4.108a44.473,44.473,0,0,1-2.884,4.661,47.923,47.923,0,0,1-7.6,8.422c-.324.285-.9.353-.918,1,0,.107-.631.248-.955.5a45.03,45.03,0,0,1-12.3,6.8,47.681,47.681,0,0,1-8.832,2.26c-1.383.221-2.776.325-4.17.445a32.286,32.286,0,0,1-3.331.1,46.213,46.213,0,0,1-25.783-8.439c-1.3-.913-2.517-1.938-3.749-2.942a33.878,33.878,0,0,1-3.712-3.591A47.16,47.16,0,0,1,.883,127.391a48.41,48.41,0,0,1-.748-5.9,36.935,36.935,0,0,1-.059-5.473,28.093,28.093,0,0,1,.5-4.083c.29-1.31.413-2.657.7-3.967a77.419,77.419,0,0,1,2.9-10c1-2.727,2.089-5.43,3.324-8.072.88-1.884,1.717-3.792,2.64-5.653,1.273-2.565,2.686-5.06,4.05-7.579.446-.823.905-1.641,1.4-2.435a1.877,1.877,0,0,1,2.391-.973,4.6,4.6,0,0,0,.545.046,6.953,6.953,0,0,1,.932,1.084,4.17,4.17,0,0,1-.584,2.868c-.635,1.049-1.16,2.165-1.733,3.253" transform="translate(0 -32.956)" fill="#040405"/>
          <path id="Path_824356" data-name="Path 824356" d="M34.646,71.518a6.952,6.952,0,0,0-.932-1.084A17.285,17.285,0,0,0,35.25,67.88a4,4,0,0,1,.967-1.094l.369.163c.054.445-.429.556-.554.936-.405,1.23-.916,2.425-1.386,3.634" transform="translate(-15.184 -30.079)" fill="#db1545"/>
          <path id="Path_824357" data-name="Path 824357" d="M32.052,46.108c.47-1.209.981-2.4,1.386-3.634.125-.38.608-.491.554-.936A2.474,2.474,0,0,0,36.727,40.2q5.106-8,10.715-15.661c3.308-4.513,6.747-8.922,10.258-13.276.95-1.178.919-1.193,1.876-.023q3.947,4.826,7.706,9.8c.641.848.594.944-.411,1.262a42.884,42.884,0,0,0-11.337,5.678A43.561,43.561,0,0,0,44.494,39.1c-.783,1.121-1.521,2.273-2.28,3.411a.289.289,0,0,0-.141.285l0-.005c-.264-.006-.4.193-.56.352a11.4,11.4,0,0,0-1.757,2.676A39.771,39.771,0,0,0,36.9,52.391a30.807,30.807,0,0,0-1.336,4.579c-.23,1.361-.509,2.719-.66,4.1a39.879,39.879,0,0,0-.245,7.9,46.065,46.065,0,0,0,1.336,8.059,41.8,41.8,0,0,0,3.4,8.482,39.706,39.706,0,0,0,5.772,8.358,41.074,41.074,0,0,0,7.933,6.965,47.966,47.966,0,0,0,10.192,5.012,38.007,38.007,0,0,0,6.274,1.49,22.078,22.078,0,0,0,3.749.58c.542,0,.968-.424,1.513-.294a76.218,76.218,0,0,0,8.517.287c.6,0,1.162-.2,1.754-.157-.325.578-.979.5-1.476.677a26.556,26.556,0,0,1-5.98,1.258c-2.237.239-4.477.379-6.729.45a22.269,22.269,0,0,1-4.431-.272,52.2,52.2,0,0,1-9.991-2.546,48.517,48.517,0,0,1-8.985-4.579,42.5,42.5,0,0,1-8.453-7.315,41.306,41.306,0,0,1-6.024-8.678,45.488,45.488,0,0,1-3.46-8.915,42.963,42.963,0,0,1-1.35-6.955,43.942,43.942,0,0,1-.242-5.876,36.7,36.7,0,0,1,.568-5.631c.308-1.653.583-3.314.959-4.952a5.272,5.272,0,0,0,.235-2.2c.573-1.087,1.1-2.2,1.734-3.253a4.168,4.168,0,0,0,.584-2.867" transform="translate(-12.591 -4.669)" fill="#e03a61"/>
          <path id="Path_824358" data-name="Path 824358" d="M51.882,191.5a35.162,35.162,0,0,1-9.143-1.491c-1.41-.442-2.815-.911-4.2-1.42a14.748,14.748,0,0,1-1.424-.785,39.119,39.119,0,0,1-9.565-6.735,37.358,37.358,0,0,1-7.166-9.466,35.606,35.606,0,0,1-3.757-10.815,35.18,35.18,0,0,1-.636-6.4,2.35,2.35,0,0,1,2.34-2.334,2.23,2.23,0,0,1,2.036,2.459,29.177,29.177,0,0,0,.533,5.515,34.578,34.578,0,0,0,3.548,9.9,32.014,32.014,0,0,0,6.755,8.557,38.28,38.28,0,0,0,6.29,4.576,30.5,30.5,0,0,0,12.026,3.788,31.368,31.368,0,0,0,3.541.273,2.3,2.3,0,0,1,2.214,1.541,2.242,2.242,0,0,1-.981,2.562,2.449,2.449,0,0,1-1.245.276c-.387.02-.776,0-1.164,0" transform="translate(-7.2 -68.478)" fill="#040405"/>
          <path id="Path_824359" data-name="Path 824359" d="M205.5,185.634a4.2,4.2,0,0,1-5.054,4.234,4.853,4.853,0,0,1-2.482-1.438c-5.029-4.722-9.788-9.717-14.685-14.574-2.918-2.894-5.8-5.827-8.713-8.727-.35-.348-.349-.557.025-.868a38.05,38.05,0,0,0,5.4-5.423c.269-.337.489-.422.8-.047.23.277.591.431.754.778-.014.387-.407.518-.549.839a8.636,8.636,0,0,1-1.759,2.582c-.477.484-.425.753.029,1.206q9.694,9.684,19.362,19.4a6.552,6.552,0,0,0,5.655,1.884,1.886,1.886,0,0,1,1.217.159" transform="translate(-78.503 -71.406)" fill="#8fafc2"/>
          <path id="Path_824360" data-name="Path 824360" d="M80.228,134.2c-.544-.13-.971.292-1.513.294a22.077,22.077,0,0,1-3.749-.58,38.063,38.063,0,0,1-6.274-1.489A48,48,0,0,1,58.5,127.411a41.074,41.074,0,0,1-7.933-6.965,39.707,39.707,0,0,1-5.772-8.358,41.8,41.8,0,0,1-3.4-8.482,46.064,46.064,0,0,1-1.336-8.059,39.879,39.879,0,0,1,.245-7.9c.15-1.384.43-2.743.66-4.1A30.743,30.743,0,0,1,42.3,78.959a39.721,39.721,0,0,1,2.861-6.575,11.4,11.4,0,0,1,1.757-2.676c.158-.159.3-.358.561-.352-.627,1.291-1.2,2.606-1.834,3.9a24.763,24.763,0,0,0-1.237,3.4c-.416,1.3-.822,2.616-1.136,3.948A42.6,42.6,0,0,0,42.136,92.05a45.646,45.646,0,0,0,1.573,9.978,43.178,43.178,0,0,0,7.28,14.857,44.19,44.19,0,0,0,10.663,10.149,40.091,40.091,0,0,0,14.573,6.343q2,.408,4,.821" transform="translate(-17.996 -31.237)" fill="#db1545"/>
          <path id="Path_824361" data-name="Path 824361" d="M209.261,186.473a1.886,1.886,0,0,0-1.217-.159,6.552,6.552,0,0,1-5.655-1.884q-9.69-9.689-19.362-19.4c-.454-.453-.506-.723-.029-1.206a8.637,8.637,0,0,0,1.759-2.582c.141-.321.534-.452.549-.839.7.618,1.319,1.322,1.975,1.986,2.941,2.973,5.911,5.918,8.867,8.876q4.8,4.8,9.594,9.607c.72.721,1.439,1.443,2.148,2.176a4.162,4.162,0,0,1,1.37,3.42" transform="translate(-82.269 -72.245)" fill="#c6cfd0"/>
          <path id="Path_824362" data-name="Path 824362" d="M53.642,69.133a.288.288,0,0,1,.141-.285.279.279,0,0,1-.141.285" transform="translate(-24.16 -31.008)" fill="#db1545"/>
          <path id="Path_824363" data-name="Path 824363" d="M76.908,107.517l-3.049-3.192a2.5,2.5,0,0,0,.112-3.37,46.371,46.371,0,0,1-2.688-4.461A31.69,31.69,0,0,1,68,85.179a29.011,29.011,0,0,1,.872-9.914c.265-1.035.677-2.062.974-3.079a18.487,18.487,0,0,1,1.913-4.44c2.113-3.487,4.429-6.828,7.785-9.262a32.377,32.377,0,0,1,11.957-5.7,29.483,29.483,0,0,1,4.429-.667c.707-.049,1.436-.127,2.148-.2a18.783,18.783,0,0,1,2.635.145,22.476,22.476,0,0,0,2.269.17,9.344,9.344,0,0,1,2.01.46,26.636,26.636,0,0,1,7.055,2.474,31.535,31.535,0,0,1,9.136,6.66,30.146,30.146,0,0,1,5.607,8.954c.458,1.079.827,2.185,1.237,3.277a16.668,16.668,0,0,1,.742,4.161c.109,1.028.173,2.071.361,3.082a17.337,17.337,0,0,1-.057,3.735,26.666,26.666,0,0,1-1.066,5.9c-2.842,11.035-12.748,19.8-23.524,21.8a30.527,30.527,0,0,1-6.367.646,38.454,38.454,0,0,1-6.285-.783A29.514,29.514,0,0,1,82.8,109a30.907,30.907,0,0,1-2.754-1.747,2.091,2.091,0,0,0-3.141.268m28.774-33.506c-.31-.567-.624-1.131-.928-1.7a18.6,18.6,0,0,0-6.378-7.059,21.412,21.412,0,0,0-4-2.111,22.293,22.293,0,0,0-5.521-1.19,12.725,12.725,0,0,0-5.236.754,13.4,13.4,0,0,0-7.789,6.388,13.9,13.9,0,0,0-1.8,6.869,17.881,17.881,0,0,0,1.988,8.25,1.885,1.885,0,0,1,.311,1.6,13.473,13.473,0,0,0,.321,9.262,20.128,20.128,0,0,0,14.7,12.254,16.5,16.5,0,0,0,4.155.213,14.708,14.708,0,0,0,9.413-3.71,4.131,4.131,0,0,1,3.3-1.418,5.057,5.057,0,0,0,1.545-.247c5.775-1.339,10.251-4.36,12.617-10a13.276,13.276,0,0,0-.643-11.367,13.439,13.439,0,0,0-3.9-4.725,16.949,16.949,0,0,0-5.232-2.963,2.068,2.068,0,0,0-2.843,1.439c-.5-.146-1.013-.223-1.518-.333a23.176,23.176,0,0,1-2.555-.212" transform="translate(-30.576 -23.373)" fill="#8fafc2"/>
          <path id="Path_824364" data-name="Path 824364" d="M114.78,82.756a2.069,2.069,0,0,1,2.844-1.439,16.962,16.962,0,0,1,5.232,2.963,13.438,13.438,0,0,1,3.9,4.725,13.274,13.274,0,0,1,.644,11.367c-2.366,5.638-6.842,8.659-12.618,10a5.054,5.054,0,0,1-1.545.247,4.131,4.131,0,0,0-3.3,1.418,14.706,14.706,0,0,1-9.413,3.71,16.488,16.488,0,0,1-4.153-.213,20.129,20.129,0,0,1-14.7-12.254,13.479,13.479,0,0,1-.321-9.262,1.881,1.881,0,0,0-.311-1.6,17.881,17.881,0,0,1-1.989-8.25,13.9,13.9,0,0,1,1.8-6.869,13.392,13.392,0,0,1,7.789-6.388,12.728,12.728,0,0,1,5.236-.754,22.306,22.306,0,0,1,5.523,1.19,21.421,21.421,0,0,1,4,2.111,18.6,18.6,0,0,1,6.378,7.059c.3.569.619,1.133.928,1.7.274,1.026.568,2.046.817,3.077a26.567,26.567,0,0,1,.28,5.97,2.728,2.728,0,0,0-.132.385,12.535,12.535,0,0,1-2.043,5.231c-.288.4-.106.58.3.642a7.28,7.28,0,0,0,2.911-.162c1.053-.268,2.077-.682,2.379-1.9a3.2,3.2,0,0,1,1.527-2.082c1.864-.237,2.829.632,2.754,2.456a9.632,9.632,0,0,1-.286,1.6,7.427,7.427,0,0,1-2.387,2.772,11.111,11.111,0,0,1-10.322.977,1.88,1.88,0,0,0-1.746.144,11.486,11.486,0,0,1-2.765,1.16c-.207.057-.512,0-.55.3-.031.245.18.424.361.547a14.263,14.263,0,0,0,11.669,2.865,12.759,12.759,0,0,0,9.146-5.983A5.784,5.784,0,0,0,123.7,97.44a9.825,9.825,0,0,0-1.33-7.428,12.333,12.333,0,0,0-5.8-4.515,2.5,2.5,0,0,1-1.785-2.741M98.556,98.809a9.1,9.1,0,0,0,6.784-3.576c.349-.425.564-1,.871-1.366a4.3,4.3,0,0,0,.816-1.58,13.4,13.4,0,0,0,.412-4.507,12.369,12.369,0,0,0-1.511-5.491A14.769,14.769,0,0,0,97.6,75.34a11.588,11.588,0,0,0-6.571-.573,9.394,9.394,0,0,0-5.981,3.89,10.2,10.2,0,0,0-1.594,5.43,12.5,12.5,0,0,0,2.626,8.188c2.9,3.92,6.578,6.525,12.474,6.534m.951,12.535a14.439,14.439,0,0,0,4.574-.764c.3-.1.675-.268.671-.6,0-.238-.405-.314-.641-.392a17.007,17.007,0,0,1-7.791-5.572c-.315-.381-.613-.847-1.114-.981-1.021-.27-2.034-.549-3.047-.857a15.8,15.8,0,0,1-4.873-2.465c-.627-.467-1.245-.946-1.868-1.419-.11-.085-.246-.179-.361-.06a.419.419,0,0,0-.045.317,14.534,14.534,0,0,0,14.494,12.8" transform="translate(-35.603 -31.573)" fill="#040405"/>
          <path id="Path_824365" data-name="Path 824365" d="M140.723,92.68a2.5,2.5,0,0,0,1.784,2.741,12.332,12.332,0,0,1,5.806,4.515,9.831,9.831,0,0,1,1.33,7.428c-1.5.128-2.99-.212-4.486-.006a9.52,9.52,0,0,0,.286-1.6c.075-1.824-.89-2.694-2.754-2.457-.017-.066-.012-.165-.054-.193a12.321,12.321,0,0,0-2.876-1.625c-.643-.213-1.279-.634-2.012-.3a26.536,26.536,0,0,0-.28-5.97c-.249-1.032-.543-2.052-.817-3.077a23.315,23.315,0,0,0,2.555.212c.5.11,1.019.187,1.518.333" transform="translate(-61.546 -41.496)" fill="#e03a61"/>
          <path id="Path_824366" data-name="Path 824366" d="M102.154,102.433c-5.9-.009-9.577-2.614-12.474-6.534a12.5,12.5,0,0,1-2.626-8.188,10.2,10.2,0,0,1,1.594-5.43,9.39,9.39,0,0,1,5.981-3.889,11.588,11.588,0,0,1,6.571.572,14.775,14.775,0,0,1,8.324,6.949,12.358,12.358,0,0,1,1.51,5.491,13.376,13.376,0,0,1-.411,4.507,4.3,4.3,0,0,1-.816,1.58c-.307.366-.522.942-.871,1.366a9.1,9.1,0,0,1-6.784,3.577m-6.09-15.261.309-.683a2.105,2.105,0,0,0-3.6-2.162A5.61,5.61,0,0,0,91.5,89.256a11.116,11.116,0,0,0,5.9,7.725,8.354,8.354,0,0,0,2.994,1.049,6.06,6.06,0,0,0,3.758-.725,2.807,2.807,0,0,0,1.684-2.1,2.139,2.139,0,0,0-3.037-2.235,1.556,1.556,0,0,1-.51-.157,8.8,8.8,0,0,1-2.136-1.668,21.313,21.313,0,0,1-4.086-3.976" transform="translate(-39.202 -35.197)" fill="#e03a61"/>
          <path id="Path_824367" data-name="Path 824367" d="M104.384,134.348a14.534,14.534,0,0,1-14.494-12.8.419.419,0,0,1,.045-.317c.115-.119.251-.025.361.06.623.473,1.241.952,1.868,1.419a15.8,15.8,0,0,0,4.873,2.465c1.012.308,2.026.586,3.047.857.5.133.8.6,1.114.981a17.007,17.007,0,0,0,7.791,5.572c.236.078.638.154.641.392,0,.335-.374.506-.671.6a14.439,14.439,0,0,1-4.574.764" transform="translate(-40.48 -54.577)" fill="#db1545"/>
          <path id="Path_824368" data-name="Path 824368" d="M137.562,119.776c1.5-.206,2.99.134,4.486.006a5.79,5.79,0,0,1-1.079,2.777,12.759,12.759,0,0,1-9.147,5.983,14.265,14.265,0,0,1-11.67-2.865c-.18-.123-.391-.3-.359-.547.038-.3.343-.243.55-.3a11.482,11.482,0,0,0,2.764-1.16,1.882,1.882,0,0,1,1.747-.144,11.113,11.113,0,0,0,10.322-.977,7.426,7.426,0,0,0,2.386-2.772" transform="translate(-53.952 -53.915)" fill="#db1545"/>
          <path id="Path_824369" data-name="Path 824369" d="M136.748,108.494c.733-.335,1.369.086,2.011.3a12.31,12.31,0,0,1,2.876,1.625c.042.028.037.127.054.193a3.2,3.2,0,0,0-1.527,2.083c-.3,1.216-1.326,1.63-2.379,1.9a7.279,7.279,0,0,1-2.911.162c-.4-.062-.587-.245-.3-.642a12.528,12.528,0,0,0,2.043-5.231,2.635,2.635,0,0,1,.132-.385" transform="translate(-60.546 -48.808)" fill="#db1545"/>
          <path id="Path_824370" data-name="Path 824370" d="M106.347,97.327a2.14,2.14,0,0,1,3.037,2.235,2.808,2.808,0,0,1-1.685,2.1,6.059,6.059,0,0,1-3.757.725,8.35,8.35,0,0,1-2.994-1.049,11.117,11.117,0,0,1-5.9-7.725,5.608,5.608,0,0,1,1.277-4.929,2.105,2.105,0,0,1,3.6,2.162l-.309.683a1.278,1.278,0,0,0-.3,1.321,7.163,7.163,0,0,0,4.174,4.891,2.384,2.384,0,0,0,2.857-.41" transform="translate(-42.753 -39.55)" fill="#040405"/>
          <path id="Path_824371" data-name="Path 824371" d="M109.9,100.369a2.384,2.384,0,0,1-2.857.41,7.163,7.163,0,0,1-4.174-4.891,1.278,1.278,0,0,1,.3-1.321,21.282,21.282,0,0,0,4.086,3.976,8.781,8.781,0,0,0,2.136,1.668,1.549,1.549,0,0,0,.509.157" transform="translate(-46.301 -42.592)" fill="#db1545"/>
        </g>
      </g>
    </g>
  </g>
</svg>
