<svg xmlns="http://www.w3.org/2000/svg" xmlns:xlink="http://www.w3.org/1999/xlink" width="150" height="150" viewBox="0 0 150 150">
  <defs>
    <clipPath id="clip-path">
      <rect id="Rectangle_378145" data-name="Rectangle 378145" width="150" height="150" transform="translate(303 1185)" fill="none" stroke="#707070" stroke-width="1"/>
    </clipPath>
    <clipPath id="clip-path-2">
      <rect id="Rectangle_378146" data-name="Rectangle 378146" width="139.572" height="134.333" fill="none"/>
    </clipPath>
  </defs>
  <g id="Mask_Group_416" data-name="Mask Group 416" transform="translate(-303 -1185)" clip-path="url(#clip-path)">
    <g id="Group_1074203" data-name="Group 1074203" transform="translate(308 1193)">
      <g id="Group_1074202" data-name="Group 1074202" clip-path="url(#clip-path-2)">
        <path id="Path_824400" data-name="Path 824400" d="M131.138,34.365a8.137,8.137,0,0,1,3.989-1.508c.4-.077.788-.181,1.182-.272,1.026,1.653,1.385,1.539,2.771,1.3,1.934-.33,3.811-.985,5.735-1.39a31.539,31.539,0,0,1,5.447-1.037,6.248,6.248,0,0,1,5.975,5.254,7.389,7.389,0,0,1-.253,2.94,5.981,5.981,0,0,1-4.343,4.119c-2.42.727-4.906,1.234-7.366,1.829-3.749.908-7.5,1.8-11.247,2.721-.843.207-1.741.347-2.186,1.283-1.058,2.23-2.133,4.451-3.2,6.675-.631,1.31-1.333,2.591-1.881,3.935-.721,1.769-1.565,3.48-2.332,5.227a2.071,2.071,0,0,0,.6,2.6c1.021.746,2.123,1.365,3.149,2.11,1.192.866,2.5,1.572,3.741,2.366,1.982,1.265,3.943,2.562,5.934,3.812,1.548.972,3.134,1.884,4.693,2.84a6.3,6.3,0,0,1,2.941,3.839c.524,1.955,1.094,3.9,1.627,5.85.736,2.7,1.434,5.4,2.193,8.091.314,1.112.745,2.209,1.02,3.313.356,1.426.758,2.845,1.1,4.277a19.571,19.571,0,0,1,.862,3.646,6.307,6.307,0,0,1-8.822,6.182,6.569,6.569,0,0,1-3.669-4.563c-.647-2.478-1.331-4.946-1.991-7.42-1.1-4.13-2.243-8.248-3.385-12.366a2.482,2.482,0,0,0-.882-1.612c-1.317-.863-2.613-1.761-3.944-2.6q-4.082-2.578-8.2-5.106a11,11,0,0,0-3.257-1.833,37.447,37.447,0,0,0-3.921-.488c-1.044-.109-2.1-.12-3.137-.283-1.355-.214-2.723-.223-4.081-.388q-1.627-.2-3.271-.3c-1.6-.1-3.191-.407-4.793-.494-1.234-.067-2.459-.22-3.685-.329-1.808-.16-3.608-.4-5.428-.377a1.716,1.716,0,0,0-1.643,1.2,24.685,24.685,0,0,0-.7,2.746c-.367,1.6-.815,3.185-1.136,4.794a2.426,2.426,0,0,0,.086,2,3.576,3.576,0,0,0,1.555,1.228c2.123,1.041,4.1,2.348,6.209,3.407,2.165,1.085,4.284,2.265,6.426,3.4,1.786.944,3.593,1.849,5.362,2.824a6.245,6.245,0,0,1,3.047,6.7c-.5,2.989-2.54,4.539-5.452,5.063-.293.053-.442-.028-.56-.375-.542-1.591-1.137-3.164-1.734-4.736a2.143,2.143,0,0,0-1.514-1.565,7.417,7.417,0,0,0-1.528-.162c-2.658.021-5.316-.02-7.973.024a5.484,5.484,0,0,1-3.338-.828,56.819,56.819,0,0,0-5.239-2.88c-1.949-1.024-3.857-2.124-5.811-3.138A6.064,6.064,0,0,1,71.7,91.777a9.047,9.047,0,0,1,.217-4.257q.853-3.607,1.681-7.22c.444-1.923.9-3.844,1.315-5.774a15.693,15.693,0,0,0,.743-3.934,1.971,1.971,0,0,0-2.783-1.53c-.686.494-1.41.937-2.117,1.4a14.662,14.662,0,0,1-6.814,2.326,14.935,14.935,0,0,1-7.054-.821,17.888,17.888,0,0,1-5.23-2.938,17.117,17.117,0,0,1-5.727-10.342c-.129-.744.053-.945.853-.939,1.363.01,2.726.021,4.088.023a8.776,8.776,0,0,0,1.97-.046,8.127,8.127,0,0,0,4.94-3.227,9.069,9.069,0,0,0,1.5-4.994,3.484,3.484,0,0,1,2.374-2.96,19.492,19.492,0,0,1,2.786-.3,5.526,5.526,0,0,0,2.568-.783,7.737,7.737,0,0,0,2.807-2.65c.386-.622.716-.621,1.236-.232a17.689,17.689,0,0,1,4.543,4.363,19.539,19.539,0,0,1,1.848,3.44,3.075,3.075,0,0,0,1.4,1.891,2.12,2.12,0,0,0,2.809-2.035c-.055-3.486-.042-6.973-.056-10.46V39.75c-.031-2.732-.071-5.465-.087-8.2a2.24,2.24,0,0,0-1.014-1.877c-1.162-.885-2.4-1.649-3.609-2.465-1.393-.943-2.86-1.781-4.215-2.774-.693-.508-1.513-.763-2.175-1.246-2.036-1.489-4.19-2.8-6.228-4.282-2.189-1.593-3.317-3.683-2.775-6.43a6.293,6.293,0,0,1,9.746-4.045c1.027.644,1.967,1.435,2.983,2.082,2.638,1.68,5.266,3.37,7.859,5.119,2.722,1.837,5.438,3.691,8.241,5.4a6.8,6.8,0,0,1,3.647,6.013c.021,1.252.045,2.5.038,3.756-.026,4.408.181,8.813-.015,13.227a37.692,37.692,0,0,0,.1,4.672,2.033,2.033,0,0,0,2.029,2.062q9.4.048,18.808,0a2.215,2.215,0,0,0,2.171-1.4,12.423,12.423,0,0,1,.474-1.222c.613-1.1,1.2-2.216,1.718-3.361a33.1,33.1,0,0,1,2.44-4.936,5.781,5.781,0,0,1,3.352-2.477c1.329-.35,2.651-.735,3.994-1.021a2.407,2.407,0,0,0,2.067-1.983" transform="translate(-20.784 -3.338)" fill="#f9f4f5"/>
        <path id="Path_824401" data-name="Path 824401" d="M60.811,36.445c.015,3.487,0,6.973.056,10.459a2.121,2.121,0,0,1-2.809,2.035,3.078,3.078,0,0,1-1.4-1.891,19.5,19.5,0,0,0-1.848-3.44,17.7,17.7,0,0,0-4.543-4.363c-.52-.388-.85-.39-1.236.232a7.739,7.739,0,0,1-2.807,2.65,5.526,5.526,0,0,1-2.569.783,19.493,19.493,0,0,0-2.785.3,3.484,3.484,0,0,0-2.374,2.96A9.072,9.072,0,0,1,37,51.162a8.127,8.127,0,0,1-4.94,3.227,8.809,8.809,0,0,1-1.97.046c-1.362,0-2.725-.013-4.088-.023-.8-.006-.982.2-.854.939a17.12,17.12,0,0,0,5.728,10.342,17.893,17.893,0,0,0,5.23,2.938,14.935,14.935,0,0,0,7.054.821,14.669,14.669,0,0,0,6.814-2.326c.706-.466,1.431-.909,2.117-1.4a1.971,1.971,0,0,1,2.783,1.53,15.7,15.7,0,0,1-.743,3.935c-.416,1.929-.87,3.85-1.315,5.774q-.834,3.611-1.681,7.22a9.04,9.04,0,0,0-.217,4.257A6.065,6.065,0,0,0,54.1,92.571c1.954,1.014,3.862,2.114,5.811,3.138a56.955,56.955,0,0,1,5.239,2.88,5.479,5.479,0,0,0,3.338.828c2.657-.043,5.315,0,7.973-.023a7.446,7.446,0,0,1,1.528.161,2.144,2.144,0,0,1,1.514,1.565c.6,1.572,1.192,3.145,1.734,4.736.118.347.268.428.56.375,2.913-.525,4.948-2.074,5.453-5.063a6.245,6.245,0,0,0-3.047-6.7c-1.769-.974-3.576-1.88-5.362-2.824-2.142-1.132-4.26-2.312-6.426-3.4-2.112-1.059-4.086-2.366-6.209-3.407a3.577,3.577,0,0,1-1.555-1.228,2.426,2.426,0,0,1-.086-2c.322-1.61.77-3.193,1.136-4.794a24.809,24.809,0,0,1,.7-2.746,1.716,1.716,0,0,1,1.643-1.2c1.82-.019,3.62.217,5.428.377,1.227.108,2.452.261,3.685.329,1.6.088,3.191.4,4.793.494q1.643.1,3.271.3c1.357.164,2.726.173,4.08.388,1.035.164,2.093.174,3.138.283a37.447,37.447,0,0,1,3.921.488,11,11,0,0,1,3.257,1.833q4.111,2.53,8.194,5.106c1.332.841,2.627,1.739,3.945,2.6a2.48,2.48,0,0,1,.882,1.611c1.142,4.119,2.284,8.237,3.385,12.367.66,2.474,1.344,4.942,1.991,7.42a6.567,6.567,0,0,0,3.669,4.563,6.307,6.307,0,0,0,8.822-6.181,19.613,19.613,0,0,0-.862-3.646c-.341-1.432-.744-2.85-1.1-4.277-.275-1.1-.706-2.2-1.02-3.313-.759-2.689-1.457-5.395-2.193-8.091-.533-1.953-1.1-3.9-1.627-5.85a6.3,6.3,0,0,0-2.94-3.84c-1.559-.956-3.145-1.867-4.693-2.839-1.991-1.25-3.953-2.548-5.934-3.812-1.244-.794-2.549-1.5-3.741-2.366-1.025-.745-2.128-1.364-3.149-2.11a2.071,2.071,0,0,1-.6-2.6c.766-1.747,1.611-3.458,2.332-5.226.548-1.344,1.251-2.625,1.881-3.935,1.07-2.223,2.145-4.445,3.2-6.675.444-.937,1.343-1.076,2.186-1.283,3.745-.92,7.5-1.814,11.247-2.721,2.46-.6,4.946-1.1,7.366-1.829a5.981,5.981,0,0,0,4.343-4.119,7.379,7.379,0,0,0,.253-2.94,6.247,6.247,0,0,0-5.975-5.254,31.478,31.478,0,0,0-5.447,1.037c-1.924.4-3.8,1.06-5.735,1.39-1.385.236-1.745.35-2.771-1.3-.14-1.978.672-2.34,2.3-2.713,3.41-.781,6.789-1.687,10.2-2.435a7.594,7.594,0,0,1,3.5.146,10.378,10.378,0,0,1,7.99,9.239,9.733,9.733,0,0,1-1.853,6.926,9.964,9.964,0,0,1-5.621,3.865c-4.173,1.093-8.362,2.121-12.551,3.152-1.976.486-3.964.926-5.95,1.367-.362.08-.456.384-.564.62-1.841,4.033-3.593,8.107-5.627,12.05-.02.039-.018.09-.034.131-.336.863-.336.863.56,1.3.014.081.049.136.144.113,2.76,1.749,5.5,3.531,8.287,5.235,1.573.962,3.149,1.929,4.7,2.919a16.461,16.461,0,0,1,5.161,4.384,18.211,18.211,0,0,1,2,5.245c.52,1.736.892,3.516,1.41,5.253.867,2.909,1.59,5.858,2.428,8.775.747,2.6,1.536,5.2,2.161,7.834a9.921,9.921,0,0,1-1.874,9.133,10.433,10.433,0,0,1-5.04,3.43,10.163,10.163,0,0,1-6.54-.2,10.278,10.278,0,0,1-6.205-6.48c-.752-1.989-1.152-4.111-1.718-6.171-.63-2.292-1.282-4.578-1.906-6.872-.647-2.383-1.275-4.772-1.9-7.161a1.014,1.014,0,0,0-.523-.675c-.9-.489-1.831-.968-2.67-1.525-1.671-1.11-3.387-2.15-5.054-3.266-1.506-1.008-3.028-1.992-4.543-2.986a4.228,4.228,0,0,0-2.088-.582c-1.43-.107-2.854-.313-4.284-.377-1.546-.068-3.063-.372-4.608-.458a32.794,32.794,0,0,1-4.719-.5c-.654-.133-1.338-.068-2.012-.146-2.09-.243-4.2-.336-6.285-.595A7.574,7.574,0,0,1,70.477,77c-.4-.143-.716-.03-.827.487-.27,1.252-.6,2.492-.882,3.742-.1.455.273.617.579.782.667.361,1.35.693,2.019,1.053,2.275,1.223,4.543,2.459,6.82,3.679,1.681.9,3.347,1.837,5.066,2.663a22.916,22.916,0,0,1,4.187,2.406,9.766,9.766,0,0,1,3.649,5.557,10.167,10.167,0,0,1-4.129,11.15,9.492,9.492,0,0,1-3.883,1.576c-.21-.048-.311.016-.252.246q1.829,5.151,3.66,10.3c.651,1.821,1.338,3.629,1.98,5.455.653,1.858,1.443,3.669,1.971,5.571a1.941,1.941,0,0,1-1.754,2.621,14.609,14.609,0,0,1-1.632.036q-27.44,0-54.88,0a11.584,11.584,0,0,0-1.291-.021,1.865,1.865,0,0,1-1.366-.57,1.969,1.969,0,0,1-.556-2.047q.365-1.089.737-2.176c.758-2.2,1.506-4.409,2.285-6.6.362-1.02.749-2.034,1.19-3.021.492-1.1,1.2-1.378,2.606-1.129,1.39.682,1.489,1.921.965,3.24a33.208,33.208,0,0,0-1.193,3.186c-.42,1.484-1.142,2.854-1.521,4.346-.054.211-.388.487.062.664a.606.606,0,0,0,.588.032h3.61q12.571-.007,25.141-.011c1.577,0,1.572,0,2.012-1.224q1.421-3.962,2.848-7.922,1.475-4.1,2.95-8.2c1-2.782,1.983-5.569,2.994-8.346.429-1.179.344-1.02-.683-1.02q-14.649,0-29.3-.018A1.126,1.126,0,0,0,43,104.4c-.506,1.521-1.09,3.015-1.634,4.523a21.406,21.406,0,0,0-.806,2.363c-.418,1.793-1.073,2.362-2.9,2.351l-.514-.314a2.11,2.11,0,0,1-.712-2.488c.565-1.653,1.163-3.294,1.741-4.941.518-1.476,1.085-2.936,1.614-4.406.58-1.611.757-2.068,2.781-2.078,5.107-.027,10.214-.009,15.343-.009-.059-.392-.378-.436-.623-.564-1.862-.975-3.766-1.874-5.561-2.972A10.328,10.328,0,0,1,46.8,88.693a13.394,13.394,0,0,1,.48-5.565q1.135-4.987,2.266-9.975a3.122,3.122,0,0,1,.089-.315c.1-.292.361-.627.086-.876-.228-.207-.562.038-.813.14A22.84,22.84,0,0,1,43.8,73.455a21.44,21.44,0,0,1-4.735.08,15.51,15.51,0,0,1-4.342-1.082,21.218,21.218,0,0,1-4.57-2.257,20.676,20.676,0,0,1-7.581-9.3A20.111,20.111,0,0,1,21.2,55.367c-.112-.959-.108-.949-1.053-.949-4.473,0-8.948.048-13.419-.043A6.188,6.188,0,0,1,2.89,52.638a7.982,7.982,0,0,1-2.8-5.055,7.38,7.38,0,0,1,1.809-6,7.855,7.855,0,0,1,5.972-2.767,3.3,3.3,0,0,0,3.154-1.993,3.618,3.618,0,0,0-.561-4.1A3.386,3.386,0,0,0,7.9,31.56a7.964,7.964,0,0,1-4.549-1.5A7.6,7.6,0,0,1,.108,24.869a7.494,7.494,0,0,1,1.727-6.222A7.656,7.656,0,0,1,7.9,15.883a11.166,11.166,0,0,1,2.845.094,1.835,1.835,0,0,1,1.615,1.787l-.014.153a1.94,1.94,0,0,1-1.988,2.054c-.519.043-1.044.013-1.566.024a7.781,7.781,0,0,0-2.161.2,3.667,3.667,0,0,0-2.469,4A3.77,3.77,0,0,0,6.986,27.3c.74.195,1.482.089,2.212.231a7.558,7.558,0,0,1,4.532,2.692,7.407,7.407,0,0,1,1.749,5.023,7.609,7.609,0,0,1-4.149,6.794,8.633,8.633,0,0,1-4.027,1,3.865,3.865,0,0,0-2.873,1.938c-1.109,3.245,1.077,5.4,3.565,5.363,3.884-.061,7.769-.012,11.654-.009.432,0,.863,0,1.295.007.241,0,.385-.065.382-.344a8.251,8.251,0,0,1,.512-2.361A20.579,20.579,0,0,1,32.161,34.91a18.7,18.7,0,0,1,6.144-2,20.257,20.257,0,0,1,6.323.013c.206.032.5.128.613-.133.083-.2-.184-.33-.28-.5-.07-.123-.246-.191-.384-.268a5.365,5.365,0,0,0-2.687-.558c-1.931,0-3.862-.014-5.793.011a7.093,7.093,0,0,1-2.745-.388A7.97,7.97,0,0,1,28,23.662a3.735,3.735,0,0,0-3.342-3.6c-1.477-.086-2.952,0-4.426-.079A2.23,2.23,0,0,1,17.895,17.9l.088-.332L18,17.532c.011-.059.021-.119.032-.178a2.007,2.007,0,0,1,2.188-1.445c2.135-.025,4.293-.281,6.387.356a7.648,7.648,0,0,1,4.957,4.78,19.4,19.4,0,0,1,.664,3.542,3.543,3.543,0,0,0,3.3,2.757q3.3-.016,6.6.01a7.855,7.855,0,0,1,6.657,3.106,7.287,7.287,0,0,1,1.427,3.6,1.08,1.08,0,0,0,.6.955c.976.5,1.9,1.1,2.822,1.688.667.425,1.218,1.089,1.873,1.588a7.6,7.6,0,0,0,1.233,1.189V36.5l0-1.641a17.524,17.524,0,0,1-.021-3.337v-.026a5.62,5.62,0,0,1,.005-.955,2,2,0,0,0-1.307-2.251c-1.647-.9-3.116-2.084-4.7-3.081-1.289-.81-2.569-1.631-3.82-2.5C44.818,21.265,42.684,19.9,40.65,18.4a9.854,9.854,0,0,1-3.91-6.446,9.943,9.943,0,0,1,2.99-9.121,10.116,10.116,0,0,1,5.6-2.737,23.926,23.926,0,0,1,4.026.051c.523-.006.93.452,1.406.665.052.15.167.125.282.1a21.692,21.692,0,0,1,3.17,1.812c2.365,1.554,4.713,3.131,7.092,4.665,2.45,1.579,4.811,3.3,7.256,4.885,1.565,1.015,3.095,2.084,4.688,3.059a10.281,10.281,0,0,1,1.155,1.1,10.922,10.922,0,0,1,2,3.037,7.576,7.576,0,0,1,.781,3.552c.3,6.691.048,13.39.24,20.083l-.035.044.038-.006c.1.328.372.2.572.2,4.857.014,9.714.015,14.57.035a.827.827,0,0,0,.886-.608c1.152-2.586,2.26-5.2,3.576-7.7a9.566,9.566,0,0,1,6.951-5.127c1.232-.236,2.438-.584,3.658-.867a2.1,2.1,0,0,1,2.71,1.948,2.408,2.408,0,0,1-2.067,1.983c-1.343.287-2.665.671-3.994,1.021a5.782,5.782,0,0,0-3.352,2.478,33.1,33.1,0,0,0-2.44,4.935c-.52,1.145-1.105,2.263-1.718,3.361a12.413,12.413,0,0,0-.474,1.221,2.213,2.213,0,0,1-2.171,1.4q-9.4.041-18.808,0A2.033,2.033,0,0,1,73.3,45.362a37.7,37.7,0,0,1-.1-4.672c.2-4.413-.011-8.819.015-13.227.007-1.252-.017-2.5-.038-3.756a6.8,6.8,0,0,0-3.646-6.013c-2.8-1.708-5.519-3.562-8.241-5.4-2.593-1.75-5.221-3.44-7.859-5.119-1.016-.647-1.956-1.437-2.983-2.082a6.292,6.292,0,0,0-9.746,4.045c-.541,2.748.586,4.837,2.775,6.43,2.038,1.483,4.192,2.793,6.228,4.282.661.484,1.482.738,2.175,1.246,1.355.994,2.822,1.832,4.215,2.774,1.206.817,2.447,1.581,3.609,2.465a2.242,2.242,0,0,1,1.014,1.877c.016,2.733.056,5.465.087,8.2l-.156.018.156.016m8.726,93.74,0-.007.372.07a.35.35,0,0,0,.351-.021l14.621-.022a.285.285,0,0,0,.351.006l.342-.077.047-.009-.023-.092c-.5-1.421-.974-2.848-1.489-4.261-.876-2.409-1.794-4.8-2.657-7.215-1.232-3.446-2.429-6.9-3.646-10.357-.062-.176-.041-.464-.329-.439-.258.023-.225.287-.29.471q-1.709,4.825-3.431,9.645c-.739,2.066-1.472,4.135-2.245,6.189-.547,1.452-1.021,2.93-1.575,4.381-.2.523-.759,1.054-.4,1.737M28.506,50.328v-.02c.862,0,1.727.039,2.587-.008a3.523,3.523,0,0,0,3.214-2.9,14.354,14.354,0,0,1,.356-2.6,7.893,7.893,0,0,1,4.892-5.46,9.473,9.473,0,0,1,3.174-.5,3.893,3.893,0,0,0,2.423-.937c.164-.138.441-.264.357-.523-.076-.236-.367-.254-.582-.291-.288-.05-.6,0-.878-.067a13.091,13.091,0,0,0-6.084.115,16,16,0,0,0-11.367,9.2,18.915,18.915,0,0,0-1.123,3.4c-.111.423.007.594.445.588.862-.013,1.725,0,2.587,0" transform="translate(0 0)" fill="#060707"/>
        <path id="Path_824402" data-name="Path 824402" d="M65.685,199.31c1.825.01,2.479-.557,2.9-2.351a21.367,21.367,0,0,1,.806-2.363c.544-1.508,1.129-3,1.634-4.523a1.127,1.127,0,0,1,1.249-.913q14.649.033,29.3.019c1.027,0,1.112-.159.683,1.02-1.012,2.777-2,5.564-2.994,8.346q-1.472,4.1-2.951,8.2-1.425,3.96-2.848,7.922c-.44,1.228-.435,1.223-2.013,1.224q-12.571,0-25.141.011H62.7l-.588-.032c-.451-.177-.117-.453-.063-.664.38-1.492,1.1-2.862,1.521-4.346a33.354,33.354,0,0,1,1.193-3.186c.525-1.319.426-2.558-.965-3.24.428-1.572,1.129-3.044,1.656-4.58a.8.8,0,0,0,.232-.543m15.279,9.662c-.042-.061-.082-.056-.12,0a.26.26,0,0,1-.351-.112c-.106-.19.093-.218.176-.294,1.613-1.468,3.244-2.918,4.843-4.4a16.43,16.43,0,0,0,3.672-4.535,5.441,5.441,0,0,0,.227-4.932,4.506,4.506,0,0,0-4.63-2.652,8.229,8.229,0,0,0-7.122,4.566c-.625,1.078.083,2.146,1.008,2.736a2.138,2.138,0,0,0,2.465-.732c.159-.221.287-.466.457-.677a4.019,4.019,0,0,1,3.523-1.8c.4.028.6.125.647.584a2.883,2.883,0,0,1-.884,2.139,55.571,55.571,0,0,1-5.82,5.738c-1.681,1.6-3.424,3.127-5.112,4.715a1.978,1.978,0,0,0-.582,2.353,2.193,2.193,0,0,0,2.048,1.412c2.723.046,5.45.081,8.17-.01a2.007,2.007,0,0,0,2.161-2.168,2.042,2.042,0,0,0-2.26-1.931c-.839-.01-1.679,0-2.518,0" transform="translate(-28.024 -85.67)" fill="#ffd65d"/>
        <path id="Path_824403" data-name="Path 824403" d="M21.316,32.7a2.23,2.23,0,0,0,2.339,2.079c1.474.074,2.949-.007,4.426.079a3.735,3.735,0,0,1,3.342,3.6,7.97,7.97,0,0,0,5.35,7.43,7.082,7.082,0,0,0,2.745.387c1.931-.025,3.862-.012,5.793-.01A5.359,5.359,0,0,1,48,46.828c.138.077.314.145.384.268.1.169.363.3.28.5-.11.262-.406.166-.613.133a20.257,20.257,0,0,0-6.323-.013,18.7,18.7,0,0,0-6.144,2,20.579,20.579,0,0,0-10.323,12.72,8.251,8.251,0,0,0-.512,2.361c0,.279-.141.349-.382.344-.432-.008-.863-.006-1.295-.007-3.884,0-7.77-.051-11.654.009-2.488.039-4.674-2.118-3.565-5.363a3.865,3.865,0,0,1,2.873-1.938,8.633,8.633,0,0,0,4.027-1A7.608,7.608,0,0,0,18.9,50.046a7.407,7.407,0,0,0-1.749-5.023,7.558,7.558,0,0,0-4.532-2.692c-.73-.142-1.472-.037-2.212-.231a3.771,3.771,0,0,1-2.819-3.105,3.666,3.666,0,0,1,2.469-4,7.781,7.781,0,0,1,2.161-.2c.522-.01,1.047.02,1.566-.024a1.94,1.94,0,0,0,1.988-2.054.184.184,0,0,0,.115-.026l5.044-.011.387.018" transform="translate(-3.422 -14.802)" fill="#e2495d"/>
        <path id="Path_824404" data-name="Path 824404" d="M9.328,106.432c5.609-.293,9.249,4.679,9.276,9.106a9.264,9.264,0,0,1-10.025,9.344c-4.429-.231-8.521-4.471-8.507-9.542.012-4.5,4.384-9.332,9.256-8.908m5.078,9.194a5.032,5.032,0,0,0-5.085-5.218,5.192,5.192,0,0,0-5.152,5.152,5.27,5.27,0,0,0,5.22,5.251c2.316-.034,5.236-1.944,5.016-5.185" transform="translate(-0.033 -48.191)" fill="#060707"/>
        <path id="Path_824405" data-name="Path 824405" d="M68.412,207.452a.8.8,0,0,1-.232.543,1.149,1.149,0,0,1-.282-.856l.514.313" transform="translate(-30.751 -93.813)" fill="#f9f4f5"/>
        <path id="Path_824406" data-name="Path 824406" d="M32.388,32.408,32,32.39c.044-.278.171-.431.475-.314q-.043.167-.088.332" transform="translate(-14.493 -14.509)" fill="#f9f4f5"/>
        <path id="Path_824407" data-name="Path 824407" d="M151.37,201.473c-.06-.229.041-.294.251-.246a.237.237,0,0,1-.251.246" transform="translate(-68.548 -91.129)" fill="#f9f4f5"/>
        <path id="Path_824408" data-name="Path 824408" d="M93.06,1.531c-.114.022-.23.047-.282-.1.122-.044.268-.152.282.1" transform="translate(-42.019 -0.619)" fill="#f9f4f5"/>
        <path id="Path_824409" data-name="Path 824409" d="M103.546,57.543v.025c-.036.009-.075.032-.107.024-.063-.017-.063-.058,0-.074.031-.008.071.016.106.025" transform="translate(-46.826 -26.049)" fill="#e2495d"/>
        <path id="Path_824410" data-name="Path 824410" d="M141.5,78.825l-.038.006.035-.044,0,.038" transform="translate(-64.066 -35.683)" fill="#e2495d"/>
        <path id="Path_824411" data-name="Path 824411" d="M197.316,115.071c-.1.024-.13-.032-.144-.113Z" transform="translate(-89.299 -52.064)" fill="#f9f4f5"/>
        <path id="Path_824412" data-name="Path 824412" d="M22.686,32.6a.18.18,0,0,1-.115.025l.015-.153.1.127" transform="translate(-10.222 -14.706)" fill="#f9f4f5"/>
        <path id="Path_824413" data-name="Path 824413" d="M32.932,31.719c-.011.059-.021.119-.032.178.011-.059.021-.119.032-.178" transform="translate(-14.9 -14.365)" fill="#f9f4f5"/>
        <path id="Path_824414" data-name="Path 824414" d="M111.021,66.587l-.156-.016.156-.018v.033" transform="translate(-50.211 -30.142)" fill="#e2495d"/>
        <path id="Path_824415" data-name="Path 824415" d="M127.369,219.454l-.371-.07,0,.007c-.364-.683.2-1.214.4-1.737.554-1.45,1.029-2.929,1.575-4.381.774-2.054,1.506-4.123,2.245-6.189q1.724-4.82,3.431-9.645c.066-.184.032-.448.29-.471.288-.025.267.263.329.439,1.217,3.452,2.414,6.91,3.646,10.357.863,2.413,1.781,4.806,2.657,7.215.514,1.414.994,2.841,1.489,4.261a.072.072,0,0,0-.024.1l-.341.077-.351-.006-14.621.022a.306.306,0,0,0-.352.021" transform="translate(-57.464 -89.206)" fill="#ffc446"/>
        <path id="Path_824416" data-name="Path 824416" d="M49.561,80.72c-.862,0-1.725-.009-2.587,0-.438.007-.556-.165-.445-.588a18.915,18.915,0,0,1,1.123-3.4,16,16,0,0,1,11.367-9.2,13.091,13.091,0,0,1,6.084-.115c.281.07.589.017.878.067.215.037.506.055.582.291.084.259-.193.385-.357.523a3.893,3.893,0,0,1-2.423.937,9.473,9.473,0,0,0-3.174.5,7.893,7.893,0,0,0-4.892,5.46,14.355,14.355,0,0,0-.356,2.6,3.523,3.523,0,0,1-3.214,2.9c-.86.047-1.724.008-2.587.008v.02" transform="translate(-21.055 -30.391)" fill="#e2495d"/>
        <path id="Path_824417" data-name="Path 824417" d="M62.3,237.979l.588.032a.607.607,0,0,1-.588-.032" transform="translate(-28.217 -107.78)" fill="#e2495d"/>
        <path id="Path_824418" data-name="Path 824418" d="M127.774,238.015a.306.306,0,0,1,.352-.021.352.352,0,0,1-.352.021" transform="translate(-57.869 -107.767)" fill="#e2495d"/>
        <path id="Path_824419" data-name="Path 824419" d="M155.142,237.991l.351.007a.286.286,0,0,1-.351-.007" transform="translate(-70.264 -107.786)" fill="#e2495d"/>
        <path id="Path_824420" data-name="Path 824420" d="M156.4,237.779a.072.072,0,0,1,.024-.1c.008.031.015.062.023.092l-.046.009" transform="translate(-70.827 -107.644)" fill="#e2495d"/>
        <path id="Path_824421" data-name="Path 824421" d="M127.1,237.949l0-.007,0,.007" transform="translate(-57.561 -107.764)" fill="#e2495d"/>
        <path id="Path_824422" data-name="Path 824422" d="M90.326,211.361c.839,0,1.679-.006,2.518,0A2.042,2.042,0,0,1,95.1,213.3a2.007,2.007,0,0,1-2.161,2.168c-2.721.091-5.447.056-8.17.01a2.193,2.193,0,0,1-2.048-1.412,1.978,1.978,0,0,1,.582-2.353c1.688-1.589,3.431-3.119,5.112-4.715a55.569,55.569,0,0,0,5.82-5.738,2.883,2.883,0,0,0,.884-2.139c-.05-.459-.25-.556-.647-.584a4.019,4.019,0,0,0-3.523,1.8c-.17.212-.3.456-.457.677a2.138,2.138,0,0,1-2.465.732c-.925-.59-1.633-1.658-1.008-2.736a8.229,8.229,0,0,1,7.122-4.566,4.506,4.506,0,0,1,4.63,2.652,5.441,5.441,0,0,1-.227,4.932,16.431,16.431,0,0,1-3.672,4.535c-1.6,1.484-3.23,2.934-4.843,4.4-.083.076-.282.1-.176.294a.26.26,0,0,0,.351.112l.061.019Z" transform="translate(-37.387 -88.058)" fill="#060707"/>
        <path id="Path_824423" data-name="Path 824423" d="M96.665,225.338l-.059.023-.061-.019c.038-.06.078-.066.12,0" transform="translate(-43.725 -102.036)" fill="#ffc446"/>
        <path id="Path_824424" data-name="Path 824424" d="M17.8,118.939c.22,3.241-2.7,5.151-5.016,5.185a5.27,5.27,0,0,1-5.22-5.251,5.192,5.192,0,0,1,5.152-5.152,5.032,5.032,0,0,1,5.085,5.218" transform="translate(-3.422 -51.504)" fill="#e2495d"/>
      </g>
    </g>
  </g>
</svg>
