<svg xmlns="http://www.w3.org/2000/svg" xmlns:xlink="http://www.w3.org/1999/xlink" width="169" height="169" viewBox="0 0 169 169">
  <defs>
    <clipPath id="clip-path">
      <rect id="Rectangle_378534" data-name="Rectangle 378534" width="133.964" height="130.663" fill="none"/>
    </clipPath>
  </defs>
  <g id="Group_1075361" data-name="Group 1075361" transform="translate(-384.743 -2057.999)">
    <g id="Group_159182" data-name="Group 159182" transform="translate(384.743 2057.999)">
      <path id="Union_12" data-name="Union 12" d="M84.5,0A84.5,84.5,0,1,1,0,84.5,84.5,84.5,0,0,1,84.5,0Z" transform="translate(0 0)" fill="#ffae7e"/>
    </g>
    <g id="Group_1075064" data-name="Group 1075064" transform="translate(374.743 2052.999)">
      <g id="Group_1075063" data-name="Group 1075063" transform="translate(25.018 21.5)" clip-path="url(#clip-path)">
        <path id="Path_826532" data-name="Path 826532" d="M71.454,47.369,11.931,81.735,49.8,103.6H70.277l39.049-34.366Z" transform="translate(1.223 4.857)" fill="#eaeaea"/>
        <path id="Path_826533" data-name="Path 826533" d="M68.373,94.632,30.5,72.766V79.13L68.373,101Z" transform="translate(3.128 7.462)" fill="#555559"/>
        <path id="Path_826534" data-name="Path 826534" d="M30.5,73.612v5.431l37.149,21.448V95.059Z" transform="translate(3.128 7.548)" fill="#4e4e55"/>
        <path id="Path_826535" data-name="Path 826535" d="M90.024,41.6,30.5,75.963,68.373,97.828,127.9,63.462Z" transform="translate(3.128 4.265)" fill="#4e4e55"/>
        <path id="Path_826536" data-name="Path 826536" d="M124.374,67.793,64.851,102.159V95.794l59.523-34.365Z" transform="translate(6.65 6.299)" fill="#757575"/>
        <path id="Path_826537" data-name="Path 826537" d="M63.6,95.027,30.5,75.914V31.17L63.6,50.281Z" transform="translate(3.127 3.196)" fill="#d4d7d7"/>
        <path id="Path_826538" data-name="Path 826538" d="M62.881,50.71V94.523L30.5,75.828V32.015Z" transform="translate(3.128 3.283)" fill="#c0c3c6"/>
        <path id="Path_826539" data-name="Path 826539" d="M123.127,19.112,63.6,53.478,30.5,34.366,90.023,0Z" transform="translate(3.128 0)" fill="#f5f5f5"/>
        <path id="Path_826540" data-name="Path 826540" d="M120.048,62.08,60.525,96.446V51.7l59.523-34.366Z" transform="translate(6.206 1.777)" fill="#cbcdcd"/>
        <path id="Path_826541" data-name="Path 826541" d="M65.242,51.228V95.973l-4.208-2.43V48.8Z" transform="translate(6.258 5.004)" fill="#d4d7d7"/>
        <path id="Path_826542" data-name="Path 826542" d="M64.518,51.655V95.467l-3.485-2.01V49.645Z" transform="translate(6.258 5.091)" fill="#c0c3c6"/>
        <path id="Path_826543" data-name="Path 826543" d="M124.765,20.058,65.242,54.424l-4.208-2.43,59.523-34.366Z" transform="translate(6.258 1.808)" fill="#f5f5f5"/>
        <path id="Path_826544" data-name="Path 826544" d="M102.689,29.642l-.648.374-4.207-2.429.647-.375Z" transform="translate(10.032 2.79)" fill="#cbcdcd"/>
        <path id="Path_826545" data-name="Path 826545" d="M124.374,64.577,64.851,98.943V54.2l59.523-34.366Z" transform="translate(6.65 2.034)" fill="#b9b39d"/>
        <path id="Path_826546" data-name="Path 826546" d="M124.374,64.577,64.851,98.943V54.2l59.523-34.366Z" transform="translate(6.65 2.034)" fill="#dddede"/>
        <path id="Path_826547" data-name="Path 826547" d="M102.3,74.161l-.648.374V29.791l.648-.375Z" transform="translate(10.423 3.016)" fill="#cbcdcd"/>
        <path id="Path_826548" data-name="Path 826548" d="M119.3,53.766l-15.59,9V33.029l15.59-9Z" transform="translate(10.634 2.464)" fill="#3d4555"/>
        <path id="Path_826549" data-name="Path 826549" d="M117.772,44.862l-12.8,7.39V33.434l12.8-7.39Z" transform="translate(10.764 2.671)" fill="#353b47"/>
        <path id="Path_826550" data-name="Path 826550" d="M116.1,33.89l-9.737,5.622V35.376l9.737-5.622Z" transform="translate(10.906 3.051)" fill="#4552db"/>
        <path id="Path_826551" data-name="Path 826551" d="M107.821,41.073l-.6.344c-.257.148-.466-.011-.466-.352v-.51a1.117,1.117,0,0,1,.466-.89l.6-.344c.256-.148.465.01.465.352v.51a1.119,1.119,0,0,1-.465.89" transform="translate(10.947 4.026)" fill="#3d4555"/>
        <path id="Path_826552" data-name="Path 826552" d="M107.05,41.591a.346.346,0,0,1-.174-.046.517.517,0,0,1-.215-.47v-.51a1.22,1.22,0,0,1,.519-.983l.6-.344a.4.4,0,0,1,.411-.023.515.515,0,0,1,.216.47v.51a1.219,1.219,0,0,1-.519.982l-.6.344a.472.472,0,0,1-.238.071m.964-2.207a.27.27,0,0,0-.129.041l-.6.344a1.015,1.015,0,0,0-.411.8v.51a.32.32,0,0,0,.107.282.2.2,0,0,0,.2-.023l.6-.344a1.017,1.017,0,0,0,.411-.8v-.51a.321.321,0,0,0-.108-.283.128.128,0,0,0-.066-.017" transform="translate(10.937 4.016)" fill="#666d79"/>
        <path id="Path_826553" data-name="Path 826553" d="M110.037,39.794l-.6.344c-.257.148-.466-.011-.466-.352v-.51a1.117,1.117,0,0,1,.466-.89l.6-.344c.256-.148.465.01.465.352v.51a1.119,1.119,0,0,1-.465.89" transform="translate(11.174 3.895)" fill="#3d4555"/>
        <path id="Path_826554" data-name="Path 826554" d="M109.266,40.311a.339.339,0,0,1-.173-.046.516.516,0,0,1-.215-.47v-.51a1.217,1.217,0,0,1,.518-.983l.6-.344a.4.4,0,0,1,.412-.024.52.52,0,0,1,.216.471v.51a1.217,1.217,0,0,1-.52.982l-.6.344a.472.472,0,0,1-.238.071m.964-2.207a.274.274,0,0,0-.129.041l-.6.344a1.014,1.014,0,0,0-.41.8v.51a.324.324,0,0,0,.107.283.206.206,0,0,0,.2-.024l.6-.344a1.015,1.015,0,0,0,.411-.8V38.4a.319.319,0,0,0-.107-.282.126.126,0,0,0-.067-.018" transform="translate(11.164 3.885)" fill="#666d79"/>
        <path id="Path_826555" data-name="Path 826555" d="M112.254,38.514l-.6.344c-.257.148-.466-.011-.466-.352V38a1.117,1.117,0,0,1,.466-.89l.6-.344c.256-.148.465.01.465.352v.51a1.119,1.119,0,0,1-.465.89" transform="translate(11.402 3.764)" fill="#3d4555"/>
        <path id="Path_826556" data-name="Path 826556" d="M111.484,39.031a.353.353,0,0,1-.175-.046.517.517,0,0,1-.215-.47V38a1.22,1.22,0,0,1,.519-.983l.6-.344a.4.4,0,0,1,.411-.023.513.513,0,0,1,.216.47v.51a1.216,1.216,0,0,1-.519.982l-.6.344a.469.469,0,0,1-.237.071m.964-2.207a.27.27,0,0,0-.13.041l-.6.344a1.019,1.019,0,0,0-.411.8v.51a.32.32,0,0,0,.107.282.2.2,0,0,0,.2-.023l.6-.344a1.012,1.012,0,0,0,.411-.8v-.51a.324.324,0,0,0-.107-.283.134.134,0,0,0-.066-.017" transform="translate(11.392 3.754)" fill="#666d79"/>
        <path id="Path_826557" data-name="Path 826557" d="M114.471,37.234l-.6.344c-.257.148-.466-.011-.466-.352v-.51a1.117,1.117,0,0,1,.466-.89l.6-.344c.256-.148.465.01.465.352v.51a1.119,1.119,0,0,1-.465.89" transform="translate(11.629 3.633)" fill="#3d4555"/>
        <path id="Path_826558" data-name="Path 826558" d="M113.7,37.751a.339.339,0,0,1-.173-.046.516.516,0,0,1-.215-.47v-.51a1.217,1.217,0,0,1,.518-.983l.6-.344a.4.4,0,0,1,.412-.023.518.518,0,0,1,.216.47v.51a1.217,1.217,0,0,1-.52.982l-.6.344a.472.472,0,0,1-.238.071m.964-2.207a.274.274,0,0,0-.129.041l-.6.344a1.014,1.014,0,0,0-.41.8v.51a.324.324,0,0,0,.107.283.209.209,0,0,0,.2-.024l.6-.344a1.015,1.015,0,0,0,.411-.8v-.51a.32.32,0,0,0-.107-.282.123.123,0,0,0-.067-.018" transform="translate(11.619 3.623)" fill="#666d79"/>
        <path id="Path_826559" data-name="Path 826559" d="M107.821,43.611l-.6.344c-.257.148-.466-.011-.466-.352v-.51a1.117,1.117,0,0,1,.466-.89l.6-.344c.256-.148.465.01.465.352v.51a1.119,1.119,0,0,1-.465.89" transform="translate(10.947 4.287)" fill="#3d4555"/>
        <path id="Path_826560" data-name="Path 826560" d="M107.05,44.128a.346.346,0,0,1-.174-.046.517.517,0,0,1-.215-.47V43.1a1.218,1.218,0,0,1,.519-.983l.6-.344a.4.4,0,0,1,.411-.023.515.515,0,0,1,.216.47v.51a1.219,1.219,0,0,1-.519.982l-.6.344a.483.483,0,0,1-.238.071m.964-2.207a.27.27,0,0,0-.129.041l-.6.344a1.015,1.015,0,0,0-.411.8v.51a.32.32,0,0,0,.107.282.2.2,0,0,0,.2-.023l.6-.344a1.017,1.017,0,0,0,.411-.8v-.51a.321.321,0,0,0-.108-.283.128.128,0,0,0-.066-.017" transform="translate(10.937 4.276)" fill="#666d79"/>
        <path id="Path_826561" data-name="Path 826561" d="M110.037,42.331l-.6.344c-.257.148-.466-.011-.466-.352v-.51a1.117,1.117,0,0,1,.466-.89l.6-.344c.256-.148.465.01.465.352v.51a1.119,1.119,0,0,1-.465.89" transform="translate(11.174 4.155)" fill="#3d4555"/>
        <path id="Path_826562" data-name="Path 826562" d="M109.266,42.848a.339.339,0,0,1-.173-.046.516.516,0,0,1-.215-.47v-.51a1.212,1.212,0,0,1,.518-.982l.6-.345a.4.4,0,0,1,.412-.023.516.516,0,0,1,.216.47v.51a1.217,1.217,0,0,1-.52.982l-.6.344a.472.472,0,0,1-.238.071m.964-2.207a.274.274,0,0,0-.129.041l-.6.344a1.013,1.013,0,0,0-.41.8v.51a.324.324,0,0,0,.107.283.209.209,0,0,0,.2-.024l.6-.344a1.015,1.015,0,0,0,.411-.8v-.51a.319.319,0,0,0-.107-.282.126.126,0,0,0-.067-.018" transform="translate(11.164 4.145)" fill="#666d79"/>
        <path id="Path_826563" data-name="Path 826563" d="M112.254,41.051l-.6.344c-.257.148-.466-.011-.466-.352v-.51a1.117,1.117,0,0,1,.466-.89l.6-.344c.256-.148.465.01.465.352v.51a1.119,1.119,0,0,1-.465.89" transform="translate(11.402 4.024)" fill="#3d4555"/>
        <path id="Path_826564" data-name="Path 826564" d="M111.484,41.569a.353.353,0,0,1-.175-.046.517.517,0,0,1-.215-.47v-.51a1.22,1.22,0,0,1,.519-.983l.6-.344a.4.4,0,0,1,.411-.023.513.513,0,0,1,.216.47v.51a1.219,1.219,0,0,1-.519.982l-.6.344a.469.469,0,0,1-.237.071m.964-2.207a.27.27,0,0,0-.13.041l-.6.344a1.019,1.019,0,0,0-.411.8v.51a.32.32,0,0,0,.107.282.2.2,0,0,0,.2-.023l.6-.344a1.012,1.012,0,0,0,.411-.8v-.51a.324.324,0,0,0-.107-.283.134.134,0,0,0-.066-.017" transform="translate(11.392 4.014)" fill="#666d79"/>
        <path id="Path_826565" data-name="Path 826565" d="M114.471,39.771l-.6.344c-.257.148-.466-.011-.466-.352v-.51a1.117,1.117,0,0,1,.466-.89l.6-.344c.256-.148.465.01.465.352v.51a1.119,1.119,0,0,1-.465.89" transform="translate(11.629 3.893)" fill="#3d4555"/>
        <path id="Path_826566" data-name="Path 826566" d="M113.7,40.289a.339.339,0,0,1-.173-.046.516.516,0,0,1-.215-.47v-.51a1.213,1.213,0,0,1,.518-.982l.6-.344a.405.405,0,0,1,.412-.025.52.52,0,0,1,.216.471v.51a1.217,1.217,0,0,1-.52.982l-.6.344a.472.472,0,0,1-.238.071m.964-2.207a.274.274,0,0,0-.129.041l-.6.344a1.014,1.014,0,0,0-.41.8v.51a.324.324,0,0,0,.107.283.206.206,0,0,0,.2-.024l.6-.344a1.015,1.015,0,0,0,.411-.8v-.51a.319.319,0,0,0-.107-.282.123.123,0,0,0-.067-.018" transform="translate(11.619 3.883)" fill="#666d79"/>
        <path id="Path_826567" data-name="Path 826567" d="M107.821,46.148l-.6.344c-.257.148-.466-.011-.466-.352v-.51a1.117,1.117,0,0,1,.466-.89l.6-.344c.256-.148.465.01.465.352v.51a1.119,1.119,0,0,1-.465.89" transform="translate(10.947 4.547)" fill="#3d4555"/>
        <path id="Path_826568" data-name="Path 826568" d="M107.05,46.666a.346.346,0,0,1-.174-.046.517.517,0,0,1-.215-.47v-.51a1.218,1.218,0,0,1,.519-.983l.6-.344a.4.4,0,0,1,.411-.023.515.515,0,0,1,.216.47v.51a1.219,1.219,0,0,1-.519.982l-.6.344a.48.48,0,0,1-.238.071m.964-2.207a.27.27,0,0,0-.129.041l-.6.344a1.015,1.015,0,0,0-.411.8v.51a.321.321,0,0,0,.107.282.2.2,0,0,0,.2-.023l.6-.344a1.017,1.017,0,0,0,.411-.8v-.51a.321.321,0,0,0-.108-.283.128.128,0,0,0-.066-.017" transform="translate(10.937 4.537)" fill="#666d79"/>
        <path id="Path_826569" data-name="Path 826569" d="M110.037,44.868l-.6.344c-.257.148-.466-.011-.466-.352v-.51a1.117,1.117,0,0,1,.466-.89l.6-.344c.256-.148.465.01.465.352v.51a1.119,1.119,0,0,1-.465.89" transform="translate(11.174 4.415)" fill="#3d4555"/>
        <path id="Path_826570" data-name="Path 826570" d="M109.266,45.386a.339.339,0,0,1-.173-.046.517.517,0,0,1-.215-.47v-.51a1.212,1.212,0,0,1,.518-.982l.6-.344a.4.4,0,0,1,.412-.024.516.516,0,0,1,.216.47v.51a1.217,1.217,0,0,1-.52.982l-.6.344a.483.483,0,0,1-.238.071m.964-2.207a.274.274,0,0,0-.129.041l-.6.344a1.013,1.013,0,0,0-.41.8v.51a.32.32,0,0,0,.107.282.2.2,0,0,0,.2-.023l.6-.344a1.015,1.015,0,0,0,.411-.8v-.51a.319.319,0,0,0-.107-.282.126.126,0,0,0-.067-.018" transform="translate(11.164 4.405)" fill="#666d79"/>
        <path id="Path_826571" data-name="Path 826571" d="M112.254,43.588l-.6.344c-.257.148-.466-.011-.466-.352v-.51a1.117,1.117,0,0,1,.466-.89l.6-.344c.256-.148.465.01.465.352v.51a1.119,1.119,0,0,1-.465.89" transform="translate(11.402 4.284)" fill="#3d4555"/>
        <path id="Path_826572" data-name="Path 826572" d="M111.484,44.106a.353.353,0,0,1-.175-.046.517.517,0,0,1-.215-.47v-.51a1.218,1.218,0,0,1,.519-.983l.6-.344a.4.4,0,0,1,.411-.023.513.513,0,0,1,.216.47v.51a1.219,1.219,0,0,1-.519.982l-.6.344a.48.48,0,0,1-.237.071m.964-2.207a.27.27,0,0,0-.13.041l-.6.344a1.019,1.019,0,0,0-.411.8v.51a.32.32,0,0,0,.107.282.2.2,0,0,0,.2-.023l.6-.344a1.012,1.012,0,0,0,.411-.8V42.2a.324.324,0,0,0-.107-.283.134.134,0,0,0-.066-.017" transform="translate(11.392 4.274)" fill="#666d79"/>
        <path id="Path_826573" data-name="Path 826573" d="M114.471,42.309l-.6.344c-.257.148-.466-.011-.466-.352v-.51a1.117,1.117,0,0,1,.466-.89l.6-.344c.256-.148.465.01.465.352v.51a1.119,1.119,0,0,1-.465.89" transform="translate(11.629 4.153)" fill="#3d4555"/>
        <path id="Path_826574" data-name="Path 826574" d="M113.7,42.826a.339.339,0,0,1-.173-.046.516.516,0,0,1-.215-.47V41.8a1.212,1.212,0,0,1,.518-.982l.6-.344a.4.4,0,0,1,.412-.024.516.516,0,0,1,.216.47v.51a1.217,1.217,0,0,1-.52.982l-.6.344a.472.472,0,0,1-.238.071m.964-2.207a.274.274,0,0,0-.129.041l-.6.344a1.013,1.013,0,0,0-.41.8v.51a.324.324,0,0,0,.107.283.206.206,0,0,0,.2-.024l.6-.344a1.015,1.015,0,0,0,.411-.8v-.51a.319.319,0,0,0-.107-.282.123.123,0,0,0-.067-.018" transform="translate(11.619 4.143)" fill="#666d79"/>
        <path id="Path_826575" data-name="Path 826575" d="M1.413,100.464l35.539,20.519a6.462,6.462,0,0,0,5.794.239l17.492-10.1c1.479-.853,1.291-2.358-.416-3.344L24.282,87.26a6.46,6.46,0,0,0-5.793-.239L1,97.12c-1.479.853-1.292,2.358.416,3.344" transform="translate(0 8.864)" fill="#bebeba"/>
        <path id="Path_826576" data-name="Path 826576" d="M1.413,98.88,36.953,119.4a6.459,6.459,0,0,0,5.794.24l17.492-10.1c1.479-.853,1.291-2.358-.416-3.344L24.282,85.676a6.46,6.46,0,0,0-5.793-.239L1,95.535c-1.479.854-1.292,2.359.416,3.345" transform="translate(0 8.702)" fill="#aeb1c2"/>
        <path id="Path_826577" data-name="Path 826577" d="M1.413,97.975l35.539,20.519a6.462,6.462,0,0,0,5.794.239l17.492-10.1c1.479-.853,1.291-2.358-.416-3.344L24.282,84.771a6.46,6.46,0,0,0-5.793-.239L1,94.631c-1.479.853-1.292,2.358.416,3.344" transform="translate(0 8.609)" fill="#dbdde9"/>
        <path id="Path_826578" data-name="Path 826578" d="M11.051,96.245a6.243,6.243,0,0,1-5.666-.057c-1.542-.922-1.506-2.391.08-3.281a6.243,6.243,0,0,1,5.666.056c1.542.923,1.506,2.391-.08,3.282" transform="translate(0.436 9.46)" fill="#bebeba"/>
        <path id="Path_826579" data-name="Path 826579" d="M18.4,100.362a6.243,6.243,0,0,1-5.666-.057c-1.542-.922-1.506-2.391.08-3.282a6.246,6.246,0,0,1,5.666.057c1.542.923,1.506,2.391-.08,3.282" transform="translate(1.189 9.882)" fill="#bebeba"/>
        <path id="Path_826580" data-name="Path 826580" d="M25.744,104.479a6.243,6.243,0,0,1-5.666-.057c-1.542-.922-1.506-2.391.08-3.281a6.243,6.243,0,0,1,5.666.056c1.542.923,1.506,2.391-.08,3.282" transform="translate(1.943 10.304)" fill="#bebeba"/>
        <path id="Path_826581" data-name="Path 826581" d="M33.09,108.6a6.243,6.243,0,0,1-5.666-.057c-1.542-.922-1.506-2.391.08-3.282a6.246,6.246,0,0,1,5.666.057c1.542.923,1.506,2.391-.08,3.282" transform="translate(2.696 10.726)" fill="#bebeba"/>
        <path id="Path_826582" data-name="Path 826582" d="M40.437,112.713a6.243,6.243,0,0,1-5.666-.057c-1.542-.922-1.506-2.391.08-3.282a6.246,6.246,0,0,1,5.666.057c1.542.923,1.506,2.391-.08,3.282" transform="translate(3.449 11.148)" fill="#bebeba"/>
        <path id="Path_826583" data-name="Path 826583" d="M21.112,90.3a6.243,6.243,0,0,1-5.666-.057c-1.542-.922-1.506-2.391.08-3.281a6.243,6.243,0,0,1,5.666.056c1.542.923,1.506,2.391-.08,3.282" transform="translate(1.468 8.851)" fill="#bebeba"/>
        <path id="Path_826584" data-name="Path 826584" d="M28.459,94.421a6.243,6.243,0,0,1-5.666-.057c-1.542-.922-1.506-2.391.08-3.282a6.246,6.246,0,0,1,5.666.057c1.542.923,1.506,2.391-.08,3.282" transform="translate(2.221 9.273)" fill="#bebeba"/>
        <path id="Path_826585" data-name="Path 826585" d="M35.805,98.538a6.243,6.243,0,0,1-5.666-.057c-1.542-.922-1.506-2.391.08-3.281a6.243,6.243,0,0,1,5.666.056c1.542.923,1.506,2.391-.08,3.282" transform="translate(2.974 9.695)" fill="#bebeba"/>
        <path id="Path_826586" data-name="Path 826586" d="M43.152,102.655a6.243,6.243,0,0,1-5.666-.057c-1.542-.922-1.506-2.391.08-3.282a6.246,6.246,0,0,1,5.666.057c1.542.923,1.506,2.391-.08,3.282" transform="translate(3.728 10.117)" fill="#bebeba"/>
        <path id="Path_826587" data-name="Path 826587" d="M50.5,106.772a6.243,6.243,0,0,1-5.666-.057c-1.542-.922-1.506-2.391.08-3.281a6.243,6.243,0,0,1,5.666.056c1.542.923,1.506,2.391-.08,3.282" transform="translate(4.481 10.539)" fill="#bebeba"/>
        <path id="Path_826588" data-name="Path 826588" d="M51.179,99.956c0-.034,0-.066,0-.1,0,.032,0,.064,0,.1" transform="translate(5.248 10.24)" fill="#6b73bd"/>
        <path id="Path_826589" data-name="Path 826589" d="M51.178,99.961v0" transform="translate(5.248 10.249)" fill="#6b73bd"/>
        <path id="Path_826590" data-name="Path 826590" d="M44.129,99.846a3.87,3.87,0,0,0,1.894,3.342A3.88,3.88,0,0,0,51.9,99.971c0,.034-.008.068-.014.1a.454.454,0,0,1-.013.067c0,.015-.007.033-.01.047a.916.916,0,0,1-.032.107l0,.012c-.012.03-.024.062-.037.093a.057.057,0,0,1-.009.019c-.012.028-.023.054-.039.083a.652.652,0,0,1-.042.076c-.015.028-.032.054-.051.082a1.761,1.761,0,0,1-.208.264,1.312,1.312,0,0,1-.095.1.735.735,0,0,1-.082.074,1.547,1.547,0,0,1-.138.115l-.082.06a.575.575,0,0,1-.06.042c-.08.056-.168.11-.258.161a6.06,6.06,0,0,1-3.875.526,4.873,4.873,0,0,1-1.623-.582c-.063-.036-.123-.075-.181-.116a1.822,1.822,0,0,1-.921-1.453" transform="translate(4.525 10.238)" fill="#6b73bd"/>
        <path id="Path_826591" data-name="Path 826591" d="M44.129,102.113v.007a1.822,1.822,0,0,0,.921,1.453c.057.041.118.079.181.117a4.9,4.9,0,0,0,1.623.581,6.06,6.06,0,0,0,3.875-.526c.09-.051.178-.1.258-.16.021-.014.041-.028.06-.043l.082-.058a1.772,1.772,0,0,0,.138-.116,1.048,1.048,0,0,0,.082-.074,1.314,1.314,0,0,0,.095-.1,1.707,1.707,0,0,0,.208-.264c.019-.028.035-.054.051-.082a.653.653,0,0,0,.042-.076c.015-.029.026-.055.039-.083a.057.057,0,0,0,.009-.019c.013-.03.025-.063.037-.093l0-.012c.011-.035.022-.071.032-.106,0-.015.008-.033.01-.047a.5.5,0,0,0,.013-.068c.007-.035.011-.069.014-.1s0-.073,0-.11l.072-24.46-2.432,1.4a5.243,5.243,0,0,1-2.691.573,7.131,7.131,0,0,1-1.8-.275,5.824,5.824,0,0,1-.857-.313Z" transform="translate(4.525 7.965)" fill="#7d85d4"/>
        <path id="Path_826592" data-name="Path 826592" d="M44.963,79.22v24.2c.393.477,1.148,1.228,1.8.881V79.493a7.138,7.138,0,0,1-1.8-.273" transform="translate(4.611 8.123)" fill="#97a0e6"/>
        <path id="Path_826593" data-name="Path 826593" d="M44.9,86.928v13.947a1.831,1.831,0,0,0,1.086,1.695,4.211,4.211,0,0,0,3.819.039c.019-.011.032-.024.051-.035s.018-.006.025-.01c.037-.021.065-.053.1-.076a2.05,2.05,0,0,0,.224-.17,2.138,2.138,0,0,0,.764-1.615V86.9Z" transform="translate(4.604 8.911)" fill="#00d690"/>
        <path id="Path_826594" data-name="Path 826594" d="M50.125,85.858c1.161.7,1.12,1.811-.089,2.486a4.728,4.728,0,0,1-4.291-.044c-1.16-.7-1.12-1.811.089-2.485a4.728,4.728,0,0,1,4.291.043" transform="translate(4.604 8.749)" fill="#46ffa9"/>
        <path id="Path_826595" data-name="Path 826595" d="M46.986,80.1a5.126,5.126,0,0,1-1.716-.561v.309a5.063,5.063,0,0,0,1.714.561Z" transform="translate(4.642 8.156)" fill="#4a5188"/>
        <path id="Path_826596" data-name="Path 826596" d="M46.983,81.235a5.126,5.126,0,0,1-1.716-.561v.309a5.077,5.077,0,0,0,1.716.561Z" transform="translate(4.642 8.272)" fill="#4a5188"/>
        <path id="Path_826597" data-name="Path 826597" d="M46.979,82.373a5.126,5.126,0,0,1-1.716-.561v.309a5.126,5.126,0,0,0,1.716.561Z" transform="translate(4.641 8.389)" fill="#4a5188"/>
        <path id="Path_826598" data-name="Path 826598" d="M48.388,83.573a5.85,5.85,0,0,1-3.127-.623v.309a5.829,5.829,0,0,0,3.127.623Z" transform="translate(4.641 8.506)" fill="#4a5188"/>
        <path id="Path_826599" data-name="Path 826599" d="M46.973,84.649a5.127,5.127,0,0,1-1.716-.561V84.4a5.126,5.126,0,0,0,1.716.561Z" transform="translate(4.641 8.622)" fill="#4a5188"/>
        <path id="Path_826600" data-name="Path 826600" d="M46.97,85.786a5.126,5.126,0,0,1-1.716-.561v.309a5.063,5.063,0,0,0,1.714.561Z" transform="translate(4.64 8.739)" fill="#4a5188"/>
        <path id="Path_826601" data-name="Path 826601" d="M46.967,86.924a5.126,5.126,0,0,1-1.716-.561v.309a5.126,5.126,0,0,0,1.716.561Z" transform="translate(4.64 8.856)" fill="#4a5188"/>
        <path id="Path_826602" data-name="Path 826602" d="M46.963,88.062a5.126,5.126,0,0,1-1.716-.561v.309a5.063,5.063,0,0,0,1.714.561Z" transform="translate(4.64 8.972)" fill="#4a5188"/>
        <path id="Path_826603" data-name="Path 826603" d="M48.372,89.262a5.85,5.85,0,0,1-3.127-.623v.309a5.85,5.85,0,0,0,3.127.623Z" transform="translate(4.639 9.089)" fill="#4a5188"/>
        <path id="Path_826604" data-name="Path 826604" d="M46.938,97.164a5.124,5.124,0,0,1-1.717-.561v.309a5.126,5.126,0,0,0,1.716.561Z" transform="translate(4.637 9.906)" fill="#4a5188"/>
        <path id="Path_826605" data-name="Path 826605" d="M46.934,98.3a5.126,5.126,0,0,1-1.716-.561v.309a5.077,5.077,0,0,0,1.716.561Z" transform="translate(4.637 10.022)" fill="#4a5188"/>
        <path id="Path_826606" data-name="Path 826606" d="M46.931,99.439a5.127,5.127,0,0,1-1.716-.561v.309a5.126,5.126,0,0,0,1.716.561Z" transform="translate(4.636 10.139)" fill="#4a5188"/>
        <path id="Path_826607" data-name="Path 826607" d="M48.34,100.639a5.841,5.841,0,0,1-3.128-.623v.309a5.829,5.829,0,0,0,3.127.623Z" transform="translate(4.636 10.256)" fill="#4a5188"/>
        <path id="Path_826608" data-name="Path 826608" d="M46.957,90.337a5.126,5.126,0,0,1-1.716-.561v.309a5.078,5.078,0,0,0,1.716.561Z" transform="translate(4.639 9.206)" fill="#4a5188"/>
        <path id="Path_826609" data-name="Path 826609" d="M46.954,91.475a5.126,5.126,0,0,1-1.716-.561v.309a5.077,5.077,0,0,0,1.716.561Z" transform="translate(4.639 9.322)" fill="#4a5188"/>
        <path id="Path_826610" data-name="Path 826610" d="M46.95,92.613a5.126,5.126,0,0,1-1.716-.561v.309a5.126,5.126,0,0,0,1.716.561Z" transform="translate(4.638 9.439)" fill="#4a5188"/>
        <path id="Path_826611" data-name="Path 826611" d="M46.947,93.75a5.126,5.126,0,0,1-1.716-.561V93.5a5.077,5.077,0,0,0,1.716.561Z" transform="translate(4.638 9.556)" fill="#4a5188"/>
        <path id="Path_826612" data-name="Path 826612" d="M48.356,94.95a5.85,5.85,0,0,1-3.127-.623v.309a5.85,5.85,0,0,0,3.127.623Z" transform="translate(4.638 9.672)" fill="#4a5188"/>
        <path id="Path_826613" data-name="Path 826613" d="M46.941,96.026a5.126,5.126,0,0,1-1.716-.561v.309a5.078,5.078,0,0,0,1.716.561Z" transform="translate(4.637 9.789)" fill="#4a5188"/>
        <path id="Path_826614" data-name="Path 826614" d="M21.568,82.857c0-.034,0-.066,0-.1,0,.032,0,.064,0,.1" transform="translate(2.212 8.486)" fill="#6b73bd"/>
        <path id="Path_826615" data-name="Path 826615" d="M21.568,82.862v0Z" transform="translate(2.212 8.495)" fill="#6b73bd"/>
        <path id="Path_826616" data-name="Path 826616" d="M21.118,84.372a6.06,6.06,0,0,1-5.5-.055,1.922,1.922,0,0,1-1.1-1.576,3.887,3.887,0,0,0,7.772.132,2.024,2.024,0,0,1-1.173,1.5" transform="translate(1.489 8.484)" fill="#6b73bd"/>
        <path id="Path_826617" data-name="Path 826617" d="M14.519,84.88a1.815,1.815,0,0,0,.918,1.46c.058.041.119.079.182.117a4.878,4.878,0,0,0,1.624.581,6.047,6.047,0,0,0,3.873-.527A1.955,1.955,0,0,0,22.294,84.9l.055-18.551L17.243,63.4v-.082c-.075-.013-.15-.03-.223-.047l-1.244-.719-.34-.194-.856-.494Z" transform="translate(1.489 6.344)" fill="#6b73bd"/>
        <path id="Path_826618" data-name="Path 826618" d="M15.353,62.316V86.3c.393.477,1.149,1.228,1.8.882V63.276c-.075-.013-.149-.03-.222-.047l-1.245-.719Z" transform="translate(1.574 6.39)" fill="#97a0e6"/>
        <path id="Path_826619" data-name="Path 826619" d="M15.658,62.741a4.728,4.728,0,0,0,1.247.47l-1.246-.719Z" transform="translate(1.606 6.408)" fill="#4a5188"/>
        <path id="Path_826620" data-name="Path 826620" d="M17.372,64.136a5.126,5.126,0,0,1-1.716-.561v.309a5.077,5.077,0,0,0,1.716.561Z" transform="translate(1.605 6.519)" fill="#4a5188"/>
        <path id="Path_826621" data-name="Path 826621" d="M17.369,65.274a5.126,5.126,0,0,1-1.716-.561v.309a5.126,5.126,0,0,0,1.716.561Z" transform="translate(1.605 6.636)" fill="#4a5188"/>
        <path id="Path_826622" data-name="Path 826622" d="M18.777,66.473a5.85,5.85,0,0,1-3.127-.623v.309a5.829,5.829,0,0,0,3.127.623Z" transform="translate(1.605 6.752)" fill="#4a5188"/>
        <path id="Path_826623" data-name="Path 826623" d="M17.363,67.549a5.126,5.126,0,0,1-1.716-.561V67.3a5.126,5.126,0,0,0,1.716.561Z" transform="translate(1.604 6.869)" fill="#4a5188"/>
        <path id="Path_826624" data-name="Path 826624" d="M17.359,68.687a5.126,5.126,0,0,1-1.716-.561v.309A5.077,5.077,0,0,0,17.358,69Z" transform="translate(1.604 6.986)" fill="#4a5188"/>
        <path id="Path_826625" data-name="Path 826625" d="M17.356,69.825a5.127,5.127,0,0,1-1.716-.561v.309a5.126,5.126,0,0,0,1.716.561Z" transform="translate(1.604 7.102)" fill="#4a5188"/>
        <path id="Path_826626" data-name="Path 826626" d="M17.353,70.962a5.127,5.127,0,0,1-1.716-.561v.309a5.078,5.078,0,0,0,1.716.561Z" transform="translate(1.603 7.219)" fill="#4a5188"/>
        <path id="Path_826627" data-name="Path 826627" d="M18.761,72.162a5.85,5.85,0,0,1-3.127-.623v.309a5.85,5.85,0,0,0,3.127.623Z" transform="translate(1.603 7.336)" fill="#4a5188"/>
        <path id="Path_826628" data-name="Path 826628" d="M17.327,80.064a5.126,5.126,0,0,1-1.716-.561v.309a5.126,5.126,0,0,0,1.716.561Z" transform="translate(1.601 8.152)" fill="#4a5188"/>
        <path id="Path_826629" data-name="Path 826629" d="M17.324,81.2a5.127,5.127,0,0,1-1.716-.561v.309a5.077,5.077,0,0,0,1.716.561Z" transform="translate(1.6 8.269)" fill="#4a5188"/>
        <path id="Path_826630" data-name="Path 826630" d="M17.321,82.34a5.126,5.126,0,0,1-1.716-.561v.309a5.126,5.126,0,0,0,1.716.561Z" transform="translate(1.6 8.386)" fill="#4a5188"/>
        <path id="Path_826631" data-name="Path 826631" d="M18.729,83.54a5.85,5.85,0,0,1-3.127-.623v.309a5.829,5.829,0,0,0,3.127.623Z" transform="translate(1.6 8.502)" fill="#4a5188"/>
        <path id="Path_826632" data-name="Path 826632" d="M17.347,73.238a5.124,5.124,0,0,1-1.717-.561v.309a5.079,5.079,0,0,0,1.714.561Z" transform="translate(1.603 7.452)" fill="#4a5188"/>
        <path id="Path_826633" data-name="Path 826633" d="M17.343,74.375a5.126,5.126,0,0,1-1.716-.561v.309a5.063,5.063,0,0,0,1.714.561Z" transform="translate(1.602 7.569)" fill="#4a5188"/>
        <path id="Path_826634" data-name="Path 826634" d="M17.34,75.513a5.126,5.126,0,0,1-1.716-.561v.309a5.126,5.126,0,0,0,1.716.561Z" transform="translate(1.602 7.686)" fill="#4a5188"/>
        <path id="Path_826635" data-name="Path 826635" d="M17.337,76.651a5.126,5.126,0,0,1-1.716-.561V76.4a5.077,5.077,0,0,0,1.716.561Z" transform="translate(1.602 7.802)" fill="#4a5188"/>
        <path id="Path_826636" data-name="Path 826636" d="M18.745,77.851a5.85,5.85,0,0,1-3.127-.623v.309a5.85,5.85,0,0,0,3.127.623Z" transform="translate(1.601 7.919)" fill="#4a5188"/>
        <path id="Path_826637" data-name="Path 826637" d="M17.33,78.926a5.126,5.126,0,0,1-1.716-.561v.309a5.077,5.077,0,0,0,1.716.561Z" transform="translate(1.601 8.036)" fill="#4a5188"/>
        <path id="Path_826638" data-name="Path 826638" d="M28.971,87.132c0-.034,0-.066,0-.1,0,.033,0,.065,0,.1" transform="translate(2.971 8.925)" fill="#6b73bd"/>
        <path id="Path_826639" data-name="Path 826639" d="M28.97,87.136v0" transform="translate(2.971 8.934)" fill="#6b73bd"/>
        <path id="Path_826640" data-name="Path 826640" d="M28.52,88.647a6.06,6.06,0,0,1-5.5-.055,1.922,1.922,0,0,1-1.1-1.576,3.887,3.887,0,0,0,7.772.132,2.024,2.024,0,0,1-1.173,1.5" transform="translate(2.248 8.923)" fill="#6b73bd"/>
        <path id="Path_826641" data-name="Path 826641" d="M21.921,89.155a1.822,1.822,0,0,0,.92,1.46c.058.041.119.079.182.117a4.872,4.872,0,0,0,1.623.581,6.053,6.053,0,0,0,3.875-.527A1.957,1.957,0,0,0,29.7,89.177l.054-18.551-5.106-2.948V67.6c-.074-.013-.149-.03-.222-.047l-1.245-.719-.338-.194-.856-.494Z" transform="translate(2.248 6.782)" fill="#6b73bd"/>
        <path id="Path_826642" data-name="Path 826642" d="M22.756,66.59V90.574c.391.477,1.149,1.228,1.8.882V67.55c-.075-.013-.149-.03-.222-.047l-1.244-.719Z" transform="translate(2.333 6.828)" fill="#97a0e6"/>
        <path id="Path_826643" data-name="Path 826643" d="M23.061,67.015a4.728,4.728,0,0,0,1.247.47l-1.246-.719Z" transform="translate(2.365 6.846)" fill="#4a5188"/>
        <path id="Path_826644" data-name="Path 826644" d="M24.775,68.411a5.126,5.126,0,0,1-1.716-.561v.309a5.077,5.077,0,0,0,1.716.561Z" transform="translate(2.364 6.957)" fill="#4a5188"/>
        <path id="Path_826645" data-name="Path 826645" d="M24.772,69.548a5.126,5.126,0,0,1-1.716-.561V69.3a5.126,5.126,0,0,0,1.716.561Z" transform="translate(2.364 7.074)" fill="#4a5188"/>
        <path id="Path_826646" data-name="Path 826646" d="M26.18,70.748a5.85,5.85,0,0,1-3.127-.623v.309a5.829,5.829,0,0,0,3.127.623Z" transform="translate(2.364 7.191)" fill="#4a5188"/>
        <path id="Path_826647" data-name="Path 826647" d="M24.765,71.824a5.126,5.126,0,0,1-1.716-.561v.309a5.126,5.126,0,0,0,1.716.561Z" transform="translate(2.363 7.307)" fill="#4a5188"/>
        <path id="Path_826648" data-name="Path 826648" d="M24.762,72.962a5.127,5.127,0,0,1-1.716-.561v.309a5.077,5.077,0,0,0,1.716.561Z" transform="translate(2.363 7.424)" fill="#4a5188"/>
        <path id="Path_826649" data-name="Path 826649" d="M24.759,74.1a5.126,5.126,0,0,1-1.716-.561v.309a5.127,5.127,0,0,0,1.716.561Z" transform="translate(2.363 7.541)" fill="#4a5188"/>
        <path id="Path_826650" data-name="Path 826650" d="M24.756,75.237a5.141,5.141,0,0,1-1.717-.561v.309a5.094,5.094,0,0,0,1.716.561Z" transform="translate(2.362 7.657)" fill="#4a5188"/>
        <path id="Path_826651" data-name="Path 826651" d="M26.164,76.437a5.85,5.85,0,0,1-3.127-.623v.309a5.85,5.85,0,0,0,3.127.623Z" transform="translate(2.362 7.774)" fill="#4a5188"/>
        <path id="Path_826652" data-name="Path 826652" d="M24.73,84.339a5.127,5.127,0,0,1-1.716-.561v.309a5.126,5.126,0,0,0,1.716.561Z" transform="translate(2.36 8.591)" fill="#4a5188"/>
        <path id="Path_826653" data-name="Path 826653" d="M24.726,85.477a5.127,5.127,0,0,1-1.716-.561v.309a5.063,5.063,0,0,0,1.714.561Z" transform="translate(2.359 8.707)" fill="#4a5188"/>
        <path id="Path_826654" data-name="Path 826654" d="M24.723,86.615a5.127,5.127,0,0,1-1.716-.561v.309a5.127,5.127,0,0,0,1.716.561Z" transform="translate(2.359 8.824)" fill="#4a5188"/>
        <path id="Path_826655" data-name="Path 826655" d="M26.132,87.815a5.85,5.85,0,0,1-3.127-.623V87.5a5.829,5.829,0,0,0,3.127.623Z" transform="translate(2.359 8.941)" fill="#4a5188"/>
        <path id="Path_826656" data-name="Path 826656" d="M24.749,77.513a5.126,5.126,0,0,1-1.716-.561v.309a5.077,5.077,0,0,0,1.716.561Z" transform="translate(2.362 7.891)" fill="#4a5188"/>
        <path id="Path_826657" data-name="Path 826657" d="M24.746,78.65a5.126,5.126,0,0,1-1.716-.561V78.4a5.077,5.077,0,0,0,1.716.561Z" transform="translate(2.361 8.007)" fill="#4a5188"/>
        <path id="Path_826658" data-name="Path 826658" d="M24.743,79.788a5.126,5.126,0,0,1-1.716-.561v.309a5.126,5.126,0,0,0,1.716.561Z" transform="translate(2.361 8.124)" fill="#4a5188"/>
        <path id="Path_826659" data-name="Path 826659" d="M24.739,80.926a5.126,5.126,0,0,1-1.716-.561v.309a5.077,5.077,0,0,0,1.716.561Z" transform="translate(2.361 8.241)" fill="#4a5188"/>
        <path id="Path_826660" data-name="Path 826660" d="M26.148,82.126a5.85,5.85,0,0,1-3.127-.623v.309a5.85,5.85,0,0,0,3.127.623Z" transform="translate(2.36 8.357)" fill="#4a5188"/>
        <path id="Path_826661" data-name="Path 826661" d="M24.733,83.2a5.126,5.126,0,0,1-1.716-.561v.309a5.077,5.077,0,0,0,1.716.561Z" transform="translate(2.36 8.474)" fill="#4a5188"/>
        <path id="Path_826662" data-name="Path 826662" d="M36.374,91.407c0-.034,0-.066,0-.1,0,.032,0,.064,0,.1" transform="translate(3.73 9.363)" fill="#6b73bd"/>
        <path id="Path_826663" data-name="Path 826663" d="M36.373,91.411v0" transform="translate(3.73 9.372)" fill="#6b73bd"/>
        <path id="Path_826664" data-name="Path 826664" d="M35.923,92.922a6.06,6.06,0,0,1-5.5-.055,1.92,1.92,0,0,1-1.1-1.576,3.887,3.887,0,0,0,7.772.132,2.024,2.024,0,0,1-1.173,1.5" transform="translate(3.007 9.361)" fill="#6b73bd"/>
        <path id="Path_826665" data-name="Path 826665" d="M29.324,93.43a1.822,1.822,0,0,0,.92,1.46c.058.041.119.079.182.117a4.873,4.873,0,0,0,1.623.581,6.053,6.053,0,0,0,3.875-.527A1.957,1.957,0,0,0,37.1,93.452L37.154,74.9l-5.106-2.948v-.082c-.074-.013-.149-.03-.222-.047L30.582,71.1l-.338-.194-.856-.494Z" transform="translate(3.007 7.221)" fill="#6b73bd"/>
        <path id="Path_826666" data-name="Path 826666" d="M30.158,70.865V94.849c.393.477,1.149,1.228,1.8.882V71.825c-.075-.013-.149-.03-.222-.047L30.5,71.059Z" transform="translate(3.092 7.267)" fill="#97a0e6"/>
        <path id="Path_826667" data-name="Path 826667" d="M30.463,71.29a4.728,4.728,0,0,0,1.247.47l-1.246-.718Z" transform="translate(3.124 7.285)" fill="#4a5188"/>
        <path id="Path_826668" data-name="Path 826668" d="M32.178,72.685a5.127,5.127,0,0,1-1.716-.561v.309a5.079,5.079,0,0,0,1.714.561Z" transform="translate(3.123 7.396)" fill="#4a5188"/>
        <path id="Path_826669" data-name="Path 826669" d="M32.174,73.823a5.126,5.126,0,0,1-1.716-.561v.309a5.126,5.126,0,0,0,1.716.561Z" transform="translate(3.123 7.512)" fill="#4a5188"/>
        <path id="Path_826670" data-name="Path 826670" d="M33.583,75.023a5.85,5.85,0,0,1-3.127-.623v.309a5.829,5.829,0,0,0,3.127.623Z" transform="translate(3.123 7.629)" fill="#4a5188"/>
        <path id="Path_826671" data-name="Path 826671" d="M32.168,76.1a5.126,5.126,0,0,1-1.716-.561v.309a5.112,5.112,0,0,0,1.714.561Z" transform="translate(3.123 7.746)" fill="#4a5188"/>
        <path id="Path_826672" data-name="Path 826672" d="M32.165,77.236a5.126,5.126,0,0,1-1.716-.561v.309a5.077,5.077,0,0,0,1.716.561Z" transform="translate(3.122 7.862)" fill="#4a5188"/>
        <path id="Path_826673" data-name="Path 826673" d="M32.161,78.374a5.126,5.126,0,0,1-1.716-.561v.309a5.126,5.126,0,0,0,1.716.561Z" transform="translate(3.122 7.979)" fill="#4a5188"/>
        <path id="Path_826674" data-name="Path 826674" d="M32.158,79.512a5.126,5.126,0,0,1-1.716-.561v.309a5.077,5.077,0,0,0,1.716.561Z" transform="translate(3.121 8.096)" fill="#4a5188"/>
        <path id="Path_826675" data-name="Path 826675" d="M33.567,80.712a5.85,5.85,0,0,1-3.127-.623V80.4a5.85,5.85,0,0,0,3.127.623Z" transform="translate(3.121 8.212)" fill="#4a5188"/>
        <path id="Path_826676" data-name="Path 826676" d="M32.132,88.614a5.126,5.126,0,0,1-1.716-.561v.309a5.126,5.126,0,0,0,1.716.561Z" transform="translate(3.119 9.029)" fill="#4a5188"/>
        <path id="Path_826677" data-name="Path 826677" d="M32.129,89.752a5.126,5.126,0,0,1-1.716-.561V89.5a5.078,5.078,0,0,0,1.716.561Z" transform="translate(3.118 9.146)" fill="#4a5188"/>
        <path id="Path_826678" data-name="Path 826678" d="M32.126,90.89a5.127,5.127,0,0,1-1.716-.561v.309a5.126,5.126,0,0,0,1.716.561Z" transform="translate(3.118 9.262)" fill="#4a5188"/>
        <path id="Path_826679" data-name="Path 826679" d="M33.534,92.089a5.85,5.85,0,0,1-3.127-.623v.309a5.829,5.829,0,0,0,3.127.623Z" transform="translate(3.118 9.379)" fill="#4a5188"/>
        <path id="Path_826680" data-name="Path 826680" d="M32.152,81.788a5.126,5.126,0,0,1-1.716-.561v.309a5.077,5.077,0,0,0,1.716.561Z" transform="translate(3.121 8.329)" fill="#4a5188"/>
        <path id="Path_826681" data-name="Path 826681" d="M32.149,82.925a5.124,5.124,0,0,1-1.717-.561v.309a5.093,5.093,0,0,0,1.716.561Z" transform="translate(3.12 8.446)" fill="#4a5188"/>
        <path id="Path_826682" data-name="Path 826682" d="M32.145,84.063a5.126,5.126,0,0,1-1.716-.561v.309a5.112,5.112,0,0,0,1.714.561Z" transform="translate(3.12 8.562)" fill="#4a5188"/>
        <path id="Path_826683" data-name="Path 826683" d="M32.142,85.2a5.127,5.127,0,0,1-1.716-.561v.309a5.078,5.078,0,0,0,1.716.561Z" transform="translate(3.12 8.679)" fill="#4a5188"/>
        <path id="Path_826684" data-name="Path 826684" d="M33.55,86.4a5.85,5.85,0,0,1-3.127-.623v.309a5.85,5.85,0,0,0,3.127.623Z" transform="translate(3.119 8.796)" fill="#4a5188"/>
        <path id="Path_826685" data-name="Path 826685" d="M32.136,87.476a5.127,5.127,0,0,1-1.716-.561v.309a5.078,5.078,0,0,0,1.716.561Z" transform="translate(3.119 8.912)" fill="#4a5188"/>
        <path id="Path_826686" data-name="Path 826686" d="M43.776,95.682c0-.034,0-.066,0-.1,0,.032,0,.064,0,.1" transform="translate(4.489 9.801)" fill="#6b73bd"/>
        <path id="Path_826687" data-name="Path 826687" d="M43.776,95.686v0" transform="translate(4.489 9.81)" fill="#6b73bd"/>
        <path id="Path_826688" data-name="Path 826688" d="M43.325,97.2a6.06,6.06,0,0,1-5.5-.055,1.92,1.92,0,0,1-1.1-1.576A3.887,3.887,0,0,0,44.5,95.7a2.024,2.024,0,0,1-1.173,1.5" transform="translate(3.766 9.799)" fill="#6b73bd"/>
        <path id="Path_826689" data-name="Path 826689" d="M36.726,97.705a1.821,1.821,0,0,0,.921,1.46c.057.041.118.079.181.117a4.872,4.872,0,0,0,1.623.581,6.053,6.053,0,0,0,3.875-.527A1.956,1.956,0,0,0,44.5,97.727l.054-18.551L39.45,76.228v-.082c-.074-.013-.149-.03-.222-.047l-1.245-.718-.337-.2-.857-.494Z" transform="translate(3.766 7.659)" fill="#6b73bd"/>
        <path id="Path_826690" data-name="Path 826690" d="M37.561,75.14V99.124c.393.477,1.149,1.228,1.8.882V76.1c-.075-.013-.149-.03-.222-.047L37.9,75.334Z" transform="translate(3.852 7.705)" fill="#97a0e6"/>
        <path id="Path_826691" data-name="Path 826691" d="M37.866,75.565a4.729,4.729,0,0,0,1.247.47l-1.245-.718Z" transform="translate(3.883 7.723)" fill="#4a5188"/>
        <path id="Path_826692" data-name="Path 826692" d="M39.58,76.96a5.126,5.126,0,0,1-1.716-.561v.309a5.077,5.077,0,0,0,1.716.561Z" transform="translate(3.882 7.834)" fill="#4a5188"/>
        <path id="Path_826693" data-name="Path 826693" d="M39.577,78.1a5.126,5.126,0,0,1-1.716-.561v.309a5.126,5.126,0,0,0,1.716.561Z" transform="translate(3.882 7.951)" fill="#4a5188"/>
        <path id="Path_826694" data-name="Path 826694" d="M40.985,79.3a5.85,5.85,0,0,1-3.127-.623v.309a5.829,5.829,0,0,0,3.127.623Z" transform="translate(3.882 8.067)" fill="#4a5188"/>
        <path id="Path_826695" data-name="Path 826695" d="M39.57,80.374a5.126,5.126,0,0,1-1.716-.561v.309a5.126,5.126,0,0,0,1.716.561Z" transform="translate(3.881 8.184)" fill="#4a5188"/>
        <path id="Path_826696" data-name="Path 826696" d="M39.567,81.511a5.127,5.127,0,0,1-1.716-.561v.309a5.077,5.077,0,0,0,1.716.561Z" transform="translate(3.881 8.301)" fill="#4a5188"/>
        <path id="Path_826697" data-name="Path 826697" d="M39.564,82.649a5.126,5.126,0,0,1-1.716-.561V82.4a5.126,5.126,0,0,0,1.716.561Z" transform="translate(3.881 8.417)" fill="#4a5188"/>
        <path id="Path_826698" data-name="Path 826698" d="M39.561,83.787a5.126,5.126,0,0,1-1.716-.561v.309a5.077,5.077,0,0,0,1.716.561Z" transform="translate(3.881 8.534)" fill="#4a5188"/>
        <path id="Path_826699" data-name="Path 826699" d="M40.969,84.987a5.85,5.85,0,0,1-3.127-.623v.309a5.85,5.85,0,0,0,3.127.623Z" transform="translate(3.88 8.651)" fill="#4a5188"/>
        <path id="Path_826700" data-name="Path 826700" d="M39.535,92.889a5.126,5.126,0,0,1-1.716-.561v.309a5.126,5.126,0,0,0,1.716.561Z" transform="translate(3.878 9.467)" fill="#4a5188"/>
        <path id="Path_826701" data-name="Path 826701" d="M39.532,94.027a5.126,5.126,0,0,1-1.716-.561v.309a5.077,5.077,0,0,0,1.716.561Z" transform="translate(3.878 9.584)" fill="#4a5188"/>
        <path id="Path_826702" data-name="Path 826702" d="M39.528,95.165a5.126,5.126,0,0,1-1.716-.561v.309a5.126,5.126,0,0,0,1.716.561Z" transform="translate(3.877 9.701)" fill="#4a5188"/>
        <path id="Path_826703" data-name="Path 826703" d="M40.937,96.364a5.85,5.85,0,0,1-3.127-.623v.309a5.829,5.829,0,0,0,3.127.623Z" transform="translate(3.877 9.817)" fill="#4a5188"/>
        <path id="Path_826704" data-name="Path 826704" d="M39.554,86.062a5.126,5.126,0,0,1-1.716-.561v.309a5.077,5.077,0,0,0,1.716.561Z" transform="translate(3.88 8.767)" fill="#4a5188"/>
        <path id="Path_826705" data-name="Path 826705" d="M39.551,87.2a5.127,5.127,0,0,1-1.716-.561v.309a5.077,5.077,0,0,0,1.716.561Z" transform="translate(3.88 8.884)" fill="#4a5188"/>
        <path id="Path_826706" data-name="Path 826706" d="M39.548,88.338a5.126,5.126,0,0,1-1.716-.561v.309a5.126,5.126,0,0,0,1.716.561Z" transform="translate(3.879 9.001)" fill="#4a5188"/>
        <path id="Path_826707" data-name="Path 826707" d="M39.545,89.475a5.126,5.126,0,0,1-1.716-.561v.309a5.063,5.063,0,0,0,1.714.561Z" transform="translate(3.879 9.117)" fill="#4a5188"/>
        <path id="Path_826708" data-name="Path 826708" d="M40.953,90.676a5.85,5.85,0,0,1-3.127-.623v.309a5.85,5.85,0,0,0,3.127.623Z" transform="translate(3.879 9.234)" fill="#4a5188"/>
        <path id="Path_826709" data-name="Path 826709" d="M39.538,91.751a5.126,5.126,0,0,1-1.716-.561V91.5a5.077,5.077,0,0,0,1.716.561Z" transform="translate(3.878 9.351)" fill="#4a5188"/>
        <path id="Path_826710" data-name="Path 826710" d="M44.806,113.3V79.05l1.752-.024V113.3a.437.437,0,0,1-.258.358,1.368,1.368,0,0,1-1.239,0,.43.43,0,0,1-.255-.358" transform="translate(4.594 8.103)" fill="#dbe2ff"/>
        <path id="Path_826711" data-name="Path 826711" d="M9.368,92.838V58.59l1.752-.024v34.27a.437.437,0,0,1-.258.358,1.368,1.368,0,0,1-1.239,0,.43.43,0,0,1-.255-.358" transform="translate(0.961 6.005)" fill="#dbe2ff"/>
        <path id="Path_826712" data-name="Path 826712" d="M1.414,67.353,36.953,87.872a6.464,6.464,0,0,0,5.793.24l17.492-10.1c1.48-.853,1.292-2.359-.416-3.345L24.282,54.15a6.464,6.464,0,0,0-5.793-.24L1,64.009c-1.479.853-1.291,2.358.417,3.344m21.511-7.321a6.491,6.491,0,0,1-5.872.011c-1.616-.933-1.608-2.451.019-3.39a6.488,6.488,0,0,1,5.871-.01c1.617.933,1.609,2.451-.018,3.389m8.14,4.7a6.488,6.488,0,0,1-5.871.011c-1.616-.934-1.609-2.451.018-3.39a6.491,6.491,0,0,1,5.872-.011c1.616.934,1.609,2.451-.019,3.39m8.141,4.7a6.491,6.491,0,0,1-5.872.011c-1.616-.934-1.608-2.451.019-3.39a6.488,6.488,0,0,1,5.871-.011c1.616.934,1.609,2.451-.018,3.39m10.428,6.021a6.488,6.488,0,0,1,5.871-.011c1.616.933,1.609,2.451-.018,3.39a6.487,6.487,0,0,1-5.872.01c-1.616-.933-1.608-2.451.019-3.389m-2.288-1.321a6.488,6.488,0,0,1-5.871.011c-1.616-.934-1.609-2.451.018-3.39a6.491,6.491,0,0,1,5.872-.011c1.616.934,1.609,2.451-.019,3.39m-9.034,7.857a6.488,6.488,0,0,1,5.871-.01c1.617.933,1.609,2.451-.018,3.39a6.491,6.491,0,0,1-5.872.01c-1.616-.933-1.608-2.451.019-3.39m-8.141-4.7a6.491,6.491,0,0,1,5.872-.011c1.616.933,1.609,2.451-.019,3.39a6.488,6.488,0,0,1-5.871.01c-1.616-.933-1.609-2.451.018-3.389m-8.14-4.7a6.491,6.491,0,0,1,5.872-.011c1.616.934,1.608,2.451-.019,3.39a6.487,6.487,0,0,1-5.872.01c-1.616-.933-1.608-2.451.019-3.389m-8.141-4.7a6.491,6.491,0,0,1,5.872-.011c1.616.934,1.609,2.451-.019,3.39a6.488,6.488,0,0,1-5.871.011c-1.616-.934-1.609-2.451.018-3.39m-8.14-4.7a6.491,6.491,0,0,1,5.872-.011c1.616.934,1.608,2.451-.019,3.39a6.491,6.491,0,0,1-5.872.011c-1.616-.934-1.608-2.451.019-3.39" transform="translate(0 5.469)" fill="#aeb1c2"/>
        <path id="Path_826713" data-name="Path 826713" d="M1.414,66.449,36.953,86.968a6.464,6.464,0,0,0,5.793.24l17.492-10.1c1.48-.853,1.292-2.358-.416-3.345L24.282,53.246a6.464,6.464,0,0,0-5.793-.24L1,63.1c-1.479.853-1.291,2.358.417,3.344m21.511-7.321a6.491,6.491,0,0,1-5.872.011c-1.616-.933-1.608-2.451.019-3.39a6.488,6.488,0,0,1,5.871-.01c1.617.933,1.609,2.451-.018,3.389m8.14,4.7a6.488,6.488,0,0,1-5.871.011c-1.616-.934-1.609-2.451.018-3.39a6.487,6.487,0,0,1,5.872-.01c1.616.933,1.609,2.45-.019,3.389m8.141,4.7a6.491,6.491,0,0,1-5.872.011c-1.616-.934-1.608-2.451.019-3.39a6.488,6.488,0,0,1,5.871-.011c1.616.934,1.609,2.451-.018,3.39m10.428,6.021a6.488,6.488,0,0,1,5.871-.011c1.616.934,1.609,2.451-.018,3.39a6.487,6.487,0,0,1-5.872.01c-1.616-.933-1.608-2.451.019-3.389m-2.288-1.321a6.488,6.488,0,0,1-5.871.011c-1.616-.934-1.609-2.451.018-3.39a6.491,6.491,0,0,1,5.872-.011c1.616.934,1.609,2.451-.019,3.39m-9.034,7.857a6.488,6.488,0,0,1,5.871-.01c1.617.933,1.609,2.451-.018,3.39a6.491,6.491,0,0,1-5.872.01c-1.616-.933-1.608-2.451.019-3.39m-8.141-4.7a6.491,6.491,0,0,1,5.872-.011c1.616.933,1.609,2.451-.019,3.39a6.488,6.488,0,0,1-5.871.01c-1.616-.933-1.609-2.451.018-3.389m-8.14-4.7a6.491,6.491,0,0,1,5.872-.011c1.616.934,1.608,2.451-.019,3.39a6.487,6.487,0,0,1-5.872.01c-1.616-.933-1.608-2.451.019-3.389m-8.141-4.7a6.491,6.491,0,0,1,5.872-.011c1.616.934,1.609,2.451-.019,3.39a6.488,6.488,0,0,1-5.871.011c-1.616-.934-1.609-2.451.018-3.39m-8.14-4.7a6.491,6.491,0,0,1,5.872-.011c1.616.934,1.608,2.451-.019,3.39a6.491,6.491,0,0,1-5.872.011c-1.616-.934-1.608-2.451.019-3.39" transform="translate(0 5.376)" fill="#dbdde9"/>
        <path id="Path_826714" data-name="Path 826714" d="M40.909,105.886c0-.034,0-.066,0-.1,0,.032,0,.064,0,.1" transform="translate(4.195 10.848)" fill="#6b73bd"/>
        <path id="Path_826715" data-name="Path 826715" d="M40.909,105.89v0" transform="translate(4.195 10.857)" fill="#6b73bd"/>
        <path id="Path_826716" data-name="Path 826716" d="M33.859,105.775a3.87,3.87,0,0,0,1.894,3.342,3.892,3.892,0,0,0,5.366-1.4,3.83,3.83,0,0,0,.512-1.82.866.866,0,0,1-.014.1.5.5,0,0,1-.013.068.347.347,0,0,1-.01.046.915.915,0,0,1-.032.107l0,.012c-.012.03-.024.062-.037.093a.057.057,0,0,1-.009.019.9.9,0,0,1-.039.083.651.651,0,0,1-.042.076c-.015.028-.032.054-.051.082a1.63,1.63,0,0,1-.208.264,1.316,1.316,0,0,1-.095.1.65.65,0,0,1-.082.074,1.555,1.555,0,0,1-.138.115c-.028.021-.054.041-.082.06a.574.574,0,0,1-.06.042,2.93,2.93,0,0,1-.258.161,6.06,6.06,0,0,1-3.875.526,4.9,4.9,0,0,1-1.623-.581c-.063-.037-.123-.076-.181-.117a1.824,1.824,0,0,1-.921-1.453" transform="translate(3.472 10.846)" fill="#6b73bd"/>
        <path id="Path_826717" data-name="Path 826717" d="M41.708,80.815l0-.479v-.225l0-.766V78.63a1.323,1.323,0,0,1-.114.536,1.609,1.609,0,0,1-.238.395h0a1.459,1.459,0,0,1-.157.176,2.9,2.9,0,0,1-.669.5,6.056,6.056,0,0,1-5.5-.056,2.839,2.839,0,0,1-.631-.5c-.046-.049-.088-.1-.127-.147a1.689,1.689,0,0,1-.262-.474,1.348,1.348,0,0,1-.082-.456v.663l0,.82v.08l0,.86a2.774,2.774,0,0,0,.842.734c.013.009.029.017.043.025a5.269,5.269,0,0,0,1.762.6,6.463,6.463,0,0,0,4.108-.612,2.656,2.656,0,0,0,1.023-.966" transform="translate(3.479 8.061)" fill="#6b73bd"/>
        <path id="Path_826718" data-name="Path 826718" d="M33.859,108.042v.007a1.824,1.824,0,0,0,.921,1.453c.057.041.118.079.181.117a4.9,4.9,0,0,0,1.623.581,6.06,6.06,0,0,0,3.875-.526c.092-.051.178-.1.258-.16.021-.014.041-.028.06-.043l.082-.058A1.781,1.781,0,0,0,41,109.3a.88.88,0,0,0,.082-.074,1.313,1.313,0,0,0,.095-.1,1.584,1.584,0,0,0,.208-.264c.019-.028.035-.054.051-.082a.651.651,0,0,0,.042-.076.787.787,0,0,0,.039-.083.057.057,0,0,0,.009-.019c.013-.03.025-.063.037-.093l0-.012c.012-.035.022-.071.032-.106a.4.4,0,0,0,.01-.047.5.5,0,0,0,.013-.068.88.88,0,0,0,.014-.1c0-.037,0-.073,0-.11L41.707,83.6l-2.432,1.4a5.252,5.252,0,0,1-2.691.573,7.131,7.131,0,0,1-1.8-.275,5.955,5.955,0,0,1-.857-.313Z" transform="translate(3.472 8.573)" fill="#7d85d4"/>
        <path id="Path_826719" data-name="Path 826719" d="M34.694,80.925v.6l.042.025a5.283,5.283,0,0,0,1.763.6v-.617a6.433,6.433,0,0,1-1.8-.614" transform="translate(3.558 8.298)" fill="#97a0e6"/>
        <path id="Path_826720" data-name="Path 826720" d="M34.694,85.149v24.2c.393.477,1.149,1.228,1.8.881v-24.8a7.2,7.2,0,0,1-1.8-.275" transform="translate(3.558 8.731)" fill="#97a0e6"/>
        <path id="Path_826721" data-name="Path 826721" d="M41.144,80.066A7.253,7.253,0,0,1,34.56,80c-1.793-1.072-1.751-2.779.094-3.814a7.253,7.253,0,0,1,6.584.066c1.792,1.072,1.751,2.779-.094,3.814" transform="translate(3.409 7.735)" fill="#97a0e6"/>
        <path id="Path_826722" data-name="Path 826722" d="M41.144,79.817a7.253,7.253,0,0,1-6.584-.066,2.3,2.3,0,0,1-1.318-1.886l0,.818a2.3,2.3,0,0,0,1.318,1.886,7.257,7.257,0,0,0,6.584.067,2.342,2.342,0,0,0,1.41-1.927l0-.819a2.345,2.345,0,0,1-1.411,1.927" transform="translate(3.408 7.984)" fill="#6b73bd"/>
        <path id="Path_826723" data-name="Path 826723" d="M34.666,98.57v8.6a1.831,1.831,0,0,0,1.086,1.695,4.211,4.211,0,0,0,3.819.039c.019-.011.032-.024.051-.035s.018-.006.025-.01c.037-.02.065-.053.1-.076a2.051,2.051,0,0,0,.224-.17,2.138,2.138,0,0,0,.764-1.614V98.544Z" transform="translate(3.555 10.105)" fill="#e2101f"/>
        <path id="Path_826724" data-name="Path 826724" d="M39.89,97.5c1.16.7,1.12,1.811-.089,2.485a4.728,4.728,0,0,1-4.291-.043c-1.16-.7-1.12-1.811.089-2.485a4.728,4.728,0,0,1,4.291.043" transform="translate(3.555 9.943)" fill="#ff223b"/>
        <path id="Path_826725" data-name="Path 826725" d="M36.716,86.027A5.126,5.126,0,0,1,35,85.466v.309a5.077,5.077,0,0,0,1.716.561Z" transform="translate(3.589 8.764)" fill="#4a5188"/>
        <path id="Path_826726" data-name="Path 826726" d="M36.713,87.164A5.126,5.126,0,0,1,35,86.6v.309a5.077,5.077,0,0,0,1.716.561Z" transform="translate(3.589 8.88)" fill="#4a5188"/>
        <path id="Path_826727" data-name="Path 826727" d="M36.71,88.3a5.126,5.126,0,0,1-1.716-.561v.309a5.126,5.126,0,0,0,1.716.561Z" transform="translate(3.588 8.997)" fill="#4a5188"/>
        <path id="Path_826728" data-name="Path 826728" d="M38.118,89.5a5.85,5.85,0,0,1-3.127-.623v.309a5.839,5.839,0,0,0,3.127.623Z" transform="translate(3.588 9.114)" fill="#4a5188"/>
        <path id="Path_826729" data-name="Path 826729" d="M36.7,90.578a5.126,5.126,0,0,1-1.716-.561v.309a5.126,5.126,0,0,0,1.716.561Z" transform="translate(3.587 9.23)" fill="#4a5188"/>
        <path id="Path_826730" data-name="Path 826730" d="M36.7,91.716a5.127,5.127,0,0,1-1.716-.561v.309a5.077,5.077,0,0,0,1.716.561Z" transform="translate(3.587 9.347)" fill="#4a5188"/>
        <path id="Path_826731" data-name="Path 826731" d="M36.7,92.854a5.127,5.127,0,0,1-1.716-.561V92.6a5.126,5.126,0,0,0,1.716.561Z" transform="translate(3.587 9.464)" fill="#4a5188"/>
        <path id="Path_826732" data-name="Path 826732" d="M36.694,93.991a5.126,5.126,0,0,1-1.716-.561v.309a5.063,5.063,0,0,0,1.714.561Z" transform="translate(3.587 9.58)" fill="#4a5188"/>
        <path id="Path_826733" data-name="Path 826733" d="M38.1,95.191a5.85,5.85,0,0,1-3.127-.623v.309A5.85,5.85,0,0,0,38.1,95.5Z" transform="translate(3.586 9.697)" fill="#4a5188"/>
        <path id="Path_826734" data-name="Path 826734" d="M36.668,103.093a5.126,5.126,0,0,1-1.716-.561v.309a5.126,5.126,0,0,0,1.716.561Z" transform="translate(3.584 10.514)" fill="#4a5188"/>
        <path id="Path_826735" data-name="Path 826735" d="M36.665,104.231a5.126,5.126,0,0,1-1.716-.561v.309a5.077,5.077,0,0,0,1.716.561Z" transform="translate(3.584 10.63)" fill="#4a5188"/>
        <path id="Path_826736" data-name="Path 826736" d="M36.662,105.369a5.126,5.126,0,0,1-1.716-.561v.309a5.126,5.126,0,0,0,1.716.561Z" transform="translate(3.583 10.747)" fill="#4a5188"/>
        <path id="Path_826737" data-name="Path 826737" d="M38.07,106.568a5.85,5.85,0,0,1-3.127-.623v.309a5.84,5.84,0,0,0,3.127.623Z" transform="translate(3.583 10.864)" fill="#4a5188"/>
        <path id="Path_826738" data-name="Path 826738" d="M36.687,96.267a5.126,5.126,0,0,1-1.716-.561v.309a5.077,5.077,0,0,0,1.716.561Z" transform="translate(3.586 9.814)" fill="#4a5188"/>
        <path id="Path_826739" data-name="Path 826739" d="M36.684,97.4a5.126,5.126,0,0,1-1.716-.561v.309a5.078,5.078,0,0,0,1.716.561Z" transform="translate(3.586 9.93)" fill="#4a5188"/>
        <path id="Path_826740" data-name="Path 826740" d="M36.681,98.542a5.126,5.126,0,0,1-1.716-.561v.309a5.126,5.126,0,0,0,1.716.561Z" transform="translate(3.585 10.047)" fill="#4a5188"/>
        <path id="Path_826741" data-name="Path 826741" d="M36.678,99.68a5.126,5.126,0,0,1-1.716-.561v.309a5.077,5.077,0,0,0,1.716.561Z" transform="translate(3.585 10.164)" fill="#4a5188"/>
        <path id="Path_826742" data-name="Path 826742" d="M38.086,100.88a5.85,5.85,0,0,1-3.127-.623v.309a5.85,5.85,0,0,0,3.127.623Z" transform="translate(3.585 10.28)" fill="#4a5188"/>
        <path id="Path_826743" data-name="Path 826743" d="M36.671,101.955a5.126,5.126,0,0,1-1.716-.561v.309a5.063,5.063,0,0,0,1.714.561Z" transform="translate(3.584 10.397)" fill="#4a5188"/>
        <path id="Path_826744" data-name="Path 826744" d="M39.878,79.189a5.154,5.154,0,0,1-4.318-.04c-1.175-.643-1.148-1.666.062-2.287a5.158,5.158,0,0,1,4.318.04c1.175.643,1.148,1.666-.062,2.287" transform="translate(3.558 7.835)" fill="#6b73bd"/>
        <path id="Path_826745" data-name="Path 826745" d="M11.3,88.786c0-.034,0-.066,0-.1,0,.032,0,.064,0,.1" transform="translate(1.159 9.094)" fill="#6b73bd"/>
        <path id="Path_826746" data-name="Path 826746" d="M11.3,88.791v0" transform="translate(1.159 9.103)" fill="#6b73bd"/>
        <path id="Path_826747" data-name="Path 826747" d="M10.848,90.3a6.06,6.06,0,0,1-5.5-.055,1.92,1.92,0,0,1-1.1-1.576,3.887,3.887,0,0,0,7.772.132,2.024,2.024,0,0,1-1.173,1.5" transform="translate(0.436 9.092)" fill="#6b73bd"/>
        <path id="Path_826748" data-name="Path 826748" d="M12.1,63.9l0-.746,0-1.626a1.579,1.579,0,0,1-.5,1.1,2.9,2.9,0,0,1-.678.509,6.063,6.063,0,0,1-5.5-.056,2.918,2.918,0,0,1-.565-.43,1.6,1.6,0,0,1-.537-1.141l0,1.742,0,.6a2.569,2.569,0,0,0,.842.81c.041.026.083.052.127.077a5.2,5.2,0,0,0,1.678.588,6.494,6.494,0,0,0,4.193-.6,2.774,2.774,0,0,0,.938-.83" transform="translate(0.443 6.307)" fill="#6b73bd"/>
        <path id="Path_826749" data-name="Path 826749" d="M4.249,90.81a1.821,1.821,0,0,0,.921,1.46c.057.041.118.079.181.117a4.873,4.873,0,0,0,1.623.581,6.053,6.053,0,0,0,3.875-.527,1.957,1.957,0,0,0,1.176-1.609l.054-18.551L6.973,69.333v-.082c-.074-.013-.149-.03-.222-.047l-1.245-.719-.337-.194L4.313,67.8Z" transform="translate(0.436 6.952)" fill="#7d85d4"/>
        <path id="Path_826750" data-name="Path 826750" d="M5.083,68.245V92.229c.393.477,1.149,1.228,1.8.882V69.205c-.075-.013-.149-.03-.222-.047l-1.245-.719Z" transform="translate(0.521 6.998)" fill="#97a0e6"/>
        <path id="Path_826751" data-name="Path 826751" d="M4.917,78.221V90.236A1.831,1.831,0,0,0,6,91.931a4.208,4.208,0,0,0,3.819.039c.019-.011.032-.024.051-.035s.018-.006.025-.01c.037-.02.065-.053.1-.076a2.051,2.051,0,0,0,.224-.17,2.141,2.141,0,0,0,.764-1.614V78.193Z" transform="translate(0.504 8.018)" fill="#4552db"/>
        <path id="Path_826752" data-name="Path 826752" d="M10.142,77.15c1.16.7,1.12,1.811-.089,2.485a4.728,4.728,0,0,1-4.291-.043c-1.16-.7-1.12-1.811.089-2.485a4.728,4.728,0,0,1,4.291.043" transform="translate(0.504 7.856)" fill="#6668ff"/>
        <path id="Path_826753" data-name="Path 826753" d="M5.083,63.826v.6c.041.026.083.052.127.077a5.175,5.175,0,0,0,1.678.587V64.44a6.433,6.433,0,0,1-1.8-.614" transform="translate(0.521 6.545)" fill="#97a0e6"/>
        <path id="Path_826754" data-name="Path 826754" d="M11.534,62.967A7.257,7.257,0,0,1,4.95,62.9c-1.793-1.072-1.751-2.779.094-3.814a7.253,7.253,0,0,1,6.584.066c1.792,1.072,1.751,2.778-.094,3.814" transform="translate(0.372 5.981)" fill="#97a0e6"/>
        <path id="Path_826755" data-name="Path 826755" d="M11.534,62.718a7.257,7.257,0,0,1-6.584-.066,2.3,2.3,0,0,1-1.318-1.886l0,.818A2.3,2.3,0,0,0,4.948,63.47a7.257,7.257,0,0,0,6.584.067,2.346,2.346,0,0,0,1.411-1.927l0-.819a2.346,2.346,0,0,1-1.411,1.927" transform="translate(0.372 6.231)" fill="#6b73bd"/>
        <path id="Path_826756" data-name="Path 826756" d="M5.389,68.67a4.735,4.735,0,0,0,1.246.47L5.39,68.422Z" transform="translate(0.553 7.016)" fill="#4a5188"/>
        <path id="Path_826757" data-name="Path 826757" d="M7.1,70.065A5.126,5.126,0,0,1,5.387,69.5v.309a5.077,5.077,0,0,0,1.716.561Z" transform="translate(0.552 7.127)" fill="#4a5188"/>
        <path id="Path_826758" data-name="Path 826758" d="M7.1,71.2a5.126,5.126,0,0,1-1.716-.561v.309a5.126,5.126,0,0,0,1.716.561Z" transform="translate(0.552 7.244)" fill="#4a5188"/>
        <path id="Path_826759" data-name="Path 826759" d="M8.508,72.4a5.84,5.84,0,0,1-3.127-.623v.309a5.84,5.84,0,0,0,3.127.623Z" transform="translate(0.552 7.36)" fill="#4a5188"/>
        <path id="Path_826760" data-name="Path 826760" d="M7.093,73.479a5.127,5.127,0,0,1-1.716-.561v.309a5.126,5.126,0,0,0,1.716.561Z" transform="translate(0.551 7.477)" fill="#4a5188"/>
        <path id="Path_826761" data-name="Path 826761" d="M7.09,74.616a5.126,5.126,0,0,1-1.716-.561v.309a5.077,5.077,0,0,0,1.716.561Z" transform="translate(0.551 7.594)" fill="#4a5188"/>
        <path id="Path_826762" data-name="Path 826762" d="M7.087,75.754a5.126,5.126,0,0,1-1.716-.561V75.5a5.127,5.127,0,0,0,1.716.561Z" transform="translate(0.551 7.71)" fill="#4a5188"/>
        <path id="Path_826763" data-name="Path 826763" d="M7.083,76.892a5.126,5.126,0,0,1-1.716-.561v.309a5.077,5.077,0,0,0,1.716.561Z" transform="translate(0.55 7.827)" fill="#4a5188"/>
        <path id="Path_826764" data-name="Path 826764" d="M8.492,78.092a5.85,5.85,0,0,1-3.127-.623v.309a5.85,5.85,0,0,0,3.127.623Z" transform="translate(0.55 7.944)" fill="#4a5188"/>
        <path id="Path_826765" data-name="Path 826765" d="M7.058,85.994a5.126,5.126,0,0,1-1.716-.561v.309a5.126,5.126,0,0,0,1.716.561Z" transform="translate(0.548 8.76)" fill="#4a5188"/>
        <path id="Path_826766" data-name="Path 826766" d="M7.054,87.131a5.127,5.127,0,0,1-1.716-.561v.309a5.077,5.077,0,0,0,1.716.561Z" transform="translate(0.547 8.877)" fill="#4a5188"/>
        <path id="Path_826767" data-name="Path 826767" d="M7.051,88.269a5.126,5.126,0,0,1-1.716-.561v.309a5.112,5.112,0,0,0,1.714.561Z" transform="translate(0.547 8.994)" fill="#4a5188"/>
        <path id="Path_826768" data-name="Path 826768" d="M8.459,89.469a5.85,5.85,0,0,1-3.127-.623v.309a5.823,5.823,0,0,0,3.126.623Z" transform="translate(0.547 9.11)" fill="#4a5188"/>
        <path id="Path_826769" data-name="Path 826769" d="M7.077,79.167a5.126,5.126,0,0,1-1.716-.561v.309a5.077,5.077,0,0,0,1.716.561Z" transform="translate(0.55 8.06)" fill="#4a5188"/>
        <path id="Path_826770" data-name="Path 826770" d="M7.074,80.305a5.126,5.126,0,0,1-1.716-.561v.309a5.064,5.064,0,0,0,1.714.561Z" transform="translate(0.549 8.177)" fill="#4a5188"/>
        <path id="Path_826771" data-name="Path 826771" d="M7.071,81.443a5.133,5.133,0,0,1-1.717-.561v.309a5.126,5.126,0,0,0,1.716.561Z" transform="translate(0.549 8.294)" fill="#4a5188"/>
        <path id="Path_826772" data-name="Path 826772" d="M7.067,82.58a5.126,5.126,0,0,1-1.716-.561v.309a5.063,5.063,0,0,0,1.714.561Z" transform="translate(0.549 8.41)" fill="#4a5188"/>
        <path id="Path_826773" data-name="Path 826773" d="M8.476,83.78a5.85,5.85,0,0,1-3.127-.623v.309a5.85,5.85,0,0,0,3.127.623Z" transform="translate(0.548 8.527)" fill="#4a5188"/>
        <path id="Path_826774" data-name="Path 826774" d="M7.061,84.856a5.126,5.126,0,0,1-1.716-.561V84.6a5.078,5.078,0,0,0,1.716.561Z" transform="translate(0.548 8.644)" fill="#4a5188"/>
        <path id="Path_826775" data-name="Path 826775" d="M10.267,62.09a5.158,5.158,0,0,1-4.318-.04c-1.175-.643-1.148-1.666.061-2.287a5.158,5.158,0,0,1,4.318.04c1.176.643,1.149,1.666-.061,2.287" transform="translate(0.521 6.082)" fill="#6b73bd"/>
        <path id="Path_826776" data-name="Path 826776" d="M18.7,93.061c0-.034,0-.066,0-.1,0,.032,0,.064,0,.1" transform="translate(1.918 9.533)" fill="#6b73bd"/>
        <path id="Path_826777" data-name="Path 826777" d="M18.7,93.066v0" transform="translate(1.918 9.542)" fill="#6b73bd"/>
        <path id="Path_826778" data-name="Path 826778" d="M18.251,94.576a6.06,6.06,0,0,1-5.5-.055,1.92,1.92,0,0,1-1.1-1.576,3.887,3.887,0,0,0,7.772.132,2.024,2.024,0,0,1-1.173,1.5" transform="translate(1.195 9.531)" fill="#6b73bd"/>
        <path id="Path_826779" data-name="Path 826779" d="M19.5,68.178v-.745l.006-1.627a1.579,1.579,0,0,1-.5,1.1,2.905,2.905,0,0,1-.678.509,6.056,6.056,0,0,1-5.5-.056,2.918,2.918,0,0,1-.565-.43,1.6,1.6,0,0,1-.537-1.141l0,1.742,0,.6a2.547,2.547,0,0,0,.842.81c.041.026.083.052.127.078a5.227,5.227,0,0,0,1.678.587,6.494,6.494,0,0,0,4.193-.6,2.774,2.774,0,0,0,.938-.83" transform="translate(1.202 6.746)" fill="#6b73bd"/>
        <path id="Path_826780" data-name="Path 826780" d="M11.651,95.085a1.821,1.821,0,0,0,.921,1.46c.057.041.118.079.181.117a4.872,4.872,0,0,0,1.623.581,6.053,6.053,0,0,0,3.875-.527,1.957,1.957,0,0,0,1.176-1.609l.054-18.551-5.106-2.948v-.082c-.074-.013-.149-.03-.222-.046l-1.245-.72-.337-.194-.857-.494Z" transform="translate(1.195 7.39)" fill="#7d85d4"/>
        <path id="Path_826781" data-name="Path 826781" d="M12.486,72.52V96.5c.393.477,1.149,1.228,1.8.882V73.48c-.075-.013-.149-.03-.222-.047l-1.245-.719Z" transform="translate(1.28 7.436)" fill="#97a0e6"/>
        <path id="Path_826782" data-name="Path 826782" d="M12.215,85.471v8.6A1.831,1.831,0,0,0,13.3,95.763a4.211,4.211,0,0,0,3.819.039c.019-.011.032-.024.051-.035s.018-.006.025-.01c.037-.02.065-.053.1-.076a2.048,2.048,0,0,0,.224-.17,2.138,2.138,0,0,0,.764-1.615v-8.45Z" transform="translate(1.253 8.762)" fill="#f9975e"/>
        <path id="Path_826783" data-name="Path 826783" d="M17.439,84.4c1.161.7,1.12,1.811-.089,2.485a4.728,4.728,0,0,1-4.291-.043c-1.16-.7-1.12-1.811.089-2.485a4.728,4.728,0,0,1,4.291.043" transform="translate(1.252 8.6)" fill="#f9d66f"/>
        <path id="Path_826784" data-name="Path 826784" d="M12.486,68.1v.6c.041.026.083.052.127.077a5.175,5.175,0,0,0,1.678.587v-.654a6.4,6.4,0,0,1-1.8-.614" transform="translate(1.28 6.983)" fill="#97a0e6"/>
        <path id="Path_826785" data-name="Path 826785" d="M18.936,67.242a7.257,7.257,0,0,1-6.584-.066c-1.793-1.072-1.751-2.779.094-3.814a7.253,7.253,0,0,1,6.584.066c1.793,1.072,1.751,2.778-.094,3.814" transform="translate(1.131 6.42)" fill="#97a0e6"/>
        <path id="Path_826786" data-name="Path 826786" d="M18.936,66.993a7.257,7.257,0,0,1-6.584-.066,2.3,2.3,0,0,1-1.318-1.886l0,.818a2.3,2.3,0,0,0,1.318,1.886,7.257,7.257,0,0,0,6.584.067,2.342,2.342,0,0,0,1.41-1.927l0-.819a2.346,2.346,0,0,1-1.411,1.927" transform="translate(1.131 6.669)" fill="#6b73bd"/>
        <path id="Path_826787" data-name="Path 826787" d="M12.791,72.945a4.728,4.728,0,0,0,1.247.47L12.792,72.7Z" transform="translate(1.312 7.454)" fill="#4a5188"/>
        <path id="Path_826788" data-name="Path 826788" d="M14.5,74.34a5.126,5.126,0,0,1-1.716-.561v.309a5.077,5.077,0,0,0,1.716.561Z" transform="translate(1.311 7.565)" fill="#4a5188"/>
        <path id="Path_826789" data-name="Path 826789" d="M14.5,75.478a5.127,5.127,0,0,1-1.716-.561v.309a5.126,5.126,0,0,0,1.716.561Z" transform="translate(1.311 7.682)" fill="#4a5188"/>
        <path id="Path_826790" data-name="Path 826790" d="M15.911,76.678a5.852,5.852,0,0,1-3.128-.623v.309a5.834,5.834,0,0,0,3.126.623Z" transform="translate(1.311 7.799)" fill="#4a5188"/>
        <path id="Path_826791" data-name="Path 826791" d="M14.5,77.753a5.126,5.126,0,0,1-1.716-.561V77.5a5.126,5.126,0,0,0,1.716.561Z" transform="translate(1.31 7.915)" fill="#4a5188"/>
        <path id="Path_826792" data-name="Path 826792" d="M14.492,78.891a5.126,5.126,0,0,1-1.716-.561v.309a5.063,5.063,0,0,0,1.714.561Z" transform="translate(1.31 8.032)" fill="#4a5188"/>
        <path id="Path_826793" data-name="Path 826793" d="M14.489,80.029a5.126,5.126,0,0,1-1.716-.561v.309a5.127,5.127,0,0,0,1.716.561Z" transform="translate(1.31 8.149)" fill="#4a5188"/>
        <path id="Path_826794" data-name="Path 826794" d="M14.486,81.167a5.126,5.126,0,0,1-1.716-.561v.309a5.077,5.077,0,0,0,1.716.561Z" transform="translate(1.309 8.265)" fill="#4a5188"/>
        <path id="Path_826795" data-name="Path 826795" d="M15.894,82.367a5.85,5.85,0,0,1-3.127-.623v.309a5.85,5.85,0,0,0,3.127.623Z" transform="translate(1.309 8.382)" fill="#4a5188"/>
        <path id="Path_826796" data-name="Path 826796" d="M14.46,90.269a5.127,5.127,0,0,1-1.716-.561v.309a5.126,5.126,0,0,0,1.716.561Z" transform="translate(1.307 9.199)" fill="#4a5188"/>
        <path id="Path_826797" data-name="Path 826797" d="M14.457,91.406a5.126,5.126,0,0,1-1.716-.561v.309a5.077,5.077,0,0,0,1.716.561Z" transform="translate(1.306 9.315)" fill="#4a5188"/>
        <path id="Path_826798" data-name="Path 826798" d="M14.454,92.544a5.126,5.126,0,0,1-1.716-.561v.309a5.126,5.126,0,0,0,1.716.561Z" transform="translate(1.306 9.432)" fill="#4a5188"/>
        <path id="Path_826799" data-name="Path 826799" d="M15.862,93.744a5.85,5.85,0,0,1-3.127-.623v.309a5.84,5.84,0,0,0,3.127.623Z" transform="translate(1.306 9.549)" fill="#4a5188"/>
        <path id="Path_826800" data-name="Path 826800" d="M14.479,83.442a5.134,5.134,0,0,1-1.716-.561v.309a5.077,5.077,0,0,0,1.716.561Z" transform="translate(1.309 8.499)" fill="#4a5188"/>
        <path id="Path_826801" data-name="Path 826801" d="M14.476,84.579a5.126,5.126,0,0,1-1.716-.561v.309a5.077,5.077,0,0,0,1.716.561Z" transform="translate(1.308 8.615)" fill="#4a5188"/>
        <path id="Path_826802" data-name="Path 826802" d="M14.473,85.717a5.126,5.126,0,0,1-1.716-.561v.309a5.126,5.126,0,0,0,1.716.561Z" transform="translate(1.308 8.732)" fill="#4a5188"/>
        <path id="Path_826803" data-name="Path 826803" d="M14.47,86.855a5.126,5.126,0,0,1-1.716-.561V86.6a5.077,5.077,0,0,0,1.716.561Z" transform="translate(1.308 8.849)" fill="#4a5188"/>
        <path id="Path_826804" data-name="Path 826804" d="M15.878,88.055a5.85,5.85,0,0,1-3.127-.623v.309a5.85,5.85,0,0,0,3.127.623Z" transform="translate(1.307 8.965)" fill="#4a5188"/>
        <path id="Path_826805" data-name="Path 826805" d="M14.463,89.131a5.127,5.127,0,0,1-1.716-.561v.309a5.077,5.077,0,0,0,1.716.561Z" transform="translate(1.307 9.082)" fill="#4a5188"/>
        <path id="Path_826806" data-name="Path 826806" d="M17.67,66.365a5.158,5.158,0,0,1-4.318-.04c-1.175-.643-1.148-1.666.061-2.287a5.161,5.161,0,0,1,4.319.04c1.175.643,1.148,1.666-.062,2.287" transform="translate(1.281 6.52)" fill="#6b73bd"/>
        <path id="Path_826807" data-name="Path 826807" d="M26.1,97.336c0-.034,0-.066,0-.1,0,.032,0,.064,0,.1" transform="translate(2.677 9.971)" fill="#6b73bd"/>
        <path id="Path_826808" data-name="Path 826808" d="M26.1,97.341v0" transform="translate(2.677 9.98)" fill="#6b73bd"/>
        <path id="Path_826809" data-name="Path 826809" d="M25.653,98.851a6.06,6.06,0,0,1-5.5-.055,1.92,1.92,0,0,1-1.1-1.576,3.887,3.887,0,0,0,7.772.132,2.024,2.024,0,0,1-1.173,1.5" transform="translate(1.954 9.969)" fill="#6b73bd"/>
        <path id="Path_826810" data-name="Path 826810" d="M26.9,72.453v-.745l0-1.627a1.579,1.579,0,0,1-.5,1.1,2.859,2.859,0,0,1-.678.509,6.06,6.06,0,0,1-5.5-.056,2.876,2.876,0,0,1-.563-.43,1.6,1.6,0,0,1-.537-1.141L19.126,71.8v.6a2.547,2.547,0,0,0,.842.81c.04.026.082.052.126.077a5.22,5.22,0,0,0,1.678.588,6.493,6.493,0,0,0,4.193-.6,2.769,2.769,0,0,0,.939-.83" transform="translate(1.961 7.184)" fill="#6b73bd"/>
        <path id="Path_826811" data-name="Path 826811" d="M19.054,99.36a1.818,1.818,0,0,0,.921,1.46c.057.041.118.079.181.117a4.872,4.872,0,0,0,1.623.581,6.053,6.053,0,0,0,3.875-.527,1.957,1.957,0,0,0,1.176-1.609l.054-18.551-5.106-2.948V77.8c-.074-.013-.149-.03-.222-.047l-1.245-.719-.337-.194-.857-.494Z" transform="translate(1.954 7.829)" fill="#7d85d4"/>
        <path id="Path_826812" data-name="Path 826812" d="M19.889,76.795v23.984c.393.477,1.149,1.228,1.8.882V77.755c-.075-.013-.149-.03-.222-.047l-1.245-.719Z" transform="translate(2.039 7.875)" fill="#97a0e6"/>
        <path id="Path_826813" data-name="Path 826813" d="M19.826,83.171V99.45a1.83,1.83,0,0,0,1.086,1.694,4.208,4.208,0,0,0,3.819.039c.019-.011.032-.024.051-.035s.018,0,.025-.009c.037-.021.065-.054.1-.077a2.043,2.043,0,0,0,.224-.169,2.145,2.145,0,0,0,.764-1.615V83.143Z" transform="translate(2.033 8.526)" fill="#00d690"/>
        <path id="Path_826814" data-name="Path 826814" d="M25.051,82.1c1.16.7,1.12,1.811-.089,2.485a4.728,4.728,0,0,1-4.291-.043c-1.16-.7-1.12-1.811.089-2.485a4.728,4.728,0,0,1,4.291.043" transform="translate(2.033 8.364)" fill="#46ffa9"/>
        <path id="Path_826815" data-name="Path 826815" d="M19.889,72.375v.6c.041.026.083.052.127.077a5.174,5.174,0,0,0,1.678.587v-.654a6.433,6.433,0,0,1-1.8-.614" transform="translate(2.039 7.421)" fill="#97a0e6"/>
        <path id="Path_826816" data-name="Path 826816" d="M26.339,71.516a7.257,7.257,0,0,1-6.584-.066c-1.793-1.072-1.751-2.78.094-3.814a7.253,7.253,0,0,1,6.584.066c1.792,1.072,1.751,2.78-.094,3.814" transform="translate(1.891 6.858)" fill="#97a0e6"/>
        <path id="Path_826817" data-name="Path 826817" d="M26.339,71.267a7.257,7.257,0,0,1-6.584-.066,2.3,2.3,0,0,1-1.318-1.886l0,.818a2.3,2.3,0,0,0,1.318,1.886,7.257,7.257,0,0,0,6.584.067,2.342,2.342,0,0,0,1.41-1.927l0-.819a2.345,2.345,0,0,1-1.411,1.927" transform="translate(1.89 7.108)" fill="#6b73bd"/>
        <path id="Path_826818" data-name="Path 826818" d="M25.073,70.64a5.154,5.154,0,0,1-4.318-.04c-1.175-.643-1.148-1.666.061-2.287a5.161,5.161,0,0,1,4.319.04c1.175.643,1.148,1.666-.062,2.287" transform="translate(2.04 6.958)" fill="#6b73bd"/>
        <path id="Path_826819" data-name="Path 826819" d="M20.194,77.22a4.728,4.728,0,0,0,1.247.47L20.2,76.972Z" transform="translate(2.071 7.893)" fill="#4a5188"/>
        <path id="Path_826820" data-name="Path 826820" d="M21.908,78.615a5.127,5.127,0,0,1-1.716-.561v.309a5.077,5.077,0,0,0,1.716.561Z" transform="translate(2.07 8.004)" fill="#4a5188"/>
        <path id="Path_826821" data-name="Path 826821" d="M21.9,79.753a5.127,5.127,0,0,1-1.716-.561V79.5a5.127,5.127,0,0,0,1.716.561Z" transform="translate(2.07 8.12)" fill="#4a5188"/>
        <path id="Path_826822" data-name="Path 826822" d="M23.313,80.952a5.85,5.85,0,0,1-3.127-.623v.309a5.829,5.829,0,0,0,3.127.623Z" transform="translate(2.07 8.237)" fill="#4a5188"/>
        <path id="Path_826823" data-name="Path 826823" d="M21.9,82.028a5.126,5.126,0,0,1-1.716-.561v.309a5.126,5.126,0,0,0,1.716.561Z" transform="translate(2.069 8.354)" fill="#4a5188"/>
        <path id="Path_826824" data-name="Path 826824" d="M21.895,83.166a5.126,5.126,0,0,1-1.716-.561v.309a5.077,5.077,0,0,0,1.716.561Z" transform="translate(2.069 8.47)" fill="#4a5188"/>
        <path id="Path_826825" data-name="Path 826825" d="M21.892,84.3a5.126,5.126,0,0,1-1.716-.561v.309a5.112,5.112,0,0,0,1.714.561Z" transform="translate(2.069 8.587)" fill="#4a5188"/>
        <path id="Path_826826" data-name="Path 826826" d="M21.889,85.441a5.126,5.126,0,0,1-1.716-.561v.309a5.077,5.077,0,0,0,1.716.561Z" transform="translate(2.068 8.704)" fill="#4a5188"/>
        <path id="Path_826827" data-name="Path 826827" d="M23.3,86.641a5.85,5.85,0,0,1-3.127-.623v.309a5.85,5.85,0,0,0,3.127.623Z" transform="translate(2.068 8.82)" fill="#4a5188"/>
        <path id="Path_826828" data-name="Path 826828" d="M21.863,94.544a5.126,5.126,0,0,1-1.716-.561v.309a5.126,5.126,0,0,0,1.716.561Z" transform="translate(2.066 9.637)" fill="#4a5188"/>
        <path id="Path_826829" data-name="Path 826829" d="M21.86,95.681a5.126,5.126,0,0,1-1.716-.561v.309a5.077,5.077,0,0,0,1.716.561Z" transform="translate(2.065 9.754)" fill="#4a5188"/>
        <path id="Path_826830" data-name="Path 826830" d="M21.856,96.819a5.126,5.126,0,0,1-1.716-.561v.309a5.126,5.126,0,0,0,1.716.561Z" transform="translate(2.065 9.87)" fill="#4a5188"/>
        <path id="Path_826831" data-name="Path 826831" d="M23.265,98.019a5.85,5.85,0,0,1-3.127-.623V97.7a5.829,5.829,0,0,0,3.127.623Z" transform="translate(2.065 9.987)" fill="#4a5188"/>
        <path id="Path_826832" data-name="Path 826832" d="M21.882,87.717a5.126,5.126,0,0,1-1.716-.561v.309a5.077,5.077,0,0,0,1.716.561Z" transform="translate(2.068 8.937)" fill="#4a5188"/>
        <path id="Path_826833" data-name="Path 826833" d="M21.879,88.854a5.126,5.126,0,0,1-1.716-.561V88.6a5.078,5.078,0,0,0,1.716.561Z" transform="translate(2.067 9.054)" fill="#4a5188"/>
        <path id="Path_826834" data-name="Path 826834" d="M21.876,89.992a5.126,5.126,0,0,1-1.716-.561v.309a5.126,5.126,0,0,0,1.716.561Z" transform="translate(2.067 9.17)" fill="#4a5188"/>
        <path id="Path_826835" data-name="Path 826835" d="M21.872,91.13a5.126,5.126,0,0,1-1.716-.561v.309a5.077,5.077,0,0,0,1.716.561Z" transform="translate(2.067 9.287)" fill="#4a5188"/>
        <path id="Path_826836" data-name="Path 826836" d="M23.281,92.33a5.85,5.85,0,0,1-3.127-.623v.309a5.85,5.85,0,0,0,3.127.623Z" transform="translate(2.067 9.404)" fill="#4a5188"/>
        <path id="Path_826837" data-name="Path 826837" d="M21.866,93.406a5.126,5.126,0,0,1-1.716-.561v.309a5.078,5.078,0,0,0,1.716.561Z" transform="translate(2.066 9.52)" fill="#4a5188"/>
        <path id="Path_826838" data-name="Path 826838" d="M33.507,101.611c0-.034,0-.066,0-.1,0,.033,0,.065,0,.1" transform="translate(3.436 10.409)" fill="#6b73bd"/>
        <path id="Path_826839" data-name="Path 826839" d="M33.506,101.616v0" transform="translate(3.436 10.418)" fill="#6b73bd"/>
        <path id="Path_826840" data-name="Path 826840" d="M33.056,103.126a6.06,6.06,0,0,1-5.5-.055,1.92,1.92,0,0,1-1.1-1.576,3.887,3.887,0,0,0,7.772.132,2.024,2.024,0,0,1-1.173,1.5" transform="translate(2.713 10.407)" fill="#6b73bd"/>
        <path id="Path_826841" data-name="Path 826841" d="M34.305,76.728v-.746l.006-1.626a1.581,1.581,0,0,1-.5,1.1,2.905,2.905,0,0,1-.678.509,6.063,6.063,0,0,1-5.5-.056,2.919,2.919,0,0,1-.564-.43,1.6,1.6,0,0,1-.537-1.141l0,1.742,0,.6a2.569,2.569,0,0,0,.842.81c.041.026.083.052.127.077a5.2,5.2,0,0,0,1.678.588,6.494,6.494,0,0,0,4.193-.6,2.775,2.775,0,0,0,.938-.83" transform="translate(2.72 7.623)" fill="#6b73bd"/>
        <path id="Path_826842" data-name="Path 826842" d="M26.457,103.635a1.82,1.82,0,0,0,.92,1.46c.058.041.119.079.182.117a4.873,4.873,0,0,0,1.623.581,6.053,6.053,0,0,0,3.875-.527,1.957,1.957,0,0,0,1.176-1.609l.054-18.551-5.106-2.948v-.082c-.074-.013-.149-.03-.222-.047l-1.245-.719-.338-.194-.856-.494Z" transform="translate(2.713 8.267)" fill="#7d85d4"/>
        <path id="Path_826843" data-name="Path 826843" d="M27.291,81.069v23.985c.393.477,1.149,1.228,1.8.881V82.03c-.075-.013-.149-.03-.222-.047l-1.245-.719Z" transform="translate(2.798 8.313)" fill="#97a0e6"/>
        <path id="Path_826844" data-name="Path 826844" d="M27.229,86.929V103.65a1.829,1.829,0,0,0,1.086,1.694,4.206,4.206,0,0,0,3.818.04c.02-.011.033-.024.052-.035s.018-.006.025-.01c.037-.021.065-.053.1-.076a2.052,2.052,0,0,0,.224-.17,2.146,2.146,0,0,0,.764-1.615V86.9Z" transform="translate(2.792 8.911)" fill="#d15ea9"/>
        <path id="Path_826845" data-name="Path 826845" d="M32.454,85.858c1.161.7,1.12,1.811-.089,2.486a4.728,4.728,0,0,1-4.291-.044c-1.16-.7-1.12-1.811.089-2.485a4.728,4.728,0,0,1,4.291.043" transform="translate(2.792 8.749)" fill="#d194f2"/>
        <path id="Path_826846" data-name="Path 826846" d="M27.291,76.65v.6c.041.026.083.052.127.077a5.175,5.175,0,0,0,1.678.587v-.654a6.4,6.4,0,0,1-1.8-.614" transform="translate(2.798 7.86)" fill="#97a0e6"/>
        <path id="Path_826847" data-name="Path 826847" d="M33.742,75.791a7.257,7.257,0,0,1-6.584-.066c-1.793-1.072-1.751-2.78.094-3.814a7.253,7.253,0,0,1,6.584.066c1.792,1.072,1.751,2.779-.094,3.814" transform="translate(2.65 7.296)" fill="#97a0e6"/>
        <path id="Path_826848" data-name="Path 826848" d="M33.742,75.542a7.257,7.257,0,0,1-6.584-.066,2.3,2.3,0,0,1-1.318-1.886l0,.818a2.3,2.3,0,0,0,1.318,1.886,7.257,7.257,0,0,0,6.584.067,2.342,2.342,0,0,0,1.41-1.927l0-.819a2.346,2.346,0,0,1-1.411,1.927" transform="translate(2.649 7.546)" fill="#6b73bd"/>
        <path id="Path_826849" data-name="Path 826849" d="M27.6,81.494a4.706,4.706,0,0,0,1.246.47L27.6,81.245Z" transform="translate(2.83 8.331)" fill="#4a5188"/>
        <path id="Path_826850" data-name="Path 826850" d="M29.311,82.89a5.126,5.126,0,0,1-1.716-.561v.309a5.077,5.077,0,0,0,1.716.561Z" transform="translate(2.83 8.442)" fill="#4a5188"/>
        <path id="Path_826851" data-name="Path 826851" d="M29.307,84.027a5.127,5.127,0,0,1-1.716-.561v.309a5.126,5.126,0,0,0,1.716.561Z" transform="translate(2.829 8.559)" fill="#4a5188"/>
        <path id="Path_826852" data-name="Path 826852" d="M30.716,85.227a5.85,5.85,0,0,1-3.127-.623v.309a5.84,5.84,0,0,0,3.127.623Z" transform="translate(2.829 8.675)" fill="#4a5188"/>
        <path id="Path_826853" data-name="Path 826853" d="M29.3,86.3a5.127,5.127,0,0,1-1.716-.561v.309a5.126,5.126,0,0,0,1.716.561Z" transform="translate(2.828 8.792)" fill="#4a5188"/>
        <path id="Path_826854" data-name="Path 826854" d="M29.3,87.441a5.126,5.126,0,0,1-1.716-.561v.309a5.077,5.077,0,0,0,1.716.561Z" transform="translate(2.828 8.909)" fill="#4a5188"/>
        <path id="Path_826855" data-name="Path 826855" d="M29.294,88.579a5.127,5.127,0,0,1-1.716-.561v.309a5.126,5.126,0,0,0,1.716.561Z" transform="translate(2.828 9.025)" fill="#4a5188"/>
        <path id="Path_826856" data-name="Path 826856" d="M29.291,89.716a5.126,5.126,0,0,1-1.716-.561v.309a5.077,5.077,0,0,0,1.716.561Z" transform="translate(2.827 9.142)" fill="#4a5188"/>
        <path id="Path_826857" data-name="Path 826857" d="M30.7,90.916a5.85,5.85,0,0,1-3.127-.623V90.6a5.85,5.85,0,0,0,3.127.623Z" transform="translate(2.827 9.259)" fill="#4a5188"/>
        <path id="Path_826858" data-name="Path 826858" d="M29.265,98.818a5.126,5.126,0,0,1-1.716-.561v.309a5.126,5.126,0,0,0,1.716.561Z" transform="translate(2.825 10.075)" fill="#4a5188"/>
        <path id="Path_826859" data-name="Path 826859" d="M29.262,99.956a5.126,5.126,0,0,1-1.716-.561V99.7a5.077,5.077,0,0,0,1.716.561Z" transform="translate(2.824 10.192)" fill="#4a5188"/>
        <path id="Path_826860" data-name="Path 826860" d="M29.259,101.094a5.126,5.126,0,0,1-1.716-.561v.309a5.126,5.126,0,0,0,1.716.561Z" transform="translate(2.824 10.309)" fill="#4a5188"/>
        <path id="Path_826861" data-name="Path 826861" d="M30.667,102.294a5.85,5.85,0,0,1-3.127-.623v.309a5.829,5.829,0,0,0,3.127.623Z" transform="translate(2.824 10.425)" fill="#4a5188"/>
        <path id="Path_826862" data-name="Path 826862" d="M29.285,91.992a5.127,5.127,0,0,1-1.716-.561v.309a5.077,5.077,0,0,0,1.716.561Z" transform="translate(2.827 9.375)" fill="#4a5188"/>
        <path id="Path_826863" data-name="Path 826863" d="M29.282,93.129a5.124,5.124,0,0,1-1.717-.561v.309a5.077,5.077,0,0,0,1.716.561Z" transform="translate(2.826 9.492)" fill="#4a5188"/>
        <path id="Path_826864" data-name="Path 826864" d="M29.278,94.267a5.126,5.126,0,0,1-1.716-.561v.309a5.127,5.127,0,0,0,1.716.561Z" transform="translate(2.826 9.609)" fill="#4a5188"/>
        <path id="Path_826865" data-name="Path 826865" d="M29.275,95.405a5.127,5.127,0,0,1-1.716-.561v.309a5.078,5.078,0,0,0,1.716.561Z" transform="translate(2.826 9.725)" fill="#4a5188"/>
        <path id="Path_826866" data-name="Path 826866" d="M30.683,96.6a5.85,5.85,0,0,1-3.127-.623v.309a5.844,5.844,0,0,0,3.126.623Z" transform="translate(2.826 9.842)" fill="#4a5188"/>
        <path id="Path_826867" data-name="Path 826867" d="M29.269,97.68a5.126,5.126,0,0,1-1.716-.561v.309a5.063,5.063,0,0,0,1.714.561Z" transform="translate(2.825 9.959)" fill="#4a5188"/>
        <path id="Path_826868" data-name="Path 826868" d="M32.475,74.915a5.158,5.158,0,0,1-4.318-.04c-1.175-.643-1.148-1.666.061-2.287a5.161,5.161,0,0,1,4.319.04c1.175.643,1.148,1.666-.062,2.287" transform="translate(2.799 7.397)" fill="#6b73bd"/>
        <path id="Path_826869" data-name="Path 826869" d="M51.977,74.886l0-.479v-.225l0-.766V72.7a1.341,1.341,0,0,1-.114.536,1.609,1.609,0,0,1-.238.395h0a1.36,1.36,0,0,1-.155.176,2.9,2.9,0,0,1-.669.5,6.056,6.056,0,0,1-5.5-.056,2.839,2.839,0,0,1-.631-.5c-.046-.049-.088-.1-.127-.147a1.661,1.661,0,0,1-.262-.474,1.348,1.348,0,0,1-.082-.456v.664l0,.82v.078l0,.861a2.774,2.774,0,0,0,.842.734l.042.025a5.284,5.284,0,0,0,1.763.6,6.462,6.462,0,0,0,4.108-.612,2.656,2.656,0,0,0,1.023-.966" transform="translate(4.532 7.453)" fill="#6b73bd"/>
        <path id="Path_826870" data-name="Path 826870" d="M44.963,75v.6l.042.025a5.333,5.333,0,0,0,1.763.6V75.61a6.4,6.4,0,0,1-1.8-.614" transform="translate(4.611 7.69)" fill="#97a0e6"/>
        <path id="Path_826871" data-name="Path 826871" d="M51.414,74.137a7.26,7.26,0,0,1-6.584-.066c-1.793-1.072-1.751-2.78.094-3.814a7.253,7.253,0,0,1,6.584.066c1.792,1.072,1.751,2.778-.094,3.814" transform="translate(4.462 7.127)" fill="#97a0e6"/>
        <path id="Path_826872" data-name="Path 826872" d="M51.414,73.888a7.26,7.26,0,0,1-6.584-.066,2.3,2.3,0,0,1-1.318-1.886l0,.818a2.3,2.3,0,0,0,1.318,1.886,7.253,7.253,0,0,0,6.584.066,2.343,2.343,0,0,0,1.411-1.926l0-.819a2.346,2.346,0,0,1-1.411,1.927" transform="translate(4.462 7.376)" fill="#6b73bd"/>
        <path id="Path_826873" data-name="Path 826873" d="M50.147,73.26a5.158,5.158,0,0,1-4.318-.04c-1.175-.643-1.148-1.666.062-2.287a5.158,5.158,0,0,1,4.318.04c1.175.643,1.148,1.666-.062,2.287" transform="translate(4.611 7.227)" fill="#6b73bd"/>
        <path id="Path_826874" data-name="Path 826874" d="M44.575,70.8v-.745l.006-1.627a1.579,1.579,0,0,1-.5,1.1,2.882,2.882,0,0,1-.678.509,6.06,6.06,0,0,1-5.5-.056,2.919,2.919,0,0,1-.564-.43,1.6,1.6,0,0,1-.537-1.141l0,1.742,0,.6a2.558,2.558,0,0,0,.842.81c.041.026.083.052.127.077a5.2,5.2,0,0,0,1.678.588,6.494,6.494,0,0,0,4.193-.6,2.775,2.775,0,0,0,.938-.83" transform="translate(3.773 7.015)" fill="#6b73bd"/>
        <path id="Path_826875" data-name="Path 826875" d="M37.561,70.721v.6c.041.026.083.052.127.077a5.175,5.175,0,0,0,1.678.587v-.654a6.433,6.433,0,0,1-1.8-.614" transform="translate(3.852 7.252)" fill="#97a0e6"/>
        <path id="Path_826876" data-name="Path 826876" d="M44.011,69.862a7.257,7.257,0,0,1-6.584-.066c-1.793-1.072-1.751-2.78.094-3.814a7.253,7.253,0,0,1,6.584.066c1.792,1.072,1.751,2.778-.094,3.814" transform="translate(3.703 6.688)" fill="#97a0e6"/>
        <path id="Path_826877" data-name="Path 826877" d="M44.011,69.613a7.257,7.257,0,0,1-6.584-.066,2.3,2.3,0,0,1-1.318-1.886l0,.818a2.3,2.3,0,0,0,1.318,1.886,7.253,7.253,0,0,0,6.584.066A2.343,2.343,0,0,0,45.42,68.5l0-.819a2.346,2.346,0,0,1-1.411,1.927" transform="translate(3.702 6.938)" fill="#6b73bd"/>
        <path id="Path_826878" data-name="Path 826878" d="M22.367,57.974l0-.746,0-1.626a1.579,1.579,0,0,1-.5,1.1,2.882,2.882,0,0,1-.678.509,6.063,6.063,0,0,1-5.5-.056,2.919,2.919,0,0,1-.565-.43,1.6,1.6,0,0,1-.537-1.141l0,1.742,0,.6a2.569,2.569,0,0,0,.842.81c.041.026.083.052.127.077a5.2,5.2,0,0,0,1.678.588,6.494,6.494,0,0,0,4.193-.6,2.775,2.775,0,0,0,.938-.83" transform="translate(1.496 5.7)" fill="#6b73bd"/>
        <path id="Path_826879" data-name="Path 826879" d="M15.353,57.9v.6c.041.026.083.052.127.077a5.175,5.175,0,0,0,1.678.587V58.51a6.432,6.432,0,0,1-1.8-.614" transform="translate(1.574 5.937)" fill="#97a0e6"/>
        <path id="Path_826880" data-name="Path 826880" d="M21.8,57.037a7.257,7.257,0,0,1-6.584-.066c-1.793-1.072-1.751-2.779.094-3.814a7.253,7.253,0,0,1,6.584.066C23.689,54.3,23.647,56,21.8,57.037" transform="translate(1.425 5.373)" fill="#97a0e6"/>
        <path id="Path_826881" data-name="Path 826881" d="M21.8,56.788a7.257,7.257,0,0,1-6.584-.066A2.3,2.3,0,0,1,13.9,54.835l0,.818a2.3,2.3,0,0,0,1.318,1.886,7.257,7.257,0,0,0,6.584.067,2.346,2.346,0,0,0,1.411-1.927l0-.819A2.346,2.346,0,0,1,21.8,56.788" transform="translate(1.425 5.623)" fill="#6b73bd"/>
        <path id="Path_826882" data-name="Path 826882" d="M20.537,56.161a5.158,5.158,0,0,1-4.318-.04c-1.175-.643-1.148-1.666.061-2.287a5.161,5.161,0,0,1,4.319.04c1.175.643,1.148,1.666-.062,2.287" transform="translate(1.575 5.474)" fill="#6b73bd"/>
        <path id="Path_826883" data-name="Path 826883" d="M29.769,62.249V61.5l.006-1.627a1.579,1.579,0,0,1-.5,1.1,2.882,2.882,0,0,1-.678.509,6.063,6.063,0,0,1-5.5-.056,2.919,2.919,0,0,1-.565-.43A1.6,1.6,0,0,1,22,59.858l0,1.742,0,.6a2.569,2.569,0,0,0,.842.81c.041.026.083.052.127.077a5.2,5.2,0,0,0,1.678.588,6.494,6.494,0,0,0,4.193-.6,2.775,2.775,0,0,0,.938-.83" transform="translate(2.255 6.138)" fill="#6b73bd"/>
        <path id="Path_826884" data-name="Path 826884" d="M22.756,62.171v.6c.04.026.082.052.127.077a5.168,5.168,0,0,0,1.677.587v-.654a6.427,6.427,0,0,1-1.8-.614" transform="translate(2.333 6.375)" fill="#97a0e6"/>
        <path id="Path_826885" data-name="Path 826885" d="M29.206,61.312a7.257,7.257,0,0,1-6.584-.066c-1.793-1.072-1.751-2.78.094-3.814A7.253,7.253,0,0,1,29.3,57.5c1.792,1.072,1.751,2.778-.094,3.814" transform="translate(2.185 5.811)" fill="#97a0e6"/>
        <path id="Path_826886" data-name="Path 826886" d="M29.206,61.063A7.257,7.257,0,0,1,22.622,61,2.3,2.3,0,0,1,21.3,59.11l0,.818a2.3,2.3,0,0,0,1.318,1.886,7.257,7.257,0,0,0,6.584.067,2.346,2.346,0,0,0,1.411-1.927l0-.819a2.346,2.346,0,0,1-1.411,1.927" transform="translate(2.184 6.061)" fill="#6b73bd"/>
        <path id="Path_826887" data-name="Path 826887" d="M27.94,60.436a5.158,5.158,0,0,1-4.318-.04c-1.175-.643-1.149-1.666.061-2.287a5.161,5.161,0,0,1,4.319.04c1.175.643,1.147,1.666-.062,2.287" transform="translate(2.334 5.912)" fill="#6b73bd"/>
        <path id="Path_826888" data-name="Path 826888" d="M37.172,66.524v-.745l.006-1.627a1.579,1.579,0,0,1-.5,1.1A2.882,2.882,0,0,1,36,65.76a6.06,6.06,0,0,1-5.5-.056,2.918,2.918,0,0,1-.565-.43,1.6,1.6,0,0,1-.537-1.141l0,1.742,0,.6a2.569,2.569,0,0,0,.842.81c.041.026.083.052.127.077a5.2,5.2,0,0,0,1.678.588,6.494,6.494,0,0,0,4.193-.6,2.775,2.775,0,0,0,.938-.83" transform="translate(3.014 6.576)" fill="#6b73bd"/>
        <path id="Path_826889" data-name="Path 826889" d="M30.158,66.446v.6c.041.026.083.052.127.077a5.174,5.174,0,0,0,1.678.587V67.06a6.433,6.433,0,0,1-1.8-.614" transform="translate(3.092 6.813)" fill="#97a0e6"/>
        <path id="Path_826890" data-name="Path 826890" d="M36.609,65.587a7.257,7.257,0,0,1-6.584-.066c-1.794-1.072-1.752-2.779.093-3.814a7.253,7.253,0,0,1,6.584.066c1.792,1.072,1.751,2.778-.093,3.814" transform="translate(2.944 6.25)" fill="#97a0e6"/>
        <path id="Path_826891" data-name="Path 826891" d="M36.609,65.338a7.257,7.257,0,0,1-6.584-.066,2.3,2.3,0,0,1-1.318-1.886l0,.818a2.3,2.3,0,0,0,1.316,1.886,7.257,7.257,0,0,0,6.584.067,2.348,2.348,0,0,0,1.412-1.927V63.41a2.344,2.344,0,0,1-1.41,1.927" transform="translate(2.943 6.5)" fill="#6b73bd"/>
        <path id="Path_826892" data-name="Path 826892" d="M35.342,64.71a5.158,5.158,0,0,1-4.318-.04c-1.175-.643-1.148-1.666.062-2.287a5.158,5.158,0,0,1,4.318.04c1.175.643,1.148,1.666-.062,2.287" transform="translate(3.093 6.35)" fill="#6b73bd"/>
        <path id="Path_826893" data-name="Path 826893" d="M42.745,68.985a5.158,5.158,0,0,1-4.318-.04c-1.175-.643-1.148-1.666.062-2.287a5.158,5.158,0,0,1,4.318.04c1.175.643,1.148,1.666-.062,2.287" transform="translate(3.852 6.789)" fill="#6b73bd"/>
        <path id="Path_826894" data-name="Path 826894" d="M81.1,53.713,76.694,67.63l9.7-5.594Z" transform="translate(7.864 5.508)" fill="#ffb842"/>
        <path id="Path_826895" data-name="Path 826895" d="M77.043,67.13l4.1-12.952,4.832,7.75Zm4.19-12.27-3.69,11.647,8.035-4.678Z" transform="translate(7.9 5.555)" fill="#75727c"/>
        <path id="Path_826896" data-name="Path 826896" d="M82.18,58.052a2.5,2.5,0,0,1-.185.9.751.751,0,0,1,.233.238,2.819,2.819,0,0,0,.172-.928,1.025,1.025,0,0,0-.546-1.046,1.009,1.009,0,0,1,.326.837" transform="translate(8.393 5.867)" fill="#75727c"/>
        <path id="Path_826897" data-name="Path 826897" d="M80.452,60.2a2.429,2.429,0,0,0-.16.438.956.956,0,0,0,.889-.1l.01-.007a.105.105,0,0,0,.024-.017,2.6,2.6,0,0,0,.853-.882.629.629,0,0,0-.151-.246c-.024-.022-.05-.043-.076-.064a2.066,2.066,0,0,1-.66.641.836.836,0,0,1-.66.111,1.232,1.232,0,0,0-.068.126" transform="translate(8.233 6.083)" fill="#75727c"/>
        <path id="Path_826898" data-name="Path 826898" d="M79.848,59.736a1.433,1.433,0,0,0,.172.733,3.54,3.54,0,0,1,.23-.5,1.171,1.171,0,0,1-.185-.689,2.644,2.644,0,0,1,.326-1.207,3.154,3.154,0,0,0-.544,1.664" transform="translate(8.188 5.955)" fill="#75727c"/>
        <path id="Path_826899" data-name="Path 826899" d="M82.358,59.451a.79.79,0,0,1,.859-.045.964.964,0,0,1,.351.811A1.275,1.275,0,0,0,83.18,59a.913.913,0,0,0-.969.05,1.172,1.172,0,0,1,.147.4" transform="translate(8.43 6.038)" fill="#75727c"/>
        <path id="Path_826900" data-name="Path 826900" d="M81.442,61.779a1.85,1.85,0,0,1-.313.229.736.736,0,0,0,.212.221,1.007,1.007,0,0,0,1.157-.174.788.788,0,0,1-.813.025.7.7,0,0,1-.243-.3" transform="translate(8.319 6.335)" fill="#75727c"/>
        <path id="Path_826901" data-name="Path 826901" d="M80.977,61.772a.831.831,0,0,0,.136-.064,1.26,1.26,0,0,0,.183-.126c.018-.014.039-.032.057-.05a2.507,2.507,0,0,1,.334-1.262,2.618,2.618,0,0,1,.353-.5,1.191,1.191,0,0,0-.04-.143.629.629,0,0,0-.151-.246,3.11,3.11,0,0,0-.491.668,3.491,3.491,0,0,0-.212.46l-.013.034a2.559,2.559,0,0,0-.157,1.227" transform="translate(8.301 6.089)" fill="#75727c"/>
        <path id="Path_826902" data-name="Path 826902" d="M80.678,62.7a2.426,2.426,0,0,1-.811.894,2.5,2.5,0,0,0,1.157-1.135A3.224,3.224,0,0,0,81.232,62l-.008,0a1.5,1.5,0,0,1-.308.132,2.9,2.9,0,0,1-.238.56" transform="translate(8.19 6.358)" fill="#75727c"/>
        <path id="Path_826903" data-name="Path 826903" d="M80.3,60.56a1.248,1.248,0,0,0-.034.162.614.614,0,0,1,.392.1,1,1,0,0,1,.334.9.319.319,0,0,0,.06-.021.748.748,0,0,0,.136-.064,1.129,1.129,0,0,0,.183-.126A1.587,1.587,0,0,0,81.2,60.47a.016.016,0,0,0-.01-.017.7.7,0,0,0-.739-.332,2.272,2.272,0,0,0-.16.438" transform="translate(8.23 6.164)" fill="#75727c"/>
        <path id="Path_826904" data-name="Path 826904" d="M78.8,62.971a2.665,2.665,0,0,1,.35-1.207,2.375,2.375,0,0,1,.815-.9,3,3,0,0,1,.147-.569,2.722,2.722,0,0,0-.924,1.02,2.872,2.872,0,0,0-.387,1.656" transform="translate(8.079 6.183)" fill="#75727c"/>
        <path id="Path_826905" data-name="Path 826905" d="M79.9,61.345a3,3,0,0,1,1.324-2.395c.73-.413,1.324-.012,1.324.9a3.009,3.009,0,0,1-1.324,2.4c-.731.413-1.324.011-1.324-.9m.3-.17c0,.7.46,1.012,1.024.692a2.324,2.324,0,0,0,1.023-1.851c0-.7-.459-1.013-1.023-.694A2.327,2.327,0,0,0,80.2,61.175" transform="translate(8.193 6.028)" fill="#75727c"/>
        <path id="Path_826906" data-name="Path 826906" d="M80.836,60.628c0,.2.129.286.289.2a.657.657,0,0,0,.289-.521c0-.2-.13-.286-.289-.2a.651.651,0,0,0-.289.521" transform="translate(8.289 6.16)" fill="#ffb842"/>
      </g>
    </g>
  </g>
</svg>
