<svg xmlns="http://www.w3.org/2000/svg" xmlns:xlink="http://www.w3.org/1999/xlink" width="169" height="169" viewBox="0 0 169 169">
  <defs>
    <clipPath id="clip-path">
      <rect id="Rectangle_378722" data-name="Rectangle 378722" width="96" height="146.856" fill="none"/>
    </clipPath>
  </defs>
  <g id="Group_1075410" data-name="Group 1075410" transform="translate(-385.5 -2058.299)">
    <g id="Group_159182" data-name="Group 159182" transform="translate(385.5 2058.299)">
      <path id="Union_12" data-name="Union 12" d="M84.5,0A84.5,84.5,0,1,1,0,84.5,84.5,84.5,0,0,1,84.5,0Z" transform="translate(0 0)" fill="#ffae7e"/>
    </g>
    <g id="Group_1075374" data-name="Group 1075374" transform="translate(422.5 2069.299)">
      <g id="Group_1075373" data-name="Group 1075373" clip-path="url(#clip-path)">
        <path id="Path_827935" data-name="Path 827935" d="M101.553,125.55c1.58.026,2.59-1.137,2.182-2.443-.276-.885-.88-1.3-2.065-1.255-.747.032-.982-.278-.945-.948a3.249,3.249,0,0,0-.005-.43,1.772,1.772,0,0,0-1.785-1.775c-1.156.156-1.815.57-1.81,1.843,0,1.243-.023,1.221-1.279,1.3-.606.039-1.244.09-1.566.765-.742,1.557.005,2.789,1.736,2.822,1.306.025,1.091.031,1.123,1.15a1.914,1.914,0,0,0,.792,1.672,1.639,1.639,0,0,0,1.82.1,1.869,1.869,0,0,0,.956-1.859c-.025-.68.127-1.084.846-.94M28.8,15.312c-.028-.249-.226-.254-.4-.331a14.212,14.212,0,0,1-1.78-.86,6.031,6.031,0,0,1-2.642-3.494c-.04-.131-.012-.311-.2-.33-.25-.026-.22.19-.262.342a4.468,4.468,0,0,1-.71,1.538,7.32,7.32,0,0,1-3.754,2.8c-.231.07-.6-.058-.607.324-.005.307.347.29.552.356A6.513,6.513,0,0,1,23.509,19.9c.052.159.08.355.292.345s.231-.221.278-.37a5.9,5.9,0,0,1,4.254-4.168.626.626,0,0,0,.462-.395m68.11,23.171-.43.963a4.665,4.665,0,0,1-2.709,2.5c-.172.067-.425.037-.436.28-.013.294.272.273.465.34a4.316,4.316,0,0,1,2.633,2.363c.134.3.272.59.475,1.032.218-.464.368-.8.532-1.13a4.113,4.113,0,0,1,2.673-2.3c.147-.04.384.044.4-.191.01-.175-.161-.289-.319-.352a6.961,6.961,0,0,1-1.387-.73,5.525,5.525,0,0,1-1.892-2.775M35.349.2A1.655,1.655,0,0,0,33.54,2.016,1.913,1.913,0,0,0,35.487,3.96a1.846,1.846,0,0,0,1.8-1.966A1.753,1.753,0,0,0,35.349.2M89.626,134.734a1.656,1.656,0,0,0-1.8,1.816,1.833,1.833,0,0,0,1.841,1.926,1.872,1.872,0,1,0-.037-3.742" transform="translate(-7.826 -0.084)" fill="#f6f8fa"/>
        <path id="Path_827936" data-name="Path 827936" d="M33.6,16.659a.263.263,0,0,1-.131-.364c.567-1.4.512-2.925.957-4.365a22.477,22.477,0,0,1,2.434-5.378,14.2,14.2,0,0,1,5.993-5.43A10.514,10.514,0,0,1,48.025.016a13.136,13.136,0,0,1,4.528,1.073c2.979,1.3,4.92,3.623,6.572,6.3a19.989,19.989,0,0,1,2.531,7.445,20.467,20.467,0,0,1-.727,9.193,18.649,18.649,0,0,1-3.106,6.25c-.307.394-.052.484.207.618,1.3.673,2.595,1.37,3.916,2.006,1.817.874,3.679,1.656,5.479,2.563,1.467.739,2.952,1.44,4.419,2.173.6.3.978,1.042,1.436,1.6A75.649,75.649,0,0,1,80.948,50.77a73.692,73.692,0,0,1,5.239,12,64.386,64.386,0,0,1,2.575,9.762c.392,2.279.737,4.56,1.01,6.858.3,2.489.723,4.959.857,7.471a8.642,8.642,0,0,0,1.03,2.88c1.3,2.967,2.55,5.952,3.571,9.03a4.479,4.479,0,0,1-2.2,5.414,22.612,22.612,0,0,1-5.624,1.892,4.627,4.627,0,0,1-5.251-3.532c-.123-.565-.289-1.121-.445-1.679-.09-.322-.181-.387-.536-.168a5.33,5.33,0,0,1-2.563,1.122,3.456,3.456,0,0,1-3.346-2.769c-.33-1.291.328-2.209.993-3.134s1.4-1.764,2.062-2.67a3.227,3.227,0,0,0,.068-3.421c-1.422-2.1-2.559-4.367-3.781-6.584-1.283-2.328-2.59-4.645-3.858-6.981-.906-1.668-1.765-3.361-2.645-5.042-.077-.148-.149-.3-.227-.446-.067-.128-.139-.262-.317-.23-.257.048-.151.257-.16.4a11.994,11.994,0,0,0,.186,2.473c.2,1.382.365,2.773.646,4.149.333,1.635.733,3.253,1.225,4.84a78.107,78.107,0,0,1,2.255,8.755,59.724,59.724,0,0,1,.865,5.951c.107,1.269.2,2.537.294,3.806a25.955,25.955,0,0,1,.1,3.055c-.112,2.623-.277,5.246-.468,7.863-.141,1.93-.264,3.859-.391,5.79-.151,2.279-.386,4.554-.555,6.833-.058.777-.057,1.556-.131,2.336-.162,1.718-.172,3.449-.317,5.169-.188,2.237-.276,4.481-.44,6.717-.149,2.026-.306,4.05-.429,6.077a2.078,2.078,0,0,1-.8,1.851,1.3,1.3,0,0,1-2.047-1.122c-.012-.118-.017-.237-.025-.356.057-1.3.026-2.617.189-3.907.312-2.481.2-4.989.554-7.467.206-1.458.067-2.942.267-4.413a35.451,35.451,0,0,0,.285-3.587c.073-2.171.259-4.329.446-6.491.192-2.221.242-4.454.416-6.678.1-1.244.147-2.488.284-3.732.177-1.6.235-3.217.271-4.828a66.831,66.831,0,0,0-.521-8.855,61.586,61.586,0,0,0-1.317-7.075c-.044-.192-.062-.52-.4-.481a14.7,14.7,0,0,1-1.767-.108q-5.226,0-10.451,0a8.53,8.53,0,0,0-1.849.054c-.07-.034-.09.005-.093.066-.5.317-.066.725-.073,1.074-.042,2.1-.022,4.2-.007,6.307a3.714,3.714,0,0,1-.862,2.618,1.556,1.556,0,0,0-.39,1.162c.009,4.54.023,9.081-.008,13.621a5.113,5.113,0,0,0,.693,2.888c1.177,1.91,1.222,4.119,1.3,6.267.086,2.465.217,4.931.279,7.394.1,3.869.282,7.738.3,11.608.01,1.62.2,3.228.185,4.846a1.441,1.441,0,1,1-2.87-.186c.035-1.263-.137-2.51-.176-3.765-.063-2.019-.034-4.044-.164-6.054-.123-1.9.024-3.806-.125-5.7-.143-1.808.041-3.622-.244-5.428a15.938,15.938,0,0,1,0-2.641,11.974,11.974,0,0,0-1.049-5.291,3.345,3.345,0,0,0-2.945-2.048,2.924,2.924,0,0,0-2.334,1.717,7.29,7.29,0,0,0-1.168,3.853c.005,1.738.014,3.486-.144,5.214-.205,2.238,0,4.476-.134,6.706-.147,2.368-.288,4.733-.285,7.108,0,1.4-.077,2.808-.133,4.211-.034.852-.079,1.7-.146,2.553a1.588,1.588,0,0,1-1.391,1.181,1.309,1.309,0,0,1-1.306-1.22c-.025-.165-.029-.331-.043-.5.112-.209-.158-.333-.116-.528a32.787,32.787,0,0,0,.239-5.163c.158-2.841.166-5.691.29-8.539.148-3.413.159-6.833.3-10.25a12.851,12.851,0,0,1,1.416-5.674c.219-.41.633-.716.63-1.289-.028-3.942-.015-7.884-.013-11.826a.722.722,0,0,0-.211-.644A3.17,3.17,0,0,1,41.951,98.6c-.011-3.487-.037-6.975-.026-10.463,0-.517-.144-.639-.649-.635-3.173.022-6.347.009-9.52,0-1.241,0-2.481-.014-3.722-.028-.409,0-.671.02-.771.573-.161.889-.387,1.773-.6,2.655a47.943,47.943,0,0,0-1.187,9.344,61.607,61.607,0,0,0,.077,7.28c.154,1.951.327,3.9.438,5.858q.186,3.254.437,6.5c.163,2.072.274,4.149.423,6.222.153,2.142.324,4.285.434,6.429.1,2,.337,4,.424,6,.1,2.267.285,4.525.477,6.785l-.01.572a2.682,2.682,0,0,1-.594.795,1.2,1.2,0,0,1-1.942-.324,4.1,4.1,0,0,1-.446-2.176c-.068-1.652-.278-3.291-.345-4.943-.092-2.3-.374-4.592-.545-6.889-.067-.9-.035-1.793-.13-2.694-.2-1.939-.232-3.895-.438-5.838-.094-.89-.068-1.793-.132-2.691-.174-2.493-.405-4.984-.479-7.486-.037-1.241-.147-2.494-.281-3.728a71.04,71.04,0,0,1-.246-9.035,48.934,48.934,0,0,1,.638-6.452c.35-2.3.818-4.574,1.367-6.834.328-1.352.728-2.68,1.131-4.01a49.415,49.415,0,0,0,1.894-8.213c.2-1.6.281-3.213.556-4.8-.28-.085-.333.114-.4.242-1.277,2.363-2.521,4.745-3.827,7.093-1.61,2.9-3.118,5.851-4.822,8.7-.711,1.189-1.4,2.4-2.076,3.6a2.8,2.8,0,0,0,.156,3.257c.634.79,1.253,1.59,1.887,2.379,1.2,1.49,1.613,2.8.74,4.317a3.322,3.322,0,0,1-4.548,1.355c-1.387-.747-1.4-.8-1.848.714a5.557,5.557,0,0,1-1.714,2.979,4.531,4.531,0,0,1-4.261.92,32.409,32.409,0,0,1-5.074-1.679,4.352,4.352,0,0,1-2.169-2.695C-.379,99.9.366,98.5.9,97.018c1.072-2.941,2.347-5.8,3.56-8.677a13.41,13.41,0,0,0,.5-3.173c.215-1.293.346-2.6.509-3.9.166-1.325.317-2.651.492-3.975.18-1.364.324-2.736.586-4.084.441-2.274.909-4.547,1.569-6.768A82.645,82.645,0,0,1,13.46,52.875a71.827,71.827,0,0,1,7.777-12.339,33.491,33.491,0,0,1,2.226-2.664,4.368,4.368,0,0,1,1.387-.791Q30.993,34.1,37.125,31.09c.732-.359.792-.51.311-1.194a20.788,20.788,0,0,1-2.318-4.311,23.119,23.119,0,0,1-1.206-4.331,23.844,23.844,0,0,1-.211-4.33c.03-.113.1-.242-.1-.265M53.577,58.811h.012q0,9.493-.008,18.985c0,.44.079.649.582.647,3.411-.016,6.822.006,10.233-.01,1.239-.006,1.243-.039.99-1.259a38.729,38.729,0,0,1-.815-6.475,71.081,71.081,0,0,1,.1-8.5c.2-2.435.466-4.856.867-7.267.479-2.88,1.08-5.728,1.82-8.552.548-2.088,1.14-4.159,1.836-6.2.165-.481.11-.722-.438-.96-.707-.307-1.427-.6-2.121-.936-1.472-.724-2.939-1.458-4.417-2.171-.315-.153-.639-.443-1.027-.156a22.016,22.016,0,0,1-7.025,3.184c-.491.144-.594.363-.593.825q.02,9.421.009,18.842M27.93,60.977c-.161-1.237-.3-2.477-.489-3.709-.255-1.683-.49-3.372-.84-5.036-.257-1.221-.542-2.44-.834-3.655-.514-2.14-1.16-4.241-1.759-6.355-.127-.449-.344-.394-.569-.1a85.464,85.464,0,0,0-6.091,9.511c-1.335,2.348-2.458,4.807-3.558,7.275a60.68,60.68,0,0,0-3.232,9.207,50.152,50.152,0,0,0-1.606,8.067c-.169,1.769-.449,3.528-.692,5.289-.182,1.321-.372,2.641-.579,3.959-.14.891-.024,1.115.85,1.321,1.867.438,3.731.89,5.61,1.265.362.072.874.273,1.182-.322,1.03-1.986,2.1-3.95,3.163-5.919,1.251-2.319,2.5-4.641,3.768-6.949q2.736-4.969,5.508-9.919a2.224,2.224,0,0,0,.264-1.091c.014-.95-.035-1.893-.1-2.841M71.8,41.762a.781.781,0,0,0-.368.546q-.449,1.457-.852,2.927a90.927,90.927,0,0,0-2.153,9.5c-.4,2.456-.649,4.936-.936,7.409a5.622,5.622,0,0,0,.78,3.689c2.687,4.574,5.149,9.272,7.717,13.911,1.438,2.6,2.819,5.226,4.2,7.851a.738.738,0,0,0,.92.44c1.831-.41,3.667-.8,5.492-1.237,1.221-.292,1.25-.324,1.144-1.565-.108-1.262-.283-2.519-.452-3.775-.222-1.649-.521-3.291-.687-4.946a43.185,43.185,0,0,0-.805-4.9,73.758,73.758,0,0,0-2.486-8.691,55.4,55.4,0,0,0-2.786-6.774c-1.335-2.629-2.711-5.237-4.219-7.779A77.47,77.47,0,0,0,71.8,41.762M41.918,58.857h.055c0-6.332-.01-12.664.018-19,0-.527-.307-.6-.622-.683a19.427,19.427,0,0,1-6.463-2.891,1.589,1.589,0,0,0-1.726-.115c-.769.359-1.529.736-2.3,1.1-1.47.692-2.946,1.372-4.41,2.076-.181.087-.512.12-.319.521A23.274,23.274,0,0,1,27.426,43.7c.775,2.757,1.5,5.528,2.035,8.346.416,2.186.743,4.381,1.024,6.59.274,2.155.358,4.318.524,6.477a57.876,57.876,0,0,1-.149,6.565,17.442,17.442,0,0,1-.148,1.9c-.216,1.459-.46,2.914-.688,4.371-.054.341.035.5.448.5,3.579-.026,7.159-.039,10.739-.021.569,0,.721-.156.719-.722-.02-6.285-.012-12.569-.012-18.853m2.85,39.787A1.41,1.41,0,0,0,45.4,98.4c1.374-.632,2.683-1.4,4.115-1.913a1.717,1.717,0,0,0,1.3-1.959c-.007-3.288-.017-6.574-.144-9.862-.085-2.182.007-4.374.077-6.564.138-4.3.089-8.6.058-12.9-.067-9.357.192-18.717-.15-28.072-.036-.979,0-1.96-.018-2.939-.007-.362.024-.692-.612-.524A7.064,7.064,0,0,1,48,33.854a24.414,24.414,0,0,1-2.682-.158c-.3-.043-.406.059-.411.384-.043,2.356-.17,4.712-.154,7.067.094,13.541-.215,27.084.155,40.625.033,1.207-.073,2.42-.1,3.625-.091,3.917-.037,7.837-.04,11.757v1.489m2.893-67.891c.87-.06,1.743-.032,2.617-.158,1.339-.193,2.5-.959,3.8-1.155a2.668,2.668,0,0,0,1.968-1.4c.369-.575.734-1.156,1.044-1.764a13.766,13.766,0,0,0,1.413-4.4c.233-1.731-.759-3.059-1.865-4.233-2.4-2.546-5.512-3.416-8.877-3.6a11.33,11.33,0,0,0-3.322.436,10.612,10.612,0,0,0-6.556,4.392,3.991,3.991,0,0,0-.943,3.291,18.153,18.153,0,0,0,2.74,6.115A2.021,2.021,0,0,0,41.418,29.4a1.86,1.86,0,0,1,.861.25,10.513,10.513,0,0,0,5.381,1.106M58.761,15.7a4.9,4.9,0,0,0-.223-2.036c-.9-4.1-2.789-7.55-6.574-9.668a8.654,8.654,0,0,0-6.782-.731,8.985,8.985,0,0,0-4.1,2.525,16.244,16.244,0,0,0-3.6,5.919,13.322,13.322,0,0,0-.778,3.452.551.551,0,0,0,.111.425c.188.166.276-.085.382-.182.411-.38.806-.771,1.256-1.115A15,15,0,0,1,52.24,11.978a14.543,14.543,0,0,1,4.544,2.162c.653.479,1.206,1.089,1.977,1.555m28.064,87.555a2.725,2.725,0,0,0,1.29-.3,23.35,23.35,0,0,0,3.634-1.267c.505-.26.958-.713.943-1.171a5.523,5.523,0,0,0-.385-1.922q-1.777-4.288-3.471-8.61c-.174-.441-.394-.6-.848-.5-1.9.415-3.8.849-5.716,1.213-.615.117-.757.4-.7.955a4.539,4.539,0,0,1-1.156,3.478c-.654.79-1.282,1.6-1.923,2.4a1.185,1.185,0,0,0-.36.9c.048.376.121.631.632.419A18.567,18.567,0,0,0,80.731,97.7,2.156,2.156,0,0,1,84,98.833a21.918,21.918,0,0,1,.734,2.427,2.265,2.265,0,0,0,2.095,1.99m-78.307,0c1.335.1,2.029-.921,2.294-2.081a13.289,13.289,0,0,1,.87-2.564,1.985,1.985,0,0,1,2.528-1.115,8.107,8.107,0,0,1,1.976,1.1c.4.219.891.416,1.179.1.261-.285.049-.769-.243-1.1-.063-.071-.117-.151-.177-.225-.684-.859-1.393-1.7-2.047-2.58a4.515,4.515,0,0,1-.989-3.577c.064-.36-.158-.4-.386-.436-2-.294-3.948-.795-5.908-1.256a.608.608,0,0,0-.833.414c-1.224,3.093-2.491,6.17-3.7,9.268-.54,1.383-.113,2.173,1.269,2.788,1.031.458,2.165.585,3.186,1.086a1.325,1.325,0,0,0,.981.173m26.619-18.6v-.013c2.05,0,4.1-.014,6.148.011.447.005.592-.123.576-.564-.026-.715-.028-1.432.009-2.146.025-.5-.143-.652-.649-.65q-5.577.028-11.154-.005a.793.793,0,0,0-.906.67,19.2,19.2,0,0,1-.6,2.007c-.216.561-.084.706.5.7,2.025-.024,4.051-.009,6.076-.009m25.273-.014v-.007q1.217,0,2.434,0c1.264,0,2.529.012,3.793.007.289,0,.659-.011.42-.466a16.262,16.262,0,0,1-.755-2.4c-.134-.387-.281-.492-.623-.491-3.818.009-7.635.024-11.453.017-.425,0-.54.169-.533.548.014.716.041,1.435,0,2.149-.029.5.111.663.631.655,2.028-.03,4.056-.012,6.084-.012M49.5,105.689c0-1.791-.024-3.582.013-5.373.013-.641-.364-.647-.691-.439-.747.478-1.607.713-2.35,1.2a.771.771,0,0,0-.415.741c.01,3.08.019,6.161-.007,9.241,0,.558.223.571.641.474a4.283,4.283,0,0,1,2.168.012c.493.139.659-.026.651-.551-.028-1.767-.011-3.534-.01-5.3m8.916-71.314a27.7,27.7,0,0,1-3.253-1.905.974.974,0,0,0-1.5.754c-.007.88.035,1.762.009,2.642-.013.429.177.508.512.408a11.714,11.714,0,0,0,1.254-.438,19.011,19.011,0,0,0,2.977-1.461m-16.576.219h.044c0-.405.023-.812,0-1.215-.068-.992-.761-1.358-1.6-.842a23.579,23.579,0,0,1-2.521,1.475c-.555.253-.467.5.009.75a23.235,23.235,0,0,0,3.613,1.488c.34.11.482,0,.464-.369-.021-.428-.005-.858-.005-1.287" transform="translate(0 0)" fill="#060707"/>
        <path id="Path_827937" data-name="Path 827937" d="M93.731,209.951c.016-1.618-.174-3.227-.184-4.847-.024-3.871-.209-7.738-.306-11.608-.062-2.464-.193-4.928-.279-7.394-.075-2.148-.12-4.356-1.3-6.266a5.115,5.115,0,0,1-.693-2.888c.031-4.54.017-9.081.008-13.621a1.555,1.555,0,0,1,.39-1.162,3.715,3.715,0,0,0,.862-2.619c-.016-2.1-.035-4.2.007-6.307.007-.349-.424-.758.073-1.074a.107.107,0,0,0,.094-.066,8.487,8.487,0,0,1,1.848-.054c3.484-.01,6.967-.005,10.451,0a14.694,14.694,0,0,0,1.767.108c.335-.039.353.289.4.481a61.586,61.586,0,0,1,1.317,7.075,66.726,66.726,0,0,1,.521,8.855c-.036,1.611-.094,3.228-.271,4.828-.138,1.244-.187,2.489-.284,3.732-.174,2.225-.224,4.457-.416,6.678-.187,2.162-.373,4.32-.445,6.491a35.441,35.441,0,0,1-.285,3.587c-.2,1.471-.061,2.954-.267,4.413-.35,2.479-.241,4.986-.554,7.468-.163,1.29-.132,2.6-.189,3.907-4.076.623-8.178.119-12.265.286" transform="translate(-38.62 -64.537)" fill="#cfdfec"/>
        <path id="Path_827938" data-name="Path 827938" d="M46.929,209.658c-.192-2.259-.378-4.517-.477-6.785-.087-2-.321-4-.424-6-.11-2.144-.281-4.287-.434-6.429-.148-2.074-.26-4.15-.423-6.223q-.256-3.25-.437-6.5c-.111-1.954-.284-3.906-.438-5.858a61.617,61.617,0,0,1-.077-7.28,47.943,47.943,0,0,1,1.187-9.344c.212-.882.439-1.765.6-2.654.1-.553.362-.578.771-.574,1.241.014,2.481.025,3.722.028,3.173.006,6.347.02,9.52,0,.505,0,.65.119.649.635-.01,3.488.016,6.975.026,10.463a3.172,3.172,0,0,0,1.039,2.614.721.721,0,0,1,.211.643c0,3.942-.014,7.884.013,11.826,0,.573-.411.879-.63,1.29a12.85,12.85,0,0,0-1.416,5.674c-.143,3.417-.154,6.837-.3,10.249-.124,2.848-.132,5.7-.29,8.54a32.776,32.776,0,0,1-.239,5.163c-.042.2.228.319.116.528-3.846.623-7.719.115-11.576.288-.135-.326-.419-.293-.691-.29" transform="translate(-18.742 -64.532)" fill="#cfdfec"/>
        <path id="Path_827939" data-name="Path 827939" d="M157.295,212.963c-.719-.144-.871.26-.846.94a1.87,1.87,0,0,1-.956,1.86,1.64,1.64,0,0,1-1.82-.1,1.917,1.917,0,0,1-.792-1.673c-.032-1.119.184-1.125-1.122-1.149-1.731-.032-2.479-1.265-1.736-2.822.322-.676.96-.727,1.566-.765,1.256-.08,1.283-.058,1.279-1.3,0-1.273.655-1.687,1.811-1.843a1.772,1.772,0,0,1,1.784,1.775,3.238,3.238,0,0,1,.005.429c-.037.67.2.979.945.948,1.184-.05,1.789.369,2.065,1.254.408,1.307-.6,2.47-2.182,2.444" transform="translate(-63.568 -87.497)" fill="#5fc1ec"/>
        <path id="Path_827940" data-name="Path 827940" d="M28.795,22.761a.626.626,0,0,1-.462.395,5.9,5.9,0,0,0-4.255,4.168c-.046.149-.069.36-.277.37s-.24-.187-.292-.345A6.512,6.512,0,0,0,18.986,23.1c-.2-.066-.556-.049-.552-.356.006-.382.376-.254.607-.324a7.317,7.317,0,0,0,3.754-2.8,4.472,4.472,0,0,0,.711-1.538c.041-.152.012-.368.262-.342.189.02.162.2.2.33a6.028,6.028,0,0,0,2.643,3.494,14.174,14.174,0,0,0,1.781.86c.175.077.373.082.4.331" transform="translate(-7.826 -7.533)" fill="#b8cdde"/>
        <path id="Path_827941" data-name="Path 827941" d="M152.157,66.727a5.516,5.516,0,0,0,1.892,2.775,6.871,6.871,0,0,0,1.387.73c.158.063.329.178.319.352-.013.235-.249.151-.4.191a4.114,4.114,0,0,0-2.673,2.3c-.164.33-.314.667-.532,1.131-.2-.443-.341-.737-.475-1.033a4.314,4.314,0,0,0-2.633-2.363c-.193-.067-.478-.047-.465-.341.01-.243.264-.213.436-.28a4.667,4.667,0,0,0,2.709-2.5l.43-.963" transform="translate(-63.078 -28.328)" fill="#5fc1ec"/>
        <path id="Path_827942" data-name="Path 827942" d="M46.492.2a1.752,1.752,0,0,1,1.94,1.8,1.847,1.847,0,0,1-1.8,1.966,1.915,1.915,0,0,1-1.948-1.943A1.656,1.656,0,0,1,46.492.2" transform="translate(-18.968 -0.084)" fill="#b8cdde"/>
        <path id="Path_827943" data-name="Path 827943" d="M140.814,233.984a1.872,1.872,0,1,1,.037,3.742,1.833,1.833,0,0,1-1.841-1.926,1.656,1.656,0,0,1,1.8-1.816" transform="translate(-59.015 -99.334)" fill="#b8cdde"/>
        <path id="Path_827944" data-name="Path 827944" d="M48.972,252.185c.272,0,.556-.036.691.29-.093.445-.453.224-.7.282l.01-.572" transform="translate(-20.786 -107.06)" fill="#e6f0fb"/>
        <path id="Path_827945" data-name="Path 827945" d="M58.33,28.949c.205.022.132.152.1.265-.277,0-.161-.14-.1-.265" transform="translate(-24.731 -12.29)" fill="#b8cdde"/>
        <path id="Path_827946" data-name="Path 827946" d="M93.095,85.25q0-9.421-.009-18.842c0-.463.1-.681.593-.825A22.008,22.008,0,0,0,100.7,62.4c.388-.287.712,0,1.027.156,1.477.713,2.945,1.447,4.417,2.171.694.341,1.414.63,2.121.937.548.238.6.479.438.96-.7,2.042-1.289,4.114-1.836,6.2-.741,2.824-1.341,5.672-1.82,8.552-.4,2.411-.662,4.832-.867,7.267a70.95,70.95,0,0,0-.1,8.5,38.727,38.727,0,0,0,.815,6.475c.253,1.22.249,1.253-.99,1.259-3.411.016-6.822-.006-10.234.01-.5,0-.582-.207-.581-.647q.017-9.493.008-18.985Z" transform="translate(-39.518 -26.438)" fill="#cfdfec"/>
        <path id="Path_827947" data-name="Path 827947" d="M33.561,91.881c.063.948.112,1.892.1,2.841a2.218,2.218,0,0,1-.264,1.091q-2.761,4.956-5.508,9.919c-1.271,2.308-2.517,4.63-3.768,6.949-1.062,1.969-2.134,3.933-3.163,5.919-.308.594-.821.394-1.182.322-1.879-.375-3.743-.828-5.61-1.265-.874-.205-.99-.43-.85-1.321.208-1.318.4-2.638.579-3.959.243-1.762.523-3.52.692-5.289a50.277,50.277,0,0,1,1.606-8.067,60.745,60.745,0,0,1,3.233-9.207c1.1-2.468,2.223-4.927,3.558-7.275a85.381,85.381,0,0,1,6.091-9.511c.226-.3.442-.352.569.1.6,2.115,1.244,4.215,1.759,6.355.292,1.215.577,2.435.834,3.655.35,1.664.585,3.353.84,5.036.187,1.233.327,2.473.489,3.709" transform="translate(-5.631 -30.904)" fill="#e6f0fb"/>
        <path id="Path_827948" data-name="Path 827948" d="M121.553,72.571a77.338,77.338,0,0,1,4.513,6.608c1.508,2.541,2.884,5.149,4.219,7.779a55.493,55.493,0,0,1,2.787,6.774,73.892,73.892,0,0,1,2.485,8.691,43.056,43.056,0,0,1,.805,4.9c.166,1.655.465,3.3.687,4.946.169,1.256.345,2.513.452,3.775.106,1.241.077,1.274-1.144,1.565-1.825.436-3.661.827-5.492,1.237a.737.737,0,0,1-.92-.44c-1.387-2.625-2.768-5.253-4.206-7.851-2.568-4.639-5.03-9.338-7.717-13.911a5.624,5.624,0,0,1-.78-3.689c.288-2.473.54-4.954.936-7.409a90.932,90.932,0,0,1,2.153-9.5q.4-1.47.852-2.927a.781.781,0,0,1,.368-.546" transform="translate(-49.754 -30.809)" fill="#e6f0fb"/>
        <path id="Path_827949" data-name="Path 827949" d="M61.17,85.394c0,6.284-.007,12.569.012,18.853,0,.566-.15.725-.719.722q-5.37-.027-10.739.022c-.412,0-.5-.157-.448-.5.228-1.458.472-2.912.688-4.371a17.429,17.429,0,0,0,.147-1.9,57.876,57.876,0,0,0,.149-6.565c-.165-2.159-.249-4.322-.524-6.477-.281-2.209-.608-4.4-1.024-6.59-.536-2.817-1.26-5.589-2.035-8.346a23.142,23.142,0,0,0-1.271-3.836c-.193-.4.139-.434.319-.521,1.465-.7,2.94-1.384,4.41-2.076.768-.361,1.527-.739,2.3-1.1a1.59,1.59,0,0,1,1.726.115,19.413,19.413,0,0,0,6.464,2.891c.314.081.624.156.622.683-.028,6.332-.018,12.664-.018,19H61.17" transform="translate(-19.252 -26.537)" fill="#cfdfec"/>
        <path id="Path_827950" data-name="Path 827950" d="M77.759,123.441v-1.489c0-3.92-.052-7.84.04-11.757.028-1.206.134-2.418.1-3.625-.371-13.54-.062-27.083-.155-40.625-.016-2.355.112-4.711.154-7.067.006-.325.113-.427.411-.384a24.431,24.431,0,0,0,2.682.158,7.066,7.066,0,0,0,2.028-.195c.636-.169.6.162.612.524.02.979-.018,1.961.018,2.939.342,9.356.083,18.715.151,28.072.031,4.3.079,8.606-.058,12.9-.07,2.19-.162,4.382-.077,6.564.128,3.288.137,6.574.144,9.862a1.717,1.717,0,0,1-1.3,1.959c-1.432.511-2.741,1.281-4.115,1.913a1.41,1.41,0,0,1-.634.246" transform="translate(-32.991 -24.797)" fill="#e6f0fb"/>
        <path id="Path_827951" data-name="Path 827951" d="M74.843,41.107A10.516,10.516,0,0,1,69.461,40a1.858,1.858,0,0,0-.861-.25,2.021,2.021,0,0,1-1.74-1.116,18.164,18.164,0,0,1-2.74-6.115,3.989,3.989,0,0,1,.943-3.291,10.611,10.611,0,0,1,6.557-4.393,11.327,11.327,0,0,1,3.322-.436c3.364.184,6.479,1.053,8.877,3.6,1.1,1.173,2.1,2.5,1.865,4.233a13.768,13.768,0,0,1-1.413,4.4c-.31.608-.674,1.189-1.044,1.764a2.669,2.669,0,0,1-1.969,1.4c-1.3.2-2.46.962-3.8,1.155-.875.126-1.747.1-2.617.158" transform="translate(-27.182 -10.354)" fill="#b8cdde"/>
        <path id="Path_827952" data-name="Path 827952" d="M85.834,17.825c-.771-.467-1.324-1.076-1.977-1.555a14.53,14.53,0,0,0-4.544-2.162,15,15,0,0,0-13.789,2.306c-.451.344-.845.735-1.256,1.115-.106.1-.194.348-.382.182a.552.552,0,0,1-.111-.425,13.323,13.323,0,0,1,.778-3.452,16.245,16.245,0,0,1,3.6-5.919,8.991,8.991,0,0,1,4.1-2.526,8.656,8.656,0,0,1,6.782.732c3.785,2.118,5.672,5.568,6.574,9.667a4.9,4.9,0,0,1,.223,2.037" transform="translate(-27.073 -2.129)" fill="#e6f0fb"/>
        <path id="Path_827953" data-name="Path 827953" d="M144.463,169.242a2.265,2.265,0,0,1-2.095-1.99,21.9,21.9,0,0,0-.734-2.427,2.157,2.157,0,0,0-3.266-1.137,18.568,18.568,0,0,1-1.961,1.156c-.511.212-.584-.043-.632-.419a1.184,1.184,0,0,1,.36-.9c.641-.8,1.269-1.613,1.923-2.4a4.539,4.539,0,0,0,1.155-3.478c-.06-.556.082-.837.7-.955,1.913-.364,3.812-.8,5.716-1.213.454-.1.674.06.848.5q1.7,4.318,3.471,8.61a5.507,5.507,0,0,1,.385,1.921c.016.458-.437.91-.943,1.171a23.348,23.348,0,0,1-3.633,1.268,2.727,2.727,0,0,1-1.29.3" transform="translate(-57.638 -65.992)" fill="#5fc1ec"/>
        <path id="Path_827954" data-name="Path 827954" d="M10.625,169.257a1.327,1.327,0,0,1-.981-.172c-1.021-.5-2.156-.628-3.186-1.086-1.383-.615-1.809-1.4-1.269-2.787,1.21-3.1,2.476-6.175,3.7-9.268a.608.608,0,0,1,.833-.414c1.96.462,3.912.962,5.908,1.257.228.033.451.075.386.434A4.515,4.515,0,0,0,17,160.8c.654.881,1.363,1.721,2.047,2.58.059.075.113.154.177.225.293.327.5.81.243,1.1-.288.314-.78.119-1.179-.1a8.124,8.124,0,0,0-1.976-1.1,1.986,1.986,0,0,0-2.528,1.114,13.335,13.335,0,0,0-.87,2.565c-.265,1.16-.959,2.179-2.294,2.08" transform="translate(-2.107 -66.012)" fill="#5fc1ec"/>
        <path id="Path_827955" data-name="Path 827955" d="M56.139,144.607c-2.026,0-4.051-.014-6.076.009-.58.007-.711-.139-.5-.7a19.172,19.172,0,0,0,.6-2.008.792.792,0,0,1,.906-.67q5.577.034,11.154.005c.506,0,.674.15.649.65-.036.714-.035,1.432-.009,2.147.016.44-.129.569-.576.564-2.049-.025-4.1-.011-6.148-.011v.013" transform="translate(-21.001 -59.961)" fill="#5fc1ec"/>
        <path id="Path_827956" data-name="Path 827956" d="M100.02,144.588c-2.028,0-4.056-.018-6.084.012-.521.007-.66-.155-.632-.655.041-.714.014-1.432,0-2.149-.007-.38.108-.549.532-.548,3.818.006,7.636-.009,11.454-.018.342,0,.489.105.622.492a16.267,16.267,0,0,0,.756,2.4c.24.454-.131.464-.42.465-1.265,0-2.529,0-3.794-.007q-1.216,0-2.434,0Z" transform="translate(-39.609 -59.957)" fill="#5fc1ec"/>
        <path id="Path_827957" data-name="Path 827957" d="M83.472,179.281c0,1.767-.018,3.535.011,5.3.008.525-.159.69-.651.551a4.281,4.281,0,0,0-2.167-.012c-.418.1-.646.083-.641-.474.026-3.08.017-6.161.007-9.241a.77.77,0,0,1,.415-.741c.742-.482,1.6-.718,2.35-1.2.327-.209.7-.2.691.439-.037,1.79-.013,3.582-.013,5.373" transform="translate(-33.972 -73.592)" fill="#5fc1ec"/>
        <path id="Path_827958" data-name="Path 827958" d="M98.005,58.216a18.961,18.961,0,0,1-2.977,1.461,11.716,11.716,0,0,1-1.254.438c-.334.1-.524.021-.512-.409.025-.88-.017-1.762-.009-2.642a.973.973,0,0,1,1.5-.753,27.826,27.826,0,0,0,3.253,1.9" transform="translate(-39.589 -23.841)" fill="#5fc1ec"/>
        <path id="Path_827959" data-name="Path 827959" d="M69.414,58.425c0,.429-.016.859.005,1.287.018.367-.124.479-.464.369a23.234,23.234,0,0,1-3.613-1.488c-.476-.247-.564-.5-.009-.75a23.578,23.578,0,0,0,2.521-1.475c.838-.516,1.532-.15,1.6.842.028.4,0,.81,0,1.215h-.044" transform="translate(-27.573 -23.831)" fill="#5fc1ec"/>
        <path id="Path_827960" data-name="Path 827960" d="M93.394,152.147a.106.106,0,0,1-.093.066c0-.061.022-.1.093-.066" transform="translate(-39.609 -64.586)" fill="#b8cdde"/>
      </g>
    </g>
  </g>
</svg>
