<svg xmlns="http://www.w3.org/2000/svg" xmlns:xlink="http://www.w3.org/1999/xlink" width="505" height="489" viewBox="0 0 505 489">
  <defs>
    <linearGradient id="linear-gradient" x1="0.5" x2="0.5" y2="1" gradientUnits="objectBoundingBox">
      <stop offset="0" stop-color="#defff8"/>
      <stop offset="0.803" stop-color="#eaf5ff"/>
      <stop offset="1" stop-color="#f0feff"/>
    </linearGradient>
    <radialGradient id="radial-gradient" cx="0.939" cy="0.315" r="1.102" gradientTransform="matrix(-0.485, 0.874, 0.444, 0.247, 1.256, -0.585)" gradientUnits="objectBoundingBox">
      <stop offset="0" stop-color="#91e82a"/>
      <stop offset="0.481" stop-color="#c1e29a" stop-opacity="0.878"/>
      <stop offset="1" stop-color="#c1e29a" stop-opacity="0.039"/>
    </radialGradient>
  </defs>
  <g id="Group_1075413" data-name="Group 1075413" transform="translate(2308 3936)">
    <g id="Group_1075358" data-name="Group 1075358" transform="translate(-2593 -11554.811)">
      <g id="Group_1074075" data-name="Group 1074075" transform="translate(285 7663.811)">
        <rect id="Rectangle_376022" data-name="Rectangle 376022" width="505" height="444" transform="translate(505 444) rotate(180)" fill="url(#linear-gradient)"/>
      </g>
      <path id="Path_828208" data-name="Path 828208" d="M0,0H505V45H0Z" transform="translate(285 7618.811)" fill="#ffae7e"/>
      <path id="Path_828209" data-name="Path 828209" d="M6.207-4.945H3.989V0H1.206V-13.508H6.225a5.674,5.674,0,0,1,3.692,1.067,3.682,3.682,0,0,1,1.3,3.015,4.156,4.156,0,0,1-.6,2.305A4.081,4.081,0,0,1,8.8-5.65L11.727-.13V0H8.739ZM3.989-7.2H6.234a2.3,2.3,0,0,0,1.624-.533A1.907,1.907,0,0,0,8.433-9.2a2.041,2.041,0,0,0-.543-1.5,2.255,2.255,0,0,0-1.665-.547H3.989ZM17.775.186A4.928,4.928,0,0,1,14.18-1.169a4.815,4.815,0,0,1-1.387-3.609v-.26a6.064,6.064,0,0,1,.584-2.7,4.289,4.289,0,0,1,1.656-1.837,4.648,4.648,0,0,1,2.445-.645,4.166,4.166,0,0,1,3.242,1.3A5.278,5.278,0,0,1,21.9-5.242v1.095H15.512A2.491,2.491,0,0,0,16.3-2.57a2.37,2.37,0,0,0,1.656.594A2.894,2.894,0,0,0,20.373-3.1L21.69-1.624A4.025,4.025,0,0,1,20.058-.292,5.357,5.357,0,0,1,17.775.186Zm-.306-8.248a1.675,1.675,0,0,0-1.294.54,2.8,2.8,0,0,0-.635,1.547h3.729v-.214a2,2,0,0,0-.482-1.384A1.729,1.729,0,0,0,17.469-8.062ZM27.6-1.976a1.759,1.759,0,0,0,1.206-.408,1.43,1.43,0,0,0,.482-1.085H31.8A3.439,3.439,0,0,1,31.246-1.6a3.673,3.673,0,0,1-1.5,1.317,4.689,4.689,0,0,1-2.1.469,4.358,4.358,0,0,1-3.4-1.368,5.415,5.415,0,0,1-1.243-3.781V-5.14a5.353,5.353,0,0,1,1.234-3.7,4.307,4.307,0,0,1,3.386-1.382,4.222,4.222,0,0,1,3.02,1.072A3.794,3.794,0,0,1,31.8-6.3H29.289a1.842,1.842,0,0,0-.482-1.273,1.608,1.608,0,0,0-1.225-.49,1.615,1.615,0,0,0-1.415.683,3.958,3.958,0,0,0-.478,2.216v.279a4.008,4.008,0,0,0,.473,2.23A1.635,1.635,0,0,0,27.6-1.976Zm5.316-3.136a5.953,5.953,0,0,1,.575-2.663,4.211,4.211,0,0,1,1.656-1.809,4.831,4.831,0,0,1,2.51-.64A4.571,4.571,0,0,1,40.973-8.98,4.989,4.989,0,0,1,42.407-5.6l.019.687a5.247,5.247,0,0,1-1.29,3.706,4.482,4.482,0,0,1-3.46,1.4A4.5,4.5,0,0,1,34.21-1.206a5.339,5.339,0,0,1-1.294-3.785Zm2.681.19a3.752,3.752,0,0,0,.538,2.188,1.775,1.775,0,0,0,1.54.757A1.779,1.779,0,0,0,39.2-2.724a4.106,4.106,0,0,0,.547-2.393A3.715,3.715,0,0,0,39.2-7.291a1.779,1.779,0,0,0-1.54-.771,1.75,1.75,0,0,0-1.521.767A4.175,4.175,0,0,0,35.6-4.921ZM46.906,0h-2.69V-14.25h2.69Zm6.828.186a4.928,4.928,0,0,1-3.595-1.354,4.815,4.815,0,0,1-1.387-3.609v-.26a6.064,6.064,0,0,1,.584-2.7,4.289,4.289,0,0,1,1.656-1.837,4.648,4.648,0,0,1,2.445-.645,4.166,4.166,0,0,1,3.242,1.3,5.278,5.278,0,0,1,1.183,3.683v1.095H51.471a2.491,2.491,0,0,0,.784,1.577,2.37,2.37,0,0,0,1.656.594A2.894,2.894,0,0,0,56.332-3.1l1.317,1.475A4.025,4.025,0,0,1,56.017-.292,5.357,5.357,0,0,1,53.734.186Zm-.306-8.248a1.675,1.675,0,0,0-1.294.54A2.8,2.8,0,0,0,51.5-5.975h3.729v-.214a2,2,0,0,0-.482-1.384A1.729,1.729,0,0,0,53.428-8.062ZM63.559-1.976a1.759,1.759,0,0,0,1.206-.408,1.43,1.43,0,0,0,.482-1.085h2.514A3.439,3.439,0,0,1,67.205-1.6a3.673,3.673,0,0,1-1.5,1.317,4.689,4.689,0,0,1-2.1.469,4.358,4.358,0,0,1-3.4-1.368,5.415,5.415,0,0,1-1.243-3.781V-5.14a5.353,5.353,0,0,1,1.234-3.7,4.307,4.307,0,0,1,3.386-1.382,4.222,4.222,0,0,1,3.02,1.072A3.794,3.794,0,0,1,67.762-6.3H65.248a1.842,1.842,0,0,0-.482-1.273,1.608,1.608,0,0,0-1.225-.49,1.615,1.615,0,0,0-1.415.683,3.958,3.958,0,0,0-.478,2.216v.279a4.008,4.008,0,0,0,.473,2.23A1.635,1.635,0,0,0,63.559-1.976Zm9.908,0a1.759,1.759,0,0,0,1.206-.408,1.43,1.43,0,0,0,.482-1.085H77.67A3.439,3.439,0,0,1,77.113-1.6a3.673,3.673,0,0,1-1.5,1.317,4.689,4.689,0,0,1-2.1.469,4.358,4.358,0,0,1-3.4-1.368,5.415,5.415,0,0,1-1.243-3.781V-5.14a5.353,5.353,0,0,1,1.234-3.7A4.307,4.307,0,0,1,73.5-10.224a4.222,4.222,0,0,1,3.02,1.072A3.794,3.794,0,0,1,77.67-6.3H75.156a1.842,1.842,0,0,0-.482-1.273,1.608,1.608,0,0,0-1.225-.49,1.615,1.615,0,0,0-1.415.683,3.958,3.958,0,0,0-.478,2.216v.279a4.008,4.008,0,0,0,.473,2.23A1.635,1.635,0,0,0,73.467-1.976ZM82.03,0H79.34V-10.038h2.69ZM79.182-12.636a1.32,1.32,0,0,1,.4-.993,1.516,1.516,0,0,1,1.1-.39,1.52,1.52,0,0,1,1.095.39,1.313,1.313,0,0,1,.408.993,1.316,1.316,0,0,1-.413,1,1.523,1.523,0,0,1-1.09.39,1.523,1.523,0,0,1-1.09-.39A1.316,1.316,0,0,1,79.182-12.636Zm4.639,7.524A5.953,5.953,0,0,1,84.4-7.774a4.211,4.211,0,0,1,1.656-1.809,4.831,4.831,0,0,1,2.51-.64A4.571,4.571,0,0,1,91.878-8.98,4.989,4.989,0,0,1,93.312-5.6l.019.687a5.247,5.247,0,0,1-1.29,3.706,4.482,4.482,0,0,1-3.46,1.4,4.5,4.5,0,0,1-3.465-1.392,5.339,5.339,0,0,1-1.294-3.785Zm2.681.19a3.752,3.752,0,0,0,.538,2.188,1.775,1.775,0,0,0,1.54.757A1.779,1.779,0,0,0,90.1-2.724a4.106,4.106,0,0,0,.547-2.393A3.715,3.715,0,0,0,90.1-7.291a1.779,1.779,0,0,0-1.54-.771A1.75,1.75,0,0,0,87.04-7.3,4.175,4.175,0,0,0,86.5-4.921ZM89.09-14.25h2.922l-2.57,2.876h-2.18Zm8.359,4.212.083,1.16a3.5,3.5,0,0,1,2.885-1.345,2.913,2.913,0,0,1,2.375.937,4.372,4.372,0,0,1,.8,2.8V0H100.91V-6.42a1.739,1.739,0,0,0-.371-1.239A1.661,1.661,0,0,0,99.3-8.043a1.844,1.844,0,0,0-1.7.965V0H94.926V-10.038Zm12.487,4.945a6.049,6.049,0,0,1,1.053-3.739,3.417,3.417,0,0,1,2.881-1.392,3.074,3.074,0,0,1,2.421,1.095V-14.25h2.69V0h-2.421l-.13-1.067A3.155,3.155,0,0,1,113.852.186a3.407,3.407,0,0,1-2.844-1.4A6.244,6.244,0,0,1,109.937-5.093Zm2.681.2a3.963,3.963,0,0,0,.492,2.165,1.6,1.6,0,0,0,1.429.753,1.794,1.794,0,0,0,1.753-1.05V-6.994a1.768,1.768,0,0,0-1.735-1.05Q112.618-8.043,112.618-4.894ZM125.68.186a4.928,4.928,0,0,1-3.595-1.354A4.815,4.815,0,0,1,120.7-4.778v-.26a6.064,6.064,0,0,1,.584-2.7,4.289,4.289,0,0,1,1.656-1.837,4.648,4.648,0,0,1,2.445-.645,4.166,4.166,0,0,1,3.242,1.3,5.278,5.278,0,0,1,1.183,3.683v1.095h-6.392A2.491,2.491,0,0,0,124.2-2.57a2.37,2.37,0,0,0,1.656.594A2.894,2.894,0,0,0,128.278-3.1L129.6-1.624a4.025,4.025,0,0,1-1.633,1.331A5.357,5.357,0,0,1,125.68.186Zm-.306-8.248a1.675,1.675,0,0,0-1.294.54,2.8,2.8,0,0,0-.635,1.547h3.729v-.214a2,2,0,0,0-.482-1.384A1.729,1.729,0,0,0,125.374-8.062ZM140.682.186a4.928,4.928,0,0,1-3.595-1.354A4.815,4.815,0,0,1,135.7-4.778v-.26a6.064,6.064,0,0,1,.584-2.7,4.289,4.289,0,0,1,1.656-1.837,4.648,4.648,0,0,1,2.445-.645,4.166,4.166,0,0,1,3.242,1.3,5.278,5.278,0,0,1,1.183,3.683v1.095h-6.392A2.491,2.491,0,0,0,139.2-2.57a2.37,2.37,0,0,0,1.656.594A2.894,2.894,0,0,0,143.279-3.1L144.6-1.624a4.025,4.025,0,0,1-1.633,1.331A5.357,5.357,0,0,1,140.682.186Zm-.306-8.248a1.675,1.675,0,0,0-1.294.54,2.8,2.8,0,0,0-.635,1.547h3.729v-.214a2,2,0,0,0-.482-1.384A1.729,1.729,0,0,0,140.375-8.062Zm9.593,4.787,1.865-6.763h2.8L151.249,0h-2.561L145.3-10.038h2.8ZM158.643,0h-2.69V-10.038h2.69Zm-2.848-12.636a1.32,1.32,0,0,1,.4-.993,1.516,1.516,0,0,1,1.1-.39,1.52,1.52,0,0,1,1.095.39,1.313,1.313,0,0,1,.408.993,1.316,1.316,0,0,1-.413,1,1.523,1.523,0,0,1-1.09.39,1.523,1.523,0,0,1-1.09-.39A1.316,1.316,0,0,1,155.794-12.636Zm4.639,7.542a6.049,6.049,0,0,1,1.053-3.739,3.417,3.417,0,0,1,2.881-1.392,3.074,3.074,0,0,1,2.421,1.095V-14.25h2.69V0h-2.421l-.13-1.067A3.155,3.155,0,0,1,164.348.186a3.407,3.407,0,0,1-2.844-1.4A6.244,6.244,0,0,1,160.433-5.093Zm2.681.2a3.963,3.963,0,0,0,.492,2.165,1.6,1.6,0,0,0,1.429.753,1.794,1.794,0,0,0,1.753-1.05V-6.994a1.768,1.768,0,0,0-1.735-1.05Q163.114-8.043,163.114-4.894ZM176.177.186a4.928,4.928,0,0,1-3.595-1.354,4.815,4.815,0,0,1-1.387-3.609v-.26a6.064,6.064,0,0,1,.584-2.7,4.289,4.289,0,0,1,1.656-1.837,4.648,4.648,0,0,1,2.445-.645,4.166,4.166,0,0,1,3.242,1.3,5.278,5.278,0,0,1,1.183,3.683v1.095h-6.392A2.491,2.491,0,0,0,174.7-2.57a2.37,2.37,0,0,0,1.656.594A2.894,2.894,0,0,0,178.774-3.1l1.317,1.475a4.025,4.025,0,0,1-1.633,1.331A5.357,5.357,0,0,1,176.177.186Zm-.306-8.248a1.675,1.675,0,0,0-1.294.54,2.8,2.8,0,0,0-.635,1.547h3.729v-.214a2,2,0,0,0-.482-1.384A1.729,1.729,0,0,0,175.871-8.062Zm8.424-1.976.083,1.16a3.5,3.5,0,0,1,2.885-1.345,2.913,2.913,0,0,1,2.375.937,4.372,4.372,0,0,1,.8,2.8V0h-2.681V-6.42a1.739,1.739,0,0,0-.371-1.239,1.661,1.661,0,0,0-1.234-.385,1.844,1.844,0,0,0-1.7.965V0h-2.681V-10.038Zm12.348,8.062a1.759,1.759,0,0,0,1.206-.408,1.43,1.43,0,0,0,.482-1.085h2.514a3.439,3.439,0,0,1-.557,1.869,3.673,3.673,0,0,1-1.5,1.317,4.689,4.689,0,0,1-2.1.469,4.358,4.358,0,0,1-3.4-1.368,5.415,5.415,0,0,1-1.243-3.781V-5.14a5.353,5.353,0,0,1,1.234-3.7,4.307,4.307,0,0,1,3.386-1.382,4.222,4.222,0,0,1,3.02,1.072A3.794,3.794,0,0,1,200.845-6.3h-2.514a1.842,1.842,0,0,0-.482-1.273,1.608,1.608,0,0,0-1.225-.49,1.615,1.615,0,0,0-1.415.683,3.958,3.958,0,0,0-.478,2.216v.279a4.008,4.008,0,0,0,.473,2.23A1.635,1.635,0,0,0,196.643-1.976ZM205.206,0h-2.69V-10.038h2.69Zm-2.848-12.636a1.32,1.32,0,0,1,.4-.993,1.516,1.516,0,0,1,1.1-.39,1.52,1.52,0,0,1,1.095.39,1.313,1.313,0,0,1,.408.993,1.316,1.316,0,0,1-.413,1,1.523,1.523,0,0,1-1.09.39,1.523,1.523,0,0,1-1.09-.39A1.316,1.316,0,0,1,202.357-12.636ZM213.23,0a2.977,2.977,0,0,1-.269-.9A3.244,3.244,0,0,1,210.429.186a3.564,3.564,0,0,1-2.445-.854,2.745,2.745,0,0,1-.969-2.152A2.837,2.837,0,0,1,208.2-5.27a5.837,5.837,0,0,1,3.419-.863h1.234v-.575a1.654,1.654,0,0,0-.357-1.113,1.405,1.405,0,0,0-1.127-.417,1.6,1.6,0,0,0-1.062.325,1.1,1.1,0,0,0-.385.891h-2.681a2.693,2.693,0,0,1,.538-1.614A3.557,3.557,0,0,1,209.3-9.8a5.545,5.545,0,0,1,2.208-.422,4.381,4.381,0,0,1,2.946.932,3.262,3.262,0,0,1,1.09,2.621v4.351a4.8,4.8,0,0,0,.4,2.162V0Zm-2.217-1.865a2.309,2.309,0,0,0,1.095-.264,1.737,1.737,0,0,0,.742-.71V-4.564h-1q-2.013,0-2.143,1.392l-.009.158a1.073,1.073,0,0,0,.353.826A1.369,1.369,0,0,0,211.013-1.865Z" transform="translate(429 7646.811)" fill="#12263f" stroke="rgba(0,0,0,0)" stroke-width="1"/>
      <g id="Group_1075357" data-name="Group 1075357" transform="translate(-63 9)">
        <path id="Path_823837" data-name="Path 823837" d="M-7622.728-6124.137h-345.628" transform="translate(8414.729 13850.945)" fill="none" stroke="#707070" stroke-width="2"/>
        <path id="Path_827918" data-name="Path 827918" d="M-7630.728-6124.137h-337.628" transform="translate(8414.729 13943.342)" fill="none" stroke="#707070" stroke-width="2"/>
        <path id="Path_827923" data-name="Path 827923" d="M-7618.728-6124.137h-349.628" transform="translate(8414.729 14025.059)" fill="none" stroke="#707070" stroke-width="2"/>
        <path id="Path_828210" data-name="Path 828210" d="M16,0H90a16,16,0,0,1,0,32H16A16,16,0,0,1,16,0Z" transform="translate(468.001 7736.811)" fill="#c1e29a"/>
        <path id="Path_828211" data-name="Path 828211" d="M13.5,0h82a13.5,13.5,0,0,1,0,27h-82a13.5,13.5,0,0,1,0-27Z" transform="translate(468.001 7839.811)" fill="#c1e29a"/>
        <path id="Path_828212" data-name="Path 828212" d="M15.5,0h86a15.5,15.5,0,0,1,0,31h-86a15.5,15.5,0,0,1,0-31Z" transform="translate(453.001 7954.811)" fill="#c1e29a"/>
        <path id="Path_828213" data-name="Path 828213" d="M15.5,0H72a15.5,15.5,0,0,1,0,31H15.5a15.5,15.5,0,0,1,0-31Z" transform="translate(569.501 7764.001)" fill="#c1e29a"/>
        <path id="Path_828214" data-name="Path 828214" d="M15.5,0h88a15.5,15.5,0,0,1,0,31h-88a15.5,15.5,0,0,1,0-31Z" transform="translate(593.001 7838.811)" fill="#c1e29a"/>
        <path id="Path_828215" data-name="Path 828215" d="M16,0H126a16,16,0,0,1,0,32H16A16,16,0,0,1,16,0Z" transform="translate(516.001 7913.265)" fill="#c1e29a"/>
        <path id="Path_828216" data-name="Path 828216" d="M15.5,0h60a15.5,15.5,0,0,1,0,31h-60a15.5,15.5,0,0,1,0-31Z" transform="translate(657 7737.811)" fill="#c1e29a"/>
        <path id="Path_828217" data-name="Path 828217" d="M15.5,0h89a15.5,15.5,0,0,1,0,31h-89a15.5,15.5,0,0,1,0-31Z" transform="translate(724.001 7838.811)" fill="#c1e29a"/>
        <path id="Path_828218" data-name="Path 828218" d="M16,0h87a16,16,0,0,1,0,32H16A16,16,0,0,1,16,0Z" transform="translate(603.001 7955.811)" fill="#c1e29a"/>
        <path id="Path_828219" data-name="Path 828219" d="M16,0h88a16,16,0,0,1,0,32H16A16,16,0,0,1,16,0Z" transform="translate(667.001 7913.811)" fill="#c1e29a"/>
        <path id="Path_828220" data-name="Path 828220" d="M16,0H80a16,16,0,0,1,0,32H16A16,16,0,0,1,16,0Z" transform="translate(748.001 7952.205)" fill="#c1e29a"/>
        <path id="Path_828221" data-name="Path 828221" d="M15.5,0h56a15.5,15.5,0,0,1,0,31h-56a15.5,15.5,0,0,1,0-31Z" transform="translate(748.001 7763.811)" fill="#c1e29a"/>
        <path id="Path_828222" data-name="Path 828222" d="M-45.789,0V-9.242h2.844a4.319,4.319,0,0,1,2.18.549,3.829,3.829,0,0,1,1.5,1.562,4.816,4.816,0,0,1,.54,2.3v.425a4.83,4.83,0,0,1-.53,2.292A3.8,3.8,0,0,1-40.749-.559,4.351,4.351,0,0,1-42.926,0Zm1.9-7.7v6.17h.92a2.068,2.068,0,0,0,1.708-.73,3.3,3.3,0,0,0,.6-2.088v-.489a3.351,3.351,0,0,0-.584-2.136A2.061,2.061,0,0,0-42.945-7.7Zm10.4,7.7a2.037,2.037,0,0,1-.184-.616A2.22,2.22,0,0,1-35.4.127,2.439,2.439,0,0,1-37.07-.457a1.878,1.878,0,0,1-.663-1.473,1.941,1.941,0,0,1,.809-1.676,3.994,3.994,0,0,1,2.339-.59h.844v-.394a1.132,1.132,0,0,0-.244-.762.961.961,0,0,0-.771-.286,1.093,1.093,0,0,0-.727.222.755.755,0,0,0-.263.609h-1.834a1.843,1.843,0,0,1,.368-1.1,2.434,2.434,0,0,1,1.041-.8A3.794,3.794,0,0,1-34.661-7a3,3,0,0,1,2.015.638A2.232,2.232,0,0,1-31.9-4.564v2.977a3.284,3.284,0,0,0,.273,1.479V0ZM-35-1.276a1.58,1.58,0,0,0,.749-.181,1.188,1.188,0,0,0,.508-.486V-3.123h-.686q-1.377,0-1.466.952l-.006.108a.734.734,0,0,0,.241.565A.937.937,0,0,0-35-1.276Zm7.363-.076a1.2,1.2,0,0,0,.825-.279.979.979,0,0,0,.33-.743h1.72a2.353,2.353,0,0,1-.381,1.279,2.513,2.513,0,0,1-1.025.9A3.208,3.208,0,0,1-27.6.127a2.982,2.982,0,0,1-2.323-.936A3.705,3.705,0,0,1-30.777-3.4v-.121a3.663,3.663,0,0,1,.844-2.533A2.947,2.947,0,0,1-27.615-7a2.889,2.889,0,0,1,2.066.733,2.6,2.6,0,0,1,.79,1.952h-1.72a1.261,1.261,0,0,0-.33-.871,1.1,1.1,0,0,0-.838-.335,1.1,1.1,0,0,0-.968.467,2.708,2.708,0,0,0-.327,1.516v.191a2.742,2.742,0,0,0,.324,1.526A1.119,1.119,0,0,0-27.635-1.352Zm6.119-7.2v1.688h1.174v1.346h-1.174v3.428a.818.818,0,0,0,.146.546.733.733,0,0,0,.559.165,2.925,2.925,0,0,0,.54-.044v1.39a3.777,3.777,0,0,1-1.111.165A1.752,1.752,0,0,1-23.35-1.822v-3.7h-1V-6.868h1V-8.557ZM-17.383,0h-1.841V-6.868h1.841Zm-1.949-8.646a.9.9,0,0,1,.276-.679,1.037,1.037,0,0,1,.752-.267,1.04,1.04,0,0,1,.749.267.9.9,0,0,1,.279.679.9.9,0,0,1-.282.686,1.042,1.042,0,0,1-.746.267,1.042,1.042,0,0,1-.746-.267A.9.9,0,0,1-19.332-8.646ZM-13.936,0h-1.841V-9.75h1.841Zm1.225-3.5a4.073,4.073,0,0,1,.394-1.822,2.881,2.881,0,0,1,1.133-1.238A3.306,3.306,0,0,1-9.468-7,3.127,3.127,0,0,1-7.2-6.145a3.414,3.414,0,0,1,.981,2.311l.013.47A3.59,3.59,0,0,1-7.087-.828,3.067,3.067,0,0,1-9.455.127a3.082,3.082,0,0,1-2.371-.952,3.653,3.653,0,0,1-.885-2.59Zm1.834.13a2.567,2.567,0,0,0,.368,1.5,1.215,1.215,0,0,0,1.054.518,1.217,1.217,0,0,0,1.041-.512A2.809,2.809,0,0,0-8.039-3.5a2.542,2.542,0,0,0-.375-1.488,1.217,1.217,0,0,0-1.054-.528,1.2,1.2,0,0,0-1.041.524A2.857,2.857,0,0,0-10.877-3.367ZM-1.355-1.9a.591.591,0,0,0-.333-.53,3.785,3.785,0,0,0-1.07-.346q-2.45-.514-2.45-2.082A1.887,1.887,0,0,1-4.45-6.383,3.06,3.06,0,0,1-2.466-7a3.293,3.293,0,0,1,2.092.616,1.94,1.94,0,0,1,.784,1.6H-1.425a.888.888,0,0,0-.254-.651,1.075,1.075,0,0,0-.793-.257,1.1,1.1,0,0,0-.717.209.661.661,0,0,0-.254.533.565.565,0,0,0,.289.492,2.971,2.971,0,0,0,.974.324,7.958,7.958,0,0,1,1.155.308A1.9,1.9,0,0,1,.428-1.974,1.792,1.792,0,0,1-.378-.454,3.478,3.478,0,0,1-2.46.127,3.632,3.632,0,0,1-3.993-.181a2.572,2.572,0,0,1-1.051-.844,1.962,1.962,0,0,1-.381-1.158h1.739a.958.958,0,0,0,.362.749,1.435,1.435,0,0,0,.9.26,1.328,1.328,0,0,0,.8-.2A.622.622,0,0,0-1.355-1.9Zm5.821.546a1.2,1.2,0,0,0,.825-.279.979.979,0,0,0,.33-.743h1.72A2.353,2.353,0,0,1,6.96-1.095a2.513,2.513,0,0,1-1.025.9A3.208,3.208,0,0,1,4.5.127,2.982,2.982,0,0,1,2.174-.809,3.705,3.705,0,0,1,1.323-3.4v-.121a3.663,3.663,0,0,1,.844-2.533A2.947,2.947,0,0,1,4.485-7a2.889,2.889,0,0,1,2.066.733,2.6,2.6,0,0,1,.79,1.952H5.621a1.261,1.261,0,0,0-.33-.871,1.1,1.1,0,0,0-.838-.335,1.1,1.1,0,0,0-.968.467,2.708,2.708,0,0,0-.327,1.516v.191a2.742,2.742,0,0,0,.324,1.526A1.119,1.119,0,0,0,4.466-1.352ZM8.1-3.5A4.073,4.073,0,0,1,8.5-5.319,2.881,2.881,0,0,1,9.629-6.557,3.306,3.306,0,0,1,11.346-7a3.128,3.128,0,0,1,2.269.851A3.414,3.414,0,0,1,14.6-3.834l.013.47a3.59,3.59,0,0,1-.882,2.536,3.067,3.067,0,0,1-2.368.955A3.082,3.082,0,0,1,8.988-.825,3.653,3.653,0,0,1,8.1-3.415Zm1.834.13a2.567,2.567,0,0,0,.368,1.5,1.215,1.215,0,0,0,1.054.518A1.217,1.217,0,0,0,12.4-1.864,2.809,2.809,0,0,0,12.775-3.5,2.542,2.542,0,0,0,12.4-4.988a1.217,1.217,0,0,0-1.054-.528,1.2,1.2,0,0,0-1.041.524A2.857,2.857,0,0,0,9.937-3.367ZM11.708-9.75h2L11.949-7.782H10.458ZM21.922-3.371A4.119,4.119,0,0,1,21.2-.828a2.31,2.31,0,0,1-1.946.955A2.14,2.14,0,0,1,17.573-.6V2.641H15.739V-6.868h1.7L17.5-6.2A2.156,2.156,0,0,1,19.243-7a2.326,2.326,0,0,1,1.974.939,4.231,4.231,0,0,1,.7,2.59ZM20.087-3.5a2.7,2.7,0,0,0-.34-1.479A1.106,1.106,0,0,0,18.76-5.5a1.2,1.2,0,0,0-1.187.66v2.812a1.222,1.222,0,0,0,1.2.679Q20.087-1.352,20.087-3.5ZM24.994,0H23.153V-6.868h1.841ZM23.045-8.646a.9.9,0,0,1,.276-.679,1.037,1.037,0,0,1,.752-.267,1.04,1.04,0,0,1,.749.267.9.9,0,0,1,.279.679.9.9,0,0,1-.282.686,1.042,1.042,0,0,1-.746.267,1.042,1.042,0,0,1-.746-.267A.9.9,0,0,1,23.045-8.646Zm6.316,7.293a1.2,1.2,0,0,0,.825-.279.979.979,0,0,0,.33-.743h1.72a2.353,2.353,0,0,1-.381,1.279,2.513,2.513,0,0,1-1.025.9,3.208,3.208,0,0,1-1.438.321A2.982,2.982,0,0,1,27.07-.809,3.705,3.705,0,0,1,26.219-3.4v-.121a3.663,3.663,0,0,1,.844-2.533A2.947,2.947,0,0,1,29.38-7a2.889,2.889,0,0,1,2.066.733,2.6,2.6,0,0,1,.79,1.952h-1.72a1.261,1.261,0,0,0-.33-.871,1.1,1.1,0,0,0-.838-.335,1.1,1.1,0,0,0-.968.467,2.708,2.708,0,0,0-.327,1.516v.191a2.742,2.742,0,0,0,.324,1.526A1.119,1.119,0,0,0,29.361-1.352ZM33-3.5a4.073,4.073,0,0,1,.394-1.822,2.881,2.881,0,0,1,1.133-1.238A3.306,3.306,0,0,1,36.242-7a3.128,3.128,0,0,1,2.269.851,3.414,3.414,0,0,1,.981,2.311l.013.47a3.59,3.59,0,0,1-.882,2.536,3.067,3.067,0,0,1-2.368.955,3.082,3.082,0,0,1-2.371-.952A3.653,3.653,0,0,1,33-3.415Zm1.834.13a2.567,2.567,0,0,0,.368,1.5,1.215,1.215,0,0,0,1.054.518A1.217,1.217,0,0,0,37.3-1.864,2.809,2.809,0,0,0,37.67-3.5,2.542,2.542,0,0,0,37.3-4.988a1.217,1.217,0,0,0-1.054-.528,1.2,1.2,0,0,0-1.041.524A2.857,2.857,0,0,0,34.833-3.367ZM44.354-1.9a.591.591,0,0,0-.333-.53,3.785,3.785,0,0,0-1.07-.346Q40.5-3.288,40.5-4.856a1.887,1.887,0,0,1,.759-1.527A3.06,3.06,0,0,1,43.243-7a3.293,3.293,0,0,1,2.092.616,1.94,1.94,0,0,1,.784,1.6H44.284a.888.888,0,0,0-.254-.651,1.075,1.075,0,0,0-.793-.257,1.1,1.1,0,0,0-.717.209.661.661,0,0,0-.254.533.565.565,0,0,0,.289.492,2.971,2.971,0,0,0,.974.324,7.959,7.959,0,0,1,1.155.308,1.9,1.9,0,0,1,1.454,1.847,1.792,1.792,0,0,1-.806,1.52A3.478,3.478,0,0,1,43.25.127a3.632,3.632,0,0,1-1.533-.308,2.572,2.572,0,0,1-1.051-.844,1.962,1.962,0,0,1-.381-1.158h1.739a.958.958,0,0,0,.362.749,1.435,1.435,0,0,0,.9.26,1.328,1.328,0,0,0,.8-.2A.622.622,0,0,0,44.354-1.9Z" transform="translate(521.001 7757.811)" fill="#12263f" stroke="rgba(0,0,0,0)" stroke-width="1"/>
        <path id="Path_828223" data-name="Path 828223" d="M-25.587,0h-1.9V-9.242h1.9Zm3.333-6.868.057.793A2.4,2.4,0,0,1-20.224-7a1.993,1.993,0,0,1,1.625.641,2.991,2.991,0,0,1,.546,1.917V0h-1.834V-4.393a1.19,1.19,0,0,0-.254-.847,1.137,1.137,0,0,0-.844-.263,1.262,1.262,0,0,0-1.162.66V0h-1.834V-6.868Zm5.307,3.383a4.139,4.139,0,0,1,.72-2.558A2.338,2.338,0,0,1-14.257-7a2.1,2.1,0,0,1,1.657.749v-3.5h1.841V0h-1.657L-12.5-.73A2.159,2.159,0,0,1-14.27.127a2.331,2.331,0,0,1-1.946-.955A4.272,4.272,0,0,1-16.948-3.485Zm1.834.137a2.711,2.711,0,0,0,.336,1.481,1.1,1.1,0,0,0,.978.515,1.227,1.227,0,0,0,1.2-.718V-4.785A1.21,1.21,0,0,0-13.787-5.5Q-15.114-5.5-15.114-3.348ZM-7.4,0H-9.242V-6.868H-7.4ZM-9.35-8.646a.9.9,0,0,1,.276-.679,1.037,1.037,0,0,1,.752-.267,1.04,1.04,0,0,1,.749.267.9.9,0,0,1,.279.679.9.9,0,0,1-.282.686,1.042,1.042,0,0,1-.746.267,1.042,1.042,0,0,1-.746-.267A.9.9,0,0,1-9.35-8.646Zm6.03,6.4,1.276-4.627H-.127L-2.444,0H-4.2L-6.513-6.868H-4.6ZM2.615,0H.774V-6.868H2.615ZM.667-8.646a.9.9,0,0,1,.276-.679,1.037,1.037,0,0,1,.752-.267,1.04,1.04,0,0,1,.749.267.9.9,0,0,1,.279.679.9.9,0,0,1-.282.686,1.042,1.042,0,0,1-.746.267A1.042,1.042,0,0,1,.949-7.96.9.9,0,0,1,.667-8.646ZM3.84-3.485a4.139,4.139,0,0,1,.72-2.558A2.338,2.338,0,0,1,6.532-7a2.1,2.1,0,0,1,1.657.749v-3.5h1.841V0H8.373L8.284-.73A2.159,2.159,0,0,1,6.519.127,2.331,2.331,0,0,1,4.573-.828,4.272,4.272,0,0,1,3.84-3.485Zm1.834.137a2.711,2.711,0,0,0,.336,1.481,1.1,1.1,0,0,0,.978.515,1.227,1.227,0,0,0,1.2-.718V-4.785A1.21,1.21,0,0,0,7-5.5Q5.675-5.5,5.675-3.348ZM15.564-.7a2.3,2.3,0,0,1-1.879.825A2.17,2.17,0,0,1,12-.508a2.71,2.71,0,0,1-.594-1.86v-4.5h1.834v4.442q0,1.074.978,1.074A1.325,1.325,0,0,0,15.5-2V-6.868h1.841V0H15.615Zm7.141.7a2.037,2.037,0,0,1-.184-.616,2.22,2.22,0,0,1-1.733.743,2.439,2.439,0,0,1-1.673-.584,1.878,1.878,0,0,1-.663-1.473,1.941,1.941,0,0,1,.809-1.676A3.994,3.994,0,0,1,21.6-4.2h.844v-.394a1.132,1.132,0,0,0-.244-.762.961.961,0,0,0-.771-.286,1.093,1.093,0,0,0-.727.222.755.755,0,0,0-.263.609H18.6a1.843,1.843,0,0,1,.368-1.1,2.434,2.434,0,0,1,1.041-.8A3.794,3.794,0,0,1,21.525-7a3,3,0,0,1,2.015.638,2.232,2.232,0,0,1,.746,1.793v2.977a3.284,3.284,0,0,0,.273,1.479V0ZM21.188-1.276a1.58,1.58,0,0,0,.749-.181,1.188,1.188,0,0,0,.508-.486V-3.123H21.76q-1.377,0-1.466.952l-.006.108a.734.734,0,0,0,.241.565A.937.937,0,0,0,21.188-1.276ZM27.631,0H25.791V-9.75h1.841Z" transform="translate(523.001 7856.811)" fill="#12263f"/>
        <path id="Path_828224" data-name="Path 828224" d="M-45.24,0h-1.9l-3.707-6.081V0h-1.9V-9.242h1.9l3.713,6.094V-9.242h1.9Zm5.656-.7a2.3,2.3,0,0,1-1.879.825,2.17,2.17,0,0,1-1.685-.635,2.71,2.71,0,0,1-.594-1.86v-4.5h1.834v4.442q0,1.074.978,1.074A1.325,1.325,0,0,0-39.647-2V-6.868h1.841V0h-1.727ZM-40.4-9.75h2l-1.758,1.968h-1.492Zm5.7,2.882.057.768A2.414,2.414,0,0,1-32.671-7,1.832,1.832,0,0,1-30.85-5.948,2.358,2.358,0,0,1-28.787-7a2.049,2.049,0,0,1,1.663.651,2.991,2.991,0,0,1,.546,1.958V0h-1.841V-4.38a1.308,1.308,0,0,0-.229-.854,1.013,1.013,0,0,0-.806-.27,1.145,1.145,0,0,0-1.143.787L-30.589,0h-1.834V-4.374a1.292,1.292,0,0,0-.235-.863,1.023,1.023,0,0,0-.8-.267,1.189,1.189,0,0,0-1.13.647V0h-1.834V-6.868Zm12.7,7A3.372,3.372,0,0,1-24.467-.8a3.294,3.294,0,0,1-.949-2.469v-.178a4.149,4.149,0,0,1,.4-1.85,2.935,2.935,0,0,1,1.133-1.257A3.18,3.18,0,0,1-22.21-7a2.85,2.85,0,0,1,2.219.889,3.611,3.611,0,0,1,.809,2.52v.749h-4.374a1.7,1.7,0,0,0,.536,1.079,1.621,1.621,0,0,0,1.133.406A1.98,1.98,0,0,0-20.23-2.12l.9,1.009A2.754,2.754,0,0,1-20.446-.2,3.665,3.665,0,0,1-22.007.127Zm-.209-5.643a1.146,1.146,0,0,0-.885.37,1.915,1.915,0,0,0-.435,1.058h2.552v-.147a1.366,1.366,0,0,0-.33-.947A1.183,1.183,0,0,0-22.217-5.516Zm7.935.368a4.984,4.984,0,0,0-.66-.051,1.344,1.344,0,0,0-1.365.7V0h-1.834V-6.868h1.733l.051.819A1.7,1.7,0,0,1-14.828-7a1.922,1.922,0,0,1,.571.083Zm.368,1.65a4.073,4.073,0,0,1,.394-1.822,2.881,2.881,0,0,1,1.133-1.238A3.306,3.306,0,0,1-10.67-7,3.128,3.128,0,0,1-8.4-6.145,3.414,3.414,0,0,1-7.42-3.834l.013.47A3.59,3.59,0,0,1-8.29-.828a3.067,3.067,0,0,1-2.368.955,3.082,3.082,0,0,1-2.371-.952,3.653,3.653,0,0,1-.885-2.59Zm1.834.13a2.567,2.567,0,0,0,.368,1.5,1.215,1.215,0,0,0,1.054.518,1.217,1.217,0,0,0,1.041-.512A2.809,2.809,0,0,0-9.242-3.5a2.542,2.542,0,0,0-.375-1.488,1.217,1.217,0,0,0-1.054-.528,1.2,1.2,0,0,0-1.041.524A2.857,2.857,0,0,0-12.08-3.367Zm8.753-.118a4.139,4.139,0,0,1,.72-2.558A2.338,2.338,0,0,1-.635-7a2.1,2.1,0,0,1,1.657.749v-3.5H2.863V0H1.206L1.117-.73A2.159,2.159,0,0,1-.647.127,2.331,2.331,0,0,1-2.593-.828,4.272,4.272,0,0,1-3.326-3.485Zm1.834.137a2.711,2.711,0,0,0,.336,1.481,1.1,1.1,0,0,0,.978.515,1.227,1.227,0,0,0,1.2-.718V-4.785A1.21,1.21,0,0,0-.165-5.5Q-1.492-5.5-1.492-3.348ZM7.446.127A3.372,3.372,0,0,1,4.986-.8a3.294,3.294,0,0,1-.949-2.469v-.178a4.149,4.149,0,0,1,.4-1.85A2.935,2.935,0,0,1,5.57-6.554,3.18,3.18,0,0,1,7.243-7a2.85,2.85,0,0,1,2.219.889,3.611,3.611,0,0,1,.809,2.52v.749H5.9a1.7,1.7,0,0,0,.536,1.079,1.621,1.621,0,0,0,1.133.406A1.98,1.98,0,0,0,9.223-2.12l.9,1.009A2.754,2.754,0,0,1,9.007-.2,3.665,3.665,0,0,1,7.446.127ZM7.236-5.516a1.146,1.146,0,0,0-.885.37,1.915,1.915,0,0,0-.435,1.058H8.468v-.147a1.366,1.366,0,0,0-.33-.947A1.183,1.183,0,0,0,7.236-5.516ZM14.263-3.5a4.073,4.073,0,0,1,.394-1.822A2.881,2.881,0,0,1,15.79-6.557,3.306,3.306,0,0,1,17.507-7a3.127,3.127,0,0,1,2.269.851,3.414,3.414,0,0,1,.981,2.311l.013.47a3.59,3.59,0,0,1-.882,2.536A3.067,3.067,0,0,1,17.52.127a3.082,3.082,0,0,1-2.371-.952,3.653,3.653,0,0,1-.885-2.59Zm1.834.13a2.567,2.567,0,0,0,.368,1.5,1.215,1.215,0,0,0,1.054.518,1.217,1.217,0,0,0,1.041-.512A2.809,2.809,0,0,0,18.935-3.5a2.542,2.542,0,0,0-.375-1.488,1.217,1.217,0,0,0-1.054-.528,1.2,1.2,0,0,0-1.041.524A2.857,2.857,0,0,0,16.1-3.367ZM22.344,0V-5.522H21.322V-6.868h1.022v-.317a2.576,2.576,0,0,1,.8-2,3.205,3.205,0,0,1,2.212-.7,7.338,7.338,0,0,1,2.082.375l-.267,1.517A8.123,8.123,0,0,0,26.2-8.23a4.741,4.741,0,0,0-.736-.054q-1.282,0-1.282,1.136v.279h1.352v1.346H24.185V0Zm5.948,0H26.451V-6.868h1.841Zm4.374-1.352a1.2,1.2,0,0,0,.825-.279.979.979,0,0,0,.33-.743h1.72a2.353,2.353,0,0,1-.381,1.279,2.513,2.513,0,0,1-1.025.9A3.208,3.208,0,0,1,32.7.127a2.982,2.982,0,0,1-2.323-.936A3.705,3.705,0,0,1,29.523-3.4v-.121a3.663,3.663,0,0,1,.844-2.533A2.947,2.947,0,0,1,32.684-7a2.889,2.889,0,0,1,2.066.733,2.6,2.6,0,0,1,.79,1.952H33.82a1.261,1.261,0,0,0-.33-.871,1.1,1.1,0,0,0-.838-.335,1.1,1.1,0,0,0-.968.467,2.708,2.708,0,0,0-.327,1.516v.191a2.742,2.742,0,0,0,.324,1.526A1.119,1.119,0,0,0,32.665-1.352ZM38.524,0H36.683V-6.868h1.841ZM36.575-8.646a.9.9,0,0,1,.276-.679,1.037,1.037,0,0,1,.752-.267,1.04,1.04,0,0,1,.749.267.9.9,0,0,1,.279.679.9.9,0,0,1-.282.686,1.042,1.042,0,0,1-.746.267,1.042,1.042,0,0,1-.746-.267A.9.9,0,0,1,36.575-8.646Zm5.148,1.777.057.793A2.4,2.4,0,0,1,43.754-7a1.993,1.993,0,0,1,1.625.641,2.991,2.991,0,0,1,.546,1.917V0H44.091V-4.393a1.19,1.19,0,0,0-.254-.847,1.137,1.137,0,0,0-.844-.263,1.262,1.262,0,0,0-1.162.66V0H40V-6.868ZM51.3,0a2.037,2.037,0,0,1-.184-.616,2.22,2.22,0,0,1-1.733.743,2.439,2.439,0,0,1-1.673-.584,1.878,1.878,0,0,1-.663-1.473,1.941,1.941,0,0,1,.809-1.676,3.994,3.994,0,0,1,2.339-.59h.844v-.394a1.132,1.132,0,0,0-.244-.762.961.961,0,0,0-.771-.286,1.093,1.093,0,0,0-.727.222.755.755,0,0,0-.263.609H47.195a1.843,1.843,0,0,1,.368-1.1,2.434,2.434,0,0,1,1.041-.8A3.794,3.794,0,0,1,50.115-7a3,3,0,0,1,2.015.638,2.232,2.232,0,0,1,.746,1.793v2.977a3.284,3.284,0,0,0,.273,1.479V0ZM49.778-1.276a1.58,1.58,0,0,0,.749-.181,1.188,1.188,0,0,0,.508-.486V-3.123H50.35q-1.377,0-1.466.952l-.006.108a.734.734,0,0,0,.241.565A.937.937,0,0,0,49.778-1.276Z" transform="translate(512.001 7974.811)" fill="#12263f"/>
        <path id="Path_828225" data-name="Path 828225" d="M-29.961,0V-9.242h3.237a4.251,4.251,0,0,1,2.552.644,2.2,2.2,0,0,1,.87,1.888,2.088,2.088,0,0,1-.349,1.2,2.017,2.017,0,0,1-.971.759,1.951,1.951,0,0,1,1.12.717,2.121,2.121,0,0,1,.409,1.32A2.439,2.439,0,0,1-23.943-.7a3.829,3.829,0,0,1-2.425.7Zm1.9-4.024V-1.53h1.631a1.574,1.574,0,0,0,1.051-.321A1.1,1.1,0,0,0-25-2.736a1.161,1.161,0,0,0-1.314-1.289Zm0-1.346h1.409q1.441-.025,1.441-1.149a1.062,1.062,0,0,0-.365-.9A1.92,1.92,0,0,0-26.724-7.7h-1.333ZM-19.849,0H-21.69V-6.868h1.841ZM-21.8-8.646a.9.9,0,0,1,.276-.679,1.037,1.037,0,0,1,.752-.267,1.04,1.04,0,0,1,.749.267.9.9,0,0,1,.279.679.9.9,0,0,1-.282.686,1.042,1.042,0,0,1-.746.267,1.042,1.042,0,0,1-.746-.267A.9.9,0,0,1-21.8-8.646ZM-18.624-3.5a4.073,4.073,0,0,1,.394-1.822A2.881,2.881,0,0,1-17.1-6.557,3.306,3.306,0,0,1-15.38-7a3.128,3.128,0,0,1,2.269.851,3.414,3.414,0,0,1,.981,2.311l.013.47A3.59,3.59,0,0,1-13-.828a3.067,3.067,0,0,1-2.368.955,3.082,3.082,0,0,1-2.371-.952,3.653,3.653,0,0,1-.885-2.59Zm1.834.13a2.567,2.567,0,0,0,.368,1.5,1.215,1.215,0,0,0,1.054.518,1.217,1.217,0,0,0,1.041-.512A2.809,2.809,0,0,0-13.952-3.5a2.542,2.542,0,0,0-.375-1.488,1.217,1.217,0,0,0-1.054-.528,1.2,1.2,0,0,0-1.041.524A2.857,2.857,0,0,0-16.79-3.367ZM-9.052,0h-1.841V-9.75h1.841Zm1.225-3.5a4.073,4.073,0,0,1,.394-1.822A2.881,2.881,0,0,1-6.3-6.557,3.306,3.306,0,0,1-4.583-7a3.128,3.128,0,0,1,2.269.851,3.414,3.414,0,0,1,.981,2.311l.013.47A3.59,3.59,0,0,1-2.2-.828,3.067,3.067,0,0,1-4.57.127,3.082,3.082,0,0,1-6.941-.825a3.653,3.653,0,0,1-.885-2.59Zm1.834.13a2.567,2.567,0,0,0,.368,1.5,1.215,1.215,0,0,0,1.054.518,1.217,1.217,0,0,0,1.041-.512A2.809,2.809,0,0,0-3.155-3.5a2.542,2.542,0,0,0-.375-1.488,1.217,1.217,0,0,0-1.054-.528,1.2,1.2,0,0,0-1.041.524A2.857,2.857,0,0,0-5.992-3.367ZM-4.221-9.75h2L-3.98-7.782H-5.472ZM-.457-3.485A4.025,4.025,0,0,1,.3-6.03,2.437,2.437,0,0,1,2.323-7a2.138,2.138,0,0,1,1.758.774l.076-.647H5.821v6.64a2.935,2.935,0,0,1-.409,1.568A2.629,2.629,0,0,1,4.259,2.355,4.05,4.05,0,0,1,2.52,2.7a3.766,3.766,0,0,1-1.473-.3A2.614,2.614,0,0,1-.038,1.625L.774.508a2.149,2.149,0,0,0,1.663.768A1.573,1.573,0,0,0,3.574.885,1.464,1.464,0,0,0,3.98-.222V-.59A2.122,2.122,0,0,1,2.311.127a2.431,2.431,0,0,1-2-.968A4.024,4.024,0,0,1-.457-3.409Zm1.834.137a2.506,2.506,0,0,0,.375,1.465,1.191,1.191,0,0,0,1.028.531,1.274,1.274,0,0,0,1.2-.629V-4.874A1.271,1.271,0,0,0,2.793-5.5a1.2,1.2,0,0,0-1.038.54A2.825,2.825,0,0,0,1.377-3.348ZM9.166,0H7.325V-6.868H9.166ZM7.217-8.646a.9.9,0,0,1,.276-.679,1.037,1.037,0,0,1,.752-.267,1.04,1.04,0,0,1,.749.267.9.9,0,0,1,.279.679.9.9,0,0,1-.282.686,1.042,1.042,0,0,1-.746.267A1.042,1.042,0,0,1,7.5-7.96.9.9,0,0,1,7.217-8.646Zm6.316,7.293a1.2,1.2,0,0,0,.825-.279.979.979,0,0,0,.33-.743h1.72a2.353,2.353,0,0,1-.381,1.279A2.513,2.513,0,0,1,15-.194a3.208,3.208,0,0,1-1.438.321,2.982,2.982,0,0,1-2.323-.936A3.705,3.705,0,0,1,10.391-3.4v-.121a3.663,3.663,0,0,1,.844-2.533A2.947,2.947,0,0,1,13.552-7a2.889,2.889,0,0,1,2.066.733,2.6,2.6,0,0,1,.79,1.952h-1.72a1.261,1.261,0,0,0-.33-.871,1.1,1.1,0,0,0-.838-.335,1.1,1.1,0,0,0-.968.467,2.708,2.708,0,0,0-.327,1.516v.191a2.742,2.742,0,0,0,.324,1.526A1.119,1.119,0,0,0,13.533-1.352ZM17.17-3.5a4.073,4.073,0,0,1,.394-1.822A2.881,2.881,0,0,1,18.7-6.557,3.306,3.306,0,0,1,20.414-7a3.127,3.127,0,0,1,2.269.851,3.414,3.414,0,0,1,.981,2.311l.013.47a3.59,3.59,0,0,1-.882,2.536,3.067,3.067,0,0,1-2.368.955,3.082,3.082,0,0,1-2.371-.952,3.653,3.653,0,0,1-.885-2.59ZM19-3.367a2.567,2.567,0,0,0,.368,1.5,1.215,1.215,0,0,0,1.054.518,1.217,1.217,0,0,0,1.041-.512A2.809,2.809,0,0,0,21.842-3.5a2.542,2.542,0,0,0-.375-1.488,1.217,1.217,0,0,0-1.054-.528,1.2,1.2,0,0,0-1.041.524A2.857,2.857,0,0,0,19-3.367ZM28.526-1.9a.591.591,0,0,0-.333-.53,3.785,3.785,0,0,0-1.07-.346q-2.45-.514-2.45-2.082a1.887,1.887,0,0,1,.759-1.527A3.06,3.06,0,0,1,27.416-7a3.293,3.293,0,0,1,2.092.616,1.94,1.94,0,0,1,.784,1.6H28.457A.888.888,0,0,0,28.2-5.43a1.075,1.075,0,0,0-.793-.257,1.1,1.1,0,0,0-.717.209.661.661,0,0,0-.254.533.565.565,0,0,0,.289.492,2.971,2.971,0,0,0,.974.324,7.958,7.958,0,0,1,1.155.308A1.9,1.9,0,0,1,30.31-1.974,1.792,1.792,0,0,1,29.5-.454a3.478,3.478,0,0,1-2.082.581,3.632,3.632,0,0,1-1.533-.308,2.572,2.572,0,0,1-1.051-.844,1.962,1.962,0,0,1-.381-1.158H26.2a.958.958,0,0,0,.362.749,1.435,1.435,0,0,0,.9.26,1.328,1.328,0,0,0,.8-.2A.622.622,0,0,0,28.526-1.9Z" transform="translate(611.501 7784.001)" fill="#12263f" stroke="rgba(0,0,0,0)" stroke-width="1"/>
        <path id="Path_828226" data-name="Path 828226" d="M-18.818-1.53h4.043V0h-5.948V-9.242h1.9ZM-11.867,0h-1.841V-6.868h1.841Zm-1.949-8.646a.9.9,0,0,1,.276-.679,1.037,1.037,0,0,1,.752-.267,1.04,1.04,0,0,1,.749.267.9.9,0,0,1,.279.679.9.9,0,0,1-.282.686,1.042,1.042,0,0,1-.746.267,1.042,1.042,0,0,1-.746-.267A.9.9,0,0,1-13.816-8.646Zm5.18,1.777.057.768A2.414,2.414,0,0,1-6.6-7,1.832,1.832,0,0,1-4.783-5.948,2.358,2.358,0,0,1-2.72-7a2.049,2.049,0,0,1,1.663.651A2.991,2.991,0,0,1-.511-4.386V0H-2.352V-4.38a1.308,1.308,0,0,0-.229-.854,1.013,1.013,0,0,0-.806-.27,1.145,1.145,0,0,0-1.143.787L-4.523,0H-6.357V-4.374a1.292,1.292,0,0,0-.235-.863,1.023,1.023,0,0,0-.8-.267,1.189,1.189,0,0,0-1.13.647V0h-1.834V-6.868Zm15.717,3.5A4.119,4.119,0,0,1,6.36-.828,2.31,2.31,0,0,1,4.415.127,2.14,2.14,0,0,1,2.733-.6V2.641H.9V-6.868H2.6l.063.673A2.156,2.156,0,0,1,4.4-7a2.326,2.326,0,0,1,1.974.939,4.231,4.231,0,0,1,.7,2.59ZM5.246-3.5a2.7,2.7,0,0,0-.34-1.479A1.106,1.106,0,0,0,3.92-5.5a1.2,1.2,0,0,0-1.187.66v2.812a1.222,1.222,0,0,0,1.2.679Q5.246-1.352,5.246-3.5ZM10.153,0H8.312V-6.868h1.841ZM8.2-8.646a.9.9,0,0,1,.276-.679,1.037,1.037,0,0,1,.752-.267,1.04,1.04,0,0,1,.749.267.9.9,0,0,1,.279.679.9.9,0,0,1-.282.686,1.042,1.042,0,0,1-.746.267,1.042,1.042,0,0,1-.746-.267A.9.9,0,0,1,8.2-8.646ZM11.378-3.5a4.073,4.073,0,0,1,.394-1.822A2.881,2.881,0,0,1,12.9-6.557,3.306,3.306,0,0,1,14.622-7a3.127,3.127,0,0,1,2.269.851,3.414,3.414,0,0,1,.981,2.311l.013.47A3.59,3.59,0,0,1,17-.828a3.067,3.067,0,0,1-2.368.955,3.082,3.082,0,0,1-2.371-.952,3.653,3.653,0,0,1-.885-2.59Zm1.834.13a2.567,2.567,0,0,0,.368,1.5,1.215,1.215,0,0,0,1.054.518,1.217,1.217,0,0,0,1.041-.512A2.809,2.809,0,0,0,16.05-3.5a2.542,2.542,0,0,0-.375-1.488,1.217,1.217,0,0,0-1.054-.528,1.2,1.2,0,0,0-1.041.524A2.857,2.857,0,0,0,13.213-3.367Z" transform="translate(653.001 7856.811)" fill="#12263f" stroke="rgba(0,0,0,0)" stroke-width="1"/>
        <path id="Path_828227" data-name="Path 828227" d="M-53.266,0h-1.9l-3.707-6.081V0h-1.9V-9.242h1.9l3.713,6.094V-9.242h1.9Zm5.656-.7A2.3,2.3,0,0,1-49.49.127a2.17,2.17,0,0,1-1.685-.635,2.71,2.71,0,0,1-.594-1.86v-4.5h1.834v4.442q0,1.074.978,1.074A1.325,1.325,0,0,0-47.674-2V-6.868h1.841V0H-47.56Zm-.819-9.052h2l-1.758,1.968H-49.68Zm5.7,2.882.057.768A2.414,2.414,0,0,1-40.7-7a1.832,1.832,0,0,1,1.822,1.047A2.358,2.358,0,0,1-36.813-7a2.049,2.049,0,0,1,1.663.651A2.991,2.991,0,0,1-34.6-4.386V0h-1.841V-4.38a1.308,1.308,0,0,0-.229-.854,1.013,1.013,0,0,0-.806-.27,1.145,1.145,0,0,0-1.143.787L-38.616,0H-40.45V-4.374a1.292,1.292,0,0,0-.235-.863,1.023,1.023,0,0,0-.8-.267,1.189,1.189,0,0,0-1.13.647V0h-1.834V-6.868Zm12.7,7A3.372,3.372,0,0,1-32.494-.8a3.294,3.294,0,0,1-.949-2.469v-.178a4.149,4.149,0,0,1,.4-1.85A2.935,2.935,0,0,1-31.91-6.554,3.18,3.18,0,0,1-30.237-7a2.85,2.85,0,0,1,2.219.889,3.611,3.611,0,0,1,.809,2.52v.749h-4.374a1.7,1.7,0,0,0,.536,1.079,1.621,1.621,0,0,0,1.133.406,1.98,1.98,0,0,0,1.657-.768l.9,1.009A2.754,2.754,0,0,1-28.472-.2,3.665,3.665,0,0,1-30.034.127Zm-.209-5.643a1.146,1.146,0,0,0-.885.37,1.915,1.915,0,0,0-.435,1.058h2.552v-.147a1.366,1.366,0,0,0-.33-.947A1.183,1.183,0,0,0-30.243-5.516Zm7.935.368a4.984,4.984,0,0,0-.66-.051,1.344,1.344,0,0,0-1.365.7V0h-1.834V-6.868h1.733l.051.819A1.7,1.7,0,0,1-22.855-7a1.922,1.922,0,0,1,.571.083Zm.368,1.65a4.073,4.073,0,0,1,.394-1.822,2.881,2.881,0,0,1,1.133-1.238A3.306,3.306,0,0,1-18.7-7a3.127,3.127,0,0,1,2.269.851,3.414,3.414,0,0,1,.981,2.311l.013.47a3.59,3.59,0,0,1-.882,2.536,3.067,3.067,0,0,1-2.368.955,3.082,3.082,0,0,1-2.371-.952,3.653,3.653,0,0,1-.885-2.59Zm1.834.13a2.567,2.567,0,0,0,.368,1.5,1.215,1.215,0,0,0,1.054.518,1.217,1.217,0,0,0,1.041-.512A2.809,2.809,0,0,0-17.269-3.5a2.542,2.542,0,0,0-.375-1.488A1.217,1.217,0,0,0-18.7-5.516a1.2,1.2,0,0,0-1.041.524A2.857,2.857,0,0,0-20.106-3.367Zm8.753-.118a4.139,4.139,0,0,1,.72-2.558A2.338,2.338,0,0,1-8.661-7,2.1,2.1,0,0,1-7-6.246v-3.5h1.841V0H-6.821l-.089-.73A2.159,2.159,0,0,1-8.674.127,2.331,2.331,0,0,1-10.62-.828,4.272,4.272,0,0,1-11.353-3.485Zm1.834.137a2.711,2.711,0,0,0,.336,1.481,1.1,1.1,0,0,0,.978.515A1.227,1.227,0,0,0-7-2.07V-4.785A1.21,1.21,0,0,0-8.192-5.5Q-9.518-5.5-9.518-3.348ZM-.581.127A3.372,3.372,0,0,1-3.041-.8,3.294,3.294,0,0,1-3.99-3.269v-.178a4.149,4.149,0,0,1,.4-1.85A2.935,2.935,0,0,1-2.457-6.554,3.18,3.18,0,0,1-.784-7a2.85,2.85,0,0,1,2.219.889,3.611,3.611,0,0,1,.809,2.52v.749H-2.13a1.7,1.7,0,0,0,.536,1.079A1.621,1.621,0,0,0-.46-1.352,1.98,1.98,0,0,0,1.2-2.12l.9,1.009A2.754,2.754,0,0,1,.981-.2,3.665,3.665,0,0,1-.581.127ZM-.79-5.516a1.146,1.146,0,0,0-.885.37,1.915,1.915,0,0,0-.435,1.058H.441v-.147a1.366,1.366,0,0,0-.33-.947A1.183,1.183,0,0,0-.79-5.516ZM9.683.127A3.372,3.372,0,0,1,7.224-.8a3.294,3.294,0,0,1-.949-2.469v-.178a4.149,4.149,0,0,1,.4-1.85A2.935,2.935,0,0,1,7.808-6.554,3.18,3.18,0,0,1,9.48-7a2.85,2.85,0,0,1,2.219.889,3.611,3.611,0,0,1,.809,2.52v.749H8.135a1.7,1.7,0,0,0,.536,1.079A1.621,1.621,0,0,0,9.8-1.352a1.98,1.98,0,0,0,1.657-.768l.9,1.009A2.754,2.754,0,0,1,11.245-.2,3.665,3.665,0,0,1,9.683.127ZM9.474-5.516a1.146,1.146,0,0,0-.885.37,1.915,1.915,0,0,0-.435,1.058h2.552v-.147a1.366,1.366,0,0,0-.33-.947A1.183,1.183,0,0,0,9.474-5.516Zm6.563,3.275,1.276-4.627H19.23L16.913,0H15.161L12.844-6.868h1.917ZM21.972,0H20.132V-6.868h1.841ZM20.024-8.646a.9.9,0,0,1,.276-.679,1.037,1.037,0,0,1,.752-.267,1.04,1.04,0,0,1,.749.267.9.9,0,0,1,.279.679.9.9,0,0,1-.282.686,1.042,1.042,0,0,1-.746.267,1.042,1.042,0,0,1-.746-.267A.9.9,0,0,1,20.024-8.646ZM23.2-3.485a4.139,4.139,0,0,1,.72-2.558A2.338,2.338,0,0,1,25.889-7a2.1,2.1,0,0,1,1.657.749v-3.5h1.841V0H27.73l-.089-.73a2.159,2.159,0,0,1-1.765.857,2.331,2.331,0,0,1-1.946-.955A4.272,4.272,0,0,1,23.2-3.485Zm1.834.137a2.711,2.711,0,0,0,.336,1.481,1.1,1.1,0,0,0,.978.515,1.227,1.227,0,0,0,1.2-.718V-4.785A1.21,1.21,0,0,0,26.359-5.5Q25.032-5.5,25.032-3.348ZM33.969.127A3.372,3.372,0,0,1,31.51-.8a3.294,3.294,0,0,1-.949-2.469v-.178a4.149,4.149,0,0,1,.4-1.85,2.935,2.935,0,0,1,1.133-1.257A3.18,3.18,0,0,1,33.766-7a2.85,2.85,0,0,1,2.219.889,3.611,3.611,0,0,1,.809,2.52v.749H32.421a1.7,1.7,0,0,0,.536,1.079,1.621,1.621,0,0,0,1.133.406,1.98,1.98,0,0,0,1.657-.768l.9,1.009A2.754,2.754,0,0,1,35.531-.2,3.665,3.665,0,0,1,33.969.127ZM33.76-5.516a1.146,1.146,0,0,0-.885.37,1.915,1.915,0,0,0-.435,1.058h2.552v-.147a1.366,1.366,0,0,0-.33-.947A1.183,1.183,0,0,0,33.76-5.516Zm5.764-1.352.057.793A2.4,2.4,0,0,1,41.555-7a1.993,1.993,0,0,1,1.625.641,2.991,2.991,0,0,1,.546,1.917V0H41.891V-4.393a1.19,1.19,0,0,0-.254-.847,1.137,1.137,0,0,0-.844-.263,1.262,1.262,0,0,0-1.162.66V0H37.8V-6.868Zm8.449,5.516a1.2,1.2,0,0,0,.825-.279.979.979,0,0,0,.33-.743h1.72a2.353,2.353,0,0,1-.381,1.279,2.513,2.513,0,0,1-1.025.9A3.208,3.208,0,0,1,48,.127a2.982,2.982,0,0,1-2.323-.936A3.705,3.705,0,0,1,44.83-3.4v-.121a3.663,3.663,0,0,1,.844-2.533A2.947,2.947,0,0,1,47.991-7a2.889,2.889,0,0,1,2.066.733,2.6,2.6,0,0,1,.79,1.952h-1.72a1.261,1.261,0,0,0-.33-.871,1.1,1.1,0,0,0-.838-.335,1.1,1.1,0,0,0-.968.467,2.708,2.708,0,0,0-.327,1.516v.191a2.742,2.742,0,0,0,.324,1.526A1.119,1.119,0,0,0,47.972-1.352ZM53.831,0H51.99V-6.868h1.841ZM51.883-8.646a.9.9,0,0,1,.276-.679,1.037,1.037,0,0,1,.752-.267,1.04,1.04,0,0,1,.749.267.9.9,0,0,1,.279.679.9.9,0,0,1-.282.686,1.042,1.042,0,0,1-.746.267,1.042,1.042,0,0,1-.746-.267A.9.9,0,0,1,51.883-8.646ZM59.322,0a2.037,2.037,0,0,1-.184-.616,2.22,2.22,0,0,1-1.733.743,2.439,2.439,0,0,1-1.673-.584,1.878,1.878,0,0,1-.663-1.473,1.941,1.941,0,0,1,.809-1.676,3.994,3.994,0,0,1,2.339-.59h.844v-.394a1.132,1.132,0,0,0-.244-.762.961.961,0,0,0-.771-.286,1.093,1.093,0,0,0-.727.222.755.755,0,0,0-.263.609H55.221a1.843,1.843,0,0,1,.368-1.1,2.434,2.434,0,0,1,1.041-.8A3.794,3.794,0,0,1,58.141-7a3,3,0,0,1,2.015.638A2.232,2.232,0,0,1,60.9-4.564v2.977a3.284,3.284,0,0,0,.273,1.479V0ZM57.8-1.276a1.58,1.58,0,0,0,.749-.181,1.188,1.188,0,0,0,.508-.486V-3.123h-.686q-1.377,0-1.466.952l-.006.108a.734.734,0,0,0,.241.565A.937.937,0,0,0,57.8-1.276Z" transform="translate(587.001 7933.265)" fill="#12263f" stroke="rgba(0,0,0,0)" stroke-width="1"/>
        <path id="Path_828228" data-name="Path 828228" d="M-14.428-3.777h-3.656V0h-1.9V-9.242h6.018V-7.7h-4.113v2.387h3.656ZM-11.007,0h-1.834V-6.868h1.834Zm-.54-9.655h2l-1.758,1.968H-12.8ZM-5.707-1.9a.591.591,0,0,0-.333-.53,3.785,3.785,0,0,0-1.07-.346q-2.45-.514-2.45-2.082A1.887,1.887,0,0,1-8.8-6.383,3.06,3.06,0,0,1-6.817-7a3.293,3.293,0,0,1,2.092.616,1.94,1.94,0,0,1,.784,1.6H-5.776A.888.888,0,0,0-6.03-5.43a1.075,1.075,0,0,0-.793-.257,1.1,1.1,0,0,0-.717.209.661.661,0,0,0-.254.533.565.565,0,0,0,.289.492,2.971,2.971,0,0,0,.974.324,7.958,7.958,0,0,1,1.155.308A1.9,1.9,0,0,1-3.923-1.974a1.792,1.792,0,0,1-.806,1.52A3.478,3.478,0,0,1-6.811.127,3.632,3.632,0,0,1-8.344-.181a2.572,2.572,0,0,1-1.051-.844,1.962,1.962,0,0,1-.381-1.158h1.739a.958.958,0,0,0,.362.749,1.435,1.435,0,0,0,.9.26,1.328,1.328,0,0,0,.8-.2A.622.622,0,0,0-5.707-1.9ZM-.806,0H-2.647V-6.868H-.806ZM-2.755-8.646a.9.9,0,0,1,.276-.679,1.037,1.037,0,0,1,.752-.267,1.04,1.04,0,0,1,.749.267A.9.9,0,0,1-.7-8.646a.9.9,0,0,1-.282.686,1.042,1.042,0,0,1-.746.267,1.042,1.042,0,0,1-.746-.267A.9.9,0,0,1-2.755-8.646ZM3.561-1.352a1.2,1.2,0,0,0,.825-.279.979.979,0,0,0,.33-.743h1.72a2.353,2.353,0,0,1-.381,1.279,2.513,2.513,0,0,1-1.025.9A3.208,3.208,0,0,1,3.593.127,2.982,2.982,0,0,1,1.27-.809,3.705,3.705,0,0,1,.419-3.4v-.121a3.663,3.663,0,0,1,.844-2.533A2.947,2.947,0,0,1,3.58-7a2.889,2.889,0,0,1,2.066.733,2.6,2.6,0,0,1,.79,1.952H4.716a1.261,1.261,0,0,0-.33-.871,1.1,1.1,0,0,0-.838-.335,1.1,1.1,0,0,0-.968.467,2.708,2.708,0,0,0-.327,1.516v.191a2.742,2.742,0,0,0,.324,1.526A1.119,1.119,0,0,0,3.561-1.352ZM7.2-3.5a4.073,4.073,0,0,1,.394-1.822A2.881,2.881,0,0,1,8.725-6.557,3.306,3.306,0,0,1,10.442-7a3.128,3.128,0,0,1,2.269.851,3.414,3.414,0,0,1,.981,2.311l.013.47a3.59,3.59,0,0,1-.882,2.536,3.067,3.067,0,0,1-2.368.955A3.082,3.082,0,0,1,8.084-.825,3.653,3.653,0,0,1,7.2-3.415Zm1.834.13A2.567,2.567,0,0,0,9.4-1.87a1.215,1.215,0,0,0,1.054.518A1.217,1.217,0,0,0,11.5-1.864,2.809,2.809,0,0,0,11.87-3.5,2.542,2.542,0,0,0,11.5-4.988a1.217,1.217,0,0,0-1.054-.528A1.2,1.2,0,0,0,9.4-4.992,2.857,2.857,0,0,0,9.033-3.367ZM18.554-1.9a.591.591,0,0,0-.333-.53,3.785,3.785,0,0,0-1.07-.346Q14.7-3.288,14.7-4.856a1.887,1.887,0,0,1,.759-1.527A3.06,3.06,0,0,1,17.443-7a3.293,3.293,0,0,1,2.092.616,1.94,1.94,0,0,1,.784,1.6H18.484a.888.888,0,0,0-.254-.651,1.075,1.075,0,0,0-.793-.257,1.1,1.1,0,0,0-.717.209.661.661,0,0,0-.254.533.565.565,0,0,0,.289.492,2.971,2.971,0,0,0,.974.324,7.958,7.958,0,0,1,1.155.308,1.9,1.9,0,0,1,1.454,1.847,1.792,1.792,0,0,1-.806,1.52A3.478,3.478,0,0,1,17.45.127a3.632,3.632,0,0,1-1.533-.308,2.572,2.572,0,0,1-1.051-.844,1.962,1.962,0,0,1-.381-1.158h1.739a.958.958,0,0,0,.362.749,1.435,1.435,0,0,0,.9.26,1.328,1.328,0,0,0,.8-.2A.622.622,0,0,0,18.554-1.9Z" transform="translate(703 7757.811)" fill="#12263f" stroke="rgba(0,0,0,0)" stroke-width="1"/>
        <path id="Path_828229" data-name="Path 828229" d="M-23.356-1.9H-26.7L-27.33,0h-2.025l3.44-9.242h1.765L-20.69,0h-2.025Zm-2.825-1.542h2.311l-1.162-3.459Zm5.948-.038a4.139,4.139,0,0,1,.72-2.558A2.338,2.338,0,0,1-17.542-7a2.1,2.1,0,0,1,1.657.749v-3.5h1.841V0H-15.7l-.089-.73a2.159,2.159,0,0,1-1.765.857A2.331,2.331,0,0,1-19.5-.828,4.272,4.272,0,0,1-20.233-3.485Zm1.834.137a2.711,2.711,0,0,0,.336,1.481,1.1,1.1,0,0,0,.978.515,1.227,1.227,0,0,0,1.2-.718V-4.785A1.21,1.21,0,0,0-17.072-5.5Q-18.4-5.5-18.4-3.348ZM-9.461.127A3.372,3.372,0,0,1-11.921-.8a3.294,3.294,0,0,1-.949-2.469v-.178a4.149,4.149,0,0,1,.4-1.85,2.935,2.935,0,0,1,1.133-1.257A3.18,3.18,0,0,1-9.664-7a2.85,2.85,0,0,1,2.219.889,3.611,3.611,0,0,1,.809,2.52v.749H-11.01a1.7,1.7,0,0,0,.536,1.079,1.621,1.621,0,0,0,1.133.406A1.98,1.98,0,0,0-7.684-2.12l.9,1.009A2.754,2.754,0,0,1-7.9-.2,3.665,3.665,0,0,1-9.461.127Zm-.209-5.643a1.146,1.146,0,0,0-.885.37,1.915,1.915,0,0,0-.435,1.058h2.552v-.147a1.366,1.366,0,0,0-.33-.947A1.183,1.183,0,0,0-9.671-5.516Zm6.932,4.164a1.2,1.2,0,0,0,.825-.279.979.979,0,0,0,.33-.743H.136A2.353,2.353,0,0,1-.244-1.095a2.513,2.513,0,0,1-1.025.9A3.208,3.208,0,0,1-2.707.127,2.982,2.982,0,0,1-5.031-.809,3.705,3.705,0,0,1-5.881-3.4v-.121a3.663,3.663,0,0,1,.844-2.533A2.947,2.947,0,0,1-2.72-7a2.889,2.889,0,0,1,2.066.733A2.6,2.6,0,0,1,.136-4.31h-1.72a1.261,1.261,0,0,0-.33-.871,1.1,1.1,0,0,0-.838-.335,1.1,1.1,0,0,0-.968.467,2.708,2.708,0,0,0-.327,1.516v.191a2.742,2.742,0,0,0,.324,1.526A1.119,1.119,0,0,0-2.739-1.352ZM5.3-.7A2.3,2.3,0,0,1,3.418.127,2.17,2.17,0,0,1,1.733-.508a2.71,2.71,0,0,1-.594-1.86v-4.5H2.974v4.442q0,1.074.978,1.074A1.325,1.325,0,0,0,5.234-2V-6.868H7.074V0H5.348Zm7.141.7a2.037,2.037,0,0,1-.184-.616,2.22,2.22,0,0,1-1.733.743A2.439,2.439,0,0,1,8.849-.457,1.878,1.878,0,0,1,8.185-1.93a1.941,1.941,0,0,1,.809-1.676,3.994,3.994,0,0,1,2.339-.59h.844v-.394a1.132,1.132,0,0,0-.244-.762.961.961,0,0,0-.771-.286,1.093,1.093,0,0,0-.727.222.755.755,0,0,0-.263.609H8.338a1.843,1.843,0,0,1,.368-1.1,2.434,2.434,0,0,1,1.041-.8A3.794,3.794,0,0,1,11.258-7a3,3,0,0,1,2.015.638,2.232,2.232,0,0,1,.746,1.793v2.977a3.284,3.284,0,0,0,.273,1.479V0ZM10.921-1.276a1.58,1.58,0,0,0,.749-.181,1.188,1.188,0,0,0,.508-.486V-3.123h-.686q-1.377,0-1.466.952l-.006.108a.734.734,0,0,0,.241.565A.937.937,0,0,0,10.921-1.276Zm4.221-2.209a4.139,4.139,0,0,1,.72-2.558A2.338,2.338,0,0,1,17.834-7a2.1,2.1,0,0,1,1.657.749v-3.5h1.841V0H19.675l-.089-.73a2.159,2.159,0,0,1-1.765.857,2.331,2.331,0,0,1-1.946-.955A4.272,4.272,0,0,1,15.142-3.485Zm1.834.137a2.711,2.711,0,0,0,.336,1.481,1.1,1.1,0,0,0,.978.515,1.227,1.227,0,0,0,1.2-.718V-4.785A1.21,1.21,0,0,0,18.3-5.5Q16.977-5.5,16.977-3.348ZM22.468-3.5a4.073,4.073,0,0,1,.394-1.822,2.881,2.881,0,0,1,1.133-1.238A3.306,3.306,0,0,1,25.711-7a3.127,3.127,0,0,1,2.269.851,3.414,3.414,0,0,1,.981,2.311l.013.47a3.59,3.59,0,0,1-.882,2.536,3.067,3.067,0,0,1-2.368.955,3.082,3.082,0,0,1-2.371-.952,3.653,3.653,0,0,1-.885-2.59Zm1.834.13a2.567,2.567,0,0,0,.368,1.5,1.215,1.215,0,0,0,1.054.518,1.217,1.217,0,0,0,1.041-.512A2.809,2.809,0,0,0,27.139-3.5a2.542,2.542,0,0,0-.375-1.488,1.217,1.217,0,0,0-1.054-.528,1.2,1.2,0,0,0-1.041.524A2.857,2.857,0,0,0,24.3-3.367Z" transform="translate(784.001 7858.811)" fill="#12263f" stroke="rgba(0,0,0,0)" stroke-width="1"/>
        <path id="Path_828230" data-name="Path 828230" d="M-43.605-7.7h-2.831V0h-1.9V-7.7h-2.793V-9.242h7.528ZM-40.7,0h-1.841V-6.868H-40.7Zm-1.949-8.646a.9.9,0,0,1,.276-.679,1.037,1.037,0,0,1,.752-.267,1.04,1.04,0,0,1,.749.267.9.9,0,0,1,.279.679.9.9,0,0,1-.282.686,1.042,1.042,0,0,1-.746.267,1.042,1.042,0,0,1-.746-.267A.9.9,0,0,1-42.653-8.646Zm9.642,5.275a4.119,4.119,0,0,1-.72,2.542,2.31,2.31,0,0,1-1.946.955A2.14,2.14,0,0,1-37.359-.6V2.641h-1.834V-6.868h1.7l.063.673A2.156,2.156,0,0,1-35.69-7a2.326,2.326,0,0,1,1.974.939,4.231,4.231,0,0,1,.7,2.59ZM-34.845-3.5a2.7,2.7,0,0,0-.34-1.479,1.106,1.106,0,0,0-.987-.521,1.2,1.2,0,0,0-1.187.66v2.812a1.222,1.222,0,0,0,1.2.679Q-34.845-1.352-34.845-3.5Zm2.685.006a4.073,4.073,0,0,1,.394-1.822,2.881,2.881,0,0,1,1.133-1.238A3.306,3.306,0,0,1-28.917-7a3.127,3.127,0,0,1,2.269.851,3.414,3.414,0,0,1,.981,2.311l.013.47a3.59,3.59,0,0,1-.882,2.536A3.067,3.067,0,0,1-28.9.127a3.082,3.082,0,0,1-2.371-.952,3.653,3.653,0,0,1-.885-2.59Zm1.834.13a2.567,2.567,0,0,0,.368,1.5,1.215,1.215,0,0,0,1.054.518,1.217,1.217,0,0,0,1.041-.512A2.809,2.809,0,0,0-27.489-3.5a2.542,2.542,0,0,0-.375-1.488,1.217,1.217,0,0,0-1.054-.528,1.2,1.2,0,0,0-1.041.524A2.857,2.857,0,0,0-30.326-3.367Zm8.753-.118a4.139,4.139,0,0,1,.72-2.558A2.338,2.338,0,0,1-18.881-7a2.1,2.1,0,0,1,1.657.749v-3.5h1.841V0H-17.04l-.089-.73a2.159,2.159,0,0,1-1.765.857,2.331,2.331,0,0,1-1.946-.955A4.272,4.272,0,0,1-21.573-3.485Zm1.834.137A2.711,2.711,0,0,0-19.4-1.867a1.1,1.1,0,0,0,.978.515,1.227,1.227,0,0,0,1.2-.718V-4.785A1.21,1.21,0,0,0-18.411-5.5Q-19.738-5.5-19.738-3.348ZM-10.8.127A3.372,3.372,0,0,1-13.26-.8a3.294,3.294,0,0,1-.949-2.469v-.178a4.149,4.149,0,0,1,.4-1.85,2.935,2.935,0,0,1,1.133-1.257A3.18,3.18,0,0,1-11-7a2.85,2.85,0,0,1,2.219.889,3.611,3.611,0,0,1,.809,2.52v.749h-4.374a1.7,1.7,0,0,0,.536,1.079,1.621,1.621,0,0,0,1.133.406A1.98,1.98,0,0,0-9.023-2.12l.9,1.009A2.754,2.754,0,0,1-9.239-.2,3.665,3.665,0,0,1-10.8.127Zm-.209-5.643a1.146,1.146,0,0,0-.885.37,1.915,1.915,0,0,0-.435,1.058h2.552v-.147a1.366,1.366,0,0,0-.33-.947A1.183,1.183,0,0,0-11.01-5.516ZM-.536.127A3.372,3.372,0,0,1-3-.8a3.294,3.294,0,0,1-.949-2.469v-.178a4.149,4.149,0,0,1,.4-1.85A2.935,2.935,0,0,1-2.412-6.554,3.18,3.18,0,0,1-.74-7a2.85,2.85,0,0,1,2.219.889,3.611,3.611,0,0,1,.809,2.52v.749H-2.085a1.7,1.7,0,0,0,.536,1.079,1.621,1.621,0,0,0,1.133.406A1.98,1.98,0,0,0,1.241-2.12l.9,1.009A2.754,2.754,0,0,1,1.025-.2,3.665,3.665,0,0,1-.536.127ZM-.746-5.516a1.146,1.146,0,0,0-.885.37,1.915,1.915,0,0,0-.435,1.058H.486v-.147a1.366,1.366,0,0,0-.33-.947A1.183,1.183,0,0,0-.746-5.516ZM5.818-2.241,7.094-6.868H9.01L6.694,0H4.942L2.625-6.868H4.542ZM11.753,0H9.912V-6.868h1.841ZM9.8-8.646a.9.9,0,0,1,.276-.679,1.037,1.037,0,0,1,.752-.267,1.04,1.04,0,0,1,.749.267.9.9,0,0,1,.279.679.9.9,0,0,1-.282.686,1.042,1.042,0,0,1-.746.267,1.042,1.042,0,0,1-.746-.267A.9.9,0,0,1,9.8-8.646Zm3.174,5.161a4.139,4.139,0,0,1,.72-2.558A2.338,2.338,0,0,1,15.669-7a2.1,2.1,0,0,1,1.657.749v-3.5h1.841V0H17.51l-.089-.73a2.159,2.159,0,0,1-1.765.857,2.331,2.331,0,0,1-1.946-.955A4.272,4.272,0,0,1,12.978-3.485Zm1.834.137a2.711,2.711,0,0,0,.336,1.481,1.1,1.1,0,0,0,.978.515,1.227,1.227,0,0,0,1.2-.718V-4.785A1.21,1.21,0,0,0,16.139-5.5Q14.812-5.5,14.812-3.348ZM23.75.127A3.372,3.372,0,0,1,21.29-.8a3.294,3.294,0,0,1-.949-2.469v-.178a4.149,4.149,0,0,1,.4-1.85,2.935,2.935,0,0,1,1.133-1.257A3.18,3.18,0,0,1,23.547-7a2.85,2.85,0,0,1,2.219.889,3.611,3.611,0,0,1,.809,2.52v.749H22.2a1.7,1.7,0,0,0,.536,1.079,1.621,1.621,0,0,0,1.133.406,1.98,1.98,0,0,0,1.657-.768l.9,1.009A2.754,2.754,0,0,1,25.311-.2,3.665,3.665,0,0,1,23.75.127ZM23.54-5.516a1.146,1.146,0,0,0-.885.37,1.915,1.915,0,0,0-.435,1.058h2.552v-.147a1.366,1.366,0,0,0-.33-.947A1.183,1.183,0,0,0,23.54-5.516ZM29.3-6.868l.057.793A2.4,2.4,0,0,1,31.335-7a1.993,1.993,0,0,1,1.625.641,2.991,2.991,0,0,1,.546,1.917V0H31.672V-4.393a1.19,1.19,0,0,0-.254-.847,1.137,1.137,0,0,0-.844-.263,1.262,1.262,0,0,0-1.162.66V0H27.577V-6.868Zm8.449,5.516a1.2,1.2,0,0,0,.825-.279.979.979,0,0,0,.33-.743h1.72a2.353,2.353,0,0,1-.381,1.279,2.513,2.513,0,0,1-1.025.9,3.208,3.208,0,0,1-1.438.321,2.982,2.982,0,0,1-2.323-.936A3.705,3.705,0,0,1,34.611-3.4v-.121a3.663,3.663,0,0,1,.844-2.533A2.947,2.947,0,0,1,37.772-7a2.889,2.889,0,0,1,2.066.733,2.6,2.6,0,0,1,.79,1.952h-1.72a1.261,1.261,0,0,0-.33-.871,1.1,1.1,0,0,0-.838-.335,1.1,1.1,0,0,0-.968.467,2.708,2.708,0,0,0-.327,1.516v.191a2.742,2.742,0,0,0,.324,1.526A1.119,1.119,0,0,0,37.753-1.352ZM43.612,0H41.771V-6.868h1.841ZM41.663-8.646a.9.9,0,0,1,.276-.679,1.037,1.037,0,0,1,.752-.267,1.04,1.04,0,0,1,.749.267.9.9,0,0,1,.279.679.9.9,0,0,1-.282.686,1.042,1.042,0,0,1-.746.267,1.042,1.042,0,0,1-.746-.267A.9.9,0,0,1,41.663-8.646ZM49.1,0a2.037,2.037,0,0,1-.184-.616,2.22,2.22,0,0,1-1.733.743,2.439,2.439,0,0,1-1.673-.584,1.878,1.878,0,0,1-.663-1.473,1.941,1.941,0,0,1,.809-1.676A3.994,3.994,0,0,1,48-4.2h.844v-.394a1.132,1.132,0,0,0-.244-.762.961.961,0,0,0-.771-.286,1.093,1.093,0,0,0-.727.222.755.755,0,0,0-.263.609H45a1.843,1.843,0,0,1,.368-1.1,2.434,2.434,0,0,1,1.041-.8A3.794,3.794,0,0,1,47.922-7a3,3,0,0,1,2.015.638,2.232,2.232,0,0,1,.746,1.793v2.977a3.284,3.284,0,0,0,.273,1.479V0ZM47.585-1.276a1.58,1.58,0,0,0,.749-.181,1.188,1.188,0,0,0,.508-.486V-3.123h-.686q-1.377,0-1.466.952l-.006.108a.734.734,0,0,0,.241.565A.937.937,0,0,0,47.585-1.276Z" transform="translate(662.001 7975.811)" fill="#12263f" stroke="rgba(0,0,0,0)" stroke-width="1"/>
        <path id="Path_828231" data-name="Path 828231" d="M-35.039-1.53H-31V0h-5.948V-9.242h1.9ZM-26-.7a2.3,2.3,0,0,1-1.879.825,2.17,2.17,0,0,1-1.685-.635,2.71,2.71,0,0,1-.594-1.86v-4.5h1.834v4.442q0,1.074.978,1.074A1.325,1.325,0,0,0-26.063-2V-6.868h1.841V0h-1.727Zm2.895-2.787a4.025,4.025,0,0,1,.752-2.545A2.437,2.437,0,0,1-20.325-7a2.138,2.138,0,0,1,1.758.774l.076-.647h1.663v6.64a2.935,2.935,0,0,1-.409,1.568,2.629,2.629,0,0,1-1.152,1.016,4.05,4.05,0,0,1-1.739.349A3.766,3.766,0,0,1-21.6,2.4a2.614,2.614,0,0,1-1.085-.778l.813-1.117a2.149,2.149,0,0,0,1.663.768,1.573,1.573,0,0,0,1.136-.39,1.464,1.464,0,0,0,.406-1.108V-.59a2.122,2.122,0,0,1-1.669.717,2.431,2.431,0,0,1-2-.968,4.024,4.024,0,0,1-.765-2.568Zm1.834.137A2.506,2.506,0,0,0-20.9-1.883a1.191,1.191,0,0,0,1.028.531,1.274,1.274,0,0,0,1.2-.629V-4.874A1.271,1.271,0,0,0-19.855-5.5a1.2,1.2,0,0,0-1.038.54A2.825,2.825,0,0,0-21.271-3.348ZM-11.438,0a2.037,2.037,0,0,1-.184-.616,2.22,2.22,0,0,1-1.733.743,2.439,2.439,0,0,1-1.673-.584,1.878,1.878,0,0,1-.663-1.473,1.941,1.941,0,0,1,.809-1.676,3.994,3.994,0,0,1,2.339-.59h.844v-.394a1.132,1.132,0,0,0-.244-.762.961.961,0,0,0-.771-.286,1.093,1.093,0,0,0-.727.222.755.755,0,0,0-.263.609h-1.834a1.843,1.843,0,0,1,.368-1.1,2.434,2.434,0,0,1,1.041-.8A3.794,3.794,0,0,1-12.619-7a3,3,0,0,1,2.015.638,2.232,2.232,0,0,1,.746,1.793v2.977A3.284,3.284,0,0,0-9.585-.108V0Zm-1.517-1.276a1.58,1.58,0,0,0,.749-.181,1.188,1.188,0,0,0,.508-.486V-3.123h-.686q-1.377,0-1.466.952l-.006.108a.734.734,0,0,0,.241.565A.937.937,0,0,0-12.956-1.276Zm8.366-3.872A4.984,4.984,0,0,0-5.25-5.2a1.344,1.344,0,0,0-1.365.7V0H-8.449V-6.868h1.733l.051.819A1.7,1.7,0,0,1-5.135-7a1.922,1.922,0,0,1,.571.083ZM2.691.127A3.372,3.372,0,0,1,.232-.8,3.294,3.294,0,0,1-.717-3.269v-.178a4.149,4.149,0,0,1,.4-1.85A2.935,2.935,0,0,1,.816-6.554,3.18,3.18,0,0,1,2.488-7a2.85,2.85,0,0,1,2.219.889,3.611,3.611,0,0,1,.809,2.52v.749H1.143a1.7,1.7,0,0,0,.536,1.079,1.621,1.621,0,0,0,1.133.406A1.98,1.98,0,0,0,4.469-2.12l.9,1.009A2.754,2.754,0,0,1,4.253-.2,3.665,3.665,0,0,1,2.691.127ZM2.482-5.516a1.146,1.146,0,0,0-.885.37,1.915,1.915,0,0,0-.435,1.058H3.713v-.147a1.366,1.366,0,0,0-.33-.947A1.183,1.183,0,0,0,2.482-5.516Zm6.69.7,1.155-2.05h1.961L10.334-3.5,12.372,0H10.4L9.179-2.158,7.96,0H5.986L8.023-3.5,6.075-6.868H8.042ZM17.151,0a2.037,2.037,0,0,1-.184-.616,2.22,2.22,0,0,1-1.733.743,2.439,2.439,0,0,1-1.673-.584A1.878,1.878,0,0,1,12.9-1.93a1.941,1.941,0,0,1,.809-1.676,3.994,3.994,0,0,1,2.339-.59h.844v-.394a1.132,1.132,0,0,0-.244-.762.961.961,0,0,0-.771-.286,1.093,1.093,0,0,0-.727.222.755.755,0,0,0-.263.609H13.051a1.843,1.843,0,0,1,.368-1.1,2.434,2.434,0,0,1,1.041-.8A3.794,3.794,0,0,1,15.971-7a3,3,0,0,1,2.015.638,2.232,2.232,0,0,1,.746,1.793v2.977A3.284,3.284,0,0,0,19-.108V0ZM15.634-1.276a1.58,1.58,0,0,0,.749-.181,1.188,1.188,0,0,0,.508-.486V-3.123h-.686q-1.377,0-1.466.952l-.006.108a.734.734,0,0,0,.241.565A.937.937,0,0,0,15.634-1.276ZM23-1.352a1.2,1.2,0,0,0,.825-.279.979.979,0,0,0,.33-.743h1.72a2.353,2.353,0,0,1-.381,1.279,2.513,2.513,0,0,1-1.025.9,3.208,3.208,0,0,1-1.438.321,2.982,2.982,0,0,1-2.323-.936A3.705,3.705,0,0,1,19.855-3.4v-.121A3.663,3.663,0,0,1,20.7-6.049,2.947,2.947,0,0,1,23.017-7a2.889,2.889,0,0,1,2.066.733,2.6,2.6,0,0,1,.79,1.952h-1.72a1.261,1.261,0,0,0-.33-.871,1.1,1.1,0,0,0-.838-.335,1.1,1.1,0,0,0-.968.467,2.708,2.708,0,0,0-.327,1.516v.191a2.742,2.742,0,0,0,.324,1.526A1.119,1.119,0,0,0,23-1.352Zm6.119-7.2v1.688h1.174v1.346H29.117v3.428a.818.818,0,0,0,.146.546.733.733,0,0,0,.559.165,2.925,2.925,0,0,0,.54-.044v1.39A3.777,3.777,0,0,1,29.25.127a1.752,1.752,0,0,1-1.968-1.949v-3.7h-1V-6.868h1V-8.557ZM30.837-3.5a4.073,4.073,0,0,1,.394-1.822,2.881,2.881,0,0,1,1.133-1.238A3.306,3.306,0,0,1,34.081-7a3.128,3.128,0,0,1,2.269.851,3.414,3.414,0,0,1,.981,2.311l.013.47a3.59,3.59,0,0,1-.882,2.536,3.067,3.067,0,0,1-2.368.955,3.082,3.082,0,0,1-2.371-.952,3.653,3.653,0,0,1-.885-2.59Zm1.834.13a2.567,2.567,0,0,0,.368,1.5,1.215,1.215,0,0,0,1.054.518,1.217,1.217,0,0,0,1.041-.512A2.809,2.809,0,0,0,35.509-3.5a2.542,2.542,0,0,0-.375-1.488,1.217,1.217,0,0,0-1.054-.528,1.2,1.2,0,0,0-1.041.524A2.857,2.857,0,0,0,32.671-3.367Z" transform="translate(727.001 7933.811)" fill="#12263f" stroke="rgba(0,0,0,0)" stroke-width="1"/>
        <path id="Path_828232" data-name="Path 828232" d="M-30.707-3.777h-3.656V0h-1.9V-9.242h6.018V-7.7h-4.113v2.387h3.656Zm4.469,3.9A3.372,3.372,0,0,1-28.7-.8a3.294,3.294,0,0,1-.949-2.469v-.178a4.149,4.149,0,0,1,.4-1.85,2.935,2.935,0,0,1,1.133-1.257A3.18,3.18,0,0,1-26.441-7a2.85,2.85,0,0,1,2.219.889,3.611,3.611,0,0,1,.809,2.52v.749h-4.374a1.7,1.7,0,0,0,.536,1.079,1.621,1.621,0,0,0,1.133.406,1.98,1.98,0,0,0,1.657-.768l.9,1.009A2.754,2.754,0,0,1-24.677-.2,3.665,3.665,0,0,1-26.238.127Zm-.209-5.643a1.146,1.146,0,0,0-.885.37,1.915,1.915,0,0,0-.435,1.058h2.552v-.147a1.366,1.366,0,0,0-.33-.947A1.183,1.183,0,0,0-26.448-5.516Zm6.932,4.164a1.2,1.2,0,0,0,.825-.279.979.979,0,0,0,.33-.743h1.72a2.353,2.353,0,0,1-.381,1.279,2.513,2.513,0,0,1-1.025.9,3.208,3.208,0,0,1-1.438.321,2.982,2.982,0,0,1-2.323-.936A3.705,3.705,0,0,1-22.658-3.4v-.121a3.663,3.663,0,0,1,.844-2.533A2.947,2.947,0,0,1-19.5-7a2.889,2.889,0,0,1,2.066.733,2.6,2.6,0,0,1,.79,1.952h-1.72a1.261,1.261,0,0,0-.33-.871,1.1,1.1,0,0,0-.838-.335,1.1,1.1,0,0,0-.968.467,2.708,2.708,0,0,0-.327,1.516v.191A2.742,2.742,0,0,0-20.5-1.816,1.119,1.119,0,0,0-19.516-1.352ZM-13.8-6.119A2.29,2.29,0,0,1-11.969-7Q-9.734-7-9.7-4.4V0h-1.834V-4.348a1.276,1.276,0,0,0-.254-.873,1.089,1.089,0,0,0-.844-.282,1.249,1.249,0,0,0-1.168.622V0h-1.834V-9.75H-13.8ZM-4.339,0a2.037,2.037,0,0,1-.184-.616A2.22,2.22,0,0,1-6.256.127,2.439,2.439,0,0,1-7.928-.457,1.878,1.878,0,0,1-8.592-1.93a1.941,1.941,0,0,1,.809-1.676A3.994,3.994,0,0,1-5.443-4.2H-4.6v-.394a1.132,1.132,0,0,0-.244-.762.961.961,0,0,0-.771-.286,1.093,1.093,0,0,0-.727.222.755.755,0,0,0-.263.609H-8.439a1.843,1.843,0,0,1,.368-1.1,2.434,2.434,0,0,1,1.041-.8A3.794,3.794,0,0,1-5.519-7,3,3,0,0,1-3.5-6.357a2.232,2.232,0,0,1,.746,1.793v2.977A3.284,3.284,0,0,0-2.485-.108V0ZM-5.856-1.276a1.58,1.58,0,0,0,.749-.181A1.188,1.188,0,0,0-4.6-1.942V-3.123h-.686q-1.377,0-1.466.952l-.006.108a.734.734,0,0,0,.241.565A.937.937,0,0,0-5.856-1.276ZM4.453-2.6l1.27-4.272H7.69L4.929,1.066l-.152.362A2.094,2.094,0,0,1,2.745,2.774a2.886,2.886,0,0,1-.812-.121V1.263l.279.006a1.509,1.509,0,0,0,.778-.159,1.043,1.043,0,0,0,.4-.527L3.609.019,1.2-6.868H3.177Zm8.988-3.523A2.29,2.29,0,0,1,15.276-7q2.234,0,2.266,2.6V0H15.707V-4.348a1.276,1.276,0,0,0-.254-.873,1.089,1.089,0,0,0-.844-.282,1.249,1.249,0,0,0-1.168.622V0H11.607V-9.75h1.834ZM18.64-3.5a4.073,4.073,0,0,1,.394-1.822,2.881,2.881,0,0,1,1.133-1.238A3.306,3.306,0,0,1,21.884-7a3.127,3.127,0,0,1,2.269.851,3.414,3.414,0,0,1,.981,2.311l.013.47a3.59,3.59,0,0,1-.882,2.536A3.067,3.067,0,0,1,21.9.127a3.082,3.082,0,0,1-2.371-.952,3.653,3.653,0,0,1-.885-2.59Zm1.834.13a2.567,2.567,0,0,0,.368,1.5,1.215,1.215,0,0,0,1.054.518,1.217,1.217,0,0,0,1.041-.512A2.809,2.809,0,0,0,23.312-3.5a2.542,2.542,0,0,0-.375-1.488,1.217,1.217,0,0,0-1.054-.528,1.2,1.2,0,0,0-1.041.524A2.857,2.857,0,0,0,20.474-3.367Zm9.661-1.781a4.984,4.984,0,0,0-.66-.051,1.344,1.344,0,0,0-1.365.7V0H26.276V-6.868h1.733l.051.819A1.7,1.7,0,0,1,29.59-7a1.922,1.922,0,0,1,.571.083ZM34.807,0a2.037,2.037,0,0,1-.184-.616A2.22,2.22,0,0,1,32.89.127a2.439,2.439,0,0,1-1.673-.584,1.878,1.878,0,0,1-.663-1.473,1.941,1.941,0,0,1,.809-1.676A3.994,3.994,0,0,1,33.7-4.2h.844v-.394a1.132,1.132,0,0,0-.244-.762.961.961,0,0,0-.771-.286,1.093,1.093,0,0,0-.727.222.755.755,0,0,0-.263.609H30.707a1.843,1.843,0,0,1,.368-1.1,2.434,2.434,0,0,1,1.041-.8A3.794,3.794,0,0,1,33.627-7a3,3,0,0,1,2.015.638,2.232,2.232,0,0,1,.746,1.793v2.977a3.284,3.284,0,0,0,.273,1.479V0ZM33.29-1.276a1.58,1.58,0,0,0,.749-.181,1.188,1.188,0,0,0,.508-.486V-3.123h-.686q-1.377,0-1.466.952l-.006.108a.734.734,0,0,0,.241.565A.937.937,0,0,0,33.29-1.276Z" transform="translate(796.001 7972.205)" fill="#12263f" stroke="rgba(0,0,0,0)" stroke-width="1"/>
        <path id="Path_828233" data-name="Path 828233" d="M-19.259-4.412a5.568,5.568,0,0,1-.419,2.25A3.863,3.863,0,0,1-20.839-.628L-19.3.578-20.516,1.65-22.483.07a4.165,4.165,0,0,1-.7.057,3.845,3.845,0,0,1-2.05-.552A3.669,3.669,0,0,1-26.628-2a5.42,5.42,0,0,1-.5-2.358v-.457a5.55,5.55,0,0,1,.492-2.4,3.663,3.663,0,0,1,1.39-1.593,3.824,3.824,0,0,1,2.053-.555,3.824,3.824,0,0,1,2.053.555,3.663,3.663,0,0,1,1.39,1.593,5.534,5.534,0,0,1,.492,2.4Zm-1.93-.419a3.889,3.889,0,0,0-.521-2.209,1.7,1.7,0,0,0-1.485-.755,1.7,1.7,0,0,0-1.479.746A3.845,3.845,0,0,0-25.2-4.862v.451a3.938,3.938,0,0,0,.521,2.2,1.692,1.692,0,0,0,1.5.781,1.677,1.677,0,0,0,1.473-.752,3.915,3.915,0,0,0,.521-2.193ZM-13.87-.7a2.3,2.3,0,0,1-1.879.825,2.17,2.17,0,0,1-1.685-.635,2.71,2.71,0,0,1-.594-1.86v-4.5h1.834v4.442q0,1.074.978,1.074A1.325,1.325,0,0,0-13.933-2V-6.868h1.841V0h-1.727Zm5.142.7h-1.834V-6.868h1.834Zm-.54-9.655h2L-9.026-7.687h-1.492Zm3.84,2.787.057.768A2.414,2.414,0,0,1-3.4-7,1.832,1.832,0,0,1-1.574-5.948,2.358,2.358,0,0,1,.489-7a2.049,2.049,0,0,1,1.663.651A2.991,2.991,0,0,1,2.7-4.386V0H.857V-4.38a1.308,1.308,0,0,0-.229-.854A1.013,1.013,0,0,0-.178-5.5a1.145,1.145,0,0,0-1.143.787L-1.314,0H-3.148V-4.374a1.292,1.292,0,0,0-.235-.863,1.023,1.023,0,0,0-.8-.267,1.189,1.189,0,0,0-1.13.647V0H-7.147V-6.868ZM6.043,0H4.2V-6.868H6.043ZM4.094-8.646a.9.9,0,0,1,.276-.679,1.037,1.037,0,0,1,.752-.267,1.04,1.04,0,0,1,.749.267.9.9,0,0,1,.279.679.9.9,0,0,1-.282.686,1.042,1.042,0,0,1-.746.267,1.042,1.042,0,0,1-.746-.267A.9.9,0,0,1,4.094-8.646ZM10.41-1.352a1.2,1.2,0,0,0,.825-.279.979.979,0,0,0,.33-.743h1.72A2.353,2.353,0,0,1,12.9-1.095a2.513,2.513,0,0,1-1.025.9,3.208,3.208,0,0,1-1.438.321A2.982,2.982,0,0,1,8.119-.809,3.705,3.705,0,0,1,7.268-3.4v-.121a3.663,3.663,0,0,1,.844-2.533A2.947,2.947,0,0,1,10.429-7a2.889,2.889,0,0,1,2.066.733,2.6,2.6,0,0,1,.79,1.952h-1.72a1.261,1.261,0,0,0-.33-.871,1.1,1.1,0,0,0-.838-.335,1.1,1.1,0,0,0-.968.467A2.708,2.708,0,0,0,9.1-3.533v.191a2.742,2.742,0,0,0,.324,1.526A1.119,1.119,0,0,0,10.41-1.352ZM14.047-3.5a4.073,4.073,0,0,1,.394-1.822,2.881,2.881,0,0,1,1.133-1.238A3.306,3.306,0,0,1,17.291-7a3.127,3.127,0,0,1,2.269.851,3.414,3.414,0,0,1,.981,2.311l.013.47a3.59,3.59,0,0,1-.882,2.536A3.067,3.067,0,0,1,17.3.127a3.082,3.082,0,0,1-2.371-.952,3.653,3.653,0,0,1-.885-2.59Zm1.834.13a2.567,2.567,0,0,0,.368,1.5,1.215,1.215,0,0,0,1.054.518,1.217,1.217,0,0,0,1.041-.512A2.809,2.809,0,0,0,18.719-3.5a2.542,2.542,0,0,0-.375-1.488,1.217,1.217,0,0,0-1.054-.528,1.2,1.2,0,0,0-1.041.524A2.857,2.857,0,0,0,15.882-3.367ZM25.4-1.9a.591.591,0,0,0-.333-.53A3.785,3.785,0,0,0,24-2.774q-2.45-.514-2.45-2.082a1.887,1.887,0,0,1,.759-1.527A3.06,3.06,0,0,1,24.292-7a3.293,3.293,0,0,1,2.092.616,1.94,1.94,0,0,1,.784,1.6H25.333a.888.888,0,0,0-.254-.651,1.075,1.075,0,0,0-.793-.257,1.1,1.1,0,0,0-.717.209.661.661,0,0,0-.254.533.565.565,0,0,0,.289.492,2.971,2.971,0,0,0,.974.324,7.958,7.958,0,0,1,1.155.308,1.9,1.9,0,0,1,1.454,1.847,1.792,1.792,0,0,1-.806,1.52A3.478,3.478,0,0,1,24.3.127a3.632,3.632,0,0,1-1.533-.308,2.572,2.572,0,0,1-1.051-.844,1.962,1.962,0,0,1-.381-1.158h1.739a.958.958,0,0,0,.362.749,1.435,1.435,0,0,0,.9.26,1.328,1.328,0,0,0,.8-.2A.622.622,0,0,0,25.4-1.9Z" transform="translate(792.001 7783.811)" fill="#12263f" stroke="rgba(0,0,0,0)" stroke-width="1"/>
        <path id="Path_823838" data-name="Path 823838" d="M-7847.5-6019v10.842" transform="translate(8363.868 13744.969)" fill="none" stroke="#707070" stroke-width="2"/>
        <path id="Path_827915" data-name="Path 827915" d="M-7847.5-6019v19.319" transform="translate(8375.868 13837.365)" fill="none" stroke="#707070" stroke-width="2"/>
        <path id="Path_827924" data-name="Path 827924" d="M-7847.5-6019v54.728" transform="translate(8359 13919.082)" fill="none" stroke="#707070" stroke-width="2"/>
        <path id="Path_827911" data-name="Path 827911" d="M-7847.5-6019v38.033" transform="translate(8458.5 13744.969)" fill="none" stroke="#707070" stroke-width="2"/>
        <path id="Path_827916" data-name="Path 827916" d="M-7847.5-6019v19.319" transform="translate(8499.212 13837.365)" fill="none" stroke="#707070" stroke-width="2"/>
        <path id="Path_827921" data-name="Path 827921" d="M-7847.5-6019v11.934" transform="translate(8434 13919.922)" fill="none" stroke="#707070" stroke-width="2"/>
        <path id="Path_827912" data-name="Path 827912" d="M-7847.5-6019v11.842" transform="translate(8547.5 13744.969)" fill="none" stroke="#707070" stroke-width="2"/>
        <path id="Path_827917" data-name="Path 827917" d="M-7847.5-6019v19.319" transform="translate(8631.54 13837.365)" fill="none" stroke="#707070" stroke-width="2"/>
        <path id="Path_827922" data-name="Path 827922" d="M-7847.5-6019v55.729" transform="translate(8510 13919.082)" fill="none" stroke="#707070" stroke-width="2"/>
        <path id="Path_827926" data-name="Path 827926" d="M-7847.5-6019v12.774" transform="translate(8574 13919.082)" fill="none" stroke="#707070" stroke-width="2"/>
        <path id="Path_827925" data-name="Path 827925" d="M-7847.5-6019v50.874" transform="translate(8643 13919.922)" fill="none" stroke="#707070" stroke-width="2"/>
        <path id="Path_827913" data-name="Path 827913" d="M-7847.5-6019v36.691" transform="translate(8637.978 13746.311)" fill="none" stroke="#707070" stroke-width="2"/>
        <path id="Path_828234" data-name="Path 828234" d="M17.5,0h109a17.5,17.5,0,0,1,0,35H17.5a17.5,17.5,0,0,1,0-35Z" transform="translate(538.001 8018.811)" fill="#ffd4bb"/>
        <path id="Path_828235" data-name="Path 828235" d="M17.5,0h75a17.5,17.5,0,0,1,0,35h-75a17.5,17.5,0,0,1,0-35Z" transform="translate(731.001 8018.811)" fill="#ffd4bb"/>
        <path id="Path_828236" data-name="Path 828236" d="M-49.388-3.079a3.27,3.27,0,0,1-1.1,2.349,3.868,3.868,0,0,1-2.618.857,3.478,3.478,0,0,1-2.8-1.2,4.906,4.906,0,0,1-1.019-3.285v-.565a5.54,5.54,0,0,1,.47-2.349A3.52,3.52,0,0,1-55.11-8.826a3.761,3.761,0,0,1,2.028-.543,3.768,3.768,0,0,1,2.577.857,3.515,3.515,0,0,1,1.13,2.406h-1.9a1.93,1.93,0,0,0-.5-1.3,1.845,1.845,0,0,0-1.3-.4,1.618,1.618,0,0,0-1.425.682,3.824,3.824,0,0,0-.486,2.117v.7a4.093,4.093,0,0,0,.454,2.19,1.588,1.588,0,0,0,1.431.692,1.88,1.88,0,0,0,1.317-.4,1.821,1.821,0,0,0,.5-1.247ZM-44.278,0a2.037,2.037,0,0,1-.184-.616A2.22,2.22,0,0,1-46.2.127a2.439,2.439,0,0,1-1.673-.584,1.878,1.878,0,0,1-.663-1.473,1.941,1.941,0,0,1,.809-1.676,3.994,3.994,0,0,1,2.339-.59h.844v-.394a1.132,1.132,0,0,0-.244-.762.961.961,0,0,0-.771-.286,1.093,1.093,0,0,0-.727.222.755.755,0,0,0-.263.609h-1.834a1.843,1.843,0,0,1,.368-1.1,2.434,2.434,0,0,1,1.041-.8A3.794,3.794,0,0,1-45.459-7a3,3,0,0,1,2.015.638A2.232,2.232,0,0,1-42.7-4.564v2.977a3.284,3.284,0,0,0,.273,1.479V0ZM-45.8-1.276a1.58,1.58,0,0,0,.749-.181,1.188,1.188,0,0,0,.508-.486V-3.123h-.686q-1.377,0-1.466.952l-.006.108a.734.734,0,0,0,.241.565A.937.937,0,0,0-45.8-1.276Zm4.221-2.209a4.139,4.139,0,0,1,.72-2.558A2.338,2.338,0,0,1-38.883-7a2.1,2.1,0,0,1,1.657.749v-3.5h1.841V0h-1.657l-.089-.73A2.159,2.159,0,0,1-38.9.127a2.331,2.331,0,0,1-1.946-.955A4.272,4.272,0,0,1-41.574-3.485Zm1.834.137A2.711,2.711,0,0,0-39.4-1.867a1.1,1.1,0,0,0,.978.515,1.227,1.227,0,0,0,1.2-.718V-4.785A1.21,1.21,0,0,0-38.413-5.5Q-39.74-5.5-39.74-3.348ZM-30.8.127A3.372,3.372,0,0,1-33.262-.8a3.294,3.294,0,0,1-.949-2.469v-.178a4.149,4.149,0,0,1,.4-1.85,2.935,2.935,0,0,1,1.133-1.257A3.18,3.18,0,0,1-31.005-7a2.85,2.85,0,0,1,2.219.889,3.611,3.611,0,0,1,.809,2.52v.749h-4.374a1.7,1.7,0,0,0,.536,1.079,1.621,1.621,0,0,0,1.133.406,1.98,1.98,0,0,0,1.657-.768l.9,1.009A2.754,2.754,0,0,1-29.24-.2,3.665,3.665,0,0,1-30.8.127Zm-.209-5.643a1.146,1.146,0,0,0-.885.37,1.915,1.915,0,0,0-.435,1.058h2.552v-.147a1.366,1.366,0,0,0-.33-.947A1.183,1.183,0,0,0-31.011-5.516Zm5.764-1.352.057.793A2.4,2.4,0,0,1-23.217-7a1.993,1.993,0,0,1,1.625.641,2.991,2.991,0,0,1,.546,1.917V0H-22.88V-4.393a1.19,1.19,0,0,0-.254-.847,1.137,1.137,0,0,0-.844-.263,1.262,1.262,0,0,0-1.162.66V0h-1.834V-6.868ZM-15.676,0a2.037,2.037,0,0,1-.184-.616,2.22,2.22,0,0,1-1.733.743,2.439,2.439,0,0,1-1.673-.584,1.878,1.878,0,0,1-.663-1.473,1.941,1.941,0,0,1,.809-1.676A3.994,3.994,0,0,1-16.78-4.2h.844v-.394a1.132,1.132,0,0,0-.244-.762.961.961,0,0,0-.771-.286,1.093,1.093,0,0,0-.727.222.755.755,0,0,0-.263.609h-1.834a1.843,1.843,0,0,1,.368-1.1,2.434,2.434,0,0,1,1.041-.8A3.794,3.794,0,0,1-16.856-7a3,3,0,0,1,2.015.638,2.232,2.232,0,0,1,.746,1.793v2.977a3.284,3.284,0,0,0,.273,1.479V0Zm-1.517-1.276a1.58,1.58,0,0,0,.749-.181,1.188,1.188,0,0,0,.508-.486V-3.123h-.686q-1.377,0-1.466.952l-.006.108a.734.734,0,0,0,.241.565A.937.937,0,0,0-17.193-1.276Zm7.458-2.209a4.139,4.139,0,0,1,.72-2.558A2.338,2.338,0,0,1-7.043-7a2.1,2.1,0,0,1,1.657.749v-3.5h1.841V0H-5.2l-.089-.73A2.159,2.159,0,0,1-7.055.127,2.331,2.331,0,0,1-9-.828,4.272,4.272,0,0,1-9.734-3.485Zm1.834.137a2.711,2.711,0,0,0,.336,1.481,1.1,1.1,0,0,0,.978.515,1.227,1.227,0,0,0,1.2-.718V-4.785A1.21,1.21,0,0,0-6.573-5.5Q-7.9-5.5-7.9-3.348ZM1.038.127A3.372,3.372,0,0,1-1.422-.8a3.294,3.294,0,0,1-.949-2.469v-.178a4.149,4.149,0,0,1,.4-1.85A2.935,2.935,0,0,1-.838-6.554,3.18,3.18,0,0,1,.835-7a2.85,2.85,0,0,1,2.219.889,3.611,3.611,0,0,1,.809,2.52v.749H-.511A1.7,1.7,0,0,0,.025-1.758a1.621,1.621,0,0,0,1.133.406A1.98,1.98,0,0,0,2.815-2.12l.9,1.009A2.754,2.754,0,0,1,2.6-.2,3.665,3.665,0,0,1,1.038.127ZM.828-5.516a1.146,1.146,0,0,0-.885.37A1.915,1.915,0,0,0-.492-4.088H2.06v-.147a1.366,1.366,0,0,0-.33-.947A1.183,1.183,0,0,0,.828-5.516ZM11-1.352a1.2,1.2,0,0,0,.825-.279.979.979,0,0,0,.33-.743h1.72a2.353,2.353,0,0,1-.381,1.279,2.513,2.513,0,0,1-1.025.9,3.208,3.208,0,0,1-1.438.321A2.982,2.982,0,0,1,8.706-.809,3.705,3.705,0,0,1,7.855-3.4v-.121A3.663,3.663,0,0,1,8.7-6.049,2.947,2.947,0,0,1,11.016-7a2.889,2.889,0,0,1,2.066.733,2.6,2.6,0,0,1,.79,1.952h-1.72a1.261,1.261,0,0,0-.33-.871,1.1,1.1,0,0,0-.838-.335,1.1,1.1,0,0,0-.968.467A2.708,2.708,0,0,0,9.69-3.533v.191a2.742,2.742,0,0,0,.324,1.526A1.119,1.119,0,0,0,11-1.352ZM19.033-.7a2.3,2.3,0,0,1-1.879.825,2.17,2.17,0,0,1-1.685-.635,2.71,2.71,0,0,1-.594-1.86v-4.5H16.71v4.442q0,1.074.978,1.074A1.325,1.325,0,0,0,18.97-2V-6.868h1.841V0H19.084Zm6.881-1.2a.591.591,0,0,0-.333-.53,3.785,3.785,0,0,0-1.07-.346q-2.45-.514-2.45-2.082a1.887,1.887,0,0,1,.759-1.527A3.06,3.06,0,0,1,24.8-7a3.293,3.293,0,0,1,2.092.616,1.94,1.94,0,0,1,.784,1.6H25.844a.888.888,0,0,0-.254-.651,1.075,1.075,0,0,0-.793-.257,1.1,1.1,0,0,0-.717.209.661.661,0,0,0-.254.533.565.565,0,0,0,.289.492,2.971,2.971,0,0,0,.974.324,7.958,7.958,0,0,1,1.155.308A1.9,1.9,0,0,1,27.7-1.974a1.792,1.792,0,0,1-.806,1.52A3.478,3.478,0,0,1,24.81.127a3.632,3.632,0,0,1-1.533-.308,2.572,2.572,0,0,1-1.051-.844,1.962,1.962,0,0,1-.381-1.158h1.739a.958.958,0,0,0,.362.749,1.435,1.435,0,0,0,.9.26,1.328,1.328,0,0,0,.8-.2A.622.622,0,0,0,25.914-1.9Zm5.161-6.659v1.688h1.174v1.346H31.075v3.428a.818.818,0,0,0,.146.546.733.733,0,0,0,.559.165,2.925,2.925,0,0,0,.54-.044v1.39a3.777,3.777,0,0,1-1.111.165A1.752,1.752,0,0,1,29.24-1.822v-3.7h-1V-6.868h1V-8.557ZM32.8-3.5a4.073,4.073,0,0,1,.394-1.822,2.881,2.881,0,0,1,1.133-1.238A3.306,3.306,0,0,1,36.039-7a3.128,3.128,0,0,1,2.269.851,3.414,3.414,0,0,1,.981,2.311l.013.47a3.59,3.59,0,0,1-.882,2.536,3.067,3.067,0,0,1-2.368.955,3.082,3.082,0,0,1-2.371-.952,3.653,3.653,0,0,1-.885-2.59Zm1.834.13A2.567,2.567,0,0,0,35-1.87a1.215,1.215,0,0,0,1.054.518,1.217,1.217,0,0,0,1.041-.512A2.809,2.809,0,0,0,37.467-3.5a2.542,2.542,0,0,0-.375-1.488,1.217,1.217,0,0,0-1.054-.528A1.2,1.2,0,0,0,35-4.992,2.857,2.857,0,0,0,34.63-3.367Zm5.516-.118a4.139,4.139,0,0,1,.72-2.558A2.338,2.338,0,0,1,42.837-7a2.1,2.1,0,0,1,1.657.749v-3.5h1.841V0H44.678l-.089-.73a2.159,2.159,0,0,1-1.765.857,2.331,2.331,0,0,1-1.946-.955A4.272,4.272,0,0,1,40.146-3.485Zm1.834.137a2.711,2.711,0,0,0,.336,1.481,1.1,1.1,0,0,0,.978.515,1.227,1.227,0,0,0,1.2-.718V-4.785A1.21,1.21,0,0,0,43.307-5.5Q41.98-5.5,41.98-3.348ZM49.693,0H47.852V-6.868h1.841ZM47.744-8.646a.9.9,0,0,1,.276-.679,1.037,1.037,0,0,1,.752-.267,1.04,1.04,0,0,1,.749.267.9.9,0,0,1,.279.679.9.9,0,0,1-.282.686,1.042,1.042,0,0,1-.746.267,1.042,1.042,0,0,1-.746-.267A.9.9,0,0,1,47.744-8.646ZM55.183,0A2.037,2.037,0,0,1,55-.616a2.22,2.22,0,0,1-1.733.743,2.439,2.439,0,0,1-1.673-.584A1.878,1.878,0,0,1,50.93-1.93a1.941,1.941,0,0,1,.809-1.676,3.994,3.994,0,0,1,2.339-.59h.844v-.394a1.132,1.132,0,0,0-.244-.762.961.961,0,0,0-.771-.286,1.093,1.093,0,0,0-.727.222.755.755,0,0,0-.263.609H51.083a1.843,1.843,0,0,1,.368-1.1,2.434,2.434,0,0,1,1.041-.8A3.794,3.794,0,0,1,54-7a3,3,0,0,1,2.015.638,2.232,2.232,0,0,1,.746,1.793v2.977a3.284,3.284,0,0,0,.273,1.479V0ZM53.666-1.276a1.58,1.58,0,0,0,.749-.181,1.188,1.188,0,0,0,.508-.486V-3.123h-.686q-1.377,0-1.466.952l-.006.108a.734.734,0,0,0,.241.565A.937.937,0,0,0,53.666-1.276Z" transform="translate(610.001 8040.811)" fill="#12263f" stroke="rgba(0,0,0,0)" stroke-width="1"/>
        <path id="Path_828237" data-name="Path 828237" d="M-36,0V-9.242h2.844a4.319,4.319,0,0,1,2.18.549,3.829,3.829,0,0,1,1.5,1.562,4.816,4.816,0,0,1,.54,2.3v.425a4.83,4.83,0,0,1-.53,2.292A3.8,3.8,0,0,1-30.961-.559,4.351,4.351,0,0,1-33.138,0Zm1.9-7.7v6.17h.92a2.068,2.068,0,0,0,1.708-.73,3.3,3.3,0,0,0,.6-2.088v-.489a3.351,3.351,0,0,0-.584-2.136A2.061,2.061,0,0,0-33.157-7.7Zm6.138,4.2a4.073,4.073,0,0,1,.394-1.822,2.881,2.881,0,0,1,1.133-1.238A3.306,3.306,0,0,1-24.715-7a3.127,3.127,0,0,1,2.269.851,3.414,3.414,0,0,1,.981,2.311l.013.47a3.59,3.59,0,0,1-.882,2.536A3.067,3.067,0,0,1-24.7.127a3.082,3.082,0,0,1-2.371-.952,3.653,3.653,0,0,1-.885-2.59Zm1.834.13a2.567,2.567,0,0,0,.368,1.5,1.215,1.215,0,0,0,1.054.518,1.217,1.217,0,0,0,1.041-.512A2.809,2.809,0,0,0-23.286-3.5a2.542,2.542,0,0,0-.375-1.488,1.217,1.217,0,0,0-1.054-.528,1.2,1.2,0,0,0-1.041.524A2.857,2.857,0,0,0-26.124-3.367Zm8.658,2.015a1.2,1.2,0,0,0,.825-.279.979.979,0,0,0,.33-.743h1.72a2.353,2.353,0,0,1-.381,1.279A2.513,2.513,0,0,1-16-.194a3.208,3.208,0,0,1-1.438.321,2.982,2.982,0,0,1-2.323-.936A3.705,3.705,0,0,1-20.608-3.4v-.121a3.663,3.663,0,0,1,.844-2.533A2.947,2.947,0,0,1-17.447-7a2.889,2.889,0,0,1,2.066.733,2.6,2.6,0,0,1,.79,1.952h-1.72a1.261,1.261,0,0,0-.33-.871,1.1,1.1,0,0,0-.838-.335,1.1,1.1,0,0,0-.968.467,2.708,2.708,0,0,0-.327,1.516v.191a2.742,2.742,0,0,0,.324,1.526A1.119,1.119,0,0,0-17.466-1.352ZM-9.429-.7a2.3,2.3,0,0,1-1.879.825,2.17,2.17,0,0,1-1.685-.635,2.71,2.71,0,0,1-.594-1.86v-4.5h1.834v4.442q0,1.074.978,1.074A1.325,1.325,0,0,0-9.493-2V-6.868h1.841V0H-9.379Zm4.881-6.17.057.768A2.414,2.414,0,0,1-2.517-7,1.832,1.832,0,0,1-.7-5.948,2.358,2.358,0,0,1,1.368-7a2.049,2.049,0,0,1,1.663.651,2.991,2.991,0,0,1,.546,1.958V0H1.736V-4.38a1.308,1.308,0,0,0-.229-.854A1.013,1.013,0,0,0,.7-5.5a1.145,1.145,0,0,0-1.143.787L-.435,0H-2.269V-4.374A1.292,1.292,0,0,0-2.5-5.237,1.023,1.023,0,0,0-3.3-5.5a1.189,1.189,0,0,0-1.13.647V0H-6.268V-6.868Zm12.7,7A3.372,3.372,0,0,1,5.688-.8a3.294,3.294,0,0,1-.949-2.469v-.178a4.149,4.149,0,0,1,.4-1.85A2.935,2.935,0,0,1,6.271-6.554,3.18,3.18,0,0,1,7.944-7a2.85,2.85,0,0,1,2.219.889,3.611,3.611,0,0,1,.809,2.52v.749H6.6a1.7,1.7,0,0,0,.536,1.079,1.621,1.621,0,0,0,1.133.406A1.98,1.98,0,0,0,9.925-2.12l.9,1.009A2.754,2.754,0,0,1,9.709-.2,3.665,3.665,0,0,1,8.147.127ZM7.938-5.516a1.146,1.146,0,0,0-.885.37,1.915,1.915,0,0,0-.435,1.058H9.169v-.147a1.366,1.366,0,0,0-.33-.947A1.183,1.183,0,0,0,7.938-5.516ZM13.7-6.868l.057.793A2.4,2.4,0,0,1,15.733-7a1.993,1.993,0,0,1,1.625.641A2.991,2.991,0,0,1,17.9-4.437V0H16.069V-4.393a1.19,1.19,0,0,0-.254-.847,1.137,1.137,0,0,0-.844-.263,1.262,1.262,0,0,0-1.162.66V0H11.975V-6.868ZM21.49-8.557v1.688h1.174v1.346H21.49v3.428a.818.818,0,0,0,.146.546.733.733,0,0,0,.559.165,2.925,2.925,0,0,0,.54-.044v1.39a3.777,3.777,0,0,1-1.111.165,1.752,1.752,0,0,1-1.968-1.949v-3.7h-1V-6.868h1V-8.557ZM23.21-3.5A4.073,4.073,0,0,1,23.6-5.319a2.881,2.881,0,0,1,1.133-1.238A3.306,3.306,0,0,1,26.454-7a3.127,3.127,0,0,1,2.269.851A3.414,3.414,0,0,1,29.7-3.834l.013.47a3.59,3.59,0,0,1-.882,2.536,3.067,3.067,0,0,1-2.368.955A3.082,3.082,0,0,1,24.1-.825a3.653,3.653,0,0,1-.885-2.59Zm1.834.13a2.567,2.567,0,0,0,.368,1.5,1.215,1.215,0,0,0,1.054.518,1.217,1.217,0,0,0,1.041-.512A2.809,2.809,0,0,0,27.882-3.5a2.542,2.542,0,0,0-.375-1.488,1.217,1.217,0,0,0-1.054-.528,1.2,1.2,0,0,0-1.041.524A2.857,2.857,0,0,0,25.045-3.367ZM34.566-1.9a.591.591,0,0,0-.333-.53,3.785,3.785,0,0,0-1.07-.346q-2.45-.514-2.45-2.082a1.887,1.887,0,0,1,.759-1.527A3.06,3.06,0,0,1,33.455-7a3.293,3.293,0,0,1,2.092.616,1.94,1.94,0,0,1,.784,1.6H34.5a.888.888,0,0,0-.254-.651,1.075,1.075,0,0,0-.793-.257,1.1,1.1,0,0,0-.717.209.661.661,0,0,0-.254.533.565.565,0,0,0,.289.492,2.971,2.971,0,0,0,.974.324,7.959,7.959,0,0,1,1.155.308A1.9,1.9,0,0,1,36.35-1.974a1.792,1.792,0,0,1-.806,1.52,3.478,3.478,0,0,1-2.082.581,3.632,3.632,0,0,1-1.533-.308,2.572,2.572,0,0,1-1.051-.844A1.962,1.962,0,0,1,30.5-2.184h1.739a.958.958,0,0,0,.362.749,1.435,1.435,0,0,0,.9.26,1.328,1.328,0,0,0,.8-.2A.622.622,0,0,0,34.566-1.9Z" transform="translate(785.001 8040.811)" fill="#12263f" stroke="rgba(0,0,0,0)" stroke-width="1"/>
        <path id="Path_828238" data-name="Path 828238" d="M42,0A42,42,0,1,1,0,42,42,42,0,0,1,42,0Z" transform="translate(384.001 7684.811)" fill="#ffae7e"/>
        <path id="Path_828239" data-name="Path 828239" d="M42,0A42,42,0,1,1,0,42,42,42,0,0,1,42,0Z" transform="translate(384.001 7774.811)" fill="#ffae7e"/>
        <path id="Path_828240" data-name="Path 828240" d="M42,0A42,42,0,1,1,0,42,42,42,0,0,1,42,0Z" transform="translate(386.001 7865.811)" fill="#ffae7e"/>
        <path id="Path_828241" data-name="Path 828241" d="M49,0C76.062,0,98,21.714,98,48.5S76.062,97,49,97,0,75.286,0,48.5,21.938,0,49,0Z" transform="translate(380.001 7982.811)" fill="#ffae7e"/>
        <path id="Path_828242" data-name="Path 828242" d="M9.578-9.477H6.094V0H3.75V-9.477H.313v-1.9H9.578ZM13.148,0H10.883V-8.453h2.266Zm-2.4-10.641a1.112,1.112,0,0,1,.34-.836,1.277,1.277,0,0,1,.926-.328,1.28,1.28,0,0,1,.922.328,1.105,1.105,0,0,1,.344.836,1.108,1.108,0,0,1-.348.844,1.283,1.283,0,0,1-.918.328A1.283,1.283,0,0,1,11.1-9.8,1.108,1.108,0,0,1,10.75-10.641ZM22.617-4.148A5.07,5.07,0,0,1,21.73-1.02,2.843,2.843,0,0,1,19.336.156a2.633,2.633,0,0,1-2.07-.891V3.25H15.008v-11.7H17.1l.078.828a2.654,2.654,0,0,1,2.141-.984,2.862,2.862,0,0,1,2.43,1.156,5.207,5.207,0,0,1,.867,3.188Zm-2.258-.164a3.327,3.327,0,0,0-.418-1.82,1.361,1.361,0,0,0-1.215-.641,1.478,1.478,0,0,0-1.461.813V-2.5a1.5,1.5,0,0,0,1.477.836Q20.359-1.664,20.359-4.312Zm3.3.008a5.013,5.013,0,0,1,.484-2.242A3.546,3.546,0,0,1,25.543-8.07a4.069,4.069,0,0,1,2.113-.539,3.849,3.849,0,0,1,2.793,1.047,4.2,4.2,0,0,1,1.207,2.844l.016.578A4.418,4.418,0,0,1,30.586-1.02,3.775,3.775,0,0,1,27.672.156a3.793,3.793,0,0,1-2.918-1.172A4.5,4.5,0,0,1,23.664-4.2Zm2.258.16A3.16,3.16,0,0,0,26.375-2.3a1.5,1.5,0,0,0,1.3.638,1.5,1.5,0,0,0,1.281-.63,3.457,3.457,0,0,0,.461-2.015,3.128,3.128,0,0,0-.461-1.831,1.5,1.5,0,0,0-1.3-.649,1.474,1.474,0,0,0-1.281.646A3.516,3.516,0,0,0,25.922-4.144ZM37.641-2.336a.727.727,0,0,0-.41-.652,4.659,4.659,0,0,0-1.316-.426Q32.9-4.047,32.9-5.977a2.323,2.323,0,0,1,.934-1.879,3.766,3.766,0,0,1,2.441-.754,4.053,4.053,0,0,1,2.574.758,2.388,2.388,0,0,1,.965,1.969H37.555a1.092,1.092,0,0,0-.312-.8A1.322,1.322,0,0,0,36.266-7a1.351,1.351,0,0,0-.883.258.814.814,0,0,0-.312.656.7.7,0,0,0,.355.605,3.657,3.657,0,0,0,1.2.4,9.8,9.8,0,0,1,1.422.379A2.336,2.336,0,0,1,39.836-2.43a2.2,2.2,0,0,1-.992,1.871,4.28,4.28,0,0,1-2.562.715,4.47,4.47,0,0,1-1.887-.379A3.166,3.166,0,0,1,33.1-1.262a2.414,2.414,0,0,1-.469-1.426h2.141a1.179,1.179,0,0,0,.445.922,1.766,1.766,0,0,0,1.109.32,1.635,1.635,0,0,0,.98-.246A.766.766,0,0,0,37.641-2.336Z" transform="translate(406.001 7732.811)" fill="#12263f" stroke="rgba(0,0,0,0)" stroke-width="1"/>
        <path id="Path_828243" data-name="Path 828243" d="M7.859-4.93h-4.5v3.047H8.641V0H1.016V-11.375H8.625v1.9H3.359v2.711h4.5Zm4.125-3.523.07.945a2.971,2.971,0,0,1,2.43-1.1A2.255,2.255,0,0,1,16.727-7.32a2.9,2.9,0,0,1,2.539-1.289,2.521,2.521,0,0,1,2.047.8,3.681,3.681,0,0,1,.672,2.41V0H19.719V-5.391a1.61,1.61,0,0,0-.281-1.051,1.246,1.246,0,0,0-.992-.332,1.409,1.409,0,0,0-1.406.969L17.047,0H14.789V-5.383A1.59,1.59,0,0,0,14.5-6.445a1.259,1.259,0,0,0-.984-.328,1.463,1.463,0,0,0-1.391.8V0H9.867V-8.453Zm19.352,4.3A5.119,5.119,0,0,1,30.469-.98,2.872,2.872,0,0,1,28.047.156,2.639,2.639,0,0,1,25.852-.9l-.1.9H23.719V-12h2.258v4.3a2.571,2.571,0,0,1,2.055-.914,2.9,2.9,0,0,1,2.426,1.137,5.126,5.126,0,0,1,.879,3.2Zm-2.258-.164a3.363,3.363,0,0,0-.406-1.871,1.374,1.374,0,0,0-1.211-.59,1.489,1.489,0,0,0-1.484.883v3.336a1.509,1.509,0,0,0,1.5.891,1.394,1.394,0,0,0,1.438-1.078A5.562,5.562,0,0,0,29.078-4.312ZM37.625,0A2.507,2.507,0,0,1,37.4-.758a2.732,2.732,0,0,1-2.133.914,3,3,0,0,1-2.059-.719,2.312,2.312,0,0,1-.816-1.812,2.389,2.389,0,0,1,1-2.062,4.915,4.915,0,0,1,2.879-.727H37.3v-.484a1.393,1.393,0,0,0-.3-.937,1.183,1.183,0,0,0-.949-.352,1.345,1.345,0,0,0-.895.273.929.929,0,0,0-.324.75H32.578a2.268,2.268,0,0,1,.453-1.359,3,3,0,0,1,1.281-.98,4.669,4.669,0,0,1,1.859-.355,3.689,3.689,0,0,1,2.48.785,2.747,2.747,0,0,1,.918,2.207v3.664a4.041,4.041,0,0,0,.336,1.82V0ZM35.758-1.57a1.945,1.945,0,0,0,.922-.223,1.462,1.462,0,0,0,.625-.6V-3.844h-.844q-1.7,0-1.8,1.172l-.008.133a.9.9,0,0,0,.3.7A1.153,1.153,0,0,0,35.758-1.57ZM43.688,0H41.422V-12h2.266Zm6.758,0a2.507,2.507,0,0,1-.227-.758,2.732,2.732,0,0,1-2.133.914,3,3,0,0,1-2.059-.719,2.312,2.312,0,0,1-.816-1.812,2.389,2.389,0,0,1,1-2.062,4.915,4.915,0,0,1,2.879-.727h1.039v-.484a1.393,1.393,0,0,0-.3-.937,1.183,1.183,0,0,0-.949-.352,1.345,1.345,0,0,0-.895.273.929.929,0,0,0-.324.75H45.4a2.268,2.268,0,0,1,.453-1.359,3,3,0,0,1,1.281-.98,4.669,4.669,0,0,1,1.859-.355,3.689,3.689,0,0,1,2.48.785,2.747,2.747,0,0,1,.918,2.207v3.664a4.041,4.041,0,0,0,.336,1.82V0ZM48.578-1.57a1.945,1.945,0,0,0,.922-.223,1.462,1.462,0,0,0,.625-.6V-3.844h-.844q-1.7,0-1.8,1.172l-.008.133a.9.9,0,0,0,.3.7A1.153,1.153,0,0,0,48.578-1.57Zm7.938-6.883V.461a3.024,3.024,0,0,1-.742,2.176,2.821,2.821,0,0,1-2.141.777,4.591,4.591,0,0,1-1.117-.133V1.492a4.238,4.238,0,0,0,.711.07q1.023,0,1.023-1.086v-8.93ZM54.07-10.641a1.112,1.112,0,0,1,.34-.836,1.277,1.277,0,0,1,.926-.328,1.277,1.277,0,0,1,.926.328,1.112,1.112,0,0,1,.34.836,1.108,1.108,0,0,1-.348.844,1.283,1.283,0,0,1-.918.328,1.283,1.283,0,0,1-.918-.328A1.108,1.108,0,0,1,54.07-10.641Zm8.1,10.8A4.15,4.15,0,0,1,59.145-.984a4.054,4.054,0,0,1-1.168-3.039v-.219a5.106,5.106,0,0,1,.492-2.277,3.612,3.612,0,0,1,1.395-1.547,3.914,3.914,0,0,1,2.059-.543,3.508,3.508,0,0,1,2.73,1.094,4.444,4.444,0,0,1,1,3.1v.922H60.266a2.1,2.1,0,0,0,.66,1.328,2,2,0,0,0,1.395.5,2.437,2.437,0,0,0,2.039-.945l1.109,1.242A3.389,3.389,0,0,1,64.094-.246,4.511,4.511,0,0,1,62.172.156Zm-.258-6.945a1.411,1.411,0,0,0-1.09.455,2.357,2.357,0,0,0-.535,1.3H63.43v-.181a1.681,1.681,0,0,0-.406-1.165A1.456,1.456,0,0,0,61.914-6.789Z" transform="translate(393.001 7822.811)" fill="#12263f" stroke="rgba(0,0,0,0)" stroke-width="1"/>
        <path id="Path_828244" data-name="Path 828244" d="M5.227-4.164H3.359V0H1.016V-11.375H5.242a4.778,4.778,0,0,1,3.109.9A3.1,3.1,0,0,1,9.445-7.937,3.5,3.5,0,0,1,8.941-6,3.437,3.437,0,0,1,7.414-4.758L9.875-.109V0H7.359Zm-1.867-1.9H5.25a1.936,1.936,0,0,0,1.367-.449A1.606,1.606,0,0,0,7.1-7.75a1.719,1.719,0,0,0-.457-1.266,1.9,1.9,0,0,0-1.4-.461H3.359ZM10.727-4.3a5.013,5.013,0,0,1,.484-2.242A3.546,3.546,0,0,1,12.605-8.07a4.069,4.069,0,0,1,2.113-.539,3.849,3.849,0,0,1,2.793,1.047,4.2,4.2,0,0,1,1.207,2.844l.016.578A4.418,4.418,0,0,1,17.648-1.02,3.775,3.775,0,0,1,14.734.156a3.793,3.793,0,0,1-2.918-1.172A4.5,4.5,0,0,1,10.727-4.2Zm2.258.16A3.16,3.16,0,0,0,13.438-2.3a1.5,1.5,0,0,0,1.3.638,1.5,1.5,0,0,0,1.281-.63,3.457,3.457,0,0,0,.461-2.015,3.128,3.128,0,0,0-.461-1.831,1.5,1.5,0,0,0-1.3-.649,1.474,1.474,0,0,0-1.281.646A3.516,3.516,0,0,0,12.984-4.144Zm9.844-6.387v2.078h1.445V-6.8H22.828v4.219a1.007,1.007,0,0,0,.18.672.9.9,0,0,0,.688.2,3.6,3.6,0,0,0,.664-.055V-.047a4.648,4.648,0,0,1-1.367.2,2.156,2.156,0,0,1-2.422-2.4V-6.8H19.336V-8.453H20.57v-2.078ZM30.594-.859A2.831,2.831,0,0,1,28.281.156a2.67,2.67,0,0,1-2.074-.781,3.335,3.335,0,0,1-.73-2.289V-8.453h2.258v5.467q0,1.322,1.2,1.322a1.63,1.63,0,0,0,1.578-.8V-8.453h2.266V0H30.656ZM36.867,0H34.6V-12h2.266Zm6.758,0A2.507,2.507,0,0,1,43.4-.758a2.732,2.732,0,0,1-2.133.914,3,3,0,0,1-2.059-.719,2.312,2.312,0,0,1-.816-1.812,2.389,2.389,0,0,1,1-2.062,4.915,4.915,0,0,1,2.879-.727H43.3v-.484a1.393,1.393,0,0,0-.3-.937,1.183,1.183,0,0,0-.949-.352,1.345,1.345,0,0,0-.895.273.929.929,0,0,0-.324.75H38.578a2.268,2.268,0,0,1,.453-1.359,3,3,0,0,1,1.281-.98,4.669,4.669,0,0,1,1.859-.355,3.689,3.689,0,0,1,2.48.785,2.747,2.747,0,0,1,.918,2.207v3.664a4.041,4.041,0,0,0,.336,1.82V0ZM41.758-1.57a1.945,1.945,0,0,0,.922-.223,1.462,1.462,0,0,0,.625-.6V-3.844h-.844q-1.7,0-1.8,1.172l-.008.133a.9.9,0,0,0,.3.7A1.153,1.153,0,0,0,41.758-1.57Zm5.2-2.719a5.094,5.094,0,0,1,.887-3.148,2.877,2.877,0,0,1,2.426-1.172,2.589,2.589,0,0,1,2.039.922V-12H54.57V0H52.531l-.109-.9A2.657,2.657,0,0,1,50.25.156,2.869,2.869,0,0,1,47.855-1.02,5.258,5.258,0,0,1,46.953-4.289Zm2.258.168A3.337,3.337,0,0,0,49.625-2.3a1.349,1.349,0,0,0,1.2.634A1.511,1.511,0,0,0,52.3-2.548V-5.889a1.489,1.489,0,0,0-1.461-.884Q49.211-6.773,49.211-4.121ZM55.969-4.3a5.013,5.013,0,0,1,.484-2.242A3.546,3.546,0,0,1,57.848-8.07a4.069,4.069,0,0,1,2.113-.539,3.849,3.849,0,0,1,2.793,1.047,4.2,4.2,0,0,1,1.207,2.844l.016.578A4.418,4.418,0,0,1,62.891-1.02,3.775,3.775,0,0,1,59.977.156a3.793,3.793,0,0,1-2.918-1.172A4.5,4.5,0,0,1,55.969-4.2Zm2.258.16A3.16,3.16,0,0,0,58.68-2.3a1.5,1.5,0,0,0,1.3.638,1.5,1.5,0,0,0,1.281-.63,3.457,3.457,0,0,0,.461-2.015,3.128,3.128,0,0,0-.461-1.831,1.5,1.5,0,0,0-1.3-.649,1.474,1.474,0,0,0-1.281.646A3.516,3.516,0,0,0,58.227-4.144Z" transform="translate(395.001 7913.811)" fill="#12263f" stroke="rgba(0,0,0,0)" stroke-width="1"/>
        <path id="Path_828245" data-name="Path 828245" d="M5.227-4.164H3.359V0H1.016V-11.375H5.242a4.778,4.778,0,0,1,3.109.9A3.1,3.1,0,0,1,9.445-7.937,3.5,3.5,0,0,1,8.941-6,3.437,3.437,0,0,1,7.414-4.758L9.875-.109V0H7.359Zm-1.867-1.9H5.25a1.936,1.936,0,0,0,1.367-.449A1.606,1.606,0,0,0,7.1-7.75a1.719,1.719,0,0,0-.457-1.266,1.9,1.9,0,0,0-1.4-.461H3.359ZM14.969.156A4.15,4.15,0,0,1,11.941-.984a4.054,4.054,0,0,1-1.168-3.039v-.219a5.106,5.106,0,0,1,.492-2.277A3.612,3.612,0,0,1,12.66-8.066a3.914,3.914,0,0,1,2.059-.543,3.508,3.508,0,0,1,2.73,1.094,4.444,4.444,0,0,1,1,3.1v.922H13.063a2.1,2.1,0,0,0,.66,1.328,2,2,0,0,0,1.395.5,2.437,2.437,0,0,0,2.039-.945l1.109,1.242A3.389,3.389,0,0,1,16.891-.246,4.511,4.511,0,0,1,14.969.156Zm-.258-6.945a1.411,1.411,0,0,0-1.09.455,2.357,2.357,0,0,0-.535,1.3h3.141v-.181a1.681,1.681,0,0,0-.406-1.165A1.456,1.456,0,0,0,14.711-6.789Zm7.133-1.664.07.945a2.971,2.971,0,0,1,2.43-1.1A2.255,2.255,0,0,1,26.586-7.32a2.9,2.9,0,0,1,2.539-1.289,2.521,2.521,0,0,1,2.047.8,3.681,3.681,0,0,1,.672,2.41V0H29.578V-5.391A1.61,1.61,0,0,0,29.3-6.441a1.246,1.246,0,0,0-.992-.332A1.409,1.409,0,0,0,26.9-5.8L26.906,0H24.648V-5.383a1.59,1.59,0,0,0-.289-1.062,1.259,1.259,0,0,0-.984-.328,1.463,1.463,0,0,0-1.391.8V0H19.727V-8.453ZM35.961,0H33.7V-8.453h2.266Zm-2.4-10.641a1.112,1.112,0,0,1,.34-.836,1.277,1.277,0,0,1,.926-.328,1.28,1.28,0,0,1,.922.328,1.105,1.105,0,0,1,.344.836,1.108,1.108,0,0,1-.348.844,1.283,1.283,0,0,1-.918.328A1.283,1.283,0,0,1,33.91-9.8,1.108,1.108,0,0,1,33.563-10.641Zm8.836,8.3a.727.727,0,0,0-.41-.652,4.659,4.659,0,0,0-1.316-.426q-3.016-.633-3.016-2.562a2.323,2.323,0,0,1,.934-1.879,3.766,3.766,0,0,1,2.441-.754,4.053,4.053,0,0,1,2.574.758,2.388,2.388,0,0,1,.965,1.969H42.313a1.092,1.092,0,0,0-.312-.8A1.322,1.322,0,0,0,41.023-7a1.351,1.351,0,0,0-.883.258.814.814,0,0,0-.312.656.7.7,0,0,0,.355.605,3.657,3.657,0,0,0,1.2.4A9.8,9.8,0,0,1,42.8-4.7,2.336,2.336,0,0,1,44.594-2.43,2.2,2.2,0,0,1,43.6-.559a4.28,4.28,0,0,1-2.562.715,4.47,4.47,0,0,1-1.887-.379,3.166,3.166,0,0,1-1.293-1.039,2.414,2.414,0,0,1-.469-1.426h2.141a1.179,1.179,0,0,0,.445.922,1.766,1.766,0,0,0,1.109.32,1.635,1.635,0,0,0,.98-.246A.766.766,0,0,0,42.4-2.336ZM48.43,0H46.164V-8.453H48.43Zm-2.4-10.641a1.112,1.112,0,0,1,.34-.836A1.277,1.277,0,0,1,47.3-11.8a1.28,1.28,0,0,1,.922.328,1.105,1.105,0,0,1,.344.836,1.108,1.108,0,0,1-.348.844,1.283,1.283,0,0,1-.918.328,1.283,1.283,0,0,1-.918-.328A1.108,1.108,0,0,1,46.031-10.641ZM49.938-4.3a5.013,5.013,0,0,1,.484-2.242A3.546,3.546,0,0,1,51.816-8.07a4.069,4.069,0,0,1,2.113-.539,3.849,3.849,0,0,1,2.793,1.047A4.2,4.2,0,0,1,57.93-4.719l.016.578A4.418,4.418,0,0,1,56.859-1.02,3.775,3.775,0,0,1,53.945.156a3.793,3.793,0,0,1-2.918-1.172A4.5,4.5,0,0,1,49.938-4.2Zm2.258.16A3.16,3.16,0,0,0,52.648-2.3a1.5,1.5,0,0,0,1.3.638,1.5,1.5,0,0,0,1.281-.63,3.457,3.457,0,0,0,.461-2.015,3.128,3.128,0,0,0-.461-1.831,1.5,1.5,0,0,0-1.3-.649,1.474,1.474,0,0,0-1.281.646A3.516,3.516,0,0,0,52.2-4.144ZM54.375-12h2.461L54.672-9.578H52.836Zm7.039,3.547.07.977a2.951,2.951,0,0,1,2.43-1.133,2.453,2.453,0,0,1,2,.789,3.682,3.682,0,0,1,.672,2.359V0H64.328V-5.406a1.465,1.465,0,0,0-.312-1.043,1.4,1.4,0,0,0-1.039-.324,1.553,1.553,0,0,0-1.43.813V0H59.289V-8.453ZM77.18,0a2.507,2.507,0,0,1-.227-.758A2.732,2.732,0,0,1,74.82.156a3,3,0,0,1-2.059-.719,2.312,2.312,0,0,1-.816-1.812,2.389,2.389,0,0,1,1-2.062,4.915,4.915,0,0,1,2.879-.727h1.039v-.484a1.393,1.393,0,0,0-.3-.937,1.183,1.183,0,0,0-.949-.352,1.345,1.345,0,0,0-.895.273.929.929,0,0,0-.324.75H72.133a2.268,2.268,0,0,1,.453-1.359,3,3,0,0,1,1.281-.98,4.669,4.669,0,0,1,1.859-.355,3.689,3.689,0,0,1,2.48.785,2.747,2.747,0,0,1,.918,2.207v3.664a4.041,4.041,0,0,0,.336,1.82V0ZM75.313-1.57a1.945,1.945,0,0,0,.922-.223,1.462,1.462,0,0,0,.625-.6V-3.844h-.844q-1.7,0-1.8,1.172l-.008.133a.9.9,0,0,0,.3.7A1.153,1.153,0,0,0,75.313-1.57ZM83.242,0H80.977V-12h2.266ZM7.234,17H4.969V5H7.234Zm6.758,0a2.507,2.507,0,0,1-.227-.758,2.732,2.732,0,0,1-2.133.914,3,3,0,0,1-2.059-.719,2.312,2.312,0,0,1-.816-1.812,2.389,2.389,0,0,1,1-2.062,4.915,4.915,0,0,1,2.879-.727h1.039v-.484a1.393,1.393,0,0,0-.3-.937,1.183,1.183,0,0,0-.949-.352,1.345,1.345,0,0,0-.895.273.929.929,0,0,0-.324.75H8.945A2.268,2.268,0,0,1,9.4,9.727a3,3,0,0,1,1.281-.98,4.669,4.669,0,0,1,1.859-.355,3.689,3.689,0,0,1,2.48.785,2.747,2.747,0,0,1,.918,2.207v3.664a4.041,4.041,0,0,0,.336,1.82V17Zm-1.867-1.57a1.945,1.945,0,0,0,.922-.223,1.462,1.462,0,0,0,.625-.6V13.156h-.844q-1.7,0-1.8,1.172l-.008.133a.9.9,0,0,0,.3.7A1.153,1.153,0,0,0,12.125,15.43Zm13.164-2.578a5.119,5.119,0,0,1-.867,3.168A2.872,2.872,0,0,1,22,17.156,2.639,2.639,0,0,1,19.8,16.1l-.1.9H17.672V5H19.93V9.3a2.571,2.571,0,0,1,2.055-.914A2.9,2.9,0,0,1,24.41,9.527a5.126,5.126,0,0,1,.879,3.2Zm-2.258-.164a3.363,3.363,0,0,0-.406-1.871,1.374,1.374,0,0,0-1.211-.59,1.489,1.489,0,0,0-1.484.883v3.336a1.509,1.509,0,0,0,1.5.891,1.394,1.394,0,0,0,1.438-1.078A5.562,5.562,0,0,0,23.031,12.688Zm3.3.008a5.013,5.013,0,0,1,.484-2.242A3.546,3.546,0,0,1,28.207,8.93a4.069,4.069,0,0,1,2.113-.539,3.849,3.849,0,0,1,2.793,1.047,4.2,4.2,0,0,1,1.207,2.844l.016.578A4.418,4.418,0,0,1,33.25,15.98a3.775,3.775,0,0,1-2.914,1.176,3.793,3.793,0,0,1-2.918-1.172,4.5,4.5,0,0,1-1.09-3.187Zm2.258.16a3.16,3.16,0,0,0,.453,1.843,1.628,1.628,0,0,0,2.578.008,3.457,3.457,0,0,0,.461-2.015,3.128,3.128,0,0,0-.461-1.831,1.5,1.5,0,0,0-1.3-.649,1.474,1.474,0,0,0-1.281.646A3.516,3.516,0,0,0,28.586,12.856Zm11.891-2.192a6.134,6.134,0,0,0-.812-.062,1.654,1.654,0,0,0-1.68.867V17H35.727V8.547h2.133l.063,1.008A2.092,2.092,0,0,1,39.8,8.391a2.366,2.366,0,0,1,.7.1ZM46.227,17A2.507,2.507,0,0,1,46,16.242a2.732,2.732,0,0,1-2.133.914,3,3,0,0,1-2.059-.719,2.312,2.312,0,0,1-.816-1.812,2.389,2.389,0,0,1,1-2.062,4.915,4.915,0,0,1,2.879-.727h1.039v-.484a1.393,1.393,0,0,0-.3-.937,1.183,1.183,0,0,0-.949-.352,1.345,1.345,0,0,0-.895.273.929.929,0,0,0-.324.75H41.18a2.268,2.268,0,0,1,.453-1.359,3,3,0,0,1,1.281-.98,4.669,4.669,0,0,1,1.859-.355,3.689,3.689,0,0,1,2.48.785,2.747,2.747,0,0,1,.918,2.207v3.664a4.041,4.041,0,0,0,.336,1.82V17Zm-1.867-1.57a1.945,1.945,0,0,0,.922-.223,1.462,1.462,0,0,0,.625-.6V13.156h-.844q-1.7,0-1.8,1.172l-.008.133a.9.9,0,0,0,.3.7A1.153,1.153,0,0,0,44.359,15.43Zm8.25-8.961V8.547h1.445V10.2H52.609v4.219a1.007,1.007,0,0,0,.18.672.9.9,0,0,0,.688.2,3.6,3.6,0,0,0,.664-.055v1.711a4.648,4.648,0,0,1-1.367.2,2.156,2.156,0,0,1-2.422-2.4V10.2H49.117V8.547h1.234V6.469ZM54.727,12.7a5.013,5.013,0,0,1,.484-2.242A3.546,3.546,0,0,1,56.605,8.93a4.069,4.069,0,0,1,2.113-.539,3.849,3.849,0,0,1,2.793,1.047,4.2,4.2,0,0,1,1.207,2.844l.016.578a4.418,4.418,0,0,1-1.086,3.121,4.209,4.209,0,0,1-5.832,0,4.5,4.5,0,0,1-1.09-3.187Zm2.258.16a3.16,3.16,0,0,0,.453,1.843,1.628,1.628,0,0,0,2.578.008,3.457,3.457,0,0,0,.461-2.015,3.128,3.128,0,0,0-.461-1.831,1.5,1.5,0,0,0-1.3-.649,1.474,1.474,0,0,0-1.281.646A3.516,3.516,0,0,0,56.984,12.856Zm11.891-2.192a6.134,6.134,0,0,0-.812-.062,1.654,1.654,0,0,0-1.68.867V17H64.125V8.547h2.133l.063,1.008A2.092,2.092,0,0,1,68.2,8.391a2.366,2.366,0,0,1,.7.1ZM72.344,17H70.078V8.547h2.266Zm-2.4-10.641a1.112,1.112,0,0,1,.34-.836,1.465,1.465,0,0,1,1.848,0,1.105,1.105,0,0,1,.344.836,1.108,1.108,0,0,1-.348.844,1.448,1.448,0,0,1-1.836,0A1.108,1.108,0,0,1,69.945,6.359ZM73.852,12.7a5.013,5.013,0,0,1,.484-2.242A3.546,3.546,0,0,1,75.73,8.93a4.069,4.069,0,0,1,2.113-.539,3.849,3.849,0,0,1,2.793,1.047,4.2,4.2,0,0,1,1.207,2.844l.016.578a4.418,4.418,0,0,1-1.086,3.121,4.209,4.209,0,0,1-5.832,0,4.5,4.5,0,0,1-1.09-3.187Zm2.258.16a3.16,3.16,0,0,0,.453,1.843,1.628,1.628,0,0,0,2.578.008,3.457,3.457,0,0,0,.461-2.015,3.128,3.128,0,0,0-.461-1.831,1.5,1.5,0,0,0-1.3-.649,1.474,1.474,0,0,0-1.281.646A3.516,3.516,0,0,0,76.109,12.856Z" transform="translate(387.001 8025.811)" fill="#12263f" stroke="rgba(0,0,0,0)" stroke-width="1"/>
        <path id="Path_828246" data-name="Path 828246" d="M16.676,0H0a46.448,46.448,0,0,0,3.6,15.06A46.84,46.84,0,0,0,13.718,30,47.065,47.065,0,0,0,28.724,40.065,47.1,47.1,0,0,0,47.1,43.758a47.107,47.107,0,0,0,18.376-3.692A47.063,47.063,0,0,0,80.481,30a47.48,47.48,0,0,0,4.875-5.682L89.8,26.476,87.945,0,65.867,14.839l4.612,2.242A30.851,30.851,0,0,1,47.46,27.259,30.925,30.925,0,0,1,16.677,0h0Z" transform="translate(397.542 7718.016) rotate(87)" fill="url(#radial-gradient)"/>
        <path id="Path_828247" data-name="Path 828247" d="M16.676,0H0a46.448,46.448,0,0,0,3.6,15.06A46.84,46.84,0,0,0,13.718,30,47.065,47.065,0,0,0,28.724,40.065,47.1,47.1,0,0,0,47.1,43.758a47.107,47.107,0,0,0,18.376-3.692A47.063,47.063,0,0,0,80.481,30a47.48,47.48,0,0,0,4.875-5.682L89.8,26.476,87.945,0,65.867,14.839l4.612,2.242A30.851,30.851,0,0,1,47.46,27.259,30.925,30.925,0,0,1,16.677,0h0Z" transform="translate(397.542 7809.987) rotate(87)" fill="url(#radial-gradient)"/>
        <path id="Path_828248" data-name="Path 828248" d="M16.676,0H0a46.448,46.448,0,0,0,3.6,15.06A46.84,46.84,0,0,0,13.718,30,47.065,47.065,0,0,0,28.724,40.065,47.1,47.1,0,0,0,47.1,43.758a47.107,47.107,0,0,0,18.376-3.692A47.063,47.063,0,0,0,80.481,30a47.48,47.48,0,0,0,4.875-5.682L89.8,26.476,87.945,0,65.867,14.839l4.612,2.242A30.851,30.851,0,0,1,47.46,27.259,30.925,30.925,0,0,1,16.677,0h0Z" transform="translate(397.542 7909.082) rotate(87)" fill="url(#radial-gradient)"/>
        <path id="Path_828249" data-name="Path 828249" d="M63.158,21.4H0V4.4H62.541L62.382,0,85,12.072,63.312,25.636Z" transform="translate(460.001 8023.811)" fill="url(#radial-gradient)"/>
        <path id="Path_828250" data-name="Path 828250" d="M52.267,18.516H0V3.805H51.756L51.624,0,70.342,10.446,52.394,22.183Z" transform="translate(667.83 8024.811)" fill="url(#radial-gradient)"/>
      </g>
    </g>
  </g>
</svg>
