<svg xmlns="http://www.w3.org/2000/svg" xmlns:xlink="http://www.w3.org/1999/xlink" width="169" height="169" viewBox="0 0 169 169">
  <defs>
    <clipPath id="clip-path">
      <rect id="Rectangle_378723" data-name="Rectangle 378723" width="118.34" height="118.357" fill="none"/>
    </clipPath>
  </defs>
  <g id="Group_1075411" data-name="Group 1075411" transform="translate(-719 -2877.811)">
    <g id="Group_1073327" data-name="Group 1073327" transform="translate(334 819.811)">
      <g id="Group_159182" data-name="Group 159182" transform="translate(385.001 2058)">
        <path id="Union_12" data-name="Union 12" d="M84.5,0A84.5,84.5,0,1,1,0,84.5,84.5,84.5,0,0,1,84.5,0Z" transform="translate(0 0)" fill="#ffae7e"/>
      </g>
    </g>
    <g id="Group_1075376" data-name="Group 1075376" transform="translate(745.328 2902.421)">
      <g id="Group_1075375" data-name="Group 1075375" clip-path="url(#clip-path)">
        <path id="Path_827961" data-name="Path 827961" d="M98.042.014c1.6,0,3.2.037,4.8-.012a3.18,3.18,0,0,1,2.715,1.22c.924,1.135,2.061,2.056,3.061,3.115,1.406,1.49,2.916,2.881,4.366,4.329s2.9,2.925,4.338,4.394a3.848,3.848,0,0,1,.815.951,3.037,3.037,0,0,1,.2,1.236c.014,3.428.007,6.856.009,10.284a2.325,2.325,0,0,1-.716,1.731c-1.1,1.1-2.122,2.3-3.275,3.349-1.465,1.333-2.832,2.761-4.233,4.156q-7.261,7.227-14.484,14.492a2.663,2.663,0,0,1-1.239.659.886.886,0,0,1-.848-.2,4.8,4.8,0,0,1-1.484-1.511c-.16-.334-.636-.307-.956.013q-2.515,2.51-5.026,5.024l-3.472,3.472q-9.934,9.934-19.869,19.87c-3.592,3.6-7.164,7.211-10.76,10.8q-12.661,12.651-25.334,25.292a24.142,24.142,0,0,1-2.471,2.469,16.21,16.21,0,0,1-6.687,2.975,14.186,14.186,0,0,1-4.7.063,14.158,14.158,0,0,1-5.844-2.21,14.651,14.651,0,0,1-2.279-1.717,14.822,14.822,0,0,1-3.174-4.432,17.779,17.779,0,0,1-1.381-4.789,14.229,14.229,0,0,1,.506-5.721,13.985,13.985,0,0,1,2.533-5.06,28.216,28.216,0,0,1,2.348-2.6q7.767-7.8,15.559-15.571c.923-.924,1.866-1.828,2.761-2.778A12.051,12.051,0,0,1,25.029,71.9a79.935,79.935,0,0,0,6.559-6.357c4.233-4.165,8.455-8.345,12.579-12.616,1.115-1.155,2.356-2.177,3.4-3.412.908-1.073,2.014-1.98,3.03-2.962a3,3,0,0,0,.841-1.121.271.271,0,0,1,.109-.109A36.5,36.5,0,0,0,56.425,40.7c4.321-4.258,8.589-8.57,12.881-12.856a3.732,3.732,0,0,1,.817-.711c.352-.192.345-.424.015-.7a9.414,9.414,0,0,1-1.1-1.1,1.764,1.764,0,0,1,.106-2.764c2.488-2.649,5.082-5.191,7.649-7.761q5.691-5.7,11.39-11.385c.973-.969,1.971-1.912,2.972-2.852A2.362,2.362,0,0,1,92.842.016c1.733-.005,3.466,0,5.2,0M45.763,69.125a1.816,1.816,0,0,1-.075,2.318c-.824.816-1.6.966-2.7,0-2.044-1.791-3.867-3.8-5.738-5.766-.218-.229-.344-.206-.552.008-.764.787-1.531,1.573-2.33,2.325-.333.313-.338.508-.008.825,1.166,1.12,2.31,2.263,3.454,3.406a5.136,5.136,0,0,1,.671.788,1.708,1.708,0,0,1-.335,2.292,1.634,1.634,0,0,1-2.316.013c-.3-.307-.64-.551-.936-.853-1.037-1.058-2.088-2.1-3.116-3.17-.245-.255-.392-.337-.681-.039-1.3,1.34-2.623,2.657-3.938,3.983-.491.279-.754.788-1.168,1.153a19.939,19.939,0,0,0-2.574,2.659c-.158.14-.324.271-.472.42q-3,3-5.994,5.995c-3.356,3.359-6.73,6.7-10.058,10.087A10.03,10.03,0,0,0,4.2,100.317a1.055,1.055,0,0,0-.14.245A10.92,10.92,0,0,0,5.519,109.5a11.143,11.143,0,0,0,12.247,4.8,12,12,0,0,0,5.622-3.453c7.731-7.78,15.587-15.435,23.217-23.315,1.321-1.365,2.75-2.621,4.041-4.021.871-.944,1.837-1.8,2.766-2.691,1.945-1.864,3.814-3.807,5.712-5.72a1.464,1.464,0,0,0,.426-.537c1.387-1.4,2.821-2.753,4.218-4.143q9.8-9.747,19.556-19.541,2.526-2.527,5.051-5.056c.463-.464.433-.568,0-1.034-.588-.633-1.381-.5-2.1-.623-1.439-.237-2.916-.157-4.344-.4-1.707-.289-3.433-.3-5.141-.525-.413-.055-.871-.279-1.319-.036a1.561,1.561,0,0,0,.437.5A6.366,6.366,0,0,1,77.231,45.3,5.74,5.74,0,0,1,76.1,52.223Q63.375,64.894,50.7,77.62c-3.59,3.6-7.237,7.137-10.723,10.834a6.84,6.84,0,0,1-4.624,2.473,5.707,5.707,0,0,1-4.293-1.8q-3.1-2.9-6.01-5.989c-1.142-1.214-1.214-1.5-.546-3.035,1.448-.823,1.8-.892,3.194.53,1.919,1.964,3.882,3.882,5.847,5.8a2.069,2.069,0,0,0,3.227-.029c1.582-1.515,3.163-3.039,4.634-4.66,1.546-1.7,3.249-3.247,4.861-4.881,5.51-5.586,11.02-11.175,16.669-16.625,2.7-2.6,5.321-5.292,7.966-7.955.922-.928,1.817-1.883,2.7-2.844.715-.775.881-1.619.309-2.292a22.342,22.342,0,0,0-3.191-3.334c-.623-.648-1.3-1.238-1.97-1.836-1.342-1.2-2.374-2.689-3.691-3.915-.313-.292-.5-.323-.79,0-.329.373-.705.7-1.051,1.061-3.291,3.4-6.7,6.688-9.989,10.091-2.541,2.628-5.182,5.16-7.793,7.72-.311.3-.325.482-.006.78.772.724,1.518,1.476,2.262,2.229a16.239,16.239,0,0,1,1.837,1.912,1.75,1.75,0,0,1-.224,2.311,1.7,1.7,0,0,1-2.322.126,5.841,5.841,0,0,1-.56-.5c-1.183-1.185-2.377-2.36-3.53-3.572-.319-.335-.475-.293-.76.009-.7.741-1.412,1.476-2.165,2.163-.4.362-.392.569-.008.946,1.949,1.911,3.868,3.852,5.8,5.783m68.876-51.77c-.454.387-.9.725-1.275,1.117-1.266,1.305-2.52,2.618-3.855,3.858-1.224,1.136-2.369,2.36-3.521,3.571-1.424,1.5-2.967,2.873-4.371,4.391-1.122,1.213-2.386,2.294-3.514,3.5-.878.941-1.86,1.782-2.668,2.792-.238.3-.279.515,0,.791q1.561,1.543,3.1,3.1a.521.521,0,0,0,.766.064,4.034,4.034,0,0,0,.468-.427q6.392-6.384,12.79-12.762c.614-.609,1.13-1.3,1.764-1.89a1.038,1.038,0,0,0,.307-.784c.009-2.443.005-4.886.005-7.328M97.1,3.707c-1.02,0-2.041.031-3.059-.012a1.778,1.778,0,0,0-1.423.6q-6.338,6.35-12.692,12.685c-.653.651-1.334,1.274-2.008,1.9a.583.583,0,0,0-.011.978c.976.956,1.933,1.932,2.9,2.893.471.466.627.467,1.1,0,6.257-6.177,12.357-12.513,18.714-18.591.1-.1.287-.187.2-.37-.071-.143-.241-.083-.368-.084-1.116,0-2.232,0-3.348,0m7.407,1.646c-.239.044-.345.219-.477.351q-3.881,3.877-7.756,7.759Q90.4,19.344,84.517,25.224c-.554.555-.552.674-.007,1.223q.854.861,1.715,1.715c.672.67.8.668,1.491-.02Q93.6,22.266,99.484,16.393c2.54-2.521,5.005-5.117,7.627-7.555a.579.579,0,0,0,.063-.914c-.8-.8-1.609-1.582-2.417-2.37-.08-.078-.174-.141-.249-.2M92.4,34.206c.1-.061.232-.133.353-.222a21.211,21.211,0,0,0,2.3-2.183q8.769-8.748,17.534-17.5c.358-.356.376-.586,0-.934-.717-.67-1.407-1.37-2.084-2.081-.34-.356-.615-.39-.957-.01-.578.643-1.163,1.281-1.773,1.894-2.892,2.906-5.781,5.816-8.7,8.7-3.009,2.978-5.922,6.052-9.03,8.93-.542.5-.525.661-.014,1.175q.977.983,1.957,1.963c.106.1.19.247.409.271m-9.389,5.921c.207-.092.463.187.631-.058.08-.118-.092-.233-.185-.323-.957-.914-1.852-1.888-2.784-2.824-2.075-2.085-4.2-4.115-6.3-6.174-.353-.346-.653-.74-1.041-1.061-.3-.25-.457-.222-.71.034q-2.483,2.523-4.99,5.022c-.281.28-.3.47,0,.752,1.068,1,2.118,2.02,3.169,3.039a1.2,1.2,0,0,0,.7.372c1.555.176,3.11.353,4.667.51.986.1,1.978.148,2.963.252,1.3.136,2.588.3,3.888.459M74.885,22.134a.648.648,0,0,0-.437.247c-.283.313-.569.624-.867.923-.744.746-.725.72.015,1.446q3.23,3.165,6.427,6.363c2.874,2.863,5.763,5.712,8.6,8.611a64.8,64.8,0,0,1,5.08,5.253c.348.447.625.4,1.03-.035a7.274,7.274,0,0,1,1.043-1.065c.452-.317.368-.5.037-.833q-6.525-6.5-13.031-13.014c-2.487-2.491-5.022-4.936-7.387-7.546a.9.9,0,0,0-.511-.349" transform="translate(0 0)" fill="#040405"/>
        <path id="Path_827962" data-name="Path 827962" d="M195.345,146.176a2.115,2.115,0,0,1-1.9-1.271,2.322,2.322,0,0,1,.692-2.053,3.562,3.562,0,0,1,1.51-.365c.764-.157,1.568-.155,2.309-.376,1.173-.351,2.391-.45,3.576-.739a46.479,46.479,0,0,0,4.942-1.313,19.013,19.013,0,0,0,4.873-2.3c.382-.279.477-.49.108-.9a4.783,4.783,0,0,0-1.517-.944,28.753,28.753,0,0,0-6.482-2.2c-2.968-.72-5.972-1.274-8.993-1.719a16.107,16.107,0,0,1-2.116-.476,1.761,1.761,0,0,1-.717-2.791,2.548,2.548,0,0,1,2.678-.541c.825.162,1.662.295,2.486.39,1.94.226,3.811.752,5.72,1.1a23.755,23.755,0,0,1,3.209.718,42.831,42.831,0,0,1,5.29,1.919,13.963,13.963,0,0,1,3.048,1.9,3.922,3.922,0,0,1,1.521,2.957,4.063,4.063,0,0,1-1.552,3.184,15.684,15.684,0,0,1-4.4,2.472,46.969,46.969,0,0,1-8.454,2.409,40.412,40.412,0,0,1-5.829.94" transform="translate(-102.811 -68.851)" fill="#040405"/>
        <path id="Path_827963" data-name="Path 827963" d="M11.987,141.913a4.549,4.549,0,0,1,1.966-3.732,10.086,10.086,0,0,1,2.608-1.591,2.76,2.76,0,0,1,2.468-.2,1.792,1.792,0,0,1,.3,2.9,3.832,3.832,0,0,1-1.086.647,14.228,14.228,0,0,0-2.036,1.249c-.55.325-.518.551-.006.95a17.754,17.754,0,0,0,4.467,2.166c.916.37,1.885.568,2.825.862a1.69,1.69,0,0,1,1.333,1.48,1.728,1.728,0,0,1-.936,1.875,1.785,1.785,0,0,1-1.291.139,32.272,32.272,0,0,1-3.73-1.06,18.369,18.369,0,0,1-5.027-2.605,4.724,4.724,0,0,1-1.852-3.078" transform="translate(-6.445 -73.215)" fill="#040405"/>
        <path id="Path_827964" data-name="Path 827964" d="M157.849,162.432c.872-.075,2.358-.043,3.813-.223a30.669,30.669,0,0,1,3.464-.189,1.737,1.737,0,0,1,1.584,1.919,1.948,1.948,0,0,1-1.854,1.644c-1.366.122-2.73.264-4.1.379-1.879.157-3.768.155-5.639.361a2.978,2.978,0,0,1-2.563-.564,1.562,1.562,0,0,1-.552-1.631,1.717,1.717,0,0,1,1.475-1.389c1.25-.147,2.513-.184,4.368-.307" transform="translate(-81.704 -87.117)" fill="#040405"/>
        <path id="Path_827965" data-name="Path 827965" d="M46.992,130.672a1.736,1.736,0,0,1-1.306,1.79c-1.319.378-2.677.548-4.019.8-1.116.209-2.234.416-3.34.674a1.887,1.887,0,0,1-1.958-.86,1.522,1.522,0,0,1-.232-1.568,1.669,1.669,0,0,1,1.388-1.2c1.392-.287,2.785-.575,4.183-.83a19.851,19.851,0,0,1,3.622-.468,1.51,1.51,0,0,1,1.662,1.659" transform="translate(-19.37 -69.37)" fill="#040405"/>
        <path id="Path_827966" data-name="Path 827966" d="M9.1,150.447a10.039,10.039,0,0,1,2.692-4.753c3.328-3.386,6.7-6.727,10.058-10.086q3-3,5.994-6c.149-.148.314-.281.472-.42l1.084,1.041c-.668,1.531-.6,1.821.546,3.035q2.908,3.092,6.01,5.989a5.709,5.709,0,0,0,4.293,1.8,6.843,6.843,0,0,0,4.624-2.473c3.486-3.7,7.133-7.238,10.723-10.834q12.69-12.711,25.4-25.4a5.739,5.739,0,0,0,1.127-6.925A6.362,6.362,0,0,0,80.8,93.84a1.56,1.56,0,0,1-.437-.5c.448-.243.907-.018,1.319.036,1.708.226,3.434.236,5.14.525,1.429.242,2.906.162,4.345.4.721.119,1.514-.009,2.1.624.432.465.462.569,0,1.033q-2.523,2.531-5.051,5.056-9.774,9.774-19.556,19.541c-1.4,1.389-2.831,2.742-4.218,4.143a.764.764,0,0,0-.6.157c-.514.329-.961.748-1.447,1.115-.76.574-1.453,1.242-2.175,1.866-2.174,1.878-4.437,3.653-6.614,5.528-2.678,2.307-5.467,4.477-8.158,6.77-1.525,1.3-3.145,2.494-4.721,3.737a47.654,47.654,0,0,1-6.734,4.2,1.4,1.4,0,0,1-.447.074c-.167-.159-.344-.308-.5-.477a4.586,4.586,0,0,0-5.214-.829,4.88,4.88,0,0,0-2.631,4.068,22.687,22.687,0,0,1-4.131.467c-.1-.142-.2-.281-.293-.428a5.84,5.84,0,0,0-4.251-2.758,2.142,2.142,0,0,0-2.082.93,1.432,1.432,0,0,0,.016,1.789,2.321,2.321,0,0,0,1.7.947,1.9,1.9,0,0,1,1.6,2.055,1.942,1.942,0,0,1-1.774,1.617,1.842,1.842,0,0,1-1.737-1.429,2.906,2.906,0,0,0-1.53-2.272.878.878,0,0,1,.129-.252c.369-.35.2-.547-.2-.586a35.752,35.752,0,0,0-3.553-.541m13.362-6.01a2.838,2.838,0,0,0,2.765-2.763,2.874,2.874,0,0,0-2.766-2.772,2.913,2.913,0,0,0-2.771,2.839,2.852,2.852,0,0,0,2.772,2.7m10.075-3.7a1.855,1.855,0,0,0-1.664-1.81,2.1,2.1,0,0,0-1.945,1.847,2.13,2.13,0,0,0,1.8,1.812,1.841,1.841,0,0,0,1.815-1.848M88,98.239A1.855,1.855,0,0,0,86.358,96.4a2.086,2.086,0,0,0-1.963,1.833c.029.808,1.012,1.873,1.776,1.826A1.776,1.776,0,0,0,88,98.239" transform="translate(-4.891 -50.13)" fill="#db001c"/>
        <path id="Path_827967" data-name="Path 827967" d="M51.747,131.062l-1.084-1.041a19.963,19.963,0,0,1,2.574-2.659c.414-.365.677-.874,1.168-1.153,1.213,1.226,2.407,2.47,3.649,3.666a3.241,3.241,0,0,0,1.553.836,3.914,3.914,0,0,0,3.769-1.2c2.167-2.129,4.306-4.287,6.456-6.433a1.1,1.1,0,0,0,.4-.681c1.1.97,1.876.82,2.7,0A1.815,1.815,0,0,0,73,120.084c-.01-.273.212-.4.369-.556q3.571-3.572,7.151-7.134c.4-.394.845-.739,1.269-1.107.1.038.21.074.313.115a5.64,5.64,0,0,0,2.876.57A5.884,5.884,0,0,0,90,107.521c.357-1.117.75-2.223,1.085-3.349a14.815,14.815,0,0,0,.779-3.283.511.511,0,0,0,.647-.388,1.4,1.4,0,0,1,.387-.488q2.192-2.2,4.391-4.4a3.059,3.059,0,0,0,.675-.84,22.341,22.341,0,0,1,3.191,3.334c.572.673.406,1.517-.309,2.292-.888.961-1.783,1.916-2.705,2.844-2.644,2.662-5.265,5.35-7.966,7.955-5.649,5.449-11.158,11.038-16.669,16.624C71.9,129.455,70.2,131,68.649,132.7c-1.471,1.62-3.051,3.145-4.633,4.66a2.069,2.069,0,0,1-3.227.029c-1.965-1.916-3.929-3.834-5.847-5.8-1.39-1.422-1.746-1.354-3.194-.531" transform="translate(-27.241 -50.958)" fill="#c2c0c0"/>
        <path id="Path_827968" data-name="Path 827968" d="M8.5,187.028a35.767,35.767,0,0,1,3.553.541c.4.039.569.236.2.586a.851.851,0,0,0-.129.252c-1.449.07-2.407.968-2.264,2.18a5.558,5.558,0,0,0,1.912,3.878,5.311,5.311,0,0,0,5.4,1.023,5.528,5.528,0,0,0,3.662-4.31,6.886,6.886,0,0,0-.352-3.222,22.687,22.687,0,0,0,4.131-.468c.216,2.809,2.008,4.489,4.415,4.6a4.334,4.334,0,0,0,4.293-2.468,4.55,4.55,0,0,0-.363-4.9,1.41,1.41,0,0,0,.447-.074,47.637,47.637,0,0,0,6.734-4.2c1.576-1.243,3.2-2.437,4.721-3.737,2.69-2.292,5.48-4.463,8.158-6.769,2.177-1.875,4.44-3.65,6.614-5.529.722-.624,1.414-1.292,2.174-1.866.486-.367.933-.785,1.447-1.115a.768.768,0,0,1,.6-.157,1.469,1.469,0,0,1-.426.537c-1.9,1.913-3.767,3.856-5.712,5.72-.929.89-1.9,1.748-2.766,2.691-1.291,1.4-2.719,2.656-4.041,4.021-7.63,7.88-15.486,15.535-23.217,23.315a12.006,12.006,0,0,1-5.622,3.453,11.144,11.144,0,0,1-12.247-4.8,10.918,10.918,0,0,1-1.453-8.936,1.046,1.046,0,0,1,.139-.245" transform="translate(-4.291 -86.711)" fill="#9d0315"/>
        <path id="Path_827969" data-name="Path 827969" d="M100.7,104.331c-.424.368-.871.713-1.269,1.108q-3.585,3.556-7.15,7.133c-.158.158-.379.283-.369.556-1.93-1.93-3.849-3.872-5.8-5.782-.385-.377-.389-.583.008-.946.753-.687,1.464-1.422,2.164-2.163.285-.3.442-.344.761-.009,1.153,1.213,2.348,2.387,3.53,3.572a5.9,5.9,0,0,0,.561.5,1.7,1.7,0,0,0,2.321-.126,1.749,1.749,0,0,0,.225-2.311,16.275,16.275,0,0,0-1.838-1.912c-.744-.754-1.49-1.505-2.262-2.229-.318-.3-.3-.476.006-.78,2.612-2.56,5.252-5.092,7.794-7.72,3.291-3.4,6.7-6.689,9.989-10.091.346-.358.722-.689,1.051-1.061.286-.324.477-.293.79,0,1.317,1.226,2.349,2.718,3.691,3.915.67.6,1.347,1.188,1.97,1.836a3.053,3.053,0,0,1-.675.84q-2.2,2.2-4.391,4.4a1.4,1.4,0,0,0-.387.488.511.511,0,0,1-.648.388,1.645,1.645,0,0,0-1.819-1.733,7.218,7.218,0,0,0-1.861.349,29.559,29.559,0,0,0-6.083,2.09,5.211,5.211,0,0,0-3.054,4.952,5.421,5.421,0,0,0,2.276,4.328c.163.128.373.207.47.412" transform="translate(-46.146 -44.002)" fill="#f6f8fa"/>
        <path id="Path_827970" data-name="Path 827970" d="M225.411,37.541c0,2.443,0,4.886,0,7.329a1.041,1.041,0,0,1-.308.784c-.633.587-1.15,1.281-1.764,1.89q-6.413,6.362-12.79,12.761a4.043,4.043,0,0,1-.468.427.521.521,0,0,1-.766-.064q-1.538-1.565-3.1-3.1c-.281-.277-.239-.495,0-.791.808-1.01,1.79-1.851,2.668-2.792,1.128-1.208,2.392-2.29,3.514-3.5,1.4-1.518,2.947-2.894,4.371-4.391,1.153-1.211,2.3-2.434,3.521-3.571,1.335-1.239,2.589-2.552,3.855-3.858.38-.392.821-.729,1.275-1.117" transform="translate(-110.772 -20.186)" fill="#1e4290"/>
        <path id="Path_827971" data-name="Path 827971" d="M187.414,8c1.116,0,2.232,0,3.349,0,.127,0,.3-.059.368.084.091.183-.094.271-.2.37-6.356,6.078-12.456,12.413-18.713,18.59-.47.463-.626.463-1.1,0-.971-.961-1.928-1.937-2.9-2.893a.583.583,0,0,1,.011-.978c.675-.629,1.355-1.252,2.008-1.9q6.353-6.335,12.692-12.684a1.778,1.778,0,0,1,1.423-.6c1.018.043,2.04.012,3.06.012" transform="translate(-90.311 -4.296)" fill="#1e4290"/>
        <path id="Path_827972" data-name="Path 827972" d="M202.325,11.581c.074.06.169.123.249.2.808.788,1.62,1.571,2.417,2.37a.58.58,0,0,1-.063.914C202.306,17.5,199.84,20.1,197.3,22.62q-5.9,5.858-11.769,11.749c-.689.689-.819.691-1.49.02q-.859-.857-1.715-1.715c-.546-.549-.547-.668.007-1.223q5.877-5.882,11.758-11.761,3.879-3.879,7.756-7.759c.132-.132.238-.307.477-.351" transform="translate(-97.816 -6.227)" fill="#1e4290"/>
        <path id="Path_827973" data-name="Path 827973" d="M196.66,47c-.219-.024-.3-.166-.409-.271q-.983-.978-1.957-1.963c-.511-.514-.528-.672.014-1.175,3.108-2.878,6.021-5.953,9.029-8.93q4.372-4.326,8.7-8.7c.61-.613,1.2-1.251,1.773-1.894.341-.38.616-.346.956.01.677.711,1.367,1.41,2.084,2.081.373.349.354.578,0,.934q-8.776,8.742-17.534,17.5a21.036,21.036,0,0,1-2.3,2.183c-.121.089-.255.161-.353.222" transform="translate(-104.262 -12.797)" fill="#1e4290"/>
        <path id="Path_827974" data-name="Path 827974" d="M74.58,147.633a1.1,1.1,0,0,1-.4.681c-2.15,2.146-4.289,4.3-6.456,6.433a3.913,3.913,0,0,1-3.769,1.2,3.236,3.236,0,0,1-1.553-.835c-1.242-1.2-2.436-2.441-3.649-3.666,1.315-1.326,2.638-2.643,3.938-3.983.288-.3.436-.215.681.039,1.028,1.067,2.079,2.112,3.116,3.17.3.3.64.546.936.853a1.634,1.634,0,0,0,2.316-.014,1.707,1.707,0,0,0,.335-2.292,5.159,5.159,0,0,0-.671-.788c-1.144-1.143-2.288-2.286-3.454-3.406-.33-.317-.325-.511.008-.825.8-.752,1.565-1.538,2.33-2.325.208-.214.333-.237.551-.008,1.871,1.963,3.693,3.975,5.738,5.766" transform="translate(-31.593 -76.194)" fill="#f6f8fa"/>
        <path id="Path_827975" data-name="Path 827975" d="M161.408,74.454c-1.3-.155-2.592-.323-3.888-.459-.986-.1-1.977-.152-2.963-.252-1.557-.157-3.112-.335-4.667-.51a1.2,1.2,0,0,1-.7-.372c-1.051-1.019-2.1-2.038-3.169-3.039-.3-.282-.277-.472,0-.752q2.509-2.5,4.99-5.022c.252-.257.408-.284.71-.034.388.322.687.715,1.041,1.061,2.1,2.059,4.23,4.089,6.3,6.174.932.937,1.827,1.911,2.784,2.824.093.089.266.2.185.323-.168.245-.424-.035-.631.058" transform="translate(-78.398 -34.327)" fill="#c2c0c0"/>
        <path id="Path_827976" data-name="Path 827976" d="M159.827,47.878a.9.9,0,0,1,.509.348c2.365,2.61,4.9,5.055,7.387,7.545q6.507,6.516,13.031,13.015c.331.33.414.516-.037.833a7.3,7.3,0,0,0-1.043,1.065c-.4.435-.683.482-1.031.035a64.633,64.633,0,0,0-5.079-5.253c-2.838-2.9-5.727-5.748-8.6-8.611q-3.2-3.192-6.428-6.363c-.74-.725-.76-.7-.015-1.446.3-.3.584-.609.867-.922a.647.647,0,0,1,.439-.246" transform="translate(-84.94 -25.744)" fill="#db001c"/>
        <path id="Path_827977" data-name="Path 827977" d="M22.639,215.268a6.888,6.888,0,0,1,.352,3.222,5.528,5.528,0,0,1-3.662,4.31,5.312,5.312,0,0,1-5.4-1.023,5.56,5.56,0,0,1-1.912-3.878c-.142-1.212.815-2.11,2.264-2.18a2.9,2.9,0,0,1,1.529,2.272,1.842,1.842,0,0,0,1.737,1.429,1.944,1.944,0,0,0,1.775-1.617,1.9,1.9,0,0,0-1.6-2.056,2.319,2.319,0,0,1-1.7-.947,1.431,1.431,0,0,1-.016-1.788,2.143,2.143,0,0,1,2.083-.93,5.84,5.84,0,0,1,4.251,2.758c.092.146.2.285.293.428" transform="translate(-6.456 -114.023)" fill="#040405"/>
        <path id="Path_827978" data-name="Path 827978" d="M52.286,209.952a4.55,4.55,0,0,1,.363,4.9,4.334,4.334,0,0,1-4.292,2.468c-2.408-.115-4.2-1.8-4.416-4.6a4.881,4.881,0,0,1,2.631-4.068,4.585,4.585,0,0,1,5.213.829c.156.169.333.319.5.477m-2.8,2.791a1.018,1.018,0,0,0-.834-.9.985.985,0,0,0-.972.876,1.036,1.036,0,0,0,.9.9.956.956,0,0,0,.9-.876" transform="translate(-23.627 -111.936)" fill="#040405"/>
        <path id="Path_827979" data-name="Path 827979" d="M34.775,197.556a2.852,2.852,0,0,1-2.772-2.7,2.913,2.913,0,0,1,2.771-2.839,2.874,2.874,0,0,1,2.766,2.772,2.838,2.838,0,0,1-2.765,2.764" transform="translate(-17.208 -103.248)" fill="#040405"/>
        <path id="Path_827980" data-name="Path 827980" d="M55.594,193.883a1.842,1.842,0,0,1-1.815,1.848,2.13,2.13,0,0,1-1.8-1.812,2.1,2.1,0,0,1,1.945-1.846,1.855,1.855,0,0,1,1.664,1.81" transform="translate(-27.951 -103.277)" fill="#040405"/>
        <path id="Path_827981" data-name="Path 827981" d="M175.578,101.926a1.776,1.776,0,0,1-1.829,1.821c-.764.047-1.747-1.018-1.776-1.826a2.086,2.086,0,0,1,1.963-1.833,1.855,1.855,0,0,1,1.642,1.838" transform="translate(-92.468 -53.817)" fill="#040405"/>
        <path id="Path_827982" data-name="Path 827982" d="M114.808,116.385c-.1-.205-.307-.284-.47-.412a5.421,5.421,0,0,1-2.276-4.328,5.211,5.211,0,0,1,3.054-4.952,29.548,29.548,0,0,1,6.083-2.09,7.218,7.218,0,0,1,1.861-.35,1.646,1.646,0,0,1,1.819,1.734,14.815,14.815,0,0,1-.779,3.283c-.335,1.126-.728,2.232-1.085,3.349A5.884,5.884,0,0,1,118,117.07a5.643,5.643,0,0,1-2.876-.57c-.1-.041-.208-.077-.313-.115m5.311-7.724c-.037.01-.13.034-.221.061a16.8,16.8,0,0,0-3.2,1.3,1.688,1.688,0,0,0-.953,1.652,1.953,1.953,0,0,0,1.422,1.651,1.709,1.709,0,0,0,1.735-.64,15.272,15.272,0,0,0,1.54-3.711c.073-.207-.023-.336-.319-.313" transform="translate(-60.255 -56.056)" fill="#040405"/>
        <path id="Path_827983" data-name="Path 827983" d="M53.836,217.009a.956.956,0,0,1-.9.876,1.036,1.036,0,0,1-.9-.9.985.985,0,0,1,.972-.876,1.018,1.018,0,0,1,.834.9" transform="translate(-27.976 -116.202)" fill="#db001c"/>
        <path id="Path_827984" data-name="Path 827984" d="M124.394,113.785c.3-.023.392.106.319.313a15.273,15.273,0,0,1-1.54,3.711,1.709,1.709,0,0,1-1.735.64,1.953,1.953,0,0,1-1.422-1.651,1.688,1.688,0,0,1,.953-1.652,16.8,16.8,0,0,1,3.2-1.3c.092-.027.184-.051.221-.061" transform="translate(-64.531 -61.18)" fill="#db001c"/>
      </g>
    </g>
  </g>
</svg>
