<svg xmlns="http://www.w3.org/2000/svg" xmlns:xlink="http://www.w3.org/1999/xlink" width="169" height="169" viewBox="0 0 169 169">
  <defs>
    <clipPath id="clip-path">
      <rect id="Rectangle_378725" data-name="Rectangle 378725" width="122.156" height="122" fill="none"/>
    </clipPath>
  </defs>
  <g id="Group_1075372" data-name="Group 1075372" transform="translate(-385.5 -2057.999)">
    <g id="Group_159182" data-name="Group 159182" transform="translate(385.5 2057.999)">
      <path id="Union_12" data-name="Union 12" d="M84.5,0A84.5,84.5,0,1,1,0,84.5,84.5,84.5,0,0,1,84.5,0Z" transform="translate(0 0)" fill="#ffae7e"/>
    </g>
    <g id="Group_1075380" data-name="Group 1075380" transform="translate(408.922 2081.499)">
      <g id="Group_1075379" data-name="Group 1075379" clip-path="url(#clip-path)">
        <path id="Path_828016" data-name="Path 828016" d="M71,78.449l-2.647-1.762c-.189.159-.1.347-.1.506,0,1.274-.155,2.538-.251,3.8,0,.042-.074.078-.113.118-.084-.019-.117.014-.1.1a3.4,3.4,0,0,1-.146,1.777,32.038,32.038,0,0,1-1.07,3.93c-.063.02-.123.042-.085.129l-.268.836c-.159.027-.118.137-.1.238-.141.312-.294.618-.422.936a24.966,24.966,0,0,1-4.38,6.9,26.165,26.165,0,0,1-4.994,4.35c-.089-.039-.11.028-.136.088l-.223.159c-.087-.049-.1.017-.123.075l-.234.161c-.087-.048-.1.018-.125.076l-.83.524c-.087-.054-.1.016-.122.073l-.234.159c-.092-.048-.11.025-.137.084l-.7.4c-.09-.062-.1.014-.127.071a28.286,28.286,0,0,1-8.1,2.748,38.24,38.24,0,0,1-6.248.421c-2.5,0-5.005.013-7.507-.016-.5-.006-.487.225-.486.581,0,2.877.015,5.755-.015,8.633a7.317,7.317,0,0,1-9.347,7.122,6.7,6.7,0,0,1-4.668-4.971,11.594,11.594,0,0,1-.29-2.866c-.014-2.7-.017-5.4-.024-8.1l.025-.026-.016-.032c0-.054,0-.109,0-.163.084-.025.073-.092.043-.14-.043-.069-.105-.126-.184-.032l-.229.008c-.055-.078-.106-.067-.152.01q-4.734-.036-9.468-.07a6.935,6.935,0,0,1-6.36-5.349,6.517,6.517,0,0,1,.118-4.11A7.555,7.555,0,0,1,2,93.3c1.628-1.82,3.735-2.274,6.038-2.27,2.719,0,5.439-.019,8.159-.01.427,0,.529-.139.522-.553q-.086-4.967,0-9.935a.284.284,0,0,0,.013-.3,15.222,15.222,0,0,1,.414-3.918,28.27,28.27,0,0,1,.876-3.5,22.654,22.654,0,0,1,2.552-5.463,35.694,35.694,0,0,1,2.877-3.944,28.792,28.792,0,0,1,6.136-5.34,29.479,29.479,0,0,1,7.511-3.257,22.558,22.558,0,0,1,4.794-.873c3.8-.27,7.606-.064,11.409-.106.542-.006.708-.136.666-.674-.054-.69-.024-1.387-.031-2.081.025-.085-.028-.112-.1-.128a9.383,9.383,0,0,0-1.907-1.193.429.429,0,0,0-.359-.235,9.519,9.519,0,0,0-1.421-.949,1.724,1.724,0,0,0-.609-.443,6.422,6.422,0,0,0-1.187-.756.29.29,0,0,0-.243-.2c-1.171-.729-2.37-1.419-3.506-2.2-1.181-.811-2.389-1.578-3.584-2.367-1.439-.949-2.872-1.907-4.311-2.856q-3.523-2.323-7.05-4.638-4.884-3.207-9.77-6.412c-1.031-.678-2.054-1.367-3.077-2.057-.164-.11-.3-.266-.53-.189-.081-.026-.105.009-.091.085-.144.248-.444.3-.624.5-.089-.032-.112.032-.138.094l-.221.153c-.088-.046-.107.019-.128.079l-.469.285c-.09-.053-.105.021-.13.078A8.974,8.974,0,0,1,9,29.037,8.833,8.833,0,0,1,6.438,28.4a9.912,9.912,0,0,1-5.8-5.782,10.624,10.624,0,0,1-.551-2.467,8.127,8.127,0,0,1,.271-3.49,9.665,9.665,0,0,1,2.2-3.956,10.024,10.024,0,0,1,6.1-3.1c.865-.128,1.7.281,2.533-.071,1.717.512,3.477.931,4.816,2.25.023.023.075.017.114.024l.634.608A12.54,12.54,0,0,1,19,16.047a9.046,9.046,0,0,1,.116,6.118c-.108.318.01.365.193.485,2.982,1.97,5.928,4,8.95,5.9,5.455,3.44,10.768,7.1,16.177,10.605q3.437,2.23,6.885,4.44a.68.68,0,0,0,.348.259,8.314,8.314,0,0,0,1.4.931,3.446,3.446,0,0,0,.316.252c.143.09.278.274.463.192.2-.091.066-.309.1-.467a.88.88,0,0,0-.016-.233c.009-1.091-.028-2.185.035-3.273a26.152,26.152,0,0,1,.9-5.218c.261-.977.6-1.926.948-2.877a25.54,25.54,0,0,1,3.613-6.317,18.257,18.257,0,0,1,2.507-2.961,33.885,33.885,0,0,1,5.2-3.863,25.077,25.077,0,0,1,7.532-2.853,29.031,29.031,0,0,1,6.207-.589q5,.011,10.007.034c.357,0,.246-.234.248-.394.011-.754.005-1.508,0-2.262,0-2.242-.023-4.485,0-6.727A7.3,7.3,0,0,1,93.8,1.582,6.45,6.45,0,0,1,97.745.02a6.726,6.726,0,0,1,3.067.389,6.873,6.873,0,0,1,4.072,4.024,11.022,11.022,0,0,1,.613,3.53c0,2.7.015,5.4-.009,8.1,0,.473.134.53.57.528,3-.013,6-.031,9,.037a6.748,6.748,0,0,1,6.024,3.539A7.041,7.041,0,0,1,122,24.329a7.2,7.2,0,0,1-1.631,3.95,7.676,7.676,0,0,1-4.217,2.527,7.907,7.907,0,0,1-2.133.078c-2.641.008-5.282,0-7.922.015-.253,0-.665-.134-.6.4-.075.055-.072.108.006.157-.011,2.24-.028,4.481-.032,6.721a2.519,2.519,0,0,1-2.382,2.859c-.312-.24-.712-.076-1.064-.287a2.923,2.923,0,0,1-1.283-2.867q.011-14.554,0-29.109l.02-.023-.018-.025q0-.215.008-.429V8.245l-.01-1.144.021-.035-.029-.029a2.43,2.43,0,0,0-2.491-2.277,2.322,2.322,0,0,0-2.242,2.09,1.428,1.428,0,0,0-.082.755q0,15.494.011,30.988c0,.712.006,1.425.009,2.137a15.428,15.428,0,0,1-.658,4.634A18.337,18.337,0,0,1,77.757,58.582q-4.47.034-8.939-.008c-.483,0-.586.14-.576.592.03,1.25.014,2.5.008,3.751,0,.261,0,.447.36.44,3.648-.079,7.3.136,10.945-.118a23.612,23.612,0,0,0,5.2-.926,21.772,21.772,0,0,0,8.8-5.148c1.462-1.387,2.066-1.492,3.684-.7l.322.355c1.022,1.7.434,2.732-1,3.975a34.244,34.244,0,0,1-6.1,4.249,27.221,27.221,0,0,1-3.812,1.584,25.6,25.6,0,0,1-4.185,1.093,22.181,22.181,0,0,1-4.129.4c-3.177-.037-6.354,0-9.531-.022-.427,0-.614.072-.555.539a3.528,3.528,0,0,1,0,1.068,1.915,1.915,0,0,0,1.211,2.169c1.222.667,2.371,1.45,3.529,2.217,2.435,1.612,4.846,3.261,7.3,4.841,1.1.711,2.283,1.325,3.347,2.076,1.515,1.069,3.1,2.036,4.588,3.145,1.243.926,2.6,1.692,3.908,2.538,1.14.74,2.3,1.453,3.441,2.186,1.506.964,2.982,1.974,4.489,2.936,1.658,1.058,3.286,2.163,4.924,3.252a2.837,2.837,0,0,1,.341.317c.032.152.14.117.241.1.514.113.7-.379,1-.6a11,11,0,0,1,4.876-1.9,9.153,9.153,0,0,1,6.059,1.433,10.376,10.376,0,0,1,3.071,3.161,17.569,17.569,0,0,1,1.222,2.9,6.929,6.929,0,0,1,.257,3.454,6,6,0,0,1-1.127,3.059c-.3.355-.433.93-.732,1.382a10.555,10.555,0,0,1-2.6,2.491,1.792,1.792,0,0,0-.715.357l-.234.155-.717.327-1.071.39c-.094-.014-.2-.066-.244.078l-2.973.271h-.12c-.3-.287-.7-.129-1.054-.217-.572-.145-1.117-.363-1.682-.52a1.351,1.351,0,0,0-.574-.248.947.947,0,0,0-.5-.248,10.751,10.751,0,0,1-3.8-3.6,15.869,15.869,0,0,1-1.3-3.593,3.61,3.61,0,0,1-.046-.765c0-.119,0-.238,0-.357a13.224,13.224,0,0,1,.28-2.558,1.484,1.484,0,0,0,.2-.658c.105-.463-.325-.442-.549-.608a3.532,3.532,0,0,0-.867-.553l-1.774-1.139a.616.616,0,0,0-.359-.232c-1.092-.755-2.2-1.488-3.338-2.171-.243-.146-.462-.332-.692-.5l-.27-.162q-2.174-1.426-4.347-2.851c-1.126-.733-2.259-1.456-3.389-2.184a.522.522,0,0,0-.34-.215,4.157,4.157,0,0,0-1.171-.737l-.01-.011a6.138,6.138,0,0,0-1.343-.91.585.585,0,0,0-.366-.238q-2.319-1.512-4.637-3.026c-.873-.572-1.734-1.162-2.607-1.734-.626-.411-1.263-.806-1.9-1.207a.653.653,0,0,0-.385-.252l-2.132-1.41A7.952,7.952,0,0,0,71,78.449M91.133,21.421c-.077-.162-.208-.128-.34-.093q-4.407.005-8.813.008a30.511,30.511,0,0,0-5.725.355A21.49,21.49,0,0,0,58.731,42.277c-.193,12.583.276,25.17-.232,37.752a15.669,15.669,0,0,1-.7,3.5,13.15,13.15,0,0,1-.972,2.221,14.953,14.953,0,0,1-1.715,2.784,18.117,18.117,0,0,1-3.721,3.7,22.33,22.33,0,0,1-3.263,1.936,19.541,19.541,0,0,1-8.488,1.691c-2.721-.021-5.441-.016-8.162-.026-.224,0-.452-.037-.494.276-.009.011-.027.023-.025.031a.385.385,0,0,0,.03.069l.006,3.97a.221.221,0,0,0,.053.3c.095.14.237.108.372.107l.132-.01,2.261.01a.384.384,0,0,0,.352,0c2.471-.019,4.943.063,7.413-.048l.038.033.036-.038a21.966,21.966,0,0,0,5.674-.961,22.468,22.468,0,0,0,12.042-8.839,28.863,28.863,0,0,0,1.817-3.166A20.348,20.348,0,0,0,63.465,78c.049-11.269.016-22.539.024-33.808a26.364,26.364,0,0,1,.1-3.135A15.359,15.359,0,0,1,64.659,36.7C67.64,29.865,72.9,26.331,80.34,26.1c3.233-.1,6.473-.023,9.709-.014,1.183,0,1.183.02,1.167-1.212a.383.383,0,0,0,0-.351l-.01-.951v-.243c0-.118,0-.235,0-.352a3.032,3.032,0,0,0-.056-1.545Zm-6.056,9.487c-.069-.084-.122-.094-.148.031.011.054,0,.127.034.16.832.848,1.662,1.7,2.5,2.535,1.185,1.18,2.379,2.351,3.569,3.525l.157-.053q0-2.926,0-5.852c0-.453-.332-.364-.589-.364-1.843,0-3.686.011-5.53.018M31.56,91.04h6.02l.108-.206q-3.2-3.138-6.4-6.274c-.066-.065-.137-.165-.249-.122-.151.058-.088.2-.086.307.012.613.05,1.226.052,1.838,0,1.327-.006,2.655-.019,3.983,0,.3.048.517.415.478.054.077.107.077.158,0M105.678,21.4c-.047-.047-.079-.032-.1.023-.134.055-.11.168-.1.275a.131.131,0,0,0,.032.192c0,1.2-.006,2.409,0,3.613,0,.219-.119.489.19.619.017.06.044.067.082.016,3.035-.112,6.072-.024,9.107-.06a2.322,2.322,0,0,0,2.364-1.911c.1-1.64-.647-2.594-2.156-2.765a.286.286,0,0,0-.359-.028q-4.357-.082-8.713.008c-.035-.057-.067-.051-.1,0l-.248.014M16.687,96.312c.106-.141.132-.276-.032-.4a1.08,1.08,0,0,0-.638-.087q-3.391.006-6.782.022c-.754,0-1.508-.02-2.26.021a2.361,2.361,0,0,0-.717,4.516,4.017,4.017,0,0,0,1.523.194l8.507.018a.168.168,0,0,0,.237-.037l.127-.087a.335.335,0,0,0,.022-.419c0-.1-.005-.191-.008-.286a.118.118,0,0,0,0-.191q.006-.437.012-.873c.012-.008.037-.019.036-.022a.77.77,0,0,0-.032-.074q0-1.149,0-2.3m36.68-14.854a.637.637,0,0,0-.034-1.013q-.927-.921-1.853-1.844-4.938-4.936-9.873-9.876c-.2-.2-.378-.355-.663-.179l-.463.065-.238.119-1.673.682a5.212,5.212,0,0,0-1.806,1.016l.613.559a8.4,8.4,0,0,0,.721.814c1.4,1.235,2.7,2.583,4.019,3.9q4.421,4.4,8.856,8.791c.727.831.727.831,1.24-.134.045-.086.078-.177.118-.266a7.033,7.033,0,0,0,1.037-2.633M21.454,108.168v3.857q0,.215,0,.43v.046q0,.691,0,1.383v.045a3.955,3.955,0,0,0,.267,1.97,2.49,2.49,0,0,0,2.607,1.247,2.4,2.4,0,0,0,1.868-2.182,1.448,1.448,0,0,0,.075-.757q0-10.328,0-20.655,0-6.486,0-12.973a14.522,14.522,0,0,1,.254-2.284A17.98,17.98,0,0,1,29.9,70.655a18.213,18.213,0,0,1,15.029-7.3c2.8,0,5.6-.012,8.4.011.473,0,.65-.076.63-.6-.045-1.189-.041-2.382,0-3.572.016-.5-.116-.628-.615-.615-3.587.1-7.177-.124-10.765.12a24.079,24.079,0,0,0-2.7.345,22.977,22.977,0,0,0-5.01,1.553,18.684,18.684,0,0,0-4.915,3.013,27.5,27.5,0,0,0-4.472,4.786,23.553,23.553,0,0,0-2.474,4.64,21.738,21.738,0,0,0-1.293,4.791,14.429,14.429,0,0,0-.22,3.194l-.035.016.017.03q-.011,1.166-.021,2.332v24.772M90.846,43.807a1.844,1.844,0,0,0-.613-.824Q84.4,37.16,78.568,31.338a.869.869,0,0,0-.853-.256,11.778,11.778,0,0,0-3.816,1.5c-.305.176-.283.279-.055.506q7.374,7.351,14.728,14.721c.305.306.407.136.554-.1a12.731,12.731,0,0,0,1.43-2.985c.092-.3.19-.6.291-.921M81.379,53.37c.132-.04.263-.083.4-.12a13.061,13.061,0,0,0,3.362-1.607c.354-.219.293-.336.032-.6q-4.179-4.16-8.332-8.346c-2.045-2.054-4.1-4.1-6.119-6.179-.384-.394-.531-.327-.791.093a12.463,12.463,0,0,0-1.421,3.612.757.757,0,0,0,.23.753Q74.814,47.033,80.872,53.1c.137.137.259.316.506.267M48.349,88.606c-.162-.174-.251-.276-.346-.371-4.688-4.674-9.311-9.414-14.079-14.009-.37-.356-.538-.345-.858.054a14.2,14.2,0,0,0-1.61,3.374.5.5,0,0,0,.186.619q.915.847,1.795,1.732,5.173,5.18,10.343,10.362c.1.1.121.28.4.211a11.648,11.648,0,0,0,3.849-1.766c.1-.067.2-.129.317-.205m63.869,9.163c-2.38-.281-4.886,2.115-4.874,4.913a4.926,4.926,0,0,0,5,4.954,4.935,4.935,0,1,0-.125-9.867M4.841,19.383a4.931,4.931,0,0,0,4.9,4.9,4.994,4.994,0,1,0-.054-9.986,4.966,4.966,0,0,0-4.848,5.088m69.91,34.44-6.5-6.566c0,2.128,0,4.218,0,6.308,0,.281.159.259.343.259,2.058,0,4.116,0,6.161,0M53.82,74.356l.129-.077c0-1.941,0-3.883,0-5.825,0-.245-.048-.347-.323-.345-1.887.011-3.774,0-5.662.007-.092,0-.215-.037-.261.078-.054.134.053.23.142.3a31.283,31.283,0,0,1,2.834,2.72c1.074,1.019,2.093,2.1,3.135,3.147" transform="translate(0 -0.001)" fill="#060607"/>
        <path id="Path_828017" data-name="Path 828017" d="M171.818,61.67c-1.618-.8-2.222-.69-3.684.7a21.78,21.78,0,0,1-8.8,5.148,23.65,23.65,0,0,1-5.2.926c-3.646.253-7.3.038-10.946.118-.365.008-.362-.178-.36-.439.007-1.25.023-2.5-.007-3.751-.011-.452.092-.6.576-.593q4.469.037,8.939.008a18.337,18.337,0,0,0,17.529-13.217,15.437,15.437,0,0,0,.658-4.632,1.194,1.194,0,0,0,.063-.635q0-16.624,0-33.247a2.323,2.323,0,0,1,2.242-2.091,2.431,2.431,0,0,1,2.492,2.276l-.025.035.033.029.01,1.144-.037.022.035.023c0,.143-.005.286-.008.429l-.037.023.035.026q0,14.555,0,29.109a2.924,2.924,0,0,0,1.282,2.867c.351.211.752.046,1.064.287a30.233,30.233,0,0,1-.633,5.527.731.731,0,0,0-.248.4,2.4,2.4,0,0,0-2.963,2.6,2.609,2.609,0,0,0,1.421,1.92c-.409.688-.8,1.387-1.229,2.062-.533.84-1.1,1.661-1.647,2.49l-.552.433" transform="translate(-74.575 -5.202)" fill="#21b2df"/>
        <path id="Path_828018" data-name="Path 828018" d="M209.123,102.77a2.609,2.609,0,0,1-1.421-1.92,2.4,2.4,0,0,1,2.963-2.6l.367.159c1.289.916,1.667,2.074,1.066,3.267a2.449,2.449,0,0,1-2.976,1.1" transform="translate(-108.452 -51.288)" fill="#060607"/>
        <path id="Path_828019" data-name="Path 828019" d="M67.665,123.889l-2.26-.01c-.048-.051-.092-.045-.132.01-.135,0-.278.033-.372-.106a.3.3,0,0,0-.054-.3q0-1.985-.005-3.97c.011-.01.032-.023.03-.029a.471.471,0,0,0-.035-.071c.042-.312.27-.277.494-.276,2.721.01,5.441.006,8.162.026a19.543,19.543,0,0,0,8.489-1.691,22.355,22.355,0,0,0,3.263-1.936,18.118,18.118,0,0,0,3.721-3.7,14.951,14.951,0,0,0,1.715-2.784,13.074,13.074,0,0,0,.972-2.221,15.7,15.7,0,0,0,.7-3.5c.507-12.582.039-25.169.232-37.752A21.489,21.489,0,0,1,110.109,45a30.513,30.513,0,0,1,5.725-.355q4.407,0,8.813-.008l.34.093.011.013a8.882,8.882,0,0,0,.057,1.545c0,.117,0,.235,0,.352a.156.156,0,0,0,0,.244q.005.476.01.951a.272.272,0,0,0,0,.351c.015,1.232.015,1.216-1.168,1.212-3.236-.009-6.475-.085-9.709.014-7.438.227-12.7,3.761-15.681,10.6A15.327,15.327,0,0,0,97.44,64.36a26.269,26.269,0,0,0-.1,3.136c-.009,11.269.025,22.538-.024,33.808a20.359,20.359,0,0,1-2.284,9.565,29.019,29.019,0,0,1-1.817,3.166,22.469,22.469,0,0,1-12.042,8.839,21.962,21.962,0,0,1-5.673.961.045.045,0,0,0-.075,0c-2.471.111-4.943.03-7.413.048-.118-.25-.236-.247-.352,0" transform="translate(-33.856 -23.307)" fill="#ffc051"/>
        <path id="Path_828020" data-name="Path 828020" d="M44.89,170.272v-.43l.036-.023-.036-.024v-.43l.036-.023-.036-.024v-.43l.036-.023-.036-.024v-.43l.036-.023-.036-.024v-.43l.036-.023-.036-.024v-.43l.036-.023-.036-.024v-.43l.036-.023-.036-.024v-.43l.036-.023-.036-.024v-.43l.036-.023-.036-.024v-.43l.036-.023-.036-.024v-.43l.036-.023-.036-.024v-.43l.036-.023-.036-.024v-.43l.036-.023-.036-.024v-.43l.036-.023-.036-.024v-.43l.036-.023-.036-.024v-.43l.036-.023-.036-.024v-.43l.036-.023-.036-.024v-.43l.036-.023-.036-.024v-.43l.036-.023-.036-.024v-.43l.036-.023-.036-.024v-.43l.036-.023-.036-.024v-.43l.036-.023-.036-.024v-.43l.036-.023-.036-.024v-.43l.036-.023-.036-.024v-.43l.036-.023-.036-.024v-.43l.036-.023-.036-.024v-.43l.036-.023-.036-.024v-.43l.036-.023-.036-.024v-.43l.036-.023-.036-.024v-.43l.036-.023-.036-.024v-.43l.036-.023-.036-.024v-.43l.036-.023-.036-.024v-.43l.036-.023-.036-.024v-.43l.036-.023-.036-.024v-.43l.036-.023-.036-.024v-.43l.036-.023-.036-.024v-.43l.036-.023-.036-.024v-.43l.036-.023-.036-.024v-.43l.036-.023-.036-.024v-.43l.036-.023-.036-.024v-.43l.036-.023-.036-.024v-.43l.036-.023-.036-.024v-.43l.036-.023-.036-.024v-.43l.036-.023-.036-.024v-.43l.036-.023-.036-.024v-.43l.036-.023-.036-.024v-.43l.036-.023-.036-.024v-.43l.036-.023-.036-.024q.011-1.166.021-2.332l.029-.014-.011-.032a14.458,14.458,0,0,1,.22-3.194,21.738,21.738,0,0,1,1.293-4.791,23.547,23.547,0,0,1,2.475-4.64,27.491,27.491,0,0,1,4.471-4.786A18.684,18.684,0,0,1,58.3,124.6a23,23,0,0,1,5.01-1.553,24.079,24.079,0,0,1,2.7-.344c3.588-.244,7.178-.025,10.765-.12.5-.013.631.118.615.615-.04,1.19-.043,2.383,0,3.572.02.523-.157.6-.63.6-2.8-.023-5.6-.015-8.4-.011a18.214,18.214,0,0,0-15.029,7.3,17.98,17.98,0,0,0-3.384,7.641,14.517,14.517,0,0,0-.254,2.283,1.635,1.635,0,0,0-.071.757q0,16.815,0,33.63a2.4,2.4,0,0,1-1.868,2.182,2.49,2.49,0,0,1-2.607-1.247,3.955,3.955,0,0,1-.267-1.969l.037-.022-.036-.024q0-.692,0-1.382l.036-.023-.036-.024q0-.215,0-.43l.036-.023-.036-.024v-.43l.036-.023-.036-.024v-.43l.036-.023-.036-.024v-.43l.036-.023-.036-.024v-.43l.036-.023-.036-.024v-.43l.036-.023-.036-.024v-.43l.036-.023-.036-.024v-.43l.036-.023-.036-.024v-.43l.036-.023-.036-.024v-.43l.036-.023-.036-.024v-.43l.036-.023-.036-.024v-.43l.036-.023-.036-.024v-.43l.036-.023Z" transform="translate(-23.436 -64.011)" fill="#21b2df"/>
        <path id="Path_828021" data-name="Path 828021" d="M229.524,204.587a4.935,4.935,0,1,1,.125,9.867,4.927,4.927,0,0,1-5-4.954c-.011-2.8,2.495-5.194,4.875-4.913" transform="translate(-117.306 -106.819)" fill="#21b2df"/>
        <path id="Path_828022" data-name="Path 828022" d="M10.129,35a4.966,4.966,0,0,1,4.848-5.088A4.994,4.994,0,1,1,15.03,39.9a4.931,4.931,0,0,1-4.9-4.9" transform="translate(-5.287 -15.62)" fill="#ffc051"/>
        <path id="Path_828023" data-name="Path 828023" d="M21.96,203.421q-.006.436-.012.873c0,.063,0,.127,0,.191,0,.1.005.191.008.285-.007.14-.015.28-.022.42l-.127.087a.215.215,0,0,0-.238.037l-8.507-.018a4.007,4.007,0,0,1-1.523-.194,2.361,2.361,0,0,1,.718-4.516c.751-.041,1.507-.018,2.26-.021q3.391-.013,6.782-.021a1.084,1.084,0,0,1,.637.086q.016.2.032.4,0,1.15,0,2.3a.06.06,0,0,0,0,.1" transform="translate(-5.282 -104.715)" fill="#ffc051"/>
        <path id="Path_828024" data-name="Path 828024" d="M221.28,44.686q4.356-.084,8.713-.008a.383.383,0,0,0,.359.029c1.509.171,2.253,1.124,2.156,2.765a2.323,2.323,0,0,1-2.364,1.912c-3.036.035-6.072-.052-9.106.06a.05.05,0,0,0-.083-.016c-.309-.13-.189-.4-.19-.618-.006-1.2,0-2.409,0-3.613a.119.119,0,0,0-.032-.192c-.011-.108-.034-.22.1-.276l.055.008.047-.031.248-.014.05.023Z" transform="translate(-115.256 -23.31)" fill="#ffc051"/>
      </g>
    </g>
  </g>
</svg>
