<svg xmlns="http://www.w3.org/2000/svg" xmlns:xlink="http://www.w3.org/1999/xlink" width="169" height="169" viewBox="0 0 169 169">
  <defs>
    <clipPath id="clip-path">
      <rect id="Rectangle_378727" data-name="Rectangle 378727" width="127" height="118.621" fill="none"/>
    </clipPath>
  </defs>
  <g id="Group_1075370" data-name="Group 1075370" transform="translate(-384.743 -2057.999)">
    <g id="Group_159182" data-name="Group 159182" transform="translate(384.743 2057.999)">
      <path id="Union_12" data-name="Union 12" d="M84.5,0A84.5,84.5,0,1,1,0,84.5,84.5,84.5,0,0,1,84.5,0Z" transform="translate(0 0)" fill="#ffae7e"/>
    </g>
    <g id="Group_1075384" data-name="Group 1075384" transform="translate(408.743 2087.695)">
      <g id="Group_1075383" data-name="Group 1075383" clip-path="url(#clip-path)">
        <path id="Path_828063" data-name="Path 828063" d="M47.97,96.867a24.167,24.167,0,0,1-1.427,7.844,19.854,19.854,0,0,1-4.429,7.161,22.444,22.444,0,0,1-9.748,5.935,18.49,18.49,0,0,1-4.409.691c-.567.026-1.136.084-1.707.112a19.43,19.43,0,0,1-4.829-.639,19.67,19.67,0,0,1-6.427-2.762,18.554,18.554,0,0,1-3.557-3.034,24.176,24.176,0,0,1-4.814-7.527,17.856,17.856,0,0,1-1.162-4.921,33.27,33.27,0,0,1-.189-3.832q.049-19.725.021-39.45c0-.1,0-.207,0-.31.008-1.171-.007-1.1-1.152-1.331a5.29,5.29,0,0,1-1.612-.877c-.513-.328-.826-.893-1.385-1.2-.123-.067-.143-.474-.277-.71A6.573,6.573,0,0,1,0,48.944,6.251,6.251,0,0,1,3.76,43.407a8.906,8.906,0,0,1,3.6-.484c.892.017.869,0,.88-.856a16.57,16.57,0,0,1,.274-4.177,6.328,6.328,0,0,1,3.706-4.274,5.481,5.481,0,0,1,2.271-.475q4.248-.007,8.5,0a1.977,1.977,0,0,1,2.229,1.848,1.621,1.621,0,0,1-1.465,1.761,21.693,21.693,0,0,1-3.575.084c-2.059.055-4.121-.1-6.177.129a2.771,2.771,0,0,0-2.059,2.029c-.026,1.1.021,2.212-.029,3.316-.024.531.136.636.643.635q10.875-.027,21.751-.012c2.148,0,4.3-.013,6.444.008.44,0,.577-.136.558-.561-.042-.928-.045-1.858-.076-2.786a2.712,2.712,0,0,0-3.171-2.727c-1.88-.016-3.759-.005-5.639-.02a1.863,1.863,0,1,1-.027-3.683c2.211-.034,4.427-.09,6.635,0A6.112,6.112,0,0,1,44.7,37.93a17.053,17.053,0,0,1,.293,4.459c0,.443.109.56.54.546a9.818,9.818,0,0,1,3.559.359,5.549,5.549,0,0,1,3.77,4.036,5.782,5.782,0,0,1-.568,4.924A5.857,5.857,0,0,1,48.55,54.82c-.58.126-.679.374-.662.9.177,5.621.042,11.244.079,16.866,0,.679-.051,1.359-.066,2.039,0,.132-.082.316.07.394.2.1.281-.108.391-.217L55.2,67.958c1.067-1.067,2.171-2.1,3.194-3.208,2.62-2.837,5.438-5.478,8.135-8.238.747-.764.774-.774.182-1.671-1.231-1.863-2.294-3.824-3.411-5.754-2.608-4.5-5.221-9.005-7.8-13.528a6.534,6.534,0,0,1-1.033-3.583,6.3,6.3,0,0,1,.9-2.76c1.058-1.886,2.132-3.762,3.2-5.644,1.762-3.116,3.615-6.18,5.353-9.31,1.41-2.539,2.932-5.016,4.363-7.544.714-1.261,1.442-2.515,2.141-3.785A5.362,5.362,0,0,1,74.139.13,8.842,8.842,0,0,1,75.9.008q14.792,0,29.583,0a6.147,6.147,0,0,1,2.021.15,7.491,7.491,0,0,1,2.077,1.16,10.073,10.073,0,0,1,2.194,3.073c1.049,1.759,2.09,3.521,3.086,5.312,1.127,2.027,2.321,4.017,3.487,6.022.826,1.421,1.661,2.837,2.481,4.262,1.8,3.127,3.6,6.247,5.371,9.391a5.409,5.409,0,0,1,.009,5.633q-3.54,6.309-7.175,12.565c-2.614,4.49-5.169,9.013-7.833,13.474a8.369,8.369,0,0,1-2.874,2.887,3.741,3.741,0,0,1-1.473.332,31.908,31.908,0,0,1-3.779.025c-8.993.007-17.985-.031-26.977.043a6.107,6.107,0,0,1-5.836-3.363c-.283-.5-.564-1.008-.861-1.5-.111-.185-.194-.4-.489-.108C62.4,65.912,55.9,72.479,49.314,78.948a3.883,3.883,0,0,0-1.345,3.709.534.534,0,0,0,0,.805q0,6.668,0,13.335a.074.074,0,1,0,0,.07m-31.493-3.8-.019-19.981a.1.1,0,0,0-.026-.163c-.027-.3-.257-.21-.423-.21-2.19,0-4.38.005-6.57-.014-.4,0-.461.126-.46.5Q9,83.547,8.987,93.9c0,.433.084.558.541.551,2.086-.032,4.173-.049,6.259,0,.578.013.73-.162.672-.672a1.431,1.431,0,0,1,.014-.247c.233-.153.239-.308,0-.465M37.716,65.742a36.322,36.322,0,0,0,5.6-.127c.325-.033.91.113.905-.616-.019-3.157-.005-6.315.006-9.473,0-.409-.157-.511-.557-.508C41.838,55.03,40,55,38.165,55a5.18,5.18,0,0,0-.61.068c-.226-.01-.453-.029-.679-.029q-4.833,0-9.666,0c-5.886,0-11.773.015-17.659,0-.556,0-.627.2-.62.678.024,1.8.008,3.594.008,5.392,0,.778.005.8.788.586a27.686,27.686,0,0,1,7.6-.891c.594.006,1.186.074,1.776.1a24.943,24.943,0,0,1,4.781.675c1.764.439,2.225.919,2.065,2.558a2.206,2.206,0,0,1-3.034,1.088,18.874,18.874,0,0,0-4.754-.692,24.059,24.059,0,0,0-3.64.083,21.039,21.039,0,0,0-5.17,1.036.505.505,0,0,0-.4.614c.036.659.035,1.322.029,1.983-.007.773-.016.768.784.765Q12.8,69,15.841,69A4.274,4.274,0,0,1,19.02,70.2,3.345,3.345,0,0,1,20.2,72.72c-.037,7.334.159,14.669-.092,22a3.534,3.534,0,0,1-3.458,3.409c-2.212.026-4.424.014-6.637.013-1.075,0-1.064-.006-.924,1.04a17.219,17.219,0,0,0,1.752,5.9c3.319,6.228,8.475,9.556,15.564,9.8a14.605,14.605,0,0,0,3.54-.274,17.608,17.608,0,0,0,8.372-4.165,16.8,16.8,0,0,0,5.828-12.335c.115-4.236.037-8.477.043-12.716,0-.248-.011-.5-.011-.744a.274.274,0,0,0-.158-.247c-.167-.088-.175.085-.254.165-.812.817-1.624,1.634-2.454,2.433-1.173,1.131-2.354,2.253-3.475,3.439a31.449,31.449,0,0,1-2.545,2.4,1.33,1.33,0,0,1-1.364.244,1.846,1.846,0,0,1-.678-3.226c3.542-3.5,7.053-7.038,10.588-10.549a1.07,1.07,0,0,0,.372-.806c-.012-2.956-.028-5.913-.028-8.87,0-.346-.133-.455-.436-.38a13.648,13.648,0,0,1-2.928.257,27.694,27.694,0,0,1-8.615-.9,1.793,1.793,0,0,1-1.54-1.91c-.006-.145.012-.291-.113-.4.057-.02.148-.024.167-.063.605-1.277,1.546-1.389,2.911-1.083a14.932,14.932,0,0,0,3.475.6l.25,0,.362,0m62.765-5.175c.071.144.206.112.324.112,1.694,0,3.388-.008,5.083.009a2.259,2.259,0,0,0,2.14-1.394c.6-1.125,1.27-2.209,1.857-3.339.506-.973,1.2-1.831,1.66-2.83s1.036-1.973,1.6-2.918c.482-.813.974-1.647,1.475-2.457,1.493-2.416,2.877-4.9,4.293-7.364.711-1.236,1.322-2.537,2.12-3.713.692-1.019,1.128-2.173,1.851-3.166a2.012,2.012,0,0,0,.223-2.214c-.325-.644-.677-1.275-1.037-1.9q-3.781-6.566-7.571-13.128Q111.3,10.732,108.1,5.2a3.156,3.156,0,0,0-1.638-1.5c-.525-.2-.962.038-1.439.032-1.428-.017-2.857-.091-4.284.011-.227-.007-.454-.02-.681-.02-7.854,0-15.709.034-23.563-.031a3.128,3.128,0,0,0-3.356,1.9c-1.058,2.191-2.479,4.2-3.634,6.353s-2.538,4.184-3.656,6.365c-.672,1.311-1.579,2.488-2.229,3.823-.606,1.245-1.381,2.409-2.076,3.611-1.008,1.744-2.01,3.493-3.02,5.237a1.914,1.914,0,0,0-.158,2.1c.721,1.3,1.474,2.589,2.213,3.882,1.562,2.733,3.149,5.452,4.72,8.18Q69.376,52.22,73.447,59.3a2.46,2.46,0,0,0,2.323,1.394c8-.034,16-.014,24,0,.253,0,.473-.1.714-.123m-73.9-9.21v-.006H46.1a8.122,8.122,0,0,0,1.531-.111,2.263,2.263,0,0,0,.039-4.443,6.272,6.272,0,0,0-1.405-.118q-19.743-.007-39.485,0a6.841,6.841,0,0,0-1.293.1A2.036,2.036,0,0,0,3.745,48.5,2.413,2.413,0,0,0,6.31,51.359H26.579" transform="translate(0 0)" fill="#060607"/>
        <path id="Path_828064" data-name="Path 828064" d="M42.283,70.2a1.943,1.943,0,0,0,2.159,1.839c1.879.014,3.759,0,5.639.02a2.711,2.711,0,0,1,3.171,2.727c.031.928.033,1.858.076,2.786.019.426-.118.565-.558.561-2.148-.021-4.3-.008-6.444-.008q-10.875,0-21.75.012c-.507,0-.667-.1-.643-.635.05-1.1,0-2.211.028-3.315a2.772,2.772,0,0,1,2.06-2.029c2.056-.226,4.118-.074,6.176-.129a21.691,21.691,0,0,0,3.575-.084,1.62,1.62,0,0,0,1.465-1.761c.517.18.985-.249,1.564-.042a5.6,5.6,0,0,0,1.765.043c.572,0,1.145.009,1.718.014" transform="translate(-12.02 -35.205)" fill="#fca22a"/>
        <path id="Path_828065" data-name="Path 828065" d="M96.193,166.879a.534.534,0,0,1,0-.805,1.379,1.379,0,0,1,0,.805" transform="translate(-48.224 -83.417)" fill="#3daa95"/>
        <path id="Path_828066" data-name="Path 828066" d="M96.241,194.526a.074.074,0,1,1,0-.07l.028.036Z" transform="translate(-48.271 -97.66)" fill="#3daa95"/>
        <path id="Path_828067" data-name="Path 828067" d="M159.134,64.293a7.235,7.235,0,0,1-.714.123c-8-.012-16-.032-24,0a2.461,2.461,0,0,1-2.324-1.394q-4.08-7.073-8.146-14.155c-1.571-2.728-3.157-5.447-4.72-8.18-.739-1.293-1.492-2.578-2.213-3.882a1.916,1.916,0,0,1,.158-2.1c1.01-1.743,2.012-3.492,3.021-5.236.7-1.2,1.47-2.366,2.076-3.611.65-1.336,1.556-2.511,2.229-3.823,1.118-2.18,2.5-4.208,3.655-6.365s2.577-4.162,3.634-6.353a3.13,3.13,0,0,1,3.356-1.9c7.853.066,15.708.03,23.562.031.227,0,.454.013.681.02a30.335,30.335,0,0,0,1.593,2.785q2.486,4.349,4.994,8.685,2.192,3.805,4.388,7.607c.683,1.186,1.3,2.411,1.989,3.59.781,1.345,1.629,2.653,2.324,4.049a3.31,3.31,0,0,1,.026,3.306c-.6,1.047-1.2,2.094-1.76,3.159-.55,1.037-1.276,1.98-1.787,3.021-.792,1.613-1.791,3.1-2.638,4.677s-1.919,3.034-2.731,4.614c-1.211,2.357-2.735,4.524-3.943,6.877-.451.88-.988,1.716-1.461,2.586a5.2,5.2,0,0,1-1.253,1.869m-15.943-7.839.436-.168a5.867,5.867,0,0,1,1.354-.036q4.728,0,9.456.014l.117,0,.821.037.155.027a2.305,2.305,0,0,1,.285.9,6.755,6.755,0,0,0,.336,1.864,1.878,1.878,0,0,0,1.729,1.071,1.818,1.818,0,0,0,1.637-1.514,11.048,11.048,0,0,0-.937-5.167,15.029,15.029,0,0,0-4.769-5.945c-.336-.258-.6-.47-.076-.823a13.11,13.11,0,0,0,3.946-4.213,12.257,12.257,0,0,0,1.025-11.09,14.15,14.15,0,0,0-4.934-6.327c-.406-.305-.461-.49.01-.8a13.39,13.39,0,0,0,4.317-4.944,10.941,10.941,0,0,0,1.427-5.842,1.851,1.851,0,0,0-1.115-1.7,1.937,1.937,0,0,0-2.377,1.181,10.6,10.6,0,0,0-.188,1.843c-.044.537-.246.7-.742.7-2-.009-4.01,0-6.014,0-1.8,0-3.6.011-5.394.011-.276,0-.65.075-.655-.356-.006-.455-.166-.881-.153-1.342a1.873,1.873,0,1,0-3.7-.033,13.374,13.374,0,0,0,.549,3.2,14.459,14.459,0,0,0,4.989,7.071c.837.673.826.638-.049,1.338-3.041,2.435-5.107,5.439-5.41,9.447-.013.011-.039.023-.038.032a.46.46,0,0,0,.026.087,9.881,9.881,0,0,0,0,1.868c-.011.013-.033.03-.03.037a.485.485,0,0,0,.045.08,9.223,9.223,0,0,0,.844,3.688,15.96,15.96,0,0,0,4.985,6.142c.207.164.533.357.006.588a3.653,3.653,0,0,0-.667.523,15.147,15.147,0,0,0-3.494,4.079,13.872,13.872,0,0,0-1.386,3.414,16.265,16.265,0,0,0-.355,2.151,2.343,2.343,0,0,0,.269,1.813,1.841,1.841,0,0,0,2.159.682,2.4,2.4,0,0,0,1.351-2.459,1.529,1.529,0,0,1,.215-1.137" transform="translate(-58.654 -3.725)" fill="#65b8a6"/>
        <path id="Path_828068" data-name="Path 828068" d="M39.582,131.014c.125.109.107.256.113.4a1.793,1.793,0,0,0,1.54,1.91,27.7,27.7,0,0,0,8.615.9,13.705,13.705,0,0,0,2.928-.257c.3-.076.436.033.436.38,0,2.956.015,5.913.028,8.87a1.071,1.071,0,0,1-.372.806c-3.535,3.511-7.046,7.045-10.588,10.549a1.846,1.846,0,0,0,.677,3.226,1.331,1.331,0,0,0,1.364-.244,31.619,31.619,0,0,0,2.545-2.395c1.121-1.186,2.3-2.307,3.475-3.439.829-.8,1.642-1.616,2.453-2.433.08-.08.088-.252.254-.165a.274.274,0,0,1,.158.247c0,.248.012.5.012.744-.006,4.239.073,8.48-.043,12.716a16.8,16.8,0,0,1-5.828,12.335,17.61,17.61,0,0,1-8.372,4.165,14.581,14.581,0,0,1-3.54.273c-7.09-.243-12.245-3.571-15.564-9.8a17.208,17.208,0,0,1-1.752-5.9c-.14-1.047-.151-1.04.924-1.04,2.212,0,4.424.012,6.636-.013a3.535,3.535,0,0,0,3.458-3.409c.25-7.333.054-14.668.092-22a3.343,3.343,0,0,0-1.182-2.524,4.271,4.271,0,0,0-3.179-1.193q-3.039,0-6.078.008c-.8,0-.79.007-.783-.765.006-.661.007-1.324-.029-1.984a.5.5,0,0,1,.4-.613,21.04,21.04,0,0,1,5.169-1.036,24.067,24.067,0,0,1,3.64-.083,18.874,18.874,0,0,1,4.754.692,2.206,2.206,0,0,0,3.034-1.088l4.6,2.156" transform="translate(-9.03 -64.724)" fill="#e35d97"/>
        <path id="Path_828069" data-name="Path 828069" d="M201.885,64.218a5.208,5.208,0,0,0,1.253-1.869c.473-.87,1.01-1.706,1.462-2.586,1.207-2.353,2.731-4.52,3.942-6.877.812-1.58,1.887-3.042,2.732-4.613s1.846-3.065,2.637-4.678c.512-1.04,1.238-1.984,1.787-3.021.564-1.065,1.162-2.112,1.759-3.158a3.308,3.308,0,0,0-.026-3.307c-.694-1.4-1.541-2.7-2.323-4.049-.684-1.179-1.305-2.4-1.989-3.591q-2.191-3.805-4.388-7.606-2.5-4.341-4.994-8.686a30.5,30.5,0,0,1-1.592-2.786c1.427-.1,2.856-.029,4.284-.011.477.006.914-.235,1.438-.031a3.15,3.15,0,0,1,1.638,1.5q3.186,5.54,6.392,11.07,3.789,6.563,7.571,13.128c.36.625.712,1.255,1.037,1.9a2.012,2.012,0,0,1-.223,2.214c-.723.992-1.159,2.147-1.851,3.166-.8,1.175-1.409,2.477-2.12,3.712-1.415,2.464-2.8,4.948-4.293,7.364-.5.81-.992,1.643-1.475,2.457a33.081,33.081,0,0,0-1.6,2.918c-.464,1-1.154,1.857-1.66,2.83-.587,1.13-1.261,2.214-1.857,3.339a2.259,2.259,0,0,1-2.141,1.394c-1.694-.017-3.388-.006-5.083-.009-.118,0-.253.031-.324-.112" transform="translate(-101.404 -3.65)" fill="#3daa95"/>
        <path id="Path_828070" data-name="Path 828070" d="M39.564,121.828l-4.6-2.156c.16-1.639-.3-2.119-2.066-2.558a24.938,24.938,0,0,0-4.78-.675c-.59-.03-1.182-.1-1.776-.1a27.686,27.686,0,0,0-7.6.891c-.782.213-.788.193-.788-.586,0-1.8.016-3.595-.009-5.392-.006-.477.064-.68.62-.679,5.886.018,11.773.005,17.659,0q4.833,0,9.667,0c.226,0,.453.019.679.03.2.113.175.309.175.491q-.006,5.093-.014,10.186l-.362,0q-.128-.157-.25,0a14.927,14.927,0,0,1-3.475-.6c-1.366-.307-2.306-.194-2.911,1.083-.018.039-.109.043-.167.064" transform="translate(-9.012 -55.538)" fill="#65b8a6"/>
        <path id="Path_828071" data-name="Path 828071" d="M30.344,98.462H10.075A2.413,2.413,0,0,1,7.51,95.605a2.036,2.036,0,0,1,1.747-1.72,6.841,6.841,0,0,1,1.293-.1q19.742-.009,39.485,0a6.272,6.272,0,0,1,1.405.118,2.263,2.263,0,0,1-.039,4.443,8.122,8.122,0,0,1-1.531.111H30.344Z" transform="translate(-3.765 -47.104)" fill="#f6f8fa"/>
        <path id="Path_828072" data-name="Path 828072" d="M25.535,166.894a1.432,1.432,0,0,0-.014.247c.058.51-.094.685-.672.672-2.085-.048-4.173-.031-6.259,0-.457.007-.542-.119-.541-.552q.019-10.352-.007-20.7c0-.373.06-.5.46-.5,2.189.019,4.379.009,6.569.013.166,0,.4-.088.423.21a.1.1,0,0,0,.026.163q.01,9.991.019,19.981a.3.3,0,0,0,0,.466" transform="translate(-9.062 -73.364)" fill="#f6f8fa"/>
        <path id="Path_828073" data-name="Path 828073" d="M75.617,121.244q.007-5.093.014-10.187c0-.182.027-.378-.174-.491a5.162,5.162,0,0,1,.609-.069c1.837.006,3.673.033,5.51.021.4,0,.559.1.557.508-.012,3.158-.025,6.316-.006,9.473,0,.729-.58.583-.905.617a36.384,36.384,0,0,1-5.6.126" transform="translate(-37.901 -55.502)" fill="#3daa95"/>
        <path id="Path_828074" data-name="Path 828074" d="M32.989,187.449a.3.3,0,0,1,0-.466c.236.157.229.313,0,.466" transform="translate(-16.517 -93.919)" fill="#65b8a6"/>
        <path id="Path_828075" data-name="Path 828075" d="M74.549,132.006q.122-.161.25,0l-.25,0" transform="translate(-37.445 -66.264)" fill="#3daa95"/>
        <path id="Path_828076" data-name="Path 828076" d="M33.006,146.673a.1.1,0,0,1-.026-.163.1.1,0,0,1,.026.163" transform="translate(-16.549 -73.59)" fill="#65b8a6"/>
        <path id="Path_828077" data-name="Path 828077" d="M161.826,39.166c.3-4.009,2.369-7.012,5.41-9.447.875-.7.886-.665.049-1.338A14.464,14.464,0,0,1,162.3,21.31a13.374,13.374,0,0,1-.549-3.2,1.873,1.873,0,1,1,3.7.034c-.014.46.146.886.152,1.341.005.432.379.357.655.357,1.8,0,3.6-.007,5.394-.011,2,0,4.01-.013,6.014,0,.5,0,.7-.159.742-.7a10.644,10.644,0,0,1,.188-1.843,1.936,1.936,0,0,1,2.377-1.181,1.85,1.85,0,0,1,1.115,1.7,10.94,10.94,0,0,1-1.427,5.842,13.382,13.382,0,0,1-4.317,4.944c-.471.311-.416.5-.01.8a14.145,14.145,0,0,1,4.934,6.327,12.256,12.256,0,0,1-1.025,11.089A13.1,13.1,0,0,1,176.3,51.02c-.524.353-.26.565.077.823a15.037,15.037,0,0,1,4.768,5.945,11.047,11.047,0,0,1,.937,5.167,1.819,1.819,0,0,1-1.637,1.514,1.877,1.877,0,0,1-1.729-1.071,6.755,6.755,0,0,1-.337-1.864,2.3,2.3,0,0,0-.285-.9c-.031-.123-.093-.075-.154-.027l-.821-.037-.117,0q-4.727-.009-9.455-.014a5.9,5.9,0,0,0-1.354.036c-.185-.046-.385-.132-.436.169a1.53,1.53,0,0,0-.215,1.136,2.4,2.4,0,0,1-1.351,2.46,1.841,1.841,0,0,1-2.159-.682,2.342,2.342,0,0,1-.27-1.813,16.272,16.272,0,0,1,.355-2.151A13.884,13.884,0,0,1,163.5,56.29,15.157,15.157,0,0,1,167,52.211a3.65,3.65,0,0,1,.667-.522c.526-.23.2-.424-.006-.588a15.966,15.966,0,0,1-4.985-6.143,9.221,9.221,0,0,1-.844-3.688c0-.039-.009-.078-.014-.117a9.923,9.923,0,0,1,0-1.868l.012-.119m8.23-15.6h-.382a.107.107,0,0,0-.114,0l-.382,0a.1.1,0,0,0-.113,0l-.881.016c-.166.051-.467-.251-.487.186a10.376,10.376,0,0,0,3.4,2.829,1.153,1.153,0,0,0,1.092.283,10.9,10.9,0,0,0,4.121-3.129,3.214,3.214,0,0,0-1.679-.182.1.1,0,0,0-.113,0h-.382a.1.1,0,0,0-.114,0h-.382a.1.1,0,0,0-.114,0h-.382a.1.1,0,0,0-.114,0h-.383a.1.1,0,0,0-.113,0h-.382a.1.1,0,0,0-.114,0h-.383a.1.1,0,0,0-.113,0h-.382a.1.1,0,0,0-.114,0h-.382a.1.1,0,0,0-.114,0h-.381a.107.107,0,0,0-.114,0M171.9,41.906V41.9c1.942,0,3.884,0,5.825,0,.249,0,.586.083.639-.308a9.618,9.618,0,0,0,.066-2.578c-.042-.31-.143-.472-.5-.471q-5.98.015-11.961,0c-.237,0-.354.044-.406.322a8.459,8.459,0,0,0,0,2.565c.05.43.211.488.579.485,1.921-.015,3.842-.007,5.764-.007m.118-7.086v.008q2.077,0,4.153,0c.134,0,.326.062.367-.125a.457.457,0,0,0-.128-.327,11.882,11.882,0,0,0-4.089-3.2.837.837,0,0,0-.719-.006,11.05,11.05,0,0,0-3.983,3.121c-.1.123-.244.254-.145.437.087.16.259.087.391.087,1.384.006,2.768,0,4.152,0m-.028,10.766c-1.342,0-2.684,0-4.025,0-.173,0-.407-.116-.509.082-.114.224.114.375.234.528a11.948,11.948,0,0,0,3.918,3.064.789.789,0,0,0,.766-.023,12.111,12.111,0,0,0,3.94-3.138c.1-.122.255-.247.153-.431-.087-.156-.254-.088-.392-.088H171.99M171.983,56.9c1.28,0,2.561,0,3.841,0,.133,0,.309.072.394-.081.1-.179-.039-.306-.153-.428a13.365,13.365,0,0,0-3.8-2.839.685.685,0,0,0-.7.026,13.3,13.3,0,0,0-3.462,2.572c-.16.175-.475.323-.378.589s.433.156.663.159c1.2.012,2.395.005,3.593,0" transform="translate(-81.219 -8.025)" fill="#060607"/>
        <path id="Path_828078" data-name="Path 828078" d="M169.851,105.725c.051-.3.251-.215.436-.168l-.436.168" transform="translate(-85.314 -52.996)" fill="#3daa95"/>
        <path id="Path_828079" data-name="Path 828079" d="M161.9,66.562c0,.039.009.078.014.117a.544.544,0,0,1-.044-.08c0-.008.019-.025.03-.037" transform="translate(-81.304 -33.433)" fill="#3daa95"/>
        <path id="Path_828080" data-name="Path 828080" d="M192.444,105.561l.117,0-.117,0" transform="translate(-96.662 -53.022)" fill="#3daa95"/>
        <path id="Path_828081" data-name="Path 828081" d="M194.329,105.588c.061-.048.123-.1.154.027l-.154-.027" transform="translate(-97.609 -53.01)" fill="#3daa95"/>
        <path id="Path_828082" data-name="Path 828082" d="M161.917,62.57c0,.04-.008.079-.011.119a.5.5,0,0,1-.026-.087c0-.009.024-.021.038-.032" transform="translate(-81.31 -31.428)" fill="#3daa95"/>
        <path id="Path_828083" data-name="Path 828083" d="M175.7,64.675c-1.921,0-3.842-.008-5.764.007-.368,0-.529-.055-.579-.485a8.459,8.459,0,0,1,0-2.565c.052-.277.169-.322.406-.322q5.981.007,11.961,0c.357,0,.459.162.5.471a9.617,9.617,0,0,1-.066,2.578c-.053.392-.39.308-.639.309-1.942.008-3.884,0-5.825,0Z" transform="translate(-85.016 -30.794)" fill="#65b8a6"/>
        <path id="Path_828084" data-name="Path 828084" d="M177.813,50.076c-1.384,0-2.768,0-4.153,0-.131,0-.3.074-.39-.087-.1-.182.045-.314.144-.436a11.054,11.054,0,0,1,3.983-3.121.835.835,0,0,1,.719.006,11.878,11.878,0,0,1,4.089,3.2.458.458,0,0,1,.127.327c-.041.187-.233.124-.367.124q-2.077.005-4.153,0Z" transform="translate(-87.015 -23.28)" fill="#65b8a6"/>
        <path id="Path_828085" data-name="Path 828085" d="M177.768,75.437h4.087c.138,0,.305-.069.392.088.1.184-.049.309-.153.431a12.115,12.115,0,0,1-3.94,3.138.789.789,0,0,1-.766.024,11.949,11.949,0,0,1-3.919-3.065c-.12-.153-.349-.3-.234-.528.1-.2.336-.082.508-.083,1.342-.007,2.684,0,4.025,0" transform="translate(-86.998 -37.877)" fill="#65b8a6"/>
        <path id="Path_828086" data-name="Path 828086" d="M178.047,94.736c-1.2,0-2.4.006-3.593-.005-.23,0-.56.123-.663-.158s.218-.415.378-.59a13.285,13.285,0,0,1,3.462-2.571.684.684,0,0,1,.7-.027,13.365,13.365,0,0,1,3.8,2.839c.114.122.253.249.153.428-.085.153-.261.08-.394.081-1.28.006-2.561,0-3.841,0" transform="translate(-87.284 -45.859)" fill="#65b8a6"/>
        <path id="Path_828087" data-name="Path 828087" d="M177.711,31.209h.382c.038.054.076.054.114,0h.382c.038.054.076.053.114,0h.382c.038.054.076.053.114,0h.382c.038.054.076.053.114,0h.382c.038.055.077.054.114,0h.382c.038.055.076.054.113,0a3.221,3.221,0,0,1,1.68.182,10.9,10.9,0,0,1-4.121,3.129,1.154,1.154,0,0,1-1.092-.283,10.383,10.383,0,0,1-3.4-2.829c.117-.181.354-.046.487-.186l.88-.016c.038.056.076.054.113,0l.382,0c.037.055.076.056.114,0l.382,0c.038.055.076.055.114,0h.382c.038.054.076.054.114,0h.382c.038.055.076.054.114,0h.382c.038.054.076.054.114,0" transform="translate(-87.272 -15.659)" fill="#65b8a6"/>
        <path id="Path_828088" data-name="Path 828088" d="M174.236,31.2c-.133.14-.37,0-.487.186.019-.437.321-.135.487-.186" transform="translate(-87.272 -15.646)" fill="#3daa95"/>
        <path id="Path_828089" data-name="Path 828089" d="M187.576,31.218c-.038.054-.076.055-.113,0a.1.1,0,0,1,.113,0" transform="translate(-94.16 -15.672)" fill="#3daa95"/>
        <path id="Path_828090" data-name="Path 828090" d="M186.579,31.219c-.038.054-.076.056-.114,0a.1.1,0,0,1,.114,0" transform="translate(-93.659 -15.673)" fill="#3daa95"/>
        <path id="Path_828091" data-name="Path 828091" d="M185.583,31.222c-.038.054-.076.055-.114,0a.1.1,0,0,1,.114,0" transform="translate(-93.159 -15.674)" fill="#3daa95"/>
        <path id="Path_828092" data-name="Path 828092" d="M184.586,31.225c-.038.054-.076.055-.114,0a.1.1,0,0,1,.114,0" transform="translate(-92.658 -15.675)" fill="#3daa95"/>
        <path id="Path_828093" data-name="Path 828093" d="M183.588,31.226c-.038.053-.076.054-.114,0a.1.1,0,0,1,.114,0" transform="translate(-92.157 -15.676)" fill="#3daa95"/>
        <path id="Path_828094" data-name="Path 828094" d="M182.592,31.226c-.038.053-.076.054-.114,0a.1.1,0,0,1,.114,0" transform="translate(-91.656 -15.676)" fill="#3daa95"/>
        <path id="Path_828095" data-name="Path 828095" d="M181.594,31.225c-.038.054-.076.054-.114,0a.1.1,0,0,1,.114,0" transform="translate(-91.155 -15.675)" fill="#3daa95"/>
        <path id="Path_828096" data-name="Path 828096" d="M180.6,31.223c-.038.054-.076.054-.114,0a.105.105,0,0,1,.114,0" transform="translate(-90.655 -15.674)" fill="#3daa95"/>
        <path id="Path_828097" data-name="Path 828097" d="M179.6,31.222c-.038.054-.077.055-.114,0a.106.106,0,0,1,.114,0" transform="translate(-90.153 -15.674)" fill="#3daa95"/>
        <path id="Path_828098" data-name="Path 828098" d="M178.6,31.221c-.038.054-.077.054-.114,0a.106.106,0,0,1,.114,0" transform="translate(-89.653 -15.673)" fill="#3daa95"/>
        <path id="Path_828099" data-name="Path 828099" d="M177.606,31.216c-.039.055-.077.054-.114,0a.108.108,0,0,1,.114,0" transform="translate(-89.152 -15.671)" fill="#3daa95"/>
        <path id="Path_828100" data-name="Path 828100" d="M176.61,31.209c-.037.055-.075.057-.113,0a.1.1,0,0,1,.113,0" transform="translate(-88.652 -15.668)" fill="#3daa95"/>
      </g>
    </g>
  </g>
</svg>
