<svg xmlns="http://www.w3.org/2000/svg" xmlns:xlink="http://www.w3.org/1999/xlink" width="150" height="150" viewBox="0 0 150 150">
  <defs>
    <clipPath id="clip-path">
      <rect id="Rectangle_378148" data-name="Rectangle 378148" width="150" height="150" transform="translate(303 1185)" fill="none" stroke="#707070" stroke-width="1"/>
    </clipPath>
    <clipPath id="clip-path-2">
      <rect id="Rectangle_378149" data-name="Rectangle 378149" width="126.324" height="128.697" fill="none"/>
    </clipPath>
  </defs>
  <g id="Mask_Group_417" data-name="Mask Group 417" transform="translate(-303 -1185)" clip-path="url(#clip-path)">
    <g id="Group_1074205" data-name="Group 1074205" transform="translate(313.676 1195.651)">
      <g id="Group_1074204" data-name="Group 1074204" clip-path="url(#clip-path-2)">
        <path id="Path_824425" data-name="Path 824425" d="M83.668,136.269c-.356,0-.72-.017-1.08-.051a10.412,10.412,0,0,1-9.2-10.6c.047-3.8.039-7.678.029-11.424q-.006-2.442-.007-4.883l0-2.039c0-1.364,0-2.728,0-4.092a1.834,1.834,0,0,0-1.173-1.956,2.351,2.351,0,0,0-.915-.208,1.922,1.922,0,0,0-1.354.615,10.92,10.92,0,0,1-5.681,3.055,10.232,10.232,0,0,1-11.658-7.043,9.816,9.816,0,0,1,2.052-9.75c.182-.223.38-.437.578-.649l.162-.174a1.819,1.819,0,0,0,.31-2.218,1.764,1.764,0,0,0-1.807-1.173c-.547,0-1.094-.006-1.641-.01-.636-.005-1.271-.011-1.906-.011-.983,0-1.788.013-2.533.041q-.2.007-.395.007a10.487,10.487,0,0,1-10.225-8.9,10.025,10.025,0,0,1,2.7-8.457,9.857,9.857,0,0,1,7.549-3.3h.109c1.065.01,2.13.018,3.2.018q1.3,0,2.6-.022a4.482,4.482,0,0,0,1.472-.192,1.844,1.844,0,0,0,1.06-1.306,1.9,1.9,0,0,0-.354-1.677c-.616-.728-1.3-1.4-2.03-2.118-.216-.212-.433-.425-.647-.638L51.16,55.4c-3.4-3.392-6.909-6.9-10.379-10.33a11.528,11.528,0,0,1-3.5-6.037,10.4,10.4,0,0,1,8.761-12.123,11.586,11.586,0,0,1,1.4-.087A10.553,10.553,0,0,1,55.1,30.21q4.672,4.714,9.365,9.406,2.612,2.617,5.223,5.237a2.252,2.252,0,0,0,1.621.835l.1,0a1.9,1.9,0,0,0,1.984-2.057c.023-5.306.006-10.465-.013-14.812a12.511,12.511,0,0,1,1.029-5.468,10.143,10.143,0,0,1,9.223-5.959,10.435,10.435,0,0,1,4.584,1.069,9.538,9.538,0,0,1,5.733,8.649c.107,3.109.09,6.259.073,9.306-.007,1.335-.014,2.669-.012,4,0,.331,0,.663-.006.994-.008.752-.016,1.461.026,2.163A2,2,0,0,0,96.049,45.7a1.974,1.974,0,0,0,1-.263,4.7,4.7,0,0,0,.74-.627l.146-.139a10.289,10.289,0,0,1,7.107-2.832,10.106,10.106,0,0,1,4.823,1.222,10.618,10.618,0,0,1,5.277,11.009,9.529,9.529,0,0,1-2.6,5.061,3.256,3.256,0,0,0-1.038,1.458,1.989,1.989,0,0,0,.349,1.625,2.053,2.053,0,0,0,1.507.817c.342.027.7.029,1.067.029l19.279-.008a10.322,10.322,0,1,1-.007,20.643q-4.8,0-9.591,0-4.9,0-9.794,0a6.983,6.983,0,0,0-1.278.078,1.961,1.961,0,0,0-1.515,1.286,1.826,1.826,0,0,0,.392,1.834c.733.829,1.53,1.6,2.373,2.41.451.435.9.871,1.344,1.315.273.275.549.549.824.823.862.857,1.753,1.742,2.584,2.685a10.389,10.389,0,0,1,2.544,8.207,9.951,9.951,0,0,1-4.427,7.066,10.6,10.6,0,0,1-5.88,1.836,10.26,10.26,0,0,1-7.216-3.045c-1.323-1.306-2.632-2.627-3.941-3.948q-.982-.99-1.964-1.978a3.286,3.286,0,0,0-1.89-1.228c-.072-.007-.143-.01-.213-.01a1.973,1.973,0,0,0-1.992,1.691,7.428,7.428,0,0,0-.068,1q-.007,4.438,0,8.875v2.467a1.467,1.467,0,0,1-.023.262c0,1.113.018,2.226.033,3.34.039,2.717.078,5.525-.085,8.3a10.106,10.106,0,0,1-10.25,9.308" transform="translate(-19.232 -9.017)" fill="#ebebea"/>
        <path id="Path_824426" data-name="Path 824426" d="M82.078,17.279a9.045,9.045,0,0,1,3.955.925,8.149,8.149,0,0,1,4.92,7.4c.152,4.416.051,8.841.06,13.263,0,1.08-.042,2.163.022,3.241a3.464,3.464,0,0,0,5.2,3.018,6.763,6.763,0,0,0,1.146-.962,8.893,8.893,0,0,1,6.113-2.435,8.622,8.622,0,0,1,4.132,1.045,9.107,9.107,0,0,1,4.549,9.474,8.052,8.052,0,0,1-2.2,4.31,4.477,4.477,0,0,0-1.426,2.177,3.463,3.463,0,0,0,3.154,4.18c.39.031.784.034,1.177.034h.266q8.675,0,17.351-.008h1.667a8.877,8.877,0,1,1-.006,17.754h-.008q-4.767,0-9.535,0-4.922,0-9.844,0a8.169,8.169,0,0,0-1.555.1,3.327,3.327,0,0,0-1.927,5.494c1.178,1.332,2.518,2.521,3.773,3.786,1.129,1.137,2.292,2.246,3.35,3.446a8.709,8.709,0,0,1-1.6,13.116,9.133,9.133,0,0,1-5.078,1.593,8.78,8.78,0,0,1-6.2-2.629c-1.982-1.956-3.931-3.945-5.9-5.918a4.544,4.544,0,0,0-2.774-1.646c-.118-.012-.236-.017-.352-.017a3.414,3.414,0,0,0-3.423,2.937,8.87,8.87,0,0,0-.082,1.2q-.009,5.672,0,11.344h-.024c0,3.941.182,7.892-.049,11.82a8.652,8.652,0,0,1-8.808,7.948q-.465,0-.946-.044a8.962,8.962,0,0,1-7.9-9.142c.068-5.441.02-10.883.023-16.325,0-2.041-.01-4.081,0-6.122a3.273,3.273,0,0,0-2.052-3.295,3.772,3.772,0,0,0-1.48-.323,3.347,3.347,0,0,0-2.356,1.018,9.541,9.541,0,0,1-4.942,2.675,8.788,8.788,0,0,1-10.024-6.075,8.388,8.388,0,0,1,1.8-8.383c.215-.263.454-.508.684-.758a3.242,3.242,0,0,0,.567-3.782,3.2,3.2,0,0,0-3.124-2.032c-1.184,0-2.369-.021-3.553-.021-.862,0-1.724.01-2.585.042-.114,0-.228.007-.341.007A9,9,0,0,1,37.1,73.055a8.624,8.624,0,0,1,2.329-7.286,8.441,8.441,0,0,1,6.483-2.833H46c1.069.01,2.138.018,3.207.018q1.315,0,2.63-.022a5.578,5.578,0,0,0,2-.3A3.414,3.414,0,0,0,55.1,57.382c-.851-1.007-1.824-1.913-2.759-2.846q-6.04-6.029-12.1-12.043a10.225,10.225,0,0,1-3.1-5.294,8.958,8.958,0,0,1,7.519-10.4,10.122,10.122,0,0,1,1.226-.076,9.091,9.091,0,0,1,6.64,2.954q7.276,7.342,14.59,14.645a3.664,3.664,0,0,0,2.646,1.261c.054,0,.11,0,.166,0a3.334,3.334,0,0,0,3.359-3.494q.032-7.412-.013-14.825a11.044,11.044,0,0,1,.893-4.848,8.715,8.715,0,0,1,7.915-5.128m0-2.889a11.574,11.574,0,0,0-10.531,6.79,13.863,13.863,0,0,0-1.166,6.088c.018,4.081.035,9.451.013,14.8,0,.451-.086.595-.61.62h-.026c-.126,0-.327-.138-.6-.41q-2.64-2.651-5.284-5.3c-3.053-3.059-6.209-6.222-9.3-9.342a11.947,11.947,0,0,0-8.693-3.81,13.094,13.094,0,0,0-1.575.1,11.845,11.845,0,0,0-10,13.841,12.9,12.9,0,0,0,3.905,6.78c3.476,3.436,6.994,6.95,10.4,10.348L50.3,56.58c.218.218.437.433.657.65.7.69,1.365,1.341,1.937,2.017a.49.49,0,0,1,.053.4.459.459,0,0,1-.209.312,3.74,3.74,0,0,1-.945.082c-.787.014-1.63.021-2.577.021-1.06,0-2.121-.009-3.181-.018h-.121a11.4,11.4,0,0,0-8.614,3.77,11.558,11.558,0,0,0-3.061,9.628A11.957,11.957,0,0,0,45.89,83.6c.149,0,.3,0,.449-.009.726-.027,1.513-.04,2.477-.04.63,0,1.26.005,1.889.011.552,0,1.1.009,1.657.01.34,0,.362.027.49.315.179.4.143.441-.053.654l-.159.171c-.195.208-.415.444-.636.716-2.824,3.458-3.6,7.2-2.3,11.117a11.676,11.676,0,0,0,13.292,8.01,12.32,12.32,0,0,0,6.419-3.434.611.611,0,0,1,.352-.211.936.936,0,0,1,.35.092c.222.095.3.127.294.618-.009,1.371-.006,2.76,0,4.1q0,1.018,0,2.036,0,2.462.007,4.925c.009,3.729.017,7.584-.029,11.365A11.867,11.867,0,0,0,80.9,136.1c.4.038.814.057,1.215.057A11.551,11.551,0,0,0,93.805,125.49c.166-2.83.126-5.666.087-8.409-.015-1.055-.03-2.142-.033-3.21a2.943,2.943,0,0,0,.024-.371v-2.488q0-4.425,0-8.851a5.924,5.924,0,0,1,.055-.8.532.532,0,0,1,.561-.444c.024,0,.049,0,.074,0,.2.02.608.411,1.006.81q.989.992,1.975,1.989c1.285,1.3,2.613,2.636,3.939,3.945a11.693,11.693,0,0,0,8.23,3.462,12.034,12.034,0,0,0,6.682-2.079,11.377,11.377,0,0,0,5.058-8.081,11.833,11.833,0,0,0-2.892-9.348c-.862-.978-1.77-1.881-2.648-2.754q-.41-.408-.819-.817c-.456-.459-.918-.906-1.366-1.337-.822-.793-1.6-1.542-2.294-2.328a.4.4,0,0,1-.105-.414.508.508,0,0,1,.424-.332,6.213,6.213,0,0,1,1-.051q4.921-.005,9.842,0,4.766,0,9.533,0a11.766,11.766,0,1,0,.016-23.532h-1.668q-4.792,0-9.585,0l-7.767,0h-.265c-.334,0-.658,0-.947-.025a.614.614,0,0,1-.464-.24.549.549,0,0,1-.094-.462,4.781,4.781,0,0,1,.65-.739,10.949,10.949,0,0,0,2.993-5.811,11.94,11.94,0,0,0-6.006-12.545,11.557,11.557,0,0,0-5.515-1.4,11.724,11.724,0,0,0-8.1,3.228l-.155.147a5.138,5.138,0,0,1-.475.425.554.554,0,0,1-.267.062c-.275,0-.535-.092-.575-.764-.039-.652-.031-1.338-.024-2.064,0-.337.008-.675.007-1.012,0-1.331,0-2.662.012-3.993.016-3.06.034-6.225-.074-9.363a11.042,11.042,0,0,0-6.547-9.9,11.864,11.864,0,0,0-5.215-1.214" transform="translate(-17.677 -7.461)" fill="#161615"/>
        <path id="Path_824427" data-name="Path 824427" d="M12.442,237.519a9.452,9.452,0,0,1-6.908-3.033,9.574,9.574,0,0,1-.053-12.761c2.278-2.444,4.391-4.551,6.458-6.441a9.166,9.166,0,0,1,6.292-2.606,9.91,9.91,0,0,1,4.084.93,9.277,9.277,0,0,1,5.549,8.456c0,.04,0,.08,0,.119a8.934,8.934,0,0,1-2.468,6.355c-2.032,2.07-4.2,4.264-6.406,6.332a9.577,9.577,0,0,1-6.55,2.649" transform="translate(-1.592 -110.272)" fill="#ebebea"/>
        <path id="Path_824428" data-name="Path 824428" d="M16.638,212.567a8.459,8.459,0,0,1,3.49.8,7.88,7.88,0,0,1,4.7,7.224,7.518,7.518,0,0,1-2.055,5.378c-2.089,2.128-4.188,4.251-6.363,6.29a7.957,7.957,0,0,1-11.42-.324,8.081,8.081,0,0,1-.046-10.783c2.045-2.195,4.162-4.335,6.376-6.359a7.783,7.783,0,0,1,5.317-2.228m0-2.889h0a10.708,10.708,0,0,0-7.267,2.985c-2.1,1.916-4.236,4.05-6.54,6.522a10.887,10.887,0,0,0,8.018,18.224,11.013,11.013,0,0,0,7.538-3.04c2.222-2.083,4.318-4.2,6.449-6.374a10.31,10.31,0,0,0,2.881-7.332c0-.079,0-.159,0-.238a10.775,10.775,0,0,0-6.4-9.688,11.336,11.336,0,0,0-4.678-1.058" transform="translate(0 -108.717)" fill="#161615"/>
        <path id="Path_824429" data-name="Path 824429" d="M202.671,26.06a11.415,11.415,0,0,1-11.405-11.618A11.254,11.254,0,0,1,194.6,6.5a11.453,11.453,0,0,1,8.04-3.5h.151a11.57,11.57,0,0,1,11.618,11.447,11.387,11.387,0,0,1-11.459,11.615c-.093,0-.188,0-.282,0" transform="translate(-99.169 -1.555)" fill="#ebebea"/>
        <path id="Path_824430" data-name="Path 824430" d="M201.088,2.889h.129a10.152,10.152,0,0,1,10.195,9.985A10.008,10.008,0,0,1,201.4,23.064l-.249,0a10.032,10.032,0,0,1-9.994-10.192,10.243,10.243,0,0,1,9.934-9.98m0-2.889h0a12.907,12.907,0,0,0-9.068,3.931,12.7,12.7,0,0,0-3.754,8.975,12.969,12.969,0,0,0,12.816,13.044c.106,0,.211,0,.316,0A12.976,12.976,0,0,0,201.259,0h-.172" transform="translate(-97.614)" fill="#161615"/>
        <path id="Path_824431" data-name="Path 824431" d="M28.172,179.611a5.224,5.224,0,0,1-4.985-5.18,5.113,5.113,0,0,1,5.036-4.892,5.178,5.178,0,0,1,5.056,5.016,5.231,5.231,0,0,1-5,5.057Z" transform="translate(-12.022 -87.905)" fill="#ebebea"/>
        <path id="Path_824432" data-name="Path 824432" d="M26.668,169.427h.018a3.592,3.592,0,0,1,.034,7.184h-.069a3.758,3.758,0,0,1-3.574-3.729,3.64,3.64,0,0,1,3.591-3.454m0-2.889h0a6.513,6.513,0,0,0-6.48,6.33,6.61,6.61,0,0,0,6.394,6.631h.138a6.481,6.481,0,0,0-.019-12.962h-.033" transform="translate(-10.467 -86.349)" fill="#161615"/>
      </g>
    </g>
  </g>
</svg>
