<svg id="Group_1073942" data-name="Group 1073942" xmlns="http://www.w3.org/2000/svg" xmlns:xlink="http://www.w3.org/1999/xlink" width="398.39" height="318.956" viewBox="0 0 398.39 318.956">
  <defs>
    <clipPath id="clip-path">
      <rect id="Rectangle_378023" data-name="Rectangle 378023" width="398.39" height="318.956" fill="none"/>
    </clipPath>
    <clipPath id="clip-path-2">
      <path id="Path_823783" data-name="Path 823783" d="M112.833,0,19.553,132.389,0,212.118l70.283,34.313c9.552,14.8,23.594,26.229,38.65,35.374,43.632,26.5,97.729,35.65,147.753,25.743q6.522-1.29,12.944-3.033c28.936-7.864,55.513-24,73.321-48.491l55.439-7.483L369.469,83.914,266.008,6.517Z" fill="none"/>
    </clipPath>
    <clipPath id="clip-path-3">
      <rect id="Rectangle_378009" data-name="Rectangle 378009" width="28.383" height="48.925" transform="translate(131.881 250.169)" fill="none"/>
    </clipPath>
    <clipPath id="clip-path-4">
      <rect id="Rectangle_378010" data-name="Rectangle 378010" width="12.138" height="39.915" transform="translate(259.03 205.295)" fill="none"/>
    </clipPath>
    <clipPath id="clip-path-5">
      <rect id="Rectangle_378011" data-name="Rectangle 378011" width="61.619" height="42.455" transform="translate(156.793 250.169)" fill="none"/>
    </clipPath>
    <clipPath id="clip-path-6">
      <rect id="Rectangle_378012" data-name="Rectangle 378012" width="7.86" height="10.577" transform="translate(213.559 43.498)" fill="none"/>
    </clipPath>
    <clipPath id="clip-path-7">
      <rect id="Rectangle_378013" data-name="Rectangle 378013" width="6.753" height="13.001" transform="translate(262.631 66.51)" fill="none"/>
    </clipPath>
    <clipPath id="clip-path-8">
      <rect id="Rectangle_378014" data-name="Rectangle 378014" width="9.913" height="8.338" transform="translate(156.191 59.713)" fill="none"/>
    </clipPath>
    <clipPath id="clip-path-9">
      <rect id="Rectangle_378015" data-name="Rectangle 378015" width="11.821" height="7.703" transform="translate(116.061 106.906)" fill="none"/>
    </clipPath>
    <clipPath id="clip-path-10">
      <rect id="Rectangle_378016" data-name="Rectangle 378016" width="3.784" height="59.6" transform="translate(180.878 99.581)" fill="none"/>
    </clipPath>
    <clipPath id="clip-path-11">
      <rect id="Rectangle_378017" data-name="Rectangle 378017" width="14.428" height="117.811" transform="translate(211.52 39.326)" fill="none"/>
    </clipPath>
    <clipPath id="clip-path-12">
      <rect id="Rectangle_378018" data-name="Rectangle 378018" width="34.469" height="112.478" transform="translate(237.934 64.349)" fill="none"/>
    </clipPath>
    <clipPath id="clip-path-13">
      <rect id="Rectangle_378019" data-name="Rectangle 378019" width="23.759" height="81.671" transform="translate(139.753 126.662)" fill="none"/>
    </clipPath>
    <clipPath id="clip-path-14">
      <rect id="Rectangle_378020" data-name="Rectangle 378020" width="148.41" height="136.07" transform="translate(96.152 182.886)" fill="none"/>
    </clipPath>
    <clipPath id="clip-path-15">
      <rect id="Rectangle_378021" data-name="Rectangle 378021" width="18.35" height="9.728" transform="translate(96.941 190.375)" fill="none"/>
    </clipPath>
    <clipPath id="clip-path-16">
      <rect id="Rectangle_378022" data-name="Rectangle 378022" width="12.653" height="9.763" transform="translate(313.993 185.839)" fill="none"/>
    </clipPath>
  </defs>
  <g id="Group_1073941" data-name="Group 1073941" clip-path="url(#clip-path)">
    <g id="Group_1073940" data-name="Group 1073940">
      <g id="Group_1073939" data-name="Group 1073939" clip-path="url(#clip-path-2)">
        <path id="Path_823719" data-name="Path 823719" d="M334.249,124.179c-16.619-12.477-37.662-18.4-59.018-18.9-20.7-.491-44.088,2.459-61.119,15.106a67.144,67.144,0,0,0-6.245,5.264c-7.575,7.208-13.758,16.536-23.246,21.457-11.215,5.815-22.171,3.222-33.554-.733-21.268-7.39-50.494-17.641-70.4-1.939-29.593,23.339-29.43,72.481-10.38,102,9.551,14.8,23.594,26.229,38.65,35.374,43.632,26.5,97.729,35.65,147.753,25.743q6.522-1.291,12.944-3.033c28.936-7.864,55.512-24,73.321-48.492,23.156-31.844,32.769-76.672,10.339-111.433a78.9,78.9,0,0,0-19.041-20.411" fill="#429bf4"/>
        <path id="Path_823720" data-name="Path 823720" d="M162.568,202.139c1.468-4,.874-8.916.524-13.085-1.34-11.4-5.127-22.21-9.4-32.838-2.484-6.182-5.461-12.158-7.891-18.361-.5-1.271-1.1-2.952-1.692-4.835l-6.648-9.842c-1.9-2.808-3.779-5.64-5.741-8.393-2.822-3.96-5.26-8.7-10.171-10.367a8.675,8.675,0,0,0-11.435,7,13.529,13.529,0,0,0,2.113,9.573q4.39,6.627,8.706,13.315,4.871,7.548,9.674,15.139,5.238,8.287,10.359,16.648c3.128,5.124,6.216,10.274,9.183,15.494,1.525,2.683,3.021,5.384,4.425,8.134a28.82,28.82,0,0,1,3.135,13.13v5.486c2.466-.761,4.061-4.025,4.856-6.193" fill="#f6975d"/>
        <path id="Path_823721" data-name="Path 823721" d="M201.814,273.3c-6.251-3.96-12.921-6.106-20.118-7.548-5.508-1.1-10.307-4.117-14.791-7.433a123.5,123.5,0,0,1-9.832-8.156l-.541,8.214a32,32,0,0,1-7.09,18.068l-17.56,21.626,69.276,18.207,17.258-26.472c-4.744-6.264-9.806-12.2-16.6-16.506" fill="#f6975d"/>
        <g id="Group_1073899" data-name="Group 1073899" style="mix-blend-mode: overlay;isolation: isolate">
          <g id="Group_1073898" data-name="Group 1073898">
            <g id="Group_1073897" data-name="Group 1073897" clip-path="url(#clip-path-3)">
              <path id="Path_823722" data-name="Path 823722" d="M159.789,260.16l.475-7.2c-1.07-.922-2.147-1.835-3.191-2.789l-.541,8.214a32,32,0,0,1-7.09,18.068l-17.56,21.625,3.874,1.018L152.7,278.228a32,32,0,0,0,7.09-18.068" fill="#686868"/>
            </g>
          </g>
        </g>
        <path id="Path_823723" data-name="Path 823723" d="M180.31,157.947a2.309,2.309,0,0,0,4.351-1.153l-1.7-50.779L171.923,71.892a51.546,51.546,0,0,0-3.2-8,17.986,17.986,0,0,0-5.529-6.856c-3.032-2.023-7.255-1.268-9.88,1.4-4.169,4.24-2.715,10.495-1.672,15.085,0,0,8.859,38.958,11.963,52.607.024.05.049.1.073.153,5.248,10.709,11.078,21.117,16.631,31.667" fill="#f6975d"/>
        <path id="Path_823724" data-name="Path 823724" d="M224.1,46.88c-1.1-3.817-5.314-7.492-9.4-7.554-4.885-.074-7.587,2-9.067,4.089-1.586,2.24-1.831,5.345-1.9,8.016-.073,2.688.152,48.184.164,54.943v.008l.177,1.354,6.2,47.417a2.28,2.28,0,0,0,4.437.382c1.931-6.29,9.343-31.047,9.536-41.086L225.8,98.885l.144-1.439c-.222-7.363-1.247-48.484-1.844-50.566" fill="#f6975d"/>
        <path id="Path_823725" data-name="Path 823725" d="M271.34,67.926c-2.068-5.814-9.72-7.015-13.944-2.517C246.287,77.238,241.885,114.3,239.8,114.582c-.007.481.017.913-.01,1.421l-1.971,58.585a2.166,2.166,0,0,0,4.089,1.068L258.5,143.6a8.476,8.476,0,0,1,4.2-3.906l9-56.847c1.192-7.1.755-11.805-.353-14.919" fill="#f6975d"/>
        <path id="Path_823726" data-name="Path 823726" d="M326.182,184.213c-1.788-4.265-7.508-4.784-11.558-5.086a39.879,39.879,0,0,0-25.526,7.239L259.029,207.16c.331,8.55,1.217,17.037,3.587,24.572a52.955,52.955,0,0,0,6.737,13.478c8.763-6.206,24.284-30.288,24.284-30.288a35.266,35.266,0,0,1,5.023-5.419,105.836,105.836,0,0,1,9.761-7.745c3.16-2.261,6.4-4.417,9.677-6.5q1.827-1.16,3.674-2.286c1.424-.868,2.943-1.561,3.873-3.016a6.112,6.112,0,0,0,.537-5.744" fill="#f6975d"/>
        <g id="Group_1073902" data-name="Group 1073902" style="mix-blend-mode: overlay;isolation: isolate">
          <g id="Group_1073901" data-name="Group 1073901">
            <g id="Group_1073900" data-name="Group 1073900" clip-path="url(#clip-path-4)">
              <path id="Path_823727" data-name="Path 823727" d="M261.764,207.16c-.024-.623-.019-1.242-.038-1.864l-2.7,1.864c.331,8.55,1.217,17.037,3.586,24.572a52.988,52.988,0,0,0,6.737,13.478,22.547,22.547,0,0,0,1.815-1.454,50.787,50.787,0,0,1-5.818-12.024c-2.369-7.535-3.255-16.022-3.586-24.572" fill="#686868"/>
            </g>
          </g>
        </g>
        <g id="Group_1073905" data-name="Group 1073905" style="mix-blend-mode: overlay;isolation: isolate">
          <g id="Group_1073904" data-name="Group 1073904">
            <g id="Group_1073903" data-name="Group 1073903" clip-path="url(#clip-path-5)">
              <path id="Path_823728" data-name="Path 823728" d="M201.81,273.3c-6.251-3.96-12.921-6.106-20.118-7.548-5.508-1.1-10.307-4.117-14.791-7.433a123.5,123.5,0,0,1-9.832-8.156l-.276,4.2c2.691,2.395,5.446,4.71,8.332,6.844,4.484,3.316,9.282,6.33,14.791,7.434,7.2,1.442,13.867,3.588,20.118,7.548,6.769,4.287,11.816,10.2,16.544,16.431l1.834-2.812c-4.744-6.264-9.806-12.2-16.6-16.506" fill="#686868"/>
            </g>
          </g>
        </g>
        <path id="Path_823729" data-name="Path 823729" d="M206.978,54.081h14.433a20.24,20.24,0,0,0-.619-5.65c-2.088-6.873-12.18-6.471-13.572.576a24.221,24.221,0,0,0-.242,5.074" fill="#f2c8b1"/>
        <g id="Group_1073908" data-name="Group 1073908" style="mix-blend-mode: overlay;isolation: isolate">
          <g id="Group_1073907" data-name="Group 1073907">
            <g id="Group_1073906" data-name="Group 1073906" clip-path="url(#clip-path-6)">
              <path id="Path_823730" data-name="Path 823730" d="M220.791,48.424a6.891,6.891,0,0,0-7.233-4.909,6.85,6.85,0,0,1,6.4,5.021,20.49,20.49,0,0,1,.625,5.539h.827a20.251,20.251,0,0,0-.619-5.651" fill="#444"/>
            </g>
          </g>
        </g>
        <path id="Path_823731" data-name="Path 823731" d="M256.021,76.64l12.6,2.877s.723-6.106.724-6.112c.572-5.781-5.834-8.579-9.779-5.845-2.718,1.884-2.84,5.925-3.548,9.08" fill="#f2c8b1"/>
        <g id="Group_1073911" data-name="Group 1073911" style="mix-blend-mode: overlay;isolation: isolate">
          <g id="Group_1073910" data-name="Group 1073910">
            <g id="Group_1073909" data-name="Group 1073909" clip-path="url(#clip-path-7)">
              <path id="Path_823732" data-name="Path 823732" d="M262.631,66.521a6.17,6.17,0,0,1,5.977,6.879s-.608,5.134-.7,5.947l.721.164s.723-6.106.723-6.111a6.213,6.213,0,0,0-6.717-6.879" fill="#444"/>
            </g>
          </g>
        </g>
        <path id="Path_823733" data-name="Path 823733" d="M155.458,70.884,166.1,67.89,164.148,63a5.388,5.388,0,0,0-9.739-.392c-1.271,2.528.29,5.614,1.049,8.274" fill="#f2c8b1"/>
        <g id="Group_1073914" data-name="Group 1073914" style="mix-blend-mode: overlay;isolation: isolate">
          <g id="Group_1073913" data-name="Group 1073913">
            <g id="Group_1073912" data-name="Group 1073912" clip-path="url(#clip-path-8)">
              <path id="Path_823734" data-name="Path 823734" d="M163.565,63.315l1.9,4.736.643-.181-1.956-4.888a5.3,5.3,0,0,0-7.956-2.329,5.264,5.264,0,0,1,7.373,2.662" fill="#444"/>
            </g>
          </g>
        </g>
        <path id="Path_823735" data-name="Path 823735" d="M116.909,121.071l10.972-6.841s-3.866-4.916-3.869-4.921a6.287,6.287,0,0,0-11.1,2.7c-.572,3.282,2.239,6.283,4,9.059" fill="#f2c8b1"/>
        <g id="Group_1073917" data-name="Group 1073917" style="mix-blend-mode: overlay;isolation: isolate">
          <g id="Group_1073916" data-name="Group 1073916">
            <g id="Group_1073915" data-name="Group 1073915" clip-path="url(#clip-path-9)">
              <path id="Path_823736" data-name="Path 823736" d="M123.427,109.717l3.847,4.891.608-.379s-3.867-4.915-3.87-4.92a6.153,6.153,0,0,0-7.951-1.589,6.277,6.277,0,0,1,7.366,2" fill="#444"/>
            </g>
          </g>
        </g>
        <path id="Path_823737" data-name="Path 823737" d="M267.548,211.375a6.855,6.855,0,0,0,3.882-7.609c.209,1.146,5.028,2.461,6.01,2.724a21.3,21.3,0,0,0,7.015.668c4.625-.33,9.266-2.116,12.019-6.012,4.212-5.961,1.065-17.091-7.678-15.576,3.261-2.1,6.943-4.669,7.49-8.844,1.042-7.95-9.141-6.8-13.513-4.07,2.13-1.33,2.279-5.347,2.558-7.533a9.669,9.669,0,0,0-3.852-9.331,21.744,21.744,0,0,0-15.734-4.287c-4.9.613-10.135,4.666-9.578,10.111-2.542-3.542-7.351-5.6-11.464-4.154a7.759,7.759,0,0,0-4.315,10.6c-.156-.313-3.625.1-3.992.1a41.861,41.861,0,0,0-4.842.246c-2.587.351-5.243,1.38-6.755,3.507-3.186,4.48.587,9.713,4.962,11.4a19.117,19.117,0,0,0,4.54,1.064c1.33.167,3.054.827,4.332.271,0,.23-.177.232-.395.308-5.323,1.867-9.656,6.47-8.939,12.428a8.282,8.282,0,0,0,2.57,5.181c2.635,2.359,6.567,2.412,10.086,2.062s7.239-.94,10.463.512c2.116.952,3.759,2.681,5.531,4.179,1.992,1.686,4.333,3.037,7.031,2.753a7.985,7.985,0,0,0,2.568-.7" fill="#fefefe"/>
        <path id="Path_823738" data-name="Path 823738" d="M288.8,185.57c3.261-2.1,6.943-4.669,7.491-8.844,1.042-7.95-9.142-6.8-13.513-4.07,2.13-1.33,2.278-5.347,2.557-7.533a9.668,9.668,0,0,0-3.852-9.331,21.743,21.743,0,0,0-15.733-4.287,12.437,12.437,0,0,0-5.848,2.406,11.927,11.927,0,0,1,2.8-.716,21.749,21.749,0,0,1,15.733,4.287,9.667,9.667,0,0,1,3.852,9.332c-.279,2.185-.426,6.2-2.557,7.532,4.372-2.73,14.555-3.879,13.513,4.07-.547,4.175-4.23,6.741-7.49,8.844,8.743-1.514,11.89,9.615,7.678,15.576a12.62,12.62,0,0,1-2.925,2.94,13.474,13.474,0,0,0,5.967-4.63c4.212-5.961,1.066-17.091-7.678-15.576" fill="#d4f7ff"/>
        <path id="Path_823739" data-name="Path 823739" d="M301.931,254.093a4.07,4.07,0,1,1-4.069-4.069,4.069,4.069,0,0,1,4.069,4.069" fill="#f3ffff"/>
        <path id="Path_823740" data-name="Path 823740" d="M301.931,254.093a4.043,4.043,0,0,0-6.077-3.52,4.056,4.056,0,0,1,3.5,7.3,4.063,4.063,0,0,0,2.581-3.779" fill="#d4f7ff"/>
        <path id="Path_823741" data-name="Path 823741" d="M300.247,154.852a5.525,5.525,0,1,1-5.524-5.524,5.524,5.524,0,0,1,5.524,5.524" fill="#f3ffff"/>
        <path id="Path_823742" data-name="Path 823742" d="M300.247,154.852a5.524,5.524,0,0,0-5.524-5.524,5.462,5.462,0,0,0-2.726.746,5.506,5.506,0,0,1,4.746,9.909,5.517,5.517,0,0,0,3.5-5.131" fill="#d4f7ff"/>
        <path id="Path_823743" data-name="Path 823743" d="M255.557,142.142a5.55,5.55,0,1,1-5.524-6.076,5.819,5.819,0,0,1,5.524,6.076" fill="#f3ffff"/>
        <path id="Path_823744" data-name="Path 823744" d="M255.557,142.142a5.819,5.819,0,0,0-5.524-6.076,5.093,5.093,0,0,0-2.726.821,5.056,5.056,0,0,1,2.021-.433,5.82,5.82,0,0,1,5.524,6.076,6.171,6.171,0,0,1-2.8,5.255,6.083,6.083,0,0,0,3.5-5.643" fill="#d4f7ff"/>
        <path id="Path_823745" data-name="Path 823745" d="M108.443,159.747a2.832,2.832,0,1,1-2.826-3.009,2.922,2.922,0,0,1,2.826,3.009" fill="#f3ffff"/>
        <path id="Path_823746" data-name="Path 823746" d="M108.443,159.747a2.922,2.922,0,0,0-2.826-3.009,2.674,2.674,0,0,0-1.395.406,2.656,2.656,0,0,1,1.034-.214,2.922,2.922,0,0,1,2.826,3.009,3.033,3.033,0,0,1-1.432,2.6,3.006,3.006,0,0,0,1.793-2.8" fill="#d4f7ff"/>
        <path id="Path_823747" data-name="Path 823747" d="M114.963,171.161a4.248,4.248,0,1,1-4.239-4.514,4.383,4.383,0,0,1,4.239,4.514" fill="#f3ffff"/>
        <path id="Path_823748" data-name="Path 823748" d="M114.963,171.161a4.383,4.383,0,0,0-4.239-4.514,4.007,4.007,0,0,0-2.092.61,3.992,3.992,0,0,1,1.551-.322,4.383,4.383,0,0,1,4.239,4.514,4.548,4.548,0,0,1-2.148,3.9,4.509,4.509,0,0,0,2.689-4.192" fill="#d4f7ff"/>
        <path id="Path_823749" data-name="Path 823749" d="M110.537,233.939a4.061,4.061,0,1,1-4.053-4.316,4.191,4.191,0,0,1,4.053,4.316" fill="#f3ffff"/>
        <path id="Path_823750" data-name="Path 823750" d="M110.537,233.939a4.191,4.191,0,0,0-4.053-4.316,3.834,3.834,0,0,0-2,.583,3.818,3.818,0,0,1,1.482-.307,4.191,4.191,0,0,1,4.054,4.315,4.348,4.348,0,0,1-2.054,3.733,4.313,4.313,0,0,0,2.571-4.008" fill="#d4f7ff"/>
        <path id="Path_823751" data-name="Path 823751" d="M275.375,146.426c-.5.974-.719,2.308.613,2.772a3.99,3.99,0,0,0,2.329-.123c2.292-.623,5.535-1.48,7.248-3.178,2.582-2.561-.483-6.6-3.78-5.481-2.667.909-5.176,3.617-6.41,6.01" fill="#f3ffff"/>
        <path id="Path_823752" data-name="Path 823752" d="M281.785,140.423a8.207,8.207,0,0,0-1.5.72,7.508,7.508,0,0,1,.717-.3c3.3-1.124,6.362,2.919,3.78,5.48a7.109,7.109,0,0,1-1.4,1.043,8.168,8.168,0,0,0,2.187-1.458c2.582-2.562-.483-6.6-3.78-5.481" fill="#d4f7ff"/>
        <path id="Path_823753" data-name="Path 823753" d="M298.619,241.628c-.587,1.183-.84,2.8.717,3.368a4.5,4.5,0,0,0,2.723-.15c2.68-.757,6.473-1.8,8.475-3.861,3.02-3.111-.564-8.022-4.419-6.658-3.119,1.1-6.053,4.394-7.5,7.3" fill="#f3ffff"/>
        <path id="Path_823754" data-name="Path 823754" d="M306.115,234.335a9.387,9.387,0,0,0-1.755.875,8.556,8.556,0,0,1,.838-.37c3.855-1.365,7.439,3.547,4.42,6.658a8.325,8.325,0,0,1-1.64,1.266,9.507,9.507,0,0,0,2.556-1.771c3.02-3.111-.564-8.023-4.419-6.658" fill="#d4f7ff"/>
        <path id="Path_823755" data-name="Path 823755" d="M98.371,209.938c.989-.439,1.995-1.328,1.308-2.5a3.681,3.681,0,0,0-1.795-1.329c-2.086-.924-5.021-2.251-7.363-2-3.53.383-3.838,5.353-.694,6.508,2.544.935,6.114.4,8.544-.684" fill="#f3ffff"/>
        <path id="Path_823756" data-name="Path 823756" d="M89.831,210.617a7.7,7.7,0,0,0,1.564.366,7.167,7.167,0,0,1-.722-.205c-3.144-1.155-2.836-6.126.694-6.509a6.767,6.767,0,0,1,1.7.059,7.8,7.8,0,0,0-2.538-.22c-3.53.383-3.838,5.354-.694,6.509" fill="#d4f7ff"/>
        <path id="Path_823757" data-name="Path 823757" d="M110.776,224.368a36.529,36.529,0,0,0-6.4-.758c-2.339-.228-4.572-1.137-5.1-3.685a4.826,4.826,0,0,1,1.19-4.183c1.825-1.971,4.768-1.587,7.182-1.1a15.964,15.964,0,0,1,9.437,5.577c2.227,2.9,3.714,8.454-.26,10.653-.86-1.258-1.042-2.833-2.137-4.074a7.834,7.834,0,0,0-3.906-2.432" fill="#f3ffff"/>
        <path id="Path_823758" data-name="Path 823758" d="M100.8,216.55c1.825-1.971,4.768-1.588,7.182-1.1a15.972,15.972,0,0,1,9.438,5.576,10.97,10.97,0,0,1,1.209,2.017,11.308,11.308,0,0,0-1.551-2.825,15.969,15.969,0,0,0-9.438-5.576c-2.414-.49-5.356-.873-7.182,1.1a4.824,4.824,0,0,0-1.19,4.182,4.34,4.34,0,0,0,.454,1.239c-.043-.138-.081-.281-.112-.431a4.825,4.825,0,0,1,1.19-4.182" fill="#d4f7ff"/>
        <path id="Path_823759" data-name="Path 823759" d="M290.292,261.3a26.933,26.933,0,0,0,4.643-.955c1.684-.384,3.452-.267,4.413,1.388a3.55,3.55,0,0,1,.139,3.193c-.817,1.8-2.958,2.212-4.755,2.43a11.731,11.731,0,0,1-7.875-1.7c-2.226-1.509-4.55-5.036-2.288-7.491.891.678,1.383,1.734,2.435,2.346a5.756,5.756,0,0,0,3.288.791" fill="#f3ffff"/>
        <path id="Path_823760" data-name="Path 823760" d="M299.061,264.44c-.816,1.8-2.958,2.212-4.755,2.43a11.731,11.731,0,0,1-7.875-1.7,8.035,8.035,0,0,1-1.312-1.126,8.316,8.316,0,0,0,1.738,1.611,11.731,11.731,0,0,0,7.875,1.7c1.8-.218,3.938-.633,4.755-2.431a3.548,3.548,0,0,0-.139-3.192,3.222,3.222,0,0,0-.6-.76c.062.087.121.178.178.275a3.547,3.547,0,0,1,.139,3.193" fill="#d4f7ff"/>
        <path id="Path_823761" data-name="Path 823761" d="M287.44,138.22a27.515,27.515,0,0,0-4.643-1.369c-1.7-.463-3.24-1.418-3.311-3.37a3.621,3.621,0,0,1,1.409-2.945c1.6-1.228,3.728-.573,5.452.094a11.976,11.976,0,0,1,6.28,5.316c1.282,2.429,1.681,6.725-1.536,7.85-.477-1.039-.414-2.227-1.067-3.284a5.881,5.881,0,0,0-2.584-2.292" fill="#f3ffff"/>
        <path id="Path_823762" data-name="Path 823762" d="M281.046,131.177c1.6-1.228,3.727-.573,5.452.094a11.984,11.984,0,0,1,6.28,5.316,8.31,8.31,0,0,1,.641,1.645,8.522,8.522,0,0,0-.792-2.286,11.99,11.99,0,0,0-6.28-5.317c-1.725-.667-3.854-1.321-5.452-.093a3.617,3.617,0,0,0-1.409,2.944,3.319,3.319,0,0,0,.179.975c-.014-.108-.024-.219-.028-.333a3.618,3.618,0,0,1,1.409-2.945" fill="#d4f7ff"/>
        <path id="Path_823763" data-name="Path 823763" d="M169.018,160.962a6.854,6.854,0,0,0-8.44,1.319c.807-.842-.955-5.516-1.318-6.465a21.288,21.288,0,0,0-3.574-6.074c-2.979-3.552-7.148-6.264-11.918-6.209-7.3.085-14.468,9.161-8.113,15.355-3.615-1.408-7.853-2.886-11.556-.88-7.05,3.818-.146,11.392,4.629,13.331-2.327-.945-5.667,1.291-7.6,2.347a9.669,9.669,0,0,0-5.3,8.593,21.751,21.751,0,0,0,5.756,15.258c3.37,3.609,9.724,5.472,13.807,1.827-1.378,4.136-.224,9.237,3.359,11.721a7.758,7.758,0,0,0,11.118-2.723c-.162.31,2.2,2.88,2.424,3.173a41.966,41.966,0,0,0,3.039,3.779c1.8,1.888,4.192,3.436,6.8,3.414,5.5-.048,7.522-6.173,6.324-10.707a19.171,19.171,0,0,0-1.8-4.3c-.646-1.175-1.122-2.958-2.322-3.668.188-.132.292.008.481.14,4.634,3.216,10.9,4.026,15.308-.049a8.282,8.282,0,0,0,2.69-5.121c.366-3.517-1.9-6.733-4.245-9.378s-5.007-5.312-5.723-8.775c-.469-2.272-.033-4.617.142-6.931.2-2.6-.082-5.29-1.894-7.309a8.006,8.006,0,0,0-2.077-1.667" fill="#fefefe"/>
        <path id="Path_823764" data-name="Path 823764" d="M135.656,158.888c-3.616-1.408-7.854-2.885-11.556-.88-7.05,3.818-.146,11.392,4.628,13.332-2.326-.945-5.667,1.291-7.6,2.347a9.668,9.668,0,0,0-5.3,8.592,21.743,21.743,0,0,0,5.755,15.258,12.443,12.443,0,0,0,5.379,3.325,11.979,11.979,0,0,1-2.226-1.852,21.753,21.753,0,0,1-5.755-15.258,9.669,9.669,0,0,1,5.3-8.593c1.934-1.055,5.274-3.292,7.6-2.346-4.775-1.94-11.679-9.514-4.629-13.332,3.7-2.006,7.941-.528,11.556.88-6.355-6.194.814-15.27,8.113-15.355a12.66,12.66,0,0,1,4.1.645,13.482,13.482,0,0,0-7.25-2.118c-7.3.085-14.467,9.161-8.112,15.355" fill="#d4f7ff"/>
        <path id="Path_823765" data-name="Path 823765" d="M256.551,220.946c-1.634-2.855-6.158-2.505-7.553.341a5.291,5.291,0,0,0-.185,3.926,8.177,8.177,0,0,0,2.2,3.324c-1.085-1.034-2.363-.528-3.2.515a4.949,4.949,0,0,0-.879,4.217,10.723,10.723,0,0,0,2.126,4.06c-.311-.4-2.1.763-2.442.926-3.011,1.418-6.918,4.694-4.869,8.507a4.127,4.127,0,0,0,5.087,1.921c-3.033,1.248-5.657,3.152-4.852,6.793a4.984,4.984,0,0,0,2.05,3.257,5.391,5.391,0,0,0,3.641.488,7.786,7.786,0,0,0,5.365-3.087,3.614,3.614,0,0,0,.992,3.069,9.677,9.677,0,0,0,7.218,3.5,9.983,9.983,0,0,0,6.424-2.34c1.571-1.249,3.806-2.792,3.68-5.085.22,4,13.888-1,15.679-1.961a7.479,7.479,0,0,0,2.678-2.106,4.306,4.306,0,0,0-2.2-6.592c1.916-.293,6.623-1.19,7.409-3.33a2.189,2.189,0,0,0-.008-1.265,6.065,6.065,0,0,0-3.682-4.161,7.043,7.043,0,0,0,4.365-2.455,5.936,5.936,0,0,0,1.25-4.842c-.439-2.139-2.958-3.411-4.933-3.7a4.828,4.828,0,0,0-3.771.936c.718-.6-.358-3.588-.723-4.224-.925-1.614-2.689-2.356-4.347-1.239a7.17,7.17,0,0,0-1.9,2.167c.772-1.2-.235-4.022-.765-5.2a8.251,8.251,0,0,0-14.637-.99c-.914-1.626-2.709-3.166-4.664-3.11-1.982.056-3.539,1.654-4.359,3.341a5.209,5.209,0,0,0-.2,4.4" fill="#fefefe"/>
        <path id="Path_823766" data-name="Path 823766" d="M278.939,218.64c.53,1.177,1.537,4,.764,5.2a7.842,7.842,0,0,1,1.648-1.979c.315-1.362-.513-3.646-.976-4.674a8.246,8.246,0,0,0-14.09-1.776,8.262,8.262,0,0,1,12.654,3.23" fill="#d4f7ff"/>
        <path id="Path_823767" data-name="Path 823767" d="M289.764,237.2a6.065,6.065,0,0,1,3.682,4.161,2.193,2.193,0,0,1,.009,1.266c-.011.029-.026.058-.038.087a3.251,3.251,0,0,0,1.474-1.542,2.189,2.189,0,0,0-.008-1.265,6.081,6.081,0,0,0-2.59-3.6,7.423,7.423,0,0,1-2.529.9" fill="#d4f7ff"/>
        <path id="Path_823768" data-name="Path 823768" d="M288.816,248.692a4.385,4.385,0,0,1-.456,3.678,5.569,5.569,0,0,0,1.32-1.279,4.286,4.286,0,0,0-.7-5.743,27.266,27.266,0,0,1-2.932.6,4.382,4.382,0,0,1,2.771,2.739" fill="#d4f7ff"/>
        <path id="Path_823769" data-name="Path 823769" d="M291.883,224.744a4.824,4.824,0,0,0-3.771.936c.718-.6-.358-3.588-.723-4.224-.925-1.614-2.689-2.357-4.347-1.239a5.736,5.736,0,0,0-1.4,1.434c1.649-1.087,3.4-.345,4.316,1.259.365.637,1.44,3.626.723,4.224a4.828,4.828,0,0,1,3.771-.936c1.975.291,4.494,1.563,4.933,3.7a5.9,5.9,0,0,1-1.016,4.531,6.534,6.534,0,0,0,1.2-1.143,5.937,5.937,0,0,0,1.25-4.843c-.438-2.139-2.958-3.41-4.933-3.7" fill="#d4f7ff"/>
        <path id="Path_823770" data-name="Path 823770" d="M135.721,226.2c-1.634-2.855-6.158-2.5-7.553.341a5.291,5.291,0,0,0-.185,3.926,8.167,8.167,0,0,0,2.2,3.324c-1.086-1.034-2.363-.528-3.2.515a4.948,4.948,0,0,0-.879,4.216,10.719,10.719,0,0,0,2.126,4.061c-.311-.4-2.1.763-2.442.926-3.011,1.418-6.918,4.694-4.869,8.507a4.127,4.127,0,0,0,5.087,1.921c-3.033,1.248-5.657,3.152-4.852,6.793a4.984,4.984,0,0,0,2.05,3.257,5.391,5.391,0,0,0,3.641.488,7.786,7.786,0,0,0,5.365-3.087,3.614,3.614,0,0,0,.992,3.069,9.677,9.677,0,0,0,7.218,3.5,9.988,9.988,0,0,0,6.424-2.34c1.571-1.249,3.806-2.792,3.68-5.085.22,4,13.888-1,15.679-1.961a7.471,7.471,0,0,0,2.678-2.107,4.3,4.3,0,0,0-2.2-6.591c1.916-.293,6.623-1.19,7.41-3.33a2.19,2.19,0,0,0-.009-1.265,6.065,6.065,0,0,0-3.682-4.161,7.04,7.04,0,0,0,4.365-2.455,5.936,5.936,0,0,0,1.25-4.842c-.438-2.139-2.958-3.411-4.933-3.7a4.828,4.828,0,0,0-3.771.936c.718-.6-.358-3.588-.723-4.224-.925-1.614-2.689-2.356-4.347-1.239a7.169,7.169,0,0,0-1.9,2.167c.772-1.2-.235-4.022-.765-5.2a8.251,8.251,0,0,0-14.637-.99c-.914-1.626-2.709-3.166-4.664-3.11-1.982.056-3.539,1.654-4.359,3.341a5.209,5.209,0,0,0-.2,4.4" fill="#fefefe"/>
        <path id="Path_823771" data-name="Path 823771" d="M132.184,233.155a8.187,8.187,0,0,1-2.2-3.324,5.286,5.286,0,0,1,.186-3.926,3.982,3.982,0,0,1,1.658-1.717,4.317,4.317,0,0,0-3.656,2.3,5.287,5.287,0,0,0-.186,3.926,7.69,7.69,0,0,0,1.589,2.68,1.865,1.865,0,0,1,2.612.056" fill="#d4f7ff"/>
        <path id="Path_823772" data-name="Path 823772" d="M125.21,263.351a4.988,4.988,0,0,1-2.05-3.257c-.805-3.641,1.82-5.545,4.852-6.793a4.125,4.125,0,0,1-5.086-1.921c-2.05-3.813,1.857-7.09,4.868-8.508.345-.162,2.131-1.33,2.442-.925a10.7,10.7,0,0,1-2.125-4.061,4.947,4.947,0,0,1,.878-4.216,3.592,3.592,0,0,1,.392-.414,2.286,2.286,0,0,0-2.39,1,4.951,4.951,0,0,0-.879,4.216,10.727,10.727,0,0,0,2.126,4.061c-.311-.406-2.1.763-2.442.925-3.011,1.418-6.918,4.695-4.868,8.508a4.126,4.126,0,0,0,5.086,1.921c-3.033,1.248-5.657,3.151-4.852,6.792a4.984,4.984,0,0,0,2.05,3.258,5.391,5.391,0,0,0,3.641.488,9.554,9.554,0,0,0,2.293-.645c-.1.018-.2.042-.295.057a5.391,5.391,0,0,1-3.641-.488" fill="#d4f7ff"/>
        <path id="Path_823773" data-name="Path 823773" d="M285.2,266.9c-4.73-7.539-10.893-14.269-15.844-21.692a52.988,52.988,0,0,1-6.737-13.478c-2.369-7.535-3.255-16.023-3.586-24.573-.118-3.059-.17-6.126-.186-9.161a78.861,78.861,0,0,1,5.065-28.191l7.465-19.85a7.612,7.612,0,0,0,.525-2.564c.079-5.982-2.625-7.879-5.443-8.242a7.255,7.255,0,0,0-3.76.541,8.476,8.476,0,0,0-4.2,3.906l-16.589,32.058a2.166,2.166,0,0,1-4.089-1.068L239.793,116c.027-.508,0-.941.01-1.422.33-19.064-13.855-17.135-13.855-17.135a6.4,6.4,0,0,1-.144,1.439l-1.554,15.564c-.193,10.039-7.6,34.8-9.536,41.086a2.28,2.28,0,0,1-4.438-.382s-6.38-48.591-6.38-48.78c-.891-16.717-10.213-14.942-10.213-14.942-10.51.444-10.806,12.138-10.806,12.138l.082,2.446,1.7,50.779a2.309,2.309,0,0,1-4.35,1.153c-5.553-10.551-11.383-20.958-16.632-31.667-.024-.049-.048-.1-.073-.153-2.76-5.683-5.422-14.031-12.875-14.551-11.644-.811-9.362,12.642-6.617,21.444.587,1.883,1.194,3.564,1.692,4.835,2.43,6.2,5.406,12.179,7.891,18.361,4.27,10.628,8.056,21.443,9.4,32.838.349,4.169.943,9.082-.524,13.085-.795,2.168-2.39,5.432-4.857,6.193a3.546,3.546,0,0,1-1.853.117,7.471,7.471,0,0,1-2.338-1.078c-2-1.252-3.849-2.715-5.812-4.016-2.022-1.339-4.249-2.268-6.1-3.861-2.473-2.128-4.16-5.006-6.3-7.47-4.4-5.074-10.342-7.621-16.743-9.123a54.787,54.787,0,0,0-5.867-1.04c-1.023-.125-2.053-.228-3.083-.275-.053,0-.107-.008-.16-.007-12.583.239-13.427,8.239-13.293,11.279a2.318,2.318,0,0,0,.963,1.772c5.2,3.817,32.923,24.364,39.881,33.912,1.031,1.415,2.054,2.834,3.211,4.15a223.77,223.77,0,0,0,16.855,17.476,123.5,123.5,0,0,0,9.832,8.156c4.484,3.316,9.283,6.329,14.791,7.433,7.2,1.442,13.867,3.588,20.118,7.548,6.8,4.3,11.858,10.242,16.6,16.506,2.141,2.827,4.224,5.714,6.361,8.559q7.593,10.107,15.187,20.213l.273.364h77.492c-8.585-13.311-24.168-38.716-32.532-52.045" fill="#f8af76"/>
        <g id="Group_1073920" data-name="Group 1073920" style="mix-blend-mode: overlay;isolation: isolate">
          <g id="Group_1073919" data-name="Group 1073919">
            <g id="Group_1073918" data-name="Group 1073918" clip-path="url(#clip-path-10)">
              <path id="Path_823774" data-name="Path 823774" d="M182.959,106.017c-.6-1.852-1.315-4.065-2.081-6.436l1.932,57.683a2.6,2.6,0,0,1-.758,1.9,2.282,2.282,0,0,0,.718-.016,2.307,2.307,0,0,0,1.89-2.348Z" fill="#686868"/>
            </g>
          </g>
        </g>
        <g id="Group_1073923" data-name="Group 1073923" style="mix-blend-mode: overlay;isolation: isolate">
          <g id="Group_1073922" data-name="Group 1073922">
            <g id="Group_1073921" data-name="Group 1073921" clip-path="url(#clip-path-11)">
              <path id="Path_823775" data-name="Path 823775" d="M224.1,46.882c-1.1-3.817-5.314-7.492-9.4-7.554a14.785,14.785,0,0,0-1.562.062c3.923.342,7.842,3.834,8.891,7.492.6,2.082,1.621,43.2,1.844,50.566l-.144,1.439-1.554,15.564c-.193,10.039-7.6,34.8-9.536,41.086a2.237,2.237,0,0,1-1.121,1.319,2.23,2.23,0,0,0,1.2.276,2.266,2.266,0,0,0,2-1.6c1.931-6.29,9.343-31.047,9.536-41.086L225.8,98.887l.144-1.439c-.222-7.363-1.247-48.484-1.844-50.566" fill="#686868"/>
            </g>
          </g>
        </g>
        <g id="Group_1073926" data-name="Group 1073926" style="mix-blend-mode: overlay;isolation: isolate">
          <g id="Group_1073925" data-name="Group 1073925">
            <g id="Group_1073924" data-name="Group 1073924" clip-path="url(#clip-path-12)">
              <path id="Path_823776" data-name="Path 823776" d="M271.339,67.926a7.688,7.688,0,0,0-2.621-3.577,7.753,7.753,0,0,1,1.289,2.245c1.107,3.113,1.544,7.816.352,14.919l-9,56.847a8.474,8.474,0,0,0-4.2,3.906l-16.589,32.058a2.164,2.164,0,0,1-2.445,1.107c-.073-.018-.129-.063-.2-.087a2.163,2.163,0,0,0,3.976.312L258.5,143.6a8.474,8.474,0,0,1,4.2-3.906l9-56.847c1.192-7.1.755-11.805-.352-14.919" fill="#686868"/>
            </g>
          </g>
        </g>
        <g id="Group_1073929" data-name="Group 1073929" style="mix-blend-mode: overlay;isolation: isolate">
          <g id="Group_1073928" data-name="Group 1073928">
            <g id="Group_1073927" data-name="Group 1073927" clip-path="url(#clip-path-13)">
              <path id="Path_823777" data-name="Path 823777" d="M163.093,189.151c-1.341-11.4-5.127-22.211-9.4-32.839-2.485-6.181-5.461-12.157-7.891-18.36-.5-1.271-1.1-2.953-1.692-4.835l-4.36-6.455c.613,1.928,1.237,3.657,1.755,4.98,2.726,6.961,6.067,13.667,8.854,20.6,4.792,11.926,9.041,24.062,10.546,36.85.392,4.678,1.058,10.19-.589,14.683a17.986,17.986,0,0,1-2.392,4.554c2.341-.883,3.871-3.995,4.642-6.1,1.467-4,.874-8.916.524-13.085" fill="#686868"/>
            </g>
          </g>
        </g>
        <g id="Group_1073932" data-name="Group 1073932" style="mix-blend-mode: overlay;isolation: isolate">
          <g id="Group_1073931" data-name="Group 1073931">
            <g id="Group_1073930" data-name="Group 1073930" clip-path="url(#clip-path-14)">
              <path id="Path_823778" data-name="Path 823778" d="M228.626,295.714c-2.138-2.845-4.22-5.732-6.362-8.559-4.744-6.263-9.806-12.2-16.6-16.506-6.251-3.96-12.921-6.106-20.117-7.548-5.509-1.1-10.306-4.117-14.791-7.433a123.525,123.525,0,0,1-9.832-8.155,223.6,223.6,0,0,1-16.855-17.477c-1.156-1.315-2.179-2.734-3.211-4.15-6.957-9.548-34.677-30.094-39.881-33.912a2.312,2.312,0,0,1-.962-1.772,10.42,10.42,0,0,1,2.4-7.316,9.864,9.864,0,0,0-6.251,9.98,2.318,2.318,0,0,0,.963,1.773c5.2,3.817,32.922,24.364,39.882,33.912,1.03,1.415,2.053,2.834,3.209,4.149a223.977,223.977,0,0,0,16.855,17.477,123.449,123.449,0,0,0,9.832,8.155c4.485,3.317,9.284,6.33,14.791,7.434,7.2,1.442,13.868,3.588,20.118,7.548,6.8,4.3,11.858,10.242,16.6,16.506,2.142,2.827,4.224,5.714,6.362,8.559q7.593,10.105,15.187,20.213.135.183.272.364h4.327c-.364-1.526-.709-2.971-.752-3.028l-15.185-20.214" fill="#6b6b6b"/>
            </g>
          </g>
        </g>
        <path id="Path_823779" data-name="Path 823779" d="M115.112,201.09a6.787,6.787,0,0,0-1.046-5.522,8.6,8.6,0,0,0-1.922-1.89c-.5-.371-1.025-.708-1.546-1.029-2.5-1.533-5.247-2.734-8.225-2.1a8.288,8.288,0,0,0-5.344,3.752c-.047.076-.066.116-.1.182,2.536,1.866,8.346,6.188,14.867,11.325,1.767-.354,2.769-2.5,3.32-4.717" fill="#f9d9ca"/>
        <g id="Group_1073935" data-name="Group 1073935" style="mix-blend-mode: overlay;isolation: isolate">
          <g id="Group_1073934" data-name="Group 1073934">
            <g id="Group_1073933" data-name="Group 1073933" clip-path="url(#clip-path-15)">
              <path id="Path_823780" data-name="Path 823780" d="M102.129,191.37c3.037-.66,5.842.591,8.389,2.189.533.334,1.069.685,1.578,1.072a8.848,8.848,0,0,1,1.96,1.97,7.12,7.12,0,0,1,1.205,3.5,6.769,6.769,0,0,0-1.179-4.534,8.623,8.623,0,0,0-1.922-1.891c-.5-.371-1.025-.708-1.546-1.028-2.5-1.534-5.247-2.735-8.225-2.1a8.285,8.285,0,0,0-5.345,3.751c-.046.076-.065.116-.1.182l.214.158a8.445,8.445,0,0,1,4.974-3.27" fill="#2d2d2d"/>
            </g>
          </g>
        </g>
        <path id="Path_823781" data-name="Path 823781" d="M321.789,192.977c1.423-.868,2.943-1.561,3.871-3.015a6.181,6.181,0,0,0,.955-4.127c-3.76.106-8.327,2.218-10.83,3.539a3.287,3.287,0,0,0-1.377,4.529,5.744,5.744,0,0,0,2.5,2.148c.4-.26.8-.53,1.21-.788q1.826-1.159,3.674-2.286" fill="#f9d9ca"/>
        <g id="Group_1073938" data-name="Group 1073938" style="mix-blend-mode: overlay;isolation: isolate">
          <g id="Group_1073937" data-name="Group 1073937">
            <g id="Group_1073936" data-name="Group 1073936" clip-path="url(#clip-path-16)">
              <path id="Path_823782" data-name="Path 823782" d="M314.9,194.254a3.288,3.288,0,0,1,1.379-4.529c2.4-1.268,6.7-3.246,10.362-3.5-.008-.129,0-.258-.014-.387-3.76.106-8.328,2.22-10.83,3.541a3.288,3.288,0,0,0-1.378,4.529,5.263,5.263,0,0,0,1.7,1.693,5.046,5.046,0,0,1-1.217-1.348" fill="#2d2d2d"/>
            </g>
          </g>
        </g>
      </g>
    </g>
  </g>
</svg>
