<svg xmlns="http://www.w3.org/2000/svg" xmlns:xlink="http://www.w3.org/1999/xlink" width="169" height="174" viewBox="0 0 169 174">
  <defs>
    <clipPath id="clip-path">
      <rect id="Rectangle_378276" data-name="Rectangle 378276" width="135.653" height="168.5" fill="none"/>
    </clipPath>
    <clipPath id="clip-path-3">
      <rect id="Rectangle_378242" data-name="Rectangle 378242" width="7.537" height="13.12" fill="none"/>
    </clipPath>
    <clipPath id="clip-path-4">
      <rect id="Rectangle_378243" data-name="Rectangle 378243" width="7.306" height="9.411" fill="none"/>
    </clipPath>
    <clipPath id="clip-path-5">
      <path id="Path_825306" data-name="Path 825306" d="M80.551,40.058a5.215,5.215,0,0,0-.148,1.406c.083,2.479.727,6.744.848,7.47s1.173,4.94,1.58,7.034,1.056,6.594,1.058,6.967.07,2.079.158,2.627a.743.743,0,0,1,.011.108c-.017.66-.693,2.37-.6,2.766a27.666,27.666,0,0,0,1.372,2.683l.129.921a1.2,1.2,0,0,0,.379.534.365.365,0,0,0,.422-.008c.5-.322.463-1.493.243-1.923a7.981,7.981,0,0,1-.627-1.757c.008-.212.715-.415.715-.415l.877,1.749s1.738,2.975,1.894,3.234a.98.98,0,0,0,1.127.1.788.788,0,0,0,.976.394c.367-.207-.073-1.02-.073-1.02s.928.244,1.034.025a4.551,4.551,0,0,0-.279-1.364,3.533,3.533,0,0,0,.625.26h.056c.139,0,.392,0,.417-.249a.152.152,0,0,0-.008-.049c-.116-.531-2.018-4.062-2.11-4.345-.1-.3-1.982-1.561-2.589-2.395s-.1-10.312-.44-13.744A17.99,17.99,0,0,0,85.8,44.643c-.721-1.792-1.051-3.355-2.085-6.131l-1.669-1.241a6.318,6.318,0,0,0-1.5,2.787" transform="translate(-80.401 -37.271)" fill="none"/>
    </clipPath>
    <linearGradient id="linear-gradient" x1="-6.997" y1="3.334" x2="-6.909" y2="3.334" gradientUnits="objectBoundingBox">
      <stop offset="0" stop-color="#feb9b8"/>
      <stop offset="0.049" stop-color="#feb9b8"/>
      <stop offset="0.992" stop-color="#fea5a4"/>
      <stop offset="1" stop-color="#fea5a4"/>
    </linearGradient>
    <clipPath id="clip-path-7">
      <rect id="Rectangle_378246" data-name="Rectangle 378246" width="4.067" height="25.611" fill="none"/>
    </clipPath>
    <clipPath id="clip-path-8">
      <rect id="Rectangle_378247" data-name="Rectangle 378247" width="7.851" height="6.882" fill="none"/>
    </clipPath>
    <clipPath id="clip-path-9">
      <path id="Path_825314" data-name="Path 825314" d="M64.234,24.982a10.581,10.581,0,0,1,.878,2.14,8.094,8.094,0,0,1,.32,2.443c-.01.2-.019.388-.03.562-.07,1.106-1.01,1.77-.362,3.019s5.376,5.829,8.473,4.481,1.968-5.4,1.657-6.43a4.653,4.653,0,0,0-1.262-2.321c-.424-.207-2.922-4.837-2.922-4.837l-6.5-.552Z" transform="translate(-64.234 -23.488)" fill="none"/>
    </clipPath>
    <linearGradient id="linear-gradient-2" x1="-5.913" y1="8.847" x2="-5.821" y2="8.847" xlink:href="#linear-gradient"/>
    <clipPath id="clip-path-11">
      <rect id="Rectangle_378250" data-name="Rectangle 378250" width="8.509" height="7.409" fill="none"/>
    </clipPath>
    <clipPath id="clip-path-12">
      <path id="Path_825316" data-name="Path 825316" d="M65.064,18.535c-1.282,2.856-1.826,4.669-1.271,6.525a15.632,15.632,0,0,0,2.6,5.011,20.156,20.156,0,0,0,5.531,2.1,3.628,3.628,0,0,0,1.284-.07,3.689,3.689,0,0,0,1.07-.5c.863-.555,1.565-4.19,1.268-6.473a25.991,25.991,0,0,0-.642-3.3,10.079,10.079,0,0,0-.547-1.625c-.386-.841-.465-2.379-2.691-3a13.535,13.535,0,0,0-3.431-.641,3.17,3.17,0,0,0-3.169,1.967" transform="translate(-63.576 -16.568)" fill="none"/>
    </clipPath>
    <linearGradient id="linear-gradient-3" x1="-5.724" y1="9.274" x2="-5.633" y2="9.274" xlink:href="#linear-gradient"/>
    <clipPath id="clip-path-14">
      <rect id="Rectangle_378253" data-name="Rectangle 378253" width="3.216" height="10.27" fill="none"/>
    </clipPath>
    <clipPath id="clip-path-15">
      <rect id="Rectangle_378254" data-name="Rectangle 378254" width="0.8" height="2.06" fill="none"/>
    </clipPath>
    <clipPath id="clip-path-16">
      <path id="Path_825320" data-name="Path 825320" d="M58.279,36.368a2.726,2.726,0,0,0-.618.923V37.3a15.5,15.5,0,0,0-.7,7.175c.387,2.8,1.7,7.264,1.847,9.328s1.166,6.331,2.153,7.373S71.33,68.1,72.516,68.809s3.338,1.817,3.637,2.536.677,1.287.8,1.557,2.085,2.178,2.085,2.178,1.739,2.8,2.5,2.879c.342.036.534-.056.615-.2a.654.654,0,0,0-.064-.625c-.2-.356-1.43-1.968-1.43-1.968L79.879,73.7l1.693,1.17s3.275,2.646,3.8,2.655a.809.809,0,0,0,.745-.647s.029.031.079.089a5.069,5.069,0,0,0,.387.387.1.1,0,0,1,.033.026c.312.275.753.558,1.094.385a.563.563,0,0,0,.343-.575s-.006,0-.006-.011a.9.9,0,0,0-.138-.39l-.073-.1-.007-.006-1.264-1.751a.686.686,0,0,0-.122-.71,3.99,3.99,0,0,0-.936-.81l-.289-.748-2.01-2.343a31.294,31.294,0,0,0-3.043-1.551,4.844,4.844,0,0,1-1.108-.486s-7.009-5.142-8.087-6.014c-.917-.742-3.881-3.665-4.755-4.526l-.247-.241s-.729-3.959-.955-4.887c-.031-.13-.064-.328-.1-.581-.253-1.532-.643-4.919-.658-5.367a10.007,10.007,0,0,0-1.034-4,37.874,37.874,0,0,1-1.7-5.413,3.052,3.052,0,0,0-2.146-1.345,1.579,1.579,0,0,0-1.095.461" transform="translate(-56.831 -35.907)" fill="none"/>
    </clipPath>
    <linearGradient id="linear-gradient-4" x1="-2.036" y1="2.927" x2="-1.999" y2="2.927" xlink:href="#linear-gradient"/>
    <clipPath id="clip-path-18">
      <rect id="Rectangle_378257" data-name="Rectangle 378257" width="25.32" height="40.665" fill="none"/>
    </clipPath>
    <clipPath id="clip-path-19">
      <rect id="Rectangle_378258" data-name="Rectangle 378258" width="6.242" height="4.385" fill="none"/>
    </clipPath>
    <clipPath id="clip-path-20">
      <rect id="Rectangle_378259" data-name="Rectangle 378259" width="0.386" height="0.387" fill="none"/>
    </clipPath>
    <clipPath id="clip-path-21">
      <rect id="Rectangle_378260" data-name="Rectangle 378260" width="5.448" height="4.881" fill="none"/>
    </clipPath>
    <clipPath id="clip-path-22">
      <rect id="Rectangle_378261" data-name="Rectangle 378261" width="1.335" height="5.708" fill="none"/>
    </clipPath>
    <clipPath id="clip-path-23">
      <path id="Path_825328" data-name="Path 825328" d="M62.636,24.024a1.9,1.9,0,0,0,.573,2.247c.879.737,1.415,1.077,2.016.919.268-.069.067-.639-.075-.984s-.978-1.269-1.3-1.945a.919.919,0,0,0-.745-.6.506.506,0,0,0-.471.367" transform="translate(-62.485 -23.657)" fill="none"/>
    </clipPath>
    <linearGradient id="linear-gradient-5" x1="-22.577" y1="36.973" x2="-22.215" y2="36.973" xlink:href="#linear-gradient"/>
    <clipPath id="clip-path-25">
      <rect id="Rectangle_378264" data-name="Rectangle 378264" width="8.164" height="60.068" fill="none"/>
    </clipPath>
    <clipPath id="clip-path-26">
      <rect id="Rectangle_378265" data-name="Rectangle 378265" width="9.121" height="43.121" fill="none"/>
    </clipPath>
    <clipPath id="clip-path-27">
      <path id="Path_825346" data-name="Path 825346" d="M59.052,37.715c-.286.024-.534.829-.411,1.509a21.625,21.625,0,0,1,.191,2.4v.024c.01.188.017.324.017.388a23.718,23.718,0,0,1-1,2.567l.749,1.982-.119.251-.086.178-.371.783-.092.193s-.136-.7-.3-1.615a.127.127,0,0,1-.01-.037,41.4,41.4,0,0,1-.639-4.3l-.185-.071-3.91-1.517a37.818,37.818,0,0,0-3.033,5.488v.007a2.163,2.163,0,0,0-.15.642c-.044,1.343,1.632,7.315,1.755,7.71s1.366,2.934,3.037,3.015,3.02-.391,4.982-2.642a10.688,10.688,0,0,0,2.393-4.815c.035-.129.071-.248.11-.357a1.723,1.723,0,0,1,1.138-1.156s.144-.22.311-.528c.108-.2.22-.428.33-.648a2.435,2.435,0,0,0,.186-1.2l.477-.745L64.239,44a1.476,1.476,0,0,0-.038-.973,4.167,4.167,0,0,0-1.718-1.8,5.114,5.114,0,0,0-1.064-.064,2.192,2.192,0,0,1-.691-.017c0-.079-.272-1.381-.272-1.381s-.225-.724-.371-1.327a.951.951,0,0,0-.183-.369,1.072,1.072,0,0,0-.8-.356l-.051,0" transform="translate(-49.71 -37.713)" fill="none"/>
    </clipPath>
    <linearGradient id="linear-gradient-6" x1="-4.009" y1="6.279" x2="-3.928" y2="6.279" xlink:href="#linear-gradient"/>
    <clipPath id="clip-path-29">
      <rect id="Rectangle_378268" data-name="Rectangle 378268" width="13.725" height="11.378" fill="none"/>
    </clipPath>
    <clipPath id="clip-path-30">
      <path id="Path_825349" data-name="Path 825349" d="M42.373,11.835c-.081.934-.249,4.932-1.048,6.835s-3.032,3.556-3.237,3.955,2,1.307,3.593,1.858c1.357.471,6.193,1.9,7.614,2.178.254.055.4.066.394.026a16.326,16.326,0,0,1,.756-3.555,4.213,4.213,0,0,0,1.324,0,1.612,1.612,0,0,0,.238-.147,11.135,11.135,0,0,0,2.685-2.75c.471-.989,1.652-4.96,1.652-4.96l.827-2.178a24.351,24.351,0,0,0,1.184-5.29c.058-1.956-.135-.66-1.68-2.346a1.1,1.1,0,0,0-.826-.256c-3.238,0-13.4,5.785-13.478,6.627" transform="translate(-38.075 -5.208)" fill="none"/>
    </clipPath>
    <linearGradient id="linear-gradient-7" x1="-2.2" y1="7.542" x2="-2.142" y2="7.542" xlink:href="#linear-gradient"/>
    <clipPath id="clip-path-32">
      <rect id="Rectangle_378271" data-name="Rectangle 378271" width="1.356" height="9.737" fill="none"/>
    </clipPath>
    <clipPath id="clip-path-33">
      <rect id="Rectangle_378272" data-name="Rectangle 378272" width="0.821" height="4.371" fill="none"/>
    </clipPath>
    <clipPath id="clip-path-34">
      <rect id="Rectangle_378273" data-name="Rectangle 378273" width="2.885" height="4.398" fill="none"/>
    </clipPath>
    <clipPath id="clip-path-35">
      <rect id="Rectangle_378274" data-name="Rectangle 378274" width="2.712" height="6.987" fill="none"/>
    </clipPath>
  </defs>
  <g id="Group_1075360" data-name="Group 1075360" transform="translate(-385.5 -2057.999)">
    <g id="Group_159182" data-name="Group 159182" transform="translate(385.5 2057.999)">
      <path id="Union_12" data-name="Union 12" d="M84.5,0A84.5,84.5,0,1,1,0,84.5,84.5,84.5,0,0,1,84.5,0Z" transform="translate(0 0)" fill="#ffae7e"/>
    </g>
    <g id="Group_1074482" data-name="Group 1074482" transform="translate(399.96 2063.499)">
      <g id="Group_1074481" data-name="Group 1074481" clip-path="url(#clip-path)">
        <g id="Group_1074401" data-name="Group 1074401">
          <g id="Group_1074400" data-name="Group 1074400" clip-path="url(#clip-path)">
            <path id="Path_825279" data-name="Path 825279" d="M140.08,97.612" transform="translate(-4.428 3.062)" fill="#f1d8ff"/>
            <path id="Path_825280" data-name="Path 825280" d="M54.538,128.972c-8.673,5.007-22.777,4.982-31.5-.057s-8.771-13.182-.1-18.189,22.778-4.981,31.5.057,8.772,13.182.1,18.189" transform="translate(3.149 20.47)" fill="#e68e59"/>
            <path id="Path_825281" data-name="Path 825281" d="M106.746,113.235c-7,4.042-18.387,4.022-25.431-.045s-7.08-10.641-.08-14.683,18.387-4.022,25.431.045,7.08,10.641.08,14.683" transform="translate(14.543 18.27)" fill="#e68e59"/>
            <path id="Path_825282" data-name="Path 825282" d="M79.59,109.211l25.337-14.628c.988-.571.863-1.575-.278-2.234L77.32,76.569a4.316,4.316,0,0,0-3.868-.16L48.114,91.038c-.988.569-.863,1.575.278,2.234L75.721,109.05a4.315,4.315,0,0,0,3.869.161" transform="translate(9.078 14.546)" fill="#e68e59"/>
            <path id="Path_825283" data-name="Path 825283" d="M97.992,74.8l-.371-1.6a5.116,5.116,0,0,0-2.152-3.1L73.91,57.656l.942-1.632,21.56,12.447a7.043,7.043,0,0,1,3.045,4.308l.371,1.6Z" transform="translate(14.142 10.719)" fill="#006dff"/>
            <path id="Path_825284" data-name="Path 825284" d="M76.345,116.545a2.722,2.722,0,0,1-1.352-.4L52.44,103.128a2.73,2.73,0,0,1,0-4.728l17.83-10.294-16.86-9.734a5.424,5.424,0,0,1-2.493-4.305V71.333l-2.752-26.4,26.5-15.3,2.833,27.223,0,2.819a3.787,3.787,0,0,0,1.663,2.866L100.747,75a5.422,5.422,0,0,1,2.493,4.3V99.857a2.077,2.077,0,0,1-3.324,1.9L76.648,88.327a3.455,3.455,0,0,0-3.025-.2l2.2,1.27a5.423,5.423,0,0,1,2.495,4.3v20.548A2.262,2.262,0,0,1,77.3,116.3a1.887,1.887,0,0,1-.953.248M71.931,89.065,53.27,99.839a1.067,1.067,0,0,0,0,1.85l22.553,13.021c.31.18.544.2.645.148s.188-.264.188-.612V93.7a3.779,3.779,0,0,0-1.663-2.865Zm3-2.858a5.107,5.107,0,0,1,2.551.681l23.268,13.433c.313.18.547.2.643.148s.188-.266.188-.612V79.309a3.781,3.781,0,0,0-1.662-2.865L78.332,63.982a5.428,5.428,0,0,1-2.493-4.305V56.944l-2.564-24.59L49.928,45.835l2.644,25.412,0,2.819a3.783,3.783,0,0,0,1.663,2.866L71.931,87.145l.447-.257a5.107,5.107,0,0,1,2.551-.681" transform="translate(9.215 5.67)" fill="#aeaeb1"/>
            <path id="Path_825285" data-name="Path 825285" d="M103.679,74.378,78.756,88.767a16.567,16.567,0,0,0-4.1-5.1c-2.569-1.984-20.872-13.258-20.872-13.258L78.7,56.024,102.037,70.98Z" transform="translate(10.29 10.719)" fill="#006dff"/>
            <path id="Path_825286" data-name="Path 825286" d="M76.92,86.881l-.371-1.6a5.116,5.116,0,0,0-2.152-3.1l-20.617-11.9V68.1l21.56,12.447a7.039,7.039,0,0,1,3.045,4.308l.371,1.6Z" transform="translate(10.29 13.03)" fill="#005bbf"/>
            <path id="Path_825287" data-name="Path 825287" d="M78.129,50.285,53.207,64.674,48.9,45.166,73.827,30.777,76.207,31.8Z" transform="translate(9.357 5.889)" fill="#006dff"/>
            <path id="Path_825288" data-name="Path 825288" d="M53.207,62.363l-2.379-1.027L48.9,42.855l2.379,1.027Z" transform="translate(9.357 8.2)" fill="#005bbf"/>
            <path id="Path_825289" data-name="Path 825289" d="M99.1,102a6.95,6.95,0,0,1,2.66,2.833A5.663,5.663,0,0,1,102,107.7a4.044,4.044,0,0,1-2.409,2.149,5.03,5.03,0,0,1-4.625-.615,9.551,9.551,0,0,1-2.716-3.133,28.089,28.089,0,0,0-2.267-3.949c-.114-.107-2.314-2.459-2.764-3.077s.357-2.025.357-2.025l3.6.347Z" transform="translate(16.662 18.568)" fill="#20242d"/>
            <path id="Path_825290" data-name="Path 825290" d="M82.825,98.772s-1.252.471-1.254,1.215a29.014,29.014,0,0,0,1.31,4.506c.306.9,1.187,4.889,3.541,6.825s6.875,1.094,7.691.762a2.172,2.172,0,0,0,1.122-1.061,5.3,5.3,0,0,0-.527-2.295,16.309,16.309,0,0,0-1.11-2.059Z" transform="translate(15.607 18.899)" fill="#20242d"/>
            <path id="Path_825291" data-name="Path 825291" d="M89.244,94.573c-1.377.839-1.635,1.4-1.8,2.067a15.273,15.273,0,0,0-.239,2.131,30.3,30.3,0,0,0,2.569,3.535c.957.978,4.652,6.67,6.97,6.757s5.086-1.259,4.83-3.133a7.854,7.854,0,0,0-1.046-3.2,43.561,43.561,0,0,0-4.888-5.376c-.428-.135-1.766-2.2-1.766-2.2Z" transform="translate(16.684 18.095)" fill="#3d4555"/>
            <g id="Group_1074396" data-name="Group 1074396" transform="translate(104.826 104.748)" style="mix-blend-mode: multiply;isolation: isolate">
              <g id="Group_1074395" data-name="Group 1074395">
                <g id="Group_1074394" data-name="Group 1074394" clip-path="url(#clip-path-3)">
                  <path id="Path_825292" data-name="Path 825292" d="M88.27,90.3c.228,1.839-.49,6.689-.218,7.4s1.894,3,3.752,3.292,2.875-.593,3.532-.727-.575-2.352-.814-2.84a27.44,27.44,0,0,1-.388-6.576,4.127,4.127,0,0,0-.975-2.918Z" transform="translate(-87.99 -87.925)" fill="#f2cbbc"/>
                </g>
              </g>
            </g>
            <path id="Path_825293" data-name="Path 825293" d="M81.084,50.9a22.785,22.785,0,0,1,5.255,7.391c1.47,3.093,7.527,9.712,9.445,12.625s3.2,5.434,3.171,9.364.28,16.782.1,17.616-1.98,1.349-3.955,1.664a4.8,4.8,0,0,1-3.955-.983c-.228-.406-1.4-9.259-1.721-12.722s-.1-4.255-.267-5.45-1.982-2.666-2.47-3.332-8.022-6.031-8.022-6.031-8.783-5.286-8.331-10.265,4.74-10.211,4.74-10.211Z" transform="translate(13.454 9.675)" fill="#6582ee"/>
            <path id="Path_825294" data-name="Path 825294" d="M91.184,70.642a2.992,2.992,0,0,0-1.7.474,3.111,3.111,0,0,0-.913,2.169c-.585,4.752.044,9.558.23,14.344a43.72,43.72,0,0,0,.54,6.976.969.969,0,0,0,.176.449.943.943,0,0,0,.612.249,8.929,8.929,0,0,0,3.33-.187,1.909,1.909,0,0,0,.976-.484,2.169,2.169,0,0,0,.35-1.569c-.123-3.675-.013-7.353.057-11.028.035-1.816.061-3.631.043-5.447a12.669,12.669,0,0,0-.18-3.679,3.088,3.088,0,0,0-3.525-2.268" transform="translate(16.901 13.514)" fill="#6f84fc"/>
            <path id="Path_825295" data-name="Path 825295" d="M80.123,64.962a32.6,32.6,0,0,1,2.5,2.769c.773.845,1.726,1.359,2.492,2.192a34.157,34.157,0,0,0,5.805,5.112c.848.58,2.2,1.4,3.289,1.257a2.393,2.393,0,0,0,2-2.1,3.183,3.183,0,0,0-.633-1.617L93.44,69.158a26.25,26.25,0,0,0-1.482-2.2c-.572-.737-1.22-1.412-1.792-2.148-1.283-1.651-2.159-3.584-3.383-5.278C86.048,58.514,85,57.5,83.747,57.608a3.921,3.921,0,0,0-1.812.8q-.89.6-1.739,1.265a3.411,3.411,0,0,0-.915.934,3.618,3.618,0,0,0-.35,1.651,3.181,3.181,0,0,0,.225,1.7,3.969,3.969,0,0,0,.967,1" transform="translate(15.099 11.021)" fill="#6f84fc"/>
            <path id="Path_825296" data-name="Path 825296" d="M91.5,96.812c-.01-.086-.919-8.622-1.615-13.5-.628-4.391-1.016-7.454-1.09-8.052-.361-.484-2.077-2.783-2.589-3.517-.5-.718-4.664-5.051-7.267-6.359A37.1,37.1,0,0,0,74,63.347l.242-.773A36.929,36.929,0,0,1,79.3,64.662c2.726,1.369,6.98,5.78,7.567,6.62.555.793,2.617,3.553,2.638,3.581l.064.086.014.106c0,.033.4,3.267,1.1,8.145S92.292,96.64,92.3,96.726Z" transform="translate(14.159 11.973)" fill="#7d9dff"/>
            <path id="Path_825297" data-name="Path 825297" d="M82.85,96.671l-.111.062a2.117,2.117,0,0,0-.675.505c-.33.428-.073,1.028-.077,1.52-.008.952.272,3.134.272,3.134a60.471,60.471,0,0,0,2.958,6.724c1.319,2.312,4.152,2.92,5.191,3.05s3.835-.337,4.174-1.3-.478-3.127-.7-3.492S90,100.8,90,100.8a21.483,21.483,0,0,1-1.112-2.253c-.243-.5-.443-1.058-.723-1.54-.32-.552-1.573-.758-2.186-.877a4.268,4.268,0,0,0-2.15.08,5.826,5.826,0,0,0-.976.459" transform="translate(15.669 18.375)" fill="#3d4555"/>
            <g id="Group_1074399" data-name="Group 1074399" transform="translate(96.531 108.21)" style="mix-blend-mode: multiply;isolation: isolate">
              <g id="Group_1074398" data-name="Group 1074398">
                <g id="Group_1074397" data-name="Group 1074397" clip-path="url(#clip-path-4)">
                  <path id="Path_825298" data-name="Path 825298" d="M81.028,93.009c.456,1.253,1.051,5.783,1.259,6.244a1.454,1.454,0,0,0,.423.543c.44.351,1.263.619,2.833.311,2.383-.466,2.853-1.412,2.785-2.1S87,94.268,86.6,92.3s-3.962-1.382-3.962-1.382Z" transform="translate(-81.028 -90.831)" fill="#f2cbbc"/>
                </g>
              </g>
            </g>
            <path id="Path_825299" data-name="Path 825299" d="M62.787,54.595c-.345.8-2.032,7.142-1.508,11.632s1.906,6.181,5.629,8.66,11.838,6.381,12.458,7.56.711,6.345,2.54,12.694,1.8,6.681,2.1,7a8.1,8.1,0,0,0,4.981.534c2.093-.485,3.016-1.3,2.94-2.333s-1.362-7.234-1.7-13.468-.4-8.217-1.967-10.438-7.827-7.592-9-9.248.785-3.667.785-3.667.695-6.351-.66-8.5-6.082-2.483-6.082-2.483Z" transform="translate(11.706 10.053)" fill="#6582ee"/>
            <path id="Path_825300" data-name="Path 825300" d="M84.127,74.411a2.651,2.651,0,0,0-1.538-.151,3.89,3.89,0,0,0-2.707,2.269c-.961,2.115-.637,4.7-.259,6.912.443,2.583,1.157,5.116,1.493,7.717a17.746,17.746,0,0,0,1.028,3.823c.375,1.02.535,2.355,1.712,2.781a4.113,4.113,0,0,0,2.578-.294,2.411,2.411,0,0,0,1.71-1.912c.006-1.243-.264-2.565-.379-3.808q-.379-4.1-.759-8.193a24.026,24.026,0,0,0-.8-5.568c-.442-1.277-.69-2.969-2.078-3.576" transform="translate(15.163 14.199)" fill="#6f84fc"/>
            <path id="Path_825301" data-name="Path 825301" d="M75.6,75.152c.4.284.8.56,1.22.815,1.614.984,3.234,1.957,4.871,2.9a6.625,6.625,0,0,0,2.776,1.092,4.1,4.1,0,0,0,3.148-1.369,2.61,2.61,0,0,0,.786-1.5c.092-1.052-.767-1.917-1.555-2.619q-2.968-2.643-5.9-5.324c-1.139-1.04-2.277-2.086-3.326-3.217a22.108,22.108,0,0,0-2.392-2.414,6.184,6.184,0,0,0-3.194-1.147,12.615,12.615,0,0,0-6.9.959c-1.007.452-1.465,1-1.1,2.13.33,1.013,1.5,1.7,2.21,2.464,2.673,2.852,6.194,4.968,9.359,7.228" transform="translate(12.228 11.91)" fill="#6f84fc"/>
            <path id="Path_825302" data-name="Path 825302" d="M84.312,102.214c-.832-.7-3.64-13.812-3.709-14.663-.4-4.8-.979-6.413-1.394-6.923A51.765,51.765,0,0,0,74.8,77.372c-4.4-3.1-10.429-7.334-11.644-9.36-1.731-2.89-.6-7.667.3-11.506l.228-.972.79.182-.229.976c-.827,3.5-1.96,8.3-.4,10.9,1.126,1.878,7.317,6.232,11.414,9.113a40.538,40.538,0,0,1,4.571,3.407c.72.884,1.234,3.294,1.573,7.368.147,1.774,2.881,13.339,3.457,14.144Z" transform="translate(11.911 10.626)" fill="#7d9dff"/>
            <path id="Path_825303" data-name="Path 825303" d="M62.959,54.929c2.5,1.845,9.562,3.647,14.606,2.813s7.584-3.868,7.128-4.419-2.2-2.366-2.2-2.366-17.342-1.589-17.947.071-1.584,3.9-1.584,3.9" transform="translate(12.046 9.619)" fill="#3d4555"/>
            <path id="Path_825304" data-name="Path 825304" d="M71.53,58.81l-.779-.22a7.607,7.607,0,0,0-.293-4.96l.749-.31a8.416,8.416,0,0,1,.323,5.49" transform="translate(13.481 10.202)" fill="#6582ee"/>
            <path id="Path_825305" data-name="Path 825305" d="M80.167,55.885l-.81-.05a5.507,5.507,0,0,0-.241-1.988,1.249,1.249,0,0,0-.559-.835l.331-.741a1.978,1.978,0,0,1,1,1.334,6.314,6.314,0,0,1,.278,2.28" transform="translate(15.031 10.001)" fill="#6582ee"/>
          </g>
        </g>
        <g id="Group_1074403" data-name="Group 1074403" transform="translate(95.784 44.402)">
          <g id="Group_1074402" data-name="Group 1074402" clip-path="url(#clip-path-5)">
            <rect id="Rectangle_378245" data-name="Rectangle 378245" width="13.598" height="37.278" transform="matrix(0.999, -0.034, 0.034, 0.999, -1.263, 0.042)" fill="url(#linear-gradient)"/>
          </g>
        </g>
        <g id="Group_1074411" data-name="Group 1074411">
          <g id="Group_1074410" data-name="Group 1074410" clip-path="url(#clip-path)">
            <g id="Group_1074406" data-name="Group 1074406" transform="translate(95.784 47.189)" style="mix-blend-mode: multiply;isolation: isolate">
              <g id="Group_1074405" data-name="Group 1074405">
                <g id="Group_1074404" data-name="Group 1074404" clip-path="url(#clip-path-7)">
                  <path id="Path_825307" data-name="Path 825307" d="M84.43,62.343a11.95,11.95,0,0,1-.021,2.066,2.174,2.174,0,0,1-.351.812.755.755,0,0,0-.008-.108c-.089-.548-.163-2.254-.16-2.627s-.652-4.871-1.058-6.966-1.463-6.308-1.58-7.035-.764-4.991-.848-7.47a5.249,5.249,0,0,1,.147-1.4,2.755,2.755,0,0,1,.683,1.8c-.013,1.048-.182,2.109-.2,3.164a10.913,10.913,0,0,0,.05,1.463,12.66,12.66,0,0,0,.848,3.026,2.109,2.109,0,0,0,.55.916.715.715,0,0,0,.972-.027,8.736,8.736,0,0,1-.429,1.215,5.424,5.424,0,0,0,.257,2.825c.25,1.008.41,2.035.569,3.057.11.693.214,1.393.324,2.086.076.494.152.995.2,1.5.052.566.055,1.139.058,1.712" transform="translate(-80.401 -39.61)" fill="#f2cbbc"/>
                </g>
              </g>
            </g>
            <g id="Group_1074409" data-name="Group 1074409" transform="translate(100.274 74.258)" style="mix-blend-mode: multiply;isolation: isolate">
              <g id="Group_1074408" data-name="Group 1074408">
                <g id="Group_1074407" data-name="Group 1074407" clip-path="url(#clip-path-8)">
                  <path id="Path_825308" data-name="Path 825308" d="M92.02,66.8c-.029.293-.36.244-.473.249a3.611,3.611,0,0,1-.625-.261,4.558,4.558,0,0,1,.279,1.364c-.106.22-1.033-.024-1.033-.024s.438.811.071,1.019a.785.785,0,0,1-.975-.393.98.98,0,0,1-1.128-.1c-.155-.26-1.894-3.233-1.894-3.233l-.876-1.749s-.706.2-.716.413a7.973,7.973,0,0,0,.628,1.757c.219.43.26,1.6-.243,1.923a.363.363,0,0,1-.422.008.018.018,0,0,1,.015-.006c.092-.025.189-.012.275-.042.224-.073.274-.361.287-.6a3.461,3.461,0,0,0,.039-.92,6.379,6.379,0,0,0-.342-.833,6.1,6.1,0,0,1-.452-2.179,1.4,1.4,0,0,0-.268-.867A5.368,5.368,0,0,1,85.726,63.9c.161.292.269.612.419.905.516,1.009,1.069,2,1.642,2.983a2.583,2.583,0,0,0,.493.674.91.91,0,0,0,.771.25c-.042-.431-.349-.746-.455-1.141-.123-.456-.23-.917-.371-1.366-.061-.193-.122-.391-.187-.583.093.207.193.409.292.617a5.567,5.567,0,0,1,.4,1.095,3.556,3.556,0,0,0,.424,1.04c.143.222.554.872.934.573.284-.22-.129-1.39-.2-1.69a20.678,20.678,0,0,0-1.432-3.617,4.809,4.809,0,0,1,1,1.8c.223.658.371,1.339.577,2,.1.31.281.634.67.61.48-.038.46-.46.34-.807a15.131,15.131,0,0,0-1.707-3.813,7.114,7.114,0,0,1,1.207,1.943,4.6,4.6,0,0,0,.609,1.234.748.748,0,0,0,.583.272.469.469,0,0,0,.282-.129.182.182,0,0,1,.007.049" transform="translate(-84.17 -62.332)" fill="#f2cbbc"/>
                </g>
              </g>
            </g>
            <path id="Path_825309" data-name="Path 825309" d="M81.885,41.313a4.939,4.939,0,0,0-.259,2.392,19.507,19.507,0,0,0,.841,4.132,1.808,1.808,0,0,0,.811,1.209,1.4,1.4,0,0,0,1.548-.53,3.513,3.513,0,0,0,.714-2.423A10.526,10.526,0,0,0,85,43.57c-.2-.668-.421-1.334-.605-2.007-.151-.55-.07-1.687-.9-1.581a2.184,2.184,0,0,0-1.615,1.331" transform="translate(15.611 7.649)" fill="#feb9b8"/>
            <path id="Path_825310" data-name="Path 825310" d="M67.258,16.042c-3.436-2.2-9.927,2.327-6.428,10.911s-3.2,15.6-3.145,15.778,11.017-1.567,9-12.049.575-14.64.575-14.64" transform="translate(11.037 2.964)" fill="#36231f"/>
            <path id="Path_825311" data-name="Path 825311" d="M86.1,47.133a.547.547,0,0,0-.307-.069,2.23,2.23,0,0,0-1.853,1.288,5.585,5.585,0,0,0-.487,2.3A39.486,39.486,0,0,0,84.8,61.872a.825.825,0,0,0,.119.309.726.726,0,0,0,.313.217,2.518,2.518,0,0,0,1.09.2.234.234,0,0,0,.143-.041.244.244,0,0,0,.06-.182c.085-2.122.235-4.261.176-6.376-.043-1.526-.055-3.1-.1-4.64-.024-.795-.056-1.589-.108-2.383-.032-.5.086-1.521-.4-1.841" transform="translate(15.96 9.005)" fill="#feb9b8"/>
            <path id="Path_825312" data-name="Path 825312" d="M78.329,29.005c1.332-.012,3.188,1.028,4.675,5.031s2.325,6.787,2.364,7.088-1.564,1.845-4.445,2.3-2.594-14.421-2.594-14.421" transform="translate(14.986 5.55)" fill="#75a5ff"/>
            <path id="Path_825313" data-name="Path 825313" d="M72.139,60.974a17.934,17.934,0,0,0,8.042-.954,5.529,5.529,0,0,0,3.475-3.862c.394-1.295,1.178-6.244,1.83-8.954a25.855,25.855,0,0,0,.131-7.118s-1.005-9.933-2.87-10.739-6.886-1.3-9.855-1.031-6.025.411-9.108,3.411-5.863,5.162-5.777,6.482,4.566,6.587,5.183,8.924.983,9.479,1.69,10.82,7.258,3.021,7.258,3.021" transform="translate(11.098 5.404)" fill="#5e8fff"/>
          </g>
        </g>
        <g id="Group_1074413" data-name="Group 1074413" transform="translate(76.524 27.982)">
          <g id="Group_1074412" data-name="Group 1074412" clip-path="url(#clip-path-9)">
            <rect id="Rectangle_378249" data-name="Rectangle 378249" width="12.897" height="15.898" transform="matrix(0.999, -0.034, 0.034, 0.999, -0.525, 0.018)" fill="url(#linear-gradient-2)"/>
          </g>
        </g>
        <g id="Group_1074418" data-name="Group 1074418">
          <g id="Group_1074417" data-name="Group 1074417" clip-path="url(#clip-path)">
            <g id="Group_1074416" data-name="Group 1074416" transform="translate(77.402 29.917)" style="mix-blend-mode: multiply;isolation: isolate">
              <g id="Group_1074415" data-name="Group 1074415">
                <g id="Group_1074414" data-name="Group 1074414" clip-path="url(#clip-path-11)">
                  <path id="Path_825315" data-name="Path 825315" d="M73.406,30.805a1.948,1.948,0,0,1-.563,1.241,1.97,1.97,0,0,1-.734.371,1.654,1.654,0,0,1-1.009.039,2.249,2.249,0,0,1-.536-.322,22.091,22.091,0,0,0-2.279-1.366.261.261,0,0,0-.131-.044c-.124-.012-.217.131-.207.255a.689.689,0,0,0,.163.336.531.531,0,0,1-.617-.023,2.4,2.4,0,0,1-.449-.487,9.276,9.276,0,0,0-1.359-1.182,3.605,3.605,0,0,1-.391-.371,8.148,8.148,0,0,0-.322-2.443c.031-.044.062-.094.093-.138a3.473,3.473,0,0,1,1.243-.983,5.585,5.585,0,0,1,4.47-.206,2.713,2.713,0,0,1,1.615,1.406,4.908,4.908,0,0,0,.2.549,2.716,2.716,0,0,0,.3.412,3.8,3.8,0,0,1,.511,2.956" transform="translate(-64.971 -25.112)" fill="#f2cbbc"/>
                </g>
              </g>
            </g>
          </g>
        </g>
        <g id="Group_1074420" data-name="Group 1074420" transform="translate(75.741 19.738)">
          <g id="Group_1074419" data-name="Group 1074419" clip-path="url(#clip-path-12)">
            <rect id="Rectangle_378252" data-name="Rectangle 378252" width="13.127" height="16.063" transform="matrix(0.999, -0.034, 0.034, 0.999, -0.869, 0.018)" fill="url(#linear-gradient-3)"/>
          </g>
        </g>
        <g id="Group_1074428" data-name="Group 1074428">
          <g id="Group_1074427" data-name="Group 1074427" clip-path="url(#clip-path)">
            <path id="Path_825317" data-name="Path 825317" d="M70.3,19a8.968,8.968,0,0,0-2.7.77c-.674.465-1.867,1.084-2.154,2.362a7.645,7.645,0,0,0-.253,3.131c.172.98.285,1.807.285,1.807a6.644,6.644,0,0,0-.92-1.048c-.185-.061-.077.648-.077.648l.3,1.027-1.32-.728a3.911,3.911,0,0,1-.965-1.614c-.137-.774-3.5-6.533,3.385-9.966a6.536,6.536,0,0,1,6.118.7c1.83,1.123,2.9,1.665,3.442,3.137a4.666,4.666,0,0,1,.39,2.275,11.343,11.343,0,0,0-.818-1.93c-.318-.431-.052.884-.052.884l.228,1.318a16.093,16.093,0,0,0-1.374-3.211c-.453-.426-1.764-.259-1.764-.259A7.776,7.776,0,0,1,70.3,19" transform="translate(11.778 2.854)" fill="#36231f"/>
            <g id="Group_1074423" data-name="Group 1074423" transform="translate(84.561 24.999)" style="mix-blend-mode: multiply;isolation: isolate">
              <g id="Group_1074422" data-name="Group 1074422">
                <g id="Group_1074421" data-name="Group 1074421" clip-path="url(#clip-path-14)">
                  <path id="Path_825318" data-name="Path 825318" d="M72.86,30.753a3.7,3.7,0,0,1-1.07.5,12.769,12.769,0,0,1,.017-1.569,10.17,10.17,0,0,0,.083-1.078,2.753,2.753,0,0,0-.219-1.036,1.352,1.352,0,0,1-.132-.379c-.054-.459.543-.4.823-.585.693-.467-.35-1.249-.6-1.661a7.59,7.59,0,0,1-.631-.914,1.846,1.846,0,0,1,.07-1.6,1.415,1.415,0,0,1,.463-.345c.627-.335,1.225-.717,1.823-1.1a25.737,25.737,0,0,1,.642,3.3c.3,2.283-.405,5.917-1.268,6.471" transform="translate(-70.98 -20.984)" fill="#f2cbbc"/>
                </g>
              </g>
            </g>
            <g id="Group_1074426" data-name="Group 1074426" transform="translate(103.344 75.489)" style="mix-blend-mode: multiply;isolation: isolate">
              <g id="Group_1074425" data-name="Group 1074425">
                <g id="Group_1074424" data-name="Group 1074424" clip-path="url(#clip-path-15)">
                  <path id="Path_825319" data-name="Path 825319" d="M86.746,63.365a20.174,20.174,0,0,1,.8,2.06c-.111-.239-.216-.479-.316-.724-.178-.437-.291-.909-.484-1.335" transform="translate(-86.746 -63.365)" fill="#f2cbbc"/>
                </g>
              </g>
            </g>
          </g>
        </g>
        <g id="Group_1074430" data-name="Group 1074430" transform="translate(67.704 42.777)">
          <g id="Group_1074429" data-name="Group 1074429" clip-path="url(#clip-path-16)">
            <rect id="Rectangle_378256" data-name="Rectangle 378256" width="32.824" height="43.129" transform="translate(-1.603 0.048) rotate(-1.943)" fill="url(#linear-gradient-4)"/>
          </g>
        </g>
        <g id="Group_1074447" data-name="Group 1074447">
          <g id="Group_1074446" data-name="Group 1074446" clip-path="url(#clip-path)">
            <g id="Group_1074433" data-name="Group 1074433" transform="translate(67.705 44.172)" style="mix-blend-mode: multiply;isolation: isolate">
              <g id="Group_1074432" data-name="Group 1074432">
                <g id="Group_1074431" data-name="Group 1074431" clip-path="url(#clip-path-18)">
                  <path id="Path_825321" data-name="Path 825321" d="M82.028,77.573a.332.332,0,0,1,.123-.042c-.081.148-.273.242-.615.2-.759-.082-2.5-2.877-2.5-2.877s-1.962-1.907-2.085-2.179-.5-.838-.8-1.557-2.457-1.836-3.637-2.536S61.949,62,60.963,60.954s-2-5.311-2.153-7.371-1.459-6.53-1.847-9.328a15.506,15.506,0,0,1,.7-7.177c-.131.74-1.028,3.949-.618,6.3s1.708,6.37,2.175,9.609a31.122,31.122,0,0,0,1.627,6.556c.519,1.447,2.1,2.33,3.442,3.268s11.632,7.434,11.973,7.737.553,1.651.833,2.085A24.646,24.646,0,0,0,79.1,74.758c.044.014,1.318,1.858,1.831,2.339s.9.634,1.092.477" transform="translate(-56.831 -37.078)" fill="#f2cbbc"/>
                </g>
              </g>
            </g>
            <g id="Group_1074436" data-name="Group 1074436" transform="translate(90.752 80.012)" style="mix-blend-mode: multiply;isolation: isolate">
              <g id="Group_1074435" data-name="Group 1074435">
                <g id="Group_1074434" data-name="Group 1074434" clip-path="url(#clip-path-19)">
                  <path id="Path_825322" data-name="Path 825322" d="M79.688,68.456,82.415,70.9a.811.811,0,0,1-.746.647c-.525-.01-3.8-2.655-3.8-2.655l-1.694-1.17.737.229,2.136,1.614A22.6,22.6,0,0,0,81.6,71.37a.506.506,0,0,0,.608-.416c-.037-.123-2.334-2.029-2.334-2.029l-2.191-1.764Z" transform="translate(-76.177 -67.161)" fill="#f2cbbc"/>
                </g>
              </g>
            </g>
            <g id="Group_1074439" data-name="Group 1074439" transform="translate(97.069 83.839)" style="mix-blend-mode: multiply;isolation: isolate">
              <g id="Group_1074438" data-name="Group 1074438">
                <g id="Group_1074437" data-name="Group 1074437" clip-path="url(#clip-path-20)">
                  <path id="Path_825323" data-name="Path 825323" d="M81.479,70.374c.079.079.218.225.386.387-.167-.147-.3-.3-.386-.387" transform="translate(-81.479 -70.374)" fill="#f2cbbc"/>
                </g>
              </g>
            </g>
            <g id="Group_1074442" data-name="Group 1074442" transform="translate(93.472 79.171)" style="mix-blend-mode: multiply;isolation: isolate">
              <g id="Group_1074441" data-name="Group 1074441">
                <g id="Group_1074440" data-name="Group 1074440" clip-path="url(#clip-path-21)">
                  <path id="Path_825324" data-name="Path 825324" d="M81.691,68.941s-2.938-2.3-3.231-2.485a30.6,30.6,0,0,1,3.352,2.411l1.878,1.974.006,0,.074.1a.914.914,0,0,1,.138.39,29.274,29.274,0,0,0-2.217-2.4" transform="translate(-78.46 -66.455)" fill="#f2cbbc"/>
                </g>
              </g>
            </g>
            <g id="Group_1074445" data-name="Group 1074445" transform="translate(75.754 58.907)" style="mix-blend-mode: multiply;isolation: isolate">
              <g id="Group_1074444" data-name="Group 1074444">
                <g id="Group_1074443" data-name="Group 1074443" clip-path="url(#clip-path-22)">
                  <path id="Path_825325" data-name="Path 825325" d="M64,53.931a9.506,9.506,0,0,0-.288-3.716,1.526,1.526,0,0,1-.1-.77c.041.253.075.452.106.58.226.928.955,4.888.955,4.888l.245.241a5.881,5.881,0,0,1-1.316-.567A.786.786,0,0,0,64,53.931" transform="translate(-63.588 -49.447)" fill="#f2cbbc"/>
                </g>
              </g>
            </g>
            <path id="Path_825326" data-name="Path 825326" d="M61.447,39.723c-.151-.347-.368-.666-.515-1.009A2.211,2.211,0,0,0,60.579,38a2.237,2.237,0,0,0-1.412-.584.91.91,0,0,0-.385.007c-.326.094-.475.467-.559.8a11.7,11.7,0,0,0-.061,4.944,19.346,19.346,0,0,0,1.4,4.706,6.553,6.553,0,0,1,.3,2.191c.071.852.156,1.7.309,2.543a15.773,15.773,0,0,0,1.277,3.964,4.236,4.236,0,0,0,.873,1.314c.194.182.487.336.714.2a.642.642,0,0,0,.218-.287,10.744,10.744,0,0,0,.809-2.193,7.031,7.031,0,0,0-.045-2.317l-.443-4.846a15.373,15.373,0,0,1-.137-2.25,6.732,6.732,0,0,0-.337-2.193,37.322,37.322,0,0,0-1.656-4.269" transform="translate(11.084 7.156)" fill="#feb9b8"/>
            <path id="Path_825327" data-name="Path 825327" d="M63.153,54.741c-.276.069-.675.2-.805.477a1.887,1.887,0,0,0-.011,1.131,2.091,2.091,0,0,0,.538.757c2.977,3.024,6.831,5,10.219,7.557.5.379,1.008.753,1.523,1.113a1.55,1.55,0,0,0,1.3.176.937.937,0,0,0,.253-.2,1.764,1.764,0,0,0,.584-.917,1.178,1.178,0,0,0-.3-.895,3.7,3.7,0,0,0-.965-.708c-.415-.267-.807-.618-1.194-.924-.541-.43-1.12-.783-1.69-1.159-.586-.387-1.122-.917-1.688-1.343-.743-.559-1.467-1.145-2.183-1.738a15,15,0,0,1-1.751-1.5,8.273,8.273,0,0,0-1.762-1.626,2.678,2.678,0,0,0-2.074-.2" transform="translate(11.912 10.452)" fill="#feb9b8"/>
          </g>
        </g>
        <g id="Group_1074449" data-name="Group 1074449" transform="translate(74.44 28.183)">
          <g id="Group_1074448" data-name="Group 1074448" clip-path="url(#clip-path-23)">
            <rect id="Rectangle_378263" data-name="Rectangle 378263" width="3.287" height="3.796" transform="matrix(0.999, -0.034, 0.034, 0.999, -0.281, 0.004)" fill="url(#linear-gradient-5)"/>
          </g>
        </g>
        <g id="Group_1074457" data-name="Group 1074457">
          <g id="Group_1074456" data-name="Group 1074456" clip-path="url(#clip-path)">
            <path id="Path_825329" data-name="Path 825329" d="M27.092,116.95c-.661,1.047-1.515,1.9-1.488,2.839a9.508,9.508,0,0,0,.133,1.458,4.926,4.926,0,0,0,2.706,1.16,4.648,4.648,0,0,0,3.473-.965c.368-.387,1.763-2.122,2.287-2.564s1.681-2.233,1.129-3.637-3.076-1.269-3.076-1.269Z" transform="translate(4.899 21.806)" fill="#20242d"/>
            <path id="Path_825330" data-name="Path 825330" d="M32.37,121.178c-.8,1.158-1.461,1.847-1.351,2.619s.138,1.364.662,1.785a3.974,3.974,0,0,0,3.252,1.219c1.736-.22,6.835-2.976,7.193-3.2s5.236-1.737,6.7-3.941a4.927,4.927,0,0,0,.855-4.6,2.293,2.293,0,0,0-2.591-1.723c-1.446.086-14.718,7.841-14.718,7.841" transform="translate(5.933 21.684)" fill="#20242d"/>
            <path id="Path_825331" data-name="Path 825331" d="M26,114.626c-.155,2.67-.5,4.438-.082,5.154a3.28,3.28,0,0,0,3.528,1.737c2.26-.222,2.7-1.013,3.087-1.885s1.975-4.006,1.975-4.006,1.3-2.433-.46-3.094S26,114.626,26,114.626" transform="translate(4.92 21.512)" fill="#3d4555"/>
            <path id="Path_825332" data-name="Path 825332" d="M27.126,57.593C24.535,63.105,23.6,64.042,23.433,69s.661,6.889.661,6.889.606,13.616.661,16.371-1.213,8.71-.386,16.317,1.655,18.025,1.875,19.072,2.26,2.426,5.236,1.1a9.052,9.052,0,0,0,4.19-3.693s-.883-16.315-.717-17.969,1.1-18.19,1.268-23.482,3.363-14,1.764-19.017-10.859-7-10.859-7" transform="translate(4.479 11.02)" fill="#6582ee"/>
            <g id="Group_1074452" data-name="Group 1074452" transform="translate(36.738 82.933)" style="mix-blend-mode: multiply;isolation: isolate">
              <g id="Group_1074451" data-name="Group 1074451">
                <g id="Group_1074450" data-name="Group 1074450" clip-path="url(#clip-path-25)">
                  <path id="Path_825333" data-name="Path 825333" d="M31.2,71.147a.708.708,0,0,0-.289.211.725.725,0,0,0-.018.583,72.917,72.917,0,0,1,2,15.173c.087,2.222-.249,4.31-.25,6.53a47.937,47.937,0,0,1-.629,9.9,21.587,21.587,0,0,0-.07,4.669c.019,1.843,0,3.688-.108,5.529-.067,1.14-.168,2.28-.17,3.423,0,1.523.17,3.041.176,4.564.01,2.287-.356,4.6.069,6.845.11.575.548,1.294,1.088,1.067a1,1,0,0,0,.386-.359A19.378,19.378,0,0,0,36.24,122.6a80.827,80.827,0,0,0,2.414-19.481c.046-3.293-.048-6.587-.218-9.875-.166-3.218.355-6.581.444-9.821.055-1.98.085-3.961.11-5.942A32.8,32.8,0,0,0,38.8,72.5c-.076-.548-.112-1.8-.5-2.227-.567-.621-2.159-.724-2.94-.63a14.035,14.035,0,0,0-4.163,1.5" transform="translate(-30.838 -69.614)" fill="#f2cbbc"/>
                </g>
              </g>
            </g>
            <path id="Path_825334" data-name="Path 825334" d="M27.116,97.158a3.531,3.531,0,0,1-.285-.469C25.1,93.2,25.074,89.48,24.783,85.717c-.336-4.338.014-8.706-.506-13.032a20.019,20.019,0,0,1-.309-5.269c1.034.59,1.746,1.554,2.8,2.084a8.358,8.358,0,0,1,3.575,2.6A8.693,8.693,0,0,1,31.457,76.8a125.029,125.029,0,0,1-.942,17.776,15.446,15.446,0,0,1-.449,2.457c-.568,1.948-2,1.467-2.95.123" transform="translate(4.569 12.899)" fill="#6f84fc"/>
            <path id="Path_825335" data-name="Path 825335" d="M24.513,89.436a2.929,2.929,0,0,1,.9-1.974,2.762,2.762,0,0,1,1.377-.444,4.108,4.108,0,0,1,1.93.137,3.288,3.288,0,0,1,1.764,1.892,9.731,9.731,0,0,1,.538,2.6,31.047,31.047,0,0,1,.3,5.061c-.089,1.8-.492,3.569-.759,5.353-.873,5.852-.272,11.813-.5,17.726a2.433,2.433,0,0,1-.382,1.469,1.677,1.677,0,0,1-2.264.07,4.3,4.3,0,0,1-1.257-2.13c-2.437-7.343-1.341-15.1-1.833-22.658a32.573,32.573,0,0,1,.186-7.1" transform="translate(4.634 16.64)" fill="#6f84fc"/>
            <path id="Path_825336" data-name="Path 825336" d="M24.773,76.546l-.323-.743c1.258-.549,3.094-1.643,3.236-2.354a29.449,29.449,0,0,0-.014-4.008c-.054-1.345-.082-2.111-.056-2.56-1.017-.273-3.64-1.052-4.464-2.019l.616-.525c.683.8,3.418,1.609,4.413,1.854l1.363.334-1.117.373c-.026.44.018,1.575.055,2.513a27.321,27.321,0,0,1,0,4.2c-.275,1.377-3.137,2.689-3.709,2.938" transform="translate(4.43 12.31)" fill="#7d9dff"/>
            <path id="Path_825337" data-name="Path 825337" d="M40.059,115.059s3.219-1.1,3.6-1.213,3.307-.936,4.272-.22a3.254,3.254,0,0,1,1.406,3.721c-.523,1.847-1.488,2.48-3,3.28s-6.173,2.619-7.359,3.307-3.914,2.205-5.7,1.433-2.178-1.433-2.068-2.315-.3-3.859.772-5.044,8.082-2.949,8.082-2.949" transform="translate(5.967 21.685)" fill="#3d4555"/>
            <path id="Path_825338" data-name="Path 825338" d="M51.47,63.862c.661,4.74,1.433,4.3.386,11.3S46.344,98.313,45.792,101.9s-3.307,18.189-3.307,20.78-.055,5.953-1.158,7.166-2.535,2.977-5.126,3.087-3.914-.33-4.023-1.213-.276-5.236-.276-5.236l1.213-10.309s.442-23.812.552-24.97S33,75.934,32.618,75.273s-4.079-2.922-3.914-9.482,6.173-8.985,6.173-8.985Z" transform="translate(5.491 10.869)" fill="#6582ee"/>
            <path id="Path_825339" data-name="Path 825339" d="M39.738,94.242a6.287,6.287,0,0,1,.543,2.87,108.447,108.447,0,0,1-2.159,22.5,8.4,8.4,0,0,1-.924,2.894,4.305,4.305,0,0,1-2.023,1.723,2.449,2.449,0,0,1-3.491-1.71,7.99,7.99,0,0,1-.223-2.823,221.9,221.9,0,0,1,1.856-22.154c.242-1.7.419-4.084,2.273-4.734a3.46,3.46,0,0,1,4.147,1.433" transform="translate(6.015 17.719)" fill="#6f84fc"/>
            <path id="Path_825340" data-name="Path 825340" d="M33.929,97.193a96.87,96.87,0,0,1,1.487-25.374,3.294,3.294,0,0,1,.6-1.563,3.411,3.411,0,0,1,2.719-.785l4.414.039A1.986,1.986,0,0,1,44.4,69.8a1.851,1.851,0,0,1,.533.99c1.144,4.066.466,8.394-.219,12.563-.431,2.622-1.15,5.244-1.507,7.868-.139,1.023-.531,1.878-.715,2.877a31.124,31.124,0,0,1-.783,4.146,18.458,18.458,0,0,1-1.831,3.662,1.845,1.845,0,0,1-.619.718c-.83.465-1.355-.363-1.974-.724a12.99,12.99,0,0,1-2.163-1.041c-.99-.843-1.1-2.477-1.189-3.669" transform="translate(6.442 13.292)" fill="#6f84fc"/>
            <path id="Path_825341" data-name="Path 825341" d="M38.8,81.344a2.234,2.234,0,0,1-1.134-.2c-.6-.429-4.358-4.78-4.784-5.274l-.12-.139,1.328-9.3,13.1,2.99-.042.362c-.056.491-1.4,8.069-2.1,9.551-.286.61-1.188,1.115-2.679,1.5a16.081,16.081,0,0,1-3.569.5m-5.185-5.86c1.6,1.849,4.14,4.731,4.521,5,.691.309,5.68-.437,6.179-1.5.561-1.195,1.706-7.281,1.976-8.941L34.77,67.419Z" transform="translate(6.269 12.711)" fill="#7d9dff"/>
            <path id="Path_825342" data-name="Path 825342" d="M38.529,128.673c-.083-5.674,1.763-15.864,2.652-20.76.192-1.056.343-1.892.429-2.421.116-.709.2-1.4.292-2.166A91.719,91.719,0,0,1,44.6,89.745c2.552-9.882,3.954-16.28,4.535-23.826l.808.062c-.585,7.607-1.994,14.039-4.559,23.966a91.174,91.174,0,0,0-2.673,13.475c-.094.779-.18,1.48-.3,2.2-.086.534-.238,1.375-.431,2.436-.884,4.873-2.722,15.01-2.64,20.6Z" transform="translate(7.371 12.613)" fill="#7d9dff"/>
            <path id="Path_825343" data-name="Path 825343" d="M29.442,41.563s-2.15-.621-2.15-1.406a77.863,77.863,0,0,1,1.489-11.287c.992-4.3.983-5.257,4.79-7.155s-4.129,19.848-4.129,19.848" transform="translate(5.222 4.133)" fill="#75a5ff"/>
            <path id="Path_825344" data-name="Path 825344" d="M23.409,73.122C25.8,76.6,29.359,78,36.14,79.326c4.808.934,11.169.254,14.664-.487A6.859,6.859,0,0,0,53.354,78c.561-.745.605-12.9.605-12.9S56.688,54.849,57.142,52.7c.211-.989,1.632-5.231,2.783-9.775,1.345-5.312,2.323-11.039.562-12.466-3.264-2.647-6.819-4.879-7.565-6.116s-8.721-5-12.028-4.506-9.057,3.058-9.882,4.506S28.532,38.4,29.2,41.534s-.086,9.839-.745,12.034-2.729,5.209-3.556,10.125-1.486,9.429-1.486,9.429" transform="translate(4.479 3.787)" fill="#5e8fff"/>
            <g id="Group_1074455" data-name="Group 1074455" transform="translate(55.283 39.505)" style="mix-blend-mode: multiply;isolation: isolate">
              <g id="Group_1074454" data-name="Group 1074454">
                <g id="Group_1074453" data-name="Group 1074453" clip-path="url(#clip-path-26)">
                  <path id="Path_825345" data-name="Path 825345" d="M46.4,76.282a6.907,6.907,0,0,0,2.551-.838c.562-.746.605-12.9.605-12.9S52.288,52.29,52.742,50.14c.211-.989,1.632-5.23,2.783-9.775a21.529,21.529,0,0,0-2.885-5.976c-1.086-1.528-1.935-1.729-3.047-.049-2.513,3.8-1.356,8.489-.746,12.709,1.048,7.289.292,14.313-.891,21.5-.411,2.464-1.081,4.879-1.492,7.342-.021.13-.043.26-.06.39" transform="translate(-46.404 -33.16)" fill="#f2cbbc"/>
                </g>
              </g>
            </g>
          </g>
        </g>
        <g id="Group_1074459" data-name="Group 1074459" transform="translate(59.222 44.929)">
          <g id="Group_1074458" data-name="Group 1074458" clip-path="url(#clip-path-27)">
            <rect id="Rectangle_378267" data-name="Rectangle 378267" width="14.762" height="19.681" transform="translate(-0.043 0)" fill="url(#linear-gradient-6)"/>
          </g>
        </g>
        <g id="Group_1074464" data-name="Group 1074464">
          <g id="Group_1074463" data-name="Group 1074463" clip-path="url(#clip-path)">
            <path id="Path_825347" data-name="Path 825347" d="M62.645,45.962a2.428,2.428,0,0,1-.187,1.2c-.108.22-.22.452-.33.649-.167.306-.31.527-.31.527A1.724,1.724,0,0,0,60.679,49.5c-.037.108-.075.228-.108.357.064-.647.363-1.109.17-1.683a2.81,2.81,0,0,0-2.147-1.548,1.64,1.64,0,0,0-1.421.214l.119-.253L56.544,44.6a23.735,23.735,0,0,0,1-2.567c0-.064-.006-.2-.017-.387v-.024a21.621,21.621,0,0,0-.191-2.4c-.122-.68.126-1.486.412-1.509a1.074,1.074,0,0,1,.849.354.949.949,0,0,1,.185.371c.145.6.371,1.326.371,1.326s.272,1.3.272,1.381a2.192,2.192,0,0,0,.691.017,5.04,5.04,0,0,1,1.064.066,4.152,4.152,0,0,1,1.717,1.8,1.473,1.473,0,0,1,.038.972l.191,1.218Z" transform="translate(10.819 7.216)" fill="#b0f9ec"/>
            <g id="Group_1074462" data-name="Group 1074462" transform="translate(59.221 53.156)" style="mix-blend-mode: multiply;isolation: isolate">
              <g id="Group_1074461" data-name="Group 1074461">
                <g id="Group_1074460" data-name="Group 1074460" clip-path="url(#clip-path-29)">
                  <path id="Path_825348" data-name="Path 825348" d="M49.711,45.262c-.043,1.345,1.632,7.316,1.756,7.71s1.368,2.934,3.037,3.015,3.02-.39,4.982-2.642a11.634,11.634,0,0,0,2.5-5.17,1.72,1.72,0,0,1,1.14-1.157s.141-.222.307-.529c-.183-.336-.2-.843-.578-.886-.292-.038-.486.281-.589.556-.428,1.178-.568,2.442-.952,3.636a9.493,9.493,0,0,1-3.6,4.884,5.056,5.056,0,0,1-1.945.886,2.661,2.661,0,0,1-2.054-.405,4.491,4.491,0,0,1-.783-.842l-1.1-1.427a3.511,3.511,0,0,1-.417-.631,3.4,3.4,0,0,1-.237-.963c-.281-1.907-.541-3.825-.762-5.743-.06-.475-.405-.249-.5-.714-.015-.07-.032-.145-.054-.222a2.306,2.306,0,0,0-.151.643" transform="translate(-49.71 -44.619)" fill="#f2cbbc"/>
                </g>
              </g>
            </g>
          </g>
        </g>
        <g id="Group_1074466" data-name="Group 1074466" transform="translate(45.36 6.204)">
          <g id="Group_1074465" data-name="Group 1074465" clip-path="url(#clip-path-30)">
            <rect id="Rectangle_378270" data-name="Rectangle 378270" width="20.533" height="21.519" transform="translate(-0.193 0)" fill="url(#linear-gradient-7)"/>
          </g>
        </g>
        <g id="Group_1074480" data-name="Group 1074480">
          <g id="Group_1074479" data-name="Group 1074479" clip-path="url(#clip-path)">
            <path id="Path_825350" data-name="Path 825350" d="M46.273,17.46l2.617-.992s3.721-3.232,4.575-3.462,1.1.375,1.1.375l-.3,1.028.3,1.094.8-1.047,1.1-2.038h.661a6.537,6.537,0,0,0,1.1-2.012,30.707,30.707,0,0,0,.138-3.556,10.4,10.4,0,0,0-3.582-4.713A9.85,9.85,0,0,0,45.611.51,11.2,11.2,0,0,0,41.2,3.432s-.772.468-.938,3.058a23.261,23.261,0,0,0,.166,5.927,18.434,18.434,0,0,0,1.377,4.051,6.212,6.212,0,0,0,1.792.193Z" transform="translate(7.685 0)" fill="#36231f"/>
            <path id="Path_825351" data-name="Path 825351" d="M51.276,11.785a6.47,6.47,0,0,0-1.631,1.767c-.932,1.339.564,7.551.564,7.551l.388-.369a33.357,33.357,0,0,1-.746-4.29,6.007,6.007,0,0,1,.124-2.678,12.308,12.308,0,0,1,1.418-1.631l.778.612,1.182,3.794.233-.6L52.208,11.9Z" transform="translate(9.44 2.255)" fill="#ff426d"/>
            <path id="Path_825352" data-name="Path 825352" d="M50.367,15.714a7.032,7.032,0,0,1,.5-3.638c.8-1.654,1.629-1.9,2.1-1.461s-.8,1.874-1.076,2.619S50.7,15.989,50.7,15.989Z" transform="translate(9.626 1.994)" fill="#feb8b7"/>
            <g id="Group_1074469" data-name="Group 1074469" transform="translate(67.365 48.86)" style="mix-blend-mode: multiply;isolation: isolate">
              <g id="Group_1074468" data-name="Group 1074468">
                <g id="Group_1074467" data-name="Group 1074467" clip-path="url(#clip-path-32)">
                  <path id="Path_825353" data-name="Path 825353" d="M56.546,43.969l.746,1.984-.573,1.209c.1.5.147,1.016.238,1.519.064.356.124.714.178,1.065a3.891,3.891,0,0,1,.151,1,20.278,20.278,0,0,0,.217-2.869c.015-.882.329-1.686.4-2.572a2.768,2.768,0,0,1-.87-1.854,1.132,1.132,0,0,1,.049-.465,2.377,2.377,0,0,1,.173-.307,2.551,2.551,0,0,0,.27-1.67c.011.189.017.324.017.39a23.822,23.822,0,0,1-.995,2.566" transform="translate(-56.546 -41.013)" fill="#f2cbbc"/>
                </g>
              </g>
            </g>
            <g id="Group_1074472" data-name="Group 1074472" transform="translate(66.317 49.179)" style="mix-blend-mode: multiply;isolation: isolate">
              <g id="Group_1074471" data-name="Group 1074471">
                <g id="Group_1074470" data-name="Group 1074470" clip-path="url(#clip-path-33)">
                  <path id="Path_825354" data-name="Path 825354" d="M55.666,41.281a9.613,9.613,0,0,0,.108,1.313,22.564,22.564,0,0,0,.712,3.058,42.273,42.273,0,0,1-.637-4.3Z" transform="translate(-55.666 -41.281)" fill="#f2cbbc"/>
                </g>
              </g>
            </g>
            <g id="Group_1074475" data-name="Group 1074475" transform="translate(69.413 45.284)" style="mix-blend-mode: multiply;isolation: isolate">
              <g id="Group_1074474" data-name="Group 1074474">
                <g id="Group_1074473" data-name="Group 1074473" clip-path="url(#clip-path-34)">
                  <path id="Path_825355" data-name="Path 825355" d="M58.265,38.011c.049.168.092.341.141.513a9.559,9.559,0,0,1,.394,1.594,5.826,5.826,0,0,1,.189,1.042,1.171,1.171,0,0,0,.556,1.092,3.1,3.1,0,0,0,1.6.1.774.774,0,0,0-.428-.4,3.769,3.769,0,0,0-.583-.168.411.411,0,0,1-.2-.1.4.4,0,0,1-.081-.173,2.218,2.218,0,0,1-.081-.405,2.24,2.24,0,0,1-.691-.017c0-.081-.27-1.383-.27-1.383s-.226-.723-.373-1.324a.935.935,0,0,0-.183-.373" transform="translate(-58.265 -38.011)" fill="#f2cbbc"/>
                </g>
              </g>
            </g>
            <g id="Group_1074478" data-name="Group 1074478" transform="translate(56.58 20.72)" style="mix-blend-mode: multiply;isolation: isolate">
              <g id="Group_1074477" data-name="Group 1074477">
                <g id="Group_1074476" data-name="Group 1074476" clip-path="url(#clip-path-35)">
                  <path id="Path_825356" data-name="Path 825356" d="M47.493,24.33c.254.054.4.064.394.027a16.391,16.391,0,0,1,.756-3.556,4.178,4.178,0,0,0,1.324,0,1.685,1.685,0,0,0,.238-.145,2.135,2.135,0,0,1-.471-.33,4.935,4.935,0,0,1-.821-2.934c0,1.583-1.113,2.989-1.33,4.571-.1.665-.027,1.34-.064,2.011-.006.119-.017.237-.027.356" transform="translate(-47.493 -17.392)" fill="#f2cbbc"/>
                </g>
              </g>
            </g>
            <path id="Path_825357" data-name="Path 825357" d="M56.7,48.117c-1.943.683-4.961,1.965-6.7,1.056s-1.943-9.1-1.736-11.2A13.4,13.4,0,0,1,52.15,30.26c2.315-2.09,2.852-1.924,3.6-1.469s1.7,4.63,1.861,6.449,1.033,8.517.909,9.22A27.126,27.126,0,0,1,56.7,48.117" transform="translate(9.222 5.454)" fill="#75a5ff"/>
            <path id="Path_825358" data-name="Path 825358" d="M53.779,14.9s-.548-.879-.675-.66c-1.884,3.221-3.493,5.634-3.493,5.634l-.26,1.59a3.944,3.944,0,0,0,1.282-.018c.7-.126,2.175-1.835,2.611-3.1a15.715,15.715,0,0,0,.535-3.45" transform="translate(9.443 2.718)" fill="#f1e5ff"/>
          </g>
        </g>
      </g>
    </g>
  </g>
</svg>
