<svg xmlns="http://www.w3.org/2000/svg" xmlns:xlink="http://www.w3.org/1999/xlink" width="1030" height="559" viewBox="0 0 1030 559">
  <defs>
    <linearGradient id="linear-gradient" x1="0.5" x2="0.5" y2="1" gradientUnits="objectBoundingBox">
      <stop offset="0" stop-color="#defff8"/>
      <stop offset="0.803" stop-color="#eaf5ff"/>
      <stop offset="1" stop-color="#f0feff"/>
    </linearGradient>
    <radialGradient id="radial-gradient" cx="0.939" cy="0.315" r="1.102" gradientTransform="matrix(-0.485, 0.874, 0.444, 0.247, 1.256, -0.585)" gradientUnits="objectBoundingBox">
      <stop offset="0" stop-color="#91e82a"/>
      <stop offset="0.481" stop-color="#c1e29a" stop-opacity="0.878"/>
      <stop offset="1" stop-color="#c1e29a" stop-opacity="0.039"/>
    </radialGradient>
  </defs>
  <g id="Group_1075390" data-name="Group 1075390" transform="translate(-285 -7741.811)">
    <g id="Group_1074075" data-name="Group 1074075" transform="translate(-105 1284.811)">
      <rect id="Rectangle_376022" data-name="Rectangle 376022" width="1030" height="514" transform="translate(1420 7016) rotate(180)" fill="url(#linear-gradient)"/>
    </g>
    <path id="Path_828165" data-name="Path 828165" d="M0,0H1030V45H0Z" transform="translate(285 7741.811)" fill="#ffae7e"/>
    <path id="Path_828166" data-name="Path 828166" d="M6.207-4.945H3.989V0H1.206V-13.508H6.225a5.674,5.674,0,0,1,3.692,1.067,3.682,3.682,0,0,1,1.3,3.015,4.156,4.156,0,0,1-.6,2.305A4.081,4.081,0,0,1,8.8-5.65L11.727-.13V0H8.739ZM3.989-7.2H6.234a2.3,2.3,0,0,0,1.624-.533A1.907,1.907,0,0,0,8.433-9.2a2.041,2.041,0,0,0-.543-1.5,2.255,2.255,0,0,0-1.665-.547H3.989ZM17.775.186A4.928,4.928,0,0,1,14.18-1.169a4.815,4.815,0,0,1-1.387-3.609v-.26a6.064,6.064,0,0,1,.584-2.7,4.289,4.289,0,0,1,1.656-1.837,4.648,4.648,0,0,1,2.445-.645,4.166,4.166,0,0,1,3.242,1.3A5.278,5.278,0,0,1,21.9-5.242v1.095H15.512A2.491,2.491,0,0,0,16.3-2.57a2.37,2.37,0,0,0,1.656.594A2.894,2.894,0,0,0,20.373-3.1L21.69-1.624A4.025,4.025,0,0,1,20.058-.292,5.357,5.357,0,0,1,17.775.186Zm-.306-8.248a1.675,1.675,0,0,0-1.294.54,2.8,2.8,0,0,0-.635,1.547h3.729v-.214a2,2,0,0,0-.482-1.384A1.729,1.729,0,0,0,17.469-8.062ZM27.6-1.976a1.759,1.759,0,0,0,1.206-.408,1.43,1.43,0,0,0,.482-1.085H31.8A3.439,3.439,0,0,1,31.246-1.6a3.673,3.673,0,0,1-1.5,1.317,4.689,4.689,0,0,1-2.1.469,4.358,4.358,0,0,1-3.4-1.368,5.415,5.415,0,0,1-1.243-3.781V-5.14a5.353,5.353,0,0,1,1.234-3.7,4.307,4.307,0,0,1,3.386-1.382,4.222,4.222,0,0,1,3.02,1.072A3.794,3.794,0,0,1,31.8-6.3H29.289a1.842,1.842,0,0,0-.482-1.273,1.608,1.608,0,0,0-1.225-.49,1.615,1.615,0,0,0-1.415.683,3.958,3.958,0,0,0-.478,2.216v.279a4.008,4.008,0,0,0,.473,2.23A1.635,1.635,0,0,0,27.6-1.976Zm5.316-3.136a5.953,5.953,0,0,1,.575-2.663,4.211,4.211,0,0,1,1.656-1.809,4.831,4.831,0,0,1,2.51-.64A4.571,4.571,0,0,1,40.973-8.98,4.989,4.989,0,0,1,42.407-5.6l.019.687a5.247,5.247,0,0,1-1.29,3.706,4.482,4.482,0,0,1-3.46,1.4A4.5,4.5,0,0,1,34.21-1.206a5.339,5.339,0,0,1-1.294-3.785Zm2.681.19a3.752,3.752,0,0,0,.538,2.188,1.775,1.775,0,0,0,1.54.757A1.779,1.779,0,0,0,39.2-2.724a4.106,4.106,0,0,0,.547-2.393A3.715,3.715,0,0,0,39.2-7.291a1.779,1.779,0,0,0-1.54-.771,1.75,1.75,0,0,0-1.521.767A4.175,4.175,0,0,0,35.6-4.921ZM46.906,0h-2.69V-14.25h2.69Zm6.828.186a4.928,4.928,0,0,1-3.595-1.354,4.815,4.815,0,0,1-1.387-3.609v-.26a6.064,6.064,0,0,1,.584-2.7,4.289,4.289,0,0,1,1.656-1.837,4.648,4.648,0,0,1,2.445-.645,4.166,4.166,0,0,1,3.242,1.3,5.278,5.278,0,0,1,1.183,3.683v1.095H51.471a2.491,2.491,0,0,0,.784,1.577,2.37,2.37,0,0,0,1.656.594A2.894,2.894,0,0,0,56.332-3.1l1.317,1.475A4.025,4.025,0,0,1,56.017-.292,5.357,5.357,0,0,1,53.734.186Zm-.306-8.248a1.675,1.675,0,0,0-1.294.54A2.8,2.8,0,0,0,51.5-5.975h3.729v-.214a2,2,0,0,0-.482-1.384A1.729,1.729,0,0,0,53.428-8.062ZM63.559-1.976a1.759,1.759,0,0,0,1.206-.408,1.43,1.43,0,0,0,.482-1.085h2.514A3.439,3.439,0,0,1,67.205-1.6a3.673,3.673,0,0,1-1.5,1.317,4.689,4.689,0,0,1-2.1.469,4.358,4.358,0,0,1-3.4-1.368,5.415,5.415,0,0,1-1.243-3.781V-5.14a5.353,5.353,0,0,1,1.234-3.7,4.307,4.307,0,0,1,3.386-1.382,4.222,4.222,0,0,1,3.02,1.072A3.794,3.794,0,0,1,67.762-6.3H65.248a1.842,1.842,0,0,0-.482-1.273,1.608,1.608,0,0,0-1.225-.49,1.615,1.615,0,0,0-1.415.683,3.958,3.958,0,0,0-.478,2.216v.279a4.008,4.008,0,0,0,.473,2.23A1.635,1.635,0,0,0,63.559-1.976Zm9.908,0a1.759,1.759,0,0,0,1.206-.408,1.43,1.43,0,0,0,.482-1.085H77.67A3.439,3.439,0,0,1,77.113-1.6a3.673,3.673,0,0,1-1.5,1.317,4.689,4.689,0,0,1-2.1.469,4.358,4.358,0,0,1-3.4-1.368,5.415,5.415,0,0,1-1.243-3.781V-5.14a5.353,5.353,0,0,1,1.234-3.7A4.307,4.307,0,0,1,73.5-10.224a4.222,4.222,0,0,1,3.02,1.072A3.794,3.794,0,0,1,77.67-6.3H75.156a1.842,1.842,0,0,0-.482-1.273,1.608,1.608,0,0,0-1.225-.49,1.615,1.615,0,0,0-1.415.683,3.958,3.958,0,0,0-.478,2.216v.279a4.008,4.008,0,0,0,.473,2.23A1.635,1.635,0,0,0,73.467-1.976ZM82.03,0H79.34V-10.038h2.69ZM79.182-12.636a1.32,1.32,0,0,1,.4-.993,1.516,1.516,0,0,1,1.1-.39,1.52,1.52,0,0,1,1.095.39,1.313,1.313,0,0,1,.408.993,1.316,1.316,0,0,1-.413,1,1.523,1.523,0,0,1-1.09.39,1.523,1.523,0,0,1-1.09-.39A1.316,1.316,0,0,1,79.182-12.636Zm4.639,7.524A5.953,5.953,0,0,1,84.4-7.774a4.211,4.211,0,0,1,1.656-1.809,4.831,4.831,0,0,1,2.51-.64A4.571,4.571,0,0,1,91.878-8.98,4.989,4.989,0,0,1,93.312-5.6l.019.687a5.247,5.247,0,0,1-1.29,3.706,4.482,4.482,0,0,1-3.46,1.4,4.5,4.5,0,0,1-3.465-1.392,5.339,5.339,0,0,1-1.294-3.785Zm2.681.19a3.752,3.752,0,0,0,.538,2.188,1.775,1.775,0,0,0,1.54.757A1.779,1.779,0,0,0,90.1-2.724a4.106,4.106,0,0,0,.547-2.393A3.715,3.715,0,0,0,90.1-7.291a1.779,1.779,0,0,0-1.54-.771A1.75,1.75,0,0,0,87.04-7.3,4.175,4.175,0,0,0,86.5-4.921ZM89.09-14.25h2.922l-2.57,2.876h-2.18Zm8.359,4.212.083,1.16a3.5,3.5,0,0,1,2.885-1.345,2.913,2.913,0,0,1,2.375.937,4.372,4.372,0,0,1,.8,2.8V0H100.91V-6.42a1.739,1.739,0,0,0-.371-1.239A1.661,1.661,0,0,0,99.3-8.043a1.844,1.844,0,0,0-1.7.965V0H94.926V-10.038Zm12.487,4.945a6.049,6.049,0,0,1,1.053-3.739,3.417,3.417,0,0,1,2.881-1.392,3.074,3.074,0,0,1,2.421,1.095V-14.25h2.69V0h-2.421l-.13-1.067A3.155,3.155,0,0,1,113.852.186a3.407,3.407,0,0,1-2.844-1.4A6.244,6.244,0,0,1,109.937-5.093Zm2.681.2a3.963,3.963,0,0,0,.492,2.165,1.6,1.6,0,0,0,1.429.753,1.794,1.794,0,0,0,1.753-1.05V-6.994a1.768,1.768,0,0,0-1.735-1.05Q112.618-8.043,112.618-4.894ZM125.68.186a4.928,4.928,0,0,1-3.595-1.354A4.815,4.815,0,0,1,120.7-4.778v-.26a6.064,6.064,0,0,1,.584-2.7,4.289,4.289,0,0,1,1.656-1.837,4.648,4.648,0,0,1,2.445-.645,4.166,4.166,0,0,1,3.242,1.3,5.278,5.278,0,0,1,1.183,3.683v1.095h-6.392A2.491,2.491,0,0,0,124.2-2.57a2.37,2.37,0,0,0,1.656.594A2.894,2.894,0,0,0,128.278-3.1L129.6-1.624a4.025,4.025,0,0,1-1.633,1.331A5.357,5.357,0,0,1,125.68.186Zm-.306-8.248a1.675,1.675,0,0,0-1.294.54,2.8,2.8,0,0,0-.635,1.547h3.729v-.214a2,2,0,0,0-.482-1.384A1.729,1.729,0,0,0,125.374-8.062ZM140.682.186a4.928,4.928,0,0,1-3.595-1.354A4.815,4.815,0,0,1,135.7-4.778v-.26a6.064,6.064,0,0,1,.584-2.7,4.289,4.289,0,0,1,1.656-1.837,4.648,4.648,0,0,1,2.445-.645,4.166,4.166,0,0,1,3.242,1.3,5.278,5.278,0,0,1,1.183,3.683v1.095h-6.392A2.491,2.491,0,0,0,139.2-2.57a2.37,2.37,0,0,0,1.656.594A2.894,2.894,0,0,0,143.279-3.1L144.6-1.624a4.025,4.025,0,0,1-1.633,1.331A5.357,5.357,0,0,1,140.682.186Zm-.306-8.248a1.675,1.675,0,0,0-1.294.54,2.8,2.8,0,0,0-.635,1.547h3.729v-.214a2,2,0,0,0-.482-1.384A1.729,1.729,0,0,0,140.375-8.062Zm9.593,4.787,1.865-6.763h2.8L151.249,0h-2.561L145.3-10.038h2.8ZM158.643,0h-2.69V-10.038h2.69Zm-2.848-12.636a1.32,1.32,0,0,1,.4-.993,1.516,1.516,0,0,1,1.1-.39,1.52,1.52,0,0,1,1.095.39,1.313,1.313,0,0,1,.408.993,1.316,1.316,0,0,1-.413,1,1.523,1.523,0,0,1-1.09.39,1.523,1.523,0,0,1-1.09-.39A1.316,1.316,0,0,1,155.794-12.636Zm4.639,7.542a6.049,6.049,0,0,1,1.053-3.739,3.417,3.417,0,0,1,2.881-1.392,3.074,3.074,0,0,1,2.421,1.095V-14.25h2.69V0h-2.421l-.13-1.067A3.155,3.155,0,0,1,164.348.186a3.407,3.407,0,0,1-2.844-1.4A6.244,6.244,0,0,1,160.433-5.093Zm2.681.2a3.963,3.963,0,0,0,.492,2.165,1.6,1.6,0,0,0,1.429.753,1.794,1.794,0,0,0,1.753-1.05V-6.994a1.768,1.768,0,0,0-1.735-1.05Q163.114-8.043,163.114-4.894ZM176.177.186a4.928,4.928,0,0,1-3.595-1.354,4.815,4.815,0,0,1-1.387-3.609v-.26a6.064,6.064,0,0,1,.584-2.7,4.289,4.289,0,0,1,1.656-1.837,4.648,4.648,0,0,1,2.445-.645,4.166,4.166,0,0,1,3.242,1.3,5.278,5.278,0,0,1,1.183,3.683v1.095h-6.392A2.491,2.491,0,0,0,174.7-2.57a2.37,2.37,0,0,0,1.656.594A2.894,2.894,0,0,0,178.774-3.1l1.317,1.475a4.025,4.025,0,0,1-1.633,1.331A5.357,5.357,0,0,1,176.177.186Zm-.306-8.248a1.675,1.675,0,0,0-1.294.54,2.8,2.8,0,0,0-.635,1.547h3.729v-.214a2,2,0,0,0-.482-1.384A1.729,1.729,0,0,0,175.871-8.062Zm8.424-1.976.083,1.16a3.5,3.5,0,0,1,2.885-1.345,2.913,2.913,0,0,1,2.375.937,4.372,4.372,0,0,1,.8,2.8V0h-2.681V-6.42a1.739,1.739,0,0,0-.371-1.239,1.661,1.661,0,0,0-1.234-.385,1.844,1.844,0,0,0-1.7.965V0h-2.681V-10.038Zm12.348,8.062a1.759,1.759,0,0,0,1.206-.408,1.43,1.43,0,0,0,.482-1.085h2.514a3.439,3.439,0,0,1-.557,1.869,3.673,3.673,0,0,1-1.5,1.317,4.689,4.689,0,0,1-2.1.469,4.358,4.358,0,0,1-3.4-1.368,5.415,5.415,0,0,1-1.243-3.781V-5.14a5.353,5.353,0,0,1,1.234-3.7,4.307,4.307,0,0,1,3.386-1.382,4.222,4.222,0,0,1,3.02,1.072A3.794,3.794,0,0,1,200.845-6.3h-2.514a1.842,1.842,0,0,0-.482-1.273,1.608,1.608,0,0,0-1.225-.49,1.615,1.615,0,0,0-1.415.683,3.958,3.958,0,0,0-.478,2.216v.279a4.008,4.008,0,0,0,.473,2.23A1.635,1.635,0,0,0,196.643-1.976ZM205.206,0h-2.69V-10.038h2.69Zm-2.848-12.636a1.32,1.32,0,0,1,.4-.993,1.516,1.516,0,0,1,1.1-.39,1.52,1.52,0,0,1,1.095.39,1.313,1.313,0,0,1,.408.993,1.316,1.316,0,0,1-.413,1,1.523,1.523,0,0,1-1.09.39,1.523,1.523,0,0,1-1.09-.39A1.316,1.316,0,0,1,202.357-12.636ZM213.23,0a2.977,2.977,0,0,1-.269-.9A3.244,3.244,0,0,1,210.429.186a3.564,3.564,0,0,1-2.445-.854,2.745,2.745,0,0,1-.969-2.152A2.837,2.837,0,0,1,208.2-5.27a5.837,5.837,0,0,1,3.419-.863h1.234v-.575a1.654,1.654,0,0,0-.357-1.113,1.405,1.405,0,0,0-1.127-.417,1.6,1.6,0,0,0-1.062.325,1.1,1.1,0,0,0-.385.891h-2.681a2.693,2.693,0,0,1,.538-1.614A3.557,3.557,0,0,1,209.3-9.8a5.545,5.545,0,0,1,2.208-.422,4.381,4.381,0,0,1,2.946.932,3.262,3.262,0,0,1,1.09,2.621v4.351a4.8,4.8,0,0,0,.4,2.162V0Zm-2.217-1.865a2.309,2.309,0,0,0,1.095-.264,1.737,1.737,0,0,0,.742-.71V-4.564h-1q-2.013,0-2.143,1.392l-.009.158a1.073,1.073,0,0,0,.353.826A1.369,1.369,0,0,0,211.013-1.865Z" transform="translate(692 7769.811)" fill="#12263f" stroke="rgba(0,0,0,0)" stroke-width="1"/>
    <g id="Group_1075357" data-name="Group 1075357" transform="translate(16.156 132)">
      <path id="Path_823837" data-name="Path 823837" d="M-7398.357-6124.137h-570" transform="translate(8432.357 13858.947)" fill="none" stroke="#707070" stroke-width="2"/>
      <path id="Path_827918" data-name="Path 827918" d="M-7551.857-6124.137h-416.5" transform="translate(8432.357 13968.947)" fill="none" stroke="#707070" stroke-width="2"/>
      <path id="Path_827923" data-name="Path 827923" d="M-7247.357-6124.137h-721" transform="translate(8432.357 14076.947)" fill="none" stroke="#707070" stroke-width="2"/>
      <path id="Path_828167" data-name="Path 828167" d="M18.5,0h108a18.5,18.5,0,0,1,0,37H18.5a18.5,18.5,0,0,1,0-37Z" transform="translate(495 7756.811)" fill="#c1e29a"/>
      <path id="Path_828168" data-name="Path 828168" d="M18.5,0h108a18.5,18.5,0,0,1,0,37H18.5a18.5,18.5,0,0,1,0-37Z" transform="translate(495 7866.811)" fill="#c1e29a"/>
      <path id="Path_828169" data-name="Path 828169" d="M18.5,0h108a18.5,18.5,0,0,1,0,37H18.5a18.5,18.5,0,0,1,0-37Z" transform="translate(495 7974.811)" fill="#c1e29a"/>
      <path id="Path_828170" data-name="Path 828170" d="M18.5,0h105a18.5,18.5,0,0,1,0,37H18.5a18.5,18.5,0,0,1,0-37Z" transform="translate(648 7757.811)" fill="#c1e29a"/>
      <path id="Path_828171" data-name="Path 828171" d="M18.5,0h105a18.5,18.5,0,0,1,0,37H18.5a18.5,18.5,0,0,1,0-37Z" transform="translate(648 7867.811)" fill="#c1e29a"/>
      <path id="Path_828172" data-name="Path 828172" d="M18.5,0h133a18.5,18.5,0,0,1,0,37H18.5a18.5,18.5,0,0,1,0-37Z" transform="translate(648 7975.811)" fill="#c1e29a"/>
      <path id="Path_828173" data-name="Path 828173" d="M18.5,0h105a18.5,18.5,0,0,1,0,37H18.5a18.5,18.5,0,0,1,0-37Z" transform="translate(810 7757.811)" fill="#c1e29a"/>
      <path id="Path_828174" data-name="Path 828174" d="M18.5,0h105a18.5,18.5,0,0,1,0,37H18.5a18.5,18.5,0,0,1,0-37Z" transform="translate(810 7867.811)" fill="#c1e29a"/>
      <path id="Path_828175" data-name="Path 828175" d="M18.5,0h105a18.5,18.5,0,0,1,0,37H18.5a18.5,18.5,0,0,1,0-37Z" transform="translate(824 7975.811)" fill="#c1e29a"/>
      <path id="Path_828176" data-name="Path 828176" d="M18.5,0h105a18.5,18.5,0,0,1,0,37H18.5a18.5,18.5,0,0,1,0-37Z" transform="translate(972 7975.811)" fill="#c1e29a"/>
      <path id="Path_828177" data-name="Path 828177" d="M18.5,0h105a18.5,18.5,0,0,1,0,37H18.5a18.5,18.5,0,0,1,0-37Z" transform="translate(1120 7975.811)" fill="#c1e29a"/>
      <path id="Path_828178" data-name="Path 828178" d="M18.5,0h105a18.5,18.5,0,0,1,0,37H18.5a18.5,18.5,0,0,1,0-37Z" transform="translate(963 7757.811)" fill="#c1e29a"/>
      <path id="Path_828179" data-name="Path 828179" d="M-56.355,0V-11.375h3.5a5.315,5.315,0,0,1,2.684.676,4.712,4.712,0,0,1,1.848,1.922,5.928,5.928,0,0,1,.664,2.832v.523a5.945,5.945,0,0,1-.652,2.82,4.672,4.672,0,0,1-1.84,1.914A5.355,5.355,0,0,1-52.832,0Zm2.344-9.477v7.594h1.133a2.545,2.545,0,0,0,2.1-.9,4.06,4.06,0,0,0,.742-2.57v-.6a4.124,4.124,0,0,0-.719-2.629,2.537,2.537,0,0,0-2.1-.895ZM-41.207,0a2.507,2.507,0,0,1-.227-.758,2.732,2.732,0,0,1-2.133.914,3,3,0,0,1-2.059-.719,2.312,2.312,0,0,1-.816-1.812,2.389,2.389,0,0,1,1-2.062,4.915,4.915,0,0,1,2.879-.727h1.039v-.484a1.393,1.393,0,0,0-.3-.937,1.183,1.183,0,0,0-.949-.352,1.345,1.345,0,0,0-.895.273.929.929,0,0,0-.324.75h-2.258A2.268,2.268,0,0,1-45.8-7.273a3,3,0,0,1,1.281-.98,4.669,4.669,0,0,1,1.859-.355,3.689,3.689,0,0,1,2.48.785,2.747,2.747,0,0,1,.918,2.207v3.664a4.041,4.041,0,0,0,.336,1.82V0Zm-1.867-1.57a1.945,1.945,0,0,0,.922-.223,1.462,1.462,0,0,0,.625-.6V-3.844h-.844q-1.7,0-1.8,1.172l-.008.133a.9.9,0,0,0,.3.7A1.153,1.153,0,0,0-43.074-1.57Zm9.063-.094A1.481,1.481,0,0,0-33-2.008a1.2,1.2,0,0,0,.406-.914h2.117a2.9,2.9,0,0,1-.469,1.574A3.093,3.093,0,0,1-32.2-.238a3.949,3.949,0,0,1-1.77.395A3.67,3.67,0,0,1-36.832-1,4.56,4.56,0,0,1-37.879-4.18v-.148A4.508,4.508,0,0,1-36.84-7.445a3.627,3.627,0,0,1,2.852-1.164,3.555,3.555,0,0,1,2.543.9,3.2,3.2,0,0,1,.973,2.4H-32.59A1.551,1.551,0,0,0-33-6.377a1.354,1.354,0,0,0-1.031-.412,1.36,1.36,0,0,0-1.191.575,3.333,3.333,0,0,0-.4,1.866v.235a3.375,3.375,0,0,0,.4,1.878A1.377,1.377,0,0,0-34.012-1.664Zm7.531-8.867v2.078h1.445V-6.8H-26.48v4.219a1.007,1.007,0,0,0,.18.672.9.9,0,0,0,.688.2,3.6,3.6,0,0,0,.664-.055V-.047a4.648,4.648,0,0,1-1.367.2,2.156,2.156,0,0,1-2.422-2.4V-6.8h-1.234V-8.453h1.234v-2.078ZM-21.395,0H-23.66V-8.453h2.266Zm-2.4-10.641a1.112,1.112,0,0,1,.34-.836,1.277,1.277,0,0,1,.926-.328,1.28,1.28,0,0,1,.922.328,1.105,1.105,0,0,1,.344.836,1.108,1.108,0,0,1-.348.844,1.283,1.283,0,0,1-.918.328,1.283,1.283,0,0,1-.918-.328A1.108,1.108,0,0,1-23.793-10.641ZM-17.152,0h-2.266V-12h2.266Zm1.508-4.3a5.013,5.013,0,0,1,.484-2.242A3.546,3.546,0,0,1-13.766-8.07a4.069,4.069,0,0,1,2.113-.539A3.849,3.849,0,0,1-8.859-7.562,4.2,4.2,0,0,1-7.652-4.719l.016.578A4.418,4.418,0,0,1-8.723-1.02,3.775,3.775,0,0,1-11.637.156a3.793,3.793,0,0,1-2.918-1.172A4.5,4.5,0,0,1-15.645-4.2Zm2.258.16A3.16,3.16,0,0,0-12.934-2.3a1.5,1.5,0,0,0,1.3.638,1.5,1.5,0,0,0,1.281-.63,3.457,3.457,0,0,0,.461-2.015,3.128,3.128,0,0,0-.461-1.831,1.5,1.5,0,0,0-1.3-.649,1.474,1.474,0,0,0-1.281.646A3.516,3.516,0,0,0-13.387-4.144ZM-1.668-2.336a.727.727,0,0,0-.41-.652,4.659,4.659,0,0,0-1.316-.426Q-6.41-4.047-6.41-5.977a2.323,2.323,0,0,1,.934-1.879,3.766,3.766,0,0,1,2.441-.754,4.053,4.053,0,0,1,2.574.758A2.388,2.388,0,0,1,.5-5.883H-1.754a1.092,1.092,0,0,0-.312-.8A1.322,1.322,0,0,0-3.043-7a1.351,1.351,0,0,0-.883.258.814.814,0,0,0-.312.656.7.7,0,0,0,.355.605,3.657,3.657,0,0,0,1.2.4A9.8,9.8,0,0,1-1.262-4.7,2.336,2.336,0,0,1,.527-2.43,2.2,2.2,0,0,1-.465-.559,4.28,4.28,0,0,1-3.027.156,4.47,4.47,0,0,1-4.914-.223,3.166,3.166,0,0,1-6.207-1.262a2.414,2.414,0,0,1-.469-1.426h2.141a1.179,1.179,0,0,0,.445.922,1.766,1.766,0,0,0,1.109.32A1.635,1.635,0,0,0-2-1.691.766.766,0,0,0-1.668-2.336ZM5.5-1.664a1.481,1.481,0,0,0,1.016-.344,1.2,1.2,0,0,0,.406-.914H9.035a2.9,2.9,0,0,1-.469,1.574A3.093,3.093,0,0,1,7.3-.238a3.949,3.949,0,0,1-1.77.395A3.67,3.67,0,0,1,2.676-1,4.56,4.56,0,0,1,1.629-4.18v-.148A4.508,4.508,0,0,1,2.668-7.445,3.627,3.627,0,0,1,5.52-8.609a3.555,3.555,0,0,1,2.543.9,3.2,3.2,0,0,1,.973,2.4H6.918a1.551,1.551,0,0,0-.406-1.072A1.354,1.354,0,0,0,5.48-6.789a1.36,1.36,0,0,0-1.191.575,3.333,3.333,0,0,0-.4,1.866v.235a3.375,3.375,0,0,0,.4,1.878A1.377,1.377,0,0,0,5.5-1.664ZM9.973-4.3a5.013,5.013,0,0,1,.484-2.242A3.546,3.546,0,0,1,11.852-8.07a4.069,4.069,0,0,1,2.113-.539,3.849,3.849,0,0,1,2.793,1.047,4.2,4.2,0,0,1,1.207,2.844l.016.578A4.418,4.418,0,0,1,16.895-1.02,3.775,3.775,0,0,1,13.98.156a3.793,3.793,0,0,1-2.918-1.172A4.5,4.5,0,0,1,9.973-4.2Zm2.258.16A3.16,3.16,0,0,0,12.684-2.3a1.5,1.5,0,0,0,1.3.638,1.5,1.5,0,0,0,1.281-.63,3.457,3.457,0,0,0,.461-2.015,3.128,3.128,0,0,0-.461-1.831,1.5,1.5,0,0,0-1.3-.649,1.474,1.474,0,0,0-1.281.646A3.516,3.516,0,0,0,12.23-4.144ZM14.41-12h2.461L14.707-9.578H12.871ZM26.98-4.148a5.07,5.07,0,0,1-.887,3.129A2.843,2.843,0,0,1,23.7.156a2.633,2.633,0,0,1-2.07-.891V3.25H19.371v-11.7h2.094l.078.828a2.654,2.654,0,0,1,2.141-.984,2.862,2.862,0,0,1,2.43,1.156,5.207,5.207,0,0,1,.867,3.188Zm-2.258-.164a3.327,3.327,0,0,0-.418-1.82,1.361,1.361,0,0,0-1.215-.641,1.478,1.478,0,0,0-1.461.813V-2.5a1.5,1.5,0,0,0,1.477.836Q24.723-1.664,24.723-4.312ZM30.762,0H28.5V-8.453h2.266Zm-2.4-10.641a1.112,1.112,0,0,1,.34-.836,1.277,1.277,0,0,1,.926-.328,1.28,1.28,0,0,1,.922.328,1.105,1.105,0,0,1,.344.836,1.108,1.108,0,0,1-.348.844,1.283,1.283,0,0,1-.918.328,1.283,1.283,0,0,1-.918-.328A1.108,1.108,0,0,1,28.363-10.641Zm7.773,8.977a1.481,1.481,0,0,0,1.016-.344,1.2,1.2,0,0,0,.406-.914h2.117a2.9,2.9,0,0,1-.469,1.574A3.093,3.093,0,0,1,37.945-.238a3.949,3.949,0,0,1-1.77.395A3.67,3.67,0,0,1,33.316-1,4.56,4.56,0,0,1,32.27-4.18v-.148a4.508,4.508,0,0,1,1.039-3.117A3.627,3.627,0,0,1,36.16-8.609a3.555,3.555,0,0,1,2.543.9,3.2,3.2,0,0,1,.973,2.4H37.559a1.551,1.551,0,0,0-.406-1.072,1.354,1.354,0,0,0-1.031-.412,1.36,1.36,0,0,0-1.191.575,3.333,3.333,0,0,0-.4,1.866v.235a3.375,3.375,0,0,0,.4,1.878A1.377,1.377,0,0,0,36.137-1.664ZM40.613-4.3A5.013,5.013,0,0,1,41.1-6.547,3.546,3.546,0,0,1,42.492-8.07a4.069,4.069,0,0,1,2.113-.539A3.849,3.849,0,0,1,47.4-7.562a4.2,4.2,0,0,1,1.207,2.844l.016.578A4.418,4.418,0,0,1,47.535-1.02,3.775,3.775,0,0,1,44.621.156,3.793,3.793,0,0,1,41.7-1.016,4.5,4.5,0,0,1,40.613-4.2Zm2.258.16A3.16,3.16,0,0,0,43.324-2.3a1.5,1.5,0,0,0,1.3.638,1.5,1.5,0,0,0,1.281-.63,3.457,3.457,0,0,0,.461-2.015A3.128,3.128,0,0,0,45.9-6.14a1.5,1.5,0,0,0-1.3-.649,1.474,1.474,0,0,0-1.281.646A3.516,3.516,0,0,0,42.871-4.144ZM54.59-2.336a.727.727,0,0,0-.41-.652,4.659,4.659,0,0,0-1.316-.426q-3.016-.633-3.016-2.562a2.323,2.323,0,0,1,.934-1.879,3.766,3.766,0,0,1,2.441-.754,4.053,4.053,0,0,1,2.574.758,2.388,2.388,0,0,1,.965,1.969H54.5a1.092,1.092,0,0,0-.312-.8A1.322,1.322,0,0,0,53.215-7a1.351,1.351,0,0,0-.883.258.814.814,0,0,0-.312.656.7.7,0,0,0,.355.605,3.657,3.657,0,0,0,1.2.4A9.8,9.8,0,0,1,55-4.7,2.336,2.336,0,0,1,56.785-2.43a2.2,2.2,0,0,1-.992,1.871A4.28,4.28,0,0,1,53.23.156a4.47,4.47,0,0,1-1.887-.379,3.166,3.166,0,0,1-1.293-1.039,2.414,2.414,0,0,1-.469-1.426h2.141a1.179,1.179,0,0,0,.445.922,1.766,1.766,0,0,0,1.109.32,1.635,1.635,0,0,0,.98-.246A.766.766,0,0,0,54.59-2.336Z" transform="translate(568 7779.811)" fill="#12263f" stroke="rgba(0,0,0,0)" stroke-width="1"/>
      <path id="Path_828180" data-name="Path 828180" d="M-31.492,0h-2.344V-11.375h2.344Zm4.1-8.453.07.977a2.951,2.951,0,0,1,2.43-1.133,2.453,2.453,0,0,1,2,.789,3.682,3.682,0,0,1,.672,2.359V0h-2.258V-5.406a1.465,1.465,0,0,0-.312-1.043,1.4,1.4,0,0,0-1.039-.324,1.553,1.553,0,0,0-1.43.813V0h-2.258V-8.453Zm6.531,4.164a5.094,5.094,0,0,1,.887-3.148,2.877,2.877,0,0,1,2.426-1.172,2.589,2.589,0,0,1,2.039.922V-12h2.266V0h-2.039l-.109-.9A2.657,2.657,0,0,1-17.562.156,2.869,2.869,0,0,1-19.957-1.02,5.258,5.258,0,0,1-20.859-4.289Zm2.258.168A3.337,3.337,0,0,0-18.187-2.3a1.349,1.349,0,0,0,1.2.634,1.511,1.511,0,0,0,1.477-.884V-5.889a1.489,1.489,0,0,0-1.461-.884Q-18.6-6.773-18.6-4.121ZM-9.109,0h-2.266V-8.453h2.266Zm-2.4-10.641a1.112,1.112,0,0,1,.34-.836,1.277,1.277,0,0,1,.926-.328,1.28,1.28,0,0,1,.922.328,1.105,1.105,0,0,1,.344.836,1.108,1.108,0,0,1-.348.844,1.283,1.283,0,0,1-.918.328A1.283,1.283,0,0,1-11.16-9.8,1.108,1.108,0,0,1-11.508-10.641Zm7.422,7.883,1.57-5.7H-.156L-3.008,0H-5.164L-8.016-8.453h2.359ZM3.219,0H.953V-8.453H3.219ZM.82-10.641a1.112,1.112,0,0,1,.34-.836,1.277,1.277,0,0,1,.926-.328,1.28,1.28,0,0,1,.922.328,1.105,1.105,0,0,1,.344.836A1.108,1.108,0,0,1,3-9.8a1.283,1.283,0,0,1-.918.328A1.283,1.283,0,0,1,1.168-9.8,1.108,1.108,0,0,1,.82-10.641ZM4.727-4.289a5.094,5.094,0,0,1,.887-3.148A2.877,2.877,0,0,1,8.039-8.609a2.589,2.589,0,0,1,2.039.922V-12h2.266V0H10.3L10.2-.9A2.657,2.657,0,0,1,8.023.156,2.869,2.869,0,0,1,5.629-1.02,5.258,5.258,0,0,1,4.727-4.289Zm2.258.168A3.337,3.337,0,0,0,7.4-2.3a1.349,1.349,0,0,0,1.2.634,1.511,1.511,0,0,0,1.477-.884V-5.889a1.489,1.489,0,0,0-1.461-.884Q6.984-6.773,6.984-4.121ZM19.156-.859A2.831,2.831,0,0,1,16.844.156,2.67,2.67,0,0,1,14.77-.625a3.335,3.335,0,0,1-.73-2.289V-8.453H16.3v5.467q0,1.322,1.2,1.322a1.63,1.63,0,0,0,1.578-.8V-8.453h2.266V0H19.219ZM27.945,0a2.507,2.507,0,0,1-.227-.758,2.732,2.732,0,0,1-2.133.914,3,3,0,0,1-2.059-.719,2.312,2.312,0,0,1-.816-1.812,2.389,2.389,0,0,1,1-2.062,4.915,4.915,0,0,1,2.879-.727h1.039v-.484a1.393,1.393,0,0,0-.3-.937,1.183,1.183,0,0,0-.949-.352,1.345,1.345,0,0,0-.895.273.929.929,0,0,0-.324.75H22.9a2.268,2.268,0,0,1,.453-1.359,3,3,0,0,1,1.281-.98,4.669,4.669,0,0,1,1.859-.355,3.689,3.689,0,0,1,2.48.785,2.747,2.747,0,0,1,.918,2.207v3.664a4.041,4.041,0,0,0,.336,1.82V0ZM26.078-1.57A1.945,1.945,0,0,0,27-1.793a1.462,1.462,0,0,0,.625-.6V-3.844h-.844q-1.7,0-1.8,1.172l-.008.133a.9.9,0,0,0,.3.7A1.153,1.153,0,0,0,26.078-1.57ZM34.008,0H31.742V-12h2.266Z" transform="translate(568 7889.811)" fill="#12263f"/>
      <path id="Path_828181" data-name="Path 828181" d="M-55.68,0h-2.344l-4.562-7.484V0H-64.93V-11.375h2.344l4.57,7.5v-7.5h2.336Zm6.961-.859A2.831,2.831,0,0,1-51.031.156a2.67,2.67,0,0,1-2.074-.781,3.335,3.335,0,0,1-.73-2.289V-8.453h2.258v5.467q0,1.322,1.2,1.322a1.63,1.63,0,0,0,1.578-.8V-8.453h2.266V0h-2.125ZM-49.727-12h2.461L-49.43-9.578h-1.836Zm7.016,3.547.07.945a2.971,2.971,0,0,1,2.43-1.1A2.255,2.255,0,0,1-37.969-7.32,2.9,2.9,0,0,1-35.43-8.609a2.521,2.521,0,0,1,2.047.8,3.681,3.681,0,0,1,.672,2.41V0h-2.266V-5.391a1.61,1.61,0,0,0-.281-1.051,1.246,1.246,0,0,0-.992-.332,1.409,1.409,0,0,0-1.406.969l.008,5.8h-2.258V-5.383A1.59,1.59,0,0,0-40.2-6.445a1.259,1.259,0,0,0-.984-.328,1.463,1.463,0,0,0-1.391.8V0h-2.258V-8.453ZM-27.086.156A4.15,4.15,0,0,1-30.113-.984a4.054,4.054,0,0,1-1.168-3.039v-.219a5.106,5.106,0,0,1,.492-2.277,3.612,3.612,0,0,1,1.395-1.547,3.914,3.914,0,0,1,2.059-.543,3.508,3.508,0,0,1,2.73,1.094,4.444,4.444,0,0,1,1,3.1v.922h-5.383a2.1,2.1,0,0,0,.66,1.328,2,2,0,0,0,1.395.5A2.437,2.437,0,0,0-24.9-2.609l1.109,1.242A3.389,3.389,0,0,1-25.164-.246,4.511,4.511,0,0,1-27.086.156Zm-.258-6.945a1.411,1.411,0,0,0-1.09.455,2.357,2.357,0,0,0-.535,1.3h3.141v-.181a1.681,1.681,0,0,0-.406-1.165A1.456,1.456,0,0,0-27.344-6.789Zm9.766.453a6.134,6.134,0,0,0-.812-.062,1.654,1.654,0,0,0-1.68.867V0h-2.258V-8.453H-20.2l.063,1.008A2.092,2.092,0,0,1-18.25-8.609a2.366,2.366,0,0,1,.7.1Zm.453,2.031a5.013,5.013,0,0,1,.484-2.242A3.546,3.546,0,0,1-15.246-8.07a4.069,4.069,0,0,1,2.113-.539A3.849,3.849,0,0,1-10.34-7.562,4.2,4.2,0,0,1-9.133-4.719l.016.578A4.418,4.418,0,0,1-10.2-1.02,3.775,3.775,0,0,1-13.117.156a3.793,3.793,0,0,1-2.918-1.172A4.5,4.5,0,0,1-17.125-4.2Zm2.258.16A3.16,3.16,0,0,0-14.414-2.3a1.5,1.5,0,0,0,1.3.638,1.5,1.5,0,0,0,1.281-.63,3.457,3.457,0,0,0,.461-2.015,3.128,3.128,0,0,0-.461-1.831,1.5,1.5,0,0,0-1.3-.649,1.474,1.474,0,0,0-1.281.646A3.516,3.516,0,0,0-14.867-4.144Zm10.773-.145a5.094,5.094,0,0,1,.887-3.148A2.877,2.877,0,0,1-.781-8.609a2.589,2.589,0,0,1,2.039.922V-12H3.523V0H1.484L1.375-.9A2.657,2.657,0,0,1-.8.156,2.869,2.869,0,0,1-3.191-1.02,5.258,5.258,0,0,1-4.094-4.289Zm2.258.168A3.337,3.337,0,0,0-1.422-2.3a1.349,1.349,0,0,0,1.2.634,1.511,1.511,0,0,0,1.477-.884V-5.889A1.489,1.489,0,0,0-.2-6.773Q-1.836-6.773-1.836-4.121Zm11,4.277A4.15,4.15,0,0,1,6.137-.984,4.054,4.054,0,0,1,4.969-4.023v-.219A5.106,5.106,0,0,1,5.461-6.52,3.612,3.612,0,0,1,6.855-8.066a3.914,3.914,0,0,1,2.059-.543,3.508,3.508,0,0,1,2.73,1.094,4.444,4.444,0,0,1,1,3.1v.922H7.258a2.1,2.1,0,0,0,.66,1.328,2,2,0,0,0,1.395.5,2.437,2.437,0,0,0,2.039-.945l1.109,1.242A3.389,3.389,0,0,1,11.086-.246,4.511,4.511,0,0,1,9.164.156ZM8.906-6.789a1.411,1.411,0,0,0-1.09.455,2.357,2.357,0,0,0-.535,1.3h3.141v-.181a1.681,1.681,0,0,0-.406-1.165A1.456,1.456,0,0,0,8.906-6.789ZM17.555-4.3a5.013,5.013,0,0,1,.484-2.242A3.546,3.546,0,0,1,19.434-8.07a4.069,4.069,0,0,1,2.113-.539A3.849,3.849,0,0,1,24.34-7.562a4.2,4.2,0,0,1,1.207,2.844l.016.578A4.418,4.418,0,0,1,24.477-1.02,3.775,3.775,0,0,1,21.563.156a3.793,3.793,0,0,1-2.918-1.172A4.5,4.5,0,0,1,17.555-4.2Zm2.258.16A3.16,3.16,0,0,0,20.266-2.3a1.5,1.5,0,0,0,1.3.638,1.5,1.5,0,0,0,1.281-.63A3.457,3.457,0,0,0,23.3-4.309a3.128,3.128,0,0,0-.461-1.831,1.5,1.5,0,0,0-1.3-.649,1.474,1.474,0,0,0-1.281.646A3.516,3.516,0,0,0,19.813-4.144ZM27.5,0V-6.8H26.242V-8.453H27.5v-.391a3.17,3.17,0,0,1,.98-2.457,3.945,3.945,0,0,1,2.723-.863,9.031,9.031,0,0,1,2.563.461l-.328,1.867a10,10,0,0,0-1.187-.293,5.835,5.835,0,0,0-.906-.066q-1.578,0-1.578,1.4v.344H31.43V-6.8H29.766V0Zm7.32,0H32.555V-8.453H34.82ZM40.2-1.664a1.481,1.481,0,0,0,1.016-.344,1.2,1.2,0,0,0,.406-.914h2.117a2.9,2.9,0,0,1-.469,1.574A3.093,3.093,0,0,1,42.012-.238a3.949,3.949,0,0,1-1.77.395A3.67,3.67,0,0,1,37.383-1,4.56,4.56,0,0,1,36.336-4.18v-.148a4.508,4.508,0,0,1,1.039-3.117,3.627,3.627,0,0,1,2.852-1.164,3.555,3.555,0,0,1,2.543.9,3.2,3.2,0,0,1,.973,2.4H41.625a1.551,1.551,0,0,0-.406-1.072,1.354,1.354,0,0,0-1.031-.412A1.36,1.36,0,0,0,39-6.214a3.333,3.333,0,0,0-.4,1.866v.235a3.375,3.375,0,0,0,.4,1.878A1.377,1.377,0,0,0,40.2-1.664ZM47.414,0H45.148V-8.453h2.266Zm-2.4-10.641a1.112,1.112,0,0,1,.34-.836,1.277,1.277,0,0,1,.926-.328,1.28,1.28,0,0,1,.922.328,1.105,1.105,0,0,1,.344.836A1.108,1.108,0,0,1,47.2-9.8a1.283,1.283,0,0,1-.918.328,1.283,1.283,0,0,1-.918-.328A1.108,1.108,0,0,1,45.016-10.641Zm6.336,2.188.07.977a2.951,2.951,0,0,1,2.43-1.133,2.453,2.453,0,0,1,2,.789,3.682,3.682,0,0,1,.672,2.359V0H54.266V-5.406a1.465,1.465,0,0,0-.312-1.043,1.4,1.4,0,0,0-1.039-.324,1.553,1.553,0,0,0-1.43.813V0H49.227V-8.453ZM63.133,0a2.507,2.507,0,0,1-.227-.758,2.732,2.732,0,0,1-2.133.914,3,3,0,0,1-2.059-.719A2.312,2.312,0,0,1,57.9-2.375a2.389,2.389,0,0,1,1-2.062,4.915,4.915,0,0,1,2.879-.727h1.039v-.484a1.393,1.393,0,0,0-.3-.937,1.183,1.183,0,0,0-.949-.352,1.345,1.345,0,0,0-.895.273.929.929,0,0,0-.324.75H58.086a2.268,2.268,0,0,1,.453-1.359,3,3,0,0,1,1.281-.98,4.669,4.669,0,0,1,1.859-.355,3.689,3.689,0,0,1,2.48.785,2.747,2.747,0,0,1,.918,2.207v3.664a4.041,4.041,0,0,0,.336,1.82V0ZM61.266-1.57a1.945,1.945,0,0,0,.922-.223,1.462,1.462,0,0,0,.625-.6V-3.844h-.844q-1.7,0-1.8,1.172l-.008.133a.9.9,0,0,0,.3.7A1.153,1.153,0,0,0,61.266-1.57Z" transform="translate(568 7998.811)" fill="#12263f"/>
      <path id="Path_828182" data-name="Path 828182" d="M-36.875,0V-11.375h3.984a5.232,5.232,0,0,1,3.141.793,2.712,2.712,0,0,1,1.07,2.324,2.57,2.57,0,0,1-.43,1.473,2.482,2.482,0,0,1-1.2.934,2.4,2.4,0,0,1,1.379.883,2.61,2.61,0,0,1,.5,1.625A3,3,0,0,1-29.469-.859,4.713,4.713,0,0,1-32.453,0Zm2.344-4.953v3.07h2.008a1.938,1.938,0,0,0,1.293-.395,1.353,1.353,0,0,0,.465-1.09,1.428,1.428,0,0,0-1.617-1.586Zm0-1.656H-32.8q1.773-.031,1.773-1.414a1.307,1.307,0,0,0-.449-1.113,2.363,2.363,0,0,0-1.418-.34h-1.641ZM-24.43,0H-26.7V-8.453h2.266Zm-2.4-10.641a1.112,1.112,0,0,1,.34-.836,1.277,1.277,0,0,1,.926-.328,1.28,1.28,0,0,1,.922.328,1.105,1.105,0,0,1,.344.836,1.108,1.108,0,0,1-.348.844,1.283,1.283,0,0,1-.918.328A1.283,1.283,0,0,1-26.48-9.8,1.108,1.108,0,0,1-26.828-10.641ZM-22.922-4.3a5.013,5.013,0,0,1,.484-2.242A3.546,3.546,0,0,1-21.043-8.07a4.069,4.069,0,0,1,2.113-.539,3.849,3.849,0,0,1,2.793,1.047A4.2,4.2,0,0,1-14.93-4.719l.016.578A4.418,4.418,0,0,1-16-1.02,3.775,3.775,0,0,1-18.914.156a3.793,3.793,0,0,1-2.918-1.172A4.5,4.5,0,0,1-22.922-4.2Zm2.258.16A3.16,3.16,0,0,0-20.211-2.3a1.5,1.5,0,0,0,1.3.638,1.5,1.5,0,0,0,1.281-.63,3.457,3.457,0,0,0,.461-2.015,3.128,3.128,0,0,0-.461-1.831,1.5,1.5,0,0,0-1.3-.649,1.474,1.474,0,0,0-1.281.646A3.516,3.516,0,0,0-20.664-4.144ZM-11.141,0h-2.266V-12h2.266Zm1.508-4.3a5.013,5.013,0,0,1,.484-2.242A3.546,3.546,0,0,1-7.754-8.07a4.069,4.069,0,0,1,2.113-.539A3.849,3.849,0,0,1-2.848-7.562,4.2,4.2,0,0,1-1.641-4.719l.016.578A4.418,4.418,0,0,1-2.711-1.02,3.775,3.775,0,0,1-5.625.156,3.793,3.793,0,0,1-8.543-1.016,4.5,4.5,0,0,1-9.633-4.2Zm2.258.16A3.16,3.16,0,0,0-6.922-2.3a1.5,1.5,0,0,0,1.3.638,1.5,1.5,0,0,0,1.281-.63,3.457,3.457,0,0,0,.461-2.015A3.128,3.128,0,0,0-4.344-6.14a1.5,1.5,0,0,0-1.3-.649,1.474,1.474,0,0,0-1.281.646A3.516,3.516,0,0,0-7.375-4.144ZM-5.2-12h2.461L-4.9-9.578H-6.734ZM-.562-4.289A4.954,4.954,0,0,1,.363-7.422a3,3,0,0,1,2.5-1.187,2.631,2.631,0,0,1,2.164.953l.094-.8H7.164V-.281a3.613,3.613,0,0,1-.5,1.93A3.236,3.236,0,0,1,5.242,2.9a4.985,4.985,0,0,1-2.141.43,4.635,4.635,0,0,1-1.812-.371A3.217,3.217,0,0,1-.047,2l1-1.375A2.645,2.645,0,0,0,3,1.57a1.936,1.936,0,0,0,1.4-.48A1.8,1.8,0,0,0,4.9-.273V-.727A2.612,2.612,0,0,1,2.844.156,2.992,2.992,0,0,1,.379-1.035,4.953,4.953,0,0,1-.562-4.2ZM1.7-4.121a3.085,3.085,0,0,0,.461,1.8,1.466,1.466,0,0,0,1.266.653A1.568,1.568,0,0,0,4.9-2.439V-6a1.564,1.564,0,0,0-1.461-.775,1.476,1.476,0,0,0-1.277.665A3.477,3.477,0,0,0,1.7-4.121ZM11.281,0H9.016V-8.453h2.266Zm-2.4-10.641a1.112,1.112,0,0,1,.34-.836,1.277,1.277,0,0,1,.926-.328,1.28,1.28,0,0,1,.922.328,1.105,1.105,0,0,1,.344.836,1.108,1.108,0,0,1-.348.844,1.283,1.283,0,0,1-.918.328A1.283,1.283,0,0,1,9.23-9.8,1.108,1.108,0,0,1,8.883-10.641Zm7.773,8.977a1.481,1.481,0,0,0,1.016-.344,1.2,1.2,0,0,0,.406-.914H20.2a2.9,2.9,0,0,1-.469,1.574A3.093,3.093,0,0,1,18.465-.238,3.949,3.949,0,0,1,16.7.156,3.67,3.67,0,0,1,13.836-1,4.56,4.56,0,0,1,12.789-4.18v-.148a4.508,4.508,0,0,1,1.039-3.117A3.627,3.627,0,0,1,16.68-8.609a3.555,3.555,0,0,1,2.543.9A3.2,3.2,0,0,1,20.2-5.3H18.078a1.551,1.551,0,0,0-.406-1.072,1.354,1.354,0,0,0-1.031-.412,1.36,1.36,0,0,0-1.191.575,3.333,3.333,0,0,0-.4,1.866v.235a3.375,3.375,0,0,0,.4,1.878A1.377,1.377,0,0,0,16.656-1.664ZM21.133-4.3a5.013,5.013,0,0,1,.484-2.242A3.546,3.546,0,0,1,23.012-8.07a4.069,4.069,0,0,1,2.113-.539,3.849,3.849,0,0,1,2.793,1.047,4.2,4.2,0,0,1,1.207,2.844l.016.578A4.418,4.418,0,0,1,28.055-1.02,3.775,3.775,0,0,1,25.141.156a3.793,3.793,0,0,1-2.918-1.172A4.5,4.5,0,0,1,21.133-4.2Zm2.258.16A3.16,3.16,0,0,0,23.844-2.3a1.5,1.5,0,0,0,1.3.638,1.5,1.5,0,0,0,1.281-.63,3.457,3.457,0,0,0,.461-2.015,3.128,3.128,0,0,0-.461-1.831,1.5,1.5,0,0,0-1.3-.649,1.474,1.474,0,0,0-1.281.646A3.516,3.516,0,0,0,23.391-4.144ZM35.109-2.336a.727.727,0,0,0-.41-.652,4.659,4.659,0,0,0-1.316-.426q-3.016-.633-3.016-2.562A2.323,2.323,0,0,1,31.3-7.855a3.766,3.766,0,0,1,2.441-.754,4.053,4.053,0,0,1,2.574.758,2.388,2.388,0,0,1,.965,1.969H35.023a1.092,1.092,0,0,0-.312-.8A1.322,1.322,0,0,0,33.734-7a1.351,1.351,0,0,0-.883.258.814.814,0,0,0-.312.656.7.7,0,0,0,.355.605,3.657,3.657,0,0,0,1.2.4,9.8,9.8,0,0,1,1.422.379A2.336,2.336,0,0,1,37.3-2.43a2.2,2.2,0,0,1-.992,1.871A4.28,4.28,0,0,1,33.75.156a4.47,4.47,0,0,1-1.887-.379A3.166,3.166,0,0,1,30.57-1.262,2.414,2.414,0,0,1,30.1-2.687h2.141a1.179,1.179,0,0,0,.445.922,1.766,1.766,0,0,0,1.109.32,1.635,1.635,0,0,0,.98-.246A.766.766,0,0,0,35.109-2.336Z" transform="translate(719 7779.811)" fill="#12263f" stroke="rgba(0,0,0,0)" stroke-width="1"/>
      <path id="Path_828183" data-name="Path 828183" d="M-23.16-1.883h4.977V0H-25.5V-11.375h2.344ZM-14.605,0h-2.266V-8.453h2.266ZM-17-10.641a1.112,1.112,0,0,1,.34-.836,1.277,1.277,0,0,1,.926-.328,1.28,1.28,0,0,1,.922.328,1.105,1.105,0,0,1,.344.836,1.108,1.108,0,0,1-.348.844,1.283,1.283,0,0,1-.918.328,1.283,1.283,0,0,1-.918-.328A1.108,1.108,0,0,1-17-10.641Zm6.375,2.188.07.945a2.971,2.971,0,0,1,2.43-1.1A2.255,2.255,0,0,1-5.887-7.32,2.9,2.9,0,0,1-3.348-8.609a2.521,2.521,0,0,1,2.047.8A3.681,3.681,0,0,1-.629-5.4V0H-2.895V-5.391a1.61,1.61,0,0,0-.281-1.051,1.246,1.246,0,0,0-.992-.332A1.409,1.409,0,0,0-5.574-5.8L-5.566,0H-7.824V-5.383a1.59,1.59,0,0,0-.289-1.062A1.259,1.259,0,0,0-9.1-6.773a1.463,1.463,0,0,0-1.391.8V0h-2.258V-8.453Zm19.344,4.3A5.07,5.07,0,0,1,7.828-1.02,2.843,2.843,0,0,1,5.434.156a2.633,2.633,0,0,1-2.07-.891V3.25H1.105v-11.7H3.2l.078.828a2.654,2.654,0,0,1,2.141-.984,2.862,2.862,0,0,1,2.43,1.156,5.207,5.207,0,0,1,.867,3.188ZM6.457-4.312a3.327,3.327,0,0,0-.418-1.82,1.361,1.361,0,0,0-1.215-.641,1.478,1.478,0,0,0-1.461.813V-2.5a1.5,1.5,0,0,0,1.477.836Q6.457-1.664,6.457-4.312ZM12.5,0H10.23V-8.453H12.5ZM10.1-10.641a1.112,1.112,0,0,1,.34-.836,1.277,1.277,0,0,1,.926-.328,1.28,1.28,0,0,1,.922.328,1.105,1.105,0,0,1,.344.836,1.108,1.108,0,0,1-.348.844,1.283,1.283,0,0,1-.918.328,1.283,1.283,0,0,1-.918-.328A1.108,1.108,0,0,1,10.1-10.641ZM14-4.3a5.013,5.013,0,0,1,.484-2.242A3.546,3.546,0,0,1,15.883-8.07,4.069,4.069,0,0,1,18-8.609a3.849,3.849,0,0,1,2.793,1.047A4.2,4.2,0,0,1,22-4.719l.016.578A4.418,4.418,0,0,1,20.926-1.02,3.775,3.775,0,0,1,18.012.156a3.793,3.793,0,0,1-2.918-1.172A4.5,4.5,0,0,1,14-4.2Zm2.258.16A3.16,3.16,0,0,0,16.715-2.3a1.5,1.5,0,0,0,1.3.638,1.5,1.5,0,0,0,1.281-.63,3.457,3.457,0,0,0,.461-2.015,3.128,3.128,0,0,0-.461-1.831A1.5,1.5,0,0,0,18-6.789a1.474,1.474,0,0,0-1.281.646A3.516,3.516,0,0,0,16.262-4.144Z" transform="translate(719 7889.811)" fill="#12263f" stroke="rgba(0,0,0,0)" stroke-width="1"/>
      <path id="Path_828184" data-name="Path 828184" d="M-65.559,0H-67.9l-4.562-7.484V0h-2.344V-11.375h2.344l4.57,7.5v-7.5h2.336ZM-58.6-.859A2.831,2.831,0,0,1-60.91.156a2.67,2.67,0,0,1-2.074-.781,3.335,3.335,0,0,1-.73-2.289V-8.453h2.258v5.467q0,1.322,1.2,1.322a1.63,1.63,0,0,0,1.578-.8V-8.453h2.266V0h-2.125ZM-59.605-12h2.461l-2.164,2.422h-1.836Zm7.016,3.547.07.945a2.971,2.971,0,0,1,2.43-1.1A2.255,2.255,0,0,1-47.848-7.32a2.9,2.9,0,0,1,2.539-1.289,2.521,2.521,0,0,1,2.047.8A3.681,3.681,0,0,1-42.59-5.4V0h-2.266V-5.391a1.61,1.61,0,0,0-.281-1.051,1.246,1.246,0,0,0-.992-.332,1.409,1.409,0,0,0-1.406.969l.008,5.8h-2.258V-5.383a1.59,1.59,0,0,0-.289-1.062,1.259,1.259,0,0,0-.984-.328,1.463,1.463,0,0,0-1.391.8V0h-2.258V-8.453ZM-36.965.156A4.15,4.15,0,0,1-39.992-.984,4.054,4.054,0,0,1-41.16-4.023v-.219a5.106,5.106,0,0,1,.492-2.277,3.612,3.612,0,0,1,1.395-1.547,3.914,3.914,0,0,1,2.059-.543,3.508,3.508,0,0,1,2.73,1.094,4.444,4.444,0,0,1,1,3.1v.922h-5.383a2.1,2.1,0,0,0,.66,1.328,2,2,0,0,0,1.395.5,2.437,2.437,0,0,0,2.039-.945l1.109,1.242A3.389,3.389,0,0,1-35.043-.246,4.511,4.511,0,0,1-36.965.156Zm-.258-6.945a1.411,1.411,0,0,0-1.09.455,2.357,2.357,0,0,0-.535,1.3h3.141v-.181a1.681,1.681,0,0,0-.406-1.165A1.456,1.456,0,0,0-37.223-6.789Zm9.766.453A6.134,6.134,0,0,0-28.27-6.4a1.654,1.654,0,0,0-1.68.867V0h-2.258V-8.453h2.133l.063,1.008a2.092,2.092,0,0,1,1.883-1.164,2.366,2.366,0,0,1,.7.1ZM-27-4.3a5.013,5.013,0,0,1,.484-2.242A3.546,3.546,0,0,1-25.125-8.07a4.069,4.069,0,0,1,2.113-.539,3.849,3.849,0,0,1,2.793,1.047,4.2,4.2,0,0,1,1.207,2.844l.016.578A4.418,4.418,0,0,1-20.082-1.02,3.775,3.775,0,0,1-23,.156a3.793,3.793,0,0,1-2.918-1.172A4.5,4.5,0,0,1-27-4.2Zm2.258.16A3.16,3.16,0,0,0-24.293-2.3a1.5,1.5,0,0,0,1.3.638,1.5,1.5,0,0,0,1.281-.63,3.457,3.457,0,0,0,.461-2.015,3.128,3.128,0,0,0-.461-1.831,1.5,1.5,0,0,0-1.3-.649,1.474,1.474,0,0,0-1.281.646A3.516,3.516,0,0,0-24.746-4.144Zm10.773-.145a5.094,5.094,0,0,1,.887-3.148A2.877,2.877,0,0,1-10.66-8.609a2.589,2.589,0,0,1,2.039.922V-12h2.266V0H-8.395L-8.5-.9A2.657,2.657,0,0,1-10.676.156,2.869,2.869,0,0,1-13.07-1.02,5.258,5.258,0,0,1-13.973-4.289Zm2.258.168A3.337,3.337,0,0,0-11.3-2.3a1.349,1.349,0,0,0,1.2.634,1.511,1.511,0,0,0,1.477-.884V-5.889a1.489,1.489,0,0,0-1.461-.884Q-11.715-6.773-11.715-4.121Zm11,4.277A4.15,4.15,0,0,1-3.742-.984,4.054,4.054,0,0,1-4.91-4.023v-.219A5.106,5.106,0,0,1-4.418-6.52,3.612,3.612,0,0,1-3.023-8.066,3.914,3.914,0,0,1-.965-8.609a3.508,3.508,0,0,1,2.73,1.094,4.444,4.444,0,0,1,1,3.1v.922H-2.621a2.1,2.1,0,0,0,.66,1.328,2,2,0,0,0,1.395.5,2.437,2.437,0,0,0,2.039-.945L2.582-1.367A3.389,3.389,0,0,1,1.207-.246,4.511,4.511,0,0,1-.715.156ZM-.973-6.789a1.411,1.411,0,0,0-1.09.455,2.357,2.357,0,0,0-.535,1.3H.543v-.181A1.681,1.681,0,0,0,.137-6.377,1.456,1.456,0,0,0-.973-6.789ZM11.918.156A4.15,4.15,0,0,1,8.891-.984,4.054,4.054,0,0,1,7.723-4.023v-.219A5.106,5.106,0,0,1,8.215-6.52,3.612,3.612,0,0,1,9.609-8.066a3.914,3.914,0,0,1,2.059-.543A3.508,3.508,0,0,1,14.4-7.516a4.444,4.444,0,0,1,1,3.1v.922H10.012a2.1,2.1,0,0,0,.66,1.328,2,2,0,0,0,1.395.5,2.437,2.437,0,0,0,2.039-.945l1.109,1.242A3.389,3.389,0,0,1,13.84-.246,4.511,4.511,0,0,1,11.918.156ZM11.66-6.789a1.411,1.411,0,0,0-1.09.455,2.357,2.357,0,0,0-.535,1.3h3.141v-.181a1.681,1.681,0,0,0-.406-1.165A1.456,1.456,0,0,0,11.66-6.789Zm8.078,4.031,1.57-5.7h2.359L20.816,0H18.66L15.809-8.453h2.359ZM27.043,0H24.777V-8.453h2.266Zm-2.4-10.641a1.112,1.112,0,0,1,.34-.836,1.277,1.277,0,0,1,.926-.328,1.28,1.28,0,0,1,.922.328,1.105,1.105,0,0,1,.344.836,1.108,1.108,0,0,1-.348.844,1.283,1.283,0,0,1-.918.328,1.283,1.283,0,0,1-.918-.328A1.108,1.108,0,0,1,24.645-10.641Zm3.906,6.352a5.094,5.094,0,0,1,.887-3.148,2.877,2.877,0,0,1,2.426-1.172,2.589,2.589,0,0,1,2.039.922V-12h2.266V0H34.129L34.02-.9A2.657,2.657,0,0,1,31.848.156,2.869,2.869,0,0,1,29.453-1.02,5.258,5.258,0,0,1,28.551-4.289Zm2.258.168A3.337,3.337,0,0,0,31.223-2.3a1.349,1.349,0,0,0,1.2.634A1.511,1.511,0,0,0,33.9-2.548V-5.889a1.489,1.489,0,0,0-1.461-.884Q30.809-6.773,30.809-4.121Zm11,4.277A4.15,4.15,0,0,1,38.781-.984a4.054,4.054,0,0,1-1.168-3.039v-.219a5.106,5.106,0,0,1,.492-2.277A3.612,3.612,0,0,1,39.5-8.066a3.914,3.914,0,0,1,2.059-.543,3.508,3.508,0,0,1,2.73,1.094,4.444,4.444,0,0,1,1,3.1v.922H39.9a2.1,2.1,0,0,0,.66,1.328,2,2,0,0,0,1.395.5A2.437,2.437,0,0,0,44-2.609l1.109,1.242A3.389,3.389,0,0,1,43.73-.246,4.511,4.511,0,0,1,41.809.156Zm-.258-6.945a1.411,1.411,0,0,0-1.09.455,2.357,2.357,0,0,0-.535,1.3h3.141v-.181a1.681,1.681,0,0,0-.406-1.165A1.456,1.456,0,0,0,41.551-6.789Zm7.094-1.664.07.977a2.951,2.951,0,0,1,2.43-1.133,2.453,2.453,0,0,1,2,.789,3.682,3.682,0,0,1,.672,2.359V0H51.559V-5.406a1.465,1.465,0,0,0-.312-1.043,1.4,1.4,0,0,0-1.039-.324,1.553,1.553,0,0,0-1.43.813V0H46.52V-8.453Zm10.4,6.789a1.481,1.481,0,0,0,1.016-.344,1.2,1.2,0,0,0,.406-.914h2.117a2.9,2.9,0,0,1-.469,1.574A3.093,3.093,0,0,1,60.852-.238a3.949,3.949,0,0,1-1.77.395A3.67,3.67,0,0,1,56.223-1,4.56,4.56,0,0,1,55.176-4.18v-.148a4.508,4.508,0,0,1,1.039-3.117,3.627,3.627,0,0,1,2.852-1.164,3.555,3.555,0,0,1,2.543.9,3.2,3.2,0,0,1,.973,2.4H60.465a1.551,1.551,0,0,0-.406-1.072,1.354,1.354,0,0,0-1.031-.412,1.36,1.36,0,0,0-1.191.575,3.333,3.333,0,0,0-.4,1.866v.235a3.375,3.375,0,0,0,.4,1.878A1.377,1.377,0,0,0,59.043-1.664ZM66.254,0H63.988V-8.453h2.266Zm-2.4-10.641a1.112,1.112,0,0,1,.34-.836,1.277,1.277,0,0,1,.926-.328,1.28,1.28,0,0,1,.922.328,1.105,1.105,0,0,1,.344.836,1.108,1.108,0,0,1-.348.844,1.283,1.283,0,0,1-.918.328A1.283,1.283,0,0,1,64.2-9.8,1.108,1.108,0,0,1,63.855-10.641ZM73.012,0a2.507,2.507,0,0,1-.227-.758,2.732,2.732,0,0,1-2.133.914,3,3,0,0,1-2.059-.719,2.312,2.312,0,0,1-.816-1.812,2.389,2.389,0,0,1,1-2.062,4.915,4.915,0,0,1,2.879-.727h1.039v-.484a1.393,1.393,0,0,0-.3-.937,1.183,1.183,0,0,0-.949-.352,1.345,1.345,0,0,0-.895.273.929.929,0,0,0-.324.75H67.965a2.268,2.268,0,0,1,.453-1.359,3,3,0,0,1,1.281-.98,4.669,4.669,0,0,1,1.859-.355,3.689,3.689,0,0,1,2.48.785,2.747,2.747,0,0,1,.918,2.207v3.664a4.041,4.041,0,0,0,.336,1.82V0ZM71.145-1.57a1.945,1.945,0,0,0,.922-.223,1.462,1.462,0,0,0,.625-.6V-3.844h-.844q-1.7,0-1.8,1.172l-.008.133a.9.9,0,0,0,.3.7A1.153,1.153,0,0,0,71.145-1.57Z" transform="translate(733 7999.811)" fill="#12263f" stroke="rgba(0,0,0,0)" stroke-width="1"/>
      <path id="Path_828185" data-name="Path 828185" d="M-17.758-4.648h-4.5V0H-24.6V-11.375H-17.2v1.9h-5.062v2.938h4.5ZM-13.547,0H-15.8V-8.453h2.258Zm-.664-11.883h2.461l-2.164,2.422H-15.75Zm7.188,9.547a.727.727,0,0,0-.41-.652A4.659,4.659,0,0,0-8.75-3.414q-3.016-.633-3.016-2.562a2.323,2.323,0,0,1,.934-1.879,3.766,3.766,0,0,1,2.441-.754,4.053,4.053,0,0,1,2.574.758,2.388,2.388,0,0,1,.965,1.969H-7.109a1.092,1.092,0,0,0-.312-.8A1.322,1.322,0,0,0-8.4-7a1.351,1.351,0,0,0-.883.258.814.814,0,0,0-.312.656.7.7,0,0,0,.355.605,3.657,3.657,0,0,0,1.2.4A9.8,9.8,0,0,1-6.617-4.7,2.336,2.336,0,0,1-4.828-2.43,2.2,2.2,0,0,1-5.82-.559,4.28,4.28,0,0,1-8.383.156,4.47,4.47,0,0,1-10.27-.223a3.166,3.166,0,0,1-1.293-1.039,2.414,2.414,0,0,1-.469-1.426h2.141a1.179,1.179,0,0,0,.445.922,1.766,1.766,0,0,0,1.109.32,1.635,1.635,0,0,0,.98-.246A.766.766,0,0,0-7.023-2.336ZM-.992,0H-3.258V-8.453H-.992Zm-2.4-10.641a1.112,1.112,0,0,1,.34-.836,1.277,1.277,0,0,1,.926-.328,1.28,1.28,0,0,1,.922.328,1.105,1.105,0,0,1,.344.836,1.108,1.108,0,0,1-.348.844,1.283,1.283,0,0,1-.918.328A1.283,1.283,0,0,1-3.043-9.8,1.108,1.108,0,0,1-3.391-10.641ZM4.383-1.664A1.481,1.481,0,0,0,5.4-2.008,1.2,1.2,0,0,0,5.8-2.922H7.922a2.9,2.9,0,0,1-.469,1.574A3.093,3.093,0,0,1,6.191-.238a3.949,3.949,0,0,1-1.77.395A3.67,3.67,0,0,1,1.563-1,4.56,4.56,0,0,1,.516-4.18v-.148A4.508,4.508,0,0,1,1.555-7.445,3.627,3.627,0,0,1,4.406-8.609a3.555,3.555,0,0,1,2.543.9,3.2,3.2,0,0,1,.973,2.4H5.8A1.551,1.551,0,0,0,5.4-6.377a1.354,1.354,0,0,0-1.031-.412,1.36,1.36,0,0,0-1.191.575,3.333,3.333,0,0,0-.4,1.866v.235a3.375,3.375,0,0,0,.4,1.878A1.377,1.377,0,0,0,4.383-1.664ZM8.859-4.3a5.013,5.013,0,0,1,.484-2.242A3.546,3.546,0,0,1,10.738-8.07a4.069,4.069,0,0,1,2.113-.539,3.849,3.849,0,0,1,2.793,1.047,4.2,4.2,0,0,1,1.207,2.844l.016.578A4.418,4.418,0,0,1,15.781-1.02,3.775,3.775,0,0,1,12.867.156,3.793,3.793,0,0,1,9.949-1.016,4.5,4.5,0,0,1,8.859-4.2Zm2.258.16A3.16,3.16,0,0,0,11.57-2.3a1.5,1.5,0,0,0,1.3.638,1.5,1.5,0,0,0,1.281-.63,3.457,3.457,0,0,0,.461-2.015,3.128,3.128,0,0,0-.461-1.831,1.5,1.5,0,0,0-1.3-.649,1.474,1.474,0,0,0-1.281.646A3.516,3.516,0,0,0,11.117-4.144ZM22.836-2.336a.727.727,0,0,0-.41-.652,4.659,4.659,0,0,0-1.316-.426q-3.016-.633-3.016-2.562a2.323,2.323,0,0,1,.934-1.879,3.766,3.766,0,0,1,2.441-.754,4.053,4.053,0,0,1,2.574.758,2.388,2.388,0,0,1,.965,1.969H22.75a1.092,1.092,0,0,0-.312-.8A1.322,1.322,0,0,0,21.461-7a1.351,1.351,0,0,0-.883.258.814.814,0,0,0-.312.656.7.7,0,0,0,.355.605,3.657,3.657,0,0,0,1.2.4,9.8,9.8,0,0,1,1.422.379A2.336,2.336,0,0,1,25.031-2.43a2.2,2.2,0,0,1-.992,1.871,4.28,4.28,0,0,1-2.562.715A4.47,4.47,0,0,1,19.59-.223,3.166,3.166,0,0,1,18.3-1.262a2.414,2.414,0,0,1-.469-1.426h2.141a1.179,1.179,0,0,0,.445.922,1.766,1.766,0,0,0,1.109.32,1.635,1.635,0,0,0,.98-.246A.766.766,0,0,0,22.836-2.336Z" transform="translate(881 7783.811)" fill="#12263f" stroke="rgba(0,0,0,0)" stroke-width="1"/>
      <path id="Path_828186" data-name="Path 828186" d="M-28.746-2.344h-4.109L-33.637,0h-2.492l4.234-11.375h2.172L-25.465,0h-2.492Zm-3.477-1.9h2.844L-30.809-8.5Zm7.32-.047a5.094,5.094,0,0,1,.887-3.148A2.877,2.877,0,0,1-21.59-8.609a2.589,2.589,0,0,1,2.039.922V-12h2.266V0h-2.039l-.109-.9A2.657,2.657,0,0,1-21.605.156,2.869,2.869,0,0,1-24-1.02,5.258,5.258,0,0,1-24.9-4.289Zm2.258.168A3.337,3.337,0,0,0-22.23-2.3a1.349,1.349,0,0,0,1.2.634,1.511,1.511,0,0,0,1.477-.884V-5.889a1.489,1.489,0,0,0-1.461-.884Q-22.645-6.773-22.645-4.121Zm11,4.277A4.15,4.15,0,0,1-14.672-.984,4.054,4.054,0,0,1-15.84-4.023v-.219a5.106,5.106,0,0,1,.492-2.277,3.612,3.612,0,0,1,1.395-1.547,3.914,3.914,0,0,1,2.059-.543,3.508,3.508,0,0,1,2.73,1.094,4.444,4.444,0,0,1,1,3.1v.922h-5.383a2.1,2.1,0,0,0,.66,1.328,2,2,0,0,0,1.395.5,2.437,2.437,0,0,0,2.039-.945l1.109,1.242A3.389,3.389,0,0,1-9.723-.246,4.511,4.511,0,0,1-11.645.156ZM-11.9-6.789a1.411,1.411,0,0,0-1.09.455,2.357,2.357,0,0,0-.535,1.3h3.141v-.181a1.681,1.681,0,0,0-.406-1.165A1.456,1.456,0,0,0-11.9-6.789Zm8.531,5.125a1.481,1.481,0,0,0,1.016-.344,1.2,1.2,0,0,0,.406-.914H.168A2.9,2.9,0,0,1-.3-1.348,3.093,3.093,0,0,1-1.562-.238a3.949,3.949,0,0,1-1.77.395A3.67,3.67,0,0,1-6.191-1,4.56,4.56,0,0,1-7.238-4.18v-.148A4.508,4.508,0,0,1-6.2-7.445,3.627,3.627,0,0,1-3.348-8.609a3.555,3.555,0,0,1,2.543.9A3.2,3.2,0,0,1,.168-5.3H-1.949a1.551,1.551,0,0,0-.406-1.072,1.354,1.354,0,0,0-1.031-.412,1.36,1.36,0,0,0-1.191.575,3.333,3.333,0,0,0-.4,1.866v.235a3.375,3.375,0,0,0,.4,1.878A1.377,1.377,0,0,0-3.371-1.664Zm9.891.8A2.831,2.831,0,0,1,4.207.156,2.67,2.67,0,0,1,2.133-.625,3.335,3.335,0,0,1,1.4-2.914V-8.453H3.66v5.467q0,1.322,1.2,1.322a1.63,1.63,0,0,0,1.578-.8V-8.453H8.707V0H6.582ZM15.309,0a2.507,2.507,0,0,1-.227-.758,2.732,2.732,0,0,1-2.133.914,3,3,0,0,1-2.059-.719,2.312,2.312,0,0,1-.816-1.812,2.389,2.389,0,0,1,1-2.062,4.915,4.915,0,0,1,2.879-.727h1.039v-.484a1.393,1.393,0,0,0-.3-.937,1.183,1.183,0,0,0-.949-.352,1.345,1.345,0,0,0-.895.273.929.929,0,0,0-.324.75H10.262a2.268,2.268,0,0,1,.453-1.359A3,3,0,0,1,12-8.254a4.669,4.669,0,0,1,1.859-.355,3.689,3.689,0,0,1,2.48.785,2.747,2.747,0,0,1,.918,2.207v3.664a4.041,4.041,0,0,0,.336,1.82V0ZM13.441-1.57a1.945,1.945,0,0,0,.922-.223,1.462,1.462,0,0,0,.625-.6V-3.844h-.844q-1.7,0-1.8,1.172l-.008.133a.9.9,0,0,0,.3.7A1.153,1.153,0,0,0,13.441-1.57Zm5.2-2.719a5.094,5.094,0,0,1,.887-3.148,2.877,2.877,0,0,1,2.426-1.172,2.589,2.589,0,0,1,2.039.922V-12h2.266V0H24.215l-.109-.9A2.657,2.657,0,0,1,21.934.156,2.869,2.869,0,0,1,19.539-1.02,5.258,5.258,0,0,1,18.637-4.289Zm2.258.168A3.337,3.337,0,0,0,21.309-2.3a1.349,1.349,0,0,0,1.2.634,1.511,1.511,0,0,0,1.477-.884V-5.889a1.489,1.489,0,0,0-1.461-.884Q20.895-6.773,20.895-4.121ZM27.652-4.3a5.013,5.013,0,0,1,.484-2.242A3.546,3.546,0,0,1,29.531-8.07a4.069,4.069,0,0,1,2.113-.539,3.849,3.849,0,0,1,2.793,1.047,4.2,4.2,0,0,1,1.207,2.844l.016.578A4.418,4.418,0,0,1,34.574-1.02,3.775,3.775,0,0,1,31.66.156a3.793,3.793,0,0,1-2.918-1.172A4.5,4.5,0,0,1,27.652-4.2Zm2.258.16A3.16,3.16,0,0,0,30.363-2.3a1.5,1.5,0,0,0,1.3.638,1.5,1.5,0,0,0,1.281-.63A3.457,3.457,0,0,0,33.4-4.309a3.128,3.128,0,0,0-.461-1.831,1.5,1.5,0,0,0-1.3-.649,1.474,1.474,0,0,0-1.281.646A3.516,3.516,0,0,0,29.91-4.144Z" transform="translate(881 7893.811)" fill="#12263f" stroke="rgba(0,0,0,0)" stroke-width="1"/>
      <path id="Path_828187" data-name="Path 828187" d="M-53.668-9.477h-3.484V0H-59.5V-9.477h-3.437v-1.9h9.266ZM-50.1,0h-2.266V-8.453H-50.1Zm-2.4-10.641a1.112,1.112,0,0,1,.34-.836,1.277,1.277,0,0,1,.926-.328,1.28,1.28,0,0,1,.922.328,1.105,1.105,0,0,1,.344.836,1.108,1.108,0,0,1-.348.844,1.283,1.283,0,0,1-.918.328,1.283,1.283,0,0,1-.918-.328A1.108,1.108,0,0,1-52.5-10.641Zm11.867,6.492a5.07,5.07,0,0,1-.887,3.129A2.843,2.843,0,0,1-43.91.156a2.633,2.633,0,0,1-2.07-.891V3.25h-2.258v-11.7h2.094l.078.828a2.654,2.654,0,0,1,2.141-.984A2.862,2.862,0,0,1-41.5-7.453a5.207,5.207,0,0,1,.867,3.188Zm-2.258-.164a3.327,3.327,0,0,0-.418-1.82,1.361,1.361,0,0,0-1.215-.641,1.479,1.479,0,0,0-1.461.813V-2.5a1.5,1.5,0,0,0,1.477.836Q-42.887-1.664-42.887-4.312Zm3.3.008A5.013,5.013,0,0,1-39.1-6.547,3.546,3.546,0,0,1-37.7-8.07a4.069,4.069,0,0,1,2.113-.539A3.849,3.849,0,0,1-32.8-7.562,4.2,4.2,0,0,1-31.59-4.719l.016.578A4.418,4.418,0,0,1-32.66-1.02,3.775,3.775,0,0,1-35.574.156a3.793,3.793,0,0,1-2.918-1.172A4.5,4.5,0,0,1-39.582-4.2Zm2.258.16A3.16,3.16,0,0,0-36.871-2.3a1.5,1.5,0,0,0,1.3.638,1.5,1.5,0,0,0,1.281-.63,3.457,3.457,0,0,0,.461-2.015,3.128,3.128,0,0,0-.461-1.831,1.5,1.5,0,0,0-1.3-.649,1.474,1.474,0,0,0-1.281.646A3.516,3.516,0,0,0-37.324-4.144Zm10.773-.145a5.094,5.094,0,0,1,.887-3.148,2.877,2.877,0,0,1,2.426-1.172,2.589,2.589,0,0,1,2.039.922V-12h2.266V0h-2.039l-.109-.9A2.657,2.657,0,0,1-23.254.156,2.869,2.869,0,0,1-25.648-1.02,5.258,5.258,0,0,1-26.551-4.289Zm2.258.168A3.337,3.337,0,0,0-23.879-2.3a1.349,1.349,0,0,0,1.2.634A1.511,1.511,0,0,0-21.2-2.548V-5.889a1.489,1.489,0,0,0-1.461-.884Q-24.293-6.773-24.293-4.121Zm11,4.277A4.15,4.15,0,0,1-16.32-.984a4.054,4.054,0,0,1-1.168-3.039v-.219A5.106,5.106,0,0,1-17-6.52,3.612,3.612,0,0,1-15.6-8.066a3.914,3.914,0,0,1,2.059-.543,3.508,3.508,0,0,1,2.73,1.094,4.444,4.444,0,0,1,1,3.1v.922H-15.2a2.1,2.1,0,0,0,.66,1.328,2,2,0,0,0,1.395.5,2.437,2.437,0,0,0,2.039-.945L-10-1.367A3.389,3.389,0,0,1-11.371-.246,4.511,4.511,0,0,1-13.293.156Zm-.258-6.945a1.411,1.411,0,0,0-1.09.455,2.357,2.357,0,0,0-.535,1.3h3.141v-.181a1.681,1.681,0,0,0-.406-1.165A1.456,1.456,0,0,0-13.551-6.789ZM-.66.156A4.15,4.15,0,0,1-3.687-.984,4.054,4.054,0,0,1-4.855-4.023v-.219A5.106,5.106,0,0,1-4.363-6.52,3.612,3.612,0,0,1-2.969-8.066,3.914,3.914,0,0,1-.91-8.609,3.508,3.508,0,0,1,1.82-7.516a4.444,4.444,0,0,1,1,3.1v.922H-2.566a2.1,2.1,0,0,0,.66,1.328,2,2,0,0,0,1.395.5,2.437,2.437,0,0,0,2.039-.945L2.637-1.367A3.389,3.389,0,0,1,1.262-.246,4.511,4.511,0,0,1-.66.156ZM-.918-6.789a1.411,1.411,0,0,0-1.09.455,2.357,2.357,0,0,0-.535,1.3H.6v-.181A1.681,1.681,0,0,0,.191-6.377,1.456,1.456,0,0,0-.918-6.789ZM7.16-2.758l1.57-5.7H11.09L8.238,0H6.082L3.23-8.453H5.59ZM14.465,0H12.2V-8.453h2.266Zm-2.4-10.641a1.112,1.112,0,0,1,.34-.836,1.277,1.277,0,0,1,.926-.328,1.28,1.28,0,0,1,.922.328,1.105,1.105,0,0,1,.344.836,1.108,1.108,0,0,1-.348.844,1.283,1.283,0,0,1-.918.328,1.283,1.283,0,0,1-.918-.328A1.108,1.108,0,0,1,12.066-10.641Zm3.906,6.352a5.094,5.094,0,0,1,.887-3.148,2.877,2.877,0,0,1,2.426-1.172,2.589,2.589,0,0,1,2.039.922V-12H23.59V0H21.551l-.109-.9A2.657,2.657,0,0,1,19.27.156,2.869,2.869,0,0,1,16.875-1.02,5.258,5.258,0,0,1,15.973-4.289Zm2.258.168A3.337,3.337,0,0,0,18.645-2.3a1.349,1.349,0,0,0,1.2.634,1.511,1.511,0,0,0,1.477-.884V-5.889a1.489,1.489,0,0,0-1.461-.884Q18.23-6.773,18.23-4.121Zm11,4.277A4.15,4.15,0,0,1,26.2-.984a4.054,4.054,0,0,1-1.168-3.039v-.219a5.106,5.106,0,0,1,.492-2.277,3.612,3.612,0,0,1,1.395-1.547,3.914,3.914,0,0,1,2.059-.543,3.508,3.508,0,0,1,2.73,1.094,4.444,4.444,0,0,1,1,3.1v.922H27.324a2.1,2.1,0,0,0,.66,1.328,2,2,0,0,0,1.395.5,2.437,2.437,0,0,0,2.039-.945l1.109,1.242A3.389,3.389,0,0,1,31.152-.246,4.511,4.511,0,0,1,29.23.156Zm-.258-6.945a1.411,1.411,0,0,0-1.09.455,2.357,2.357,0,0,0-.535,1.3h3.141v-.181a1.681,1.681,0,0,0-.406-1.165A1.456,1.456,0,0,0,28.973-6.789Zm7.094-1.664.07.977a2.951,2.951,0,0,1,2.43-1.133,2.453,2.453,0,0,1,2,.789,3.682,3.682,0,0,1,.672,2.359V0H38.98V-5.406a1.465,1.465,0,0,0-.312-1.043,1.4,1.4,0,0,0-1.039-.324,1.553,1.553,0,0,0-1.43.813V0H33.941V-8.453Zm10.4,6.789a1.481,1.481,0,0,0,1.016-.344,1.2,1.2,0,0,0,.406-.914H50a2.9,2.9,0,0,1-.469,1.574A3.093,3.093,0,0,1,48.273-.238,3.949,3.949,0,0,1,46.5.156,3.67,3.67,0,0,1,43.645-1,4.56,4.56,0,0,1,42.6-4.18v-.148a4.508,4.508,0,0,1,1.039-3.117,3.627,3.627,0,0,1,2.852-1.164,3.555,3.555,0,0,1,2.543.9A3.2,3.2,0,0,1,50-5.3H47.887a1.551,1.551,0,0,0-.406-1.072,1.354,1.354,0,0,0-1.031-.412,1.36,1.36,0,0,0-1.191.575,3.333,3.333,0,0,0-.4,1.866v.235a3.375,3.375,0,0,0,.4,1.878A1.377,1.377,0,0,0,46.465-1.664ZM53.676,0H51.41V-8.453h2.266Zm-2.4-10.641a1.112,1.112,0,0,1,.34-.836,1.277,1.277,0,0,1,.926-.328,1.28,1.28,0,0,1,.922.328,1.105,1.105,0,0,1,.344.836,1.108,1.108,0,0,1-.348.844,1.283,1.283,0,0,1-.918.328,1.283,1.283,0,0,1-.918-.328A1.108,1.108,0,0,1,51.277-10.641ZM60.434,0a2.507,2.507,0,0,1-.227-.758,2.732,2.732,0,0,1-2.133.914,3,3,0,0,1-2.059-.719A2.312,2.312,0,0,1,55.2-2.375a2.389,2.389,0,0,1,1-2.062,4.915,4.915,0,0,1,2.879-.727h1.039v-.484a1.393,1.393,0,0,0-.3-.937,1.183,1.183,0,0,0-.949-.352,1.345,1.345,0,0,0-.895.273.929.929,0,0,0-.324.75H55.387a2.268,2.268,0,0,1,.453-1.359,3,3,0,0,1,1.281-.98,4.669,4.669,0,0,1,1.859-.355,3.689,3.689,0,0,1,2.48.785,2.747,2.747,0,0,1,.918,2.207v3.664a4.041,4.041,0,0,0,.336,1.82V0ZM58.566-1.57a1.945,1.945,0,0,0,.922-.223,1.462,1.462,0,0,0,.625-.6V-3.844H59.27q-1.7,0-1.8,1.172l-.008.133a.9.9,0,0,0,.3.7A1.153,1.153,0,0,0,58.566-1.57Z" transform="translate(895 7999.811)" fill="#12263f" stroke="rgba(0,0,0,0)" stroke-width="1"/>
      <path id="Path_828188" data-name="Path 828188" d="M-43.125-1.883h4.977V0h-7.32V-11.375h2.344ZM-32-.859A2.831,2.831,0,0,1-34.312.156a2.67,2.67,0,0,1-2.074-.781,3.335,3.335,0,0,1-.73-2.289V-8.453h2.258v5.467q0,1.322,1.2,1.322a1.63,1.63,0,0,0,1.578-.8V-8.453h2.266V0h-2.125Zm3.563-3.43a4.954,4.954,0,0,1,.926-3.133,3,3,0,0,1,2.5-1.187,2.631,2.631,0,0,1,2.164.953l.094-.8h2.047V-.281a3.613,3.613,0,0,1-.5,1.93A3.236,3.236,0,0,1-22.633,2.9a4.985,4.985,0,0,1-2.141.43,4.635,4.635,0,0,1-1.812-.371A3.217,3.217,0,0,1-27.922,2l1-1.375a2.645,2.645,0,0,0,2.047.945,1.936,1.936,0,0,0,1.4-.48,1.8,1.8,0,0,0,.5-1.363V-.727a2.612,2.612,0,0,1-2.055.883A2.992,2.992,0,0,1-27.5-1.035a4.953,4.953,0,0,1-.941-3.16Zm2.258.168a3.085,3.085,0,0,0,.461,1.8,1.466,1.466,0,0,0,1.266.653,1.568,1.568,0,0,0,1.477-.775V-6a1.564,1.564,0,0,0-1.461-.775,1.476,1.476,0,0,0-1.277.665A3.477,3.477,0,0,0-26.18-4.121ZM-14.078,0A2.507,2.507,0,0,1-14.3-.758a2.732,2.732,0,0,1-2.133.914A3,3,0,0,1-18.5-.562a2.312,2.312,0,0,1-.816-1.812,2.389,2.389,0,0,1,1-2.062,4.915,4.915,0,0,1,2.879-.727H-14.4v-.484a1.393,1.393,0,0,0-.3-.937,1.183,1.183,0,0,0-.949-.352,1.345,1.345,0,0,0-.895.273.929.929,0,0,0-.324.75h-2.258a2.268,2.268,0,0,1,.453-1.359,3,3,0,0,1,1.281-.98,4.669,4.669,0,0,1,1.859-.355,3.689,3.689,0,0,1,2.48.785,2.747,2.747,0,0,1,.918,2.207v3.664A4.041,4.041,0,0,0-11.8-.133V0Zm-1.867-1.57a1.945,1.945,0,0,0,.922-.223,1.462,1.462,0,0,0,.625-.6V-3.844h-.844q-1.7,0-1.8,1.172l-.008.133a.9.9,0,0,0,.3.7A1.153,1.153,0,0,0-15.945-1.57Zm10.3-4.766A6.134,6.134,0,0,0-6.461-6.4a1.654,1.654,0,0,0-1.68.867V0H-10.4V-8.453h2.133L-8.2-7.445A2.092,2.092,0,0,1-6.32-8.609a2.366,2.366,0,0,1,.7.1ZM3.313.156A4.15,4.15,0,0,1,.285-.984,4.054,4.054,0,0,1-.883-4.023v-.219A5.106,5.106,0,0,1-.391-6.52,3.612,3.612,0,0,1,1-8.066a3.914,3.914,0,0,1,2.059-.543,3.508,3.508,0,0,1,2.73,1.094,4.444,4.444,0,0,1,1,3.1v.922H1.406a2.1,2.1,0,0,0,.66,1.328,2,2,0,0,0,1.395.5A2.437,2.437,0,0,0,5.5-2.609L6.609-1.367A3.389,3.389,0,0,1,5.234-.246,4.511,4.511,0,0,1,3.313.156ZM3.055-6.789a1.411,1.411,0,0,0-1.09.455,2.357,2.357,0,0,0-.535,1.3H4.57v-.181a1.681,1.681,0,0,0-.406-1.165A1.456,1.456,0,0,0,3.055-6.789Zm8.234.859,1.422-2.523h2.414L12.719-4.312,15.227,0H12.8L11.3-2.656,9.8,0H7.367L9.875-4.312l-2.4-4.141H9.9ZM21.109,0a2.507,2.507,0,0,1-.227-.758A2.732,2.732,0,0,1,18.75.156a3,3,0,0,1-2.059-.719,2.312,2.312,0,0,1-.816-1.812,2.389,2.389,0,0,1,1-2.062,4.915,4.915,0,0,1,2.879-.727h1.039v-.484a1.393,1.393,0,0,0-.3-.937,1.183,1.183,0,0,0-.949-.352,1.345,1.345,0,0,0-.895.273.929.929,0,0,0-.324.75H16.063a2.268,2.268,0,0,1,.453-1.359,3,3,0,0,1,1.281-.98,4.669,4.669,0,0,1,1.859-.355,3.689,3.689,0,0,1,2.48.785,2.747,2.747,0,0,1,.918,2.207v3.664a4.041,4.041,0,0,0,.336,1.82V0ZM19.242-1.57a1.945,1.945,0,0,0,.922-.223,1.462,1.462,0,0,0,.625-.6V-3.844h-.844q-1.7,0-1.8,1.172l-.008.133a.9.9,0,0,0,.3.7A1.153,1.153,0,0,0,19.242-1.57ZM28.3-1.664a1.481,1.481,0,0,0,1.016-.344,1.2,1.2,0,0,0,.406-.914h2.117a2.9,2.9,0,0,1-.469,1.574A3.093,3.093,0,0,1,30.113-.238a3.949,3.949,0,0,1-1.77.395A3.67,3.67,0,0,1,25.484-1,4.56,4.56,0,0,1,24.438-4.18v-.148a4.508,4.508,0,0,1,1.039-3.117,3.627,3.627,0,0,1,2.852-1.164,3.555,3.555,0,0,1,2.543.9,3.2,3.2,0,0,1,.973,2.4H29.727a1.551,1.551,0,0,0-.406-1.072,1.354,1.354,0,0,0-1.031-.412,1.36,1.36,0,0,0-1.191.575,3.333,3.333,0,0,0-.4,1.866v.235a3.375,3.375,0,0,0,.4,1.878A1.377,1.377,0,0,0,28.3-1.664Zm7.531-8.867v2.078h1.445V-6.8H35.836v4.219a1.007,1.007,0,0,0,.18.672.9.9,0,0,0,.688.2,3.6,3.6,0,0,0,.664-.055V-.047A4.648,4.648,0,0,1,36,.156a2.156,2.156,0,0,1-2.422-2.4V-6.8H32.344V-8.453h1.234v-2.078ZM37.953-4.3a5.013,5.013,0,0,1,.484-2.242A3.546,3.546,0,0,1,39.832-8.07a4.069,4.069,0,0,1,2.113-.539,3.849,3.849,0,0,1,2.793,1.047,4.2,4.2,0,0,1,1.207,2.844l.016.578A4.418,4.418,0,0,1,44.875-1.02,3.775,3.775,0,0,1,41.961.156a3.793,3.793,0,0,1-2.918-1.172A4.5,4.5,0,0,1,37.953-4.2Zm2.258.16A3.16,3.16,0,0,0,40.664-2.3a1.5,1.5,0,0,0,1.3.638,1.5,1.5,0,0,0,1.281-.63A3.457,3.457,0,0,0,43.7-4.309a3.128,3.128,0,0,0-.461-1.831,1.5,1.5,0,0,0-1.3-.649,1.474,1.474,0,0,0-1.281.646A3.516,3.516,0,0,0,40.211-4.144Z" transform="translate(1043 7999.811)" fill="#12263f" stroke="rgba(0,0,0,0)" stroke-width="1"/>
      <path id="Path_828189" data-name="Path 828189" d="M-37.793-4.648h-4.5V0h-2.344V-11.375h7.406v1.9h-5.062v2.938h4.5Zm5.5,4.8A4.15,4.15,0,0,1-35.32-.984a4.054,4.054,0,0,1-1.168-3.039v-.219A5.106,5.106,0,0,1-36-6.52,3.612,3.612,0,0,1-34.6-8.066a3.914,3.914,0,0,1,2.059-.543,3.508,3.508,0,0,1,2.73,1.094,4.444,4.444,0,0,1,1,3.1v.922H-34.2a2.1,2.1,0,0,0,.66,1.328,2,2,0,0,0,1.395.5,2.437,2.437,0,0,0,2.039-.945L-29-1.367A3.389,3.389,0,0,1-30.371-.246,4.511,4.511,0,0,1-32.293.156Zm-.258-6.945a1.411,1.411,0,0,0-1.09.455,2.357,2.357,0,0,0-.535,1.3h3.141v-.181a1.681,1.681,0,0,0-.406-1.165A1.456,1.456,0,0,0-32.551-6.789Zm8.531,5.125A1.481,1.481,0,0,0-23-2.008a1.2,1.2,0,0,0,.406-.914h2.117a2.9,2.9,0,0,1-.469,1.574A3.093,3.093,0,0,1-22.211-.238a3.949,3.949,0,0,1-1.77.395A3.67,3.67,0,0,1-26.84-1,4.56,4.56,0,0,1-27.887-4.18v-.148a4.508,4.508,0,0,1,1.039-3.117A3.627,3.627,0,0,1-24-8.609a3.555,3.555,0,0,1,2.543.9,3.2,3.2,0,0,1,.973,2.4H-22.6A1.551,1.551,0,0,0-23-6.377a1.354,1.354,0,0,0-1.031-.412,1.36,1.36,0,0,0-1.191.575,3.333,3.333,0,0,0-.4,1.866v.235a3.375,3.375,0,0,0,.4,1.878A1.377,1.377,0,0,0-24.02-1.664Zm7.031-5.867A2.818,2.818,0,0,1-14.73-8.609q2.75,0,2.789,3.2V0H-14.2V-5.352a1.57,1.57,0,0,0-.312-1.074,1.34,1.34,0,0,0-1.039-.348,1.537,1.537,0,0,0-1.437.766V0h-2.258V-12h2.258ZM-5.34,0a2.507,2.507,0,0,1-.227-.758A2.732,2.732,0,0,1-7.7.156,3,3,0,0,1-9.758-.562a2.312,2.312,0,0,1-.816-1.812,2.389,2.389,0,0,1,1-2.062A4.915,4.915,0,0,1-6.7-5.164H-5.66v-.484a1.393,1.393,0,0,0-.3-.937,1.183,1.183,0,0,0-.949-.352,1.345,1.345,0,0,0-.895.273.929.929,0,0,0-.324.75h-2.258a2.268,2.268,0,0,1,.453-1.359,3,3,0,0,1,1.281-.98,4.669,4.669,0,0,1,1.859-.355,3.689,3.689,0,0,1,2.48.785,2.747,2.747,0,0,1,.918,2.207v3.664a4.041,4.041,0,0,0,.336,1.82V0ZM-7.207-1.57a1.945,1.945,0,0,0,.922-.223,1.462,1.462,0,0,0,.625-.6V-3.844H-6.5q-1.7,0-1.8,1.172l-.008.133a.9.9,0,0,0,.3.7A1.153,1.153,0,0,0-7.207-1.57ZM5.48-3.2,7.043-8.453H9.465l-3.4,9.766-.187.445a2.577,2.577,0,0,1-2.5,1.656,3.552,3.552,0,0,1-1-.148V1.555l.344.008a1.857,1.857,0,0,0,.957-.2,1.283,1.283,0,0,0,.5-.648l.266-.7L1.48-8.453H3.91ZM16.543-7.531A2.818,2.818,0,0,1,18.8-8.609q2.75,0,2.789,3.2V0H19.332V-5.352a1.57,1.57,0,0,0-.312-1.074,1.34,1.34,0,0,0-1.039-.348,1.537,1.537,0,0,0-1.437.766V0H14.285V-12h2.258Zm6.4,3.227a5.013,5.013,0,0,1,.484-2.242A3.546,3.546,0,0,1,24.82-8.07a4.069,4.069,0,0,1,2.113-.539,3.849,3.849,0,0,1,2.793,1.047,4.2,4.2,0,0,1,1.207,2.844l.016.578A4.418,4.418,0,0,1,29.863-1.02,3.775,3.775,0,0,1,26.949.156a3.793,3.793,0,0,1-2.918-1.172A4.5,4.5,0,0,1,22.941-4.2Zm2.258.16A3.16,3.16,0,0,0,25.652-2.3a1.5,1.5,0,0,0,1.3.638,1.5,1.5,0,0,0,1.281-.63,3.457,3.457,0,0,0,.461-2.015A3.128,3.128,0,0,0,28.23-6.14a1.5,1.5,0,0,0-1.3-.649,1.474,1.474,0,0,0-1.281.646A3.516,3.516,0,0,0,25.2-4.144ZM37.09-6.336a6.134,6.134,0,0,0-.812-.062,1.654,1.654,0,0,0-1.68.867V0H32.34V-8.453h2.133l.063,1.008a2.092,2.092,0,0,1,1.883-1.164,2.366,2.366,0,0,1,.7.1ZM42.84,0a2.507,2.507,0,0,1-.227-.758A2.732,2.732,0,0,1,40.48.156a3,3,0,0,1-2.059-.719,2.312,2.312,0,0,1-.816-1.812,2.389,2.389,0,0,1,1-2.062,4.915,4.915,0,0,1,2.879-.727H42.52v-.484a1.393,1.393,0,0,0-.3-.937,1.183,1.183,0,0,0-.949-.352,1.345,1.345,0,0,0-.895.273.929.929,0,0,0-.324.75H37.793a2.268,2.268,0,0,1,.453-1.359,3,3,0,0,1,1.281-.98,4.669,4.669,0,0,1,1.859-.355,3.689,3.689,0,0,1,2.48.785,2.747,2.747,0,0,1,.918,2.207v3.664a4.041,4.041,0,0,0,.336,1.82V0ZM40.973-1.57a1.945,1.945,0,0,0,.922-.223,1.462,1.462,0,0,0,.625-.6V-3.844h-.844q-1.7,0-1.8,1.172l-.008.133a.9.9,0,0,0,.3.7A1.153,1.153,0,0,0,40.973-1.57Z" transform="translate(1191 7999.811)" fill="#12263f" stroke="rgba(0,0,0,0)" stroke-width="1"/>
      <path id="Path_828190" data-name="Path 828190" d="M-23.7-5.43a6.853,6.853,0,0,1-.516,2.77,4.754,4.754,0,0,1-1.43,1.887L-23.758.711l-1.492,1.32L-27.672.086a5.126,5.126,0,0,1-.859.07,4.732,4.732,0,0,1-2.523-.68,4.515,4.515,0,0,1-1.719-1.941,6.67,6.67,0,0,1-.617-2.9V-5.93a6.831,6.831,0,0,1,.605-2.957,4.508,4.508,0,0,1,1.711-1.961,4.706,4.706,0,0,1,2.527-.684,4.706,4.706,0,0,1,2.527.684,4.508,4.508,0,0,1,1.711,1.961A6.811,6.811,0,0,1-23.7-5.937Zm-2.375-.516a4.787,4.787,0,0,0-.641-2.719,2.088,2.088,0,0,0-1.828-.93,2.088,2.088,0,0,0-1.82.918,4.732,4.732,0,0,0-.648,2.691v.555a4.847,4.847,0,0,0,.641,2.7,2.082,2.082,0,0,0,1.844.961,2.064,2.064,0,0,0,1.813-.926,4.819,4.819,0,0,0,.641-2.7ZM-17.07-.859A2.831,2.831,0,0,1-19.383.156a2.67,2.67,0,0,1-2.074-.781,3.335,3.335,0,0,1-.73-2.289V-8.453h2.258v5.467q0,1.322,1.2,1.322a1.63,1.63,0,0,0,1.578-.8V-8.453h2.266V0h-2.125ZM-10.742,0H-13V-8.453h2.258Zm-.664-11.883h2.461l-2.164,2.422h-1.836Zm4.727,3.43.07.945a2.971,2.971,0,0,1,2.43-1.1A2.255,2.255,0,0,1-1.937-7.32,2.9,2.9,0,0,1,.6-8.609a2.521,2.521,0,0,1,2.047.8A3.681,3.681,0,0,1,3.32-5.4V0H1.055V-5.391A1.61,1.61,0,0,0,.773-6.441a1.246,1.246,0,0,0-.992-.332A1.409,1.409,0,0,0-1.625-5.8L-1.617,0H-3.875V-5.383a1.59,1.59,0,0,0-.289-1.062,1.259,1.259,0,0,0-.984-.328,1.463,1.463,0,0,0-1.391.8V0H-8.8V-8.453ZM7.438,0H5.172V-8.453H7.438Zm-2.4-10.641a1.112,1.112,0,0,1,.34-.836A1.277,1.277,0,0,1,6.3-11.8a1.28,1.28,0,0,1,.922.328,1.105,1.105,0,0,1,.344.836,1.108,1.108,0,0,1-.348.844,1.283,1.283,0,0,1-.918.328A1.283,1.283,0,0,1,5.387-9.8,1.108,1.108,0,0,1,5.039-10.641Zm7.773,8.977a1.481,1.481,0,0,0,1.016-.344,1.2,1.2,0,0,0,.406-.914h2.117a2.9,2.9,0,0,1-.469,1.574A3.093,3.093,0,0,1,14.621-.238a3.949,3.949,0,0,1-1.77.395A3.67,3.67,0,0,1,9.992-1,4.56,4.56,0,0,1,8.945-4.18v-.148A4.508,4.508,0,0,1,9.984-7.445a3.627,3.627,0,0,1,2.852-1.164,3.555,3.555,0,0,1,2.543.9,3.2,3.2,0,0,1,.973,2.4H14.234a1.551,1.551,0,0,0-.406-1.072A1.354,1.354,0,0,0,12.8-6.789a1.36,1.36,0,0,0-1.191.575,3.333,3.333,0,0,0-.4,1.866v.235a3.375,3.375,0,0,0,.4,1.878A1.377,1.377,0,0,0,12.813-1.664ZM17.289-4.3a5.013,5.013,0,0,1,.484-2.242A3.546,3.546,0,0,1,19.168-8.07a4.069,4.069,0,0,1,2.113-.539,3.849,3.849,0,0,1,2.793,1.047,4.2,4.2,0,0,1,1.207,2.844l.016.578A4.418,4.418,0,0,1,24.211-1.02,3.775,3.775,0,0,1,21.3.156a3.793,3.793,0,0,1-2.918-1.172A4.5,4.5,0,0,1,17.289-4.2Zm2.258.16A3.16,3.16,0,0,0,20-2.3a1.5,1.5,0,0,0,1.3.638,1.5,1.5,0,0,0,1.281-.63,3.457,3.457,0,0,0,.461-2.015,3.128,3.128,0,0,0-.461-1.831,1.5,1.5,0,0,0-1.3-.649A1.474,1.474,0,0,0,20-6.144,3.516,3.516,0,0,0,19.547-4.144ZM31.266-2.336a.727.727,0,0,0-.41-.652,4.659,4.659,0,0,0-1.316-.426q-3.016-.633-3.016-2.562a2.323,2.323,0,0,1,.934-1.879A3.766,3.766,0,0,1,29.9-8.609a4.053,4.053,0,0,1,2.574.758,2.388,2.388,0,0,1,.965,1.969H31.18a1.092,1.092,0,0,0-.312-.8A1.322,1.322,0,0,0,29.891-7a1.351,1.351,0,0,0-.883.258.814.814,0,0,0-.312.656.7.7,0,0,0,.355.605,3.657,3.657,0,0,0,1.2.4,9.8,9.8,0,0,1,1.422.379A2.336,2.336,0,0,1,33.461-2.43a2.2,2.2,0,0,1-.992,1.871,4.28,4.28,0,0,1-2.562.715A4.47,4.47,0,0,1,28.02-.223a3.166,3.166,0,0,1-1.293-1.039,2.414,2.414,0,0,1-.469-1.426H28.4a1.179,1.179,0,0,0,.445.922,1.766,1.766,0,0,0,1.109.32,1.635,1.635,0,0,0,.98-.246A.766.766,0,0,0,31.266-2.336Z" transform="translate(1034 7783.811)" fill="#12263f" stroke="rgba(0,0,0,0)" stroke-width="1"/>
      <path id="Path_823838" data-name="Path 823838" d="M-7847.5-6019v23" transform="translate(8415 13752.811)" fill="none" stroke="#707070" stroke-width="2"/>
      <path id="Path_827915" data-name="Path 827915" d="M-7847.5-6019v23" transform="translate(8415 13862.811)" fill="none" stroke="#707070" stroke-width="2"/>
      <path id="Path_827924" data-name="Path 827924" d="M-7847.5-6019v23" transform="translate(8415 13970.811)" fill="none" stroke="#707070" stroke-width="2"/>
      <path id="Path_827911" data-name="Path 827911" d="M-7847.5-6019v23" transform="translate(8566 13752.811)" fill="none" stroke="#707070" stroke-width="2"/>
      <path id="Path_827916" data-name="Path 827916" d="M-7847.5-6019v23" transform="translate(8566 13862.811)" fill="none" stroke="#707070" stroke-width="2"/>
      <path id="Path_827921" data-name="Path 827921" d="M-7847.5-6019v23" transform="translate(8580 13970.811)" fill="none" stroke="#707070" stroke-width="2"/>
      <path id="Path_827912" data-name="Path 827912" d="M-7847.5-6019v23" transform="translate(8728 13752.811)" fill="none" stroke="#707070" stroke-width="2"/>
      <path id="Path_827917" data-name="Path 827917" d="M-7847.5-6019v23" transform="translate(8728 13862.811)" fill="none" stroke="#707070" stroke-width="2"/>
      <path id="Path_827922" data-name="Path 827922" d="M-7847.5-6019v23" transform="translate(8739 13970.811)" fill="none" stroke="#707070" stroke-width="2"/>
      <path id="Path_827926" data-name="Path 827926" d="M-7847.5-6019v23" transform="translate(8879 13970.811)" fill="none" stroke="#707070" stroke-width="2"/>
      <path id="Path_827925" data-name="Path 827925" d="M-7847.5-6019v23" transform="translate(9032.5 13970.811)" fill="none" stroke="#707070" stroke-width="2"/>
      <path id="Path_827913" data-name="Path 827913" d="M-7847.5-6019v23" transform="translate(8881 13752.811)" fill="none" stroke="#707070" stroke-width="2"/>
      <path id="Path_828191" data-name="Path 828191" d="M21,0H189a21,21,0,0,1,0,42H21A21,21,0,0,1,21,0Z" transform="translate(600 8066.811)" fill="#ffd4bb"/>
      <path id="Path_828192" data-name="Path 828192" d="M21,0H189a21,21,0,0,1,0,42H21A21,21,0,0,1,21,0Z" transform="translate(887 8066.811)" fill="#ffd4bb"/>
      <path id="Path_828193" data-name="Path 828193" d="M-60.785-3.789A4.025,4.025,0,0,1-62.141-.9,4.76,4.76,0,0,1-65.363.156,4.28,4.28,0,0,1-68.8-1.316a6.038,6.038,0,0,1-1.254-4.043v-.7a6.819,6.819,0,0,1,.578-2.891,4.332,4.332,0,0,1,1.652-1.918,4.629,4.629,0,0,1,2.5-.668,4.637,4.637,0,0,1,3.172,1.055A4.326,4.326,0,0,1-60.77-7.516h-2.344a2.376,2.376,0,0,0-.613-1.6,2.271,2.271,0,0,0-1.605-.5,1.991,1.991,0,0,0-1.754.84,4.707,4.707,0,0,0-.6,2.605V-5.3a5.038,5.038,0,0,0,.559,2.7,1.954,1.954,0,0,0,1.762.852,2.314,2.314,0,0,0,1.621-.5,2.241,2.241,0,0,0,.613-1.535ZM-54.5,0a2.507,2.507,0,0,1-.227-.758,2.732,2.732,0,0,1-2.133.914,3,3,0,0,1-2.059-.719,2.312,2.312,0,0,1-.816-1.812,2.389,2.389,0,0,1,1-2.062,4.915,4.915,0,0,1,2.879-.727h1.039v-.484a1.393,1.393,0,0,0-.3-.937,1.183,1.183,0,0,0-.949-.352,1.345,1.345,0,0,0-.895.273.929.929,0,0,0-.324.75h-2.258a2.268,2.268,0,0,1,.453-1.359,3,3,0,0,1,1.281-.98,4.669,4.669,0,0,1,1.859-.355,3.689,3.689,0,0,1,2.48.785,2.747,2.747,0,0,1,.918,2.207v3.664a4.041,4.041,0,0,0,.336,1.82V0Zm-1.867-1.57a1.945,1.945,0,0,0,.922-.223,1.462,1.462,0,0,0,.625-.6V-3.844h-.844q-1.7,0-1.8,1.172l-.008.133a.9.9,0,0,0,.3.7A1.153,1.153,0,0,0-56.363-1.57Zm5.2-2.719a5.094,5.094,0,0,1,.887-3.148,2.877,2.877,0,0,1,2.426-1.172,2.589,2.589,0,0,1,2.039.922V-12h2.266V0H-45.59L-45.7-.9A2.657,2.657,0,0,1-47.871.156,2.869,2.869,0,0,1-50.266-1.02,5.258,5.258,0,0,1-51.168-4.289Zm2.258.168A3.337,3.337,0,0,0-48.5-2.3a1.349,1.349,0,0,0,1.2.634,1.511,1.511,0,0,0,1.477-.884V-5.889a1.489,1.489,0,0,0-1.461-.884Q-48.91-6.773-48.91-4.121Zm11,4.277A4.15,4.15,0,0,1-40.937-.984a4.054,4.054,0,0,1-1.168-3.039v-.219a5.106,5.106,0,0,1,.492-2.277,3.612,3.612,0,0,1,1.395-1.547,3.914,3.914,0,0,1,2.059-.543,3.508,3.508,0,0,1,2.73,1.094,4.444,4.444,0,0,1,1,3.1v.922h-5.383a2.1,2.1,0,0,0,.66,1.328,2,2,0,0,0,1.395.5,2.437,2.437,0,0,0,2.039-.945l1.109,1.242A3.389,3.389,0,0,1-35.988-.246,4.511,4.511,0,0,1-37.91.156Zm-.258-6.945a1.411,1.411,0,0,0-1.09.455,2.357,2.357,0,0,0-.535,1.3h3.141v-.181a1.681,1.681,0,0,0-.406-1.165A1.456,1.456,0,0,0-38.168-6.789Zm7.094-1.664.07.977a2.951,2.951,0,0,1,2.43-1.133,2.453,2.453,0,0,1,2,.789A3.682,3.682,0,0,1-25.9-5.461V0H-28.16V-5.406a1.465,1.465,0,0,0-.312-1.043,1.4,1.4,0,0,0-1.039-.324,1.553,1.553,0,0,0-1.43.813V0H-33.2V-8.453ZM-19.293,0a2.507,2.507,0,0,1-.227-.758,2.732,2.732,0,0,1-2.133.914,3,3,0,0,1-2.059-.719,2.312,2.312,0,0,1-.816-1.812,2.389,2.389,0,0,1,1-2.062,4.915,4.915,0,0,1,2.879-.727h1.039v-.484a1.393,1.393,0,0,0-.3-.937,1.183,1.183,0,0,0-.949-.352,1.345,1.345,0,0,0-.895.273.929.929,0,0,0-.324.75H-24.34a2.268,2.268,0,0,1,.453-1.359,3,3,0,0,1,1.281-.98,4.669,4.669,0,0,1,1.859-.355,3.689,3.689,0,0,1,2.48.785,2.747,2.747,0,0,1,.918,2.207v3.664a4.041,4.041,0,0,0,.336,1.82V0ZM-21.16-1.57a1.945,1.945,0,0,0,.922-.223,1.462,1.462,0,0,0,.625-.6V-3.844h-.844q-1.7,0-1.8,1.172l-.008.133a.9.9,0,0,0,.3.7A1.153,1.153,0,0,0-21.16-1.57Zm9.18-2.719a5.094,5.094,0,0,1,.887-3.148A2.877,2.877,0,0,1-8.668-8.609a2.589,2.589,0,0,1,2.039.922V-12h2.266V0H-6.4l-.109-.9A2.657,2.657,0,0,1-8.684.156,2.869,2.869,0,0,1-11.078-1.02,5.258,5.258,0,0,1-11.98-4.289Zm2.258.168A3.337,3.337,0,0,0-9.309-2.3a1.349,1.349,0,0,0,1.2.634,1.511,1.511,0,0,0,1.477-.884V-5.889A1.489,1.489,0,0,0-8.09-6.773Q-9.723-6.773-9.723-4.121Zm11,4.277A4.15,4.15,0,0,1-1.75-.984,4.054,4.054,0,0,1-2.918-4.023v-.219A5.106,5.106,0,0,1-2.426-6.52,3.612,3.612,0,0,1-1.031-8.066a3.914,3.914,0,0,1,2.059-.543,3.508,3.508,0,0,1,2.73,1.094,4.444,4.444,0,0,1,1,3.1v.922H-.629a2.1,2.1,0,0,0,.66,1.328,2,2,0,0,0,1.395.5,2.437,2.437,0,0,0,2.039-.945L4.574-1.367A3.389,3.389,0,0,1,3.2-.246,4.511,4.511,0,0,1,1.277.156ZM1.02-6.789a1.411,1.411,0,0,0-1.09.455,2.357,2.357,0,0,0-.535,1.3H2.535v-.181a1.681,1.681,0,0,0-.406-1.165A1.456,1.456,0,0,0,1.02-6.789ZM13.535-1.664a1.481,1.481,0,0,0,1.016-.344,1.2,1.2,0,0,0,.406-.914h2.117a2.9,2.9,0,0,1-.469,1.574A3.093,3.093,0,0,1,15.344-.238a3.949,3.949,0,0,1-1.77.395A3.67,3.67,0,0,1,10.715-1,4.56,4.56,0,0,1,9.668-4.18v-.148a4.508,4.508,0,0,1,1.039-3.117,3.627,3.627,0,0,1,2.852-1.164,3.555,3.555,0,0,1,2.543.9,3.2,3.2,0,0,1,.973,2.4H14.957a1.551,1.551,0,0,0-.406-1.072,1.354,1.354,0,0,0-1.031-.412,1.36,1.36,0,0,0-1.191.575,3.333,3.333,0,0,0-.4,1.866v.235a3.375,3.375,0,0,0,.4,1.878A1.377,1.377,0,0,0,13.535-1.664Zm9.891.8A2.831,2.831,0,0,1,21.113.156a2.67,2.67,0,0,1-2.074-.781,3.335,3.335,0,0,1-.73-2.289V-8.453h2.258v5.467q0,1.322,1.2,1.322a1.63,1.63,0,0,0,1.578-.8V-8.453h2.266V0H23.488Zm8.469-1.477a.727.727,0,0,0-.41-.652,4.659,4.659,0,0,0-1.316-.426q-3.016-.633-3.016-2.562a2.323,2.323,0,0,1,.934-1.879,3.766,3.766,0,0,1,2.441-.754,4.053,4.053,0,0,1,2.574.758,2.388,2.388,0,0,1,.965,1.969H31.809a1.092,1.092,0,0,0-.312-.8A1.322,1.322,0,0,0,30.52-7a1.351,1.351,0,0,0-.883.258.814.814,0,0,0-.312.656.7.7,0,0,0,.355.605,3.657,3.657,0,0,0,1.2.4A9.8,9.8,0,0,1,32.3-4.7,2.336,2.336,0,0,1,34.09-2.43,2.2,2.2,0,0,1,33.1-.559a4.28,4.28,0,0,1-2.562.715,4.47,4.47,0,0,1-1.887-.379,3.166,3.166,0,0,1-1.293-1.039,2.414,2.414,0,0,1-.469-1.426h2.141a1.179,1.179,0,0,0,.445.922,1.766,1.766,0,0,0,1.109.32,1.635,1.635,0,0,0,.98-.246A.766.766,0,0,0,31.895-2.336Zm6.352-8.2v2.078h1.445V-6.8H38.246v4.219a1.007,1.007,0,0,0,.18.672.9.9,0,0,0,.688.2,3.6,3.6,0,0,0,.664-.055V-.047a4.648,4.648,0,0,1-1.367.2,2.156,2.156,0,0,1-2.422-2.4V-6.8H34.754V-8.453h1.234v-2.078ZM40.363-4.3a5.013,5.013,0,0,1,.484-2.242A3.546,3.546,0,0,1,42.242-8.07a4.069,4.069,0,0,1,2.113-.539,3.849,3.849,0,0,1,2.793,1.047,4.2,4.2,0,0,1,1.207,2.844l.016.578A4.418,4.418,0,0,1,47.285-1.02,3.775,3.775,0,0,1,44.371.156a3.793,3.793,0,0,1-2.918-1.172A4.5,4.5,0,0,1,40.363-4.2Zm2.258.16A3.16,3.16,0,0,0,43.074-2.3a1.5,1.5,0,0,0,1.3.638,1.5,1.5,0,0,0,1.281-.63,3.457,3.457,0,0,0,.461-2.015,3.128,3.128,0,0,0-.461-1.831,1.5,1.5,0,0,0-1.3-.649,1.474,1.474,0,0,0-1.281.646A3.516,3.516,0,0,0,42.621-4.144Zm6.789-.145A5.094,5.094,0,0,1,50.3-7.437a2.877,2.877,0,0,1,2.426-1.172,2.589,2.589,0,0,1,2.039.922V-12h2.266V0H54.988l-.109-.9A2.657,2.657,0,0,1,52.707.156,2.869,2.869,0,0,1,50.313-1.02,5.258,5.258,0,0,1,49.41-4.289Zm2.258.168A3.337,3.337,0,0,0,52.082-2.3a1.349,1.349,0,0,0,1.2.634,1.511,1.511,0,0,0,1.477-.884V-5.889A1.489,1.489,0,0,0,53.3-6.773Q51.668-6.773,51.668-4.121ZM61.16,0H58.895V-8.453H61.16Zm-2.4-10.641a1.112,1.112,0,0,1,.34-.836,1.277,1.277,0,0,1,.926-.328,1.28,1.28,0,0,1,.922.328,1.105,1.105,0,0,1,.344.836,1.108,1.108,0,0,1-.348.844,1.283,1.283,0,0,1-.918.328,1.283,1.283,0,0,1-.918-.328A1.108,1.108,0,0,1,58.762-10.641ZM67.918,0a2.507,2.507,0,0,1-.227-.758,2.732,2.732,0,0,1-2.133.914A3,3,0,0,1,63.5-.562a2.312,2.312,0,0,1-.816-1.812,2.389,2.389,0,0,1,1-2.062,4.915,4.915,0,0,1,2.879-.727H67.6v-.484a1.393,1.393,0,0,0-.3-.937,1.183,1.183,0,0,0-.949-.352,1.345,1.345,0,0,0-.895.273.929.929,0,0,0-.324.75H62.871a2.268,2.268,0,0,1,.453-1.359,3,3,0,0,1,1.281-.98,4.669,4.669,0,0,1,1.859-.355,3.689,3.689,0,0,1,2.48.785,2.747,2.747,0,0,1,.918,2.207v3.664A4.041,4.041,0,0,0,70.2-.133V0ZM66.051-1.57a1.945,1.945,0,0,0,.922-.223,1.462,1.462,0,0,0,.625-.6V-3.844h-.844q-1.7,0-1.8,1.172l-.008.133a.9.9,0,0,0,.3.7A1.153,1.153,0,0,0,66.051-1.57Z" transform="translate(705 8093.811)" fill="#12263f" stroke="rgba(0,0,0,0)" stroke-width="1"/>
      <path id="Path_828194" data-name="Path 828194" d="M-44.309,0V-11.375h3.5a5.315,5.315,0,0,1,2.684.676,4.712,4.712,0,0,1,1.848,1.922,5.928,5.928,0,0,1,.664,2.832v.523a5.945,5.945,0,0,1-.652,2.82,4.672,4.672,0,0,1-1.84,1.914A5.355,5.355,0,0,1-40.785,0Zm2.344-9.477v7.594h1.133a2.545,2.545,0,0,0,2.1-.9,4.06,4.06,0,0,0,.742-2.57v-.6a4.124,4.124,0,0,0-.719-2.629,2.537,2.537,0,0,0-2.1-.895ZM-34.41-4.3a5.013,5.013,0,0,1,.484-2.242A3.546,3.546,0,0,1-32.531-8.07a4.069,4.069,0,0,1,2.113-.539,3.849,3.849,0,0,1,2.793,1.047,4.2,4.2,0,0,1,1.207,2.844l.016.578A4.418,4.418,0,0,1-27.488-1.02,3.775,3.775,0,0,1-30.4.156,3.793,3.793,0,0,1-33.32-1.016,4.5,4.5,0,0,1-34.41-4.2Zm2.258.16A3.16,3.16,0,0,0-31.7-2.3a1.5,1.5,0,0,0,1.3.638,1.5,1.5,0,0,0,1.281-.63,3.457,3.457,0,0,0,.461-2.015,3.128,3.128,0,0,0-.461-1.831,1.5,1.5,0,0,0-1.3-.649,1.474,1.474,0,0,0-1.281.646A3.516,3.516,0,0,0-32.152-4.144ZM-21.5-1.664a1.481,1.481,0,0,0,1.016-.344,1.2,1.2,0,0,0,.406-.914h2.117a2.9,2.9,0,0,1-.469,1.574A3.093,3.093,0,0,1-19.687-.238a3.949,3.949,0,0,1-1.77.395A3.67,3.67,0,0,1-24.316-1,4.56,4.56,0,0,1-25.363-4.18v-.148a4.508,4.508,0,0,1,1.039-3.117,3.627,3.627,0,0,1,2.852-1.164,3.555,3.555,0,0,1,2.543.9,3.2,3.2,0,0,1,.973,2.4h-2.117a1.551,1.551,0,0,0-.406-1.072,1.354,1.354,0,0,0-1.031-.412,1.36,1.36,0,0,0-1.191.575,3.333,3.333,0,0,0-.4,1.866v.235a3.375,3.375,0,0,0,.4,1.878A1.377,1.377,0,0,0-21.5-1.664Zm9.891.8A2.831,2.831,0,0,1-13.918.156a2.67,2.67,0,0,1-2.074-.781,3.335,3.335,0,0,1-.73-2.289V-8.453h2.258v5.467q0,1.322,1.2,1.322a1.63,1.63,0,0,0,1.578-.8V-8.453h2.266V0h-2.125ZM-5.6-8.453l.07.945a2.971,2.971,0,0,1,2.43-1.1A2.255,2.255,0,0,1-.855-7.32,2.9,2.9,0,0,1,1.684-8.609a2.521,2.521,0,0,1,2.047.8A3.681,3.681,0,0,1,4.4-5.4V0H2.137V-5.391a1.61,1.61,0,0,0-.281-1.051,1.246,1.246,0,0,0-.992-.332A1.409,1.409,0,0,0-.543-5.8L-.535,0H-2.793V-5.383a1.59,1.59,0,0,0-.289-1.062,1.259,1.259,0,0,0-.984-.328,1.463,1.463,0,0,0-1.391.8V0H-7.715V-8.453ZM10.027.156A4.15,4.15,0,0,1,7-.984,4.054,4.054,0,0,1,5.832-4.023v-.219A5.106,5.106,0,0,1,6.324-6.52,3.612,3.612,0,0,1,7.719-8.066a3.914,3.914,0,0,1,2.059-.543,3.508,3.508,0,0,1,2.73,1.094,4.444,4.444,0,0,1,1,3.1v.922H8.121a2.1,2.1,0,0,0,.66,1.328,2,2,0,0,0,1.395.5,2.437,2.437,0,0,0,2.039-.945l1.109,1.242A3.389,3.389,0,0,1,11.949-.246,4.511,4.511,0,0,1,10.027.156ZM9.77-6.789a1.411,1.411,0,0,0-1.09.455,2.357,2.357,0,0,0-.535,1.3h3.141v-.181a1.681,1.681,0,0,0-.406-1.165A1.456,1.456,0,0,0,9.77-6.789Zm7.094-1.664.07.977a2.951,2.951,0,0,1,2.43-1.133,2.453,2.453,0,0,1,2,.789,3.682,3.682,0,0,1,.672,2.359V0H19.777V-5.406a1.465,1.465,0,0,0-.312-1.043,1.4,1.4,0,0,0-1.039-.324A1.553,1.553,0,0,0,17-5.961V0H14.738V-8.453Zm9.586-2.078v2.078h1.445V-6.8H26.449v4.219a1.007,1.007,0,0,0,.18.672.9.9,0,0,0,.688.2,3.6,3.6,0,0,0,.664-.055V-.047a4.648,4.648,0,0,1-1.367.2,2.156,2.156,0,0,1-2.422-2.4V-6.8H22.957V-8.453h1.234v-2.078ZM28.566-4.3a5.013,5.013,0,0,1,.484-2.242A3.546,3.546,0,0,1,30.445-8.07a4.069,4.069,0,0,1,2.113-.539,3.849,3.849,0,0,1,2.793,1.047,4.2,4.2,0,0,1,1.207,2.844l.016.578A4.418,4.418,0,0,1,35.488-1.02,3.775,3.775,0,0,1,32.574.156a3.793,3.793,0,0,1-2.918-1.172A4.5,4.5,0,0,1,28.566-4.2Zm2.258.16A3.16,3.16,0,0,0,31.277-2.3a1.5,1.5,0,0,0,1.3.638,1.5,1.5,0,0,0,1.281-.63,3.457,3.457,0,0,0,.461-2.015,3.128,3.128,0,0,0-.461-1.831,1.5,1.5,0,0,0-1.3-.649,1.474,1.474,0,0,0-1.281.646A3.516,3.516,0,0,0,30.824-4.144ZM42.543-2.336a.727.727,0,0,0-.41-.652,4.659,4.659,0,0,0-1.316-.426Q37.8-4.047,37.8-5.977a2.323,2.323,0,0,1,.934-1.879,3.766,3.766,0,0,1,2.441-.754,4.053,4.053,0,0,1,2.574.758,2.388,2.388,0,0,1,.965,1.969H42.457a1.092,1.092,0,0,0-.312-.8A1.322,1.322,0,0,0,41.168-7a1.351,1.351,0,0,0-.883.258.814.814,0,0,0-.312.656.7.7,0,0,0,.355.605,3.657,3.657,0,0,0,1.2.4,9.8,9.8,0,0,1,1.422.379A2.336,2.336,0,0,1,44.738-2.43a2.2,2.2,0,0,1-.992,1.871,4.28,4.28,0,0,1-2.562.715A4.47,4.47,0,0,1,39.3-.223,3.166,3.166,0,0,1,38-1.262a2.414,2.414,0,0,1-.469-1.426h2.141a1.179,1.179,0,0,0,.445.922,1.766,1.766,0,0,0,1.109.32,1.635,1.635,0,0,0,.98-.246A.766.766,0,0,0,42.543-2.336Z" transform="translate(992 8093.811)" fill="#12263f" stroke="rgba(0,0,0,0)" stroke-width="1"/>
      <path id="Path_828195" data-name="Path 828195" d="M50,0A50,50,0,1,1,0,50,50,50,0,0,1,50,0Z" transform="translate(390 7684.811)" fill="#ffae7e"/>
      <path id="Path_828196" data-name="Path 828196" d="M50,0A50,50,0,1,1,0,50,50,50,0,0,1,50,0Z" transform="translate(390 7791.811)" fill="#ffae7e"/>
      <path id="Path_828197" data-name="Path 828197" d="M50,0A50,50,0,1,1,0,50,50,50,0,0,1,50,0Z" transform="translate(392 7900.811)" fill="#ffae7e"/>
      <path id="Path_828198" data-name="Path 828198" d="M58,0A58,58,0,1,1,0,58,58,58,0,0,1,58,0Z" transform="translate(390 8023.811)" fill="#ffae7e"/>
      <path id="Path_828199" data-name="Path 828199" d="M11.374-11.253H7.236V0H4.453V-11.253H.371v-2.254h11ZM15.614,0h-2.69V-10.038h2.69ZM12.766-12.636a1.32,1.32,0,0,1,.4-.993,1.516,1.516,0,0,1,1.1-.39,1.52,1.52,0,0,1,1.095.39,1.313,1.313,0,0,1,.408.993,1.316,1.316,0,0,1-.413,1,1.523,1.523,0,0,1-1.09.39,1.523,1.523,0,0,1-1.09-.39A1.316,1.316,0,0,1,12.766-12.636ZM26.858-4.926A6.02,6.02,0,0,1,25.8-1.211a3.376,3.376,0,0,1-2.844,1.4A3.127,3.127,0,0,1,20.5-.872V3.859H17.822v-13.9h2.486l.093.983a3.151,3.151,0,0,1,2.542-1.169,3.4,3.4,0,0,1,2.885,1.373,6.183,6.183,0,0,1,1.03,3.785Zm-2.681-.195a3.951,3.951,0,0,0-.5-2.162,1.617,1.617,0,0,0-1.443-.761,1.756,1.756,0,0,0-1.735.965v4.11a1.786,1.786,0,0,0,1.753.993Q24.177-1.976,24.177-5.121Zm3.924.009a5.953,5.953,0,0,1,.575-2.663,4.211,4.211,0,0,1,1.656-1.809,4.831,4.831,0,0,1,2.51-.64A4.571,4.571,0,0,1,36.158-8.98,4.989,4.989,0,0,1,37.592-5.6l.019.687a5.247,5.247,0,0,1-1.29,3.706,4.482,4.482,0,0,1-3.46,1.4A4.5,4.5,0,0,1,29.4-1.206,5.339,5.339,0,0,1,28.1-4.991Zm2.681.19a3.752,3.752,0,0,0,.538,2.188,1.775,1.775,0,0,0,1.54.757,1.779,1.779,0,0,0,1.521-.748,4.106,4.106,0,0,0,.547-2.393,3.715,3.715,0,0,0-.547-2.174,1.779,1.779,0,0,0-1.54-.771A1.75,1.75,0,0,0,31.32-7.3,4.175,4.175,0,0,0,30.782-4.921ZM44.7-2.774a.864.864,0,0,0-.487-.775,5.533,5.533,0,0,0-1.563-.506Q39.067-4.806,39.067-7.1a2.758,2.758,0,0,1,1.109-2.231,4.472,4.472,0,0,1,2.9-.9,4.813,4.813,0,0,1,3.057.9,2.836,2.836,0,0,1,1.146,2.338H44.6a1.3,1.3,0,0,0-.371-.951,1.57,1.57,0,0,0-1.16-.376,1.6,1.6,0,0,0-1.048.306.966.966,0,0,0-.371.779.826.826,0,0,0,.422.719,4.342,4.342,0,0,0,1.424.473,11.632,11.632,0,0,1,1.688.45,2.774,2.774,0,0,1,2.125,2.7A2.618,2.618,0,0,1,46.127-.663a5.083,5.083,0,0,1-3.043.849,5.309,5.309,0,0,1-2.24-.45A3.759,3.759,0,0,1,39.308-1.5a2.867,2.867,0,0,1-.557-1.693h2.542A1.4,1.4,0,0,0,41.822-2.1a2.1,2.1,0,0,0,1.317.38A1.941,1.941,0,0,0,44.3-2.009.909.909,0,0,0,44.7-2.774Z" transform="translate(416 7741.811)" fill="#12263f" stroke="rgba(0,0,0,0)" stroke-width="1"/>
      <path id="Path_828200" data-name="Path 828200" d="M9.333-5.854H3.989v3.618h6.271V0H1.206V-13.508h9.036v2.254H3.989v3.219H9.333Zm4.9-4.184.083,1.123A3.528,3.528,0,0,1,17.2-10.224a2.677,2.677,0,0,1,2.663,1.531,3.447,3.447,0,0,1,3.015-1.531,2.994,2.994,0,0,1,2.431.951,4.371,4.371,0,0,1,.8,2.862V0h-2.69V-6.4a1.911,1.911,0,0,0-.334-1.248A1.48,1.48,0,0,0,21.9-8.043a1.673,1.673,0,0,0-1.67,1.15L20.243,0H17.562V-6.392a1.888,1.888,0,0,0-.343-1.262,1.5,1.5,0,0,0-1.169-.39A1.738,1.738,0,0,0,14.4-7.1V0H11.717V-10.038Zm22.98,5.112a6.078,6.078,0,0,1-1.03,3.762A3.411,3.411,0,0,1,33.306.186,3.134,3.134,0,0,1,30.7-1.067L30.578,0H28.166V-14.25h2.681v5.112a3.054,3.054,0,0,1,2.44-1.085,3.439,3.439,0,0,1,2.881,1.35,6.087,6.087,0,0,1,1.044,3.8ZM34.53-5.121a3.993,3.993,0,0,0-.482-2.222,1.631,1.631,0,0,0-1.438-.7A1.769,1.769,0,0,0,30.847-7v3.961a1.793,1.793,0,0,0,1.781,1.058,1.655,1.655,0,0,0,1.707-1.28A6.6,6.6,0,0,0,34.53-5.121ZM44.68,0a2.977,2.977,0,0,1-.269-.9A3.244,3.244,0,0,1,41.878.186a3.564,3.564,0,0,1-2.445-.854,2.745,2.745,0,0,1-.969-2.152A2.837,2.837,0,0,1,39.647-5.27a5.837,5.837,0,0,1,3.419-.863H44.3v-.575a1.654,1.654,0,0,0-.357-1.113,1.405,1.405,0,0,0-1.127-.417,1.6,1.6,0,0,0-1.062.325,1.1,1.1,0,0,0-.385.891H38.687a2.693,2.693,0,0,1,.538-1.614A3.557,3.557,0,0,1,40.746-9.8a5.545,5.545,0,0,1,2.208-.422,4.381,4.381,0,0,1,2.946.932A3.262,3.262,0,0,1,46.99-6.67v4.351a4.8,4.8,0,0,0,.4,2.162V0ZM42.462-1.865a2.309,2.309,0,0,0,1.095-.264,1.737,1.737,0,0,0,.742-.71V-4.564h-1q-2.013,0-2.143,1.392l-.009.158a1.073,1.073,0,0,0,.353.826A1.369,1.369,0,0,0,42.462-1.865ZM51.879,0h-2.69V-14.25h2.69ZM59.9,0a2.977,2.977,0,0,1-.269-.9A3.244,3.244,0,0,1,57.1.186a3.564,3.564,0,0,1-2.445-.854,2.745,2.745,0,0,1-.969-2.152A2.837,2.837,0,0,1,54.871-5.27a5.837,5.837,0,0,1,3.419-.863h1.234v-.575a1.654,1.654,0,0,0-.357-1.113,1.405,1.405,0,0,0-1.127-.417,1.6,1.6,0,0,0-1.062.325,1.1,1.1,0,0,0-.385.891H53.911a2.693,2.693,0,0,1,.538-1.614A3.557,3.557,0,0,1,55.97-9.8a5.545,5.545,0,0,1,2.208-.422,4.381,4.381,0,0,1,2.946.932,3.262,3.262,0,0,1,1.09,2.621v4.351a4.8,4.8,0,0,0,.4,2.162V0ZM57.687-1.865a2.309,2.309,0,0,0,1.095-.264,1.737,1.737,0,0,0,.742-.71V-4.564h-1q-2.013,0-2.143,1.392l-.009.158a1.073,1.073,0,0,0,.353.826A1.369,1.369,0,0,0,57.687-1.865Zm9.426-8.173V.547a3.591,3.591,0,0,1-.881,2.584,3.35,3.35,0,0,1-2.542.923A5.452,5.452,0,0,1,62.362,3.9V1.772a5.033,5.033,0,0,0,.844.083q1.215,0,1.215-1.29v-10.6Zm-2.9-2.6a1.32,1.32,0,0,1,.4-.993,1.516,1.516,0,0,1,1.1-.39,1.516,1.516,0,0,1,1.1.39,1.32,1.32,0,0,1,.4.993,1.316,1.316,0,0,1-.413,1,1.523,1.523,0,0,1-1.09.39,1.523,1.523,0,0,1-1.09-.39A1.316,1.316,0,0,1,64.208-12.636ZM73.829.186a4.928,4.928,0,0,1-3.595-1.354,4.815,4.815,0,0,1-1.387-3.609v-.26a6.064,6.064,0,0,1,.584-2.7,4.289,4.289,0,0,1,1.656-1.837,4.648,4.648,0,0,1,2.445-.645,4.166,4.166,0,0,1,3.242,1.3,5.278,5.278,0,0,1,1.183,3.683v1.095H71.565a2.491,2.491,0,0,0,.784,1.577,2.37,2.37,0,0,0,1.656.594A2.894,2.894,0,0,0,76.427-3.1l1.317,1.475A4.025,4.025,0,0,1,76.111-.292,5.357,5.357,0,0,1,73.829.186Zm-.306-8.248a1.675,1.675,0,0,0-1.294.54,2.8,2.8,0,0,0-.635,1.547h3.729v-.214a2,2,0,0,0-.482-1.384A1.729,1.729,0,0,0,73.523-8.062Z" transform="translate(401 7848.811)" fill="#12263f" stroke="rgba(0,0,0,0)" stroke-width="1"/>
      <path id="Path_828201" data-name="Path 828201" d="M6.207-4.945H3.989V0H1.206V-13.508H6.225a5.674,5.674,0,0,1,3.692,1.067,3.682,3.682,0,0,1,1.3,3.015,4.156,4.156,0,0,1-.6,2.305A4.081,4.081,0,0,1,8.8-5.65L11.727-.13V0H8.739ZM3.989-7.2H6.234a2.3,2.3,0,0,0,1.624-.533A1.907,1.907,0,0,0,8.433-9.2a2.041,2.041,0,0,0-.543-1.5,2.255,2.255,0,0,0-1.665-.547H3.989Zm8.749,2.087a5.953,5.953,0,0,1,.575-2.663,4.211,4.211,0,0,1,1.656-1.809,4.831,4.831,0,0,1,2.51-.64A4.571,4.571,0,0,1,20.8-8.98,4.989,4.989,0,0,1,22.229-5.6l.019.687a5.247,5.247,0,0,1-1.29,3.706A4.482,4.482,0,0,1,17.5.186a4.5,4.5,0,0,1-3.465-1.392,5.339,5.339,0,0,1-1.294-3.785Zm2.681.19a3.752,3.752,0,0,0,.538,2.188,1.775,1.775,0,0,0,1.54.757,1.779,1.779,0,0,0,1.521-.748,4.106,4.106,0,0,0,.547-2.393,3.715,3.715,0,0,0-.547-2.174,1.779,1.779,0,0,0-1.54-.771,1.75,1.75,0,0,0-1.521.767A4.175,4.175,0,0,0,15.419-4.921Zm11.689-7.584v2.468h1.716v1.967H27.108v5.01a1.2,1.2,0,0,0,.213.8,1.072,1.072,0,0,0,.816.241,4.276,4.276,0,0,0,.789-.065V-.056A5.52,5.52,0,0,1,27.3.186a2.56,2.56,0,0,1-2.876-2.848V-8.071H22.961v-1.967h1.466v-2.468ZM36.33-1.021A3.362,3.362,0,0,1,33.584.186a3.171,3.171,0,0,1-2.463-.928,3.96,3.96,0,0,1-.867-2.718v-6.578h2.681v6.492q0,1.57,1.429,1.57a1.936,1.936,0,0,0,1.874-.947v-7.115h2.69V0H36.4ZM43.78,0h-2.69V-14.25h2.69ZM51.8,0a2.977,2.977,0,0,1-.269-.9A3.244,3.244,0,0,1,49,.186a3.564,3.564,0,0,1-2.445-.854,2.745,2.745,0,0,1-.969-2.152A2.837,2.837,0,0,1,46.772-5.27a5.837,5.837,0,0,1,3.419-.863h1.234v-.575a1.654,1.654,0,0,0-.357-1.113,1.405,1.405,0,0,0-1.127-.417,1.6,1.6,0,0,0-1.062.325,1.1,1.1,0,0,0-.385.891H45.812a2.693,2.693,0,0,1,.538-1.614A3.557,3.557,0,0,1,47.871-9.8a5.545,5.545,0,0,1,2.208-.422,4.381,4.381,0,0,1,2.946.932,3.262,3.262,0,0,1,1.09,2.621v4.351a4.8,4.8,0,0,0,.4,2.162V0ZM49.587-1.865a2.309,2.309,0,0,0,1.095-.264,1.737,1.737,0,0,0,.742-.71V-4.564h-1q-2.013,0-2.143,1.392l-.009.158a1.073,1.073,0,0,0,.353.826A1.369,1.369,0,0,0,49.587-1.865Zm6.169-3.229A6.049,6.049,0,0,1,56.81-8.832a3.417,3.417,0,0,1,2.881-1.392,3.074,3.074,0,0,1,2.421,1.095V-14.25H64.8V0H62.381l-.13-1.067A3.155,3.155,0,0,1,59.672.186a3.407,3.407,0,0,1-2.844-1.4A6.244,6.244,0,0,1,55.757-5.093Zm2.681.2a3.963,3.963,0,0,0,.492,2.165,1.6,1.6,0,0,0,1.429.753,1.794,1.794,0,0,0,1.753-1.05V-6.994a1.768,1.768,0,0,0-1.735-1.05Q58.438-8.043,58.438-4.894Zm8.025-.218a5.953,5.953,0,0,1,.575-2.663,4.211,4.211,0,0,1,1.656-1.809,4.831,4.831,0,0,1,2.51-.64A4.571,4.571,0,0,1,74.52-8.98,4.989,4.989,0,0,1,75.954-5.6l.019.687a5.247,5.247,0,0,1-1.29,3.706,4.482,4.482,0,0,1-3.46,1.4,4.5,4.5,0,0,1-3.465-1.392,5.339,5.339,0,0,1-1.294-3.785Zm2.681.19a3.752,3.752,0,0,0,.538,2.188,1.775,1.775,0,0,0,1.54.757,1.779,1.779,0,0,0,1.521-.748,4.106,4.106,0,0,0,.547-2.393,3.715,3.715,0,0,0-.547-2.174,1.779,1.779,0,0,0-1.54-.771,1.75,1.75,0,0,0-1.521.767A4.175,4.175,0,0,0,69.144-4.921Z" transform="translate(403 7957.811)" fill="#12263f" stroke="rgba(0,0,0,0)" stroke-width="1"/>
      <path id="Path_828202" data-name="Path 828202" d="M6.207-4.945H3.989V0H1.206V-13.508H6.225a5.674,5.674,0,0,1,3.692,1.067,3.682,3.682,0,0,1,1.3,3.015,4.156,4.156,0,0,1-.6,2.305A4.081,4.081,0,0,1,8.8-5.65L11.727-.13V0H8.739ZM3.989-7.2H6.234a2.3,2.3,0,0,0,1.624-.533A1.907,1.907,0,0,0,8.433-9.2a2.041,2.041,0,0,0-.543-1.5,2.255,2.255,0,0,0-1.665-.547H3.989ZM17.775.186A4.928,4.928,0,0,1,14.18-1.169a4.815,4.815,0,0,1-1.387-3.609v-.26a6.064,6.064,0,0,1,.584-2.7,4.289,4.289,0,0,1,1.656-1.837,4.648,4.648,0,0,1,2.445-.645,4.166,4.166,0,0,1,3.242,1.3A5.278,5.278,0,0,1,21.9-5.242v1.095H15.512A2.491,2.491,0,0,0,16.3-2.57a2.37,2.37,0,0,0,1.656.594A2.894,2.894,0,0,0,20.373-3.1L21.69-1.624A4.025,4.025,0,0,1,20.058-.292,5.357,5.357,0,0,1,17.775.186Zm-.306-8.248a1.675,1.675,0,0,0-1.294.54,2.8,2.8,0,0,0-.635,1.547h3.729v-.214a2,2,0,0,0-.482-1.384A1.729,1.729,0,0,0,17.469-8.062Zm8.47-1.976.083,1.123a3.528,3.528,0,0,1,2.885-1.308,2.677,2.677,0,0,1,2.663,1.531,3.447,3.447,0,0,1,3.015-1.531,2.994,2.994,0,0,1,2.431.951,4.371,4.371,0,0,1,.8,2.862V0h-2.69V-6.4a1.911,1.911,0,0,0-.334-1.248,1.48,1.48,0,0,0-1.178-.394,1.673,1.673,0,0,0-1.67,1.15L31.951,0H29.27V-6.392a1.888,1.888,0,0,0-.343-1.262,1.5,1.5,0,0,0-1.169-.39,1.738,1.738,0,0,0-1.651.946V0H23.425V-10.038ZM42.7,0h-2.69V-10.038H42.7ZM39.855-12.636a1.32,1.32,0,0,1,.4-.993,1.516,1.516,0,0,1,1.1-.39,1.52,1.52,0,0,1,1.095.39,1.313,1.313,0,0,1,.408.993,1.316,1.316,0,0,1-.413,1,1.523,1.523,0,0,1-1.09.39,1.523,1.523,0,0,1-1.09-.39A1.316,1.316,0,0,1,39.855-12.636ZM50.348-2.774a.864.864,0,0,0-.487-.775A5.533,5.533,0,0,0,48.3-4.054Q44.717-4.806,44.717-7.1a2.758,2.758,0,0,1,1.109-2.231,4.472,4.472,0,0,1,2.9-.9,4.813,4.813,0,0,1,3.057.9,2.836,2.836,0,0,1,1.146,2.338H50.246a1.3,1.3,0,0,0-.371-.951,1.57,1.57,0,0,0-1.16-.376,1.6,1.6,0,0,0-1.048.306.966.966,0,0,0-.371.779.826.826,0,0,0,.422.719,4.342,4.342,0,0,0,1.424.473,11.632,11.632,0,0,1,1.688.45,2.774,2.774,0,0,1,2.125,2.7A2.618,2.618,0,0,1,51.777-.663a5.083,5.083,0,0,1-3.043.849,5.309,5.309,0,0,1-2.24-.45A3.759,3.759,0,0,1,44.958-1.5,2.867,2.867,0,0,1,44.4-3.191h2.542A1.4,1.4,0,0,0,47.472-2.1a2.1,2.1,0,0,0,1.317.38,1.941,1.941,0,0,0,1.164-.292A.909.909,0,0,0,50.348-2.774ZM57.51,0H54.82V-10.038h2.69ZM54.662-12.636a1.32,1.32,0,0,1,.4-.993,1.516,1.516,0,0,1,1.1-.39,1.52,1.52,0,0,1,1.095.39,1.313,1.313,0,0,1,.408.993,1.316,1.316,0,0,1-.413,1,1.523,1.523,0,0,1-1.09.39,1.523,1.523,0,0,1-1.09-.39A1.316,1.316,0,0,1,54.662-12.636ZM59.3-5.112a5.953,5.953,0,0,1,.575-2.663,4.211,4.211,0,0,1,1.656-1.809,4.831,4.831,0,0,1,2.51-.64A4.571,4.571,0,0,1,67.358-8.98,4.989,4.989,0,0,1,68.792-5.6l.019.687a5.247,5.247,0,0,1-1.29,3.706,4.482,4.482,0,0,1-3.46,1.4,4.5,4.5,0,0,1-3.465-1.392A5.339,5.339,0,0,1,59.3-4.991Zm2.681.19a3.752,3.752,0,0,0,.538,2.188,1.775,1.775,0,0,0,1.54.757,1.779,1.779,0,0,0,1.521-.748,4.106,4.106,0,0,0,.547-2.393,3.715,3.715,0,0,0-.547-2.174,1.779,1.779,0,0,0-1.54-.771A1.75,1.75,0,0,0,62.52-7.3,4.175,4.175,0,0,0,61.982-4.921ZM64.57-14.25h2.922l-2.57,2.876h-2.18Zm8.359,4.212.083,1.16A3.5,3.5,0,0,1,75.9-10.224a2.913,2.913,0,0,1,2.375.937,4.372,4.372,0,0,1,.8,2.8V0H76.39V-6.42a1.739,1.739,0,0,0-.371-1.239,1.661,1.661,0,0,0-1.234-.385,1.844,1.844,0,0,0-1.7.965V0H70.406V-10.038ZM91.651,0a2.977,2.977,0,0,1-.269-.9A3.244,3.244,0,0,1,88.849.186,3.564,3.564,0,0,1,86.4-.668a2.745,2.745,0,0,1-.969-2.152A2.837,2.837,0,0,1,86.618-5.27a5.837,5.837,0,0,1,3.419-.863h1.234v-.575a1.654,1.654,0,0,0-.357-1.113,1.405,1.405,0,0,0-1.127-.417,1.6,1.6,0,0,0-1.062.325,1.1,1.1,0,0,0-.385.891H85.658A2.693,2.693,0,0,1,86.2-8.637,3.557,3.557,0,0,1,87.717-9.8a5.545,5.545,0,0,1,2.208-.422,4.381,4.381,0,0,1,2.946.932,3.262,3.262,0,0,1,1.09,2.621v4.351a4.8,4.8,0,0,0,.4,2.162V0ZM89.434-1.865a2.309,2.309,0,0,0,1.095-.264,1.737,1.737,0,0,0,.742-.71V-4.564h-1q-2.013,0-2.143,1.392l-.009.158a1.073,1.073,0,0,0,.353.826A1.369,1.369,0,0,0,89.434-1.865ZM98.85,0H96.16V-14.25h2.69ZM8.591,20H5.9V5.75h2.69Zm8.025,0a2.977,2.977,0,0,1-.269-.9,3.244,3.244,0,0,1-2.533,1.085,3.564,3.564,0,0,1-2.445-.854A2.745,2.745,0,0,1,10.4,17.18a2.837,2.837,0,0,1,1.183-2.449A5.837,5.837,0,0,1,15,13.868h1.234v-.575a1.654,1.654,0,0,0-.357-1.113,1.405,1.405,0,0,0-1.127-.417,1.6,1.6,0,0,0-1.062.325,1.1,1.1,0,0,0-.385.891H10.623a2.693,2.693,0,0,1,.538-1.614A3.557,3.557,0,0,1,12.682,10.2a5.545,5.545,0,0,1,2.208-.422,4.381,4.381,0,0,1,2.946.932,3.262,3.262,0,0,1,1.09,2.621v4.351a4.8,4.8,0,0,0,.4,2.162V20ZM14.4,18.135a2.309,2.309,0,0,0,1.095-.264,1.737,1.737,0,0,0,.742-.71V15.436h-1q-2.013,0-2.143,1.392l-.009.158a1.073,1.073,0,0,0,.353.826A1.369,1.369,0,0,0,14.4,18.135Zm15.632-3.062A6.078,6.078,0,0,1,29,18.836a3.411,3.411,0,0,1-2.876,1.35,3.134,3.134,0,0,1-2.607-1.252L23.4,20H20.985V5.75h2.681v5.112a3.054,3.054,0,0,1,2.44-1.085,3.439,3.439,0,0,1,2.881,1.35,6.087,6.087,0,0,1,1.044,3.8Zm-2.681-.195a3.993,3.993,0,0,0-.482-2.222,1.631,1.631,0,0,0-1.438-.7A1.769,1.769,0,0,0,23.667,13v3.961a1.793,1.793,0,0,0,1.781,1.058,1.655,1.655,0,0,0,1.707-1.28A6.6,6.6,0,0,0,27.35,14.879Zm3.915.009a5.953,5.953,0,0,1,.575-2.663A4.211,4.211,0,0,1,33.5,10.417a4.831,4.831,0,0,1,2.51-.64,4.571,4.571,0,0,1,3.317,1.243A4.989,4.989,0,0,1,40.755,14.4l.019.687a5.247,5.247,0,0,1-1.29,3.706,4.482,4.482,0,0,1-3.46,1.4,4.5,4.5,0,0,1-3.465-1.392,5.339,5.339,0,0,1-1.294-3.785Zm2.681.19a3.752,3.752,0,0,0,.538,2.188,1.933,1.933,0,0,0,3.062.009,4.106,4.106,0,0,0,.547-2.393,3.715,3.715,0,0,0-.547-2.174,1.779,1.779,0,0,0-1.54-.771,1.75,1.75,0,0,0-1.521.767A4.175,4.175,0,0,0,33.946,15.079Zm14.12-2.6A7.284,7.284,0,0,0,47.1,12.4a1.964,1.964,0,0,0-1.995,1.03V20H42.425V9.962h2.533l.074,1.2a2.484,2.484,0,0,1,2.236-1.382A2.809,2.809,0,0,1,48.1,9.9ZM54.894,20a2.977,2.977,0,0,1-.269-.9,3.244,3.244,0,0,1-2.533,1.085,3.564,3.564,0,0,1-2.445-.854,2.745,2.745,0,0,1-.969-2.152,2.837,2.837,0,0,1,1.183-2.449,5.837,5.837,0,0,1,3.419-.863h1.234v-.575a1.654,1.654,0,0,0-.357-1.113,1.405,1.405,0,0,0-1.127-.417,1.6,1.6,0,0,0-1.062.325,1.1,1.1,0,0,0-.385.891H48.9a2.693,2.693,0,0,1,.538-1.614A3.557,3.557,0,0,1,50.96,10.2a5.545,5.545,0,0,1,2.208-.422,4.381,4.381,0,0,1,2.946.932A3.262,3.262,0,0,1,57.2,13.33v4.351a4.8,4.8,0,0,0,.4,2.162V20Zm-2.217-1.865a2.309,2.309,0,0,0,1.095-.264,1.737,1.737,0,0,0,.742-.71V15.436h-1q-2.013,0-2.143,1.392l-.009.158a1.073,1.073,0,0,0,.353.826A1.369,1.369,0,0,0,52.677,18.135Zm9.8-10.641V9.962H64.19v1.967H62.474v5.01a1.2,1.2,0,0,0,.213.8,1.072,1.072,0,0,0,.816.241,4.276,4.276,0,0,0,.789-.065v2.032a5.52,5.52,0,0,1-1.624.241,2.56,2.56,0,0,1-2.876-2.848V11.929H58.327V9.962h1.466V7.494Zm2.514,7.394a5.953,5.953,0,0,1,.575-2.663,4.211,4.211,0,0,1,1.656-1.809,4.831,4.831,0,0,1,2.51-.64,4.571,4.571,0,0,1,3.317,1.243A4.989,4.989,0,0,1,74.479,14.4l.019.687a5.247,5.247,0,0,1-1.29,3.706,5,5,0,0,1-6.926,0,5.339,5.339,0,0,1-1.294-3.785Zm2.681.19a3.752,3.752,0,0,0,.538,2.188,1.933,1.933,0,0,0,3.062.009,4.106,4.106,0,0,0,.547-2.393,3.715,3.715,0,0,0-.547-2.174,1.779,1.779,0,0,0-1.54-.771,1.75,1.75,0,0,0-1.521.767A4.175,4.175,0,0,0,67.669,15.079Zm14.12-2.6a7.284,7.284,0,0,0-.965-.074,1.964,1.964,0,0,0-1.995,1.03V20H76.148V9.962h2.533l.074,1.2a2.484,2.484,0,0,1,2.236-1.382,2.809,2.809,0,0,1,.835.121ZM85.908,20h-2.69V9.962h2.69ZM83.06,7.364a1.32,1.32,0,0,1,.4-.993,1.739,1.739,0,0,1,2.194,0,1.313,1.313,0,0,1,.408.993,1.316,1.316,0,0,1-.413,1,1.72,1.72,0,0,1-2.18,0A1.316,1.316,0,0,1,83.06,7.364ZM87.7,14.888a5.953,5.953,0,0,1,.575-2.663,4.211,4.211,0,0,1,1.656-1.809,4.831,4.831,0,0,1,2.51-.64,4.571,4.571,0,0,1,3.317,1.243A4.989,4.989,0,0,1,97.189,14.4l.019.687a5.247,5.247,0,0,1-1.29,3.706,5,5,0,0,1-6.926,0A5.339,5.339,0,0,1,87.7,15.009Zm2.681.19a3.752,3.752,0,0,0,.538,2.188,1.933,1.933,0,0,0,3.062.009,4.106,4.106,0,0,0,.547-2.393,3.715,3.715,0,0,0-.547-2.174,1.779,1.779,0,0,0-1.54-.771,1.75,1.75,0,0,0-1.521.767A4.175,4.175,0,0,0,90.38,15.079Z" transform="translate(398 8075.811)" fill="#12263f" stroke="rgba(0,0,0,0)" stroke-width="1"/>
      <path id="Path_828203" data-name="Path 828203" d="M19.853,0H0A55.3,55.3,0,0,0,4.287,17.93,55.764,55.764,0,0,0,16.332,35.711,56.032,56.032,0,0,0,34.2,47.7a56.075,56.075,0,0,0,21.877,4.4A56.082,56.082,0,0,0,77.95,47.7,56.029,56.029,0,0,0,95.815,35.711a56.528,56.528,0,0,0,5.8-6.765l5.3,2.575L104.7,0,78.416,17.667l5.491,2.669A36.729,36.729,0,0,1,56.5,32.452,36.817,36.817,0,0,1,19.854,0h0Z" transform="translate(405.867 7724.342) rotate(87)" fill="url(#radial-gradient)"/>
      <path id="Path_828204" data-name="Path 828204" d="M19.853,0H0A55.3,55.3,0,0,0,4.287,17.93,55.764,55.764,0,0,0,16.332,35.711,56.032,56.032,0,0,0,34.2,47.7a56.075,56.075,0,0,0,21.877,4.4A56.082,56.082,0,0,0,77.95,47.7,56.029,56.029,0,0,0,95.815,35.711a56.528,56.528,0,0,0,5.8-6.765l5.3,2.575L104.7,0,78.416,17.667l5.491,2.669A36.729,36.729,0,0,1,56.5,32.452,36.817,36.817,0,0,1,19.854,0h0Z" transform="translate(405.867 7833.836) rotate(87)" fill="url(#radial-gradient)"/>
      <path id="Path_828205" data-name="Path 828205" d="M19.853,0H0A55.3,55.3,0,0,0,4.287,17.93,55.764,55.764,0,0,0,16.332,35.711,56.032,56.032,0,0,0,34.2,47.7a56.075,56.075,0,0,0,21.877,4.4A56.082,56.082,0,0,0,77.95,47.7,56.029,56.029,0,0,0,95.815,35.711a56.528,56.528,0,0,0,5.8-6.765l5.3,2.575L104.7,0,78.416,17.667l5.491,2.669A36.729,36.729,0,0,1,56.5,32.452,36.817,36.817,0,0,1,19.854,0h0Z" transform="translate(405.867 7951.811) rotate(87)" fill="url(#radial-gradient)"/>
      <path id="Path_828206" data-name="Path 828206" d="M4031.014,11699.243H3953v-21h77.252l-.2-5.432,27.938,14.911-26.789,16.755Z" transform="translate(-3458 -3601.001)" fill="url(#radial-gradient)"/>
      <path id="Path_828207" data-name="Path 828207" d="M4031.014,11699.243H3953v-21h77.252l-.2-5.432,27.938,14.911-26.789,16.755Z" transform="translate(-3171 -3601.001)" fill="url(#radial-gradient)"/>
    </g>
  </g>
</svg>
