<svg xmlns="http://www.w3.org/2000/svg" xmlns:xlink="http://www.w3.org/1999/xlink" width="169" height="169" viewBox="0 0 169 169">
  <defs>
    <clipPath id="clip-path">
      <rect id="Rectangle_378724" data-name="Rectangle 378724" width="125" height="124.783" fill="none"/>
    </clipPath>
  </defs>
  <g id="Group_1075368" data-name="Group 1075368" transform="translate(-384.743 -2057.999)">
    <g id="Group_159182" data-name="Group 159182" transform="translate(384.743 2057.999)">
      <path id="Union_12" data-name="Union 12" d="M84.5,0A84.5,84.5,0,1,1,0,84.5,84.5,84.5,0,0,1,84.5,0Z" transform="translate(0 0)" fill="#ffae7e"/>
    </g>
    <g id="Group_1075378" data-name="Group 1075378" transform="translate(419.742 2083.178)">
      <g id="Group_1075377" data-name="Group 1075377" clip-path="url(#clip-path)">
        <path id="Path_827985" data-name="Path 827985" d="M46.7,102.313a7.962,7.962,0,0,1,1.719,2.763l-.017.025.007-.045a9.813,9.813,0,0,1,1.333,2.258c.423.8.761,1.646,1.136,2.471-.02.086.023.114.1.111.492,1.358,1.067,2.692,1.455,4.078a28.722,28.722,0,0,1,1.121,5.276c.07.816.191,1.628.231,2.448a2.81,2.81,0,0,1-3.053,3.071c-2.869-.02-5.74-.054-8.608.012a2.774,2.774,0,0,1-3.029-2.806,10.388,10.388,0,0,0-.41-3.188c-.129-.37-.265-.356-.523-.356H31.444c-5.23,0-10.46.01-15.69-.015-.526,0-.729.209-.795.646a14.574,14.574,0,0,0-.257,2.614c.065,2.2-1.347,3.1-3.165,3.093-2.93-.017-5.861-.006-8.791,0a2.621,2.621,0,0,1-2.527-1.595,1.338,1.338,0,0,1-.168-.564,31.435,31.435,0,0,1,1.465-9.328,46.422,46.422,0,0,1,3.949-8.969,36.421,36.421,0,0,1,3.351-5.131,61.961,61.961,0,0,1,6.374-7.211c.388-.37.08-.486-.131-.687A52.681,52.681,0,0,1,2.678,74.274,34.326,34.326,0,0,1,.393,66.6a23.375,23.375,0,0,1-.3-6.315A35.064,35.064,0,0,1,4.76,46.341a55.77,55.77,0,0,1,9.382-11.924c.379-.38.742-.777,1.141-1.135.268-.238.261-.424.026-.668-.746-.774-1.467-1.571-2.226-2.333a56.9,56.9,0,0,1-4.624-5.655,43.361,43.361,0,0,1-2.914-4.34,53.155,53.155,0,0,1-2.815-5.53,35.81,35.81,0,0,1-1.624-4.615C.728,8.833.574,7.461.3,6.123A15.945,15.945,0,0,1,.052,2.832C.055.9,1.056.09,2.875.061,5.846.013,8.82-.023,11.788.072c2.028.064,2.774.776,2.9,2.874a21.42,21.42,0,0,0,.382,3.025c.093.456.4.411.722.411q9.982,0,19.964,0c.834,0,1.669,0,2.5,0,.245,0,.32-.034.408-.331.4-1.348.314-2.756.594-4.108S40.25.134,41.645.088c3.131-.1,6.27-.127,9.4-.009,2.192.082,2.91,1.335,2.712,3.731a31.36,31.36,0,0,1-.435,3.317,47.72,47.72,0,0,1-1.128,4.656c-1.691,5.688-4.772,10.614-8.33,15.3a48.809,48.809,0,0,1-5.206,5.754c-.316.3-.2.462.019.665A51.2,51.2,0,0,1,51.162,50.535,36.118,36.118,0,0,1,53.4,58a28.358,28.358,0,0,1,.373,3.569,3.014,3.014,0,0,1-1.919,3.291c-2.11.926-4.2,1.909-6.295,2.858-.587.266-.6.307-.17.741,1.467,1.465,2.922,2.942,4.4,4.392a2.627,2.627,0,0,1,.512,3.508,46.118,46.118,0,0,1-6.188,9.22,59.4,59.4,0,0,1-5.679,5.97c-.337.3-.091.452.077.631.781.828,1.562,1.655,2.358,2.467a47.851,47.851,0,0,1,4.594,5.743,5.967,5.967,0,0,1,1.136,1.848c-.016.077,0,.114.088.079m-.4,17.578c.712,0,1.424-.01,2.136,0,.295.006.4-.088.357-.388a24.41,24.41,0,0,0-.642-3.315,19.241,19.241,0,0,0-.952-3.005c-.649-1.382-1.148-2.833-1.878-4.184a55.9,55.9,0,0,0-9.7-12.8,58.2,58.2,0,0,0-6.222-5.748,78.953,78.953,0,0,1-9.121-7.69,38.923,38.923,0,0,1-8.9-12.947,18.818,18.818,0,0,1-1.29-10.311,28.8,28.8,0,0,1,5.8-12.44,50.113,50.113,0,0,1,6.867-7.322c.32-.283.318-.452-.03-.685a30.34,30.34,0,0,1-3.047-2.431.587.587,0,0,0-.958.025,52.945,52.945,0,0,0-10.17,12.76A28.445,28.445,0,0,0,4.986,60.283a21.882,21.882,0,0,0,.4,6.815,31.485,31.485,0,0,0,3.756,9.376A54.772,54.772,0,0,0,22.758,91.6,80.3,80.3,0,0,1,30.5,98.038c1.479,1.5,3,2.952,4.381,4.547,1.309,1.513,2.459,3.146,3.637,4.754a32.6,32.6,0,0,1,3.791,6.968,25.236,25.236,0,0,1,1.364,4.946c.092.489.263.7.788.652.606-.051,1.22-.012,1.83-.013M7.528,4.919H6c-.965,0-.961,0-.829.93.025.179-.017.37.023.545a38.33,38.33,0,0,0,1.994,6.535c2.575,6.038,6.532,11.12,11,15.85.919.974,1.925,1.863,2.9,2.781a40.21,40.21,0,0,0,3.95,3.288,60.423,60.423,0,0,1,12.7,11.966,31.337,31.337,0,0,1,5.484,10.271,21.669,21.669,0,0,1,.8,5.163c.011.251-.136.6.094.729.263.145.5-.142.719-.312a.41.41,0,0,1,.155-.09,27.248,27.248,0,0,0,3.561-1.494.471.471,0,0,0,.34-.61c-.224-1.244-.4-2.5-.684-3.729a31.334,31.334,0,0,0-4.109-9.411,48.112,48.112,0,0,0-4.077-5.483,28.5,28.5,0,0,0-2.272-2.569c-1.1-1.027-2.118-2.129-3.227-3.146a46.248,46.248,0,0,0-4.166-3.486A65.371,65.371,0,0,1,19.193,22.472,48.639,48.639,0,0,1,13.1,13.88a26.132,26.132,0,0,1-3.008-8.543c-.055-.354-.175-.429-.491-.422-.692.016-1.384,0-2.076,0m.033,114.974c.631,0,1.262-.017,1.891.006.408.015.613-.013.689-.544a28.067,28.067,0,0,1,3.868-10.224,53.71,53.71,0,0,1,6.038-8.125,22.3,22.3,0,0,1,2.723-2.778c.28-.226.34-.365-.016-.621-1.088-.781-2.153-1.594-3.2-2.425-.354-.28-.582-.3-.914.035-1.4,1.427-2.748,2.888-4.034,4.422a49.864,49.864,0,0,0-4.24,5.859,43.072,43.072,0,0,0-3.356,6.7c-.222.559-.5,1.1-.7,1.661a20,20,0,0,0-.772,2.969,21.493,21.493,0,0,0-.481,2.554c-.028.4.083.536.492.518.67-.03,1.342-.008,2.014-.008M48.741,5.316c.109-.441-.206-.393-.467-.394-1.322,0-2.645.008-3.967-.009-.382,0-.536.122-.58.51a18.636,18.636,0,0,1-1.081,4.291C40.229,16.317,36.017,21.7,31.09,26.6c-.2.2-.446.287-.062.566q1.7,1.234,3.358,2.528a.484.484,0,0,0,.769-.051A53.107,53.107,0,0,0,46.339,13.756a31.028,31.028,0,0,0,2.4-8.441M26.857,64.842h6.65q2.5,0,5,0c.248,0,.5.033.512-.339.022-.541.072-1.08.107-1.62a20.357,20.357,0,0,0-.1-2.347c-.022-.457-.253-.577-.7-.576q-11.408.021-22.817-.006c-.615,0-.783.285-.793.761-.023,1.095-.027,2.189,0,3.283.021.819.075.843.915.843H26.857M16.481,69.713a33.149,33.149,0,0,0,2.882,4.7c.149.2.345.174.545.174q7.017,0,14.035,0a.652.652,0,0,0,.614-.284,30.307,30.307,0,0,0,2.438-3.917c.336-.67.33-.675-.433-.675H16.481M37.325,55.075A30.951,30.951,0,0,0,34.706,50.7a1.021,1.021,0,0,0-.951-.482c-4.414.016-8.828.027-13.242-.007a1.6,1.6,0,0,0-1.579.78,41.435,41.435,0,0,0-2.428,4.085ZM34.648,88.518c.19.005.261-.135.361-.229a64.21,64.21,0,0,0,4.885-5.1A53.2,53.2,0,0,0,45.066,75.9c.323-.546.273-.813-.14-1.209-.954-.913-1.882-1.853-2.8-2.8-.3-.311-.4-.258-.592.106-.552,1.049-1.114,2.1-1.748,3.1a43.634,43.634,0,0,1-6.332,7.771c-.767.755-1.547,1.5-2.33,2.236-.222.209-.368.452-.063.634a28.582,28.582,0,0,1,3.3,2.59,3.127,3.127,0,0,0,.288.19M17.14,113.538c.1.008.181.02.262.02q9.367,0,18.735.009c.488,0,.5-.155.3-.512-.794-1.414-1.692-2.762-2.6-4.1a.554.554,0,0,0-.536-.268q-6.439.008-12.877,0a.7.7,0,0,0-.6.309,16.794,16.794,0,0,0-1.895,2.848c-.288.532-.8,1-.788,1.7M17.094,11.253a47.316,47.316,0,0,0,2.854,4.507.715.715,0,0,0,.632.37q6.436-.015,12.872,0a.638.638,0,0,0,.59-.323,36.57,36.57,0,0,0,2.417-3.929c.326-.619.316-.625-.383-.625H17.094ZM30.167,45.34c-1.008-.919-1.916-1.69-2.751-2.533-.395-.4-.634-.324-.979,0-.822.78-1.663,1.54-2.5,2.307a.153.153,0,0,0-.036.222ZM23.7,79.491c1.058.959,2,1.826,2.962,2.678.224.2.443.086.642-.1.777-.71,1.562-1.412,2.339-2.122.138-.126.3-.254.238-.461ZM24.361,21c.909.912,1.723,1.72,2.526,2.538.2.205.339.058.46-.061.711-.693,1.412-1.4,2.114-2.1.083-.084.188-.176.115-.313C29.516,20.952,29.4,21,29.3,21c-1.6,0-3.2,0-4.944,0m5,82.788.108-.139q-1.26-1.21-2.522-2.418c-.226-.215-.365-.008-.5.13-.518.516-1.048,1.021-1.541,1.56-.256.28-.657.44-.792.866Z" transform="translate(0 0)" fill="#060607"/>
        <path id="Path_827986" data-name="Path 827986" d="M164.905,16.854a2.654,2.654,0,0,1,2.3.016,2.762,2.762,0,0,1,1,1.114,6.853,6.853,0,0,1,.6,1.9,19.792,19.792,0,0,1,.643,2.664,30.955,30.955,0,0,1,.259,5.923,35.2,35.2,0,0,1-1.256,6.467,22,22,0,0,1-1.907,4.518c-.217.388-.123.552.133.807q7.628,7.591,15.245,15.193a8.49,8.49,0,0,1,1.668,2.219,7.278,7.278,0,0,1-3.818,10.041,7.145,7.145,0,0,1-8.121-1.856q-5.093-5.083-10.184-10.166-2.451-2.452-4.876-4.932a.924.924,0,0,0-1.264-.206,26.821,26.821,0,0,1-5.16,2.056,31.883,31.883,0,0,1-4.316.818,22.944,22.944,0,0,1-4.461.2,14.551,14.551,0,0,1-3.368-.46c-.721-.2-1.47-.289-2.2-.49a24.251,24.251,0,0,1-7.427-3.309,29.56,29.56,0,0,1-3.1-2.333,29.5,29.5,0,0,1-5.115-6.054,25.725,25.725,0,0,1-2.738-5.7,31.884,31.884,0,0,1-1.162-5,25.423,25.423,0,0,1-.177-5.667,26.577,26.577,0,0,1,1.016-5.24,26.181,26.181,0,0,1,4.141-8.347,16.287,16.287,0,0,1,2.4-2.761c.794-.706,1.447-1.563,2.3-2.208A39.052,39.052,0,0,1,130.085,3.3,25.839,25.839,0,0,1,137.643.61a17.968,17.968,0,0,1,5.374-.538c1.491.137,2.989.141,4.478.427,1.318.254,2.583.65,3.86,1.027,1.705.5,2.134,1.868,1.582,3.406a2.641,2.641,0,0,1-3.268,1.044,23.011,23.011,0,0,0-6.8-1.036,21.634,21.634,0,0,0-3.074.228,18.333,18.333,0,0,0-6.591,1.962,22.666,22.666,0,0,0-6.808,5.19,23.456,23.456,0,0,0-4.07,6.642,18.563,18.563,0,0,0-1.386,6.79,22.432,22.432,0,0,0,1.063,8.019,21.422,21.422,0,0,0,3.12,5.961A18.575,18.575,0,0,0,128.11,43.1a27.612,27.612,0,0,0,6.3,4,21.229,21.229,0,0,0,7.838,1.671,33.746,33.746,0,0,0,3.609-.213,16.265,16.265,0,0,0,5.723-1.546,25.657,25.657,0,0,0,5.9-3.768,19.441,19.441,0,0,0,3.385-3.676,21.718,21.718,0,0,0,3.137-6.488,30.405,30.405,0,0,0,.9-5.765c.062-.75-.14-1.482-.124-2.227a15.03,15.03,0,0,0-.865-4.815c-.475-1.52-.317-2.492.986-3.417m14.525,44.02a2.193,2.193,0,0,0-.889-1.965q-7.309-7.342-14.625-14.678c-.279-.281-.448-.216-.677.058a23.355,23.355,0,0,1-2.791,2.8c-.332.282-.336.431-.019.745q5.283,5.233,10.536,10.5c1.453,1.449,2.895,2.909,4.374,4.331a2.281,2.281,0,0,0,2.691.524,2.159,2.159,0,0,0,1.4-2.318" transform="translate(-59.349 -0.014)" fill="#060607"/>
        <path id="Path_827987" data-name="Path 827987" d="M170.043,21.99c-1.3.925-1.461,1.9-.986,3.417a15.032,15.032,0,0,1,.865,4.815c-.016.745.186,1.477.124,2.228a30.412,30.412,0,0,1-.9,5.765,21.722,21.722,0,0,1-3.136,6.488,19.446,19.446,0,0,1-3.385,3.676,25.651,25.651,0,0,1-5.9,3.768A16.28,16.28,0,0,1,151,53.691a33.492,33.492,0,0,1-3.609.213,21.219,21.219,0,0,1-7.838-1.671,27.61,27.61,0,0,1-6.3-4,18.59,18.59,0,0,1-2.983-3.365,21.43,21.43,0,0,1-3.12-5.961,22.445,22.445,0,0,1-1.063-8.019,18.565,18.565,0,0,1,1.386-6.79,23.446,23.446,0,0,1,4.07-6.642,22.655,22.655,0,0,1,6.808-5.19,18.328,18.328,0,0,1,6.591-1.962,21.706,21.706,0,0,1,3.074-.228,23.012,23.012,0,0,1,6.795,1.037,2.642,2.642,0,0,0,3.269-1.044,9.736,9.736,0,0,1,3.6,1.751c.385.283.757.592,1.163.845a.939.939,0,0,1,.5.712c-1.07,1.683-.512,3.42,1.257,3.934a2.479,2.479,0,0,0,2.151-.544c.709.2.82.951,1.281,1.391a8.853,8.853,0,0,1,1.824,3.015,4.73,4.73,0,0,1,.2.818m-32.938,7.566h-3.479a2.573,2.573,0,0,0-2.74,2.811,16.8,16.8,0,0,0,1.352,6.383,17.522,17.522,0,0,0,6.545,7.672c1.845,1.218,3.164.663,4.049-.787,1.145-1.877,2.2-3.808,3.262-5.733a.954.954,0,0,1,1.084-.614,4.612,4.612,0,0,0,1.278,0,1.2,1.2,0,0,1,1.337.743c1.077,1.9,2.186,3.778,3.293,5.659a2.242,2.242,0,0,0,3.365,1,17.61,17.61,0,0,0,2.195-1.486,15.9,15.9,0,0,0,4.817-6.324,20,20,0,0,0,1.322-4.609,8.5,8.5,0,0,0,.221-2.088,2.657,2.657,0,0,0-1.83-2.458,6.446,6.446,0,0,0-1.423-.161q-3.265-.025-6.53,0a.574.574,0,0,1-.629-.4,6.778,6.778,0,0,0-.888-1.451.659.659,0,0,1-.066-.939,57.206,57.206,0,0,0,3.588-6.1,2.4,2.4,0,0,0-.625-3.212,11.156,11.156,0,0,0-2.895-1.4,15.725,15.725,0,0,0-6.138-1.1,14.708,14.708,0,0,0-2.451.237,15.677,15.677,0,0,0-5.795,2.175,2.186,2.186,0,0,0-.909,2.809,5.412,5.412,0,0,0,.363.766c1.114,1.928,2.226,3.858,3.362,5.774a.727.727,0,0,1-.035.978,4.379,4.379,0,0,0-.834,1.473.485.485,0,0,1-.565.392c-1.2-.011-2.4,0-3.6,0" transform="translate(-64.487 -5.149)" fill="#e8f5fd"/>
        <path id="Path_827988" data-name="Path 827988" d="M132.621,127.626h-6.837a2.635,2.635,0,0,1-2.339-1.222,2.41,2.41,0,0,1,1.576-3.531,4.467,4.467,0,0,1,.964-.122c4.558,0,9.116-.031,13.673.022,1.478.017,2.271.376,2.738,1.6a2.334,2.334,0,0,1-1.867,3.146,9.382,9.382,0,0,1-1.561.1c-2.116.006-4.232,0-6.348,0" transform="translate(-62.965 -62.784)" fill="#060607"/>
        <path id="Path_827989" data-name="Path 827989" d="M122.8,142.947c.96-.094,1.666.536,2.456.933,1.325.665,2.628,1.388,3.9,2.14,1.565.928,3.165,1.8,4.71,2.762,1.006.628,2.04,1.213,3.034,1.86a2.309,2.309,0,0,1,.77,2.971,2.359,2.359,0,0,1-2.814,1.261c-.554-.258-1.076-.587-1.613-.882-1.619-.888-3.26-1.739-4.855-2.67-2.319-1.354-4.614-2.75-6.9-4.159a2.293,2.293,0,0,1,1.315-4.217" transform="translate(-61.597 -73.108)" fill="#060607"/>
        <path id="Path_827990" data-name="Path 827990" d="M125.23,174.6a2.623,2.623,0,0,1-.811,2.308,2.259,2.259,0,0,1-3.48-.457c-2.149-3.472-4.236-6.982-6.175-10.577-.388-.721-.827-1.415-1.245-2.121a2.333,2.333,0,0,1,.879-3.4,2.4,2.4,0,0,1,3.312,1.1c1.187,1.975,2.309,3.987,3.477,5.972,1.128,1.918,2.165,3.887,3.378,5.758a7.454,7.454,0,0,1,.641,1.3c.007.039.014.079.022.118" transform="translate(-57.86 -81.872)" fill="#060607"/>
        <path id="Path_827991" data-name="Path 827991" d="M205.188,19.371a2.479,2.479,0,0,1-2.151.544c-1.769-.514-2.328-2.251-1.258-3.934a3.157,3.157,0,0,1,1.154-.735,2.333,2.333,0,0,1,2.624,1,2.4,2.4,0,0,1-.182,2.893c-.064.077-.125.155-.187.233" transform="translate(-102.933 -7.754)" fill="#060607"/>
        <path id="Path_827992" data-name="Path 827992" d="M137.89,189.7c-.008-.04-.015-.079-.022-.118a.48.48,0,0,1,.053.078c0,.007-.02.026-.031.04" transform="translate(-70.52 -96.973)" fill="#e8f5fd"/>
        <path id="Path_827993" data-name="Path 827993" d="M95.494,209.364c-.085.036-.1,0-.088-.079a.15.15,0,0,1,.088.079" transform="translate(-48.798 -107.05)" fill="#e8f5fd"/>
        <path id="Path_827994" data-name="Path 827994" d="M99.083,215.061c0,.015,0,.03-.008.045l.017-.025-.009-.02" transform="translate(-50.677 -110.004)" fill="#e8f5fd"/>
        <path id="Path_827995" data-name="Path 827995" d="M104.242,224.853c-.078,0-.121-.025-.1-.111l.1.111" transform="translate(-53.266 -114.956)" fill="#e8f5fd"/>
        <path id="Path_827996" data-name="Path 827996" d="M51.4,158c-.61,0-1.224-.039-1.83.012-.526.044-.7-.163-.788-.652a25.236,25.236,0,0,0-1.364-4.946,32.58,32.58,0,0,0-3.791-6.968c-1.179-1.608-2.328-3.241-3.637-4.754-1.38-1.595-2.9-3.051-4.382-4.547a80.3,80.3,0,0,0-7.741-6.437,54.772,54.772,0,0,1-13.613-15.127A31.483,31.483,0,0,1,10.5,105.2a21.879,21.879,0,0,1-.4-6.814,28.445,28.445,0,0,1,3.545-10.867,52.94,52.94,0,0,1,10.171-12.76.587.587,0,0,1,.958-.025,30.341,30.341,0,0,0,3.046,2.431c.348.233.351.4.03.685a50.109,50.109,0,0,0-6.867,7.321,28.816,28.816,0,0,0-5.8,12.439,18.83,18.83,0,0,0,1.29,10.312,38.923,38.923,0,0,0,8.9,12.947,79.046,79.046,0,0,0,9.121,7.691,58.141,58.141,0,0,1,6.222,5.748,55.9,55.9,0,0,1,9.7,12.8c.73,1.351,1.229,2.8,1.878,4.184a19.241,19.241,0,0,1,.952,3.005,24.413,24.413,0,0,1,.643,3.315c.041.3-.063.394-.358.388-.712-.015-1.424,0-2.136,0" transform="translate(-5.112 -38.108)" fill="#ed7943"/>
        <path id="Path_827997" data-name="Path 827997" d="M12.878,10.064c.692,0,1.384.011,2.076,0,.316-.007.436.067.491.422a26.132,26.132,0,0,0,3.008,8.543,48.639,48.639,0,0,0,6.091,8.592A65.371,65.371,0,0,0,35.7,37.792a46.093,46.093,0,0,1,4.166,3.486C40.977,42.3,42,43.4,43.1,44.423a28.5,28.5,0,0,1,2.272,2.57,48.156,48.156,0,0,1,4.077,5.483,31.34,31.34,0,0,1,4.109,9.411c.284,1.23.46,2.485.684,3.729a.471.471,0,0,1-.34.61,27.246,27.246,0,0,1-3.561,1.493.411.411,0,0,0-.155.09c-.218.17-.456.456-.719.312-.23-.127-.083-.479-.094-.729a21.661,21.661,0,0,0-.8-5.162,31.334,31.334,0,0,0-5.484-10.272,60.426,60.426,0,0,0-12.7-11.967,40.072,40.072,0,0,1-3.95-3.288c-.977-.917-1.983-1.806-2.9-2.781-4.465-4.729-8.422-9.811-11-15.849a38.343,38.343,0,0,1-1.994-6.535c-.04-.174,0-.365-.023-.545-.132-.931-.136-.93.829-.93h1.526" transform="translate(-5.35 -5.145)" fill="#a1c98e"/>
        <path id="Path_827998" data-name="Path 827998" d="M12.85,219.333c-.671,0-1.343-.022-2.014.008-.409.019-.52-.121-.492-.518a21.474,21.474,0,0,1,.481-2.554A20.062,20.062,0,0,1,11.6,213.3c.2-.558.479-1.1.7-1.661a43.01,43.01,0,0,1,3.356-6.7,49.8,49.8,0,0,1,4.24-5.859c1.286-1.534,2.636-3,4.034-4.422.332-.34.561-.315.914-.035,1.049.832,2.115,1.645,3.2,2.425.357.255.3.4.016.621a22.336,22.336,0,0,0-2.723,2.779,53.685,53.685,0,0,0-6.038,8.125,28.073,28.073,0,0,0-3.868,10.224c-.076.531-.281.558-.689.544-.63-.023-1.261-.006-1.891-.006" transform="translate(-5.289 -99.439)" fill="#a1c98e"/>
        <path id="Path_827999" data-name="Path 827999" d="M81.02,10.459a31.023,31.023,0,0,1-2.4,8.441A53.1,53.1,0,0,1,67.436,34.786a.485.485,0,0,1-.769.052q-1.658-1.293-3.358-2.529c-.384-.278-.137-.368.062-.566,4.927-4.9,9.138-10.283,11.556-16.885a18.622,18.622,0,0,0,1.081-4.292c.044-.387.2-.514.58-.509,1.322.017,2.645,0,3.967.008.261,0,.577-.047.467.394" transform="translate(-32.279 -5.144)" fill="#ed7943"/>
        <path id="Path_828003" data-name="Path 828003" d="M66.994,163.582a3.062,3.062,0,0,1-.288-.19,28.582,28.582,0,0,0-3.3-2.59c-.305-.182-.159-.424.063-.634.784-.738,1.563-1.481,2.33-2.236a43.656,43.656,0,0,0,6.332-7.771c.634-1,1.195-2.05,1.748-3.1.192-.364.292-.417.592-.106.916.951,1.844,1.891,2.8,2.8.413.4.463.663.14,1.209a53.225,53.225,0,0,1-5.172,7.283,64.042,64.042,0,0,1-4.885,5.1c-.1.094-.171.234-.361.229" transform="translate(-32.346 -75.064)" fill="#a1c98e"/>
        <path id="Path_828010" data-name="Path 828010" d="M225.678,106.97a2.159,2.159,0,0,1-1.4,2.318,2.281,2.281,0,0,1-2.691-.524c-1.479-1.422-2.921-2.883-4.374-4.332q-5.266-5.251-10.536-10.5c-.317-.314-.313-.464.019-.745a23.354,23.354,0,0,0,2.791-2.8c.229-.274.4-.339.677-.058q7.308,7.344,14.625,14.678a2.193,2.193,0,0,1,.889,1.965" transform="translate(-105.597 -46.11)" fill="#ed7943"/>
        <path id="Path_828011" data-name="Path 828011" d="M142.145,34.673c1.2,0,2.4-.006,3.6,0a.484.484,0,0,0,.565-.392,4.367,4.367,0,0,1,.834-1.473.727.727,0,0,0,.035-.978c-1.136-1.916-2.248-3.845-3.362-5.774a5.4,5.4,0,0,1-.363-.765,2.186,2.186,0,0,1,.909-2.809,15.669,15.669,0,0,1,5.795-2.175,14.761,14.761,0,0,1,2.451-.237,15.724,15.724,0,0,1,6.138,1.1,11.151,11.151,0,0,1,2.9,1.4,2.4,2.4,0,0,1,.625,3.212,57.3,57.3,0,0,1-3.588,6.1.659.659,0,0,0,.066.939,6.781,6.781,0,0,1,.889,1.451.573.573,0,0,0,.629.4q3.265-.021,6.53,0a6.453,6.453,0,0,1,1.423.161,2.657,2.657,0,0,1,1.83,2.458,8.5,8.5,0,0,1-.221,2.088A20,20,0,0,1,168.5,44a15.9,15.9,0,0,1-4.817,6.324,17.6,17.6,0,0,1-2.194,1.486,2.242,2.242,0,0,1-3.365-1c-1.107-1.881-2.216-3.76-3.293-5.659a1.2,1.2,0,0,0-1.336-.743,4.612,4.612,0,0,1-1.278,0,.954.954,0,0,0-1.084.614c-1.061,1.926-2.118,3.857-3.262,5.733-.884,1.45-2.2,2.005-4.049.787a17.524,17.524,0,0,1-6.544-7.672,16.792,16.792,0,0,1-1.352-6.383,2.573,2.573,0,0,1,2.74-2.811h3.479m1.434,4.873c-.733,0-1.465.015-2.2-.007-.344-.01-.442.108-.346.424a12.934,12.934,0,0,0,3.461,5.95c.246.229.375.294.577-.057.709-1.229,1.442-2.443,2.185-3.652a.526.526,0,0,0-.067-.708,4.355,4.355,0,0,1-.906-1.545c-.109-.347-.308-.419-.631-.412-.692.016-1.384.005-2.076.006m8.964-14.477a8.312,8.312,0,0,0-2.95.328c-.428.1-.508.231-.274.606.417.669.8,1.359,1.2,2.037.369.623.561,1.519,1.148,1.8a5.98,5.98,0,0,0,2.217.087.714.714,0,0,0,.727-.413q.985-1.777,2.012-3.53c.193-.327.135-.5-.217-.556a15.987,15.987,0,0,0-3.865-.36M162.4,39.545c-.609,0-1.223.044-1.826-.013a.866.866,0,0,0-1.032.674,4.361,4.361,0,0,1-.808,1.347.446.446,0,0,0-.069.6c.731,1.238,1.465,2.475,2.153,3.736.2.372.3.239.5.039.466-.47.9-.968,1.339-1.462a11.748,11.748,0,0,0,2.146-4.374c.127-.385.021-.584-.453-.554-.647.042-1.3.011-1.949.011M155.3,37.2a2.28,2.28,0,0,0-2.5-2.484,2.241,2.241,0,0,0-2.256,2.494,2.342,2.342,0,0,0,2.428,2.33c1.3-.007,2.63-1.118,2.332-2.339" transform="translate(-69.526 -10.267)" fill="#060607"/>
        <path id="Path_828012" data-name="Path 828012" d="M148.892,59.929c.692,0,1.384.011,2.076,0,.322-.007.521.065.631.412a4.364,4.364,0,0,0,.906,1.545.526.526,0,0,1,.067.708c-.743,1.208-1.476,2.423-2.184,3.652-.2.351-.331.286-.577.058a12.937,12.937,0,0,1-3.462-5.951c-.1-.316,0-.434.346-.424.732.022,1.465.007,2.2.005" transform="translate(-74.84 -30.651)" fill="#ffec8a"/>
        <path id="Path_828013" data-name="Path 828013" d="M166.431,30.264a15.987,15.987,0,0,1,3.865.36c.352.054.41.229.218.556q-1.032,1.751-2.012,3.53a.714.714,0,0,1-.727.413,5.982,5.982,0,0,1-2.218-.087c-.587-.282-.778-1.178-1.148-1.8-.4-.679-.786-1.368-1.2-2.037-.234-.375-.154-.5.274-.606a8.312,8.312,0,0,1,2.95-.328" transform="translate(-83.415 -15.462)" fill="#ffec8a"/>
        <path id="Path_828014" data-name="Path 828014" d="M186.131,59.913c.65,0,1.3.031,1.949-.01.473-.03.579.168.453.553a11.758,11.758,0,0,1-2.146,4.374c-.44.494-.874.991-1.339,1.462-.2.2-.3.332-.5-.04-.689-1.261-1.422-2.5-2.153-3.736a.446.446,0,0,1,.069-.6,4.359,4.359,0,0,0,.808-1.347A.866.866,0,0,1,184.3,59.9c.6.057,1.217.013,1.826.013" transform="translate(-93.253 -30.635)" fill="#ffec8a"/>
        <path id="Path_828015" data-name="Path 828015" d="M170.606,52.54c.3,1.221-1.031,2.333-2.332,2.339a2.342,2.342,0,0,1-2.428-2.33,2.241,2.241,0,0,1,2.256-2.494,2.28,2.28,0,0,1,2.5,2.484" transform="translate(-84.831 -25.604)" fill="#ffec8a"/>
      </g>
    </g>
  </g>
</svg>
