<svg xmlns="http://www.w3.org/2000/svg" xmlns:xlink="http://www.w3.org/1999/xlink" width="169" height="169" viewBox="0 0 169 169">
  <defs>
    <clipPath id="clip-path">
      <rect id="Rectangle_378726" data-name="Rectangle 378726" width="123" height="123.33" fill="none"/>
    </clipPath>
  </defs>
  <g id="Group_1075371" data-name="Group 1075371" transform="translate(-719 -2877.811)">
    <g id="Group_1073327" data-name="Group 1073327" transform="translate(334 819.811)">
      <g id="Group_159182" data-name="Group 159182" transform="translate(385.001 2058)">
        <path id="Union_12" data-name="Union 12" d="M84.5,0A84.5,84.5,0,1,1,0,84.5,84.5,84.5,0,0,1,84.5,0Z" transform="translate(0 0)" fill="#ffae7e"/>
      </g>
    </g>
    <g id="Group_1075382" data-name="Group 1075382" transform="translate(740 2902.78)">
      <g id="Group_1075381" data-name="Group 1075381" clip-path="url(#clip-path)">
        <path id="Path_828025" data-name="Path 828025" d="M61.5,123.32c-4.441,0-8.883-.006-13.325.01-.423,0-.571-.066-.568-.541a35.255,35.255,0,0,1,.226-4.66,22.619,22.619,0,0,1,1.68-5.922,25.7,25.7,0,0,1,5.031-7.41,21.473,21.473,0,0,1,3.486-2.925c.52-.356.358-.575-.02-.856a31.42,31.42,0,0,1-3.773-3.295,22.535,22.535,0,0,1-3.669-4.979,22.934,22.934,0,0,1-2.035-5.094c-.352-1.329-.558-2.67-.8-4.014a28.466,28.466,0,0,1-.118-3.161,5.379,5.379,0,0,1,.116-.691,1.838,1.838,0,0,0-.572-1.814,20.4,20.4,0,0,1-4.644-5.753,25.545,25.545,0,0,1-1.726-3.886,27.545,27.545,0,0,1-.87-3.835,16.916,16.916,0,0,1-.17-4.393,19.846,19.846,0,0,1,1.32-6.1,19.561,19.561,0,0,1,3.672-6.13c.159-.178.059-.273-.064-.4q-4.247-4.253-8.488-8.511a.522.522,0,0,0-.791-.022,19.731,19.731,0,0,1-5.378,3.2,28.44,28.44,0,0,1-4.663,1.339,22.539,22.539,0,0,1-5.7.213,13.586,13.586,0,0,1-3.176-.61,26.567,26.567,0,0,1-4.643-1.738,22.334,22.334,0,0,1-5.387-4.008A21.606,21.606,0,0,1,.577,26.533a21.226,21.226,0,0,1-.468-6.454,25.208,25.208,0,0,1,.64-3.448A20.913,20.913,0,0,1,3.792,9.743a20.321,20.321,0,0,1,9.4-7.815A21.27,21.27,0,0,1,19.131.233a20.584,20.584,0,0,1,2.7-.169A22.821,22.821,0,0,1,27.2.77a21.907,21.907,0,0,1,7.762,3.692,25.713,25.713,0,0,1,3.356,3.225,20.391,20.391,0,0,1,4.872,10.129,19.6,19.6,0,0,1,.479,5.28,29.051,29.051,0,0,1-.478,3.127A22.862,22.862,0,0,1,40.54,33.14a25.2,25.2,0,0,1-1.684,2.453c-.173.236-.157.375.025.562.307.316.6.648.908.96,2.458,2.469,4.868,4.987,7.4,7.375.128.12.244.3.453.2.188-.092.1-.292.087-.43a22.937,22.937,0,0,1-.106-3.1,24.142,24.142,0,0,1,1.028-6,23.167,23.167,0,0,1,4.756-8.652,21.269,21.269,0,0,1,2.659-2.589c.645-.54,1.277-1.094,1.93-1.624.338-.274.405-.465.011-.779a31.248,31.248,0,0,1-4.693-4.374,23.308,23.308,0,0,1-3.764-6.017,26.216,26.216,0,0,1-1.7-6.063,33.4,33.4,0,0,1-.237-4.7c0-.254.057-.38.329-.341a2.226,2.226,0,0,0,.3,0Q61.572.02,74.9.01c.453,0,.612.088.59.576a36.8,36.8,0,0,1-.442,4.887A29.2,29.2,0,0,1,73.306,11.6a19.5,19.5,0,0,1-2.414,4.072,23.275,23.275,0,0,1-2.83,3.3c-1.016.941-2.1,1.817-3.185,2.673-.313.246-.239.273,0,.488a48.385,48.385,0,0,1,4.505,4.1A22.913,22.913,0,0,1,73.179,32c.239.537.71,1.057.52,1.743.8.937.739,2.173,1.121,3.256a10.512,10.512,0,0,1,.515,3.3,17.835,17.835,0,0,1-.095,3.707,1.091,1.091,0,0,0,.44,1.088,21.708,21.708,0,0,1,6.153,8.77,25.825,25.825,0,0,1,1.361,5.656,21.392,21.392,0,0,1-1.058,9.134A17.946,17.946,0,0,1,79.073,74.6c-.105.132-.088.316-.21.4-.255.185-.635.392-.585.669.046.257.416.453.641.679,2.64,2.657,5.291,5.3,7.912,7.979.55.561.879,0,1.134-.218a21.156,21.156,0,0,1,14.472-4.5,23.123,23.123,0,0,1,10.1,3.147A23.555,23.555,0,0,1,121.815,94.3a14.782,14.782,0,0,1,.971,4.261c.018.748.191,1.491.222,2.239a22.529,22.529,0,0,1-1.112,7.313,17.547,17.547,0,0,1-1.666,4,22.758,22.758,0,0,1-3.987,5.162,21.622,21.622,0,0,1-16.262,6.049,16.79,16.79,0,0,1-4.084-.672,22.046,22.046,0,0,1-7.385-3.345,20.784,20.784,0,0,1-4.411-4.381,21.128,21.128,0,0,1-4.564-10.891,26.908,26.908,0,0,1-.076-5.012,18.228,18.228,0,0,1,.889-4.018,14.63,14.63,0,0,1,1.087-2.854A19.948,19.948,0,0,1,84.2,87.892c.278-.309.3-.479,0-.778-2.672-2.655-5.326-5.329-8-7.983-.25-.249-.536-.76-.862-.559-.249.153-.085.713-.049,1.107.072.8.053,1.6.056,2.4a20.4,20.4,0,0,1-.2,2.594,27.662,27.662,0,0,1-1.42,5.418,20.723,20.723,0,0,1-3.893,6.565,34.382,34.382,0,0,1-4.812,4.439c-.352.29-.334.466,0,.741a41.948,41.948,0,0,1,3.471,2.976,21.387,21.387,0,0,1,2.355,2.715,24.976,24.976,0,0,1,4.048,9.351,36.117,36.117,0,0,1,.584,5.764c.019.519-.085.7-.658.693-4.442-.028-8.883-.015-13.325-.015M26.971,19.934l-9.418-.018c-.34,0-.68,0-1.02-.013-.237-.007-.311.15-.192.295.531.648.7,1.521,1.409,2.073a6.846,6.846,0,0,0,3.1,1.554,5.761,5.761,0,0,0,4.186-.942,4.927,4.927,0,0,0,2.271-2.867c-.069-.2-.211-.107-.335-.081M39.8,21.864c.011.013.024.036.032.035.056-.009.058-.03,0-.049-.008,0-.025.019-.038.029a23.168,23.168,0,0,0-.546-4.232,18.179,18.179,0,0,0-3.683-7.278,19.2,19.2,0,0,0-6.4-4.84A17.94,17.94,0,0,0,21.432,4.01a16.387,16.387,0,0,0-6.344,1.25,16.325,16.325,0,0,0-4.764,2.874,19.769,19.769,0,0,0-4.3,5.5,15.619,15.619,0,0,0-1.951,6.5,19.524,19.524,0,0,0,.085,4.126A19.421,19.421,0,0,0,5.7,29.589a17.253,17.253,0,0,0,2.588,3.945c.214.252.3.379.453-.051A14.206,14.206,0,0,1,15.567,25.5a20.861,20.861,0,0,1-1.459-1.59,9.485,9.485,0,0,1-1.685-8.767,9.884,9.884,0,0,1,2.891-4.585,9.324,9.324,0,0,1,7.869-2.434,10.043,10.043,0,0,1,8.211,7.337,9.638,9.638,0,0,1-2.875,9.671c-.334.3-.345.444.083.644a10.22,10.22,0,0,1,1.151.707,12.2,12.2,0,0,1,3.633,3.688,14.681,14.681,0,0,1,1.467,2.979c.079.216.115.5.352.543.2.039.3-.218.418-.376a21.456,21.456,0,0,0,1.627-2.269,17.337,17.337,0,0,0,1.977-4.79,29.186,29.186,0,0,0,.579-4.4m8.4,51.709c.02-.012.067-.023.085-.053a1.355,1.355,0,0,0,.135-.266,13.954,13.954,0,0,1,6.385-7.739c.3-.175.35-.329.084-.594a13.252,13.252,0,0,1-1.081-1.2A9.845,9.845,0,0,1,51.6,57.783a9.4,9.4,0,0,1,.935-4.1,9.69,9.69,0,0,1,12.8-5.134c3.757,1.528,5.64,4.59,6.035,8.552a8.15,8.15,0,0,1-1.3,5.486,9.383,9.383,0,0,1-1.934,2.346c-.316.244-.236.332.032.487a15,15,0,0,1,2.394,1.688A13.527,13.527,0,0,1,74.628,73.2a.414.414,0,0,0,.2.271c.142.063.207-.09.281-.168s.107-.216.185-.3a15.647,15.647,0,0,0,3.4-6.252,19.092,19.092,0,0,0,.635-5.746,16.029,16.029,0,0,0-.987-5.5,17.467,17.467,0,0,0-8.782-9.788,16.081,16.081,0,0,0-4.959-1.71,19.644,19.644,0,0,0-6.225.049,16.364,16.364,0,0,0-9.99,5.472,17.418,17.418,0,0,0-4.673,11.215,19.09,19.09,0,0,0,.8,6.437A17.588,17.588,0,0,0,48.2,73.573m35.158,28.1a14.619,14.619,0,0,0,1.243,6.4,17.7,17.7,0,0,0,2.945,4.918c.265.3.4.343.54-.078a14.186,14.186,0,0,1,1.162-2.543,14.5,14.5,0,0,1,2.079-2.745,15.371,15.371,0,0,1,3.216-2.478c.119-.072.442-.17.149-.324-.613-.323-.888-.918-1.289-1.411A9.033,9.033,0,0,1,91.491,95.5a9.44,9.44,0,0,1,5.665-7.072,10.035,10.035,0,0,1,8.06.026,9.731,9.731,0,0,1,5.687,10.47,9.624,9.624,0,0,1-3.23,5.905c-.236.21-.123.227.085.337a13.71,13.71,0,0,1,6.264,7.022c.107.251.216.5.336.75.177.366.294.332.5.06a22.28,22.28,0,0,0,1.613-2.241,17.7,17.7,0,0,0,2.483-10.917,18.051,18.051,0,0,0-.711-3.812,17.409,17.409,0,0,0-8.588-10.377,17,17,0,0,0-6.63-1.985,17.921,17.921,0,0,0-5.507.205,17.418,17.418,0,0,0-9.909,6,16.941,16.941,0,0,0-4.252,11.8M22.012,39.742a11.538,11.538,0,0,0,1.747-.013,19.2,19.2,0,0,0,7.413-2.517c.37-.224.6-.475.485-.89a17.557,17.557,0,0,0-.477-1.923,9.739,9.739,0,0,0-8.593-6.485,8.886,8.886,0,0,0-4.973.866,10.245,10.245,0,0,0-5.491,7.284.9.9,0,0,0,.44,1.144,19.41,19.41,0,0,0,4.349,1.9,16.079,16.079,0,0,0,5.1.639m79.4,79.577c.649-.051,1.6-.055,2.549-.208a17.853,17.853,0,0,0,6.733-2.488.541.541,0,0,0,.312-.583,10.335,10.335,0,0,0-.781-2.725,9.728,9.728,0,0,0-10.987-5.677,9.909,9.909,0,0,0-7.817,8.11.766.766,0,0,0,.468.965,18.112,18.112,0,0,0,9.522,2.606m-39.723-39.7c.922-.092,2.065-.153,3.189-.37a18.2,18.2,0,0,0,6.13-2.377c.228-.14.433-.263.362-.6a10.828,10.828,0,0,0-2.82-5.7,9.766,9.766,0,0,0-6.478-2.878,9.149,9.149,0,0,0-5.982,1.6,10.2,10.2,0,0,0-4.254,6.355c-.134.583-.174.978.424,1.335a19.241,19.241,0,0,0,9.428,2.647M60.221,87.55v-.007q4.536,0,9.073,0c1.224,0,1.232.012,1.554-1.159a20.762,20.762,0,0,0,.616-4.739c.015-.387-.141-.5-.44-.345a21.3,21.3,0,0,1-7.193,2.1,20.637,20.637,0,0,1-3.578.151,18.688,18.688,0,0,1-3.583-.572,21.5,21.5,0,0,1-4.431-1.613c-.594-.305-.667-.287-.646.4a22,22,0,0,0,.789,5.182c.128.462.305.612.766.608,2.358-.018,4.715-.009,7.073-.009m.81-51.748v0q-3.869,0-7.738,0c-.349,0-.732,0-.844.381a21.191,21.191,0,0,0-.856,5.2c-.034.837.024.862.779.5a19.337,19.337,0,0,1,7.5-1.977,21.453,21.453,0,0,1,5.973.392A20.833,20.833,0,0,1,70.7,41.909c.488.253.608.02.682-.38a1.6,1.6,0,0,0,.006-.18,17.447,17.447,0,0,0-.75-5.151c-.054-.238-.329-.463-.529-.382-.585.238-1.136-.036-1.7-.028-2.459.034-4.918.014-7.378.014m.546,83.549v.025c3.119,0,6.238,0,9.357.006.4,0,.5-.152.421-.51-.219-.935-.407-1.877-.631-2.811-.132-.553-.368-.694-.894-.693q-8.188.02-16.376,0c-.16,0-.32,0-.48.006a.538.538,0,0,0-.565.483,28.089,28.089,0,0,0-.639,2.793c-.1.6.058.7.568.7q4.619-.011,9.238,0M61.532,4v0c-3.08,0-6.159,0-9.239-.005-.365,0-.684.018-.577.5.217.968.4,1.943.652,2.9a.668.668,0,0,0,.778.6q8.369-.017,16.737-.011a4.281,4.281,0,0,0,.478-.023.328.328,0,0,0,.312-.3q.283-1.476.594-2.947c.113-.533-.019-.728-.619-.722C67.612,4.013,64.572,4,61.532,4m.013,107.4v0q3.241,0,6.482,0c.166,0,.4.1.485-.107.079-.183-.108-.329-.2-.475a22.276,22.276,0,0,0-4.121-4.607c-.752-.675-1.608-1.228-2.31-1.962a.469.469,0,0,0-.773.005,13.067,13.067,0,0,1-2.383,2.081c-1.692,1.17-2.754,2.886-4.01,4.437-.118.146-.247.375-.154.549s.327.083.5.083q3.241.005,6.483,0m0-99.437v-.01c-2.119,0-4.238,0-6.357.005-.224,0-.555-.126-.641.116-.054.153.179.408.284.617.009.017.03.027.04.044a29.034,29.034,0,0,0,6.25,6.262c.255.211.6.314.8.052a8.559,8.559,0,0,1,1.409-1.167,21.486,21.486,0,0,0,4.934-5.348c.323-.554.33-.566-.3-.568-2.139-.006-4.278,0-6.417,0m7.157,19.849a20.079,20.079,0,0,0-3.446-4.226c-1.082-.974-2.241-1.86-3.337-2.819-.347-.3-.567-.24-.864.033-.53.487-1.073.963-1.632,1.418a19.533,19.533,0,0,0-4.709,5.053c-.089.149-.3.285-.2.464s.329.074.5.074q5.972.007,11.943,0h1.742M54.393,91.536c.378.568.647,1.031.971,1.451a36.007,36.007,0,0,0,5.763,5.557c.325.271.555.266.821.04,2.271-1.927,4.643-3.756,6.273-6.323.133-.21.471-.407.33-.642-.119-.2-.478-.08-.73-.08q-6.3-.007-12.593,0ZM16.28,15.9c3.652,0,7.232,0,10.813,0,.579,0,.339-.4.2-.594a10.292,10.292,0,0,0-1.788-2,8.05,8.05,0,0,0-4.342-1.373c-.294-.037-.449.166-.683.226a5.9,5.9,0,0,0-4.2,3.74m84.837,83.581v-.009c-1.678,0-3.355,0-5.032.006-.138,0-.341-.1-.414.109a.3.3,0,0,0,.157.4c.074.04.107.163.152.251a5.721,5.721,0,0,0,7.846,2.507,6.092,6.092,0,0,0,2.633-2.621c.25-.488.154-.639-.369-.639h-4.973M56.041,59.722a.958.958,0,0,0,.014.241,5.772,5.772,0,0,0,3.674,3.388,5.958,5.958,0,0,0,7.1-3.064c.231-.457.153-.58-.351-.575-1.76.019-3.519.009-5.279.01H56.041m10.876-4.1a5.792,5.792,0,0,0-10.544-.764c-.423.663-.333.762.464.763,3.343,0,6.685,0,10.08,0M106.659,95.37a5.941,5.941,0,0,0-5.2-3.767,5.615,5.615,0,0,0-5.5,3.251c-.225.411-.191.539.309.533,2.119-.022,4.238-.014,6.357-.017h4.03" transform="translate(-0.021 -0.005)" fill="#060607"/>
        <path id="Path_828026" data-name="Path 828026" d="M21.511,155.392H37.717a1.983,1.983,0,1,0-.08-3.964c-3.521-.024-7.043-.008-10.564-.008-1.7,0-3.4.012-5.1,0a5.826,5.826,0,0,1-5.5-3.573,5.493,5.493,0,0,1,.74-6.093,5.968,5.968,0,0,1,5.177-2.322c3.521.007,7.043-.006,10.564.025a10.164,10.164,0,0,0,1.681-.206c.663-.1,1.213-1.356,1.026-2.037-.387-1.409-1.044-1.655-2.528-1.665-6.382-.045-12.765-.021-19.147-.016a5.17,5.17,0,0,1-1.612-.225,6.305,6.305,0,0,1-3.794-3.16,5.234,5.234,0,0,1-.651-2.221,5.975,5.975,0,0,1,.956-3.642,5.909,5.909,0,0,1,3.779-2.612,6.2,6.2,0,0,1,1.215-.175q7.923-.017,15.846-.008a2.182,2.182,0,0,0,1.964-1.433,2.075,2.075,0,0,0-.873-2.113,3.439,3.439,0,0,0-1.83-.315c-1.165.027-1.163.008-1.162-1.178,0-.723.022-1.446-.019-2.166-.029-.526.09-.735.681-.72a9.181,9.181,0,0,1,3.563.494,5.835,5.835,0,0,1,3.574,4.657,5.9,5.9,0,0,1-3.646,6.374,6.6,6.6,0,0,1-2.326.473c-5.021-.039-10.044-.021-15.066-.02a3.99,3.99,0,0,0-1.522.16,1.9,1.9,0,0,0-1.121,2.188,1.878,1.878,0,0,0,1.46,1.561,6.833,6.833,0,0,0,1.134.085q9.393-.025,18.787-.051a7.325,7.325,0,0,1,3.826,1.018,5.706,5.706,0,0,1,1.7,2.014,5.823,5.823,0,0,1-.96,7.2,6.071,6.071,0,0,1-4.117,1.73c-3.882.017-7.763.008-11.645.008a2.081,2.081,0,0,0-1.883.754,2,2,0,0,0-.27,1.963,1.92,1.92,0,0,0,1.765,1.241c.377.035.76.023,1.139.022q7.053-.012,14.105-.023a6.489,6.489,0,0,1,3.7.858,5.98,5.98,0,0,1,2.945,5.638,5.8,5.8,0,0,1-4.074,5.1,10.233,10.233,0,0,1-3.152.337q-14.735.022-29.471.013a6.218,6.218,0,0,0-1.529.1A1.757,1.757,0,0,0,4.041,160.8a1.839,1.839,0,0,0,.792,2.159,2.707,2.707,0,0,0,1.33.394q15.246-.032,30.492-.03a11.139,11.139,0,0,1,2.766.266,5.331,5.331,0,0,1,2.923,2.045,5.705,5.705,0,0,1,.845,5.984,5.509,5.509,0,0,1-4.7,3.52c-2.568.28-5.149.043-7.724.114a9.261,9.261,0,0,0-1.707.123,2,2,0,0,0-1.259,1.588,1.975,1.975,0,0,0,1.769,2.29,22.156,22.156,0,0,0,3.056.015c3.481-.009,6.963-.008,10.444-.021.447,0,.7.066.655.629-.076,1-.082,2-.075,3,0,.41-.24.329-.466.329q-3.241,0-6.483,0c-2.421,0-4.843.036-7.262-.018a5.531,5.531,0,0,1-3.27-1.2,5.939,5.939,0,0,1-2.035-2.807,5.583,5.583,0,0,1,.084-3.971,6.145,6.145,0,0,1,2.646-3.166,5.416,5.416,0,0,1,2.678-.752c2.7-.022,5.4.011,8.1-.007a1.866,1.866,0,0,0,1.921-2.53,1.911,1.911,0,0,0-2.055-1.447q-3.812-.005-7.623,0-11.855,0-23.71,0a5.83,5.83,0,0,1-5.558-3.542,5.29,5.29,0,0,1,.105-5.149,5.828,5.828,0,0,1,5.363-3.263c5.142.039,10.284.012,15.426.012v.024" transform="translate(0 -59.893)" fill="#060607"/>
        <path id="Path_828027" data-name="Path 828027" d="M180.552,64.059a24,24,0,0,0-.008,3.007c.038.406-.051.645-.545.6a16.031,16.031,0,0,1-2.878-.191,5.97,5.97,0,0,1-3.912-3.21,5.917,5.917,0,0,1,5.58-8.579c5.062.008,10.124-.012,15.186.029,1.378.011,2.019-.534,2.3-1.273a1.952,1.952,0,0,0-1.773-2.726c-.717-.04-1.44.012-2.16.013-5.742,0-11.485-.025-17.227.021A6.155,6.155,0,0,1,169,47.684a5.169,5.169,0,0,1-.178-3.25,5.725,5.725,0,0,1,1.353-2.668,5.185,5.185,0,0,1,3.559-1.891c4.055-.223,8.114-.052,12.171-.089a3.257,3.257,0,0,0,1.726-.407c.694-.417.9-1.106.739-2.249a1.74,1.74,0,0,0-1.38-1.245,9.449,9.449,0,0,0-2.2-.085q-7.143-.01-14.285,0a5.727,5.727,0,0,1-4.683-2.547,5.342,5.342,0,0,1-1.2-3.523,5.977,5.977,0,0,1,5.3-5.767c.819-.081,1.634-.087,2.452-.086q14.556,0,29.112.008a3.712,3.712,0,0,0,1.764-.234,1.912,1.912,0,0,0,1.071-2.068,1.856,1.856,0,0,0-1.946-1.7,23.6,23.6,0,0,0-2.818.014c-9.5,0-19.008-.039-28.511.031a6.257,6.257,0,0,1-6.264-4.788,5.466,5.466,0,0,1,1.56-5.329,5.645,5.645,0,0,1,4.289-1.831c2.461-.008,4.922,0,7.383,0a4.892,4.892,0,0,0,1.075-.058A1.845,1.845,0,0,0,180.557,6.2a1.99,1.99,0,0,0-.915-1.938,2.049,2.049,0,0,0-1.061-.29c-.8-.045-1.6-.061-2.4-.063-2.561-.007-5.122-.012-7.683,0-1.157.006-2.314.042-3.47.089-.342.013-.428-.081-.42-.43.026-1.062.016-2.126-.008-3.188-.007-.3.075-.369.361-.369,4.4.008,8.8-.04,13.205.03a5.977,5.977,0,0,1,4.481,1.646,6.2,6.2,0,0,1,1.739,5.328,5.859,5.859,0,0,1-5.054,4.81c-2.914.233-5.833.013-8.747.118a2.182,2.182,0,0,0-2.023,2.02,2.152,2.152,0,0,0,2.041,1.946q15.816,0,31.633.011a5.606,5.606,0,0,1,5.314,3.224,5.971,5.971,0,0,1-3.767,8.532,7.878,7.878,0,0,1-2.127.181q-14.945-.014-29.89-.01c-.476,0-.952.054-1.426.083a1.942,1.942,0,0,0,.255,3.873q7.533.005,15.066,0a6.354,6.354,0,0,1,6.539,4.478,6.043,6.043,0,0,1-6.125,7.505c-3.6-.022-7.2-.01-10.8-.011a4.771,4.771,0,0,0-1.421.132,2.037,2.037,0,0,0-1.328,2.034,2.066,2.066,0,0,0,1.93,1.756c6.523,0,13.046-.018,19.568.011a5.817,5.817,0,0,1,5.681,3.467,5.958,5.958,0,0,1-3.058,8.062,5.5,5.5,0,0,1-2.264.479q-7.982-.007-15.965.026a1.788,1.788,0,0,0-1.841,1.969,1.886,1.886,0,0,0,1.893,1.89c.556-.049,1.121.012,1.68-.015.3-.015.386.128.4.379-.01.008-.029.02-.028.025a.488.488,0,0,0,.03.069" transform="translate(-85.306 0)" fill="#060607"/>
        <path id="Path_828028" data-name="Path 828028" d="M30.577,99.251c3.949-.262,6.109,3.226,6.072,6.088a6.007,6.007,0,0,1-6.018,5.829,6.158,6.158,0,0,1-5.853-6.508,5.763,5.763,0,0,1,5.8-5.409m.163,3.974a1.869,1.869,0,0,0-2,1.91,1.976,1.976,0,0,0,1.948,2.029,1.97,1.97,0,1,0,.052-3.939" transform="translate(-12.836 -51.434)" fill="#060607"/>
        <path id="Path_828029" data-name="Path 828029" d="M.116,171.115A5.93,5.93,0,0,1,6.371,165.2a5.97,5.97,0,0,1-.313,11.929,5.99,5.99,0,0,1-5.943-6.013m5.895-1.948a2,2,0,0,0-1.95,1.964,2.059,2.059,0,0,0,1.952,2.036,2,2,0,1,0,0-4" transform="translate(-0.056 -85.614)" fill="#060607"/>
        <path id="Path_828030" data-name="Path 828030" d="M217.726,138.215c.219,3.207-2.853,6.055-6.234,5.912a6.108,6.108,0,0,1-5.548-6.236,6.027,6.027,0,0,1,6.509-5.7,5.821,5.821,0,0,1,5.273,6.028m-5.841-2.035a1.829,1.829,0,0,0-1.984,1.958,1.989,1.989,0,1,0,3.977-.015,1.917,1.917,0,0,0-1.993-1.943" transform="translate(-106.736 -68.495)" fill="#060607"/>
        <path id="Path_828031" data-name="Path 828031" d="M28.342,237.155a5.868,5.868,0,0,1-5.968,6.013,5.968,5.968,0,0,1,.138-11.933,5.756,5.756,0,0,1,5.83,5.921m-3.842.119a2.014,2.014,0,0,0-1.982-2.06,1.953,1.953,0,0,0-1.971,1.844,1.985,1.985,0,0,0,1.989,2.14,1.949,1.949,0,0,0,1.963-1.923" transform="translate(-8.593 -119.847)" fill="#060607"/>
        <path id="Path_828032" data-name="Path 828032" d="M220.052.266a5.657,5.657,0,0,1,5.921,5.266,5.665,5.665,0,0,1-1.659,4.776,6.091,6.091,0,0,1-4.2,1.773c-3.25.122-6.024-3.076-5.912-6.145.112-3.094,2.669-5.9,5.855-5.67m-1.89,5.862a1.978,1.978,0,0,0,3.955.079,2.089,2.089,0,0,0-2.025-2.092,1.931,1.931,0,0,0-1.93,2.013" transform="translate(-111.015 -0.131)" fill="#060607"/>
        <path id="Path_828033" data-name="Path 828033" d="M242.392,72.09c.119,3.181-2.706,5.625-5.545,5.923-3.351.352-6.451-3.088-6.237-6.078a6.037,6.037,0,0,1,5.86-5.873,5.852,5.852,0,0,1,5.922,6.027m-5.882-1.953a1.955,1.955,0,0,0-2.041,1.936,2.122,2.122,0,0,0,2.056,2.03,2.2,2.2,0,0,0,2.04-1.943,1.959,1.959,0,0,0-2.055-2.023" transform="translate(-119.518 -34.24)" fill="#060607"/>
        <path id="Path_828034" data-name="Path 828034" d="M197.695,132.88a.487.487,0,0,1-.03-.069c0-.005.018-.017.028-.025a.058.058,0,0,1,0,.094" transform="translate(-102.448 -68.822)" fill="#acc869"/>
        <path id="Path_828035" data-name="Path 828035" d="M44.065,26.166a29.251,29.251,0,0,1-.58,4.4,17.315,17.315,0,0,1-1.977,4.79,21.451,21.451,0,0,1-1.627,2.269c-.122.158-.215.415-.418.376-.237-.045-.273-.327-.352-.544a14.677,14.677,0,0,0-1.467-2.978,12.2,12.2,0,0,0-3.632-3.689,10.3,10.3,0,0,0-1.152-.706c-.427-.2-.416-.349-.082-.644a9.638,9.638,0,0,0,2.875-9.671,10.043,10.043,0,0,0-8.211-7.337,9.324,9.324,0,0,0-7.869,2.434,9.876,9.876,0,0,0-2.891,4.585,9.486,9.486,0,0,0,1.685,8.767,20.869,20.869,0,0,0,1.46,1.589A14.211,14.211,0,0,0,13,37.786c-.156.43-.238.3-.452.051a17.254,17.254,0,0,1-2.588-3.945,18.469,18.469,0,0,1-1.633-9.453,15.623,15.623,0,0,1,1.95-6.5,19.771,19.771,0,0,1,4.3-5.5,16.333,16.333,0,0,1,4.765-2.874,16.387,16.387,0,0,1,6.344-1.25,17.933,17.933,0,0,1,7.744,1.519,19.207,19.207,0,0,1,6.4,4.84,18.18,18.18,0,0,1,3.683,7.277,23.222,23.222,0,0,1,.546,4.233v-.015" transform="translate(-4.281 -4.307)" fill="#dee2e7"/>
        <path id="Path_828036" data-name="Path 828036" d="M95.193,120.679a17.588,17.588,0,0,1-3.686-6.385,19.09,19.09,0,0,1-.8-6.437,17.418,17.418,0,0,1,4.673-11.215,16.364,16.364,0,0,1,9.99-5.472,19.644,19.644,0,0,1,6.225-.049,16.081,16.081,0,0,1,4.959,1.71,17.467,17.467,0,0,1,8.782,9.788,16.029,16.029,0,0,1,.987,5.5,19.091,19.091,0,0,1-.635,5.746,15.647,15.647,0,0,1-3.4,6.252c-.079.085-.106.217-.185.3s-.14.231-.281.168a.414.414,0,0,1-.2-.271,13.527,13.527,0,0,0-4.065-6.094,15,15,0,0,0-2.394-1.688c-.268-.155-.349-.243-.032-.487a9.383,9.383,0,0,0,1.934-2.346,8.15,8.15,0,0,0,1.3-5.486c-.395-3.963-2.278-7.024-6.035-8.552a9.69,9.69,0,0,0-12.8,5.134,9.4,9.4,0,0,0-.935,4.1,9.843,9.843,0,0,0,2.21,5.941,13.176,13.176,0,0,0,1.08,1.2c.266.266.218.419-.084.594a13.954,13.954,0,0,0-6.385,7.739,1.356,1.356,0,0,1-.135.266c-.018.029-.065.041-.085.053" transform="translate(-47.01 -47.111)" fill="#dee2e7"/>
        <path id="Path_828037" data-name="Path 828037" d="M172.989,191.565a16.944,16.944,0,0,1,4.252-11.8,17.418,17.418,0,0,1,9.909-6,17.922,17.922,0,0,1,5.507-.205,17,17,0,0,1,6.63,1.985,17.409,17.409,0,0,1,8.588,10.377,18.022,18.022,0,0,1,.711,3.812,17.706,17.706,0,0,1-2.484,10.917,22.21,22.21,0,0,1-1.613,2.241c-.211.272-.327.305-.5-.06-.119-.247-.229-.5-.336-.75a13.711,13.711,0,0,0-6.263-7.022c-.208-.11-.32-.128-.085-.337a9.629,9.629,0,0,0,3.23-5.905,9.731,9.731,0,0,0-5.687-10.47,10.035,10.035,0,0,0-8.06-.026,9.441,9.441,0,0,0-5.665,7.072,9.036,9.036,0,0,0,1.916,7.912c.4.493.676,1.088,1.289,1.411.292.154-.029.251-.149.324a15.372,15.372,0,0,0-3.216,2.478,14.5,14.5,0,0,0-2.079,2.745,14.217,14.217,0,0,0-1.162,2.543c-.144.421-.275.382-.54.078a17.715,17.715,0,0,1-2.946-4.918,14.619,14.619,0,0,1-1.243-6.4" transform="translate(-89.648 -89.893)" fill="#dee2e7"/>
        <path id="Path_828038" data-name="Path 828038" d="M34.959,69.713a16.065,16.065,0,0,1-5.1-.639,19.388,19.388,0,0,1-4.349-1.9.9.9,0,0,1-.44-1.144,10.244,10.244,0,0,1,5.491-7.283,8.882,8.882,0,0,1,4.973-.866,9.739,9.739,0,0,1,8.593,6.484,17.59,17.59,0,0,1,.477,1.923c.119.414-.115.666-.485.89A19.19,19.19,0,0,1,36.706,69.7a11.546,11.546,0,0,1-1.747.013" transform="translate(-12.968 -29.976)" fill="#acc869"/>
        <path id="Path_828039" data-name="Path 828039" d="M199.7,234.928a18.114,18.114,0,0,1-9.522-2.606.765.765,0,0,1-.468-.965,9.908,9.908,0,0,1,7.817-8.11,9.728,9.728,0,0,1,10.987,5.677,10.353,10.353,0,0,1,.78,2.725.541.541,0,0,1-.312.583,17.85,17.85,0,0,1-6.733,2.488c-.947.153-1.9.157-2.55.208" transform="translate(-98.308 -115.614)" fill="#31b5e6"/>
        <path id="Path_828040" data-name="Path 828040" d="M117.323,152.415a19.24,19.24,0,0,1-9.428-2.647c-.6-.357-.558-.752-.425-1.335a10.2,10.2,0,0,1,4.254-6.355,9.148,9.148,0,0,1,5.982-1.6,9.767,9.767,0,0,1,6.478,2.878,10.827,10.827,0,0,1,2.82,5.7c.07.341-.134.464-.362.6a18.179,18.179,0,0,1-6.13,2.377c-1.124.217-2.267.279-3.189.37" transform="translate(-55.658 -72.797)" fill="#acc869"/>
        <path id="Path_828041" data-name="Path 828041" d="M115.684,174.882c-2.358,0-4.715-.01-7.073.008-.461,0-.639-.145-.766-.608a21.994,21.994,0,0,1-.789-5.182c-.021-.689.052-.708.646-.4a21.5,21.5,0,0,0,4.431,1.614,18.689,18.689,0,0,0,3.583.572,20.592,20.592,0,0,0,3.578-.152,21.286,21.286,0,0,0,7.193-2.1c.3-.15.455-.042.44.345a20.765,20.765,0,0,1-.616,4.739c-.322,1.171-.33,1.16-1.554,1.158q-4.536-.007-9.073,0v.008" transform="translate(-55.484 -87.337)" fill="#e8675a"/>
        <path id="Path_828042" data-name="Path 828042" d="M116.492,74.3c2.459,0,4.919.019,7.378-.014.566-.008,1.116.266,1.7.028.2-.081.474.144.529.382a17.463,17.463,0,0,1,.75,5.151,1.72,1.72,0,0,1-.006.18c-.074.4-.194.632-.682.38a20.84,20.84,0,0,0-4.852-1.618,21.452,21.452,0,0,0-5.973-.392,19.335,19.335,0,0,0-7.5,1.977c-.755.36-.814.335-.779-.5a21.191,21.191,0,0,1,.856-5.2c.112-.378.5-.382.844-.381q3.869.008,7.738,0Z" transform="translate(-55.481 -38.5)" fill="#e8675a"/>
        <path id="Path_828043" data-name="Path 828043" d="M117.206,243.47q-4.619,0-9.238,0c-.51,0-.665-.1-.568-.7a27.956,27.956,0,0,1,.64-2.793.537.537,0,0,1,.564-.483c.16-.007.32-.006.48-.006q8.188,0,16.376,0c.526,0,.762.139.894.693.224.935.412,1.876.631,2.811.083.357-.025.512-.421.51-3.119-.012-6.238-.006-9.357-.006v-.025" transform="translate(-55.651 -124.124)" fill="#e8675a"/>
        <path id="Path_828044" data-name="Path 828044" d="M117.111,8.267c3.04,0,6.079.017,9.119-.015.6-.006.732.19.619.723q-.314,1.47-.595,2.947a.327.327,0,0,1-.312.3,4.174,4.174,0,0,1-.478.024q-8.369,0-16.737.011a.668.668,0,0,1-.779-.6c-.254-.961-.435-1.936-.651-2.9-.107-.478.212-.5.577-.5,3.08.009,6.159,0,9.239,0Z" transform="translate(-55.599 -4.277)" fill="#e8675a"/>
        <path id="Path_828045" data-name="Path 828045" d="M120.173,223.327q-3.241,0-6.482,0c-.173,0-.416.076-.5-.083s.035-.4.154-.549c1.255-1.551,2.317-3.266,4.009-4.437a13.068,13.068,0,0,0,2.384-2.081.47.47,0,0,1,.773-.005c.7.733,1.557,1.286,2.31,1.962a22.273,22.273,0,0,1,4.121,4.607c.092.146.279.292.2.475-.089.207-.319.107-.486.107q-3.241.009-6.482,0Z" transform="translate(-58.649 -111.935)" fill="#e8675a"/>
        <path id="Path_828046" data-name="Path 828046" d="M120.191,24.777c2.139,0,4.278,0,6.417,0,.635,0,.628.014.3.567a21.478,21.478,0,0,1-4.934,5.348,8.607,8.607,0,0,0-1.409,1.167c-.2.262-.547.158-.8-.052a29.034,29.034,0,0,1-6.25-6.262c-.011-.016-.032-.027-.04-.044-.105-.209-.338-.464-.284-.617.085-.241.418-.115.641-.116,2.119-.008,4.238,0,6.357,0Z" transform="translate(-58.663 -12.822)" fill="#e8675a"/>
        <path id="Path_828047" data-name="Path 828047" d="M127.3,58.226h-1.743q-5.971,0-11.943,0c-.17,0-.4.1-.5-.075s.108-.315.2-.464a19.543,19.543,0,0,1,4.71-5.053c.558-.455,1.1-.931,1.631-1.418.3-.272.517-.335.864-.032,1.1.959,2.255,1.845,3.337,2.819a20.079,20.079,0,0,1,3.446,4.226" transform="translate(-58.611 -26.423)" fill="#e8675a"/>
        <path id="Path_828048" data-name="Path 828048" d="M112.872,189.977h.834q6.3,0,12.594,0c.251,0,.611-.118.73.08.14.235-.2.433-.33.642-1.63,2.567-4,4.4-6.273,6.323-.266.225-.5.23-.821-.04a36.026,36.026,0,0,1-5.762-5.557c-.324-.421-.593-.883-.971-1.451" transform="translate(-58.501 -98.447)" fill="#e8675a"/>
        <path id="Path_828049" data-name="Path 828049" d="M44.784,41.418a4.925,4.925,0,0,1-2.271,2.867,5.761,5.761,0,0,1-4.186.942,6.846,6.846,0,0,1-3.1-1.554c-.71-.552-.877-1.425-1.409-2.073-.119-.145-.045-.3.193-.3.34.01.68.013,1.019.014l9.418.018c.087.13.218.074.335.081" transform="translate(-17.499 -21.408)" fill="#dee2e7"/>
        <path id="Path_828050" data-name="Path 828050" d="M33.752,28.719a5.9,5.9,0,0,1,4.2-3.74c.234-.06.389-.263.684-.225a8.047,8.047,0,0,1,4.341,1.372,10.3,10.3,0,0,1,1.788,2c.143.194.382.593-.2.594-3.581.007-7.161,0-10.813,0" transform="translate(-17.493 -12.827)" fill="#e8675a"/>
        <path id="Path_828051" data-name="Path 828051" d="M203.983,206.47h4.973c.524,0,.62.15.369.639a6.094,6.094,0,0,1-2.633,2.621,5.721,5.721,0,0,1-7.847-2.507c-.045-.089-.078-.211-.152-.251a.3.3,0,0,1-.157-.4c.073-.212.276-.108.414-.109,1.677-.009,3.355-.006,5.032-.006Z" transform="translate(-102.888 -106.997)" fill="#dee2e7"/>
        <path id="Path_828052" data-name="Path 828052" d="M116.294,123.958h5.154c1.76,0,3.519.009,5.279-.01.5-.005.581.118.351.575a5.959,5.959,0,0,1-7.1,3.065,5.774,5.774,0,0,1-3.674-3.388.958.958,0,0,1-.014-.241" transform="translate(-60.274 -64.242)" fill="#dee2e7"/>
        <path id="Path_828053" data-name="Path 828053" d="M127.258,111.365c-3.395,0-6.737,0-10.08,0-.8,0-.887-.1-.464-.763a5.791,5.791,0,0,1,10.544.764" transform="translate(-60.363 -55.745)" fill="#acc869"/>
        <path id="Path_828054" data-name="Path 828054" d="M209.722,193.906h-4.03c-2.119,0-4.238,0-6.357.017-.5.005-.535-.122-.309-.533a5.614,5.614,0,0,1,5.5-3.251,5.941,5.941,0,0,1,5.2,3.767" transform="translate(-103.084 -98.541)" fill="#acc869"/>
        <path id="Path_828055" data-name="Path 828055" d="M56.281,41.4c-.117-.007-.248.049-.335-.081.124-.026.266-.124.335.081" transform="translate(-28.996 -21.393)" fill="#acc869"/>
        <path id="Path_828056" data-name="Path 828056" d="M82.587,45.362v.015c.013-.01.029-.032.037-.029.054.019.052.04,0,.049-.009,0-.022-.023-.032-.035" transform="translate(-42.804 -23.503)" fill="#acc869"/>
        <path id="Path_828057" data-name="Path 828057" d="M35.016,107.515a1.97,1.97,0,1,1-.052,3.939,1.976,1.976,0,0,1-1.948-2.029,1.869,1.869,0,0,1,2-1.91" transform="translate(-17.112 -55.724)" fill="#e8675a"/>
        <path id="Path_828058" data-name="Path 828058" d="M10.263,173.451a2,2,0,1,1,0,4,2.059,2.059,0,0,1-1.952-2.036,2,2,0,0,1,1.95-1.964" transform="translate(-4.308 -89.898)" fill="#e8675a"/>
        <path id="Path_828059" data-name="Path 828059" d="M216.147,140.511a1.917,1.917,0,0,1,1.993,1.943,1.989,1.989,0,1,1-3.977.015,1.829,1.829,0,0,1,1.984-1.958" transform="translate(-110.999 -72.826)" fill="#e8675a"/>
        <path id="Path_828060" data-name="Path 828060" d="M28.769,241.556a1.949,1.949,0,0,1-1.963,1.923,1.985,1.985,0,0,1-1.989-2.14,1.953,1.953,0,0,1,1.971-1.843,2.014,2.014,0,0,1,1.982,2.06" transform="translate(-12.862 -124.129)" fill="#e8675a"/>
        <path id="Path_828061" data-name="Path 828061" d="M222.431,10.285a1.932,1.932,0,0,1,1.93-2.013,2.089,2.089,0,0,1,2.025,2.092,1.978,1.978,0,0,1-3.955-.079" transform="translate(-115.284 -4.287)" fill="#e8675a"/>
        <path id="Path_828062" data-name="Path 828062" d="M240.673,74.52a1.96,1.96,0,0,1,2.054,2.023,2.2,2.2,0,0,1-2.04,1.943,2.122,2.122,0,0,1-2.056-2.03,1.955,1.955,0,0,1,2.041-1.936" transform="translate(-123.681 -38.623)" fill="#e8675a"/>
      </g>
    </g>
  </g>
</svg>
