<svg xmlns="http://www.w3.org/2000/svg" xmlns:xlink="http://www.w3.org/1999/xlink" width="78" height="78" viewBox="0 0 78 78">
  <defs>
    <clipPath id="clip-path">
      <rect id="Rectangle_377952" data-name="Rectangle 377952" width="78" height="78" transform="translate(417 1892)" fill="#fff" stroke="#707070" stroke-width="1"/>
    </clipPath>
    <clipPath id="clip-path-2">
      <rect id="Rectangle_377951" data-name="Rectangle 377951" width="70" height="78" fill="none"/>
    </clipPath>
  </defs>
  <g id="Mask_Group_394" data-name="Mask Group 394" transform="translate(-417 -1892)" clip-path="url(#clip-path)">
    <g id="Group_1073837" data-name="Group 1073837" transform="translate(421 1892)">
      <g id="Group_1073836" data-name="Group 1073836" clip-path="url(#clip-path-2)">
        <path id="Path_823584" data-name="Path 823584" d="M5.611,67.806c-.183.087-.362.182-.55.26a1.119,1.119,0,0,1-1.469-.677,1.029,1.029,0,0,1,.427-1.307c.792-.557,1.6-1.092,2.419-1.61C7.487,63.8,8.532,63.125,9.6,62.483c.679-.407,1.341-.841,2.013-1.259a17.754,17.754,0,0,0,2.857-2.242,12.387,12.387,0,0,0,2.166-3,5.329,5.329,0,0,1,1.131-1.376c.245-.215.255-.328-.036-.513a24.48,24.48,0,0,1-2.969-2.184c-.393-.341-.788-.681-1.157-1.046a.412.412,0,0,0-.452-.125,7.7,7.7,0,0,1-3.161.275,6.115,6.115,0,0,1-1.465-.3,12.323,12.323,0,0,1-2.12-.812,17.119,17.119,0,0,1-2.521-1.393c-.227-.167-.357-.162-.541.05-.39.451-.747.925-1.093,1.409a1.458,1.458,0,0,1-1.2.695A1.118,1.118,0,0,1,.1,49.075a8.479,8.479,0,0,1,.962-1.329c.382-.454.774-.9,1.149-1.357a.471.471,0,0,0,.086-.431,3.56,3.56,0,0,1,.216-1.944,15.491,15.491,0,0,1,.832-1.966,13.232,13.232,0,0,1,1.476-2.1,6.079,6.079,0,0,1,1.243-1.221c.149-.1.049-.294.011-.408a14.73,14.73,0,0,1-.59-2.619c-.1-.723-.206-1.452-.27-2.185-.094-1.074-.031-2.145-.047-3.215a15.681,15.681,0,0,1,.2-2.153c.131-1.045.372-2.066.587-3.09a17.985,17.985,0,0,1,.861-2.814,23.719,23.719,0,0,1,1.631-3.432,28.386,28.386,0,0,1,1.566-2.479c.177-.24.106-.348-.109-.514a7.687,7.687,0,0,1-1.775-1.57,1.839,1.839,0,0,1,1.188-2.816c1.518-.165,2.109-1.253,2.537-2.5a11.243,11.243,0,0,1,2-3.705A6.924,6.924,0,0,1,17.6,2.979a8.88,8.88,0,0,1,2.854-.3,18,18,0,0,1,3.831.357c.239.072.318-.088.37-.273.153-.547.321-1.091.457-1.642C25.3.358,25.664,0,26.293,0a1.1,1.1,0,0,1,1.136,1.392c-.26.933-.567,1.853-.865,2.775-.092.285.074.95.326,1.057a1.126,1.126,0,0,0,.667-.057A24.633,24.633,0,0,1,30.4,4.8a20.961,20.961,0,0,1,3.761-.067A34.863,34.863,0,0,1,38.39,5.3c1,.208,1.982.485,2.957.765a14.4,14.4,0,0,1,1.695.64c1.054.455,2.11.9,3.12,1.45a25.71,25.71,0,0,1,2.954,1.954c.041.03.073.074.116.1.927.586.886,1.059.506,1.886a1.434,1.434,0,0,1-1.9-.114A24.031,24.031,0,0,0,36.576,7.3c-.276-.038-.414.014-.522.23-.388.779-.771,1.559-1.16,2.337-.37.739-.733,1.481-1.121,2.211-.25.472-.241.565.214.881.169.117.442.133.537.243a2.4,2.4,0,0,0,.641.466,2.748,2.748,0,0,1,1.442,1.845,8.459,8.459,0,0,1,.125,1.392c.008.513.08,1.026.132,1.538a2.969,2.969,0,0,1-.855,2.71,6.8,6.8,0,0,1-1.673,1.011c-1.225.6-2.437,1.219-3.654,1.832-.652.329-1.315.64-1.951,1a3.532,3.532,0,0,1-2.782.438,7.543,7.543,0,0,0-1.04-.35,4.674,4.674,0,0,1-1.192-.348c-.721-.3-1.483-.45-2.215-.7a.556.556,0,0,0-.7.293c-.812,1.378-1.661,2.735-2.494,4.1a.781.781,0,0,0-.065.71c.2.593.534,1.131.738,1.727.259.758.591,1.493.905,2.232.071.167.166.383.311.451a11.577,11.577,0,0,1,1.4.846c.161.106.441.149.5.231a3.719,3.719,0,0,0,.969.706.459.459,0,0,0,.689-.1c.327-.355.662-.7,1.01-1.04a2.994,2.994,0,0,1,3.192-.856c.658.214,1.331.385,1.982.615a.62.62,0,0,0,.83-.3c.407-.631.824-1.256,1.242-1.881.628-.939,1.247-1.883,1.895-2.809a2.231,2.231,0,0,1,1.528-.889,10.983,10.983,0,0,1,2.057-.063,2.88,2.88,0,0,1,2.32,1.006,10.112,10.112,0,0,1,.689,1.067c.58.92,1.152,1.844,1.731,2.764a2.375,2.375,0,0,1,.122,2.39c-.668,1.394-1.4,2.759-2.146,4.115a2.733,2.733,0,0,1-1.756,1.317c-.353.1-.734.072-1.051.188-.858.315-1.762.435-2.632.692-.657.194-1.333.326-2,.494a.746.746,0,0,0-.572.41c-.226.526-.457,1.051-.711,1.566a.52.52,0,0,0,.22.747c1.689,1.154,3.384,2.3,5.059,3.474a.96.96,0,0,0,1.067.046c.08-.037.147-.1.227-.14,1.2-.536,2.4-1.06,3.6-1.612a1.176,1.176,0,0,0,.542-.378,30.13,30.13,0,0,1,1.844-2.758,2.142,2.142,0,0,1,.991-.665,3.718,3.718,0,0,1,2.586.167c.916.354,1.869.615,2.8.921,1.008.33,2.016.66,3.02,1a.369.369,0,0,0,.513-.165,25.842,25.842,0,0,0,3.078-6.965.27.27,0,0,0-.157-.369c-.3-.155-.593-.316-.874-.5a9.094,9.094,0,0,1-2.573-2.356,1.078,1.078,0,0,1,.618-1.708,1.146,1.146,0,0,1,1.265.463,8.559,8.559,0,0,0,3.01,2.306,1.33,1.33,0,0,0,.745.234,1.623,1.623,0,0,0-.232-.5,15.838,15.838,0,0,1-1.5-3.048,17.4,17.4,0,0,1-.952-4.039,8.57,8.57,0,0,1-.1-1.547,1.2,1.2,0,0,1,1.1-1.079c.735-.053,1.2.4,1.233,1.271a14.049,14.049,0,0,0,.391,2.977,14.972,14.972,0,0,0,2.633,5.515c.195.255.324.251.465-.015a18.057,18.057,0,0,0,1.528-3.369,5.444,5.444,0,0,0-.265-4.338,8.247,8.247,0,0,0-2.042-2.284,5.558,5.558,0,0,1-2.394-4.4c0-.187-.11-.184-.226-.112a10.543,10.543,0,0,0-2.241,1.7,9.74,9.74,0,0,0-2.528,6.121,3.064,3.064,0,0,1-.155.883,1.188,1.188,0,0,1-1.222.633A1.161,1.161,0,0,1,51.625,29a7.724,7.724,0,0,1,.17-2.03,14.588,14.588,0,0,1,.785-2.644,11.3,11.3,0,0,1,2.4-3.53.316.316,0,0,0,.057-.462c-.4-.653-.783-1.311-1.175-1.966-.655-1.1-1.539-2.031-2.262-3.079a.91.91,0,0,1,.088-1.128c.081-.1.246-.146.225-.315a1.049,1.049,0,0,1,.363-.089,1.114,1.114,0,0,1,1.1.283,19.817,19.817,0,0,1,1.717,2.145,23.76,23.76,0,0,1,1.719,2.7c.1.192.189.211.39.122a12.2,12.2,0,0,1,1.789-.8,1.86,1.86,0,0,1,2.375,1.443,3.656,3.656,0,0,1-.08,1.284,2.254,2.254,0,0,0,.858,2.016,20.365,20.365,0,0,1,3.026,3.193,6.194,6.194,0,0,1,.936,2.152,8.668,8.668,0,0,1-.283,4.177,15.889,15.889,0,0,1-1.942,4.241c-.034.054-.068.109-.107.159-.319.407-.317.4.084.713.479.371.933.769,1.445,1.1a1.065,1.065,0,0,1,.46,1.333,1.186,1.186,0,0,1-1.253.705,1.213,1.213,0,0,1-.581-.271,14.781,14.781,0,0,1-2.32-1.833.461.461,0,0,0-.389-.109,4.59,4.59,0,0,1-1.85-.222c-.138-.06-.165.017-.2.134-.225.711-.493,1.411-.686,2.13-.127.473-.372.888-.54,1.338a22.1,22.1,0,0,1-2.756,4.928c-.176.251-.174.356.119.535a3.845,3.845,0,0,1,1.655,2.016c.1.292.192.359.528.289a3.99,3.99,0,0,1,4.682,2.612,4.244,4.244,0,0,1,.27,1.777c-.035.327.113.255.3.157a9.775,9.775,0,0,1,2.319-.919,4.448,4.448,0,0,1,1.822.073,3.691,3.691,0,0,1,2.894,2.59,4.031,4.031,0,0,1-2.09,4.931c-.913.44-1.78.968-2.674,1.446-1.334.714-2.676,1.415-4.01,2.129-.861.461-1.711.944-2.573,1.4-1.261.672-2.53,1.329-3.793,2-.671.356-1.333.731-2,1.087-.793.419-1.606.8-2.384,1.247a9.813,9.813,0,0,1-2.112.981,6.483,6.483,0,0,1-1.876.3c-.93-.008-1.861,0-2.788-.085-1.164-.107-2.331-.167-3.5-.234-.82-.047-1.64-.108-2.46-.153-1.249-.067-2.494-.208-3.743-.287l-1.31-.085c-.924-.062-1.851-.088-2.774-.157-1.269-.094-2.535-.224-3.81-.23a.871.871,0,0,0-.566.185q-3.444,2.589-6.9,5.165c-.983.732-1.979,1.446-2.971,2.167a1.125,1.125,0,0,1-1.615-1.531.666.666,0,0,0,.06-.1c.234-.18.465-.362.7-.539Q19.4,72,24.2,68.389a2.081,2.081,0,0,1,1.532-.507c.242.025.483.054.725.075,1.061.094,2.123.215,3.186.223,1.394.01,2.773.2,4.163.249,1.254.046,2.506.17,3.758.281.946.083,1.9.1,2.852.159.976.058,1.949.151,2.928.188.487.018.982,0,1.467.065a5.978,5.978,0,0,0,3.775-.57q6.827-3.68,13.672-7.329c1.466-.785,2.935-1.567,4.4-2.358a1.707,1.707,0,0,0,1.008-1.81,1.831,1.831,0,0,0-2.748-1.314,2.633,2.633,0,0,0-.253.081q-2.642,1.148-5.283,2.3c-1.072.465-2.143.931-3.22,1.385a.66.66,0,0,0-.5.749,1.229,1.229,0,0,1-.142.692,4,4,0,0,1-.128.434,5.225,5.225,0,0,1-4.808,3.225c-.62.021-1.242.011-1.863.016-3.307.018-6.615-.1-9.922.059a18.232,18.232,0,0,0-2.926.37c-.363.077-.726.275-1.121.115a1.256,1.256,0,0,1-.841-1.288,1.218,1.218,0,0,1,1.024-.945,20.345,20.345,0,0,1,4.2-.563c.614,0,1.237-.054,1.855-.056,3.13-.012,6.26,0,9.39-.016A2.888,2.888,0,0,0,52.958,61a2.684,2.684,0,0,0-1.552-4.039,6.8,6.8,0,0,0-1.212-.141c-2.767,0-5.533-.018-8.3.009a14.626,14.626,0,0,1-4.265-.593c-1.285-.375-2.545-.834-3.828-1.215-1.626-.483-3.192-1.155-4.861-1.5a5.534,5.534,0,0,0-2.511,0c-1.126.289-2.24.624-3.357.947a16.848,16.848,0,0,0-2.213.706,5.854,5.854,0,0,0-2.687,2.705,12.809,12.809,0,0,1-3.65,4.16c-2.04,1.487-4.243,2.736-6.358,4.114-.85.554-1.737,1.056-2.554,1.659M15.741,38.4c.111-.1.225-.205.334-.311.386-.374.6-.373,1.127-.2a9.555,9.555,0,0,1,1.977,1.1,8.581,8.581,0,0,1,2.08,1.866,11.581,11.581,0,0,1,1.608,2.616,1.952,1.952,0,0,1,.262.93,1.912,1.912,0,0,1-2.483,1.857,2.772,2.772,0,0,0-2.665.949,12.8,12.8,0,0,1-1.995,1.978c-.46.346-.5.466-.051.828.532.426,1.06.855,1.61,1.262.626.463,1.3.849,1.936,1.3a1.37,1.37,0,0,0,1.416.18,26.268,26.268,0,0,1,2.543-.731c.512-.144,1.036-.261,1.539-.416a9.529,9.529,0,0,1,2.7-.518,10.03,10.03,0,0,1,3.2.585c1.139.359,2.264.75,3.383,1.166.6.223,1.22.423,1.834.6.758.221,1.512.476,2.289.638.677.14,1.356.281,2.041.374a3.48,3.48,0,0,0,1.951-.168,29.667,29.667,0,0,0,4.324-2.29,28.284,28.284,0,0,0,5.433-4.829c.221-.249.206-.341-.134-.442-.911-.27-1.81-.577-2.713-.871q-1.447-.472-2.892-.948a.588.588,0,0,0-.79.257c-.387.631-.831,1.229-1.209,1.865a3.757,3.757,0,0,1-1.986,1.689,7.506,7.506,0,0,0-1.191.483,30.994,30.994,0,0,1-2.909,1.376,2.418,2.418,0,0,1-2.472-.259c-1.309-.887-2.61-1.784-3.914-2.678A17.047,17.047,0,0,1,30.03,46.3a2.442,2.442,0,0,1-.877-2.48,10.851,10.851,0,0,1,1.071-2.6,2.648,2.648,0,0,1,1.649-1.3c.738-.229,1.492-.426,2.24-.583,1.109-.233,2.194-.566,3.315-.744a1.135,1.135,0,0,0,.937-.645c.587-1.192,1.217-2.364,1.849-3.534a.473.473,0,0,0-.021-.53c-.456-.732-.9-1.47-1.382-2.184a2.275,2.275,0,0,1-.491-.836c-.069-.533-.437-.521-.8-.567-.556-.07-1.1.092-1.661.062-.172-.009-.236.122-.313.241-.86,1.313-1.749,2.608-2.573,3.943a3.991,3.991,0,0,1-1.738,1.6,1.912,1.912,0,0,1-1.316.129,17.1,17.1,0,0,1-2.333-.666.988.988,0,0,0-1.269.325c-.05.057-.095.119-.145.176A5.76,5.76,0,0,1,24.7,37.419a2.792,2.792,0,0,1-3.021-.235c-.8-.534-1.58-1.111-2.418-1.585a3.818,3.818,0,0,1-1.77-2.173c-.38-1.1-.858-2.166-1.328-3.232a2.79,2.79,0,0,1,.01-2.709c.165-.28.341-.553.511-.829.752-1.221,1.468-2.465,2.235-3.677a2.664,2.664,0,0,1,2.6-1.316,5.83,5.83,0,0,1,1.374.377c1.051.345,2.112.664,3.165,1a1.44,1.44,0,0,0,1.252.042c.919-.455,1.863-.878,2.761-1.366.51-.278,1.047-.5,1.555-.783.814-.448,1.672-.82,2.512-1.222a.6.6,0,0,0,.414-.645q-.11-1.376-.156-2.757a.765.765,0,0,0-.414-.712c-.533-.312-1.07-.623-1.572-.979a2.6,2.6,0,0,1-.842-3.264C32.2,10,32.9,8.668,33.587,7.33c.157-.306.06-.351-.251-.354a29.048,29.048,0,0,0-3.555.186c-.766.085-1.527.2-2.287.319-.177.027-.3.084-.288.311a10.986,10.986,0,0,1-.141,1.647,9.041,9.041,0,0,1-1.926,4.728c-1.948,2.442-4.654,3.409-7.687,3.676a10.914,10.914,0,0,1-2.8-.114,18.114,18.114,0,0,1-1.871-.442c-.336-.095-.511-.155-.732.152a22.947,22.947,0,0,0-3.458,6.926c-.182.614-.335,1.249-.495,1.87a18.207,18.207,0,0,0-.5,3.011,25.342,25.342,0,0,0,.036,4.827c.038.362.164.714.183,1.058a13.233,13.233,0,0,0,.349,2.038c.045.211.12.239.313.163a8.682,8.682,0,0,1,2.529-.619c1.172-.086,1.5-.114,1.921,1.089,0,.011,0,.025,0,.038a1.283,1.283,0,0,1-1.251,1.131c-.243.023-.487.05-.728.072a6.405,6.405,0,0,0-3.758,1.74,8.573,8.573,0,0,0-1.984,2.8c-.05.105-.216.21-.083.327.1.091.24.012.352-.064A14.25,14.25,0,0,1,8,42.565a15.687,15.687,0,0,1,3.312-.975,15.41,15.41,0,0,1,3.154-.319,1.162,1.162,0,0,1,1.134,1.17,1.255,1.255,0,0,1-1.142,1.12,12.6,12.6,0,0,0-2.61.243,14.924,14.924,0,0,0-6.211,2.67c-.348.258-.349.292.039.506a16.431,16.431,0,0,0,2.671,1.233,8.016,8.016,0,0,0,3.209.537A5.1,5.1,0,0,0,14.8,47.2c.615-.6,1.19-1.243,1.806-1.843a4.339,4.339,0,0,1,3.353-1.428c.143.008.333.08.424-.094s-.065-.285-.14-.41a9.006,9.006,0,0,0-3.778-3.457,1.184,1.184,0,0,1-.728-1.568M24.834,7.564a1,1,0,0,0-.119.109,16.493,16.493,0,0,1-4.384,4.28A16.115,16.115,0,0,1,17.2,13.636a1.114,1.114,0,0,1-1.4-.556,1.052,1.052,0,0,1,.382-1.406,2.978,2.978,0,0,1,.472-.265,15.323,15.323,0,0,0,5.477-4.123,15.708,15.708,0,0,0,1.246-1.75c.091-.144.252-.395-.1-.413a18.2,18.2,0,0,0-1.858-.179,21,21,0,0,0-2.4.072,5.267,5.267,0,0,0-4.059,2.558,23.043,23.043,0,0,0-1.226,2.878,4.709,4.709,0,0,1-2.848,2.891c-.276.1-.252.2-.047.356a8.923,8.923,0,0,0,5.206,1.873,11.8,11.8,0,0,0,3.678-.483c3.851-1.107,5.247-4.324,5.1-7.527M60.115,53.556a1.8,1.8,0,0,0-2.275-1.647,3.526,3.526,0,0,0-1.382.906c-.981.766-1.861,1.651-2.874,2.381-.143.1-.137.155.014.272A7.052,7.052,0,0,1,54.685,56.5c.236.283.337.8.661.839s.7-.27,1.063-.407a6.843,6.843,0,0,0,3.116-1.979,2.058,2.058,0,0,0,.59-1.393m-13.132.909a1.418,1.418,0,0,0,.238.065c1.154,0,2.308,0,3.463.01a.462.462,0,0,0,.344-.141A12.581,12.581,0,0,1,52,53.575c.906-.718,1.776-1.48,2.658-2.227.1-.081.217-.148.226-.293a1.772,1.772,0,0,0-.83-1.827c-.435-.268-.489-.252-.838.133a26.393,26.393,0,0,1-4.926,4.286c-.408.272-.84.508-1.306.818" transform="translate(0 0.001)"/>
        <path id="Path_823585" data-name="Path 823585" d="M92.05,30.375c.021.168-.143.219-.225.314a.91.91,0,0,0-.088,1.129C92.461,32.865,93.344,33.8,94,34.9c.392.655.778,1.314,1.175,1.966a.316.316,0,0,1-.057.462,11.3,11.3,0,0,0-2.4,3.53,14.588,14.588,0,0,0-.785,2.644,7.724,7.724,0,0,0-.17,2.03,1.161,1.161,0,0,0,.942,1.122,1.187,1.187,0,0,0,1.222-.633,3.054,3.054,0,0,0,.155-.883,9.742,9.742,0,0,1,2.528-6.121,10.551,10.551,0,0,1,2.241-1.7c.116-.072.228-.075.226.112a5.558,5.558,0,0,0,2.394,4.4,8.247,8.247,0,0,1,2.042,2.284,5.443,5.443,0,0,1,.265,4.338,18.056,18.056,0,0,1-1.528,3.369c-.141.265-.27.269-.465.015a14.972,14.972,0,0,1-2.633-5.515,14.049,14.049,0,0,1-.391-2.977c-.029-.874-.5-1.324-1.233-1.271a1.2,1.2,0,0,0-1.1,1.079,8.57,8.57,0,0,0,.1,1.547,17.4,17.4,0,0,0,.952,4.039,15.825,15.825,0,0,0,1.5,3.048,1.628,1.628,0,0,1,.232.5,1.33,1.33,0,0,1-.745-.234,8.559,8.559,0,0,1-3.01-2.306,1.146,1.146,0,0,0-1.265-.463,1.078,1.078,0,0,0-.618,1.708,9.1,9.1,0,0,0,2.573,2.356c.281.182.576.343.874.5a.27.27,0,0,1,.157.369,25.832,25.832,0,0,1-3.078,6.965.369.369,0,0,1-.513.165c-1-.341-2.012-.671-3.02-1-.936-.306-1.889-.567-2.8-.921a3.718,3.718,0,0,0-2.586-.167,2.139,2.139,0,0,0-.991.665,30.2,30.2,0,0,0-1.844,2.758,1.176,1.176,0,0,1-.542.378c-1.191.552-2.4,1.076-3.6,1.612-.08.036-.147.1-.227.14a.96.96,0,0,1-1.067-.046c-1.674-1.174-3.369-2.32-5.059-3.474a.52.52,0,0,1-.22-.747c.254-.514.485-1.039.711-1.565a.746.746,0,0,1,.572-.41c.666-.168,1.342-.3,2-.494.869-.257,1.774-.377,2.632-.692.317-.117.7-.091,1.05-.188a2.733,2.733,0,0,0,1.756-1.317c.745-1.356,1.478-2.721,2.146-4.115a2.375,2.375,0,0,0-.122-2.39c-.579-.92-1.151-1.844-1.731-2.764a10.061,10.061,0,0,0-.689-1.067,2.88,2.88,0,0,0-2.32-1.006,10.982,10.982,0,0,0-2.057.063,2.232,2.232,0,0,0-1.528.889c-.648.926-1.267,1.87-1.895,2.809-.418.624-.835,1.249-1.241,1.881a.62.62,0,0,1-.831.3c-.651-.23-1.324-.4-1.982-.615a2.994,2.994,0,0,0-3.192.856c-.348.335-.683.685-1.01,1.04a.459.459,0,0,1-.689.1,3.719,3.719,0,0,1-.969-.706c-.061-.082-.341-.126-.5-.231a11.552,11.552,0,0,0-1.4-.846c-.145-.068-.24-.284-.311-.451-.315-.739-.646-1.474-.905-2.232-.2-.6-.533-1.134-.738-1.727a.78.78,0,0,1,.065-.71c.833-1.366,1.682-2.723,2.494-4.1a.556.556,0,0,1,.7-.293c.731.251,1.493.4,2.215.7a4.663,4.663,0,0,0,1.192.349,7.542,7.542,0,0,1,1.04.35,3.532,3.532,0,0,0,2.782-.438c.637-.356,1.3-.667,1.951-1,1.217-.613,2.429-1.236,3.654-1.832a6.8,6.8,0,0,0,1.673-1.011A2.969,2.969,0,0,0,77,34.97c-.052-.512-.124-1.025-.132-1.538a8.459,8.459,0,0,0-.125-1.392A2.747,2.747,0,0,0,75.3,30.195a2.4,2.4,0,0,1-.641-.466c-.1-.11-.367-.126-.537-.243-.456-.315-.465-.409-.214-.881.388-.73.751-1.472,1.121-2.211.389-.778.772-1.559,1.16-2.337.108-.216.246-.268.522-.23a24.029,24.029,0,0,1,11.259,4.684,1.434,1.434,0,0,0,1.9.114,8.9,8.9,0,0,1,1.592,1.349,1.267,1.267,0,0,0,.585.4" transform="translate(-40.134 -16.526)" fill="#98d53a"/>
        <path id="Path_823586" data-name="Path 823586" d="M17.99,188.812c.817-.6,1.7-1.1,2.554-1.659,2.115-1.378,4.318-2.627,6.358-4.114a12.815,12.815,0,0,0,3.65-4.16,5.852,5.852,0,0,1,2.687-2.706,16.848,16.848,0,0,1,2.213-.706c1.117-.323,2.231-.658,3.357-.947a5.533,5.533,0,0,1,2.511,0c1.67.345,3.235,1.016,4.861,1.5,1.284.381,2.543.84,3.829,1.215a14.627,14.627,0,0,0,4.265.593c2.766-.027,5.533-.007,8.3-.009a6.855,6.855,0,0,1,1.212.141A2.684,2.684,0,0,1,65.337,182a2.888,2.888,0,0,1-2.568,1.3c-3.13.02-6.26,0-9.39.016-.618,0-1.242.051-1.855.056a20.366,20.366,0,0,0-4.2.563,1.217,1.217,0,0,0-1.024.945,1.256,1.256,0,0,0,.841,1.288c.395.159.758-.039,1.121-.115a18.228,18.228,0,0,1,2.926-.37c3.307-.154,6.615-.04,9.922-.059,0,.143,0,.235-.193.306a12.043,12.043,0,0,0-1.74.846,6.727,6.727,0,0,1-3.605.876c-1.5-.042-2.986-.222-4.483-.3-.516-.027-1.034-.035-1.55-.072-1.269-.092-2.536-.245-3.807-.278-.933-.024-1.856-.131-2.785-.179q-2.282-.119-4.56-.3c-.556-.045-1.12,0-1.664-.094a2.785,2.785,0,0,0-2.337.517c-.319.257-.661.488-.99.733q-3.959,2.96-7.914,5.927a7.819,7.819,0,0,0-1.417,1.174q-2.3-2.243-4.605-4.483c-.367-.356-.754-.694-1.15-1.018-.16-.131-.176-.335-.317-.465" transform="translate(-12.379 -121.005)" fill="#ffcdbf"/>
        <path id="Path_823587" data-name="Path 823587" d="M37.459,199.626a7.834,7.834,0,0,1,1.417-1.174q3.946-2.977,7.914-5.927c.329-.246.67-.476.99-.733a2.785,2.785,0,0,1,2.337-.517c.544.089,1.108.049,1.664.094q2.277.186,4.56.3c.929.048,1.852.155,2.785.179,1.271.033,2.538.186,3.807.278.516.037,1.034.045,1.55.072,1.5.079,2.986.259,4.483.3a6.724,6.724,0,0,0,3.605-.876,12.01,12.01,0,0,1,1.74-.845c.188-.072.2-.164.193-.307.621,0,1.242,0,1.863-.015a5.226,5.226,0,0,0,4.808-3.225,4.073,4.073,0,0,0,.127-.434,1.022,1.022,0,0,0,.6-.121c.564-.308,1.118-.633,1.682-.94,1.263-.689,2.523-1.385,3.8-2.053,1.056-.553,2.139-1.059,3.174-1.651.173-.1.344-.217.141-.44a1.832,1.832,0,0,1,2.748,1.314,1.706,1.706,0,0,1-1.008,1.81c-1.463.792-2.931,1.573-4.4,2.359Q81.2,190.737,74.365,194.4a5.98,5.98,0,0,1-3.775.57c-.485-.066-.979-.046-1.466-.064-.979-.037-1.952-.13-2.928-.188-.951-.056-1.906-.076-2.852-.159-1.252-.111-2.5-.235-3.758-.28-1.39-.051-2.768-.239-4.163-.249-1.063-.008-2.125-.129-3.186-.223-.241-.021-.483-.05-.725-.075a2.081,2.081,0,0,0-1.532.507q-4.793,3.62-9.608,7.21c-.236.177-.468.36-.7.539a2.74,2.74,0,0,0-.64-.752,17.726,17.726,0,0,1-1.572-1.614" transform="translate(-25.777 -125.852)" fill="#fcaf9f"/>
        <path id="Path_823588" data-name="Path 823588" d="M29.469,53.653c0-.013.008-.027,0-.038-.418-1.2-.749-1.175-1.921-1.089a8.672,8.672,0,0,0-2.529.619c-.193.076-.269.048-.313-.163a13.233,13.233,0,0,1-.349-2.038c-.018-.344-.144-.7-.183-1.058a25.342,25.342,0,0,1-.036-4.827,18.207,18.207,0,0,1,.5-3.011c.16-.621.313-1.255.495-1.87A22.944,22.944,0,0,1,28.6,33.254c.221-.307.4-.247.732-.152a18.114,18.114,0,0,0,1.871.442,10.914,10.914,0,0,0,2.8.114c3.033-.268,5.739-1.234,7.687-3.676a9.041,9.041,0,0,0,1.926-4.728,10.986,10.986,0,0,0,.141-1.647c-.009-.227.112-.284.288-.311.761-.118,1.521-.234,2.287-.319a29.048,29.048,0,0,1,3.555-.186c.311,0,.408.048.251.354-.684,1.338-1.387,2.667-2.023,4.027a2.6,2.6,0,0,0,.842,3.264c.5.356,1.039.668,1.572.979a.765.765,0,0,1,.414.712q.044,1.38.156,2.757a.6.6,0,0,1-.414.645c-.84.4-1.7.775-2.512,1.222-.509.28-1.045.505-1.555.783-.9.489-1.842.912-2.761,1.367a1.44,1.44,0,0,1-1.252-.042c-1.053-.34-2.114-.659-3.165-1a5.83,5.83,0,0,0-1.374-.377,2.664,2.664,0,0,0-2.6,1.316c-.767,1.212-1.482,2.456-2.235,3.677-.17.276-.346.549-.511.829a2.79,2.79,0,0,0-.01,2.709c.47,1.066.948,2.128,1.328,3.232a3.818,3.818,0,0,0,1.77,2.173c.838.474,1.616,1.051,2.418,1.585a2.791,2.791,0,0,0,3.021.235,5.76,5.76,0,0,0,1.472-1.316c.051-.057.1-.119.145-.176a.988.988,0,0,1,1.269-.325,17.1,17.1,0,0,0,2.333.666,1.914,1.914,0,0,0,1.316-.129,3.991,3.991,0,0,0,1.738-1.6c.824-1.334,1.713-2.63,2.573-3.943.077-.118.141-.25.313-.241.556.031,1.1-.132,1.661-.062.366.046.734.034.8.567a2.275,2.275,0,0,0,.491.836c.482.714.927,1.453,1.382,2.184a.473.473,0,0,1,.021.53c-.632,1.17-1.262,2.342-1.849,3.534a1.135,1.135,0,0,1-.937.645c-1.121.178-2.206.511-3.315.744-.748.157-1.5.355-2.24.583a2.648,2.648,0,0,0-1.649,1.3,10.851,10.851,0,0,0-1.071,2.6,2.442,2.442,0,0,0,.877,2.48,17.048,17.048,0,0,0,1.892,1.336c1.3.894,2.605,1.791,3.914,2.678a2.418,2.418,0,0,0,2.472.259,31,31,0,0,0,2.909-1.376,7.505,7.505,0,0,1,1.191-.483,3.757,3.757,0,0,0,1.986-1.689c.378-.636.822-1.234,1.209-1.865a.588.588,0,0,1,.79-.257q1.446.476,2.892.948c.9.294,1.8.6,2.713.871.34.1.356.193.134.442a28.284,28.284,0,0,1-5.433,4.829A29.667,29.667,0,0,1,58.92,70.1a3.48,3.48,0,0,1-1.951.168c-.685-.093-1.364-.234-2.041-.374-.777-.161-1.531-.417-2.289-.638-.614-.179-1.235-.379-1.834-.6-1.119-.416-2.244-.807-3.383-1.166a10.03,10.03,0,0,0-3.2-.585,9.529,9.529,0,0,0-2.7.518c-.5.155-1.027.273-1.539.416a26.267,26.267,0,0,0-2.543.731,1.37,1.37,0,0,1-1.416-.18c-.634-.448-1.31-.834-1.936-1.3-.55-.407-1.078-.836-1.61-1.262-.452-.362-.409-.481.051-.828a12.8,12.8,0,0,0,1.995-1.978,2.772,2.772,0,0,1,2.665-.949,1.912,1.912,0,0,0,2.483-1.858,1.952,1.952,0,0,0-.262-.93A11.581,11.581,0,0,0,37.8,56.667a8.588,8.588,0,0,0-2.08-1.866,9.569,9.569,0,0,0-1.977-1.1c-.532-.172-.741-.173-1.127.2-.109.106-.222.208-.334.311a3.839,3.839,0,0,1-.792-.152,17.375,17.375,0,0,0-2.026-.409" transform="translate(-16.546 -15.813)" fill="#63b8fc"/>
        <path id="Path_823589" data-name="Path 823589" d="M24.107,123.631a17.357,17.357,0,0,1,2.025.409,3.846,3.846,0,0,0,.792.152,1.184,1.184,0,0,0,.728,1.568,9.006,9.006,0,0,1,3.778,3.457c.075.125.226.247.14.41s-.282.1-.424.094a4.338,4.338,0,0,0-3.353,1.428c-.616.6-1.191,1.242-1.806,1.843a5.1,5.1,0,0,1-3.249,1.55A8.016,8.016,0,0,1,19.529,134a16.43,16.43,0,0,1-2.671-1.233c-.388-.214-.387-.249-.039-.506a14.924,14.924,0,0,1,6.211-2.67,12.581,12.581,0,0,1,2.61-.243,1.255,1.255,0,0,0,1.142-1.12,1.162,1.162,0,0,0-1.134-1.17,15.431,15.431,0,0,0-3.154.318,15.7,15.7,0,0,0-3.312.975,14.267,14.267,0,0,0-2.527,1.278c-.112.077-.249.155-.352.065-.133-.117.034-.221.083-.327a8.578,8.578,0,0,1,1.984-2.8,6.407,6.407,0,0,1,3.758-1.74c.241-.022.485-.049.728-.072a1.283,1.283,0,0,0,1.251-1.131" transform="translate(-11.184 -85.791)" fill="#98d53a"/>
        <path id="Path_823590" data-name="Path 823590" d="M48.418,18.768c.142,3.2-1.253,6.42-5.105,7.527a11.8,11.8,0,0,1-3.678.483A8.922,8.922,0,0,1,34.43,24.9c-.205-.155-.229-.258.047-.356a4.709,4.709,0,0,0,2.848-2.891,23.088,23.088,0,0,1,1.225-2.878,5.269,5.269,0,0,1,4.059-2.558,21.072,21.072,0,0,1,2.4-.072,18.212,18.212,0,0,1,1.858.179c.351.018.19.27.1.413a15.737,15.737,0,0,1-1.246,1.75,15.332,15.332,0,0,1-5.477,4.123,2.941,2.941,0,0,0-.472.265,1.052,1.052,0,0,0-.382,1.406,1.115,1.115,0,0,0,1.4.556,16.124,16.124,0,0,0,3.131-1.683,16.49,16.49,0,0,0,4.384-4.28.977.977,0,0,1,.119-.109" transform="translate(-23.584 -11.204)" fill="#98d53a"/>
        <path id="Path_823591" data-name="Path 823591" d="M178.115,171.137a2.057,2.057,0,0,1-.59,1.392,6.844,6.844,0,0,1-3.116,1.98c-.361.137-.732.449-1.063.407s-.424-.556-.661-.839a7.082,7.082,0,0,0-1.088-1.028c-.151-.118-.157-.169-.014-.272,1.013-.73,1.893-1.615,2.874-2.381a3.53,3.53,0,0,1,1.382-.906,1.8,1.8,0,0,1,2.275,1.647" transform="translate(-118.001 -117.58)" fill="#fcaf9f"/>
        <path id="Path_823592" data-name="Path 823592" d="M150.648,165.665c.466-.31.9-.546,1.306-.818a26.393,26.393,0,0,0,4.926-4.286c.349-.385.4-.4.838-.133a1.772,1.772,0,0,1,.83,1.827c-.008.145-.13.212-.226.293-.883.747-1.752,1.509-2.658,2.227a12.576,12.576,0,0,0-.971.824.462.462,0,0,1-.344.141c-1.154-.006-2.308-.006-3.463-.01a1.417,1.417,0,0,1-.238-.065" transform="translate(-103.665 -111.199)" fill="#fcaf9f"/>
        <path id="Path_823593" data-name="Path 823593" d="M187.429,182.115c.2.223.032.341-.142.44-1.035.591-2.118,1.1-3.174,1.651-1.275.668-2.535,1.364-3.8,2.053-.564.308-1.118.632-1.682.941a1.027,1.027,0,0,1-.6.121,1.231,1.231,0,0,0,.142-.692c-.056-.39.148-.6.5-.749,1.077-.454,2.148-.92,3.22-1.385q2.642-1.147,5.283-2.3a2.582,2.582,0,0,1,.253-.081" transform="translate(-122.511 -126.374)" fill="#ffcdbf"/>
      </g>
    </g>
  </g>
</svg>
