<svg xmlns="http://www.w3.org/2000/svg" xmlns:xlink="http://www.w3.org/1999/xlink" width="150" height="150" viewBox="0 0 150 150">
  <defs>
    <clipPath id="clip-path">
      <rect id="Rectangle_378125" data-name="Rectangle 378125" width="150" height="150" transform="translate(305 1185)" fill="none" stroke="#707070" stroke-width="1"/>
    </clipPath>
    <clipPath id="clip-path-2">
      <rect id="Rectangle_378126" data-name="Rectangle 378126" width="123.544" height="122.619" fill="none"/>
    </clipPath>
  </defs>
  <g id="Mask_Group_415" data-name="Mask Group 415" transform="translate(-305 -1185)" clip-path="url(#clip-path)">
    <g id="Group_1074195" data-name="Group 1074195" transform="translate(313 1193)">
      <g id="Group_1074197" data-name="Group 1074197" transform="translate(5 6)">
        <g id="Group_1074196" data-name="Group 1074196" clip-path="url(#clip-path-2)">
          <path id="Path_824327" data-name="Path 824327" d="M13.285,79.156c-.069.1-.141.191-.207.289a2.072,2.072,0,0,0-.314,2.254,2.277,2.277,0,0,0,2.248,1.453,3.116,3.116,0,0,0,1.627-.631.735.735,0,0,1,.534.249,8.459,8.459,0,0,0,1.564,1.393A9.066,9.066,0,0,0,21.4,86.043a1.027,1.027,0,0,1-.221.551,2.182,2.182,0,0,0,.718,2.915,18.167,18.167,0,0,0,2.547,1.581,54,54,0,0,0,5.589,2.7c1.461.611,2.955,1.134,4.454,1.6a47.34,47.34,0,0,0,6.264,1.383,31.954,31.954,0,0,0,5.8.547,52.663,52.663,0,0,0,5.42-.164c1.7-.206,3.421-.33,5.1-.658a48.9,48.9,0,0,0,6.763-1.862c1.481-.518,2.91-1.139,4.348-1.744a47.185,47.185,0,0,0,5.623-3.1c1.678-.992,1.231-1.2,2.619.18q11.758,11.714,23.495,23.45c2.263,2.258,4.511,4.531,6.811,6.75a8.057,8.057,0,0,0,7.489,2.269,8.789,8.789,0,0,0,5.017-2.956,8.521,8.521,0,0,0,1.956-7.513,8.987,8.987,0,0,0-2.7-4.739c-3.087-3.048-6.138-6.133-9.225-9.181-3-2.963-6-5.931-9.018-8.873-4.019-3.913-7.945-7.92-11.91-11.887-.169-.169-.311-.366-.49-.522a.337.337,0,0,1-.041-.515A42.442,42.442,0,0,0,91.787,69.2,40.022,40.022,0,0,0,93.9,63.566c.232-.822.444-1.653.7-2.468.111-.349.207-.63.723-.668a27.3,27.3,0,0,0,3.613-.475,32.4,32.4,0,0,0,8.157-2.824,31.633,31.633,0,0,0,9.175-7.249,27.635,27.635,0,0,0,4.308-6.61,31.75,31.75,0,0,0,2.407-7.778,29.991,29.991,0,0,0,.557-6.2,18.44,18.44,0,0,0-.238-2.6,40.263,40.263,0,0,0-1.541-6.443,29.8,29.8,0,0,0-8.833-12.918,28.161,28.161,0,0,0-11.288-6A32.561,32.561,0,0,0,97.162.358C96.133.223,95.089.251,94.08.1a14.615,14.615,0,0,0-3.8.085A30.241,30.241,0,0,0,83.91,1.591,29.827,29.827,0,0,0,73.19,7.747a.77.77,0,0,1-1.093.118A41.924,41.924,0,0,0,65.3,4.612a56.852,56.852,0,0,0-6.587-1.977A46.1,46.1,0,0,0,50.49,1.473a45.336,45.336,0,0,0-7.721.22c-1.613.168-3.207.458-4.792.767a56.039,56.039,0,0,0-6.4,1.815,31.86,31.86,0,0,0-3.818,1.608,52.656,52.656,0,0,0-5.111,2.779c-1.443.89-2.815,1.873-4.161,2.888-1.2.9-2.31,1.92-3.42,2.931A36.468,36.468,0,0,0,10.9,18.937a48.233,48.233,0,0,0-5.722,8.9,52.752,52.752,0,0,0-2.483,5.794A53.964,53.964,0,0,0,.814,40.885a41.233,41.233,0,0,0-.785,6.472A45.165,45.165,0,0,0,.491,56a52.851,52.851,0,0,0,1.435,6.672A48.842,48.842,0,0,0,6.162,72.749c.887,1.568,1.691,1.841,3.351,1.441a1.546,1.546,0,0,1,.68.564c.366.548.8,1.048,1.173,1.6a13.41,13.41,0,0,1,1.919,2.807" transform="translate(0 0)" fill="#f6f8fa"/>
          <path id="Path_824328" data-name="Path 824328" d="M9.513,74.189c-1.66.4-2.464.127-3.351-1.441A48.869,48.869,0,0,1,1.926,62.667,52.851,52.851,0,0,1,.491,56,45.125,45.125,0,0,1,.03,47.357a41.174,41.174,0,0,1,.784-6.472,54.037,54.037,0,0,1,1.877-7.253,52.752,52.752,0,0,1,2.483-5.794,48.233,48.233,0,0,1,5.722-8.9,36.472,36.472,0,0,1,4.172-4.454c1.109-1.011,2.223-2.028,3.419-2.931,1.346-1.016,2.717-2,4.161-2.888a52.552,52.552,0,0,1,5.111-2.779,31.86,31.86,0,0,1,3.818-1.608,56.039,56.039,0,0,1,6.4-1.815c1.585-.309,3.179-.6,4.792-.767a45.337,45.337,0,0,1,7.721-.22,46.1,46.1,0,0,1,8.228,1.162A56.887,56.887,0,0,1,65.3,4.612,41.939,41.939,0,0,1,72.1,7.864a.77.77,0,0,0,1.093-.118A29.835,29.835,0,0,1,83.91,1.59,30.237,30.237,0,0,1,90.276.18,14.611,14.611,0,0,1,94.08.1c1.009.156,2.054.127,3.083.262a32.483,32.483,0,0,1,4.478.981,28.166,28.166,0,0,1,11.288,6,29.8,29.8,0,0,1,8.833,12.919A40.263,40.263,0,0,1,123.3,26.7a18.356,18.356,0,0,1,.238,2.6,29.991,29.991,0,0,1-.557,6.2,31.769,31.769,0,0,1-2.407,7.778,27.674,27.674,0,0,1-4.308,6.61,31.635,31.635,0,0,1-9.175,7.249,32.4,32.4,0,0,1-8.157,2.824,27.287,27.287,0,0,1-3.613.475c-.516.037-.612.318-.723.668-.258.815-.47,1.645-.7,2.468A40.022,40.022,0,0,1,91.787,69.2,42.442,42.442,0,0,1,87.8,76.253a.338.338,0,0,0,.041.515c.179.156.321.353.49.522,3.965,3.967,7.892,7.974,11.91,11.887q4.532,4.413,9.018,8.873c3.086,3.049,6.137,6.133,9.224,9.181a8.987,8.987,0,0,1,2.7,4.739,8.521,8.521,0,0,1-1.956,7.513,8.788,8.788,0,0,1-5.016,2.956,8.058,8.058,0,0,1-7.489-2.269c-2.3-2.218-4.549-4.492-6.811-6.75Q88.168,101.7,76.421,89.971c-1.388-1.383-.941-1.172-2.619-.18a47.185,47.185,0,0,1-5.623,3.1c-1.438.6-2.867,1.226-4.348,1.744A48.95,48.95,0,0,1,57.068,96.5c-1.676.328-3.4.452-5.1.658a52.658,52.658,0,0,1-5.419.164,31.946,31.946,0,0,1-5.8-.547,47.407,47.407,0,0,1-6.264-1.383c-1.5-.463-2.993-.986-4.454-1.6a53.961,53.961,0,0,1-5.589-2.7,18.167,18.167,0,0,1-2.547-1.581,2.183,2.183,0,0,1-.718-2.915,1.028,1.028,0,0,0,.221-.551c.058-.011.136,0,.17-.034a2.463,2.463,0,0,1,3.337-.154,39.547,39.547,0,0,0,4.649,2.533,45.981,45.981,0,0,0,6.332,2.438,31.118,31.118,0,0,0,5.022,1.118c1.232.157,2.463.41,3.7.461a59.771,59.771,0,0,0,7.993-.088,39.7,39.7,0,0,0,4.394-.681,37.987,37.987,0,0,0,10.583-3.775,42.954,42.954,0,0,0,4.549-2.644,25.136,25.136,0,0,1,2.233-1.54,2.8,2.8,0,0,1,3.421.845c1.138,1.427,2.606,2.532,3.808,3.9.838.957,1.89,1.72,2.728,2.7a14.082,14.082,0,0,0,1.145,1.141c.151.139.346.321.56.057.3-.373.713-.643,1.023-.991,1.272-1.421,2.673-2.711,4.022-4.054.289-.289.228-.384-.011-.62q-3.654-3.595-7.289-7.211c-.356-.353-.715-.708-1.043-1.087a2.47,2.47,0,0,1-.264-2.781c.321-.468.666-.919,1-1.378a41.6,41.6,0,0,0,6.282-13.277c.139-.543-.075-.709-.544-.741a18.981,18.981,0,0,1-3.322-.656c-.969-.243-1.923-.548-2.877-.845-.492-.153-.867-.169-.957.479a9.633,9.633,0,0,1-.663,2.221,43.893,43.893,0,0,1-2.229,4.911,35.845,35.845,0,0,1-4.029,5.847,37.619,37.619,0,0,1-4,4.008,32.974,32.974,0,0,1-7.436,4.909,37.2,37.2,0,0,1-13.743,3.563,30.892,30.892,0,0,1-7.959-.445A36.251,36.251,0,0,1,35.7,82.409a35.092,35.092,0,0,1-13.545-9.041A35.446,35.446,0,0,1,13.56,57.095a33.3,33.3,0,0,1-.86-5.93,32.957,32.957,0,0,1,.344-6.8A37.065,37.065,0,0,1,14.975,36.9a36.029,36.029,0,0,1,6.139-10.356,35.446,35.446,0,0,1,10.826-8.606,33.393,33.393,0,0,1,9.6-3.23,31.382,31.382,0,0,1,7.63-.617,46.261,46.261,0,0,1,6.175.747,33.044,33.044,0,0,1,9.45,3.426c.49.273.653.213.872-.275a32.844,32.844,0,0,1,2.864-5.133c.248-.363.867-.611.706-1.076-.143-.415-.742-.528-1.155-.729A41.1,41.1,0,0,0,57.759,7.328,57.964,57.964,0,0,0,50.432,6.3a47.443,47.443,0,0,0-8.381.333,40.481,40.481,0,0,0-8,1.826,40.309,40.309,0,0,0-9.248,4.378c-1.535.994-3.032,2.058-4.471,3.185a31.853,31.853,0,0,0-2.4,2.329,45.373,45.373,0,0,0-4.288,4.78c-.81,1.045-1.594,2.121-2.321,3.211a24.31,24.31,0,0,0-1.488,2.833,42.76,42.76,0,0,0-2.18,4.6,54.366,54.366,0,0,0-1.938,6.634,37.077,37.077,0,0,0-.843,6.256A46.754,46.754,0,0,0,5.2,55.4a46.026,46.026,0,0,0,1.55,6.9,43.59,43.59,0,0,0,3.633,8.308,2.477,2.477,0,0,1-.865,3.579M47.346,66.81a9.209,9.209,0,0,1-7.21-2.9A12.131,12.131,0,0,1,36.948,55.6c-.01-.531-.119-.719-.695-.716-4.342.025-8.683.013-13.025.013-1.608,0-3.216.009-4.824,0-.319,0-.5.052-.4.43.407,1.446.7,2.932,1.229,4.334A30.712,30.712,0,0,0,39.4,78.627a31.558,31.558,0,0,0,6.792,1.215,25.862,25.862,0,0,0,5.917-.209,33.052,33.052,0,0,0,8.576-2.472,30.483,30.483,0,0,0,11.362-8.808,30.976,30.976,0,0,0,5.768-11.719c.041-.156.073-.37-.074-.45-.877-.477-1.57-1.329-2.7-1.3-.924.022-1.849.011-2.774.012q-7.357,0-14.713.007c-.26,0-.59-.152-.615.381a17.334,17.334,0,0,1-.569,4.092,9.829,9.829,0,0,1-5.145,6.438,10.728,10.728,0,0,1-3.842.994l-.022-.024Zm45.1-61.863A19.955,19.955,0,0,0,88.7,5.3a24.751,24.751,0,0,0-12.249,5.838,25.384,25.384,0,0,0-7.062,10.213,23.03,23.03,0,0,0-1.55,6.8,26.4,26.4,0,0,0,.182,5.925,26.649,26.649,0,0,0,1.253,4.923,16.349,16.349,0,0,0,1.434,3.314c.7,1.079,1.369,2.185,2.138,3.227a22.818,22.818,0,0,0,5,5.025,27.02,27.02,0,0,0,6.014,3.347,24.9,24.9,0,0,0,7.263,1.686,25.2,25.2,0,0,0,8.812-.818,24.917,24.917,0,0,0,17.427-16.334,25.743,25.743,0,0,0,1.351-7.91,24.063,24.063,0,0,0-.317-3.966,22.2,22.2,0,0,0-1.236-5.011A24.808,24.808,0,0,0,100.07,5.834a24.144,24.144,0,0,0-6.332-.95,1.981,1.981,0,0,0-.816,0l-.395.031c-.053-.059-.066-.008-.084.03M27.429,50.075v.01q4.674,0,9.347,0c.4,0,.748-.027.75-.537a11.415,11.415,0,0,1,.412-2.324A32.48,32.48,0,0,1,39.785,41.5a29.4,29.4,0,0,1,5.933-9.112,42.594,42.594,0,0,1,7.671-6.29,2.361,2.361,0,0,1,2.273-.367,2.506,2.506,0,0,1,1.22,3.543,29.173,29.173,0,0,0-1.957,4.928,19.52,19.52,0,0,0-.862,4.521,21.38,21.38,0,0,0,.809,7.044c.364,1.208.725,2.422.99,3.654.117.541.333.668.832.666,3.859-.015,7.719,0,11.578-.02.542,0,1.057.181,1.6.134.426-.036.4-.221.254-.5a2.244,2.244,0,0,0-.251-.337A29.779,29.779,0,0,1,63.012,31.2a27.024,27.024,0,0,1,.718-7.436.647.647,0,0,0-.351-.869,29.93,29.93,0,0,0-7.827-3.107,31.33,31.33,0,0,0-4.984-.82,12.894,12.894,0,0,0-1.734-.206c-1.323.105-2.653.13-3.977.286a34.085,34.085,0,0,0-5.449,1.024,29.464,29.464,0,0,0-8.761,4.111,32.346,32.346,0,0,0-4.413,3.736,30.137,30.137,0,0,0-4.023,5.1A27.619,27.619,0,0,0,19.454,38.5,18.751,18.751,0,0,0,18.4,41.627c-.181,1.046-.45,2.077-.6,3.136-.213,1.55-.284,3.094-.353,4.647-.025.543.166.679.688.675,3.1-.022,6.191-.011,9.286-.011m89.118,63.582a4.5,4.5,0,0,0-1.494-3.019q-9.973-9.938-19.924-19.9c-.275-.276-.416-.306-.71-.009q-2.414,2.447-4.878,4.843c-.35.341-.173.507.081.76q7.115,7.083,14.219,14.177c1.991,1.988,3.97,3.989,5.975,5.963a3.691,3.691,0,0,0,3.64,1.149,4.022,4.022,0,0,0,3.092-3.965M49.638,35.33l-.18-.135a1.654,1.654,0,0,1-.183.307,27.234,27.234,0,0,0-6.911,14.164,32.854,32.854,0,0,0-.606,6.1,7.555,7.555,0,0,0,.864,3.442,4.554,4.554,0,0,0,5.616,2.536A4.873,4.873,0,0,0,51.749,57.9a10.672,10.672,0,0,0-.1-5.608c-.322-1.241-.65-2.48-1-3.712a40.923,40.923,0,0,1-1.321-6.214,26.1,26.1,0,0,1-.076-3.9,30.131,30.131,0,0,1,.392-3.133" transform="translate(0 0)" fill="#060607"/>
          <path id="Path_824329" data-name="Path 824329" d="M14.641,80.841a2.478,2.478,0,0,0,.865-3.579,43.617,43.617,0,0,1-3.633-8.308,46.087,46.087,0,0,1-1.55-6.9A46.8,46.8,0,0,1,10,53.323a37.071,37.071,0,0,1,.843-6.256,54.28,54.28,0,0,1,1.938-6.634,42.668,42.668,0,0,1,2.18-4.6A24.31,24.31,0,0,1,16.451,33c.727-1.09,1.511-2.166,2.321-3.211a45.32,45.32,0,0,1,4.288-4.78,31.938,31.938,0,0,1,2.4-2.329c1.44-1.127,2.936-2.191,4.472-3.185a42.434,42.434,0,0,1,17.245-6.2,47.445,47.445,0,0,1,8.381-.333,57.959,57.959,0,0,1,7.327,1.023A41.1,41.1,0,0,1,73.214,17.7c.413.2,1.012.314,1.155.729.161.465-.458.713-.706,1.076A32.783,32.783,0,0,0,70.8,24.641c-.218.489-.381.548-.872.275a33.044,33.044,0,0,0-9.45-3.426,46.27,46.27,0,0,0-6.175-.747,31.382,31.382,0,0,0-7.63.617,33.384,33.384,0,0,0-9.6,3.23A35.433,35.433,0,0,0,26.243,33.2,36.029,36.029,0,0,0,20.1,43.552a37.032,37.032,0,0,0-1.931,7.464,32.991,32.991,0,0,0-.344,6.8,33.34,33.34,0,0,0,.86,5.93A35.447,35.447,0,0,0,27.282,80.02a35.09,35.09,0,0,0,13.545,9.041A36.244,36.244,0,0,0,47.1,90.826a30.891,30.891,0,0,0,7.959.445,37.2,37.2,0,0,0,13.743-3.563,32.946,32.946,0,0,0,7.435-4.91,37.529,37.529,0,0,0,4-4.008,35.865,35.865,0,0,0,4.029-5.847A43.843,43.843,0,0,0,86.5,68.033a9.634,9.634,0,0,0,.664-2.221c.091-.649.466-.632.957-.479.955.3,1.908.6,2.877.845a18.985,18.985,0,0,0,3.321.656c.47.032.684.2.545.741a41.6,41.6,0,0,1-6.282,13.277c-.333.459-.678.91-1,1.377a2.472,2.472,0,0,0,.264,2.782c.328.379.687.733,1.043,1.087q3.639,3.61,7.289,7.211c.239.236.3.332.012.62-1.349,1.343-2.75,2.633-4.023,4.054-.311.347-.721.618-1.023.99-.214.265-.409.083-.56-.056a14.087,14.087,0,0,1-1.145-1.142c-.838-.974-1.89-1.738-2.728-2.695-1.2-1.373-2.67-2.477-3.808-3.9a2.8,2.8,0,0,0-3.422-.845,25.028,25.028,0,0,0-2.232,1.54A43.086,43.086,0,0,1,72.7,94.514a37.993,37.993,0,0,1-10.583,3.775,39.626,39.626,0,0,1-4.394.681,59.7,59.7,0,0,1-7.993.088c-1.236-.051-2.467-.3-3.7-.461a31.106,31.106,0,0,1-5.022-1.118,45.988,45.988,0,0,1-6.332-2.438,39.54,39.54,0,0,1-4.648-2.533,2.463,2.463,0,0,0-3.337.154c-.035.034-.113.024-.17.034a9.069,9.069,0,0,1-2.659-1.881A8.495,8.495,0,0,1,22.3,89.422a.735.735,0,0,0-.534-.249,2.348,2.348,0,0,0,.422-2.9,2.386,2.386,0,0,0-3.776-.465A13.416,13.416,0,0,0,16.494,83c-.368-.547-.806-1.048-1.173-1.6a1.546,1.546,0,0,0-.68-.564" transform="translate(-5.128 -6.652)" fill="#c3c8d6"/>
          <path id="Path_824330" data-name="Path 824330" d="M26.66,162.75a2.386,2.386,0,0,1,3.776.466,2.348,2.348,0,0,1-.422,2.9,3.116,3.116,0,0,1-1.627.631,2.277,2.277,0,0,1-2.248-1.453,2.072,2.072,0,0,1,.314-2.254c.066-.1.138-.193.207-.289" transform="translate(-13.375 -83.595)" fill="#060607"/>
          <path id="Path_824331" data-name="Path 824331" d="M164.749,10.124l.395-.031a1.061,1.061,0,0,0,.817,0,24.144,24.144,0,0,1,6.332.949,24.809,24.809,0,0,1,17.094,15.733,22.191,22.191,0,0,1,1.236,5.011,24.055,24.055,0,0,1,.317,3.965,25.758,25.758,0,0,1-1.351,7.911,24.918,24.918,0,0,1-17.427,16.334,25.179,25.179,0,0,1-8.812.818,24.908,24.908,0,0,1-7.263-1.685,27.048,27.048,0,0,1-6.014-3.347,22.843,22.843,0,0,1-5-5.025c-.768-1.042-1.44-2.147-2.137-3.226a16.365,16.365,0,0,1-1.434-3.315,25.223,25.223,0,0,1-1.436-10.848,23.033,23.033,0,0,1,1.55-6.8,25.378,25.378,0,0,1,7.062-10.212,24.741,24.741,0,0,1,12.249-5.838,19.91,19.91,0,0,1,3.738-.357h.047Zm6.9,12.308c.006.427-.321.275-.522.276-3.4.014-6.794.026-10.191.015-.55,0-1.267.269-1.611-.122-.33-.376-.066-1.078-.1-1.635a5.752,5.752,0,0,0-.111-2.154,2.337,2.337,0,0,0-2.657-1.4,2.364,2.364,0,0,0-1.907,2.1,16.156,16.156,0,0,0,.681,7.187,19.357,19.357,0,0,0,3.527,6.07c.687.806,1.433,1.564,2.185,2.312.376.374.359.645-.039.967a16.765,16.765,0,0,0-3,3.2,16.413,16.413,0,0,0-3.448,9.405c-.032,1.36-.221,2.768.655,4.009a2.344,2.344,0,0,0,2.321.847,2.134,2.134,0,0,0,1.79-1.966q0-1.417,0-2.834c0-.25-.061-.562.37-.5a.4.4,0,0,0,.448.031l.279-.009.143.008c3.576-.029,7.152.046,10.726-.088.388-.015.45.138.493.471.116.891-.1,1.769-.043,2.657a2.448,2.448,0,0,0,1.983,2.273,2.415,2.415,0,0,0,2.536-1.3,3.647,3.647,0,0,0,.291-1.385A18.361,18.361,0,0,0,175.7,44.3a17.772,17.772,0,0,0-4.144-6.764,19.311,19.311,0,0,0-1.634-1.593c-.32-.267-.431-.55.033-.946a20.044,20.044,0,0,0,3.053-3.229,16.336,16.336,0,0,0,3.342-12.247,2.368,2.368,0,0,0-2.693-2.129,2.459,2.459,0,0,0-2.033,2.429,9.978,9.978,0,0,1,.043,2.283c-.008.108-.016.216-.024.325" transform="translate(-72.222 -5.206)" fill="#8fcfe5"/>
          <path id="Path_824332" data-name="Path 824332" d="M46.029,70.064c-3.1,0-6.191-.011-9.287.011-.522,0-.712-.132-.688-.675.07-1.553.14-3.1.353-4.647.146-1.06.415-2.09.6-3.136a18.773,18.773,0,0,1,1.05-3.124A27.658,27.658,0,0,1,40.811,53a30.169,30.169,0,0,1,4.023-5.1,32.444,32.444,0,0,1,4.413-3.736,29.482,29.482,0,0,1,8.761-4.111,34.1,34.1,0,0,1,5.449-1.024c1.324-.155,2.654-.18,3.977-.286a12.878,12.878,0,0,1,1.734.206,31.4,31.4,0,0,1,4.985.82,29.9,29.9,0,0,1,7.827,3.107.647.647,0,0,1,.351.869,27.005,27.005,0,0,0-.718,7.436,29.782,29.782,0,0,0,6.869,18.172,2.273,2.273,0,0,1,.251.338c.151.277.172.462-.253.5-.548.046-1.063-.137-1.605-.134-3.859.016-7.718,0-11.578.02-.5,0-.715-.125-.832-.667-.265-1.232-.626-2.445-.991-3.653a21.369,21.369,0,0,1-.808-7.045,19.549,19.549,0,0,1,.861-4.521,29.175,29.175,0,0,1,1.958-4.928,2.505,2.505,0,0,0-1.221-3.543,2.358,2.358,0,0,0-2.273.367,42.574,42.574,0,0,0-7.672,6.29,29.409,29.409,0,0,0-5.933,9.112,32.525,32.525,0,0,0-1.847,5.724,11.443,11.443,0,0,0-.412,2.324c0,.51-.351.538-.75.537q-4.673-.012-9.347,0Z" transform="translate(-18.601 -19.988)" fill="#41b8df"/>
          <path id="Path_824333" data-name="Path 824333" d="M66.546,125.3a10.733,10.733,0,0,0,3.842-.994,9.829,9.829,0,0,0,5.145-6.438,17.358,17.358,0,0,0,.569-4.092c.026-.533.355-.38.615-.381q7.356-.01,14.713-.007c.925,0,1.85.011,2.774-.012,1.127-.027,1.82.824,2.7,1.3.147.08.115.294.074.45a30.962,30.962,0,0,1-5.768,11.719,30.475,30.475,0,0,1-11.362,8.808,33.054,33.054,0,0,1-8.575,2.472,25.861,25.861,0,0,1-5.917.209,31.558,31.558,0,0,1-6.792-1.215A30.712,30.712,0,0,1,38.4,118.155c-.523-1.4-.821-2.888-1.228-4.334-.106-.378.077-.431.4-.43,1.608.008,3.216,0,4.824,0,4.342,0,8.683.012,13.024-.013.577,0,.685.185.7.716a12.129,12.129,0,0,0,3.189,8.312,9.208,9.208,0,0,0,7.21,2.9l.022.018Zm-17.253-1.294a2.4,2.4,0,1,0,.043-4.8,2.558,2.558,0,0,0-2.413,2.446,2.652,2.652,0,0,0,2.37,2.357m29.117,5.278A2.3,2.3,0,0,0,76.04,126.8a2.4,2.4,0,0,0-2.336,2.364c-.012,1.112,1.076,2.476,2.041,2.436,1.465-.059,2.694-.686,2.664-2.312m9.893-8.023a2.321,2.321,0,0,0-2.339-2.433,2.45,2.45,0,0,0-2.367,2.382,2.547,2.547,0,0,0,2.4,2.433c1.209-.049,2.535-1.154,2.31-2.382" transform="translate(-19.161 -58.495)" fill="#ffdfa3"/>
          <path id="Path_824334" data-name="Path 824334" d="M211.775,210.139a4.023,4.023,0,0,1-3.092,3.965,3.691,3.691,0,0,1-3.64-1.149c-2-1.974-3.983-3.976-5.975-5.963q-7.106-7.092-14.218-14.177c-.254-.253-.431-.42-.081-.76q2.462-2.4,4.878-4.842c.294-.3.435-.267.71.008q9.952,9.96,19.924,19.9a4.5,4.5,0,0,1,1.494,3.019" transform="translate(-95.228 -96.481)" fill="#8fcfe5"/>
          <path id="Path_824335" data-name="Path 824335" d="M94.145,72.843a30.132,30.132,0,0,0-.392,3.133,26.1,26.1,0,0,0,.076,3.9,40.922,40.922,0,0,0,1.321,6.214c.352,1.232.68,2.472,1,3.712a10.672,10.672,0,0,1,.1,5.608,4.873,4.873,0,0,1-3.511,3.853,4.554,4.554,0,0,1-5.616-2.536,7.555,7.555,0,0,1-.864-3.442,32.854,32.854,0,0,1,.606-6.1,27.234,27.234,0,0,1,6.911-14.164,1.654,1.654,0,0,0,.183-.307l.18.135" transform="translate(-44.507 -37.513)" fill="#8fcfe5"/>
          <path id="Path_824336" data-name="Path 824336" d="M192.778,10.046a1.061,1.061,0,0,1-.817,0,1.975,1.975,0,0,1,.817,0" transform="translate(-99.04 -5.162)" fill="#41b8df"/>
          <path id="Path_824337" data-name="Path 824337" d="M97.849,137.988l-.018.021-.021-.017.018-.028Z" transform="translate(-50.464 -71.18)" fill="#c3c8d6"/>
          <path id="Path_824338" data-name="Path 824338" d="M191.057,10.13l-.036.031h-.047c.018-.038.031-.089.084-.03" transform="translate(-98.53 -5.213)" fill="#41b8df"/>
          <path id="Path_824339" data-name="Path 824339" d="M187.056,29.878a10.008,10.008,0,0,0-.043-2.284,2.459,2.459,0,0,1,2.033-2.429,2.368,2.368,0,0,1,2.693,2.129A16.335,16.335,0,0,1,188.4,39.542a20.02,20.02,0,0,1-3.053,3.229c-.465.4-.353.68-.033.946a19.231,19.231,0,0,1,1.634,1.592,17.775,17.775,0,0,1,4.144,6.764,18.363,18.363,0,0,1,.746,6.572,3.651,3.651,0,0,1-.291,1.385,2.415,2.415,0,0,1-2.536,1.3,2.448,2.448,0,0,1-1.983-2.272c-.053-.888.159-1.766.043-2.657-.043-.333-.106-.486-.493-.471-3.574.133-7.151.059-10.726.088l-.144-.009-.278.01a.66.66,0,0,0-.449-.032c-.432-.061-.369.252-.37.5q-.007,1.417,0,2.834a2.134,2.134,0,0,1-1.789,1.966,2.344,2.344,0,0,1-2.321-.847c-.876-1.241-.687-2.649-.655-4.009a16.41,16.41,0,0,1,3.448-9.405,16.748,16.748,0,0,1,3-3.2c.4-.321.415-.592.039-.967-.751-.748-1.5-1.506-2.184-2.312a19.341,19.341,0,0,1-3.527-6.07,16.157,16.157,0,0,1-.681-7.187,2.364,2.364,0,0,1,1.907-2.1,2.337,2.337,0,0,1,2.657,1.4,5.752,5.752,0,0,1,.111,2.154c.033.556-.23,1.26.1,1.635.344.391,1.061.121,1.611.122,3.4.01,6.794,0,10.191-.015.2,0,.528.152.522-.275l.025-.325m-8.85,21.258c2.14.042,4.28.07,6.42,0a.357.357,0,0,0,.321-.017c.167.007.345.061.494-.1a15.9,15.9,0,0,0-2.889-3.463c-.385-.348-.85-.614-1.2-.988a.617.617,0,0,0-.975-.082A18.283,18.283,0,0,0,176.4,50.81c-.24.385.019.329.244.337a.1.1,0,0,0,.16.009l.349-.023.037.029.037-.03.887,0,.087,0m2.2-15.822V35.3c-1.244,0-2.487,0-3.73,0-.418,0-.486.083-.3.364a18.285,18.285,0,0,0,4.076,4.375.617.617,0,0,0,.9-.015,18.239,18.239,0,0,0,2.607-2.487c.448-.537.843-1.12,1.253-1.688.108-.151.272-.368-.078-.421a9.624,9.624,0,0,0-1.3-.115c-1.143-.015-2.286-.005-3.43-.005" transform="translate(-87.605 -12.977)" fill="#060607"/>
          <path id="Path_824340" data-name="Path 824340" d="M180.495,88.828a.66.66,0,0,1,.449.032.4.4,0,0,1-.449-.032" transform="translate(-93.124 -45.817)" fill="#41b8df"/>
          <path id="Path_824341" data-name="Path 824341" d="M205.423,34.915q-.012.163-.024.325c.008-.109.016-.217.024-.325" transform="translate(-105.973 -18.014)" fill="#41b8df"/>
          <path id="Path_824342" data-name="Path 824342" d="M182,88.9l.144.009L182,88.9" transform="translate(-93.899 -45.867)" fill="#41b8df"/>
          <path id="Path_824343" data-name="Path 824343" d="M59.723,130.217a2.651,2.651,0,0,1-2.37-2.357,2.557,2.557,0,0,1,2.412-2.446,2.4,2.4,0,1,1-.042,4.8" transform="translate(-29.59 -64.705)" fill="#060607"/>
          <path id="Path_824344" data-name="Path 824344" d="M117.385,143.591c.03,1.626-1.2,2.253-2.664,2.312-.965.039-2.052-1.324-2.041-2.436a2.4,2.4,0,0,1,2.336-2.364,2.3,2.3,0,0,1,2.369,2.488" transform="translate(-58.136 -72.8)" fill="#060607"/>
          <path id="Path_824345" data-name="Path 824345" d="M137.821,127.076c.225,1.228-1.1,2.333-2.31,2.382a2.547,2.547,0,0,1-2.4-2.433,2.45,2.45,0,0,1,2.367-2.382,2.321,2.321,0,0,1,2.339,2.433" transform="translate(-68.679 -64.308)" fill="#060607"/>
          <path id="Path_824346" data-name="Path 824346" d="M187.319,46.134c1.143,0,2.287-.01,3.43.005a9.625,9.625,0,0,1,1.3.115c.35.053.186.27.078.421-.41.568-.8,1.151-1.253,1.688a18.239,18.239,0,0,1-2.607,2.487.617.617,0,0,1-.9.015,18.285,18.285,0,0,1-4.076-4.375c-.188-.281-.12-.363.3-.364,1.244,0,2.487,0,3.73,0Z" transform="translate(-94.516 -23.797)" fill="#8fcfe5"/>
          <path id="Path_824347" data-name="Path 824347" d="M191.565,73.666c-2.14.066-4.28.038-6.42,0a.085.085,0,0,0-.088,0l-.886,0a.066.066,0,0,0-.075,0l-.349.023-.161-.009c-.224-.007-.484.048-.244-.336a18.3,18.3,0,0,1,3.968-4.322.617.617,0,0,1,.975.083c.354.374.819.64,1.2.988a15.9,15.9,0,0,1,2.889,3.464c-.15.161-.328.107-.494.1l-.321.017" transform="translate(-94.544 -35.503)" fill="#8fcfe5"/>
          <path id="Path_824348" data-name="Path 824348" d="M200.43,78.82l.321-.017a.358.358,0,0,1-.321.017" transform="translate(-103.409 -40.657)" fill="#41b8df"/>
          <path id="Path_824349" data-name="Path 824349" d="M183.949,78.853l.161.009a.1.1,0,0,1-.161-.009" transform="translate(-94.906 -40.683)" fill="#41b8df"/>
          <path id="Path_824350" data-name="Path 824350" d="M185,78.81a.066.066,0,0,1,.075,0l-.037.03Z" transform="translate(-95.449 -40.655)" fill="#41b8df"/>
          <path id="Path_824351" data-name="Path 824351" d="M186.986,78.814a.084.084,0,0,1,.088,0l-.088,0" transform="translate(-96.473 -40.657)" fill="#41b8df"/>
        </g>
      </g>
    </g>
  </g>
</svg>
