<svg xmlns="http://www.w3.org/2000/svg" xmlns:xlink="http://www.w3.org/1999/xlink" width="149.727" height="148.396" viewBox="0 0 149.727 148.396">
  <defs>
    <clipPath id="clip-path">
      <rect id="Rectángulo_377932" data-name="Rectángulo 377932" width="78.961" height="78.869" fill="#fff"/>
    </clipPath>
  </defs>
  <g id="Grupo_1075405" data-name="Grupo 1075405" transform="translate(-898.332 -370.001)">
    <path id="Trazado_819131" data-name="Trazado 819131" d="M241.315,360.15a17.313,17.313,0,0,1-8.322-5.053l-29.212-32.05a17.356,17.356,0,0,1-3.7-16.908l13.151-41.324a17.358,17.358,0,0,1,12.792-11.66l42.362-9.272a17.356,17.356,0,0,1,16.493,5.248l29.212,32.05a17.353,17.353,0,0,1,3.7,16.91l-13.148,41.322a17.361,17.361,0,0,1-12.794,11.66l-.067-.309.067.309-42.36,9.272a17.264,17.264,0,0,1-8.174-.2" transform="translate(633.574 236.887) rotate(-18)" fill="#264100"/>
    <g id="Grupo_1073444" data-name="Grupo 1073444" transform="translate(938.315 409.553)">
      <g id="Grupo_1073800" data-name="Grupo 1073800" transform="translate(-4.599 -4.788)">
        <g id="Grupo_1073799" data-name="Grupo 1073799" clip-path="url(#clip-path)">
          <path id="Trazado_823386" data-name="Trazado 823386" d="M59.7,53.863c1.141,1.151,2.308,2.277,3.41,3.464a2.82,2.82,0,0,0,1.734.825,4.035,4.035,0,0,1,2.183,1.166q4.24,4.209,8.455,8.443a36.516,36.516,0,0,1,2.63,2.783,4.2,4.2,0,0,1,.524.864c-.02.143.163.19.155.327a4.444,4.444,0,0,1,.374,1.679,5.607,5.607,0,0,1-.916,3.208,5.109,5.109,0,0,1-3.785,2.206,5.5,5.5,0,0,1-3.146-.608l-.088-.049a14.957,14.957,0,0,1-2.207-2.055c-.963-.905-1.883-1.854-2.819-2.786-1.2-1.194-2.362-2.424-3.579-3.6-.776-.748-1.518-1.531-2.326-2.248a6.923,6.923,0,0,1-1.587-1.954c-.044-.085-.1-.156-.048-.254s-.03-.126-.111-.135c0-.139-.152-.237-.109-.389l-.047-.084a9.745,9.745,0,0,1-.211-1.076c-.04-.435-.471-.584-.714-.872a.43.43,0,0,1-.048-.1l-.105-.105a5.631,5.631,0,0,1-1.045-.979c-.853-.938-1.775-1.809-2.656-2.719a.212.212,0,0,0-.333-.025c-.7.506-1.394,1.013-2.106,1.5-.485.329-1,.62-1.5.927a29.8,29.8,0,0,1-4.272,2.126c-.889.365-1.809.651-2.724.95a39.508,39.508,0,0,1-4.219,1c-.909.189-1.849.229-2.776.334a29.131,29.131,0,0,1-4.7.052,32.89,32.89,0,0,1-3.595-.438,29.482,29.482,0,0,1-5.011-1.36,34.881,34.881,0,0,1-8.9-4.7,30.948,30.948,0,0,1-4.293-3.895,33.94,33.94,0,0,1-5.6-8.121c-.22-.433-.4-.887-.6-1.331l-.061-.073c-.306-.853-.615-1.7-.918-2.558A36.616,36.616,0,0,1,.772,38.39a27.118,27.118,0,0,1-.41-3.623C.308,34.029.3,33.291.312,32.552a.232.232,0,0,0,.015-.291,21.145,21.145,0,0,1,.1-2.615c.054-.726.231-1.434.254-2.161.006-.189.159-.36.089-.565l.065-.082A17.536,17.536,0,0,1,1.216,25c.021-.105.005-.2.02-.3.1-.016.2-.032.079-.16.193-.786.49-1.538.737-2.306l.059-.077a28.231,28.231,0,0,1,1.662-3.973A33.225,33.225,0,0,1,14.229,6.044a32.4,32.4,0,0,1,8.041-4.15A30.8,30.8,0,0,1,26.9.6,26.783,26.783,0,0,1,30.783.127C31.689.1,32.6-.032,33.5.007A35.728,35.728,0,0,1,38.59.514a40.114,40.114,0,0,1,4.931,1.2,1.509,1.509,0,0,0,.31.034.138.138,0,0,0,.155.145,28.6,28.6,0,0,1,4.431,1.879A18.816,18.816,0,0,1,50.424,4.9c1.231.828,2.454,1.679,3.606,2.624a41.105,41.105,0,0,1,3.288,3.072c.285.292.554.6.831.9l-.01-.016c.614.8,1.265,1.574,1.832,2.405a22.639,22.639,0,0,1,1.709,2.794,8.968,8.968,0,0,0,.509.816.075.075,0,0,0,.054.052,9.693,9.693,0,0,0,.888,1.806h0c-.007.4.278.686.409,1.032a34.179,34.179,0,0,1,1.542,4.859c.145.663.3,1.332.4,2.01.073.489.161.99.261,1.481.043.216.154.482-.1.676-.07.053-.012.121.031.165.236.247.136.56.181.848a17.508,17.508,0,0,1,.138,3.5c-.047,1.014-.137,2.025-.282,3.035-.119.833-.213,1.665-.4,2.492a45.044,45.044,0,0,1-1.393,4.919,28.416,28.416,0,0,1-2.44,5.082c-.715,1.22-1.539,2.364-2.355,3.515a.629.629,0,0,1-.117.1l-.1.025.07.057.511.507a.22.22,0,0,0,.22.213m1.012,4.617c-.108-.095-.222-.183-.324-.285-.962-.959-1.927-1.916-2.879-2.885-.171-.174-.254-.17-.421.009-.469.5-.954.987-1.456,1.455-.2.186-.172.279.007.453.847.819,1.642,1.693,2.519,2.482.263.237.508.494.761.742l.083-.083.1-.154.061-.086a4.788,4.788,0,0,1,1.621-1.494c.05-.014.107-.038.091-.1-.023-.08-.1-.058-.161-.056m-.179-12.808L60.6,45.6c.3-.744.652-1.465.892-2.232l.061-.075a32.907,32.907,0,0,0,1.837-9.145.676.676,0,0,0,.016-.624q-.011-.68-.023-1.36c.08-.052.08-.1,0-.156q0-.239-.006-.477c.127-.119.1-.2-.063-.24,0-.136.019-.273.012-.409-.053-.942-.2-1.872-.33-2.807a25.441,25.441,0,0,0-.67-3.246c-.239-.879-.566-1.734-.853-2.6l-.058-.075c-.112-.233-.1-.51-.261-.726l-.058-.069a.743.743,0,0,0-.184-.4c.12-.1.058-.137-.051-.161a10.5,10.5,0,0,0-.812-1.692c0-.1,0-.206-.146-.215a20.73,20.73,0,0,0-2.469-4.023,32.583,32.583,0,0,0-2.8-3.219A31.493,31.493,0,0,0,49,7.163a20.815,20.815,0,0,0-3.174-1.733,28.54,28.54,0,0,0-4.057-1.492c-.678-.166-1.359-.394-2.034-.547-.536-.121-1.127-.178-1.689-.252-1.148-.152-2.3-.284-3.451-.365-1.544-.108-3.088.04-4.632.075-.076,0-.15.039-.227.047A3.976,3.976,0,0,1,28.248,3c-.073,0-.133.018-.153.1a.4.4,0,0,1-.1.052,26.315,26.315,0,0,0-3.413.777,33.645,33.645,0,0,0-5.555,2.254,30.317,30.317,0,0,0-4.361,2.831A22.438,22.438,0,0,0,12.079,11.3c-.435.454-.912.868-1.338,1.33A12.107,12.107,0,0,0,9.535,14.09c-.321.481-.72.895-1.035,1.385a30.009,30.009,0,0,0-1.71,2.781c-.432.867-.893,1.72-1.267,2.614a27.836,27.836,0,0,0-1.528,4.264c-.239,1-.461,2.006-.633,3.025a16.131,16.131,0,0,0-.273,2.235A39.17,39.17,0,0,0,3.2,36.281c.145,1.17.314,2.327.564,3.48a22.716,22.716,0,0,0,1.138,3.716,32.152,32.152,0,0,0,2.92,5.851,30.838,30.838,0,0,0,2.808,3.632,22.175,22.175,0,0,0,2.605,2.6.067.067,0,0,0,.051.048,22.836,22.836,0,0,0,2.532,2.018A30.694,30.694,0,0,0,20.478,60.3a25.811,25.811,0,0,0,4.361,1.663,27.876,27.876,0,0,0,6.507,1.1,30.67,30.67,0,0,0,5.282-.144,32.138,32.138,0,0,0,4.049-.725,26.437,26.437,0,0,0,4.176-1.438c1.047-.469,2.086-.952,3.1-1.494l.089-.05L48.9,58.7,49,58.649l.152-.1.085-.048.308-.19.09-.056.149-.1.09-.058.147-.1.091-.058.706-.5.088-.054c.962-.792,1.942-1.563,2.881-2.38a23.308,23.308,0,0,0,2.807-2.97,29.517,29.517,0,0,0,2.483-3.524,18.83,18.83,0,0,0,1.465-2.833M76.491,73.491a2.043,2.043,0,0,0-.726-1.724Q71.68,67.681,67.6,63.6c-.236-.236-.457-.485-.691-.722-.565-.572-1.1-1.184-1.711-1.7a2.513,2.513,0,0,0-2.514-.56A2.609,2.609,0,0,0,61.6,65.041c.438.459.918.877,1.366,1.327,2.936,2.951,5.92,5.855,8.8,8.864a2.885,2.885,0,0,0,1.3.868,2.618,2.618,0,0,0,3.432-2.609" transform="translate(-0.21 0)" fill="#fff"/>
          <path id="Trazado_823387" data-name="Trazado 823387" d="M246.254,224.391c.008-.137-.175-.185-.155-.327.115.009.253,0,.3.129.036.1-.062.156-.143.2" transform="translate(-167.667 -152.656)" fill="#fff"/>
          <path id="Trazado_823388" data-name="Trazado 823388" d="M.117,101.231a.232.232,0,0,1-.015.291c-.132-.1-.147-.2.015-.291" transform="translate(0 -68.969)" fill="#fff"/>
          <path id="Trazado_823389" data-name="Trazado 823389" d="M186.214,168.54a.22.22,0,0,1-.22-.213c.178-.038.229.056.22.213" transform="translate(-126.719 -114.677)" fill="#fff"/>
          <path id="Trazado_823390" data-name="Trazado 823390" d="M3.219,76.994c.123.127.021.144-.08.16-.1-.119.037-.115.08-.16" transform="translate(-2.114 -52.456)" fill="#fff"/>
          <path id="Trazado_823391" data-name="Trazado 823391" d="M137.029,5.622a.138.138,0,0,1-.154-.145c.13-.036.11.089.154.145" transform="translate(-93.254 -3.727)" fill="#fff"/>
          <path id="Trazado_823392" data-name="Trazado 823392" d="M183.064,204.4c.081.009.148.03.111.135-.09,0-.149-.029-.111-.135" transform="translate(-124.714 -139.255)" fill="#fff"/>
          <path id="Trazado_823393" data-name="Trazado 823393" d="M179.16,196.139l.105.105c-.044.035-.095.054-.127,0-.013-.022.013-.067.022-.1" transform="translate(-122.046 -133.63)" fill="#fff"/>
          <path id="Trazado_823394" data-name="Trazado 823394" d="M184.242,166.579l-.07-.057.1-.025-.031.082" transform="translate(-125.477 -113.435)" fill="#fff"/>
          <path id="Trazado_823395" data-name="Trazado 823395" d="M5.825,69.517l-.059.077c-.026-.061.011-.073.059-.077" transform="translate(-3.923 -47.362)" fill="#fff"/>
          <path id="Trazado_823396" data-name="Trazado 823396" d="M222.864,245.285l.088.049c-.061.041-.07-.013-.088-.049" transform="translate(-151.838 -167.114)" fill="#fff"/>
          <path id="Trazado_823397" data-name="Trazado 823397" d="M1.827,84.216l-.065.082c-.015-.057.018-.075.065-.082" transform="translate(-1.198 -57.377)" fill="#fff"/>
          <path id="Trazado_823398" data-name="Trazado 823398" d="M8.509,143.567l.061.073c-.05,0-.083-.013-.061-.073" transform="translate(-5.792 -97.813)" fill="#fff"/>
          <path id="Trazado_823399" data-name="Trazado 823399" d="M194.535,54.922a.075.075,0,0,1-.054-.052c.055-.021.071,0,.054.052" transform="translate(-132.501 -37.377)" fill="#fff"/>
          <path id="Trazado_823400" data-name="Trazado 823400" d="M181.771,36.012l.01.016v-.01Z" transform="translate(-123.841 -24.535)" fill="#fff"/>
          <path id="Trazado_823401" data-name="Trazado 823401" d="M182.566,202.91l.047.084c-.039-.015-.09-.023-.047-.084" transform="translate(-124.372 -138.243)" fill="#fff"/>
          <path id="Trazado_823402" data-name="Trazado 823402" d="M197.42,60.718h0l.013.063-.017-.063" transform="translate(-134.503 -41.367)" fill="#fff"/>
          <path id="Trazado_823403" data-name="Trazado 823403" d="M198.052,105.819a.541.541,0,0,1,.016-.624.676.676,0,0,1-.016.624" transform="translate(-134.871 -71.67)" fill="#fff"/>
          <path id="Trazado_823404" data-name="Trazado 823404" d="M198.041,98.427c-.125-.053-.062-.155-.063-.24.165.042.19.121.063.24" transform="translate(-134.873 -66.895)" fill="#fff"/>
          <path id="Trazado_823405" data-name="Trazado 823405" d="M187.441,59.507a.161.161,0,0,1-.146-.215c.141.009.142.113.146.215" transform="translate(-127.601 -40.396)" fill="#fff"/>
          <path id="Trazado_823406" data-name="Trazado 823406" d="M198.045,100.592c-.113-.053-.113-.1,0-.157.08.053.079.1,0,.157" transform="translate(-134.871 -68.427)" fill="#fff"/>
          <path id="Trazado_823407" data-name="Trazado 823407" d="M87.652,9.422c-.067.008-.056.136-.153.1.02-.082.08-.1.153-.1" transform="translate(-59.613 -6.419)" fill="#fff"/>
          <path id="Trazado_823408" data-name="Trazado 823408" d="M189.928,183.644l-.07-.152c.062,0,.138-.024.161.056.016.058-.041.082-.091.1" transform="translate(-129.351 -125.011)" fill="#fff"/>
          <path id="Trazado_823409" data-name="Trazado 823409" d="M190.324,65.437c-.092-.03-.076-.094-.051-.161.109.024.171.064.051.161" transform="translate(-129.62 -44.473)" fill="#fff"/>
          <path id="Trazado_823410" data-name="Trazado 823410" d="M192.278,135.922c-.022-.06.011-.074.061-.075Z" transform="translate(-130.995 -92.553)" fill="#fff"/>
          <path id="Trazado_823411" data-name="Trazado 823411" d="M189.284,143.157c-.019-.059.011-.075.063-.072l-.063.072" transform="translate(-128.956 -97.484)" fill="#fff"/>
          <path id="Trazado_823412" data-name="Trazado 823412" d="M40.883,174.3c.056-.025.07-.006.051.048a.067.067,0,0,1-.051-.048" transform="translate(-27.854 -118.743)" fill="#fff"/>
          <path id="Trazado_823413" data-name="Trazado 823413" d="M158.785,180.077c.017-.039.028-.086.088-.054l-.088.054" transform="translate(-108.181 -122.643)" fill="#fff"/>
          <path id="Trazado_823414" data-name="Trazado 823414" d="M156.283,181.817c.017-.04.031-.086.091-.058l-.091.058" transform="translate(-106.476 -123.827)" fill="#fff"/>
          <path id="Trazado_823415" data-name="Trazado 823415" d="M155.539,182.317c.017-.04.03-.085.09-.058l-.09.058" transform="translate(-105.969 -124.168)" fill="#fff"/>
          <path id="Trazado_823416" data-name="Trazado 823416" d="M154.79,182.818c.017-.04.03-.086.09-.056l-.09.056" transform="translate(-105.459 -124.51)" fill="#fff"/>
          <path id="Trazado_823417" data-name="Trazado 823417" d="M153.555,183.571c.017-.037.025-.089.085-.048l-.085.048" transform="translate(-104.618 -125.025)" fill="#fff"/>
          <path id="Trazado_823418" data-name="Trazado 823418" d="M152.795,184.063c.017-.04.03-.086.09-.056l-.09.056" transform="translate(-104.1 -125.358)" fill="#fff"/>
          <path id="Trazado_823419" data-name="Trazado 823419" d="M149.8,185.811c.018-.037.027-.09.089-.05l-.089.05" transform="translate(-102.062 -126.55)" fill="#fff"/>
          <path id="Trazado_823420" data-name="Trazado 823420" d="M184.8,188.752l.061-.086-.061.086" transform="translate(-125.904 -128.539)" fill="#fff"/>
          <path id="Trazado_823421" data-name="Trazado 823421" d="M184.233,189.5l.083-.083-.083.083" transform="translate(-125.519 -129.054)" fill="#fff"/>
          <path id="Trazado_823422" data-name="Trazado 823422" d="M191.093,67.095c-.05,0-.08-.011-.058-.069l.058.069" transform="translate(-130.148 -45.665)" fill="#fff"/>
          <path id="Trazado_823423" data-name="Trazado 823423" d="M192.09,69.6c-.049,0-.085-.014-.058-.075l.058.075" transform="translate(-130.826 -47.365)" fill="#fff"/>
          <path id="Trazado_823424" data-name="Trazado 823424" d="M18.247,36.567l.414-1.422.067-.076.18-.56.059-.072a28.037,28.037,0,0,1,9.09-11.972,27.384,27.384,0,0,1,6.5-3.662,26.891,26.891,0,0,1,4.327-1.342,26.116,26.116,0,0,1,3.052-.453,27.164,27.164,0,0,1,3.742-.136c.947.041,1.886.192,2.827.3a25.765,25.765,0,0,1,4.728,1.074,32.08,32.08,0,0,1,4.446,1.862.945.945,0,0,0,.15.046l.085.048c.18.05.268.262.472.271l.083.047c.943.679,1.941,1.28,2.856,2,.258.2.529.386.795.578a.065.065,0,0,0,.052.047c.616.554,1.262,1.077,1.842,1.666a28.645,28.645,0,0,1,4.461,5.825.4.4,0,0,0,.081.079l.062.06a.14.14,0,0,1,.019.071l.051.086c.313.721.755,1.375,1.069,2.1.22.506.448,1.009.629,1.529.117.337.239.675.339,1.02.346,1.19.706,2.374.935,3.6a27.042,27.042,0,0,1,.487,3.777,16.768,16.768,0,0,1,.05,2.089c-.092,1.151-.137,2.3-.345,3.451-.2,1.1-.45,2.181-.686,3.268-.151.7-.413,1.374-.629,2.059A21.247,21.247,0,0,1,68.474,58.2a26.923,26.923,0,0,1-8.223,8.911A28.549,28.549,0,0,1,54.359,70.2a34.363,34.363,0,0,1-5.823,1.484,25.5,25.5,0,0,1-4.71.256,12.429,12.429,0,0,1-2.158-.107c-.712-.128-1.43-.242-2.142-.38a27.825,27.825,0,0,1-15.1-8.429,27.854,27.854,0,0,1-5.094-7.787,26,26,0,0,1-1.185-3.4c-.267-.955-.463-1.922-.659-2.889-.146-.722-.172-1.468-.26-2.2a25,25,0,0,1-.076-3.956,8.38,8.38,0,0,1,.216-2.086,1.924,1.924,0,0,0,.019-.473l.063-.084c.11-.768.248-1.531.433-2.284.1-.4.207-.806.312-1.208l.049-.086M44.4,19.5a16.462,16.462,0,0,0-3.308.178,22.974,22.974,0,0,0-3.871.867c-.231.067-.506-.03-.673.116-.423.369-.995.366-1.452.64-.121.072-.371-.019-.447.067a2.857,2.857,0,0,1-1.356.774,10.356,10.356,0,0,0-1.538.853c-.615.3-1.132.8-1.724,1.161a17.639,17.639,0,0,0-1.862,1.473A14.427,14.427,0,0,0,26.2,27.595a31.312,31.312,0,0,0-2.507,3.317c-.367.584-.711,1.179-1.043,1.782A22.482,22.482,0,0,0,20.9,36.663,24.69,24.69,0,0,0,20.1,39.9a23.182,23.182,0,0,0-.323,3.058,25.913,25.913,0,0,0,.308,6.014,23.41,23.41,0,0,0,1.219,4.177,24.453,24.453,0,0,0,3.616,6.518,28.607,28.607,0,0,0,2.691,2.959A24.547,24.547,0,0,0,34.9,67.362a27.659,27.659,0,0,0,3.952,1.321c.626.158,1.271.222,1.9.347a13.271,13.271,0,0,0,2.464.275,27.439,27.439,0,0,0,3.006-.054c.791-.079,1.6-.049,2.382-.2a26.4,26.4,0,0,0,10.373-4.223,24.786,24.786,0,0,0,9.945-14.526,21.351,21.351,0,0,0,.519-3.262,28.174,28.174,0,0,0,.191-2.825,26.239,26.239,0,0,0-.518-4.918,21.435,21.435,0,0,0-.878-3.112,31.257,31.257,0,0,0-1.971-4.278,23.265,23.265,0,0,0-2.838-4,25.512,25.512,0,0,0-6.481-5.229c-.525-.3-1.071-.572-1.617-.838a10.208,10.208,0,0,0-1.619-.722c-.544-.156-1.009-.471-1.574-.6-.833-.185-1.669-.373-2.492-.591-.652-.174-1.384.013-1.969-.44-.017-.013-.1.03-.127.065a.238.238,0,0,1-.286.079c-.331-.152-.681-.022-1.007-.084A13.192,13.192,0,0,0,44.4,19.5" transform="translate(-11.66 -11.482)" fill="#fff"/>
          <path id="Trazado_823425" data-name="Trazado 823425" d="M178.826,60.849l-.051-.086c.04.015.087.026.051.086" transform="translate(-121.8 -41.398)" fill="#fff"/>
          <path id="Trazado_823426" data-name="Trazado 823426" d="M18.036,89.942l-.063.084c-.016-.056.019-.074.063-.084" transform="translate(-12.242 -61.278)" fill="#fff"/>
          <path id="Trazado_823427" data-name="Trazado 823427" d="M178.583,60.4l-.062-.06c.055-.016.073.007.062.06" transform="translate(-121.627 -41.107)" fill="#fff"/>
          <path id="Trazado_823428" data-name="Trazado 823428" d="M20.533,78.713l-.049.086c-.039-.06.01-.07.049-.086" transform="translate(-13.946 -53.628)" fill="#fff"/>
          <path id="Trazado_823429" data-name="Trazado 823429" d="M158.379,36.473a.066.066,0,0,1-.052-.047c.059-.031.07-.008.052.047" transform="translate(-107.869 -24.808)" fill="#fff"/>
          <path id="Trazado_823430" data-name="Trazado 823430" d="M146.693,28.238l-.083-.047c.059-.04.068.01.083.047" transform="translate(-99.886 -19.196)" fill="#fff"/>
          <path id="Trazado_823431" data-name="Trazado 823431" d="M22.027,74.01l-.067.076c-.014-.058.016-.076.067-.076" transform="translate(-14.959 -50.423)" fill="#fff"/>
          <path id="Trazado_823432" data-name="Trazado 823432" d="M144.949,27.238l-.085-.048c.06-.039.069.01.085.048" transform="translate(-98.696 -18.515)" fill="#fff"/>
          <path id="Trazado_823433" data-name="Trazado 823433" d="M22.785,72.029l-.06.072c-.024-.061.01-.073.06-.072" transform="translate(-15.477 -49.073)" fill="#fff"/>
          <path id="Trazado_823434" data-name="Trazado 823434" d="M74.889,55.378q.83,1.468,1.66,2.936,1.537,2.738,3.068,5.48c.823,1.483,1.693,2.94,2.434,4.467a5.124,5.124,0,0,1-4.759,7.448C71.8,75.693,66.3,75.7,60.8,75.7c-3.271,0-6.543-.032-9.813.011a4.823,4.823,0,0,1-4.249-2.342,4.746,4.746,0,0,1-.847-2.943A5.031,5.031,0,0,1,46.37,68.5c.673-1.434,1.479-2.8,2.276-4.164a.278.278,0,0,0,.1-.22l.3-.494a.3.3,0,0,0,.1-.26l.62-1.012a.3.3,0,0,0,.1-.268c1.017-1.749,1.979-3.528,2.969-5.292.8-1.428,1.6-2.86,2.419-4.275.158-.272.319-.542.478-.813a.676.676,0,0,0,.176-.389c.869-1.539,1.72-3.088,2.613-4.612.467-.8.9-1.608,1.35-2.413a4.8,4.8,0,0,1,3.955-2.628,4.666,4.666,0,0,1,4.52,2.1c.971,1.495,1.789,3.081,2.654,4.637a9.971,9.971,0,0,1,.815,1.544c.08.232.135.473.378.6-.046.078-.064.144.065.142.284.38.427.845.734,1.211l.061.059a27.223,27.223,0,0,0,1.847,3.335c0,.03,0,.06,0,.09M64.173,73.089V73.1q6.257,0,12.514,0a5.279,5.279,0,0,0,1.692-.133,2.589,2.589,0,0,0,1.391-3.54c-.367-.756-.826-1.466-1.238-2.2-1.213-2.16-2.429-4.318-3.63-6.485-.547-.986-1.1-1.968-1.63-2.965-.386-.729-.851-1.421-1.253-2.146-.8-1.442-1.6-2.881-2.4-4.326-.282-.514-.538-1.05-.838-1.545-.442-.729-.862-1.47-1.273-2.216-.439-.8-.84-1.613-1.335-2.379a2.373,2.373,0,0,0-3.793.017c-.416.632-.76,1.306-1.129,1.967-1.4,2.514-2.819,5.017-4.226,7.527s-2.806,5.025-4.213,7.534c-1.274,2.272-2.558,4.539-3.832,6.812a2.771,2.771,0,0,0-.481,1.74,3.964,3.964,0,0,0,.265.787,2.293,2.293,0,0,0,2.021,1.542q6.694,0,13.387,0" transform="translate(-31.264 -28.369)" fill="#fff"/>
          <path id="Trazado_823435" data-name="Trazado 823435" d="M33.392,67.726a27.045,27.045,0,0,1,.475-3.993,21.658,21.658,0,0,1,.89-3.394,23.276,23.276,0,0,1,2.23-4.354,21.675,21.675,0,0,1,3.335-4.033,1.306,1.306,0,0,1,1.651-.261,1.224,1.224,0,0,1,.321,1.875,6.664,6.664,0,0,1-.655.69,18.113,18.113,0,0,0-3.32,4.608,19.115,19.115,0,0,0-1.325,2.971,20.718,20.718,0,0,0-.74,3.109,20.2,20.2,0,0,0-.177,2.941,1.349,1.349,0,0,1-.893,1.359,1.378,1.378,0,0,1-1.79-1.317c-.005-.066,0-.132,0-.2" transform="translate(-22.749 -35.091)" fill="#fff"/>
          <path id="Trazado_823436" data-name="Trazado 823436" d="M76.888,71.987a.678.678,0,0,1-.176.389c-.006-.159-.073-.345.176-.389" transform="translate(-52.256 -49.045)" fill="#fff"/>
          <path id="Trazado_823437" data-name="Trazado 823437" d="M55.77,109.789a.3.3,0,0,1-.1.26c.091-.065-.228-.284.1-.26" transform="translate(-37.894 -74.799)" fill="#fff"/>
          <path id="Trazado_823438" data-name="Trazado 823438" d="M58.069,105.776a.3.3,0,0,1-.095.268c.028-.091-.133-.248.095-.268" transform="translate(-39.478 -72.066)" fill="#fff"/>
          <path id="Trazado_823439" data-name="Trazado 823439" d="M54.577,112.159a.279.279,0,0,1-.1.22c.027-.076-.132-.232.1-.22" transform="translate(-37.099 -76.414)" fill="#fff"/>
          <path id="Trazado_823440" data-name="Trazado 823440" d="M128.381,69.712c-.129,0-.111-.064-.065-.142.112.006.067.084.065.142" transform="translate(-87.399 -47.398)" fill="#fff"/>
          <path id="Trazado_823441" data-name="Trazado 823441" d="M136.881,84.556l0-.09.059.03-.057.06" transform="translate(-93.256 -57.547)" fill="#fff"/>
          <path id="Trazado_823442" data-name="Trazado 823442" d="M130.956,73.865l-.061-.059c.055-.016.073.006.061.059" transform="translate(-89.179 -50.281)" fill="#fff"/>
          <path id="Trazado_823443" data-name="Trazado 823443" d="M102.1,67.947c0,3.508.013,7.015,0,10.523,0,.416-.029.836-.048,1.253a1.285,1.285,0,0,1-1.726.873,1.505,1.505,0,0,1-.8-1.513q0-3.157,0-6.314c0-1.522,0-3.045,0-4.567,0-.225,0-.45.022-.674a1.278,1.278,0,0,1,2.553-.038c.009.078.006.158.008.237a.136.136,0,0,0,0,.22" transform="translate(-67.801 -45.166)" fill="#fff"/>
          <path id="Trazado_823444" data-name="Trazado 823444" d="M100.793,122.4c-.487,0-1.225-.493-1.268-.793a1.481,1.481,0,0,1,.342-1.4,1.123,1.123,0,0,1,.88-.358,1.246,1.246,0,0,1,1.336,1.288,1.188,1.188,0,0,1-1.29,1.264" transform="translate(-67.783 -81.65)" fill="#fff"/>
          <path id="Trazado_823445" data-name="Trazado 823445" d="M107.5,71.014a.136.136,0,0,1,0-.22c.157.074.153.147,0,.22" transform="translate(-73.202 -48.232)" fill="#fff"/>
        </g>
      </g>
    </g>
  </g>
</svg>
